<?xml version="1.0" encoding="utf-8"?>
<!-- Generator: Adobe Illustrator 19.2.0, SVG Export Plug-In . SVG Version: 6.00 Build 0)  -->
<svg version="1.1" id="Layer_1" xmlns="http://www.w3.org/2000/svg" xmlns:xlink="http://www.w3.org/1999/xlink" x="0px" y="0px"
	 viewBox="0 0 220 710" style="enable-background:new 0 0 220 710;" xml:space="preserve">
<style type="text/css">
	.st0{fill:#254D46;}
	.st1{fill:#FFFFFF;}
	.st2{display:none;}
	.st3{fill:#F2F2F2;}
	.st4{fill:#D1D2D3;fill-opacity:0.5;}
	.st5{fill:#D6727D;}
	.st6{fill:#F6B8C0;fill-opacity:0.5;}
</style>
<g id="Background">
</g>
<g>
	<g>
		<path class="st0" d="M220,193.2c0,14.8-12.1,26.8-26.8,26.8H26.8C12.1,220,0,207.9,0,193.2V26.8C0,12.1,12.1,0,26.8,0h166.3
			C207.9,0,220,12.1,220,26.8V193.2z"/>
	</g>
	<g>
		<path class="st1" d="M154,61.1c1.2-5.6,5.8-13.4,5.9-21.2c0-7.8-8.8-22.2-24.9-22.2c-15.7,0-19.1,5.3-25.7,7.4
			c-6.7-1.3-10.3-7.4-18-7.4c-8.6,0-11.8,3.6-16.8,2.9c-12-1.6-14.4,4.7-14.4,12.5c0,7.8,3.3,22.3,4.5,27.9
			c1.6,7.4,4.5,14.5,4.5,21.2c0,1.9,0,3.9-0.1,5.9c0,0,0,0,0,0c0.9,7.4,23.7,8,41,9.3c18.9,1.4,39.5,4.6,39.8,1.4
			c0,0,0.1-9.4,0.2-9.4c-0.3-2.4-0.5-4.8-0.5-7.1C149.5,75.6,152.4,68.5,154,61.1z"/>
		<path class="st1" d="M137.5,116.3c5.6,0,4-1.2,4-2c0-3-0.3-5.9,11.7-7.5c4.2-0.6,4-1.7,0.5-2.5c-4.6-1.1-9.1-2.2-15.6-2.7
			c-17.8-1.3-35.6-2.5-53.1-4.1c-9.5-0.9-14.9,0.4-18.8,2.1c-4.2,1.8,3.4,2.5,7.3,3.3c5.3,1,6.1,2.4,5.5,3.9
			c-1.3,3.5,4.8,5,16.8,5.8c11.8,0.8,23.1,2,34.6,3.1C132.7,115.9,135.1,116.1,137.5,116.3z"/>
		<path class="st1" d="M134.3,132.1c6.1,0.2,5.9-1,5.9-2c0-2.6-0.1-5.2,10.2-6.7c4.2-0.6,3.5-1.7-0.1-2.5c-4.1-1-8-1.9-13.6-2.4
			c-16.4-1.3-33-2.7-49-4.3c-8.9-0.9-14,0.4-18.2,1.9c-5,1.8,2.1,2.6,6.1,3.4c7.3,1.4,5.6,3.4,5.5,5.3c-0.1,1.9,2.4,2.9,9.1,3.4
			C105,129.4,119.6,130.8,134.3,132.1z"/>
		<path class="st1" d="M84.9,130.2c-6.6,0-10.2,1-12.8,2.1c-2.8,1.2,1.4,1.9,4.4,2.4c5.1,0.9,7.1,2.2,6.3,3.8
			c-1.3,2.6,2.9,3.9,12.1,4.6c11.7,0.9,23,2.1,34.4,3.3c6.7,0.7,10.3,0.5,9.6-1.8c-0.6-2.1-0.2-4,7.8-5.3c4-0.6,3.7-1.7,0.3-2.6
			c-1.8-0.5-3.6-1-5.7-1.3C122.9,133.1,103,132,84.9,130.2z"/>
		<path class="st1" d="M110.1,187.1c8.4-5.7,12.1-10.7,15.5-15.8c1.1-1.7,2.9-3,8.4-3.9c7.6-1.3,6.9-2.6,0.1-3.9
			c-13.1-2.5-28.4-3.8-42.6-5.8c-4.5-0.6-7.8,0.3-10.4,1.2c-3.3,1.2-1,2.1,2.8,2.8c5.6,1,6.8,2.4,7.6,4.1
			C95.1,172.7,99.3,179.7,110.1,187.1z"/>
		<path class="st1" d="M74.3,146.1c0.3,1.2,3.3,1.6,5.7,2.2c3.4,0.7,5.3,1.6,5.7,2.8c0.5,1.5-1.2,3.5,4.9,4.4
			c12,1.7,24.3,3.3,36.8,4.8c3.7,0.4,4.2-0.7,4.3-1.4c0.2-2.3,1.8-4.3,10-5.6c5.5-0.9,3.6-2.1-0.7-3c-16.3-3.3-35.9-4.7-54.4-6.6
			C80.9,143,76.1,144.6,74.3,146.1z"/>
	</g>
</g>
<g id="Guides" class="st2">
</g>
<g>
	<path class="st0" d="M220,683.2c0,14.8-12.1,26.8-26.8,26.8H26.8C12.1,710,0,698,0,683.2V516.9C0,502.1,12.1,490,26.8,490h166.3
		c14.8,0,26.8,12.1,26.8,26.8V683.2z"/>
</g>
<g>
	<path class="st3" d="M167.9,550.7c-3.9-5.6-12-8.8-17.4-7.7c-4.8,1-8.4,1.1-15.2-2.5c-10-5.1-21.7-2.8-28.8,0.7
		c-13.6,6.8-21.2,3.1-28.7,1.2c-6.3-1.5-11.1-1.7-17.8,3.5c-3.4,2.7-6.7,9.7-6.2,22.9c0.3,8.4,2.9,16.3,5.7,24.1
		c2.3,6.4,6.9,25.8,8.4,38.5c1.1,9.8,45.1,11.2,46.1,11.4c1.5,0.3,42.8-13.2,43.4-17.7c2.7-20.2,6.9-25.6,9.9-34.8
		C174,570.4,172.4,557.2,167.9,550.7z"/>
	<path class="st1" d="M98.4,553.4c8.9,0.9,16.6,5.6,31.9,5.3c15.3-0.3,23.7-8.8,27.9-8.8c15.8,0-1,35.8-3.8,48.8
		c-3.2,15-6.9,59.1-8.5,69.1c-3.7,23.4-16.2,28.5-12.1-2c1.2-8.9,1.1-19.7-2.4-29.3c-1.5-3.9-14.5-4.8-18.5,8.9
		c-0.9,3.2-2.3,7.1-3.2,12.9c-1.5,9.2-25.8,2-24.2-12.1c1.6-14.1,0.5-48.4,0-56.6c-0.5-8.2-4.2-26.7,0-30.8
		C89.5,554.8,92.3,552.7,98.4,553.4z"/>
	<path class="st4" d="M69.4,549.9c2,2.7,9.6,1.9,13.7,0.9c4.1-1,12.6-2.9,17.3-3.1c4.7-0.1,17.9,3.2,22.3,3.6
		c6.4,0.5,10-2.5,5.9-4.5c-4.1-2-29.3,0.8-33.9,0.8c-4.5,0-9.9,0.2-15.7,0.7C74.9,548.6,67.8,547.7,69.4,549.9z"/>
</g>
<path class="st5" d="M190.3,609.8c-14.6,0.6-29-3.4-30.8,3.7c-8.1,30.5-58.6,23.2-79.1,21.6c-9.8-0.8-13.2-11.5-14.9-19.5
	c-1.5-6.9-43.2-6.3-65.5-5.7v76.6c0,13,10.6,23.6,23.6,23.6h172.8c13,0,23.6-10.6,23.6-23.6V611C207.1,611,198.9,609.5,190.3,609.8z
	"/>
<path class="st6" d="M112.8,643.6c16.9-0.9,38.1-7.1,44.2-14.5c6.1-7.5,6.7-16.3,11.4-15.1c4.7,1.2,0.5,12.9-3.6,18.8
	c-4.1,5.9-16.4,12.9-28.1,15.8c-11.7,2.9-71.6,2.8-67.6-5C73.7,634.8,95.9,644.5,112.8,643.6z"/>
<g id="Guides_1_" class="st2">
</g>
<g>
	<g>
		<path class="st0" d="M220,438.2c0,14.8-12.1,26.8-26.8,26.8H26.8C12.1,465,0,452.9,0,438.2V271.8C0,257.1,12.1,245,26.8,245h166.3
			c14.8,0,26.8,12.1,26.8,26.8V438.2z"/>
	</g>
	<g>
		<path class="st3" d="M161.4,274.5c-3.6-5.3-11.1-8.2-16.2-7.1c-4.5,0.9-7.8,1-14.2-2.3c-9.3-4.8-20.2-2.6-26.8,0.6
			c-12.7,6.3-19.7,2.9-26.8,1.1c-5.8-1.4-10.3-1.5-16.6,3.3c-3.2,2.5-6.2,9-5.8,21.3c0.3,7.9,2.7,15.2,5.4,22.4
			c2.2,5.9,6.5,24.1,7.8,35.8c1.1,9.1,2.2,35,3.2,40.9c1.4,8.3,7.2,25.6,12.6,33.3c2.6,3.7,8,8.8,14.2,8.8c3,0,5.4-1.7,6.5-7.3
			c0.9-8.7-0.5-18.7-0.5-21.4c-0.2-8.1,1.4-24,2.7-29.3c1-4,3.3-14.7,4.2-14.5c1.4,0.2,2.8,19.2,3,20.6c0.7,7.3,0,18.7-0.2,20.4
			c-0.9,10-0.9,15.5-0.8,18.4c0.2,5.6,3.8,10.4,8.2,9.8c6.9-1,13.7-10.4,16.2-16c2.5-5.4,5.8-13.7,8.8-28.5c1.8-9.3,4.6-37,5.2-41.2
			c2.5-18.8,6.4-23.9,9.2-32.4C167,292.8,165.5,280.6,161.4,274.5z"/>
		<path class="st1" d="M96.6,277c8.3,0.9,15.5,5.2,29.7,4.9c14.2-0.3,22-8.2,26-8.2c14.8,0-0.9,33.3-3.6,45.5
			c-3,13.9-6.5,55.1-7.9,64.3c-3.4,21.8-9.4,45.2-19.3,46c-6.8,0.6,4.3-19.4,8.1-47.8c1.1-8.3,1.1-18.4-2.3-27.2
			c-1.4-3.6-13.5-4.5-17.3,8.3c-0.9,3-2.1,6.6-3,12c-1.4,8.6-3,25.9-2.7,29.3c0.4,5.2,1.1,16,0.5,21.4c-0.6,5.8-2.7,6-4.7,7
			c-3.8,1.9-14.5-15.6-16.9-26.8c-2.5-11.2-0.2-29,1.3-42.1s0.4-45.1,0-52.7c-0.4-7.6-3.9-24.9,0-28.7
			C88.3,278.4,90.9,276.4,96.6,277z"/>
		<path class="st4" d="M69.6,273.7c1.9,2.5,9,1.8,12.8,0.8c3.8-1,11.7-2.7,16.1-2.9c4.4-0.1,16.6,3,20.8,3.3c6,0.5,9.3-2.3,5.5-4.2
			c-3.8-1.9-27.3,0.8-31.6,0.8c-4.2,0-9.3,0.1-14.6,0.7C74.7,272.6,68.1,271.7,69.6,273.7z"/>
		<g>
			<polygon class="st4" points="109.7,363.7 109.7,363.7 109.7,363.7 			"/>
			<path class="st4" d="M111.2,360.3c1.4,0.2,2.8,19.2,3,20.6c0.7,7.3,0,18.7-0.2,20.4c-0.9,10-0.9,15.5-0.8,18.4
				c0.1,1.7,0.4,3.3,1,4.7c5.1-2.3,8.2-9.8,9.3-13.8c1.4-4.6,5.5-23.2,6.3-28.1c0.8-4.9,0.8-20.5-1.6-26.2
				c-2.5-5.7-6.8-4.9-10.9-3.5c-3.2,1.1-4.8,3.9-6.3,7.8C111.1,360.3,111.1,360.3,111.2,360.3z"/>
		</g>
	</g>
	<path class="st3" d="M219.4,268.2c-31.2,0-31.2,0.2-31.2,31.2c0-31,0-31.2-31.2-31.2c31.2,0,31.2,0,31.2-31.2
		C188.1,268.2,188.1,268.2,219.4,268.2z"/>
	<path class="st3" d="M80.7,436c-45.1,0-45.1,0.3-45.1,45.1c0-44.8,0-45.1-45.1-45.1c45.1,0,45.1,0,45.1-45.1
		C35.6,436,35.6,436,80.7,436z"/>
</g>
<g id="Guides_2_" class="st2">
</g>
</svg>
