<svg id="Layer_1" data-name="Layer 1" xmlns="http://www.w3.org/2000/svg" xmlns:xlink="http://www.w3.org/1999/xlink" viewBox="0 0 2000.08 426.15"><defs><style>.cls-1,.cls-10,.cls-100,.cls-103,.cls-11,.cls-12,.cls-13,.cls-14,.cls-15,.cls-16,.cls-17,.cls-18,.cls-19,.cls-2,.cls-20,.cls-21,.cls-22,.cls-23,.cls-24,.cls-25,.cls-26,.cls-27,.cls-28,.cls-29,.cls-3,.cls-30,.cls-31,.cls-32,.cls-33,.cls-34,.cls-35,.cls-36,.cls-37,.cls-38,.cls-39,.cls-4,.cls-40,.cls-41,.cls-42,.cls-43,.cls-44,.cls-45,.cls-46,.cls-47,.cls-48,.cls-49,.cls-5,.cls-50,.cls-51,.cls-52,.cls-53,.cls-54,.cls-55,.cls-56,.cls-57,.cls-58,.cls-59,.cls-6,.cls-60,.cls-61,.cls-62,.cls-63,.cls-64,.cls-65,.cls-66,.cls-67,.cls-68,.cls-69,.cls-7,.cls-70,.cls-71,.cls-72,.cls-73,.cls-74,.cls-75,.cls-76,.cls-77,.cls-78,.cls-79,.cls-8,.cls-80,.cls-81,.cls-82,.cls-83,.cls-84,.cls-85,.cls-86,.cls-87,.cls-88,.cls-89,.cls-9,.cls-90,.cls-97,.cls-98,.cls-99{fill:none;}.cls-10,.cls-11,.cls-12,.cls-13,.cls-14,.cls-15,.cls-16,.cls-17,.cls-18,.cls-19,.cls-2,.cls-20,.cls-21,.cls-22,.cls-23,.cls-24,.cls-25,.cls-26,.cls-27,.cls-28,.cls-29,.cls-3,.cls-30,.cls-31,.cls-32,.cls-33,.cls-34,.cls-35,.cls-36,.cls-37,.cls-38,.cls-39,.cls-4,.cls-40,.cls-41,.cls-42,.cls-43,.cls-44,.cls-45,.cls-46,.cls-47,.cls-48,.cls-49,.cls-5,.cls-50,.cls-51,.cls-52,.cls-53,.cls-54,.cls-55,.cls-56,.cls-57,.cls-58,.cls-59,.cls-6,.cls-60,.cls-61,.cls-62,.cls-63,.cls-64,.cls-65,.cls-66,.cls-67,.cls-68,.cls-69,.cls-7,.cls-70,.cls-71,.cls-72,.cls-73,.cls-74,.cls-75,.cls-76,.cls-77,.cls-78,.cls-79,.cls-8,.cls-80,.cls-81,.cls-82,.cls-83,.cls-84,.cls-85,.cls-86,.cls-87,.cls-88,.cls-89,.cls-9,.cls-90{stroke:#2c858d;stroke-linecap:round;stroke-dasharray:0 14.6;}.cls-2{stroke-width:0.44px;}.cls-3{stroke-width:0.59px;}.cls-4{stroke-width:0.73px;}.cls-5{stroke-width:0.88px;}.cls-6{stroke-width:1.02px;}.cls-7{stroke-width:1.17px;}.cls-8{stroke-width:1.31px;}.cls-9{stroke-width:1.46px;}.cls-10{stroke-width:1.6px;}.cls-11{stroke-width:1.74px;}.cls-12{stroke-width:1.89px;}.cls-13{stroke-width:2.03px;}.cls-14{stroke-width:2.18px;}.cls-15{stroke-width:2.32px;}.cls-16{stroke-width:2.47px;}.cls-17{stroke-width:2.61px;}.cls-18{stroke-width:2.75px;}.cls-19{stroke-width:2.9px;}.cls-20{stroke-width:3.04px;}.cls-21{stroke-width:3.19px;}.cls-22{stroke-width:3.33px;}.cls-23{stroke-width:3.48px;}.cls-24{stroke-width:3.62px;}.cls-25{stroke-width:3.77px;}.cls-26{stroke-width:3.91px;}.cls-27{stroke-width:4.05px;}.cls-28{stroke-width:4.2px;}.cls-29{stroke-width:4.34px;}.cls-30{stroke-width:4.49px;}.cls-31{stroke-width:4.63px;}.cls-32{stroke-width:4.78px;}.cls-33{stroke-width:4.92px;}.cls-34{stroke-width:5.07px;}.cls-35{stroke-width:5.21px;}.cls-36{stroke-width:5.35px;}.cls-37{stroke-width:5.5px;}.cls-38{stroke-width:5.64px;}.cls-39{stroke-width:5.79px;}.cls-40{stroke-width:5.93px;}.cls-41{stroke-width:6.08px;}.cls-42{stroke-width:6.22px;}.cls-43{stroke-width:6.37px;}.cls-44{stroke-width:6.51px;}.cls-45{stroke-width:6.65px;}.cls-46{stroke-width:0.37px;}.cls-47{stroke-width:0.52px;}.cls-48{stroke-width:0.66px;}.cls-49{stroke-width:0.81px;}.cls-50{stroke-width:0.95px;}.cls-51{stroke-width:1.09px;}.cls-52{stroke-width:1.24px;}.cls-53{stroke-width:1.38px;}.cls-54{stroke-width:1.53px;}.cls-55{stroke-width:1.67px;}.cls-56{stroke-width:1.82px;}.cls-57{stroke-width:1.96px;}.cls-58{stroke-width:2.11px;}.cls-59{stroke-width:2.25px;}.cls-60{stroke-width:2.39px;}.cls-61{stroke-width:2.54px;}.cls-62{stroke-width:2.68px;}.cls-63{stroke-width:2.83px;}.cls-64{stroke-width:2.97px;}.cls-65{stroke-width:3.12px;}.cls-66{stroke-width:3.26px;}.cls-67{stroke-width:3.4px;}.cls-68{stroke-width:3.55px;}.cls-69{stroke-width:3.69px;}.cls-70{stroke-width:3.84px;}.cls-71{stroke-width:3.98px;}.cls-72{stroke-width:4.13px;}.cls-73{stroke-width:4.27px;}.cls-74{stroke-width:4.42px;}.cls-75{stroke-width:4.56px;}.cls-76{stroke-width:4.7px;}.cls-77{stroke-width:4.85px;}.cls-78{stroke-width:4.99px;}.cls-79{stroke-width:5.14px;}.cls-80{stroke-width:5.28px;}.cls-81{stroke-width:5.43px;}.cls-82{stroke-width:5.57px;}.cls-83{stroke-width:5.72px;}.cls-84{stroke-width:5.86px;}.cls-85{stroke-width:6px;}.cls-86{stroke-width:6.15px;}.cls-87{stroke-width:6.29px;}.cls-88{stroke-width:6.44px;}.cls-89{stroke-width:6.58px;}.cls-90{stroke-width:6.73px;}.cls-91{fill:#372d3d;}.cls-92{fill:#211429;}.cls-93{fill:#58313d;}.cls-94{fill:#fef2f7;}.cls-95{fill:#fff;}.cls-96{fill:#f6dce9;}.cls-100,.cls-97{stroke:#fef2f7;}.cls-100,.cls-103,.cls-97,.cls-98{stroke-miterlimit:10;}.cls-97{stroke-width:0.5px;}.cls-103,.cls-98,.cls-99{stroke:#fff;}.cls-99{stroke-linejoin:round;}.cls-100{stroke-width:0.2px;}.cls-101{clip-path:url(#clip-path);}.cls-102{fill:url(#_0_to50_Dot_Gradation);}.cls-103{stroke-width:3px;}</style><clipPath id="clip-path" transform="translate(0 -844.99)"><rect class="cls-1" x="691.12" y="1000.39" width="1308.96" height="165.13"/></clipPath><pattern id="_0_to50_Dot_Gradation" data-name="0 to50% Dot Gradation" width="145" height="652.9" patternTransform="translate(394.76 -813.99) scale(0.4)" patternUnits="userSpaceOnUse" viewBox="0 0 145 652.9"><rect class="cls-1" width="145" height="652.9"/><line class="cls-2" x1="137.8" y1="641.72" x2="183.8" y2="641.72"/><line class="cls-3" x1="137.8" y1="627.09" x2="183.8" y2="627.09"/><line class="cls-4" x1="137.8" y1="612.46" x2="183.8" y2="612.46"/><line class="cls-5" x1="137.8" y1="597.82" x2="183.8" y2="597.82"/><line class="cls-6" x1="137.8" y1="583.19" x2="183.8" y2="583.19"/><line class="cls-7" x1="137.8" y1="568.56" x2="183.8" y2="568.56"/><line class="cls-8" x1="137.8" y1="553.93" x2="183.8" y2="553.93"/><line class="cls-9" x1="137.8" y1="539.3" x2="183.8" y2="539.3"/><line class="cls-10" x1="137.8" y1="524.66" x2="183.8" y2="524.66"/><line class="cls-11" x1="137.8" y1="510.03" x2="183.8" y2="510.03"/><line class="cls-12" x1="137.8" y1="495.4" x2="183.8" y2="495.4"/><line class="cls-13" x1="137.8" y1="480.77" x2="183.8" y2="480.77"/><line class="cls-14" x1="137.8" y1="466.14" x2="183.8" y2="466.14"/><line class="cls-15" x1="137.8" y1="451.51" x2="183.8" y2="451.51"/><line class="cls-16" x1="137.8" y1="436.87" x2="183.8" y2="436.87"/><line class="cls-17" x1="137.8" y1="422.24" x2="183.8" y2="422.24"/><line class="cls-18" x1="137.8" y1="407.61" x2="183.8" y2="407.61"/><line class="cls-19" x1="137.8" y1="392.98" x2="183.8" y2="392.98"/><line class="cls-20" x1="137.8" y1="378.35" x2="183.8" y2="378.35"/><line class="cls-21" x1="137.8" y1="363.72" x2="183.8" y2="363.72"/><line class="cls-22" x1="137.8" y1="349.08" x2="183.8" y2="349.08"/><line class="cls-23" x1="137.8" y1="334.45" x2="183.8" y2="334.45"/><line class="cls-24" x1="137.8" y1="319.82" x2="183.8" y2="319.82"/><line class="cls-25" x1="137.8" y1="305.19" x2="183.8" y2="305.19"/><line class="cls-26" x1="137.8" y1="290.56" x2="183.8" y2="290.56"/><line class="cls-27" x1="137.8" y1="275.92" x2="183.8" y2="275.92"/><line class="cls-28" x1="137.8" y1="261.29" x2="183.8" y2="261.29"/><line class="cls-29" x1="137.8" y1="246.66" x2="183.8" y2="246.66"/><line class="cls-30" x1="137.8" y1="232.03" x2="183.8" y2="232.03"/><line class="cls-31" x1="137.8" y1="217.4" x2="183.8" y2="217.4"/><line class="cls-32" x1="137.8" y1="202.76" x2="183.8" y2="202.76"/><line class="cls-33" x1="137.8" y1="188.13" x2="183.8" y2="188.13"/><line class="cls-34" x1="137.8" y1="173.5" x2="183.8" y2="173.5"/><line class="cls-35" x1="137.8" y1="158.87" x2="183.8" y2="158.87"/><line class="cls-36" x1="137.8" y1="144.24" x2="183.8" y2="144.24"/><line class="cls-37" x1="137.8" y1="129.6" x2="183.8" y2="129.6"/><line class="cls-38" x1="137.8" y1="114.97" x2="183.8" y2="114.97"/><line class="cls-39" x1="137.8" y1="100.34" x2="183.8" y2="100.34"/><line class="cls-40" x1="137.8" y1="85.71" x2="183.8" y2="85.71"/><line class="cls-41" x1="137.8" y1="71.08" x2="183.8" y2="71.08"/><line class="cls-42" x1="137.8" y1="56.45" x2="183.8" y2="56.45"/><line class="cls-43" x1="137.8" y1="41.81" x2="183.8" y2="41.81"/><line class="cls-44" x1="137.8" y1="27.18" x2="183.8" y2="27.18"/><line class="cls-45" x1="137.8" y1="12.55" x2="183.8" y2="12.55"/><line class="cls-46" x1="130.5" y1="649.04" x2="176.5" y2="649.04"/><line class="cls-47" x1="130.5" y1="634.4" x2="176.5" y2="634.4"/><line class="cls-48" x1="130.5" y1="619.77" x2="176.5" y2="619.77"/><line class="cls-49" x1="130.5" y1="605.14" x2="176.5" y2="605.14"/><line class="cls-50" x1="130.5" y1="590.51" x2="176.5" y2="590.51"/><line class="cls-51" x1="130.5" y1="575.88" x2="176.5" y2="575.88"/><line class="cls-52" x1="130.5" y1="561.24" x2="176.5" y2="561.24"/><line class="cls-53" x1="130.5" y1="546.61" x2="176.5" y2="546.61"/><line class="cls-54" x1="130.5" y1="531.98" x2="176.5" y2="531.98"/><line class="cls-55" x1="130.5" y1="517.35" x2="176.5" y2="517.35"/><line class="cls-56" x1="130.5" y1="502.72" x2="176.5" y2="502.72"/><line class="cls-57" x1="130.5" y1="488.09" x2="176.5" y2="488.09"/><line class="cls-58" x1="130.5" y1="473.45" x2="176.5" y2="473.45"/><line class="cls-59" x1="130.5" y1="458.82" x2="176.5" y2="458.82"/><line class="cls-60" x1="130.5" y1="444.19" x2="176.5" y2="444.19"/><line class="cls-61" x1="130.5" y1="429.56" x2="176.5" y2="429.56"/><line class="cls-62" x1="130.5" y1="414.93" x2="176.5" y2="414.93"/><line class="cls-63" x1="130.5" y1="400.29" x2="176.5" y2="400.29"/><line class="cls-64" x1="130.5" y1="385.66" x2="176.5" y2="385.66"/><line class="cls-65" x1="130.5" y1="371.03" x2="176.5" y2="371.03"/><line class="cls-66" x1="130.5" y1="356.4" x2="176.5" y2="356.4"/><line class="cls-67" x1="130.5" y1="341.77" x2="176.5" y2="341.77"/><line class="cls-68" x1="130.5" y1="327.14" x2="176.5" y2="327.14"/><line class="cls-69" x1="130.5" y1="312.5" x2="176.5" y2="312.5"/><line class="cls-70" x1="130.5" y1="297.87" x2="176.5" y2="297.87"/><line class="cls-71" x1="130.5" y1="283.24" x2="176.5" y2="283.24"/><line class="cls-72" x1="130.5" y1="268.61" x2="176.5" y2="268.61"/><line class="cls-73" x1="130.5" y1="253.98" x2="176.5" y2="253.98"/><line class="cls-74" x1="130.5" y1="239.34" x2="176.5" y2="239.34"/><line class="cls-75" x1="130.5" y1="224.71" x2="176.5" y2="224.71"/><line class="cls-76" x1="130.5" y1="210.08" x2="176.5" y2="210.08"/><line class="cls-77" x1="130.5" y1="195.45" x2="176.5" y2="195.45"/><line class="cls-78" x1="130.5" y1="180.82" x2="176.5" y2="180.82"/><line class="cls-79" x1="130.5" y1="166.18" x2="176.5" y2="166.18"/><line class="cls-80" x1="130.5" y1="151.55" x2="176.5" y2="151.55"/><line class="cls-81" x1="130.5" y1="136.92" x2="176.5" y2="136.92"/><line class="cls-82" x1="130.5" y1="122.29" x2="176.5" y2="122.29"/><line class="cls-83" x1="130.5" y1="107.66" x2="176.5" y2="107.66"/><line class="cls-84" x1="130.5" y1="93.02" x2="176.5" y2="93.02"/><line class="cls-85" x1="130.5" y1="78.39" x2="176.5" y2="78.39"/><line class="cls-86" x1="130.5" y1="63.76" x2="176.5" y2="63.76"/><line class="cls-87" x1="130.5" y1="49.13" x2="176.5" y2="49.13"/><line class="cls-88" x1="130.5" y1="34.5" x2="176.5" y2="34.5"/><line class="cls-89" x1="130.5" y1="19.87" x2="176.5" y2="19.87"/><line class="cls-90" x1="130.5" y1="5.23" x2="176.5" y2="5.23"/><line class="cls-2" x1="108.8" y1="641.72" x2="154.8" y2="641.72"/><line class="cls-3" x1="108.8" y1="627.09" x2="154.8" y2="627.09"/><line class="cls-4" x1="108.8" y1="612.46" x2="154.8" y2="612.46"/><line class="cls-5" x1="108.8" y1="597.82" x2="154.8" y2="597.82"/><line class="cls-6" x1="108.8" y1="583.19" x2="154.8" y2="583.19"/><line class="cls-7" x1="108.8" y1="568.56" x2="154.8" y2="568.56"/><line class="cls-8" x1="108.8" y1="553.93" x2="154.8" y2="553.93"/><line class="cls-9" x1="108.8" y1="539.3" x2="154.8" y2="539.3"/><line class="cls-10" x1="108.8" y1="524.66" x2="154.8" y2="524.66"/><line class="cls-11" x1="108.8" y1="510.03" x2="154.8" y2="510.03"/><line class="cls-12" x1="108.8" y1="495.4" x2="154.8" y2="495.4"/><line class="cls-13" x1="108.8" y1="480.77" x2="154.8" y2="480.77"/><line class="cls-14" x1="108.8" y1="466.14" x2="154.8" y2="466.14"/><line class="cls-15" x1="108.8" y1="451.51" x2="154.8" y2="451.51"/><line class="cls-16" x1="108.8" y1="436.87" x2="154.8" y2="436.87"/><line class="cls-17" x1="108.8" y1="422.24" x2="154.8" y2="422.24"/><line class="cls-18" x1="108.8" y1="407.61" x2="154.8" y2="407.61"/><line class="cls-19" x1="108.8" y1="392.98" x2="154.8" y2="392.98"/><line class="cls-20" x1="108.8" y1="378.35" x2="154.8" y2="378.35"/><line class="cls-21" x1="108.8" y1="363.72" x2="154.8" y2="363.72"/><line class="cls-22" x1="108.8" y1="349.08" x2="154.8" y2="349.08"/><line class="cls-23" x1="108.8" y1="334.45" x2="154.8" y2="334.45"/><line class="cls-24" x1="108.8" y1="319.82" x2="154.8" y2="319.82"/><line class="cls-25" x1="108.8" y1="305.19" x2="154.8" y2="305.19"/><line class="cls-26" x1="108.8" y1="290.56" x2="154.8" y2="290.56"/><line class="cls-27" x1="108.8" y1="275.92" x2="154.8" y2="275.92"/><line class="cls-28" x1="108.8" y1="261.29" x2="154.8" y2="261.29"/><line class="cls-29" x1="108.8" y1="246.66" x2="154.8" y2="246.66"/><line class="cls-30" x1="108.8" y1="232.03" x2="154.8" y2="232.03"/><line class="cls-31" x1="108.8" y1="217.4" x2="154.8" y2="217.4"/><line class="cls-32" x1="108.8" y1="202.76" x2="154.8" y2="202.76"/><line class="cls-33" x1="108.8" y1="188.13" x2="154.8" y2="188.13"/><line class="cls-34" x1="108.8" y1="173.5" x2="154.8" y2="173.5"/><line class="cls-35" x1="108.8" y1="158.87" x2="154.8" y2="158.87"/><line class="cls-36" x1="108.8" y1="144.24" x2="154.8" y2="144.24"/><line class="cls-37" x1="108.8" y1="129.6" x2="154.8" y2="129.6"/><line class="cls-38" x1="108.8" y1="114.97" x2="154.8" y2="114.97"/><line class="cls-39" x1="108.8" y1="100.34" x2="154.8" y2="100.34"/><line class="cls-40" x1="108.8" y1="85.71" x2="154.8" y2="85.71"/><line class="cls-41" x1="108.8" y1="71.08" x2="154.8" y2="71.08"/><line class="cls-42" x1="108.8" y1="56.45" x2="154.8" y2="56.45"/><line class="cls-43" x1="108.8" y1="41.81" x2="154.8" y2="41.81"/><line class="cls-44" x1="108.8" y1="27.18" x2="154.8" y2="27.18"/><line class="cls-45" x1="108.8" y1="12.55" x2="154.8" y2="12.55"/><line class="cls-46" x1="101.5" y1="649.04" x2="147.5" y2="649.04"/><line class="cls-47" x1="101.5" y1="634.4" x2="147.5" y2="634.4"/><line class="cls-48" x1="101.5" y1="619.77" x2="147.5" y2="619.77"/><line class="cls-49" x1="101.5" y1="605.14" x2="147.5" y2="605.14"/><line class="cls-50" x1="101.5" y1="590.51" x2="147.5" y2="590.51"/><line class="cls-51" x1="101.5" y1="575.88" x2="147.5" y2="575.88"/><line class="cls-52" x1="101.5" y1="561.24" x2="147.5" y2="561.24"/><line class="cls-53" x1="101.5" y1="546.61" x2="147.5" y2="546.61"/><line class="cls-54" x1="101.5" y1="531.98" x2="147.5" y2="531.98"/><line class="cls-55" x1="101.5" y1="517.35" x2="147.5" y2="517.35"/><line class="cls-56" x1="101.5" y1="502.72" x2="147.5" y2="502.72"/><line class="cls-57" x1="101.5" y1="488.09" x2="147.5" y2="488.09"/><line class="cls-58" x1="101.5" y1="473.45" x2="147.5" y2="473.45"/><line class="cls-59" x1="101.5" y1="458.82" x2="147.5" y2="458.82"/><line class="cls-60" x1="101.5" y1="444.19" x2="147.5" y2="444.19"/><line class="cls-61" x1="101.5" y1="429.56" x2="147.5" y2="429.56"/><line class="cls-62" x1="101.5" y1="414.93" x2="147.5" y2="414.93"/><line class="cls-63" x1="101.5" y1="400.29" x2="147.5" y2="400.29"/><line class="cls-64" x1="101.5" y1="385.66" x2="147.5" y2="385.66"/><line class="cls-65" x1="101.5" y1="371.03" x2="147.5" y2="371.03"/><line class="cls-66" x1="101.5" y1="356.4" x2="147.5" y2="356.4"/><line class="cls-67" x1="101.5" y1="341.77" x2="147.5" y2="341.77"/><line class="cls-68" x1="101.5" y1="327.14" x2="147.5" y2="327.14"/><line class="cls-69" x1="101.5" y1="312.5" x2="147.5" y2="312.5"/><line class="cls-70" x1="101.5" y1="297.87" x2="147.5" y2="297.87"/><line class="cls-71" x1="101.5" y1="283.24" x2="147.5" y2="283.24"/><line class="cls-72" x1="101.5" y1="268.61" x2="147.5" y2="268.61"/><line class="cls-73" x1="101.5" y1="253.98" x2="147.5" y2="253.98"/><line class="cls-74" x1="101.5" y1="239.34" x2="147.5" y2="239.34"/><line class="cls-75" x1="101.5" y1="224.71" x2="147.5" y2="224.71"/><line class="cls-76" x1="101.5" y1="210.08" x2="147.5" y2="210.08"/><line class="cls-77" x1="101.5" y1="195.45" x2="147.5" y2="195.45"/><line class="cls-78" x1="101.5" y1="180.82" x2="147.5" y2="180.82"/><line class="cls-79" x1="101.5" y1="166.18" x2="147.5" y2="166.18"/><line class="cls-80" x1="101.5" y1="151.55" x2="147.5" y2="151.55"/><line class="cls-81" x1="101.5" y1="136.92" x2="147.5" y2="136.92"/><line class="cls-82" x1="101.5" y1="122.29" x2="147.5" y2="122.29"/><line class="cls-83" x1="101.5" y1="107.66" x2="147.5" y2="107.66"/><line class="cls-84" x1="101.5" y1="93.02" x2="147.5" y2="93.02"/><line class="cls-85" x1="101.5" y1="78.39" x2="147.5" y2="78.39"/><line class="cls-86" x1="101.5" y1="63.76" x2="147.5" y2="63.76"/><line class="cls-87" x1="101.5" y1="49.13" x2="147.5" y2="49.13"/><line class="cls-88" x1="101.5" y1="34.5" x2="147.5" y2="34.5"/><line class="cls-89" x1="101.5" y1="19.87" x2="147.5" y2="19.87"/><line class="cls-90" x1="101.5" y1="5.23" x2="147.5" y2="5.23"/><line class="cls-2" x1="79.8" y1="641.72" x2="125.8" y2="641.72"/><line class="cls-3" x1="79.8" y1="627.09" x2="125.8" y2="627.09"/><line class="cls-4" x1="79.8" y1="612.46" x2="125.8" y2="612.46"/><line class="cls-5" x1="79.8" y1="597.82" x2="125.8" y2="597.82"/><line class="cls-6" x1="79.8" y1="583.19" x2="125.8" y2="583.19"/><line class="cls-7" x1="79.8" y1="568.56" x2="125.8" y2="568.56"/><line class="cls-8" x1="79.8" y1="553.93" x2="125.8" y2="553.93"/><line class="cls-9" x1="79.8" y1="539.3" x2="125.8" y2="539.3"/><line class="cls-10" x1="79.8" y1="524.66" x2="125.8" y2="524.66"/><line class="cls-11" x1="79.8" y1="510.03" x2="125.8" y2="510.03"/><line class="cls-12" x1="79.8" y1="495.4" x2="125.8" y2="495.4"/><line class="cls-13" x1="79.8" y1="480.77" x2="125.8" y2="480.77"/><line class="cls-14" x1="79.8" y1="466.14" x2="125.8" y2="466.14"/><line class="cls-15" x1="79.8" y1="451.51" x2="125.8" y2="451.51"/><line class="cls-16" x1="79.8" y1="436.87" x2="125.8" y2="436.87"/><line class="cls-17" x1="79.8" y1="422.24" x2="125.8" y2="422.24"/><line class="cls-18" x1="79.8" y1="407.61" x2="125.8" y2="407.61"/><line class="cls-19" x1="79.8" y1="392.98" x2="125.8" y2="392.98"/><line class="cls-20" x1="79.8" y1="378.35" x2="125.8" y2="378.35"/><line class="cls-21" x1="79.8" y1="363.72" x2="125.8" y2="363.72"/><line class="cls-22" x1="79.8" y1="349.08" x2="125.8" y2="349.08"/><line class="cls-23" x1="79.8" y1="334.45" x2="125.8" y2="334.45"/><line class="cls-24" x1="79.8" y1="319.82" x2="125.8" y2="319.82"/><line class="cls-25" x1="79.8" y1="305.19" x2="125.8" y2="305.19"/><line class="cls-26" x1="79.8" y1="290.56" x2="125.8" y2="290.56"/><line class="cls-27" x1="79.8" y1="275.92" x2="125.8" y2="275.92"/><line class="cls-28" x1="79.8" y1="261.29" x2="125.8" y2="261.29"/><line class="cls-29" x1="79.8" y1="246.66" x2="125.8" y2="246.66"/><line class="cls-30" x1="79.8" y1="232.03" x2="125.8" y2="232.03"/><line class="cls-31" x1="79.8" y1="217.4" x2="125.8" y2="217.4"/><line class="cls-32" x1="79.8" y1="202.76" x2="125.8" y2="202.76"/><line class="cls-33" x1="79.8" y1="188.13" x2="125.8" y2="188.13"/><line class="cls-34" x1="79.8" y1="173.5" x2="125.8" y2="173.5"/><line class="cls-35" x1="79.8" y1="158.87" x2="125.8" y2="158.87"/><line class="cls-36" x1="79.8" y1="144.24" x2="125.8" y2="144.24"/><line class="cls-37" x1="79.8" y1="129.6" x2="125.8" y2="129.6"/><line class="cls-38" x1="79.8" y1="114.97" x2="125.8" y2="114.97"/><line class="cls-39" x1="79.8" y1="100.34" x2="125.8" y2="100.34"/><line class="cls-40" x1="79.8" y1="85.71" x2="125.8" y2="85.71"/><line class="cls-41" x1="79.8" y1="71.08" x2="125.8" y2="71.08"/><line class="cls-42" x1="79.8" y1="56.45" x2="125.8" y2="56.45"/><line class="cls-43" x1="79.8" y1="41.81" x2="125.8" y2="41.81"/><line class="cls-44" x1="79.8" y1="27.18" x2="125.8" y2="27.18"/><line class="cls-45" x1="79.8" y1="12.55" x2="125.8" y2="12.55"/><line class="cls-46" x1="72.5" y1="649.04" x2="118.5" y2="649.04"/><line class="cls-47" x1="72.5" y1="634.4" x2="118.5" y2="634.4"/><line class="cls-48" x1="72.5" y1="619.77" x2="118.5" y2="619.77"/><line class="cls-49" x1="72.5" y1="605.14" x2="118.5" y2="605.14"/><line class="cls-50" x1="72.5" y1="590.51" x2="118.5" y2="590.51"/><line class="cls-51" x1="72.5" y1="575.88" x2="118.5" y2="575.88"/><line class="cls-52" x1="72.5" y1="561.24" x2="118.5" y2="561.24"/><line class="cls-53" x1="72.5" y1="546.61" x2="118.5" y2="546.61"/><line class="cls-54" x1="72.5" y1="531.98" x2="118.5" y2="531.98"/><line class="cls-55" x1="72.5" y1="517.35" x2="118.5" y2="517.35"/><line class="cls-56" x1="72.5" y1="502.72" x2="118.5" y2="502.72"/><line class="cls-57" x1="72.5" y1="488.09" x2="118.5" y2="488.09"/><line class="cls-58" x1="72.5" y1="473.45" x2="118.5" y2="473.45"/><line class="cls-59" x1="72.5" y1="458.82" x2="118.5" y2="458.82"/><line class="cls-60" x1="72.5" y1="444.19" x2="118.5" y2="444.19"/><line class="cls-61" x1="72.5" y1="429.56" x2="118.5" y2="429.56"/><line class="cls-62" x1="72.5" y1="414.93" x2="118.5" y2="414.93"/><line class="cls-63" x1="72.5" y1="400.29" x2="118.5" y2="400.29"/><line class="cls-64" x1="72.5" y1="385.66" x2="118.5" y2="385.66"/><line class="cls-65" x1="72.5" y1="371.03" x2="118.5" y2="371.03"/><line class="cls-66" x1="72.5" y1="356.4" x2="118.5" y2="356.4"/><line class="cls-67" x1="72.5" y1="341.77" x2="118.5" y2="341.77"/><line class="cls-68" x1="72.5" y1="327.14" x2="118.5" y2="327.14"/><line class="cls-69" x1="72.5" y1="312.5" x2="118.5" y2="312.5"/><line class="cls-70" x1="72.5" y1="297.87" x2="118.5" y2="297.87"/><line class="cls-71" x1="72.5" y1="283.24" x2="118.5" y2="283.24"/><line class="cls-72" x1="72.5" y1="268.61" x2="118.5" y2="268.61"/><line class="cls-73" x1="72.5" y1="253.98" x2="118.5" y2="253.98"/><line class="cls-74" x1="72.5" y1="239.34" x2="118.5" y2="239.34"/><line class="cls-75" x1="72.5" y1="224.71" x2="118.5" y2="224.71"/><line class="cls-76" x1="72.5" y1="210.08" x2="118.5" y2="210.08"/><line class="cls-77" x1="72.5" y1="195.45" x2="118.5" y2="195.45"/><line class="cls-78" x1="72.5" y1="180.82" x2="118.5" y2="180.82"/><line class="cls-79" x1="72.5" y1="166.18" x2="118.5" y2="166.18"/><line class="cls-80" x1="72.5" y1="151.55" x2="118.5" y2="151.55"/><line class="cls-81" x1="72.5" y1="136.92" x2="118.5" y2="136.92"/><line class="cls-82" x1="72.5" y1="122.29" x2="118.5" y2="122.29"/><line class="cls-83" x1="72.5" y1="107.66" x2="118.5" y2="107.66"/><line class="cls-84" x1="72.5" y1="93.02" x2="118.5" y2="93.02"/><line class="cls-85" x1="72.5" y1="78.39" x2="118.5" y2="78.39"/><line class="cls-86" x1="72.5" y1="63.76" x2="118.5" y2="63.76"/><line class="cls-87" x1="72.5" y1="49.13" x2="118.5" y2="49.13"/><line class="cls-88" x1="72.5" y1="34.5" x2="118.5" y2="34.5"/><line class="cls-89" x1="72.5" y1="19.87" x2="118.5" y2="19.87"/><line class="cls-90" x1="72.5" y1="5.23" x2="118.5" y2="5.23"/><line class="cls-2" x1="50.8" y1="641.72" x2="96.8" y2="641.72"/><line class="cls-3" x1="50.8" y1="627.09" x2="96.8" y2="627.09"/><line class="cls-4" x1="50.8" y1="612.46" x2="96.8" y2="612.46"/><line class="cls-5" x1="50.8" y1="597.82" x2="96.8" y2="597.82"/><line class="cls-6" x1="50.8" y1="583.19" x2="96.8" y2="583.19"/><line class="cls-7" x1="50.8" y1="568.56" x2="96.8" y2="568.56"/><line class="cls-8" x1="50.8" y1="553.93" x2="96.8" y2="553.93"/><line class="cls-9" x1="50.8" y1="539.3" x2="96.8" y2="539.3"/><line class="cls-10" x1="50.8" y1="524.66" x2="96.8" y2="524.66"/><line class="cls-11" x1="50.8" y1="510.03" x2="96.8" y2="510.03"/><line class="cls-12" x1="50.8" y1="495.4" x2="96.8" y2="495.4"/><line class="cls-13" x1="50.8" y1="480.77" x2="96.8" y2="480.77"/><line class="cls-14" x1="50.8" y1="466.14" x2="96.8" y2="466.14"/><line class="cls-15" x1="50.8" y1="451.51" x2="96.8" y2="451.51"/><line class="cls-16" x1="50.8" y1="436.87" x2="96.8" y2="436.87"/><line class="cls-17" x1="50.8" y1="422.24" x2="96.8" y2="422.24"/><line class="cls-18" x1="50.8" y1="407.61" x2="96.8" y2="407.61"/><line class="cls-19" x1="50.8" y1="392.98" x2="96.8" y2="392.98"/><line class="cls-20" x1="50.8" y1="378.35" x2="96.8" y2="378.35"/><line class="cls-21" x1="50.8" y1="363.72" x2="96.8" y2="363.72"/><line class="cls-22" x1="50.8" y1="349.08" x2="96.8" y2="349.08"/><line class="cls-23" x1="50.8" y1="334.45" x2="96.8" y2="334.45"/><line class="cls-24" x1="50.8" y1="319.82" x2="96.8" y2="319.82"/><line class="cls-25" x1="50.8" y1="305.19" x2="96.8" y2="305.19"/><line class="cls-26" x1="50.8" y1="290.56" x2="96.8" y2="290.56"/><line class="cls-27" x1="50.8" y1="275.92" x2="96.8" y2="275.92"/><line class="cls-28" x1="50.8" y1="261.29" x2="96.8" y2="261.29"/><line class="cls-29" x1="50.8" y1="246.66" x2="96.8" y2="246.66"/><line class="cls-30" x1="50.8" y1="232.03" x2="96.8" y2="232.03"/><line class="cls-31" x1="50.8" y1="217.4" x2="96.8" y2="217.4"/><line class="cls-32" x1="50.8" y1="202.76" x2="96.8" y2="202.76"/><line class="cls-33" x1="50.8" y1="188.13" x2="96.8" y2="188.13"/><line class="cls-34" x1="50.8" y1="173.5" x2="96.8" y2="173.5"/><line class="cls-35" x1="50.8" y1="158.87" x2="96.8" y2="158.87"/><line class="cls-36" x1="50.8" y1="144.24" x2="96.8" y2="144.24"/><line class="cls-37" x1="50.8" y1="129.6" x2="96.8" y2="129.6"/><line class="cls-38" x1="50.8" y1="114.97" x2="96.8" y2="114.97"/><line class="cls-39" x1="50.8" y1="100.34" x2="96.8" y2="100.34"/><line class="cls-40" x1="50.8" y1="85.71" x2="96.8" y2="85.71"/><line class="cls-41" x1="50.8" y1="71.08" x2="96.8" y2="71.08"/><line class="cls-42" x1="50.8" y1="56.45" x2="96.8" y2="56.45"/><line class="cls-43" x1="50.8" y1="41.81" x2="96.8" y2="41.81"/><line class="cls-44" x1="50.8" y1="27.18" x2="96.8" y2="27.18"/><line class="cls-45" x1="50.8" y1="12.55" x2="96.8" y2="12.55"/><line class="cls-46" x1="43.5" y1="649.04" x2="89.5" y2="649.04"/><line class="cls-47" x1="43.5" y1="634.4" x2="89.5" y2="634.4"/><line class="cls-48" x1="43.5" y1="619.77" x2="89.5" y2="619.77"/><line class="cls-49" x1="43.5" y1="605.14" x2="89.5" y2="605.14"/><line class="cls-50" x1="43.5" y1="590.51" x2="89.5" y2="590.51"/><line class="cls-51" x1="43.5" y1="575.88" x2="89.5" y2="575.88"/><line class="cls-52" x1="43.5" y1="561.24" x2="89.5" y2="561.24"/><line class="cls-53" x1="43.5" y1="546.61" x2="89.5" y2="546.61"/><line class="cls-54" x1="43.5" y1="531.98" x2="89.5" y2="531.98"/><line class="cls-55" x1="43.5" y1="517.35" x2="89.5" y2="517.35"/><line class="cls-56" x1="43.5" y1="502.72" x2="89.5" y2="502.72"/><line class="cls-57" x1="43.5" y1="488.09" x2="89.5" y2="488.09"/><line class="cls-58" x1="43.5" y1="473.45" x2="89.5" y2="473.45"/><line class="cls-59" x1="43.5" y1="458.82" x2="89.5" y2="458.82"/><line class="cls-60" x1="43.5" y1="444.19" x2="89.5" y2="444.19"/><line class="cls-61" x1="43.5" y1="429.56" x2="89.5" y2="429.56"/><line class="cls-62" x1="43.5" y1="414.93" x2="89.5" y2="414.93"/><line class="cls-63" x1="43.5" y1="400.29" x2="89.5" y2="400.29"/><line class="cls-64" x1="43.5" y1="385.66" x2="89.5" y2="385.66"/><line class="cls-65" x1="43.5" y1="371.03" x2="89.5" y2="371.03"/><line class="cls-66" x1="43.5" y1="356.4" x2="89.5" y2="356.4"/><line class="cls-67" x1="43.5" y1="341.77" x2="89.5" y2="341.77"/><line class="cls-68" x1="43.5" y1="327.14" x2="89.5" y2="327.14"/><line class="cls-69" x1="43.5" y1="312.5" x2="89.5" y2="312.5"/><line class="cls-70" x1="43.5" y1="297.87" x2="89.5" y2="297.87"/><line class="cls-71" x1="43.5" y1="283.24" x2="89.5" y2="283.24"/><line class="cls-72" x1="43.5" y1="268.61" x2="89.5" y2="268.61"/><line class="cls-73" x1="43.5" y1="253.98" x2="89.5" y2="253.98"/><line class="cls-74" x1="43.5" y1="239.34" x2="89.5" y2="239.34"/><line class="cls-75" x1="43.5" y1="224.71" x2="89.5" y2="224.71"/><line class="cls-76" x1="43.5" y1="210.08" x2="89.5" y2="210.08"/><line class="cls-77" x1="43.5" y1="195.45" x2="89.5" y2="195.45"/><line class="cls-78" x1="43.5" y1="180.82" x2="89.5" y2="180.82"/><line class="cls-79" x1="43.5" y1="166.18" x2="89.5" y2="166.18"/><line class="cls-80" x1="43.5" y1="151.55" x2="89.5" y2="151.55"/><line class="cls-81" x1="43.5" y1="136.92" x2="89.5" y2="136.92"/><line class="cls-82" x1="43.5" y1="122.29" x2="89.5" y2="122.29"/><line class="cls-83" x1="43.5" y1="107.66" x2="89.5" y2="107.66"/><line class="cls-84" x1="43.5" y1="93.02" x2="89.5" y2="93.02"/><line class="cls-85" x1="43.5" y1="78.39" x2="89.5" y2="78.39"/><line class="cls-86" x1="43.5" y1="63.76" x2="89.5" y2="63.76"/><line class="cls-87" x1="43.5" y1="49.13" x2="89.5" y2="49.13"/><line class="cls-88" x1="43.5" y1="34.5" x2="89.5" y2="34.5"/><line class="cls-89" x1="43.5" y1="19.87" x2="89.5" y2="19.87"/><line class="cls-90" x1="43.5" y1="5.23" x2="89.5" y2="5.23"/><line class="cls-2" x1="21.8" y1="641.72" x2="67.8" y2="641.72"/><line class="cls-3" x1="21.8" y1="627.09" x2="67.8" y2="627.09"/><line class="cls-4" x1="21.8" y1="612.46" x2="67.8" y2="612.46"/><line class="cls-5" x1="21.8" y1="597.82" x2="67.8" y2="597.82"/><line class="cls-6" x1="21.8" y1="583.19" x2="67.8" y2="583.19"/><line class="cls-7" x1="21.8" y1="568.56" x2="67.8" y2="568.56"/><line class="cls-8" x1="21.8" y1="553.93" x2="67.8" y2="553.93"/><line class="cls-9" x1="21.8" y1="539.3" x2="67.8" y2="539.3"/><line class="cls-10" x1="21.8" y1="524.66" x2="67.8" y2="524.66"/><line class="cls-11" x1="21.8" y1="510.03" x2="67.8" y2="510.03"/><line class="cls-12" x1="21.8" y1="495.4" x2="67.8" y2="495.4"/><line class="cls-13" x1="21.8" y1="480.77" x2="67.8" y2="480.77"/><line class="cls-14" x1="21.8" y1="466.14" x2="67.8" y2="466.14"/><line class="cls-15" x1="21.8" y1="451.51" x2="67.8" y2="451.51"/><line class="cls-16" x1="21.8" y1="436.87" x2="67.8" y2="436.87"/><line class="cls-17" x1="21.8" y1="422.24" x2="67.8" y2="422.24"/><line class="cls-18" x1="21.8" y1="407.61" x2="67.8" y2="407.61"/><line class="cls-19" x1="21.8" y1="392.98" x2="67.8" y2="392.98"/><line class="cls-20" x1="21.8" y1="378.35" x2="67.8" y2="378.35"/><line class="cls-21" x1="21.8" y1="363.72" x2="67.8" y2="363.72"/><line class="cls-22" x1="21.8" y1="349.08" x2="67.8" y2="349.08"/><line class="cls-23" x1="21.8" y1="334.45" x2="67.8" y2="334.45"/><line class="cls-24" x1="21.8" y1="319.82" x2="67.8" y2="319.82"/><line class="cls-25" x1="21.8" y1="305.19" x2="67.8" y2="305.19"/><line class="cls-26" x1="21.8" y1="290.56" x2="67.8" y2="290.56"/><line class="cls-27" x1="21.8" y1="275.92" x2="67.8" y2="275.92"/><line class="cls-28" x1="21.8" y1="261.29" x2="67.8" y2="261.29"/><line class="cls-29" x1="21.8" y1="246.66" x2="67.8" y2="246.66"/><line class="cls-30" x1="21.8" y1="232.03" x2="67.8" y2="232.03"/><line class="cls-31" x1="21.8" y1="217.4" x2="67.8" y2="217.4"/><line class="cls-32" x1="21.8" y1="202.76" x2="67.8" y2="202.76"/><line class="cls-33" x1="21.8" y1="188.13" x2="67.8" y2="188.13"/><line class="cls-34" x1="21.8" y1="173.5" x2="67.8" y2="173.5"/><line class="cls-35" x1="21.8" y1="158.87" x2="67.8" y2="158.87"/><line class="cls-36" x1="21.8" y1="144.24" x2="67.8" y2="144.24"/><line class="cls-37" x1="21.8" y1="129.6" x2="67.8" y2="129.6"/><line class="cls-38" x1="21.8" y1="114.97" x2="67.8" y2="114.97"/><line class="cls-39" x1="21.8" y1="100.34" x2="67.8" y2="100.34"/><line class="cls-40" x1="21.8" y1="85.71" x2="67.8" y2="85.71"/><line class="cls-41" x1="21.8" y1="71.08" x2="67.8" y2="71.08"/><line class="cls-42" x1="21.8" y1="56.45" x2="67.8" y2="56.45"/><line class="cls-43" x1="21.8" y1="41.81" x2="67.8" y2="41.81"/><line class="cls-44" x1="21.8" y1="27.18" x2="67.8" y2="27.18"/><line class="cls-45" x1="21.8" y1="12.55" x2="67.8" y2="12.55"/><line class="cls-46" x1="14.5" y1="649.04" x2="60.5" y2="649.04"/><line class="cls-47" x1="14.5" y1="634.4" x2="60.5" y2="634.4"/><line class="cls-48" x1="14.5" y1="619.77" x2="60.5" y2="619.77"/><line class="cls-49" x1="14.5" y1="605.14" x2="60.5" y2="605.14"/><line class="cls-50" x1="14.5" y1="590.51" x2="60.5" y2="590.51"/><line class="cls-51" x1="14.5" y1="575.88" x2="60.5" y2="575.88"/><line class="cls-52" x1="14.5" y1="561.24" x2="60.5" y2="561.24"/><line class="cls-53" x1="14.5" y1="546.61" x2="60.5" y2="546.61"/><line class="cls-54" x1="14.5" y1="531.98" x2="60.5" y2="531.98"/><line class="cls-55" x1="14.5" y1="517.35" x2="60.5" y2="517.35"/><line class="cls-56" x1="14.5" y1="502.72" x2="60.5" y2="502.72"/><line class="cls-57" x1="14.5" y1="488.09" x2="60.5" y2="488.09"/><line class="cls-58" x1="14.5" y1="473.45" x2="60.5" y2="473.45"/><line class="cls-59" x1="14.5" y1="458.82" x2="60.5" y2="458.82"/><line class="cls-60" x1="14.5" y1="444.19" x2="60.5" y2="444.19"/><line class="cls-61" x1="14.5" y1="429.56" x2="60.5" y2="429.56"/><line class="cls-62" x1="14.5" y1="414.93" x2="60.5" y2="414.93"/><line class="cls-63" x1="14.5" y1="400.29" x2="60.5" y2="400.29"/><line class="cls-64" x1="14.5" y1="385.66" x2="60.5" y2="385.66"/><line class="cls-65" x1="14.5" y1="371.03" x2="60.5" y2="371.03"/><line class="cls-66" x1="14.5" y1="356.4" x2="60.5" y2="356.4"/><line class="cls-67" x1="14.5" y1="341.77" x2="60.5" y2="341.77"/><line class="cls-68" x1="14.5" y1="327.14" x2="60.5" y2="327.14"/><line class="cls-69" x1="14.5" y1="312.5" x2="60.5" y2="312.5"/><line class="cls-70" x1="14.5" y1="297.87" x2="60.5" y2="297.87"/><line class="cls-71" x1="14.5" y1="283.24" x2="60.5" y2="283.24"/><line class="cls-72" x1="14.5" y1="268.61" x2="60.5" y2="268.61"/><line class="cls-73" x1="14.5" y1="253.98" x2="60.5" y2="253.98"/><line class="cls-74" x1="14.5" y1="239.34" x2="60.5" y2="239.34"/><line class="cls-75" x1="14.5" y1="224.71" x2="60.5" y2="224.71"/><line class="cls-76" x1="14.5" y1="210.08" x2="60.5" y2="210.08"/><line class="cls-77" x1="14.5" y1="195.45" x2="60.5" y2="195.45"/><line class="cls-78" x1="14.5" y1="180.82" x2="60.5" y2="180.82"/><line class="cls-79" x1="14.5" y1="166.18" x2="60.5" y2="166.18"/><line class="cls-80" x1="14.5" y1="151.55" x2="60.5" y2="151.55"/><line class="cls-81" x1="14.5" y1="136.92" x2="60.5" y2="136.92"/><line class="cls-82" x1="14.5" y1="122.29" x2="60.5" y2="122.29"/><line class="cls-83" x1="14.5" y1="107.66" x2="60.5" y2="107.66"/><line class="cls-84" x1="14.5" y1="93.02" x2="60.5" y2="93.02"/><line class="cls-85" x1="14.5" y1="78.39" x2="60.5" y2="78.39"/><line class="cls-86" x1="14.5" y1="63.76" x2="60.5" y2="63.76"/><line class="cls-87" x1="14.5" y1="49.13" x2="60.5" y2="49.13"/><line class="cls-88" x1="14.5" y1="34.5" x2="60.5" y2="34.5"/><line class="cls-89" x1="14.5" y1="19.87" x2="60.5" y2="19.87"/><line class="cls-90" x1="14.5" y1="5.23" x2="60.5" y2="5.23"/><line class="cls-2" x1="-7.2" y1="641.72" x2="38.8" y2="641.72"/><line class="cls-3" x1="-7.2" y1="627.09" x2="38.8" y2="627.09"/><line class="cls-4" x1="-7.2" y1="612.46" x2="38.8" y2="612.46"/><line class="cls-5" x1="-7.2" y1="597.82" x2="38.8" y2="597.82"/><line class="cls-6" x1="-7.2" y1="583.19" x2="38.8" y2="583.19"/><line class="cls-7" x1="-7.2" y1="568.56" x2="38.8" y2="568.56"/><line class="cls-8" x1="-7.2" y1="553.93" x2="38.8" y2="553.93"/><line class="cls-9" x1="-7.2" y1="539.3" x2="38.8" y2="539.3"/><line class="cls-10" x1="-7.2" y1="524.66" x2="38.8" y2="524.66"/><line class="cls-11" x1="-7.2" y1="510.03" x2="38.8" y2="510.03"/><line class="cls-12" x1="-7.2" y1="495.4" x2="38.8" y2="495.4"/><line class="cls-13" x1="-7.2" y1="480.77" x2="38.8" y2="480.77"/><line class="cls-14" x1="-7.2" y1="466.14" x2="38.8" y2="466.14"/><line class="cls-15" x1="-7.2" y1="451.51" x2="38.8" y2="451.51"/><line class="cls-16" x1="-7.2" y1="436.87" x2="38.8" y2="436.87"/><line class="cls-17" x1="-7.2" y1="422.24" x2="38.8" y2="422.24"/><line class="cls-18" x1="-7.2" y1="407.61" x2="38.8" y2="407.61"/><line class="cls-19" x1="-7.2" y1="392.98" x2="38.8" y2="392.98"/><line class="cls-20" x1="-7.2" y1="378.35" x2="38.8" y2="378.35"/><line class="cls-21" x1="-7.2" y1="363.72" x2="38.8" y2="363.72"/><line class="cls-22" x1="-7.2" y1="349.08" x2="38.8" y2="349.08"/><line class="cls-23" x1="-7.2" y1="334.45" x2="38.8" y2="334.45"/><line class="cls-24" x1="-7.2" y1="319.82" x2="38.8" y2="319.82"/><line class="cls-25" x1="-7.2" y1="305.19" x2="38.8" y2="305.19"/><line class="cls-26" x1="-7.2" y1="290.56" x2="38.8" y2="290.56"/><line class="cls-27" x1="-7.2" y1="275.92" x2="38.8" y2="275.92"/><line class="cls-28" x1="-7.2" y1="261.29" x2="38.8" y2="261.29"/><line class="cls-29" x1="-7.2" y1="246.66" x2="38.8" y2="246.66"/><line class="cls-30" x1="-7.2" y1="232.03" x2="38.8" y2="232.03"/><line class="cls-31" x1="-7.2" y1="217.4" x2="38.8" y2="217.4"/><line class="cls-32" x1="-7.2" y1="202.76" x2="38.8" y2="202.76"/><line class="cls-33" x1="-7.2" y1="188.13" x2="38.8" y2="188.13"/><line class="cls-34" x1="-7.2" y1="173.5" x2="38.8" y2="173.5"/><line class="cls-35" x1="-7.2" y1="158.87" x2="38.8" y2="158.87"/><line class="cls-36" x1="-7.2" y1="144.24" x2="38.8" y2="144.24"/><line class="cls-37" x1="-7.2" y1="129.6" x2="38.8" y2="129.6"/><line class="cls-38" x1="-7.2" y1="114.97" x2="38.8" y2="114.97"/><line class="cls-39" x1="-7.2" y1="100.34" x2="38.8" y2="100.34"/><line class="cls-40" x1="-7.2" y1="85.71" x2="38.8" y2="85.71"/><line class="cls-41" x1="-7.2" y1="71.08" x2="38.8" y2="71.08"/><line class="cls-42" x1="-7.2" y1="56.45" x2="38.8" y2="56.45"/><line class="cls-43" x1="-7.2" y1="41.81" x2="38.8" y2="41.81"/><line class="cls-44" x1="-7.2" y1="27.18" x2="38.8" y2="27.18"/><line class="cls-45" x1="-7.2" y1="12.55" x2="38.8" y2="12.55"/><line class="cls-46" x1="-14.5" y1="649.04" x2="31.5" y2="649.04"/><line class="cls-47" x1="-14.5" y1="634.4" x2="31.5" y2="634.4"/><line class="cls-48" x1="-14.5" y1="619.77" x2="31.5" y2="619.77"/><line class="cls-49" x1="-14.5" y1="605.14" x2="31.5" y2="605.14"/><line class="cls-50" x1="-14.5" y1="590.51" x2="31.5" y2="590.51"/><line class="cls-51" x1="-14.5" y1="575.88" x2="31.5" y2="575.88"/><line class="cls-52" x1="-14.5" y1="561.24" x2="31.5" y2="561.24"/><line class="cls-53" x1="-14.5" y1="546.61" x2="31.5" y2="546.61"/><line class="cls-54" x1="-14.5" y1="531.98" x2="31.5" y2="531.98"/><line class="cls-55" x1="-14.5" y1="517.35" x2="31.5" y2="517.35"/><line class="cls-56" x1="-14.5" y1="502.72" x2="31.5" y2="502.72"/><line class="cls-57" x1="-14.5" y1="488.09" x2="31.5" y2="488.09"/><line class="cls-58" x1="-14.5" y1="473.45" x2="31.5" y2="473.45"/><line class="cls-59" x1="-14.5" y1="458.82" x2="31.5" y2="458.82"/><line class="cls-60" x1="-14.5" y1="444.19" x2="31.5" y2="444.19"/><line class="cls-61" x1="-14.5" y1="429.56" x2="31.5" y2="429.56"/><line class="cls-62" x1="-14.5" y1="414.93" x2="31.5" y2="414.93"/><line class="cls-63" x1="-14.5" y1="400.29" x2="31.5" y2="400.29"/><line class="cls-64" x1="-14.5" y1="385.66" x2="31.5" y2="385.66"/><line class="cls-65" x1="-14.5" y1="371.03" x2="31.5" y2="371.03"/><line class="cls-66" x1="-14.5" y1="356.4" x2="31.5" y2="356.4"/><line class="cls-67" x1="-14.5" y1="341.77" x2="31.5" y2="341.77"/><line class="cls-68" x1="-14.5" y1="327.14" x2="31.5" y2="327.14"/><line class="cls-69" x1="-14.5" y1="312.5" x2="31.5" y2="312.5"/><line class="cls-70" x1="-14.5" y1="297.87" x2="31.5" y2="297.87"/><line class="cls-71" x1="-14.5" y1="283.24" x2="31.5" y2="283.24"/><line class="cls-72" x1="-14.5" y1="268.61" x2="31.5" y2="268.61"/><line class="cls-73" x1="-14.5" y1="253.98" x2="31.5" y2="253.98"/><line class="cls-74" x1="-14.5" y1="239.34" x2="31.5" y2="239.34"/><line class="cls-75" x1="-14.5" y1="224.71" x2="31.5" y2="224.71"/><line class="cls-76" x1="-14.5" y1="210.08" x2="31.5" y2="210.08"/><line class="cls-77" x1="-14.5" y1="195.45" x2="31.5" y2="195.45"/><line class="cls-78" x1="-14.5" y1="180.82" x2="31.5" y2="180.82"/><line class="cls-79" x1="-14.5" y1="166.18" x2="31.5" y2="166.18"/><line class="cls-80" x1="-14.5" y1="151.55" x2="31.5" y2="151.55"/><line class="cls-81" x1="-14.5" y1="136.92" x2="31.5" y2="136.92"/><line class="cls-82" x1="-14.5" y1="122.29" x2="31.5" y2="122.29"/><line class="cls-83" x1="-14.5" y1="107.66" x2="31.5" y2="107.66"/><line class="cls-84" x1="-14.5" y1="93.02" x2="31.5" y2="93.02"/><line class="cls-85" x1="-14.5" y1="78.39" x2="31.5" y2="78.39"/><line class="cls-86" x1="-14.5" y1="63.76" x2="31.5" y2="63.76"/><line class="cls-87" x1="-14.5" y1="49.13" x2="31.5" y2="49.13"/><line class="cls-88" x1="-14.5" y1="34.5" x2="31.5" y2="34.5"/><line class="cls-89" x1="-14.5" y1="19.87" x2="31.5" y2="19.87"/><line class="cls-90" x1="-14.5" y1="5.23" x2="31.5" y2="5.23"/><line class="cls-2" x1="-36.2" y1="641.72" x2="9.8" y2="641.72"/><line class="cls-3" x1="-36.2" y1="627.09" x2="9.8" y2="627.09"/><line class="cls-4" x1="-36.2" y1="612.46" x2="9.8" y2="612.46"/><line class="cls-5" x1="-36.2" y1="597.82" x2="9.8" y2="597.82"/><line class="cls-6" x1="-36.2" y1="583.19" x2="9.8" y2="583.19"/><line class="cls-7" x1="-36.2" y1="568.56" x2="9.8" y2="568.56"/><line class="cls-8" x1="-36.2" y1="553.93" x2="9.8" y2="553.93"/><line class="cls-9" x1="-36.2" y1="539.3" x2="9.8" y2="539.3"/><line class="cls-10" x1="-36.2" y1="524.66" x2="9.8" y2="524.66"/><line class="cls-11" x1="-36.2" y1="510.03" x2="9.8" y2="510.03"/><line class="cls-12" x1="-36.2" y1="495.4" x2="9.8" y2="495.4"/><line class="cls-13" x1="-36.2" y1="480.77" x2="9.8" y2="480.77"/><line class="cls-14" x1="-36.2" y1="466.14" x2="9.8" y2="466.14"/><line class="cls-15" x1="-36.2" y1="451.51" x2="9.8" y2="451.51"/><line class="cls-16" x1="-36.2" y1="436.87" x2="9.8" y2="436.87"/><line class="cls-17" x1="-36.2" y1="422.24" x2="9.8" y2="422.24"/><line class="cls-18" x1="-36.2" y1="407.61" x2="9.8" y2="407.61"/><line class="cls-19" x1="-36.2" y1="392.98" x2="9.8" y2="392.98"/><line class="cls-20" x1="-36.2" y1="378.35" x2="9.8" y2="378.35"/><line class="cls-21" x1="-36.2" y1="363.72" x2="9.8" y2="363.72"/><line class="cls-22" x1="-36.2" y1="349.08" x2="9.8" y2="349.08"/><line class="cls-23" x1="-36.2" y1="334.45" x2="9.8" y2="334.45"/><line class="cls-24" x1="-36.2" y1="319.82" x2="9.8" y2="319.82"/><line class="cls-25" x1="-36.2" y1="305.19" x2="9.8" y2="305.19"/><line class="cls-26" x1="-36.2" y1="290.56" x2="9.8" y2="290.56"/><line class="cls-27" x1="-36.2" y1="275.92" x2="9.8" y2="275.92"/><line class="cls-28" x1="-36.2" y1="261.29" x2="9.8" y2="261.29"/><line class="cls-29" x1="-36.2" y1="246.66" x2="9.8" y2="246.66"/><line class="cls-30" x1="-36.2" y1="232.03" x2="9.8" y2="232.03"/><line class="cls-31" x1="-36.2" y1="217.4" x2="9.8" y2="217.4"/><line class="cls-32" x1="-36.2" y1="202.76" x2="9.8" y2="202.76"/><line class="cls-33" x1="-36.2" y1="188.13" x2="9.8" y2="188.13"/><line class="cls-34" x1="-36.2" y1="173.5" x2="9.8" y2="173.5"/><line class="cls-35" x1="-36.2" y1="158.87" x2="9.8" y2="158.87"/><line class="cls-36" x1="-36.2" y1="144.24" x2="9.8" y2="144.24"/><line class="cls-37" x1="-36.2" y1="129.6" x2="9.8" y2="129.6"/><line class="cls-38" x1="-36.2" y1="114.97" x2="9.8" y2="114.97"/><line class="cls-39" x1="-36.2" y1="100.34" x2="9.8" y2="100.34"/><line class="cls-40" x1="-36.2" y1="85.71" x2="9.8" y2="85.71"/><line class="cls-41" x1="-36.2" y1="71.08" x2="9.8" y2="71.08"/><line class="cls-42" x1="-36.2" y1="56.45" x2="9.8" y2="56.45"/><line class="cls-43" x1="-36.2" y1="41.81" x2="9.8" y2="41.81"/><line class="cls-44" x1="-36.2" y1="27.18" x2="9.8" y2="27.18"/><line class="cls-45" x1="-36.2" y1="12.55" x2="9.8" y2="12.55"/><line class="cls-46" x1="-43.5" y1="649.04" x2="2.5" y2="649.04"/><line class="cls-47" x1="-43.5" y1="634.4" x2="2.5" y2="634.4"/><line class="cls-48" x1="-43.5" y1="619.77" x2="2.5" y2="619.77"/><line class="cls-49" x1="-43.5" y1="605.14" x2="2.5" y2="605.14"/><line class="cls-50" x1="-43.5" y1="590.51" x2="2.5" y2="590.51"/><line class="cls-51" x1="-43.5" y1="575.88" x2="2.5" y2="575.88"/><line class="cls-52" x1="-43.5" y1="561.24" x2="2.5" y2="561.24"/><line class="cls-53" x1="-43.5" y1="546.61" x2="2.5" y2="546.61"/><line class="cls-54" x1="-43.5" y1="531.98" x2="2.5" y2="531.98"/><line class="cls-55" x1="-43.5" y1="517.35" x2="2.5" y2="517.35"/><line class="cls-56" x1="-43.5" y1="502.72" x2="2.5" y2="502.72"/><line class="cls-57" x1="-43.5" y1="488.09" x2="2.5" y2="488.09"/><line class="cls-58" x1="-43.5" y1="473.45" x2="2.5" y2="473.45"/><line class="cls-59" x1="-43.5" y1="458.82" x2="2.5" y2="458.82"/><line class="cls-60" x1="-43.5" y1="444.19" x2="2.5" y2="444.19"/><line class="cls-61" x1="-43.5" y1="429.56" x2="2.5" y2="429.56"/><line class="cls-62" x1="-43.5" y1="414.93" x2="2.5" y2="414.93"/><line class="cls-63" x1="-43.5" y1="400.29" x2="2.5" y2="400.29"/><line class="cls-64" x1="-43.5" y1="385.66" x2="2.5" y2="385.66"/><line class="cls-65" x1="-43.5" y1="371.03" x2="2.5" y2="371.03"/><line class="cls-66" x1="-43.5" y1="356.4" x2="2.5" y2="356.4"/><line class="cls-67" x1="-43.5" y1="341.77" x2="2.5" y2="341.77"/><line class="cls-68" x1="-43.5" y1="327.14" x2="2.5" y2="327.14"/><line class="cls-69" x1="-43.5" y1="312.5" x2="2.5" y2="312.5"/><line class="cls-70" x1="-43.5" y1="297.87" x2="2.5" y2="297.87"/><line class="cls-71" x1="-43.5" y1="283.24" x2="2.5" y2="283.24"/><line class="cls-72" x1="-43.5" y1="268.61" x2="2.5" y2="268.61"/><line class="cls-73" x1="-43.5" y1="253.98" x2="2.5" y2="253.98"/><line class="cls-74" x1="-43.5" y1="239.34" x2="2.5" y2="239.34"/><line class="cls-75" x1="-43.5" y1="224.71" x2="2.5" y2="224.71"/><line class="cls-76" x1="-43.5" y1="210.08" x2="2.5" y2="210.08"/><line class="cls-77" x1="-43.5" y1="195.45" x2="2.5" y2="195.45"/><line class="cls-78" x1="-43.5" y1="180.82" x2="2.5" y2="180.82"/><line class="cls-79" x1="-43.5" y1="166.18" x2="2.5" y2="166.18"/><line class="cls-80" x1="-43.5" y1="151.55" x2="2.5" y2="151.55"/><line class="cls-81" x1="-43.5" y1="136.92" x2="2.5" y2="136.92"/><line class="cls-82" x1="-43.5" y1="122.29" x2="2.5" y2="122.29"/><line class="cls-83" x1="-43.5" y1="107.66" x2="2.5" y2="107.66"/><line class="cls-84" x1="-43.5" y1="93.02" x2="2.5" y2="93.02"/><line class="cls-85" x1="-43.5" y1="78.39" x2="2.5" y2="78.39"/><line class="cls-86" x1="-43.5" y1="63.76" x2="2.5" y2="63.76"/><line class="cls-87" x1="-43.5" y1="49.13" x2="2.5" y2="49.13"/><line class="cls-88" x1="-43.5" y1="34.5" x2="2.5" y2="34.5"/><line class="cls-89" x1="-43.5" y1="19.87" x2="2.5" y2="19.87"/><line class="cls-90" x1="-43.5" y1="5.23" x2="2.5" y2="5.23"/></pattern></defs><title>BackgroundMountains rec</title><path class="cls-91" d="M993.72,1007.73a169.36,169.36,0,0,0,28.43,14.81c0.15,0.06.3,0.13,0.46,0.18-2.49-.1-5.28.69-10.58,2.17-10.18,2.83-20.95.73-26.25-6.48-1.35-1.82-13.42-15.93-14-18.41h11C987.32,999,993.25,1004,993.72,1007.73Z" transform="translate(0 -844.99)"/><path class="cls-92" d="M1095.74,1052.87c-9.58-.7-46.47-10.23-54.58-21a7.25,7.25,0,0,1-1-2.93c39.86,11.2,35.19,15.25,48.38,21.22l1.41,0.62C1091.8,1051.52,1093.73,1052.22,1095.74,1052.87Z" transform="translate(0 -844.99)"/><path class="cls-93" d="M1113.75,1002.77c-6.21,4-17.58,9-38.91,7s-43.08-4-55.94-1.66c-9.57,1.75-25.69-2.81-34.79-6.05a24.91,24.91,0,0,0-4.83-2h126A24.26,24.26,0,0,1,1113.75,1002.77Z" transform="translate(0 -844.99)"/><path class="cls-91" d="M984.11,1002c9.1,3.24,25.22,7.8,34.79,6.05,12.86-2.34,34.61-.36,55.94,1.66s32.7-3,38.91-7c5.37,3,8.91,7.71,15.78,12.86,1.48,1.11,3.1,2.27,4.83,3.46-1.33,4.93-9.43,36.38-38.62,33.78-2-.65-3.94-1.35-5.77-2.13l-1.41-.62c-12.3-5.67-9.18-11-48.38-21.22q-3.17-.89-6.73-1.84h0c-5.47-2.89-7.94-4.21-10.82-4.33-0.16-.05-0.31-0.12-0.46-0.18a169.36,169.36,0,0,1-28.43-14.81l-4.43-2.74-0.33-.2C987.22,1003.73,985.61,1002.79,984.11,1002Z" transform="translate(0 -844.99)"/><path class="cls-93" d="M1134.36,1019.09c11.83,8.18,28.86,17.95,41.52,23.16,2.3,1,4.78,2.14,7.36,3.5h0c12.46,6.57,27.26,17,35.29,22.08l-0.11.18c-16-.48-42.5-7.91-61.65-8.25-17.28-.3-42.52-1-61-6.89C1124.93,1055.47,1133,1024,1134.36,1019.09Z" transform="translate(0 -844.99)"/><polygon class="cls-94" points="1121.09 108.42 1100.69 99.59 1078.55 108.27 1072.61 114.2 1041.79 122.74 1027.37 129.79 1017.05 130.56 1010.39 127.52 1000.84 127.66 989.7 133.74 984.63 139.24 971.82 155.01 986.03 155.01 1005.82 155.01 1013.57 145.94 1015.89 145.61 1033.54 149.95 1065.96 145.17 1095.91 144.16 1107.92 149.08 1134.21 132.03 1121.09 108.42"/><polygon class="cls-93" points="1112.55 96.26 1100.69 99.59 1121.09 108.42 1134.21 132.03 1138.45 129.25 1166.67 113.63 1183.17 107.11 1194.6 101.18 1202.41 94.38 1219.06 86.57 1182.16 89.61 1157.41 94.81 1112.55 96.26"/><polygon class="cls-93" points="1107.92 149.08 1095.91 144.16 1065.96 145.17 1033.54 149.95 1015.89 145.61 986.03 149.95 978.41 154.9 1099.1 155.01 1107.92 149.08"/><polygon class="cls-95" points="1078.84 102.92 1094.61 101.91 1078.55 108.27 1072.61 114.2 1041.79 122.74 1064.94 109 1073.34 106.53 1078.84 102.92"/><polygon class="cls-1" points="1360.33 61.71 1375.83 106.21 1399.83 141.21 1425.33 154.21 1299.83 155.21 1327.33 120.21 1340.33 77.71 1360.33 61.71"/><path class="cls-92" d="M1354.09,1124.36c-2.19-3.38-2.18-3.84-4.64-5.09v-0.66c-3.4-2.2-20.47-28.65-38.66-38.21-15.9-8.36-42.5-6.63-58.24-10.34-17.86-4.22-19.14-11.63-25-13.3-16.79-4.82-29.8-8.65-44.34-11,12.46,6.57,27.26,17,35.29,22.08l2.18,1.34a238.74,238.74,0,0,1,31.82,20.75c10.77,8.34,21.74,20.9,34.74,29.47,12.79,8.43,24.88,6.78,36,12.5,13,6.71,23.53,19.83,26.16,20.74v-1C1352.61,1145.18,1351.68,1133.73,1354.09,1124.36Z" transform="translate(0 -844.99)"/><path class="cls-91" d="M1113.75,1002.77c5.37,3,8.91,7.71,15.78,12.86,1.48,1.11,3.1,2.27,4.83,3.46,11.83,8.18,28.86,18,41.52,23.16,2.3,0.95,4.78,2.14,7.36,3.5h0c14.54,2.35,27.55,6.18,44.34,11,5.81,1.67,7.09,9.08,25,13.3,15.74,3.71,42.34,2,58.24,10.34,18.19,9.56,35.26,36,38.66,38.21V1000H1105.29A24.26,24.26,0,0,1,1113.75,1002.77Z" transform="translate(0 -844.99)"/><path class="cls-91" d="M1349.45,998.31v120.3c2.46,1.25,2.45,1.71,4.64,5.09,3-11.69,2.5-26.69,3.75-32.5,1.93-9,8.12-33.07,15.5-44.5,3.93-6.1,13.3-27.55,24-35,9.25-6.44,18-8,25.5-13v-0.39h-73.39Z" transform="translate(0 -844.99)"/><path class="cls-95" d="M1422.84,1000h132.07c-14.83,2.71-45.24,21.94-52.27,26.62-7.53,5-22.77,17.76-30.34,28.37s-26.19,17-31.79,21.59c-2.1,1.74-6.87,6.58-13.27,13.18-10.64,11-25.81,26.78-40.75,41.24-17.29,16.74-28.14,20.46-37,21.63,3.15-6.42,2.21-17.87,4.62-27.24,3-11.69,2.5-26.69,3.75-32.5,1.93-9,8.12-33.07,15.5-44.5,3.93-6.1,13.3-27.55,24-35,9.25-6.44,18-8,25.5-13V1000Z" transform="translate(0 -844.99)"/><path class="cls-91" d="M1502.64,1026.62c-15.42,12.58-32.29,35.78-37.47,48.23-1,.33-2,0.63-3.16.9h0c-14.45,2.66-24,6.81-34.75,14,6.4-6.6,11.17-11.44,13.27-13.18,5.6-4.62,24.21-11,31.79-21.59S1495.11,1031.64,1502.64,1026.62Z" transform="translate(0 -844.99)"/><path class="cls-94" d="M1554.91,1000h32.86c-13.91,2.1-34.84,14.11-46,19.78-12.33,6.27-39.92,31.73-50.92,38.49-10.07,6.18-14.75,13-25.7,16.58,5.18-12.45,22-35.65,37.47-48.23C1509.67,1021.94,1540.08,1002.71,1554.91,1000Z" transform="translate(0 -844.99)"/><path class="cls-94" d="M1465.17,1074.85c11-3.63,15.63-10.4,25.7-16.58,11-6.76,38.59-32.22,50.92-38.49,11.14-5.67,32.07-17.68,46-19.78h28.91a68.1,68.1,0,0,0-11.65,3.11h0c-12.84,4.52-28.7,13.17-35.63,23.94-0.84,1.3-1.68,2.52-2.52,3.68-9.44,12.93-19.41,17.26-35.88,25.4-17.94,8.88-36.46,15.44-57.68,18-2.95.35-5.7,0.73-8.31,1.15C1465.06,1075.11,1465.11,1075,1465.17,1074.85Z" transform="translate(0 -844.99)"/><path class="cls-93" d="M1605,1003.12c-14.21,16.66-13,19.9,6.44,10a68.37,68.37,0,0,0-7.44,8.47c-0.62.82-1.23,1.6-1.86,2.34-15.09,18-29.9,9.93-35.29,6.84,0.84-1.16,1.68-2.38,2.52-3.68C1576.33,1016.29,1592.19,1007.64,1605,1003.12Z" transform="translate(0 -844.99)"/><path class="cls-95" d="M1634.67,1002c1.5,0.77,3.11,1.71,4.85,2.77-4.77-2.68-15.61-3.53-28,8.3-19.44,9.93-20.65,6.69-6.44-10h0a68.1,68.1,0,0,1,11.65-3.11h12.8C1630.66,1000.52,1632.46,1001.23,1634.67,1002Z" transform="translate(0 -844.99)"/><path class="cls-95" d="M1660.94,1000c-2.86,1.55-23.06,10.62-27.56,11.62q-3,.66-6.58,1.1a33.92,33.92,0,0,0-10.8,3.73c-4.41,2.22-9,5-13.83,7.45,0.63-.74,1.24-1.52,1.86-2.34a68.37,68.37,0,0,1,7.44-8.47c12.44-11.83,11.39-13.2,15.64-13.2C1627.22,1000,1659.37,999,1660.94,1000Z" transform="translate(0 -844.99)"/><polygon class="cls-92" points="1634.08 142.62 1638.71 144.93 1643.72 146.5 1650.94 151.94 1660.94 155.01 1626.16 155.01 1627.52 149.27 1613.24 141.36 1604.65 133.02 1613.72 135.28 1624.82 141.56 1634.08 142.62"/><polygon class="cls-92" points="1594.33 134.8 1598.87 141.36 1603.91 146.5 1620.61 154.9 1628.96 154.9 1636.58 149.95 1627.52 149.27 1613.24 141.36 1594.33 134.8"/><polygon class="cls-91" points="1558.44 154.9 1592.59 154.9 1526.03 126.7 1497.67 97.56 1464.63 78.13 1464.46 78.26 1503.26 127.95 1558.44 154.9"/><polygon class="cls-91" points="1620.53 154.9 1589.51 140.01 1568.48 124.77 1564.81 116.45 1531.82 96.79 1499.02 83.67 1466.1 78.29 1465.1 78.26 1497.67 97.56 1526.03 126.7 1592.59 154.9 1620.53 154.9"/><path class="cls-91" d="M1465.6,923.75" transform="translate(0 -844.99)"/><polygon class="cls-93" points="1567.5 122.55 1577.35 117.63 1592.59 118.4 1604.65 133.02 1613.24 141.36 1594.33 134.8 1598.87 141.36 1603.75 146.84 1589.51 140.01 1568.48 124.77 1567.5 122.55"/><polygon class="cls-95" points="1349.45 1.56 1349.45 1.25 1323.28 22.71 1287.28 35.21 1252.55 64.68 1227.16 82.66 1202.41 94.38 1194.6 101.18 1183.17 107.11 1201.55 105.38 1227.59 97.85 1252.55 84.55 1310.78 74.21 1354.09 29.53 1349.45 1.56"/><polygon class="cls-96" points="1464.29 78 1503.26 127.95 1483.2 112.33 1463.81 88.3 1442.68 77.98 1464.29 78"/><polygon class="cls-94" points="1422.84 154.21 1397.34 141.21 1373.34 106.21 1357.84 61.71 1354.09 29.21 1310.78 74.21 1252.55 84.55 1227.59 97.85 1201.55 105.38 1183.17 107.11 1166.67 113.63 1138.45 129.25 1099.1 155.01 1349.45 154.81 1349.45 154.89 1422.84 154.21"/><polyline class="cls-92" points="1558.44 154.9 1503.26 127.95 1483.2 112.33 1463.81 88.3 1442.68 77.98 1367.14 4.76 1349.45 1.25 1354.09 29.21 1357.84 61.71 1373.34 106.21 1397.34 141.21 1422.84 154.21 1554.59 154.88"/><path class="cls-97" d="M1554.91,1000c-14.84,2.71-45.25,21.94-52.27,26.63-7.52,5-22.76,17.75-30.34,28.36s-26.19,17-31.78,21.6c-2.11,1.74-6.87,6.58-13.27,13.17-10.64,11-25.81,26.79-40.75,41.25-17.3,16.73-28.14,20.46-37,21.63" transform="translate(0 -844.99)"/><polygon class="cls-1" points="1357.84 61.71 1373.34 106.21 1397.34 141.21 1422.84 154.21 1297.34 155.21 1324.84 120.21 1337.84 77.71 1357.84 61.71"/><polygon class="cls-1" points="1357.68 61.71 1373.18 106.21 1397.18 141.21 1422.68 154.21 1297.18 155.21 1324.68 120.21 1337.68 77.71 1357.68 61.71"/><polyline class="cls-1" points="1348.9 1.25 1353.39 29.21 1348 34.57"/><polygon class="cls-98" points="983.52 142.62 984.35 139.59 971.82 155.01 978.41 154.9 986.03 149.95 993.17 146.5 988.15 144.93 983.52 142.62"/><polygon class="cls-98" points="1112.55 96.26 1100.69 99.59 1121.09 108.42 1134.21 132.03 1138.45 129.25 1166.67 113.63 1183.17 107.11 1194.6 101.18 1202.41 94.38 1219.06 86.57 1182.16 89.61 1157.41 94.81 1112.55 96.26"/><polygon class="cls-98" points="1107.92 149.08 1095.91 144.16 1065.96 145.17 1033.54 149.95 1015.89 145.61 986.03 149.95 978.41 154.9 1099.1 155.01 1107.92 149.08"/><polyline class="cls-98" points="1350.3 34.92 1310.78 74.21 1252.55 84.55 1227.59 97.85 1201.55 105.38 1183.17 107.11 1166.67 113.63 1138.45 129.25 1099.1 155.01"/><polygon class="cls-98" points="1100.69 99.59 1078.55 108.27 1072.61 114.2 1041.79 122.74 993.17 146.5 986.03 149.95 1015.89 145.61 1033.54 149.95 1065.96 145.17 1095.91 144.16 1107.92 149.08 1134.21 132.03 1121.09 108.42 1100.69 99.59"/><polygon class="cls-98" points="1027.37 129.79 1017.05 130.56 1010.39 127.52 1000.84 127.66 989.7 133.74 984.63 139.24 983.52 142.62 988.15 144.93 993.17 146.5 1027.37 129.79"/><polygon class="cls-98" points="1078.84 102.92 1094.61 101.91 1078.55 108.27 1072.61 114.2 1041.79 122.74 1064.94 109 1073.34 106.53 1078.84 102.92"/><polyline class="cls-98" points="1350.21 34.92 1310.78 74.21 1252.55 84.55 1227.59 97.85 1201.55 105.38 1183.17 107.11 1194.6 101.18 1202.41 94.38 1227.16 82.66 1252.55 64.68"/><polyline class="cls-98" points="1350.49 0.39 1323.28 22.71 1287.28 35.21 1252.55 64.68 1287.28 35.21 1323.28 22.71 1349.45 1.25"/><polyline class="cls-99" points="1349.45 1.25 1367.14 4.76 1442.68 77.98 1463.81 88.3 1483.2 112.33 1503.26 127.95 1557.98 154.68"/><polygon class="cls-98" points="1634.08 142.62 1638.71 144.93 1643.72 146.5 1650.94 151.94 1660.94 155.01 1641.19 155.01 1636.58 149.95 1627.52 149.27 1613.24 141.36 1604.65 133.02 1613.72 135.28 1624.82 141.56 1634.08 142.62"/><polygon class="cls-98" points="1594.33 134.8 1598.87 141.36 1603.91 146.5 1620.61 154.9 1628.96 154.9 1641.19 155.01 1636.58 149.95 1627.52 149.27 1613.24 141.36 1594.33 134.8"/><polyline class="cls-99" points="1349.45 1.25 1354.09 29.21 1357.84 61.71 1373.34 106.21 1397.34 141.21 1422.84 154.21"/><polygon class="cls-99" points="1558.44 154.9 1592.59 154.9 1526.03 126.7 1497.67 97.56 1464.63 78.13 1464.46 78.26 1503.26 127.95 1558.44 154.9"/><polygon class="cls-99" points="1620.53 154.9 1589.51 140.01 1568.48 124.77 1564.81 116.45 1531.82 96.79 1499.02 83.67 1466.1 78.29 1465.1 78.26 1497.67 97.56 1526.03 126.7 1592.59 154.9 1620.53 154.9"/><path class="cls-99" d="M1465.6,923.75" transform="translate(0 -844.99)"/><polygon class="cls-98" points="1567.5 122.55 1577.35 117.63 1592.59 118.4 1604.65 133.02 1613.24 141.36 1594.33 134.8 1598.87 141.36 1603.75 146.84 1589.51 140.01 1568.48 124.77 1567.5 122.55"/><polygon class="cls-99" points="1464.29 78 1503.26 127.95 1483.2 112.33 1463.81 88.3 1442.68 77.98 1464.29 78"/><path class="cls-100" d="M993.73,1007.73a170.08,170.08,0,0,0,28.43,14.81l0.46,0.18c-2.49-.1-5.28.69-10.58,2.16-10.18,2.83-20.95.74-26.26-6.48-1.34-1.82-10.34-12.08-14-18.41" transform="translate(0 -844.99)"/><path class="cls-100" d="M1113.75,1002.77h0c-6.21,4-17.57,9-38.9,7s-43.08-4-55.94-1.66c-9.57,1.74-25.69-2.81-34.79-6.05a25.55,25.55,0,0,0-4.83-2h126A24.46,24.46,0,0,1,1113.75,1002.77Z" transform="translate(0 -844.99)"/><path class="cls-100" d="M1129.54,1015.63c1.48,1.11,3.1,2.27,4.83,3.47-1.33,4.93-9.42,36.37-38.62,33.77-2-.65-3.94-1.35-5.77-2.12-15.74-6.66-7.86-10.66-56.53-23.69h0c-5.47-2.88-7.94-4.21-10.82-4.32l-0.46-.18a170.08,170.08,0,0,1-28.43-14.81l-4.43-2.74-0.33-.2c-1.74-1.06-3.35-2-4.84-2.77,9.09,3.24,25.22,7.8,34.79,6.05,12.86-2.34,34.61-.36,55.94,1.66s32.69-3,38.9-7h0C1119.12,1005.74,1122.66,1010.48,1129.54,1015.63Z" transform="translate(0 -844.99)"/><path class="cls-100" d="M1218.55,1067.83l-0.12.19c-16-.48-42.5-7.91-61.64-8.25-17.28-.3-42.52-1-61-6.89,29.2,2.6,37.29-28.85,38.62-33.77,11.83,8.17,28.86,17.94,41.52,23.16,2.3,0.94,4.78,2.14,7.36,3.5h0C1195.72,1052.32,1210.51,1062.75,1218.55,1067.83Z" transform="translate(0 -844.99)"/><path class="cls-100" d="M1349.45,1152.63c-2.63-.91-13.11-14-26.16-20.74-11.12-5.72-23.21-4.07-36-12.5-13-8.57-24-21.12-34.74-29.47a238.42,238.42,0,0,0-31.82-20.75c-0.65-.39-1.38-0.84-2.18-1.34" transform="translate(0 -844.99)"/><path class="cls-100" d="M1349.52,1118.68c-3.4-2.21-20.55-28.73-38.74-38.29-15.9-8.36-42.5-6.62-58.24-10.34-17.86-4.22-19.15-11.63-25-13.3-16.79-4.82-29.8-8.65-44.34-11h0c-2.58-1.36-5.06-2.56-7.36-3.5-12.66-5.22-29.69-15-41.52-23.16-1.73-1.2-3.35-2.36-4.83-3.47-6.87-5.15-10.41-9.89-15.78-12.86a24.46,24.46,0,0,0-8.46-2.77" transform="translate(0 -844.99)"/><path class="cls-100" d="M1040.19,1028.9a7.29,7.29,0,0,0,1,2.93c8.1,10.8,45,20.34,54.58,21-2-.65-3.94-1.35-5.77-2.12C1076,1044.83,1080.82,1039.5,1040.19,1028.9Z" transform="translate(0 -844.99)"/><path class="cls-100" d="M1472.29,1055c7.58-10.61,22.82-23.34,30.34-28.36-15.42,12.57-32.29,35.77-37.47,48.22q-1.5.49-3.17,0.91h0c-14.45,2.66-24,6.81-34.75,14,6.4-6.6,11.17-11.44,13.27-13.17C1446.11,1072,1464.72,1065.6,1472.29,1055Z" transform="translate(0 -844.99)"/><path class="cls-100" d="M1554.91,1000h32.85c-13.9,2.1-34.84,14.11-46,19.78-12.33,6.27-39.92,31.74-50.92,38.49-10.07,6.18-14.75,12.95-25.7,16.58,5.17-12.45,22-35.65,37.47-48.22C1509.66,1021.94,1540.07,1002.71,1554.91,1000Z" transform="translate(0 -844.99)"/><path class="cls-100" d="M1554.91,1000c-14.84,2.71-45.25,21.94-52.27,26.63-7.52,5-22.76,17.75-30.34,28.36s-26.19,17-31.78,21.6c-2.11,1.74-6.87,6.58-13.27,13.17-10.64,11-25.81,26.79-40.75,41.25-17.3,16.73-28.14,20.46-37,21.63" transform="translate(0 -844.99)"/><path class="cls-100" d="M1587.76,1000h28.92a67.81,67.81,0,0,0-11.66,3.11h0c-12.84,4.52-28.69,13.17-35.63,23.94-0.84,1.3-1.68,2.52-2.52,3.68-9.43,12.93-19.4,17.26-35.88,25.4-17.94,8.87-36.47,15.44-57.69,17.94-2.95.35-5.7,0.73-8.31,1.15l0.16-.39c11-3.63,15.63-10.4,25.7-16.58,11-6.75,38.59-32.22,50.92-38.49C1552.92,1014.11,1573.86,1002.1,1587.76,1000Z" transform="translate(0 -844.99)"/><path class="cls-100" d="M1611.47,1013.09a68,68,0,0,0-7.44,8.47c-0.62.82-1.23,1.6-1.86,2.34-15.1,18-29.91,9.93-35.3,6.84,0.85-1.16,1.68-2.38,2.52-3.68,6.93-10.77,22.79-19.42,35.63-23.94C1590.81,1019.78,1592,1023,1611.47,1013.09Z" transform="translate(0 -844.99)"/><path class="cls-100" d="M1611.47,1013.09c-19.44,9.93-20.65,6.69-6.44-10h0a67.81,67.81,0,0,1,11.66-3.11" transform="translate(0 -844.99)"/><path class="cls-100" d="M1641.19,999.82c5.67,0,19.75.18,19.75,0.18-2.87,1.55-23.06,10.62-27.57,11.62-2,.44-4.18.82-6.58,1.11a33.7,33.7,0,0,0-10.8,3.73c-4.41,2.22-9,5-13.83,7.45,0.63-.74,1.24-1.52,1.86-2.34a45,45,0,0,1,5.87-6.92c12.44-11.84,21.63-7.67,26.68-9.76C1638.5,1004.09,1641.07,999.82,1641.19,999.82Z" transform="translate(0 -844.99)"/><path class="cls-100" d="M1422.84,1000.39c-7.52,5-16.25,6.56-25.5,13-10.7,7.45-20.07,28.9-24,35-7.37,11.44-13.57,35.51-15.5,44.5-1.25,5.81-.75,20.81-3.75,32.5-2.41,9.37-1.47,20.83-4.62,27.24" transform="translate(0 -844.99)"/><path class="cls-100" d="M1354.34,1123.91c-2.19-3.38-2.43-4-4.9-5.23" transform="translate(0 -844.99)"/><g class="cls-101"><rect class="cls-102" x="676.39" y="116.51" width="1323.69" height="309.64"/></g><line class="cls-103" x1="2000" y1="155.01" y2="155.01"/></svg>