<?xml version="1.0" encoding="utf-8"?>
<!-- Generator: Adobe Illustrator 19.2.0, SVG Export Plug-In . SVG Version: 6.00 Build 0)  -->
<svg version="1.1" id="Layer_1" xmlns="http://www.w3.org/2000/svg" xmlns:xlink="http://www.w3.org/1999/xlink" x="0px" y="0px"
	 viewBox="0 0 74.1 174" style="enable-background:new 0 0 74.1 174;" xml:space="preserve">
<style type="text/css">
	.st0{fill:none;}
	.st1{fill:#FFFFFF;}
</style>
<g>
	<path class="st0" d="M22.3,91.6c-0.1,0.4,0,0.9,0.4,1.3c0.8,0.9,2.6,2.7,5.8,3.6s7,1.2,8.6,1.2s5.5-0.3,8.6-1.2s4.9-2.7,5.8-3.6
		c0.4-0.4,0.5-0.9,0.4-1.3"/>
	<path class="st1" d="M65.7,26.9c-1-8.3-2.7-17-2.9-17.9c-0.4-2.1-1.9-4.2-5.2-5.1c-4.1-1.1-11.5-2.2-20.4-2.2S20.7,2.7,16.6,3.8
		c-3.3,0.9-4.8,3.1-5.2,5.1c-0.2,0.8-2,10-2.9,17.9c-3.8,31.5-0.8,44.2,2.1,53.8c1.4,4.6,5,8.9,7.4,10.3c1.9,1.1,2.8,1.2,3.8,0.7
		c0-0.4,0.2-0.8,0.5-1.1c0.2-0.2,0.5-0.4,0.7-0.5c0.1-0.1,0.3-0.1,0.4-0.2l0.3-0.1c0.5-0.1,0.9-0.2,1.4-0.3c1.9-0.4,3.8-0.7,5.8-1
		c2-0.2,4.1-0.3,6.1-0.4c2.1,0,4.1,0.1,6.1,0.4c2,0.2,4,0.6,5.8,1c0.5,0.1,0.9,0.2,1.4,0.3c0.5,0.1,1.1,0.4,1.5,0.8
		c0.3,0.3,0.5,0.7,0.5,1.1c1,0.4,1.9,0.3,3.7-0.8c2.4-1.5,6-5.7,7.4-10.3C66.5,71.1,69.4,58.4,65.7,26.9z M37.1,4.7
		c0.8,0,1.8,0.2,1.8,0.7c0,0.5-0.5,0.9-1.8,1c-1.2,0-1.8-0.5-1.8-1C35.3,4.9,36.2,4.7,37.1,4.7z M37.1,9.4c0.8,0,1.8,0.2,1.8,0.7
		c0,0.5-0.5,0.9-1.8,1c-1.2,0-1.8-0.5-1.8-1C35.3,9.6,36.2,9.4,37.1,9.4z M37.1,13.8c0.8,0,1.8,0.2,1.8,0.7c0,0.5-0.5,0.9-1.8,1
		c-1.2,0-1.8-0.5-1.8-1C35.3,14.1,36.2,13.8,37.1,13.8z M37.1,18.4c0.8,0,1.8,0.2,1.8,0.7c0,0.5-0.5,0.9-1.8,1c-1.2,0-1.8-0.5-1.8-1
		C35.3,18.7,36.2,18.4,37.1,18.4z M37.1,23c0.8,0,1.8,0.2,1.8,0.7c0,0.5-0.5,0.9-1.8,1c-1.2,0-1.8-0.5-1.8-1
		C35.3,23.2,36.2,23,37.1,23z M25.3,32.3c0-0.5,0.4-0.9,0.9-0.9h10.9h10.9c0.5,0,0.9,0.4,0.9,0.9v3.4c0,0.5-0.4,0.9-0.9,0.9H37.1
		H26.2c-0.5,0-0.9-0.4-0.9-0.9V32.3z M63,75.6c-0.2,3.9-0.4,5.7-2.3,5.8C58.8,81.6,37.1,82,37.1,82s-21.7-0.3-23.6-0.5
		c-1.9-0.2-2.1-2-2.3-5.8c-0.2-3.9-0.6-23.1-0.5-26.6c0.1-3.5,1.2-3.7,3.2-3.8c2-0.1,15.9-0.9,23.2-0.8c7.3-0.2,21.3,0.7,23.2,0.8
		c2,0.1,3.1,0.2,3.2,3.8C63.6,52.5,63.3,71.8,63,75.6z"/>
	<path class="st1" d="M70.3,16.4c-1-8.7-2.4-11.2-7.9-13.4s-18-3-25.4-3S17.2,0.9,11.7,3S4.8,7.7,3.8,16.4c-1,8.7-4.2,42.2-3.7,68.1
		s4,69.6,5.1,77.1s5.6,10,11,11s11.5,1.4,20.9,1.4s15.5-0.4,20.9-1.4s9.9-3.5,11-11s4.6-51.2,5.1-77.1S71.4,25.1,70.3,16.4z
		 M8.7,113.8c0.8-1.4,4.5-1.3,7.8,0s5.9,4.2,5.1,6c-1.2,2.6-7.9,1.9-11-0.1C8,118.1,7.8,115.5,8.7,113.8z M9.6,126.3
		c0.8-1.4,4.5-1.3,7.8,0s5.9,4.2,5.1,6c-1.2,2.6-7.9,1.9-11-0.1C8.8,130.5,8.7,128,9.6,126.3z M10.7,139.1c0.8-1.4,4.5-1.3,7.8,0
		s5.9,4.2,5.1,6c-1.2,2.6-7.9,1.9-11-0.1C10,143.3,9.8,140.7,10.7,139.1z M24.1,157.4c-1.2,2.6-7.9,1.9-11-0.1
		c-2.7-1.7-2.8-4.2-1.9-5.9c0.8-1.4,4.5-1.3,7.8,0S24.9,155.7,24.1,157.4z M43.7,159.4c-1.6,1.4-3.8,2.5-6.7,2.5
		c-2.9,0-5.1-1.1-6.7-2.5c-2-1.8-1-3.8,0.8-4.6c1.3-0.6,4-1,5.8-1s4.5,0.4,5.8,1C44.7,155.6,45.7,157.7,43.7,159.4z M43.7,146.8
		c-1.6,1.4-3.8,2.5-6.7,2.5c-2.9,0-5.1-1.1-6.7-2.5c-2-1.8-1-3.8,0.8-4.6c1.3-0.6,4-1,5.8-1s4.5,0.4,5.8,1
		C44.7,143,45.7,145.1,43.7,146.8z M43.7,134.3c-1.6,1.4-3.8,2.5-6.7,2.5c-2.9,0-5.1-1.1-6.7-2.5c-2-1.8-1-3.8,0.8-4.6
		c1.3-0.6,4-1,5.8-1s4.5,0.4,5.8,1C44.7,130.4,45.7,132.5,43.7,134.3z M43.7,121.7c-1.6,1.4-3.8,2.5-6.7,2.5c-2.9,0-5.1-1.1-6.7-2.5
		c-2-1.8-1-3.8,0.8-4.6c1.3-0.6,4-1,5.8-1s4.5,0.4,5.8,1C44.7,117.9,45.7,119.9,43.7,121.7z M61.1,157.3c-3.1,2-9.8,2.7-11,0.1
		c-0.8-1.8,1.8-4.7,5.1-6s7-1.4,7.8,0C63.9,153.1,63.7,155.6,61.1,157.3z M61.5,145c-3.1,2-9.8,2.7-11,0.1c-0.8-1.8,1.8-4.7,5.1-6
		s7-1.4,7.8,0C64.3,140.7,64.1,143.3,61.5,145z M62.6,132.2c-3.1,2-9.8,2.7-11,0.1c-0.8-1.8,1.8-4.7,5.1-6s7-1.4,7.8,0
		C65.4,128,65.3,130.5,62.6,132.2z M63.5,119.8c-3.1,2-9.8,2.7-11,0.1c-0.8-1.8,1.8-4.7,5.1-6s7-1.4,7.8,0
		C66.3,115.5,66.1,118.1,63.5,119.8z M69.3,82.7c-1.5,4.8-3.4,9.4-5.9,13.6c0,0.3,0,0.6-0.1,0.8c-0.3,1-0.9,1.8-1.5,2.6
		c-0.6,0.8-1.2,1.5-1.7,2.2c-1.1,1.5-2.5,2.8-3.9,3.9c-2.7,2.3-5.6,4-8.2,5c-0.7,0.2-1.3,0.4-2,0.6c-2.7,0.9-5.7,1.4-9,1.4
		c-7.3,0-13.4-2.5-18.3-6.6c-0.2-0.1-0.5-0.3-0.7-0.4c-0.8-0.5-1.5-1.3-2.2-2c-0.7-0.8-1.4-1.6-2.2-2.5c-0.7-0.9-1.5-1.8-2.2-2.8
		c-0.3-0.5-0.7-1.1-0.7-1.8c0,0,0,0,0-0.1c-2.5-4.2-4.5-8.9-6-13.8C1,70.3,2.6,50.4,3,43.6c0.5-9,2.2-22.7,3.8-30.5
		c1.6-8.3,2.3-8.8,6.8-10.3C18.4,1,28.7,0.1,37.1,0.1S55.7,1,60.6,2.8c4.4,1.6,5.2,2,6.8,10.3c1.5,7.8,3.2,21.5,3.8,30.5
		C71.5,50.4,73.1,70.3,69.3,82.7z"/>
	<g>
		<path class="st1" d="M23,103.6c2.2-3,2.5-4.1,1-4.8s-1.1-0.2-4.7-2.5c-3.6-2.3-3.6-3.4-6.4-1.8s-2.2,2.7,2,7.6
			C19.1,107,20,107.6,23,103.6z"/>
	</g>
	<g>
		<path class="st1" d="M37.1,97.7c1.6,0,5.5-0.3,8.6-1.2s4.9-2.7,5.8-3.6s0.5-2.1-1.2-2.5c-1.7-0.4-7.5-1.3-13.2-1.3
			s-11.5,0.9-13.2,1.3c-1.7,0.4-2,1.6-1.2,2.5s2.6,2.7,5.8,3.6S35.5,97.7,37.1,97.7z"/>
	</g>
	<g>
		<path class="st1" d="M42.2,106.6c-1-6.2-0.9-5.7,4.4-6.5c1.6-0.3,4.8-1.4,8.4-3.7c3.6-2.3,3.6-3.4,6.4-1.8c2.8,1.6,1.8,2.8-2,7.6
			c-2.6,3.3-8,7.5-12.3,8.9C42.3,112.5,42.6,109.6,42.2,106.6z"/>
	</g>
</g>
</svg>
