<svg id="Chart_colour" data-name="Chart colour" xmlns="http://www.w3.org/2000/svg" viewBox="0 0 276.85 564.18"><defs><style>.cls-1{fill:#f5cb1d;}.cls-2{fill:#81434d;}.cls-3{fill:#47283d;}.cls-4{fill:#f37e20;}.cls-11,.cls-5,.cls-6,.cls-7,.cls-8,.cls-9{fill:none;stroke:#fff;}.cls-11,.cls-5{stroke-miterlimit:2.61;}.cls-5,.cls-6,.cls-7,.cls-8,.cls-9{stroke-width:2px;}.cls-11,.cls-6,.cls-7,.cls-8,.cls-9{stroke-linecap:round;}.cls-6,.cls-7{stroke-linejoin:round;}.cls-6,.cls-9{fill-rule:evenodd;}.cls-8,.cls-9{stroke-linejoin:bevel;}.cls-10{fill:#075f7b;}.cls-11{stroke-width:0.25px;stroke-dasharray:0 0.51;}.cls-12{fill:#398177;}.cls-13{fill:#03493b;}.cls-14{fill:#231f20;}.cls-15{fill:#056357;}.cls-16{fill:#4d4d4d;}</style></defs><title>Gastrategi chart1</title><g id="PedestriansC"><path class="cls-1" d="M234.92,351.34v-0.05c0-1.22-.68-2.29-1.72-2.29s-1.66,1-1.66,2.24v0.05c0,1.22.68,2.29,1.72,2.29S234.92,352.51,234.92,351.34Z" transform="translate(0 -2.79)"/><path class="cls-1" d="M138.43,290.12a137.88,137.88,0,0,0-58.95,13.15l24.38,51.81a81.2,81.2,0,0,1,115.76,73.46h47.15a4.46,4.46,0,0,1-4-2.32l-8.33-13.69h0a8.24,8.24,0,0,1-.81-2h0l-2.08-8.92a0.22,0.22,0,0,0-.34-0.06l-8.77,8a1.41,1.41,0,0,0-.18.32l-2.34,13.33c0,0.15-.05.33-0.08,0.5h0a4.21,4.21,0,0,1-4.17,2.87,4,4,0,0,1-4.27-3.73,6.18,6.18,0,0,1,.17-1c0.79-4.79,2.19-12.37,2.19-12.37l0.18-.84h0a6,6,0,0,1,2.23-4l9.54-8.66a0.86,0.86,0,0,0,.23-0.51l-3-12.7c-0.13-.24-0.28-0.09-0.43.24-0.34,1.12-.82,3.1-1.8,3.8L231,393.42c-3.31,1.28-5.35-1.61-3.49-3.64l9.75-6.62c1.07-.62,1.65-8.2,3.69-11.3h0a3.61,3.61,0,0,1,1-1.41,8.78,8.78,0,0,1,5.25-1.49,10.05,10.05,0,0,1,5.28,1.47l10.66,8.4h0a4.13,4.13,0,0,1,1.66,2.57h0l2.7,12a3.58,3.58,0,0,1,.09.6,2.54,2.54,0,0,1-2.69,2.35,2.59,2.59,0,0,1-2.67-2.05l-2.66-11.85a0.64,0.64,0,0,0-.22-0.3l-4-3.12c-0.28-.16-0.35-0.07-0.33.14l3.26,14.05h0l3.59,15.4c0.09,0.28.2,0.54,0.31,0.79l8.14,13.36a3.8,3.8,0,0,1,.71,1.91h0a4.15,4.15,0,0,1-4.27,3.88h10.09A138.43,138.43,0,0,0,138.43,290.12Zm71.51,69.28c0,3.43-2.5,6-6.55,6a8.9,8.9,0,0,1-6-2.08,2,2,0,0,1-.68-1.43,2,2,0,0,1,1.92-1.92,1.9,1.9,0,0,1,1.27.49,5.19,5.19,0,0,0,3.56,1.35,2.28,2.28,0,0,0,2.57-2.21v-0.05c0-1.48-1.33-2.31-3.56-2.31h-0.62a1.73,1.73,0,0,1-1.72-1.72,2.26,2.26,0,0,1,.86-1.64l3.54-3.56h-5.59a1.72,1.72,0,0,1,0-3.43h8.87a1.81,1.81,0,0,1,2,1.77,2.9,2.9,0,0,1-1.2,2.24L205,354.25c2.47,0.42,4.89,1.72,4.89,5.1v0.05ZM224.6,365h-9.88a1.92,1.92,0,0,1-2.16-1.9,2.53,2.53,0,0,1,1-2l5.17-4.24c2.26-1.85,3.15-2.86,3.15-4.37a2.23,2.23,0,0,0-2.44-2.37,3.85,3.85,0,0,0-3,1.59,1.84,1.84,0,0,1-3.17-1.25,2,2,0,0,1,.47-1.25,7.16,7.16,0,0,1,5.93-2.68c3.77,0,6.27,2.21,6.27,5.62v0.05c0,3-1.56,4.55-4.78,7l-3,2.29h6.34a1.74,1.74,0,0,1,1.74,1.74A1.72,1.72,0,0,1,224.6,365Zm4.21-13.7v-0.05a4.43,4.43,0,0,1,4.45-4.65,4.37,4.37,0,0,1,4.39,4.6v0.05a4.44,4.44,0,0,1-4.45,4.65A4.37,4.37,0,0,1,228.81,351.34Zm5.2,13.31a1.32,1.32,0,0,1-1.07.55,1.22,1.22,0,0,1-1.22-1.22,1.45,1.45,0,0,1,.29-0.83l11.62-15.91a1.32,1.32,0,0,1,1.07-.55,1.22,1.22,0,0,1,1.22,1.22,1.29,1.29,0,0,1-.29.83Zm11.74,2.84a6.08,6.08,0,0,1-6.13-6,5.92,5.92,0,0,1,1-3.25,4.25,4.25,0,0,1,1.67-1.7,6.18,6.18,0,0,1,3.49-1.07,6.09,6.09,0,0,1,6.13,5.79v0.23A6.08,6.08,0,0,1,245.75,367.5Z" transform="translate(0 -2.79)"/></g><g id="BussC"><path class="cls-2" d="M12.62,435H0.15q0.3,6.42,1.17,12.68h11.3V435Z" transform="translate(0 -2.79)"/><path class="cls-2" d="M13.76,435.07V447.7h13.8V435.07H13.76Z" transform="translate(0 -2.79)"/><path class="cls-2" d="M42.4,435H28.68v12.68H42.4V435Z" transform="translate(0 -2.79)"/><path class="cls-2" d="M43.56,435v12.75H53.71C53.71,437,49.42,435,43.56,435Z" transform="translate(0 -2.79)"/><path class="cls-2" d="M82.86,369.38L43.67,327.64A138,138,0,0,0,0,428.54c0,1.37,0,2.74.07,4.11H45.55c6.57,0,10.56,4,10.59,10.54,0,5.65,0,11.3,0,17,0,0.69-.06,1.38-0.1,2.19H47.63c-0.62-5.5-3.34-8.48-7.73-8.62-4.61-.14-7.39,2.7-8.32,8.62H4.16a137.09,137.09,0,0,0,27.47,54.29L65,488.74l-0.06,0a4.62,4.62,0,0,1-2-3.94v-0.05a4.39,4.39,0,0,1,4.32-4.65,4.21,4.21,0,0,1,4.1,3.37l4.21-3.52a79.58,79.58,0,0,1-18.33-51.37A80.94,80.94,0,0,1,82.86,369.38ZM30.7,489.17H20.37a1.54,1.54,0,0,1-1.72-1.51,2,2,0,0,1,.83-1.59l5.59-4.76c2.5-2.11,3.41-3.28,3.41-4.91a2.73,2.73,0,0,0-2.94-2.83c-1.46,0-2.47.68-3.59,2a1.47,1.47,0,0,1-2.57-1,1.6,1.6,0,0,1,.36-1,7,7,0,0,1,6-2.94c3.56,0,6,2.18,6,5.43v0.05c0,2.86-1.51,4.42-4.73,7l-3.74,3.12H30.7A1.4,1.4,0,1,1,30.7,489.17Zm9-33.74a6.38,6.38,0,0,1,6.45,6.42,6.5,6.5,0,0,1-6.37,6.35,6.37,6.37,0,0,1-6.39-6.48A6.25,6.25,0,0,1,39.74,455.42Zm8.4,29.66h-1.4v2.7a1.53,1.53,0,0,1-3.07,0v-2.7H35.53A1.51,1.51,0,0,1,34,483.58a2.5,2.5,0,0,1,.7-1.69l8.55-10.14a2.26,2.26,0,0,1,2-1,1.54,1.54,0,0,1,1.56,1.53v10.22h1.4a1.31,1.31,0,0,1,1.33,1.33A1.29,1.29,0,0,1,48.14,485.08Zm19.6-14.25a1,1,0,0,1,1,1,1.18,1.18,0,0,1-.23.68l-11.93,16.3a1.07,1.07,0,0,1-.91.47,1,1,0,0,1-1-1,1.17,1.17,0,0,1,.23-0.68l11.93-16.3A1,1,0,0,1,67.75,470.83Zm-7.23,4.52v0.05a4.3,4.3,0,1,1-8.58.05v-0.05a4.39,4.39,0,0,1,4.32-4.65A4.33,4.33,0,0,1,60.52,475.36Z" transform="translate(0 -2.79)"/><polygon class="cls-2" points="43.67 479.67 43.67 472.47 37.69 479.67 43.67 479.67"/><path class="cls-2" d="M69.2,484.77v-0.05c0-1.46-.83-2.65-2-2.65s-1.95,1.2-1.95,2.6v0.05c0,1.48.83,2.65,2,2.65h0.08L69,486A3.54,3.54,0,0,0,69.2,484.77Z" transform="translate(0 -2.79)"/><path class="cls-2" d="M54.25,475.36v0.05c0,1.48.83,2.65,2,2.65s1.95-1.2,1.95-2.6v-0.05c0-1.46-.83-2.65-2-2.65S54.25,474,54.25,475.36Z" transform="translate(0 -2.79)"/></g><g id="CarC"><path class="cls-3" d="M183.54,531.48c-0.33.75-1,2.39-.76,2.65s1.13-.39,2.07-1l19-11.79-4.18-7.62A28.28,28.28,0,0,0,183.54,531.48Z" transform="translate(0 -2.79)"/><path class="cls-3" d="M202.12,512.83l4.49,6.77,11.12-6.72,0-.19A26.75,26.75,0,0,0,202.12,512.83Z" transform="translate(0 -2.79)"/><path class="cls-3" d="M164.61,556c-1.41,0-2.25,1.38-2.25,3v0.06c0,1.71,1,3.06,2.31,3.06s2.25-1.38,2.25-3v-0.06C166.92,557.39,166,556,164.61,556Z" transform="translate(0 -2.79)"/><path class="cls-3" d="M154.23,548.39v-0.06c0-1.68-1-3.06-2.31-3.06s-2.25,1.38-2.25,3v0.06c0,1.71,1,3.06,2.31,3.06S154.23,550,154.23,548.39Z" transform="translate(0 -2.79)"/><path class="cls-3" d="M69.17,485.26l-2.42,2a1.65,1.65,0,0,0,.5.09A2.1,2.1,0,0,0,69.17,485.26Z" transform="translate(0 -2.79)"/><path class="cls-3" d="M209.57,467.66a81.19,81.19,0,0,1-134,12.26l-4.21,3.52a5.19,5.19,0,0,1,.16,1.23v0.05a4.4,4.4,0,0,1-4.32,4.65,4.08,4.08,0,0,1-2.19-.63L31.63,516.62a138.48,138.48,0,0,0,133.26,47.81h-0.28a5,5,0,0,1-4.92-5.31v-0.06a5,5,0,1,1,9.9-.06v0.06a5.25,5.25,0,0,1-3.34,5.09,138.62,138.62,0,0,0,93.54-69ZM131.82,557.9c0,3.87-3,6.66-7.35,6.66a9.84,9.84,0,0,1-7.11-2.73,1.77,1.77,0,0,1-.6-1.32,1.79,1.79,0,0,1,1.77-1.77,1.77,1.77,0,0,1,1.23.48,6.39,6.39,0,0,0,4.77,2c2.07,0,3.63-1.26,3.63-3.18V558c0-2.07-1.89-3.24-4.83-3.24h-0.75a1.6,1.6,0,0,1-1.59-1.59,2.1,2.1,0,0,1,.78-1.5l4.92-5.25h-7.62a1.61,1.61,0,1,1,0-3.21h10.74a1.65,1.65,0,0,1,1.83,1.62,2.68,2.68,0,0,1-1.05,2L125.64,552c3.18,0.39,6.18,2,6.18,5.88v0.06Zm10.86,4.62a1.82,1.82,0,0,1-1.83,1.83,1.84,1.84,0,0,1-1.83-1.83V546.68l-2.16.66a2.7,2.7,0,0,1-.66.09,1.6,1.6,0,0,1-.39-3.15l3.18-1a6.41,6.41,0,0,1,1.8-.33h0.06a1.8,1.8,0,0,1,1.83,1.83v17.76ZM147,548.39v-0.06a5.06,5.06,0,0,1,5-5.37,5,5,0,0,1,4.92,5.31v0.06A5,5,0,1,1,147,548.39ZM166.17,545L152.4,563.81a1.23,1.23,0,0,1-1,.54,1.15,1.15,0,0,1-1.17-1.17,1.35,1.35,0,0,1,.27-0.78l13.77-18.81a1.14,1.14,0,0,1,1-.54,1.18,1.18,0,0,1,1.2,1.17A1.36,1.36,0,0,1,166.17,545Zm19.69,13.11a7.75,7.75,0,1,1,2.62-10.64A7.75,7.75,0,0,1,185.87,558.11Zm46-27.81a7.75,7.75,0,1,1,2.63-10.64A7.76,7.76,0,0,1,231.89,530.31ZM236,519.73c-0.1.1-.18,0.23-0.33,0.16-0.11-.23-0.24-0.46-0.37-0.69a8.65,8.65,0,1,0-13,11.09,13.14,13.14,0,0,1-2,1.3q-13,7.87-26,15.7c-1.31.79-2.65,1.54-4,2.31A8.65,8.65,0,1,0,174.45,556c0.14,0.23.28,0.44,0.44,0.65a24.74,24.74,0,0,1-4.06-3.35,2.42,2.42,0,0,1-.64-1.2c0.24-2.11.38-4.24,0.74-6.33h0l0-.14a12.58,12.58,0,0,1,3.08-5.57,51.28,51.28,0,0,1,4.09-3.49c0.59-.46,1.15-0.95,1.69-1.46a3,3,0,0,0,.84-1.39,37.76,37.76,0,0,1,4.55-9.76,40.21,40.21,0,0,1,7.33-7.63c0.47-.35,3.6-2.4,4-2.63a30.87,30.87,0,0,1,17.65-4.09c3.52,0.16,7,.73,10.46,1.22a6.15,6.15,0,0,0,1.43,0,11.6,11.6,0,0,1,10.53,4.41,0.35,0.35,0,0,0,.3.26l0.72,1.19a2.46,2.46,0,0,1-.9,2.29C236.48,519.2,236.24,519.47,236,519.73Z" transform="translate(0 -2.79)"/></g><g id="CyclistsC"><path class="cls-4" d="M73.59,322.88v0a1.94,1.94,0,0,0-1.65-2.19c-1,0-1.61,1-1.61,2.14v0c0,1.22.69,2.19,1.65,2.19S73.59,324,73.59,322.88Z" transform="translate(0 -2.79)"/><path class="cls-4" d="M81,328.33c-1,0-1.61,1-1.61,2.14v0c0,1.22.69,2.19,1.65,2.19s1.61-1,1.61-2.14v0A1.94,1.94,0,0,0,81,328.33Z" transform="translate(0 -2.79)"/><path class="cls-4" d="M79.48,303.27a138.83,138.83,0,0,0-35.8,24.37l39.19,41.73a81.81,81.81,0,0,1,21-14.3ZM66.13,329.36c0,3-2.27,5.08-5.49,5.08a7.6,7.6,0,0,1-4.8-1.63,1.3,1.3,0,0,1-.54-1,1.28,1.28,0,0,1,1.26-1.27,1.16,1.16,0,0,1,.77.26A5,5,0,0,0,60.6,332a2.63,2.63,0,0,0,2.92-2.59v0c0-1.54-1.29-2.49-3.11-2.49a10.21,10.21,0,0,0-2.57.51,2.07,2.07,0,0,1-1.24-.51,1.25,1.25,0,0,1-.51-1.16l0.32-5.4a1.21,1.21,0,0,1,1.2-1.18h6.8a1.19,1.19,0,0,1,1.18,1.18,1.17,1.17,0,0,1-1.18,1.16H58.75L58.52,325a6.38,6.38,0,0,1,2.38-.43c2.94,0,5.23,1.54,5.23,4.72v0Zm2.3-6.47v0A3.62,3.62,0,0,1,72,319a3.57,3.57,0,0,1,3.52,3.79v0A3.55,3.55,0,1,1,68.43,322.88Zm3.11,11.41a0.82,0.82,0,0,1-.84-0.84,1,1,0,0,1,.19-0.56l9.84-13.44a0.82,0.82,0,0,1,.73-0.39,0.84,0.84,0,0,1,.86.84,1,1,0,0,1-.19.56L72.28,333.9A0.88,0.88,0,0,1,71.53,334.29ZM81,334.35a3.58,3.58,0,0,1-3.52-3.79v0a3.55,3.55,0,1,1,7.07,0v0A3.63,3.63,0,0,1,81,334.35Z" transform="translate(0 -2.79)"/><circle class="cls-5" cx="80.52" cy="362.9" r="5.14" transform="translate(-197.02 112.83) rotate(-35.79)"/><circle class="cls-5" cx="88" cy="357.51" r="1.25" transform="translate(-192.46 116.19) rotate(-35.79)"/><circle class="cls-5" cx="96.76" cy="351.2" r="5.14" transform="translate(-187.11 120.11) rotate(-35.79)"/><polygon class="cls-6" points="78.49 349.27 80.25 359.42 87.96 354.68 90.19 345.85 87.18 343.15 78.49 349.27"/><polyline class="cls-6" points="87.96 354.68 78.49 349.27 75.93 347.67"/><line class="cls-7" x1="96.76" y1="348.41" x2="90.19" y2="345.85"/><line class="cls-8" x1="74.92" y1="348.22" x2="79.96" y2="344.49"/><path class="cls-9" d="M86.25,346.11c0.6-.82,2.06-5.5-2.94-2" transform="translate(0 -2.79)"/></g><g id="CarPassC"><path class="cls-10" d="M239.89,465.77c-0.94,0-1.5.92-1.5,2v0a1.8,1.8,0,0,0,1.54,2c0.94,0,1.5-.92,1.5-2v0A1.81,1.81,0,0,0,239.89,465.77Z" transform="translate(0 -2.79)"/><path class="cls-10" d="M233,460.68v0a1.81,1.81,0,0,0-1.54-2c-0.94,0-1.5.92-1.5,2v0a1.8,1.8,0,0,0,1.54,2C232.41,462.68,233,461.76,233,460.68Z" transform="translate(0 -2.79)"/><path class="cls-10" d="M248.89,448.08a3,3,0,0,0-.93.86,1.53,1.53,0,0,0,1,.12l10.28-.12,0.17-4A13,13,0,0,0,248.89,448.08Z" transform="translate(0 -2.79)"/><path class="cls-10" d="M220.69,464.32a2.58,2.58,0,0,0-2.84,2.46v0a2.62,2.62,0,0,0,2.9,2.5,2.53,2.53,0,0,0,2.8-2.52v0C223.55,465.36,222.43,464.32,220.69,464.32Z" transform="translate(0 -2.79)"/><path class="cls-10" d="M219,438.72a80.64,80.64,0,0,1-9.38,28.94l50.17,27.58a137.49,137.49,0,0,0,16-49.34Zm7.05,28c0,2.78-2.26,4.76-5.2,4.76a5.22,5.22,0,0,1-3.9-1.48c-1.06-1.06-1.7-2.52-1.7-5.34v0c0-4.28,2-7.62,6-7.62a6.09,6.09,0,0,1,3.5,1,1.18,1.18,0,0,1,.62,1.06,1.16,1.16,0,0,1-1.18,1.14,1.32,1.32,0,0,1-.62-0.18,4.09,4.09,0,0,0-2.4-.78c-2.08,0-3.24,1.88-3.36,4.44a4.47,4.47,0,0,1,3.36-1.4c2.7,0,4.88,1.6,4.88,4.4v0Zm2.14-6v0a3.38,3.38,0,0,1,3.32-3.58,3.33,3.33,0,0,1,3.28,3.54v0A3.31,3.31,0,1,1,228.15,460.68Zm15.06,7.12a3.39,3.39,0,0,1-3.32,3.58,3.35,3.35,0,0,1-3.28-3.54v0a3.31,3.31,0,1,1,6.6,0v0Zm0.27-8.7a3.54,3.54,0,0,1-2.41-1,1,1,0,0,1-.13.28L231.75,471a0.82,0.82,0,0,1-.7.36,0.77,0.77,0,0,1-.78-0.78,0.9,0.9,0,0,1,.18-0.52l9.18-12.54a0.76,0.76,0,0,1,.67-0.36,3.51,3.51,0,0,1-.39-1.58A3.56,3.56,0,1,1,243.48,459.11Zm24.71,0a3.56,3.56,0,1,1,3.56-3.56A3.56,3.56,0,0,1,268.19,459.11Zm4.6-3.32-0.47.13c-0.06,0-.13,0-0.17,0s0-.24,0-0.36a4,4,0,1,0-7.74,1.28,6,6,0,0,1-1.1,0h-14c-0.7,0-1.41,0-2.11,0a4,4,0,1,0-7.74-1.27c0,0.12,0,.24,0,0.36a11.37,11.37,0,0,1-.8-2.28,1.11,1.11,0,0,1,0-.62c0.6-.77,1.16-1.58,1.8-2.31h0l0.05,0a5.78,5.78,0,0,1,2.53-1.46,23.54,23.54,0,0,1,2.44-.4c0.34,0,.68-0.1,1-0.17a1.38,1.38,0,0,0,.66-0.35,17.35,17.35,0,0,1,4.11-2.76,18.48,18.48,0,0,1,4.69-1.26c0.27,0,2-.09,2.2-0.09a14.19,14.19,0,0,1,7.91,2.58c1.35,0.9,2.57,1.94,3.82,3a2.83,2.83,0,0,0,.55.35,5.33,5.33,0,0,1,3.09,4.23,0.16,0.16,0,0,0,.05.17v0.64A1.13,1.13,0,0,1,272.78,455.79Z" transform="translate(0 -2.79)"/><path class="cls-10" d="M260.63,445.16l0,0.8a1.54,1.54,0,0,1,.93-0.31,1.52,1.52,0,0,1,1.53,1.45v0.06a1.52,1.52,0,0,1-1.53,1.51,1.54,1.54,0,0,1-.82-0.24l0,0.47h6l0-.08A12.29,12.29,0,0,0,260.63,445.16Z" transform="translate(0 -2.79)"/><path class="cls-11" d="M254.63,445.62a1.52,1.52,0,1,0,1.55,1.52v-0.06A1.54,1.54,0,0,0,254.63,445.62Z" transform="translate(0 -2.79)"/><path class="cls-10" d="M260.66,446a1.48,1.48,0,0,0,.1,2.46Z" transform="translate(0 -2.79)"/></g><g id="PedestriansG"><path class="cls-12" d="M234.92,64V64c0-1.22-.68-2.29-1.72-2.29s-1.66,1-1.66,2.24V64c0,1.22.68,2.29,1.72,2.29S234.92,65.18,234.92,64Z" transform="translate(0 -2.79)"/><path class="cls-12" d="M138.43,2.79A137.88,137.88,0,0,0,79.48,15.94l24.38,51.81a81.2,81.2,0,0,1,115.76,73.46h47.15a4.46,4.46,0,0,1-4-2.32l-8.33-13.69h0a8.24,8.24,0,0,1-.81-2h0l-2.08-8.92a0.22,0.22,0,0,0-.34-0.06l-8.77,8a1.41,1.41,0,0,0-.18.32l-2.34,13.33c0,0.15-.05.33-0.08,0.5h0a4.21,4.21,0,0,1-4.17,2.87,4,4,0,0,1-4.27-3.73,6.18,6.18,0,0,1,.17-1c0.79-4.79,2.19-12.37,2.19-12.37l0.18-.84h0a6,6,0,0,1,2.23-4l9.54-8.66A0.86,0.86,0,0,0,246,108l-3-12.7c-0.13-.24-0.28-0.09-0.43.24-0.34,1.12-.82,3.1-1.8,3.8L231,106.08c-3.31,1.28-5.35-1.61-3.49-3.64l9.75-6.62c1.07-.62,1.65-8.2,3.69-11.3h0a3.61,3.61,0,0,1,1-1.41,8.78,8.78,0,0,1,5.25-1.49,10.05,10.05,0,0,1,5.28,1.47l10.66,8.4h0a4.13,4.13,0,0,1,1.66,2.57h0l2.7,12a3.58,3.58,0,0,1,.09.6,2.54,2.54,0,0,1-2.69,2.35,2.59,2.59,0,0,1-2.67-2.05l-2.66-11.85a0.64,0.64,0,0,0-.22-0.3l-4-3.12c-0.28-.16-0.35-0.07-0.33.14l3.26,14.05h0l3.59,15.4c0.09,0.28.2,0.54,0.31,0.79l8.14,13.36a3.8,3.8,0,0,1,.71,1.91h0a4.15,4.15,0,0,1-4.27,3.88h10.09A138.43,138.43,0,0,0,138.43,2.79Zm71.51,69.28c0,3.43-2.5,6-6.55,6a8.9,8.9,0,0,1-6-2.08,2,2,0,0,1-.68-1.43,2,2,0,0,1,1.92-1.92,1.9,1.9,0,0,1,1.27.49,5.19,5.19,0,0,0,3.56,1.35A2.28,2.28,0,0,0,206,72.23V72.17c0-1.48-1.33-2.31-3.56-2.31h-0.62a1.73,1.73,0,0,1-1.72-1.72,2.26,2.26,0,0,1,.86-1.64l3.54-3.56h-5.59a1.72,1.72,0,0,1,0-3.43h8.87a1.81,1.81,0,0,1,2,1.77,2.9,2.9,0,0,1-1.2,2.24L205,66.92c2.47,0.42,4.89,1.72,4.89,5.1v0.05Zm14.66,5.64h-9.88a1.92,1.92,0,0,1-2.16-1.9,2.53,2.53,0,0,1,1-2l5.17-4.24c2.26-1.85,3.15-2.86,3.15-4.37a2.23,2.23,0,0,0-2.44-2.37,3.85,3.85,0,0,0-3,1.59,1.84,1.84,0,0,1-3.17-1.25,2,2,0,0,1,.47-1.25,7.16,7.16,0,0,1,5.93-2.68c3.77,0,6.27,2.21,6.27,5.62v0.05c0,3-1.56,4.55-4.78,7l-3,2.29h6.34A1.74,1.74,0,0,1,226.34,76,1.72,1.72,0,0,1,224.6,77.71ZM228.81,64V64a4.43,4.43,0,0,1,4.45-4.65,4.37,4.37,0,0,1,4.39,4.6V64a4.44,4.44,0,0,1-4.45,4.65A4.37,4.37,0,0,1,228.81,64ZM234,77.32a1.32,1.32,0,0,1-1.07.55,1.22,1.22,0,0,1-1.22-1.22,1.45,1.45,0,0,1,.29-0.83L243.63,59.9a1.32,1.32,0,0,1,1.07-.55,1.22,1.22,0,0,1,1.22,1.22,1.29,1.29,0,0,1-.29.83Zm11.74,2.84a6.08,6.08,0,0,1-6.13-6,5.92,5.92,0,0,1,1-3.25,4.25,4.25,0,0,1,1.67-1.7,6.18,6.18,0,0,1,3.49-1.07,6.09,6.09,0,0,1,6.13,5.79v0.23A6.08,6.08,0,0,1,245.75,80.16Z" transform="translate(0 -2.79)"/></g><g id="BussG"><path class="cls-13" d="M12.62,147.69H0.15q0.3,6.42,1.17,12.68h11.3V147.69Z" transform="translate(0 -2.79)"/><path class="cls-13" d="M13.76,147.74v12.63h13.8V147.74H13.76Z" transform="translate(0 -2.79)"/><path class="cls-13" d="M42.4,147.71H28.68v12.68H42.4V147.71Z" transform="translate(0 -2.79)"/><path class="cls-13" d="M43.56,147.69v12.75H53.71C53.71,149.65,49.42,147.69,43.56,147.69Z" transform="translate(0 -2.79)"/><path class="cls-13" d="M82.86,82L43.67,40.31A138,138,0,0,0,0,141.21c0,1.37,0,2.74.07,4.11H45.55c6.57,0,10.56,4,10.59,10.54,0,5.65,0,11.3,0,17,0,0.69-.06,1.38-0.1,2.19H47.63c-0.62-5.5-3.34-8.48-7.73-8.62-4.61-.14-7.39,2.7-8.32,8.62H4.16a137.09,137.09,0,0,0,27.47,54.29L65,201.41l-0.06,0a4.62,4.62,0,0,1-2-3.94v-0.05a4.39,4.39,0,0,1,4.32-4.65,4.21,4.21,0,0,1,4.1,3.37l4.21-3.52a79.58,79.58,0,0,1-18.33-51.37A80.94,80.94,0,0,1,82.86,82ZM30.7,201.83H20.37a1.54,1.54,0,0,1-1.72-1.51,2,2,0,0,1,.83-1.59L25.08,194c2.5-2.11,3.41-3.28,3.41-4.91a2.73,2.73,0,0,0-2.94-2.83c-1.46,0-2.47.68-3.59,2a1.47,1.47,0,0,1-2.57-1,1.6,1.6,0,0,1,.36-1,7,7,0,0,1,6-2.94c3.56,0,6,2.18,6,5.43v0.05c0,2.86-1.51,4.42-4.73,7L23.31,199H30.7A1.4,1.4,0,1,1,30.7,201.83Zm9-33.74a6.38,6.38,0,0,1,6.45,6.42,6.5,6.5,0,0,1-6.37,6.35,6.37,6.37,0,0,1-6.39-6.48A6.25,6.25,0,0,1,39.74,168.09Zm8.4,29.66h-1.4v2.7a1.53,1.53,0,0,1-3.07,0v-2.7H35.53A1.51,1.51,0,0,1,34,196.24a2.5,2.5,0,0,1,.7-1.69l8.55-10.14a2.26,2.26,0,0,1,2-1,1.54,1.54,0,0,1,1.56,1.53v10.22h1.4a1.31,1.31,0,0,1,1.33,1.33A1.29,1.29,0,0,1,48.14,197.75Zm19.6-14.25a1,1,0,0,1,1,1,1.18,1.18,0,0,1-.23.68l-11.93,16.3a1.07,1.07,0,0,1-.91.47,1,1,0,0,1-1-1,1.17,1.17,0,0,1,.23-0.68L66.86,184A1,1,0,0,1,67.75,183.5ZM60.52,188v0.05a4.3,4.3,0,1,1-8.58.05v-0.05a4.39,4.39,0,0,1,4.32-4.65A4.33,4.33,0,0,1,60.52,188Z" transform="translate(0 -2.79)"/><polygon class="cls-13" points="43.67 192.34 43.67 185.13 37.69 192.34 43.67 192.34"/><path class="cls-13" d="M69.2,197.44v-0.05c0-1.46-.83-2.65-2-2.65s-1.95,1.2-1.95,2.6v0.05c0,1.48.83,2.65,2,2.65h0.08L69,198.65A3.54,3.54,0,0,0,69.2,197.44Z" transform="translate(0 -2.79)"/><path class="cls-13" d="M54.25,188v0.05c0,1.48.83,2.65,2,2.65s1.95-1.2,1.95-2.6v-0.05c0-1.46-.83-2.65-2-2.65S54.25,186.62,54.25,188Z" transform="translate(0 -2.79)"/></g><g id="CarG"><path class="cls-14" d="M183.54,244.15c-0.33.75-1,2.39-.76,2.65s1.13-.39,2.07-1l19-11.79-4.18-7.62A28.28,28.28,0,0,0,183.54,244.15Z" transform="translate(0 -2.79)"/><path class="cls-14" d="M202.12,225.49l4.49,6.77,11.12-6.72,0-.19A26.75,26.75,0,0,0,202.12,225.49Z" transform="translate(0 -2.79)"/><path class="cls-14" d="M164.61,268.67c-1.41,0-2.25,1.38-2.25,3v0.06c0,1.71,1,3.06,2.31,3.06s2.25-1.38,2.25-3v-0.06C166.92,270.05,166,268.67,164.61,268.67Z" transform="translate(0 -2.79)"/><path class="cls-14" d="M154.23,261.05V261c0-1.68-1-3.06-2.31-3.06s-2.25,1.38-2.25,3V261c0,1.71,1,3.06,2.31,3.06S154.23,262.67,154.23,261.05Z" transform="translate(0 -2.79)"/><path class="cls-14" d="M69.17,197.93l-2.42,2a1.65,1.65,0,0,0,.5.09A2.1,2.1,0,0,0,69.17,197.93Z" transform="translate(0 -2.79)"/><path class="cls-14" d="M209.57,180.33a81.19,81.19,0,0,1-134,12.26l-4.21,3.52a5.19,5.19,0,0,1,.16,1.23v0.05A4.4,4.4,0,0,1,67.2,202a4.08,4.08,0,0,1-2.19-.63L31.63,229.28a138.48,138.48,0,0,0,133.26,47.81h-0.28a5,5,0,0,1-4.92-5.31v-0.06a5,5,0,1,1,9.9-.06v0.06a5.25,5.25,0,0,1-3.34,5.09,138.62,138.62,0,0,0,93.54-69Zm-77.75,90.24c0,3.87-3,6.66-7.35,6.66a9.84,9.84,0,0,1-7.11-2.73,1.77,1.77,0,0,1-.6-1.32,1.79,1.79,0,0,1,1.77-1.77,1.77,1.77,0,0,1,1.23.48,6.39,6.39,0,0,0,4.77,2c2.07,0,3.63-1.26,3.63-3.18v-0.06c0-2.07-1.89-3.24-4.83-3.24h-0.75a1.6,1.6,0,0,1-1.59-1.59,2.1,2.1,0,0,1,.78-1.5l4.92-5.25h-7.62a1.61,1.61,0,1,1,0-3.21h10.74a1.65,1.65,0,0,1,1.83,1.62,2.68,2.68,0,0,1-1.05,2l-4.95,5.13c3.18,0.39,6.18,2,6.18,5.88v0.06Zm10.86,4.62a1.82,1.82,0,0,1-1.83,1.83,1.84,1.84,0,0,1-1.83-1.83V259.34l-2.16.66a2.7,2.7,0,0,1-.66.09,1.6,1.6,0,0,1-.39-3.15l3.18-1a6.41,6.41,0,0,1,1.8-.33h0.06a1.8,1.8,0,0,1,1.83,1.83v17.76ZM147,261.05V261a5.06,5.06,0,0,1,5-5.37,5,5,0,0,1,4.92,5.31V261A5,5,0,1,1,147,261.05Zm19.17-3.39L152.4,276.47a1.23,1.23,0,0,1-1,.54,1.15,1.15,0,0,1-1.17-1.17,1.35,1.35,0,0,1,.27-0.78l13.77-18.81a1.14,1.14,0,0,1,1-.54,1.18,1.18,0,0,1,1.2,1.17A1.36,1.36,0,0,1,166.17,257.66Zm19.69,13.11a7.75,7.75,0,1,1,2.62-10.64A7.75,7.75,0,0,1,185.87,270.78Zm46-27.81a7.75,7.75,0,1,1,2.63-10.64A7.76,7.76,0,0,1,231.89,243ZM236,232.39c-0.1.1-.18,0.23-0.33,0.16-0.11-.23-0.24-0.46-0.37-0.69a8.65,8.65,0,1,0-13,11.09,13.14,13.14,0,0,1-2,1.3q-13,7.87-26,15.7c-1.31.79-2.65,1.54-4,2.31a8.65,8.65,0,1,0-15.85,6.36c0.14,0.23.28,0.44,0.44,0.65a24.74,24.74,0,0,1-4.06-3.35,2.42,2.42,0,0,1-.64-1.2c0.24-2.11.38-4.24,0.74-6.33h0l0-.14a12.58,12.58,0,0,1,3.08-5.57,51.28,51.28,0,0,1,4.09-3.49c0.59-.46,1.15-0.95,1.69-1.46a3,3,0,0,0,.84-1.39,37.76,37.76,0,0,1,4.55-9.76,40.21,40.21,0,0,1,7.33-7.63c0.47-.35,3.6-2.4,4-2.63a30.87,30.87,0,0,1,17.65-4.09c3.52,0.16,7,.73,10.46,1.22a6.15,6.15,0,0,0,1.43,0,11.6,11.6,0,0,1,10.53,4.41,0.35,0.35,0,0,0,.3.26l0.72,1.19a2.46,2.46,0,0,1-.9,2.29C236.48,231.87,236.24,232.14,236,232.39Z" transform="translate(0 -2.79)"/></g><g id="CyclistsG"><path class="cls-15" d="M73.59,35.55v0a1.94,1.94,0,0,0-1.65-2.19c-1,0-1.61,1-1.61,2.14v0c0,1.22.69,2.19,1.65,2.19S73.59,36.71,73.59,35.55Z" transform="translate(0 -2.79)"/><path class="cls-15" d="M81,41c-1,0-1.61,1-1.61,2.14v0c0,1.22.69,2.19,1.65,2.19s1.61-1,1.61-2.14v0A1.94,1.94,0,0,0,81,41Z" transform="translate(0 -2.79)"/><path class="cls-15" d="M79.48,15.94a138.83,138.83,0,0,0-35.8,24.37L82.86,82a81.81,81.81,0,0,1,21-14.3ZM66.13,42c0,3-2.27,5.08-5.49,5.08a7.6,7.6,0,0,1-4.8-1.63,1.3,1.3,0,0,1-.54-1,1.28,1.28,0,0,1,1.26-1.27,1.16,1.16,0,0,1,.77.26A5,5,0,0,0,60.6,44.7a2.63,2.63,0,0,0,2.92-2.59v0c0-1.54-1.29-2.49-3.11-2.49a10.21,10.21,0,0,0-2.57.51,2.07,2.07,0,0,1-1.24-.51,1.25,1.25,0,0,1-.51-1.16L56.39,33a1.21,1.21,0,0,1,1.2-1.18h6.8A1.19,1.19,0,0,1,65.57,33a1.17,1.17,0,0,1-1.18,1.16H58.75l-0.24,3.52a6.38,6.38,0,0,1,2.38-.43c2.94,0,5.23,1.54,5.23,4.72v0Zm2.3-6.47v0A3.62,3.62,0,0,1,72,31.67a3.57,3.57,0,0,1,3.52,3.79v0A3.55,3.55,0,1,1,68.43,35.55ZM71.53,47a0.82,0.82,0,0,1-.84-0.84,1,1,0,0,1,.19-0.56l9.84-13.44a0.82,0.82,0,0,1,.73-0.39,0.84,0.84,0,0,1,.86.84,1,1,0,0,1-.19.56L72.28,46.57A0.88,0.88,0,0,1,71.53,47ZM81,47a3.58,3.58,0,0,1-3.52-3.79v0a3.55,3.55,0,1,1,7.07,0v0A3.63,3.63,0,0,1,81,47Z" transform="translate(0 -2.79)"/><circle class="cls-5" cx="80.52" cy="75.57" r="5.14" transform="translate(-28.99 58.57) rotate(-35.79)"/><circle class="cls-5" cx="88" cy="70.18" r="1.25" transform="translate(-24.42 61.93) rotate(-35.79)"/><circle class="cls-5" cx="96.76" cy="63.87" r="5.14" transform="translate(-19.08 65.86) rotate(-35.79)"/><polygon class="cls-6" points="78.49 61.94 80.25 72.09 87.96 67.34 90.19 58.51 87.18 55.81 78.49 61.94"/><polyline class="cls-6" points="87.96 67.34 78.49 61.94 75.93 60.34"/><line class="cls-7" x1="96.76" y1="61.08" x2="90.19" y2="58.51"/><line class="cls-8" x1="74.92" y1="60.89" x2="79.96" y2="57.16"/><path class="cls-9" d="M86.25,58.78c0.6-.82,2.06-5.5-2.94-2" transform="translate(0 -2.79)"/></g><g id="CarPassG"><path class="cls-16" d="M239.89,178.43c-0.94,0-1.5.92-1.5,2v0a1.8,1.8,0,0,0,1.54,2c0.94,0,1.5-.92,1.5-2v0A1.81,1.81,0,0,0,239.89,178.43Z" transform="translate(0 -2.79)"/><path class="cls-16" d="M233,173.35v0a1.81,1.81,0,0,0-1.54-2c-0.94,0-1.5.92-1.5,2v0a1.8,1.8,0,0,0,1.54,2C232.41,175.35,233,174.43,233,173.35Z" transform="translate(0 -2.79)"/><path class="cls-16" d="M248.89,160.75a3,3,0,0,0-.93.86,1.53,1.53,0,0,0,1,.12l10.28-.12,0.17-4A13,13,0,0,0,248.89,160.75Z" transform="translate(0 -2.79)"/><path class="cls-16" d="M220.69,177a2.58,2.58,0,0,0-2.84,2.46v0a2.62,2.62,0,0,0,2.9,2.5,2.53,2.53,0,0,0,2.8-2.52v0C223.55,178,222.43,177,220.69,177Z" transform="translate(0 -2.79)"/><path class="cls-16" d="M219,151.38a80.64,80.64,0,0,1-9.38,28.94l50.17,27.58a137.49,137.49,0,0,0,16-49.34Zm7.05,28c0,2.78-2.26,4.76-5.2,4.76a5.22,5.22,0,0,1-3.9-1.48c-1.06-1.06-1.7-2.52-1.7-5.34v0c0-4.28,2-7.62,6-7.62a6.09,6.09,0,0,1,3.5,1,1.18,1.18,0,0,1,.62,1.06,1.16,1.16,0,0,1-1.18,1.14,1.32,1.32,0,0,1-.62-0.18,4.09,4.09,0,0,0-2.4-.78c-2.08,0-3.24,1.88-3.36,4.44a4.47,4.47,0,0,1,3.36-1.4c2.7,0,4.88,1.6,4.88,4.4v0Zm2.14-6v0a3.38,3.38,0,0,1,3.32-3.58,3.33,3.33,0,0,1,3.28,3.54v0A3.31,3.31,0,1,1,228.15,173.35Zm15.06,7.12a3.39,3.39,0,0,1-3.32,3.58,3.35,3.35,0,0,1-3.28-3.54v0a3.31,3.31,0,1,1,6.6,0v0Zm0.27-8.7a3.54,3.54,0,0,1-2.41-1,1,1,0,0,1-.13.28l-9.18,12.54a0.82,0.82,0,0,1-.7.36,0.77,0.77,0,0,1-.78-0.78,0.9,0.9,0,0,1,.18-0.52l9.18-12.54a0.76,0.76,0,0,1,.67-0.36,3.51,3.51,0,0,1-.39-1.58A3.56,3.56,0,1,1,243.48,171.77Zm24.71,0a3.56,3.56,0,1,1,3.56-3.56A3.56,3.56,0,0,1,268.19,171.77Zm4.6-3.32-0.47.13c-0.06,0-.13,0-0.17,0s0-.24,0-0.36a4,4,0,1,0-7.74,1.28,6,6,0,0,1-1.1,0h-14c-0.7,0-1.41,0-2.11,0a4,4,0,1,0-7.74-1.27c0,0.12,0,.24,0,0.36a11.37,11.37,0,0,1-.8-2.28,1.11,1.11,0,0,1,0-.62c0.6-.77,1.16-1.58,1.8-2.31h0l0.05,0a5.78,5.78,0,0,1,2.53-1.46,23.54,23.54,0,0,1,2.44-.4c0.34,0,.68-0.1,1-0.17a1.38,1.38,0,0,0,.66-0.35,17.35,17.35,0,0,1,4.11-2.76,18.48,18.48,0,0,1,4.69-1.26c0.27,0,2-.09,2.2-0.09a14.19,14.19,0,0,1,7.91,2.58c1.35,0.9,2.57,1.94,3.82,3a2.83,2.83,0,0,0,.55.35,5.33,5.33,0,0,1,3.09,4.23,0.16,0.16,0,0,0,.05.17v0.64A1.13,1.13,0,0,1,272.78,168.46Z" transform="translate(0 -2.79)"/><path class="cls-16" d="M260.63,157.82l0,0.8a1.54,1.54,0,0,1,.93-0.31,1.52,1.52,0,0,1,1.53,1.45v0.06a1.52,1.52,0,0,1-1.53,1.51,1.54,1.54,0,0,1-.82-0.24l0,0.47h6l0-.08A12.29,12.29,0,0,0,260.63,157.82Z" transform="translate(0 -2.79)"/><path class="cls-11" d="M254.63,158.29a1.52,1.52,0,1,0,1.55,1.52v-0.06A1.54,1.54,0,0,0,254.63,158.29Z" transform="translate(0 -2.79)"/><path class="cls-16" d="M260.66,158.62a1.48,1.48,0,0,0,.1,2.46Z" transform="translate(0 -2.79)"/></g></svg>