<svg id="Cyclists" xmlns="http://www.w3.org/2000/svg" xmlns:xlink="http://www.w3.org/1999/xlink" viewBox="0 0 274.5 283.4"><defs><style>.cls-1{fill:none;}.cls-2{fill:#231f20;}.cls-3{fill:#dcd4c7;}.cls-4{fill:#5c5f61;}.cls-5{fill:#454749;}.cls-6{fill:#484749;}.cls-6,.cls-9{stroke:#919192;stroke-width:0.32px;}.cls-12,.cls-6,.cls-9{stroke-miterlimit:10;}.cls-7{fill:#515e69;}.cls-8{fill:url(#_10_lpi_10_);}.cls-13,.cls-9{fill:#3b2c3f;}.cls-10,.cls-12{fill:#ccd9e8;}.cls-11{fill:#d6e1ed;}.cls-12{stroke:#3b2c3f;stroke-width:0.47px;}.cls-14{fill:#99a3ae;}.cls-15{fill:#a6b1bd;}.cls-16{fill:#a59f95;}.cls-17{fill:url(#_10_lpi_10_3);}.cls-18{fill:url(#_10_lpi_10_5);}.cls-19{fill:url(#_10_lpi_10_7);}</style><pattern id="_10_lpi_10_" data-name="10 lpi 10%" width="72" height="72" patternTransform="translate(52.03 -57.41) rotate(-45) scale(0.63)" patternUnits="userSpaceOnUse" viewBox="0 0 72 72"><rect class="cls-1" width="72" height="72"/><path class="cls-2" d="M71.75,68.4l11.33-.08L108,68.25l24.92,0.07,11.33,0.08-11.33.08L108,68.55l-24.92-.07Z"/><path class="cls-2" d="M71.75,54l11.33-.08L108,53.85l24.92,0.07L144.25,54l-11.33.08L108,54.15l-24.92-.07Z"/><path class="cls-2" d="M71.75,39.6l11.33-.08L108,39.45l24.92,0.07,11.33,0.08-11.33.08L108,39.75l-24.92-.07Z"/><path class="cls-2" d="M71.75,25.2l11.33-.08L108,25.05l24.92,0.07,11.33,0.08-11.33.08L108,25.35l-24.92-.07Z"/><path class="cls-2" d="M71.75,10.8l11.33-.08L108,10.65l24.92,0.07,11.33,0.08-11.33.08L108,10.95l-24.92-.07Z"/><path class="cls-2" d="M71.75,61.2l11.33-.08L108,61.05l24.92,0.07,11.33,0.08-11.33.08L108,61.35l-24.92-.07Z"/><path class="cls-2" d="M71.75,46.8l11.33-.08L108,46.65l24.92,0.07,11.33,0.08-11.33.08L108,46.95l-24.92-.07Z"/><path class="cls-2" d="M71.75,32.4l11.33-.08L108,32.25l24.92,0.07,11.33,0.08-11.33.08L108,32.55l-24.92-.07Z"/><path class="cls-2" d="M71.75,18l11.33-.08L108,17.85l24.92,0.07L144.25,18l-11.33.08L108,18.15l-24.92-.07Z"/><path class="cls-2" d="M71.75,3.6l11.33-.08L108,3.45l24.92,0.07L144.25,3.6l-11.33.08L108,3.75,83.08,3.68Z"/><path class="cls-2" d="M-0.25,68.4l11.33-.08L36,68.25l24.92,0.07L72.25,68.4l-11.33.08L36,68.55l-24.92-.07Z"/><path class="cls-2" d="M-0.25,54l11.33-.08L36,53.85l24.92,0.07L72.25,54l-11.33.08L36,54.15l-24.92-.07Z"/><path class="cls-2" d="M-0.25,39.6l11.33-.08L36,39.45l24.92,0.07L72.25,39.6l-11.33.08L36,39.75l-24.92-.07Z"/><path class="cls-2" d="M-0.25,25.2l11.33-.08L36,25.05l24.92,0.07L72.25,25.2l-11.33.08L36,25.35l-24.92-.07Z"/><path class="cls-2" d="M-0.25,10.8l11.33-.08L36,10.65l24.92,0.07L72.25,10.8l-11.33.08L36,10.95l-24.92-.07Z"/><path class="cls-2" d="M-0.25,61.2l11.33-.08L36,61.05l24.92,0.07L72.25,61.2l-11.33.08L36,61.35l-24.92-.07Z"/><path class="cls-2" d="M-0.25,46.8l11.33-.08L36,46.65l24.92,0.07L72.25,46.8l-11.33.08L36,46.95l-24.92-.07Z"/><path class="cls-2" d="M-0.25,32.4l11.33-.08L36,32.25l24.92,0.07L72.25,32.4l-11.33.08L36,32.55l-24.92-.07Z"/><path class="cls-2" d="M-0.25,18l11.33-.08L36,17.85l24.92,0.07L72.25,18l-11.33.08L36,18.15l-24.92-.07Z"/><path class="cls-2" d="M-0.25,3.6l11.33-.08L36,3.45,60.92,3.52,72.25,3.6l-11.33.08L36,3.75,11.08,3.68Z"/><path class="cls-2" d="M-72.25,68.4l11.33-.08L-36,68.25l24.92,0.07L0.25,68.4l-11.33.08L-36,68.55l-24.92-.07Z"/><path class="cls-2" d="M-72.25,54l11.33-.08L-36,53.85l24.92,0.07L0.25,54l-11.33.08L-36,54.15l-24.92-.07Z"/><path class="cls-2" d="M-72.25,39.6l11.33-.08L-36,39.45l24.92,0.07L0.25,39.6l-11.33.08L-36,39.75l-24.92-.07Z"/><path class="cls-2" d="M-72.25,25.2l11.33-.08L-36,25.05l24.92,0.07L0.25,25.2l-11.33.08L-36,25.35l-24.92-.07Z"/><path class="cls-2" d="M-72.25,10.8l11.33-.08L-36,10.65l24.92,0.07L0.25,10.8l-11.33.08L-36,10.95l-24.92-.07Z"/><path class="cls-2" d="M-72.25,61.2l11.33-.08L-36,61.05l24.92,0.07L0.25,61.2l-11.33.08L-36,61.35l-24.92-.07Z"/><path class="cls-2" d="M-72.25,46.8l11.33-.08L-36,46.65l24.92,0.07L0.25,46.8l-11.33.08L-36,46.95l-24.92-.07Z"/><path class="cls-2" d="M-72.25,32.4l11.33-.08L-36,32.25l24.92,0.07L0.25,32.4l-11.33.08L-36,32.55l-24.92-.07Z"/><path class="cls-2" d="M-72.25,18l11.33-.08L-36,17.85l24.92,0.07L0.25,18l-11.33.08L-36,18.15l-24.92-.07Z"/><path class="cls-2" d="M-72.25,3.6l11.33-.08L-36,3.45l24.92,0.07L0.25,3.6l-11.33.08L-36,3.75l-24.92-.07Z"/></pattern><pattern id="_10_lpi_10_3" data-name="10 lpi 10%" width="72" height="72" patternTransform="translate(61.88 -135.95) rotate(-135) scale(0.69)" patternUnits="userSpaceOnUse" viewBox="0 0 72 72"><rect class="cls-1" width="72" height="72"/><path class="cls-2" d="M71.75,68.4l11.33-.08L108,68.25l24.92,0.07,11.33,0.08-11.33.08L108,68.55l-24.92-.07Z"/><path class="cls-2" d="M71.75,54l11.33-.08L108,53.85l24.92,0.07L144.25,54l-11.33.08L108,54.15l-24.92-.07Z"/><path class="cls-2" d="M71.75,39.6l11.33-.08L108,39.45l24.92,0.07,11.33,0.08-11.33.08L108,39.75l-24.92-.07Z"/><path class="cls-2" d="M71.75,25.2l11.33-.08L108,25.05l24.92,0.07,11.33,0.08-11.33.08L108,25.35l-24.92-.07Z"/><path class="cls-2" d="M71.75,10.8l11.33-.08L108,10.65l24.92,0.07,11.33,0.08-11.33.08L108,10.95l-24.92-.07Z"/><path class="cls-2" d="M71.75,61.2l11.33-.08L108,61.05l24.92,0.07,11.33,0.08-11.33.08L108,61.35l-24.92-.07Z"/><path class="cls-2" d="M71.75,46.8l11.33-.08L108,46.65l24.92,0.07,11.33,0.08-11.33.08L108,46.95l-24.92-.07Z"/><path class="cls-2" d="M71.75,32.4l11.33-.08L108,32.25l24.92,0.07,11.33,0.08-11.33.08L108,32.55l-24.92-.07Z"/><path class="cls-2" d="M71.75,18l11.33-.08L108,17.85l24.92,0.07L144.25,18l-11.33.08L108,18.15l-24.92-.07Z"/><path class="cls-2" d="M71.75,3.6l11.33-.08L108,3.45l24.92,0.07L144.25,3.6l-11.33.08L108,3.75,83.08,3.68Z"/><path class="cls-2" d="M-0.25,68.4l11.33-.08L36,68.25l24.92,0.07L72.25,68.4l-11.33.08L36,68.55l-24.92-.07Z"/><path class="cls-2" d="M-0.25,54l11.33-.08L36,53.85l24.92,0.07L72.25,54l-11.33.08L36,54.15l-24.92-.07Z"/><path class="cls-2" d="M-0.25,39.6l11.33-.08L36,39.45l24.92,0.07L72.25,39.6l-11.33.08L36,39.75l-24.92-.07Z"/><path class="cls-2" d="M-0.25,25.2l11.33-.08L36,25.05l24.92,0.07L72.25,25.2l-11.33.08L36,25.35l-24.92-.07Z"/><path class="cls-2" d="M-0.25,10.8l11.33-.08L36,10.65l24.92,0.07L72.25,10.8l-11.33.08L36,10.95l-24.92-.07Z"/><path class="cls-2" d="M-0.25,61.2l11.33-.08L36,61.05l24.92,0.07L72.25,61.2l-11.33.08L36,61.35l-24.92-.07Z"/><path class="cls-2" d="M-0.25,46.8l11.33-.08L36,46.65l24.92,0.07L72.25,46.8l-11.33.08L36,46.95l-24.92-.07Z"/><path class="cls-2" d="M-0.25,32.4l11.33-.08L36,32.25l24.92,0.07L72.25,32.4l-11.33.08L36,32.55l-24.92-.07Z"/><path class="cls-2" d="M-0.25,18l11.33-.08L36,17.85l24.92,0.07L72.25,18l-11.33.08L36,18.15l-24.92-.07Z"/><path class="cls-2" d="M-0.25,3.6l11.33-.08L36,3.45,60.92,3.52,72.25,3.6l-11.33.08L36,3.75,11.08,3.68Z"/><path class="cls-2" d="M-72.25,68.4l11.33-.08L-36,68.25l24.92,0.07L0.25,68.4l-11.33.08L-36,68.55l-24.92-.07Z"/><path class="cls-2" d="M-72.25,54l11.33-.08L-36,53.85l24.92,0.07L0.25,54l-11.33.08L-36,54.15l-24.92-.07Z"/><path class="cls-2" d="M-72.25,39.6l11.33-.08L-36,39.45l24.92,0.07L0.25,39.6l-11.33.08L-36,39.75l-24.92-.07Z"/><path class="cls-2" d="M-72.25,25.2l11.33-.08L-36,25.05l24.92,0.07L0.25,25.2l-11.33.08L-36,25.35l-24.92-.07Z"/><path class="cls-2" d="M-72.25,10.8l11.33-.08L-36,10.65l24.92,0.07L0.25,10.8l-11.33.08L-36,10.95l-24.92-.07Z"/><path class="cls-2" d="M-72.25,61.2l11.33-.08L-36,61.05l24.92,0.07L0.25,61.2l-11.33.08L-36,61.35l-24.92-.07Z"/><path class="cls-2" d="M-72.25,46.8l11.33-.08L-36,46.65l24.92,0.07L0.25,46.8l-11.33.08L-36,46.95l-24.92-.07Z"/><path class="cls-2" d="M-72.25,32.4l11.33-.08L-36,32.25l24.92,0.07L0.25,32.4l-11.33.08L-36,32.55l-24.92-.07Z"/><path class="cls-2" d="M-72.25,18l11.33-.08L-36,17.85l24.92,0.07L0.25,18l-11.33.08L-36,18.15l-24.92-.07Z"/><path class="cls-2" d="M-72.25,3.6l11.33-.08L-36,3.45l24.92,0.07L0.25,3.6l-11.33.08L-36,3.75l-24.92-.07Z"/></pattern><pattern id="_10_lpi_10_5" data-name="10 lpi 10%" width="72" height="72" patternTransform="matrix(-0.45, -0.45, -0.45, 0.45, 44.54, -89.56)" patternUnits="userSpaceOnUse" viewBox="0 0 72 72"><rect class="cls-1" width="72" height="72"/><path class="cls-2" d="M71.75,68.4l11.33-.08L108,68.25l24.92,0.07,11.33,0.08-11.33.08L108,68.55l-24.92-.07Z"/><path class="cls-2" d="M71.75,54l11.33-.08L108,53.85l24.92,0.07L144.25,54l-11.33.08L108,54.15l-24.92-.07Z"/><path class="cls-2" d="M71.75,39.6l11.33-.08L108,39.45l24.92,0.07,11.33,0.08-11.33.08L108,39.75l-24.92-.07Z"/><path class="cls-2" d="M71.75,25.2l11.33-.08L108,25.05l24.92,0.07,11.33,0.08-11.33.08L108,25.35l-24.92-.07Z"/><path class="cls-2" d="M71.75,10.8l11.33-.08L108,10.65l24.92,0.07,11.33,0.08-11.33.08L108,10.95l-24.92-.07Z"/><path class="cls-2" d="M71.75,61.2l11.33-.08L108,61.05l24.92,0.07,11.33,0.08-11.33.08L108,61.35l-24.92-.07Z"/><path class="cls-2" d="M71.75,46.8l11.33-.08L108,46.65l24.92,0.07,11.33,0.08-11.33.08L108,46.95l-24.92-.07Z"/><path class="cls-2" d="M71.75,32.4l11.33-.08L108,32.25l24.92,0.07,11.33,0.08-11.33.08L108,32.55l-24.92-.07Z"/><path class="cls-2" d="M71.75,18l11.33-.08L108,17.85l24.92,0.07L144.25,18l-11.33.08L108,18.15l-24.92-.07Z"/><path class="cls-2" d="M71.75,3.6l11.33-.08L108,3.45l24.92,0.07L144.25,3.6l-11.33.08L108,3.75,83.08,3.68Z"/><path class="cls-2" d="M-0.25,68.4l11.33-.08L36,68.25l24.92,0.07L72.25,68.4l-11.33.08L36,68.55l-24.92-.07Z"/><path class="cls-2" d="M-0.25,54l11.33-.08L36,53.85l24.92,0.07L72.25,54l-11.33.08L36,54.15l-24.92-.07Z"/><path class="cls-2" d="M-0.25,39.6l11.33-.08L36,39.45l24.92,0.07L72.25,39.6l-11.33.08L36,39.75l-24.92-.07Z"/><path class="cls-2" d="M-0.25,25.2l11.33-.08L36,25.05l24.92,0.07L72.25,25.2l-11.33.08L36,25.35l-24.92-.07Z"/><path class="cls-2" d="M-0.25,10.8l11.33-.08L36,10.65l24.92,0.07L72.25,10.8l-11.33.08L36,10.95l-24.92-.07Z"/><path class="cls-2" d="M-0.25,61.2l11.33-.08L36,61.05l24.92,0.07L72.25,61.2l-11.33.08L36,61.35l-24.92-.07Z"/><path class="cls-2" d="M-0.25,46.8l11.33-.08L36,46.65l24.92,0.07L72.25,46.8l-11.33.08L36,46.95l-24.92-.07Z"/><path class="cls-2" d="M-0.25,32.4l11.33-.08L36,32.25l24.92,0.07L72.25,32.4l-11.33.08L36,32.55l-24.92-.07Z"/><path class="cls-2" d="M-0.25,18l11.33-.08L36,17.85l24.92,0.07L72.25,18l-11.33.08L36,18.15l-24.92-.07Z"/><path class="cls-2" d="M-0.25,3.6l11.33-.08L36,3.45,60.92,3.52,72.25,3.6l-11.33.08L36,3.75,11.08,3.68Z"/><path class="cls-2" d="M-72.25,68.4l11.33-.08L-36,68.25l24.92,0.07L0.25,68.4l-11.33.08L-36,68.55l-24.92-.07Z"/><path class="cls-2" d="M-72.25,54l11.33-.08L-36,53.85l24.92,0.07L0.25,54l-11.33.08L-36,54.15l-24.92-.07Z"/><path class="cls-2" d="M-72.25,39.6l11.33-.08L-36,39.45l24.92,0.07L0.25,39.6l-11.33.08L-36,39.75l-24.92-.07Z"/><path class="cls-2" d="M-72.25,25.2l11.33-.08L-36,25.05l24.92,0.07L0.25,25.2l-11.33.08L-36,25.35l-24.92-.07Z"/><path class="cls-2" d="M-72.25,10.8l11.33-.08L-36,10.65l24.92,0.07L0.25,10.8l-11.33.08L-36,10.95l-24.92-.07Z"/><path class="cls-2" d="M-72.25,61.2l11.33-.08L-36,61.05l24.92,0.07L0.25,61.2l-11.33.08L-36,61.35l-24.92-.07Z"/><path class="cls-2" d="M-72.25,46.8l11.33-.08L-36,46.65l24.92,0.07L0.25,46.8l-11.33.08L-36,46.95l-24.92-.07Z"/><path class="cls-2" d="M-72.25,32.4l11.33-.08L-36,32.25l24.92,0.07L0.25,32.4l-11.33.08L-36,32.55l-24.92-.07Z"/><path class="cls-2" d="M-72.25,18l11.33-.08L-36,17.85l24.92,0.07L0.25,18l-11.33.08L-36,18.15l-24.92-.07Z"/><path class="cls-2" d="M-72.25,3.6l11.33-.08L-36,3.45l24.92,0.07L0.25,3.6l-11.33.08L-36,3.75l-24.92-.07Z"/></pattern><pattern id="_10_lpi_10_7" data-name="10 lpi 10%" width="72" height="72" patternTransform="matrix(0.49, -0.49, -0.49, -0.49, -61.74, -206.67)" patternUnits="userSpaceOnUse" viewBox="0 0 72 72"><rect class="cls-1" width="72" height="72"/><path class="cls-2" d="M71.75,68.4l11.33-.08L108,68.25l24.92,0.07,11.33,0.08-11.33.08L108,68.55l-24.92-.07Z"/><path class="cls-2" d="M71.75,54l11.33-.08L108,53.85l24.92,0.07L144.25,54l-11.33.08L108,54.15l-24.92-.07Z"/><path class="cls-2" d="M71.75,39.6l11.33-.08L108,39.45l24.92,0.07,11.33,0.08-11.33.08L108,39.75l-24.92-.07Z"/><path class="cls-2" d="M71.75,25.2l11.33-.08L108,25.05l24.92,0.07,11.33,0.08-11.33.08L108,25.35l-24.92-.07Z"/><path class="cls-2" d="M71.75,10.8l11.33-.08L108,10.65l24.92,0.07,11.33,0.08-11.33.08L108,10.95l-24.92-.07Z"/><path class="cls-2" d="M71.75,61.2l11.33-.08L108,61.05l24.92,0.07,11.33,0.08-11.33.08L108,61.35l-24.92-.07Z"/><path class="cls-2" d="M71.75,46.8l11.33-.08L108,46.65l24.92,0.07,11.33,0.08-11.33.08L108,46.95l-24.92-.07Z"/><path class="cls-2" d="M71.75,32.4l11.33-.08L108,32.25l24.92,0.07,11.33,0.08-11.33.08L108,32.55l-24.92-.07Z"/><path class="cls-2" d="M71.75,18l11.33-.08L108,17.85l24.92,0.07L144.25,18l-11.33.08L108,18.15l-24.92-.07Z"/><path class="cls-2" d="M71.75,3.6l11.33-.08L108,3.45l24.92,0.07L144.25,3.6l-11.33.08L108,3.75,83.08,3.68Z"/><path class="cls-2" d="M-0.25,68.4l11.33-.08L36,68.25l24.92,0.07L72.25,68.4l-11.33.08L36,68.55l-24.92-.07Z"/><path class="cls-2" d="M-0.25,54l11.33-.08L36,53.85l24.92,0.07L72.25,54l-11.33.08L36,54.15l-24.92-.07Z"/><path class="cls-2" d="M-0.25,39.6l11.33-.08L36,39.45l24.92,0.07L72.25,39.6l-11.33.08L36,39.75l-24.92-.07Z"/><path class="cls-2" d="M-0.25,25.2l11.33-.08L36,25.05l24.92,0.07L72.25,25.2l-11.33.08L36,25.35l-24.92-.07Z"/><path class="cls-2" d="M-0.25,10.8l11.33-.08L36,10.65l24.92,0.07L72.25,10.8l-11.33.08L36,10.95l-24.92-.07Z"/><path class="cls-2" d="M-0.25,61.2l11.33-.08L36,61.05l24.92,0.07L72.25,61.2l-11.33.08L36,61.35l-24.92-.07Z"/><path class="cls-2" d="M-0.25,46.8l11.33-.08L36,46.65l24.92,0.07L72.25,46.8l-11.33.08L36,46.95l-24.92-.07Z"/><path class="cls-2" d="M-0.25,32.4l11.33-.08L36,32.25l24.92,0.07L72.25,32.4l-11.33.08L36,32.55l-24.92-.07Z"/><path class="cls-2" d="M-0.25,18l11.33-.08L36,17.85l24.92,0.07L72.25,18l-11.33.08L36,18.15l-24.92-.07Z"/><path class="cls-2" d="M-0.25,3.6l11.33-.08L36,3.45,60.92,3.52,72.25,3.6l-11.33.08L36,3.75,11.08,3.68Z"/><path class="cls-2" d="M-72.25,68.4l11.33-.08L-36,68.25l24.92,0.07L0.25,68.4l-11.33.08L-36,68.55l-24.92-.07Z"/><path class="cls-2" d="M-72.25,54l11.33-.08L-36,53.85l24.92,0.07L0.25,54l-11.33.08L-36,54.15l-24.92-.07Z"/><path class="cls-2" d="M-72.25,39.6l11.33-.08L-36,39.45l24.92,0.07L0.25,39.6l-11.33.08L-36,39.75l-24.92-.07Z"/><path class="cls-2" d="M-72.25,25.2l11.33-.08L-36,25.05l24.92,0.07L0.25,25.2l-11.33.08L-36,25.35l-24.92-.07Z"/><path class="cls-2" d="M-72.25,10.8l11.33-.08L-36,10.65l24.92,0.07L0.25,10.8l-11.33.08L-36,10.95l-24.92-.07Z"/><path class="cls-2" d="M-72.25,61.2l11.33-.08L-36,61.05l24.92,0.07L0.25,61.2l-11.33.08L-36,61.35l-24.92-.07Z"/><path class="cls-2" d="M-72.25,46.8l11.33-.08L-36,46.65l24.92,0.07L0.25,46.8l-11.33.08L-36,46.95l-24.92-.07Z"/><path class="cls-2" d="M-72.25,32.4l11.33-.08L-36,32.25l24.92,0.07L0.25,32.4l-11.33.08L-36,32.55l-24.92-.07Z"/><path class="cls-2" d="M-72.25,18l11.33-.08L-36,17.85l24.92,0.07L0.25,18l-11.33.08L-36,18.15l-24.92-.07Z"/><path class="cls-2" d="M-72.25,3.6l11.33-.08L-36,3.45l24.92,0.07L0.25,3.6l-11.33.08L-36,3.75l-24.92-.07Z"/></pattern></defs><title>Green street</title><rect class="cls-3" x="10.57" y="59.79" width="120.63" height="171.1"/><rect class="cls-4" x="10.57" y="235.04" width="120.63" height="48.36"/><polygon class="cls-5" points="131.21 235.04 10.57 235.04 131.21 238.2 131.21 235.04"/><line class="cls-6" x1="10.57" y1="241.25" x2="131.21" y2="241.25"/><line class="cls-6" x1="10.57" y1="248.28" x2="131.21" y2="248.28"/><line class="cls-6" x1="10.57" y1="255.3" x2="131.21" y2="255.3"/><line class="cls-6" x1="10.57" y1="262.33" x2="131.21" y2="262.33"/><line class="cls-6" x1="10.57" y1="269.35" x2="131.21" y2="269.35"/><line class="cls-6" x1="10.57" y1="283.4" x2="131.21" y2="283.4"/><rect class="cls-3" x="9.06" y="57.39" width="122.15" height="2.4"/><rect class="cls-3" x="6.73" y="53.03" width="124.47" height="4.31"/><path class="cls-7" d="M6.73,53c6.95-5.31,40.37-38.41,44.5-47.08h80V53H6.73Z"/><path class="cls-8" d="M6.73,53c6.95-5.31,40.37-38.41,44.5-47.08h80V53H6.73Z"/><rect class="cls-9" x="53.78" y="80.28" width="31.57" height="44.99"/><rect class="cls-10" x="55.35" y="81.86" width="28.42" height="41.83"/><polygon class="cls-11" points="55.35 120.52 83.77 103.52 83.77 85.04 55.35 102.04 55.35 120.52"/><line class="cls-12" x1="69.56" y1="81.86" x2="69.56" y2="123.7"/><line class="cls-12" x1="83.77" y1="95.81" x2="55.35" y2="95.81"/><line class="cls-12" x1="83.77" y1="109.75" x2="55.35" y2="109.75"/><rect class="cls-9" x="53.78" y="150.69" width="31.57" height="44.99"/><rect class="cls-10" x="55.35" y="152.27" width="28.42" height="41.83"/><polygon class="cls-11" points="55.35 190.93 83.77 173.93 83.77 155.44 55.35 172.45 55.35 190.93"/><line class="cls-12" x1="69.56" y1="152.27" x2="69.56" y2="194.1"/><line class="cls-12" x1="83.77" y1="166.21" x2="55.35" y2="166.21"/><line class="cls-12" x1="83.77" y1="180.16" x2="55.35" y2="180.16"/><rect class="cls-13" x="27.99" y="241.7" width="20.05" height="13.15"/><rect class="cls-14" x="28.94" y="242.65" width="18.15" height="11.26"/><polygon class="cls-15" points="30.16 253.91 39.51 253.91 45.55 242.65 36.2 242.65 30.16 253.91"/><rect class="cls-13" x="61.43" y="241.7" width="20.05" height="13.15"/><rect class="cls-14" x="62.38" y="242.65" width="18.15" height="11.26"/><polygon class="cls-15" points="63.6 253.91 72.95 253.91 78.99 242.65 69.64 242.65 63.6 253.91"/><rect class="cls-13" x="94.66" y="241.7" width="20.05" height="13.15"/><rect class="cls-14" x="95.61" y="242.65" width="18.15" height="11.26"/><polygon class="cls-15" points="96.83 253.91 106.18 253.91 112.22 242.65 102.87 242.65 96.83 253.91"/><polygon class="cls-16" points="10.57 59.79 131.21 62.13 131.21 59.79 10.57 59.79"/><polygon class="cls-16" points="8.83 57.39 131.21 58.45 131.21 57.39 8.83 57.39"/><path class="cls-17" d="M6.73,53c6.95-5.31,40.37-38.41,44.5-47.08h80V53H6.73Z"/><polygon class="cls-16" points="6.73 53.03 131.21 56.6 131.21 53.03 6.73 53.03"/><rect class="cls-4" x="9.62" y="230.89" width="121.59" height="4.16"/><rect class="cls-3" x="143.61" y="59.79" width="120.63" height="171.1"/><rect class="cls-4" x="143.61" y="235.04" width="120.63" height="48.36"/><polygon class="cls-5" points="143.61 235.04 264.24 235.04 143.61 238.2 143.61 235.04"/><line class="cls-6" x1="264.24" y1="241.25" x2="143.61" y2="241.25"/><line class="cls-6" x1="264.24" y1="248.28" x2="143.61" y2="248.28"/><line class="cls-6" x1="264.24" y1="255.3" x2="143.61" y2="255.3"/><line class="cls-6" x1="264.24" y1="262.33" x2="143.61" y2="262.33"/><line class="cls-6" x1="264.24" y1="269.35" x2="143.61" y2="269.35"/><line class="cls-6" x1="264.24" y1="283.4" x2="143.61" y2="283.4"/><rect class="cls-3" x="143.61" y="57.39" width="122.15" height="2.4"/><rect class="cls-3" x="143.61" y="53.03" width="124.47" height="4.31"/><path class="cls-7" d="M268.08,53c-6.95-5.31-40.37-38.41-44.5-47.08h-80V53H268.08Z"/><path class="cls-18" d="M268.08,53c-6.95-5.31-40.37-38.41-44.5-47.08h-80V53H268.08Z"/><rect class="cls-9" x="189.47" y="80.28" width="31.57" height="44.99"/><rect class="cls-10" x="191.05" y="81.86" width="28.41" height="41.83"/><polygon class="cls-11" points="219.46 120.52 191.05 103.52 191.05 85.04 219.46 102.04 219.46 120.52"/><line class="cls-12" x1="205.25" y1="81.86" x2="205.25" y2="123.7"/><line class="cls-12" x1="191.05" y1="95.81" x2="219.46" y2="95.81"/><line class="cls-12" x1="191.05" y1="109.75" x2="219.46" y2="109.75"/><rect class="cls-9" x="189.47" y="150.69" width="31.57" height="44.99"/><rect class="cls-10" x="191.05" y="152.27" width="28.41" height="41.83"/><polygon class="cls-11" points="219.46 190.93 191.05 173.93 191.05 155.44 219.46 172.45 219.46 190.93"/><line class="cls-12" x1="205.25" y1="152.27" x2="205.25" y2="194.1"/><line class="cls-12" x1="191.05" y1="166.21" x2="219.46" y2="166.21"/><line class="cls-12" x1="191.05" y1="180.16" x2="219.46" y2="180.16"/><rect class="cls-13" x="226.78" y="241.7" width="20.05" height="13.15"/><rect class="cls-14" x="227.72" y="242.65" width="18.15" height="11.26"/><polygon class="cls-15" points="244.65 253.91 235.3 253.91 229.26 242.65 238.61 242.65 244.65 253.91"/><rect class="cls-13" x="193.34" y="241.7" width="20.05" height="13.15"/><rect class="cls-14" x="194.28" y="242.65" width="18.15" height="11.26"/><polygon class="cls-15" points="211.21 253.91 201.86 253.91 195.82 242.65 205.17 242.65 211.21 253.91"/><rect class="cls-13" x="160.1" y="241.7" width="20.05" height="13.15"/><rect class="cls-14" x="161.05" y="242.65" width="18.15" height="11.26"/><polygon class="cls-15" points="177.98 253.91 168.63 253.91 162.59 242.65 171.94 242.65 177.98 253.91"/><polygon class="cls-16" points="264.24 59.79 143.61 62.13 143.61 59.79 264.24 59.79"/><polygon class="cls-16" points="265.99 57.39 143.61 58.45 143.61 57.39 265.99 57.39"/><path class="cls-19" d="M268.08,53c-6.95-5.31-40.37-38.41-44.5-47.08h-80V53H268.08Z"/><polygon class="cls-16" points="268.08 53.03 143.61 56.6 143.61 53.03 268.08 53.03"/><rect class="cls-4" x="143.61" y="230.89" width="121.59" height="4.16"/></svg>