<svg id="Cyclists" xmlns="http://www.w3.org/2000/svg" viewBox="0 0 142.67 59.07"><defs><style>.cls-1{fill:#202020;}.cls-2{fill:#181818;}.cls-3{fill:#a80f24;}.cls-16,.cls-4{fill:#780b19;}.cls-25,.cls-5{fill:#556973;}.cls-13,.cls-6{fill:#c7c8ca;}.cls-7{fill:#b1c0c9;}.cls-8{fill:#c60000;}.cls-9{fill:#8ea3ae;}.cls-10{fill:#b4c3cc;stroke:#780b19;stroke-width:0.13px;}.cls-10,.cls-13,.cls-18,.cls-22,.cls-23,.cls-24,.cls-25,.cls-30{stroke-miterlimit:10;}.cls-11{fill:#cc2c00;}.cls-12,.cls-18{fill:#f6f6f6;}.cls-13{stroke:#484749;stroke-width:0.03px;}.cls-14{fill:#ababab;}.cls-15{fill:#700a19;}.cls-16{opacity:0.8;}.cls-17{fill:#5e0914;}.cls-18{stroke:#abadb0;stroke-width:0.19px;}.cls-19{fill:#231f20;}.cls-20{fill:#660915;}.cls-21{fill:#750a18;}.cls-22{fill:#484749;}.cls-22,.cls-30{stroke:#ebe6de;}.cls-22,.cls-23,.cls-24,.cls-27,.cls-30{stroke-width:0.26px;}.cls-23,.cls-24{fill:#3d4a52;}.cls-23{stroke:#9e9fa1;}.cls-24{stroke:#c7c8ca;}.cls-25,.cls-27{stroke:#f6f6f6;}.cls-25{stroke-width:0.45px;}.cls-26{fill:#101010;}.cls-27,.cls-28,.cls-30{fill:none;}.cls-27{stroke-linecap:round;stroke-linejoin:round;}.cls-29{fill:#bfcfd9;}</style></defs><title>Green street</title><path class="cls-1" d="M135.89,39.33h-8.2v7.86c0,1.8.09,3.4,1.39,3.4h5.27c1.9,0,1.54-2.2,1.54-3.5V39.33Z"/><path class="cls-1" d="M74.73,39.33h8.2v7.86c0,1.8-.09,3.4-1.39,3.4H76.27c-1.9,0-1.54-2.2-1.54-3.5V39.33Z"/><path class="cls-2" d="M135.22,43.21c-0.15,0-3.27-.37-4-0.41,0,0-3-.15-3.31-0.15a0.27,0.27,0,0,1-.24-0.11c-0.94-1.05-3.31-1.06-5.56-1.26-1.63-.14-11.17-0.37-16.78-0.37s-15.15.23-16.78,0.37c-2.25.19-4.63,0.2-5.56,1.26a0.27,0.27,0,0,1-.24.11c-0.32,0-3.31.15-3.31,0.15-0.76,0-3.87.41-4,.41H75.08a8.44,8.44,0,0,0,.52,1.71A2.24,2.24,0,0,0,78,46.65h54.55A2.24,2.24,0,0,0,135,44.93a8.44,8.44,0,0,0,.52-1.71h-0.32Z"/><path class="cls-3" d="M136.18,32.75c0-.74-0.17-3.94-0.22-4.33a4,4,0,0,0-.39-1.3c-0.22-.43-1.78-4.72-2.25-5.76s-0.52-1-1.3-1.21a11.1,11.1,0,0,1-3.12-1.08,11.22,11.22,0,0,1-1.69-2.73c-0.48-.82-2-4.37-2.51-5.37a2.85,2.85,0,0,0-1.95-1.6c-0.56,0-4.24-.52-7.32-0.82s-8-.39-10.13-0.39-7.06.09-10.13,0.39-6.75.78-7.32,0.82A2.85,2.85,0,0,0,85.91,11c-0.52,1-2,4.55-2.51,5.37a11.22,11.22,0,0,1-1.69,2.73,11.1,11.1,0,0,1-3.12,1.08c-0.78.22-.82,0.17-1.3,1.21s-2,5.32-2.25,5.76a4,4,0,0,0-.39,1.3c0,0.39-.17,3.59-0.22,4.33,0,0-.15,1.73-0.15,2.16s0.32,3.77.39,4.61,0.36,3.28.4,3.56,0.17,0.12.32,0.12,3.27-.37,4-0.41c0,0,3-.15,3.31-0.15A0.27,0.27,0,0,0,83,42.53c0.94-1.05,3.31-1.06,5.56-1.26,1.63-.14,11.17-0.37,16.78-0.37s15.15,0.23,16.78.37c2.25,0.19,4.63.2,5.56,1.26a0.27,0.27,0,0,0,.24.11c0.32,0,3.31.15,3.31,0.15,0.76,0,3.87.41,4,.41s0.3,0,.32-0.12,0.33-2.72.4-3.56,0.39-4.18.39-4.61S136.18,32.75,136.18,32.75Z"/><path class="cls-4" d="M123,11.66a3,3,0,0,1-.07-0.36,5.09,5.09,0,0,1-.06-0.79,4.91,4.91,0,0,0-.13-1.14h0a1.87,1.87,0,0,1,.1.35,6.81,6.81,0,0,1,.12.79,5.09,5.09,0,0,1,.05.79,2.9,2.9,0,0,1,0,.36h0Z"/><path class="cls-4" d="M125.71,13.61s-0.58-.67-1.19-1.29A5.12,5.12,0,0,0,124,11.9a1.47,1.47,0,0,0-.49-0.22,1.33,1.33,0,0,0-.53,0h0a1,1,0,0,1,.55-0.07,1.13,1.13,0,0,1,.54.21,3.36,3.36,0,0,1,.48.45c0.3,0.32.58,0.67,0.78,0.93l0.34,0.43h0Z"/><path class="cls-5" d="M88.83,23.4c-1-.19-5.64-0.53-7.38-0.72s-2.8.08-3.17,0.45a8.72,8.72,0,0,0-1.9,3.14c-0.11.8,0,.84,0.67,1a2.42,2.42,0,0,0,.95.12"/><path class="cls-6" d="M88.83,23.4s-0.26,0-.72-0.08l-1.9-.15-2.68-.21L82,22.82c-0.52,0-1-.11-1.56-0.11a5.2,5.2,0,0,0-1.53.16,2,2,0,0,0-1.12.9,8.72,8.72,0,0,0-1.34,2.29,1.1,1.1,0,0,0,0,1,2.8,2.8,0,0,0,.76.27,2.26,2.26,0,0,0,.71.08,2.27,2.27,0,0,1-.72-0.05,2.77,2.77,0,0,1-.8-0.25,0.55,0.55,0,0,1-.18-0.49A2.54,2.54,0,0,1,76.38,26a8.82,8.82,0,0,1,1.33-2.35,6.76,6.76,0,0,1,.48-0.58,1.58,1.58,0,0,1,.7-0.39,5.34,5.34,0,0,1,1.58-.19c0.53,0,1.06.08,1.57,0.14l1.51,0.15,2.68,0.26c0.78,0.08,1.44.16,1.89,0.22S88.83,23.4,88.83,23.4Z"/><path class="cls-4" d="M105.31,19.68c0.28,0,3.87.1,4.29,0.12l5.07,0.28c0.71,0,4.46.43,4.87,0.52s0.26,0.15-.11.22a7.89,7.89,0,0,1-1.95.19,25.12,25.12,0,0,0-4.26.48c-1.7.3-3.71,0.35-4.57,0.44s-2.42.25-3.33,0.25S102.84,22,102,21.94s-2.87-.14-4.57-0.44A25.12,25.12,0,0,0,93.14,21a7.89,7.89,0,0,1-1.95-.19c-0.37-.07-0.53-0.12-0.11-0.22s4.16-.48,4.87-0.52l5.07-.28c0.41,0,4-.13,4.29-0.12"/><path class="cls-7" d="M129.33,19.33c0.23-.6.24-0.76,0.62-0.75a10.92,10.92,0,0,1,1.84.18,11.63,11.63,0,0,1,1.49.34,1,1,0,0,1,.94.65,6.29,6.29,0,0,1,.36,1,0.93,0.93,0,0,1-.22.82,2.12,2.12,0,0,1-.81.38"/><path class="cls-4" d="M129.32,19.32l0.12-.34a0.77,0.77,0,0,1,.22-0.37,1.1,1.1,0,0,1,.55-0.06,10.37,10.37,0,0,1,1.36.1c0.49,0.1,1,.14,1.54.3a4.65,4.65,0,0,1,.77.25,0.76,0.76,0,0,1,.35.29c0.07,0.14.11,0.21,0.18,0.35a5.11,5.11,0,0,1,.24.69,1.47,1.47,0,0,1,.07.35,1.09,1.09,0,0,1-.05.34,0.79,0.79,0,0,1-.35.47,1.58,1.58,0,0,1-.4.18,2.22,2.22,0,0,1-.36.08v0a2.21,2.21,0,0,0,.33-0.14,2.18,2.18,0,0,0,.34-0.21,0.65,0.65,0,0,0,.24-0.41,0.78,0.78,0,0,0-.06-0.56c-0.08-.21-0.14-0.45-0.23-0.66s-0.12-.23-0.17-0.32a0.58,0.58,0,0,0-.24-0.2,4.48,4.48,0,0,0-.72-0.27c-0.49-.16-1-0.23-1.51-0.35a12,12,0,0,0-1.34-.16,1.07,1.07,0,0,0-.51,0,0.73,0.73,0,0,0-.21.33l-0.14.34h0Z"/><path class="cls-6" d="M105.31,36.12l10.39,0.09c5.19,0,10.39.14,10.39,0.14h0s-5.19,0-10.39-.09l-10.39-.14h0Z"/><path class="cls-8" d="M120,42.72l6.83,0c0.16,0,.31-0.17.11-0.27a6.37,6.37,0,0,0-1.41-.42C125,42,123,41.88,122.73,41.86l-4.29-.13c-0.26,0-.26.07-0.16,0.17s0.38,0.34.58,0.5A1.76,1.76,0,0,0,120,42.72Z"/><path class="cls-9" d="M120,42.72h6.54a1.13,1.13,0,0,0,.39,0c0.14-.08,0-0.19-0.1-0.23a4.94,4.94,0,0,0-1.62-.41c-1.13-.07-2.25-0.21-3.32-0.22l-2.9-.1c-0.21,0-.42,0-0.61,0a0.17,0.17,0,0,0-.12,0,0.13,0.13,0,0,0,.06.11l0.2,0.18a2.27,2.27,0,0,0,.72.52,2.14,2.14,0,0,0,.56.12H120Zm0,0h-0.2a2.14,2.14,0,0,1-.56-0.11,2.29,2.29,0,0,1-.72-0.52l-0.2-.17a0.14,0.14,0,0,1-.06-0.13,0.17,0.17,0,0,1,.14-0.06c0.2,0,.4,0,0.61,0l2.9,0.08c1.06,0,2.19.13,3.32,0.2a5,5,0,0,1,1.64.41,0.4,0.4,0,0,1,.19.12,0.16,0.16,0,0,1-.08.21,1.11,1.11,0,0,1-.42,0H125.7l-2.9,0Z"/><path class="cls-10" d="M123,11.66s-5.54-.83-8.17-1.12-8.21-.36-9.55-0.36-6.92.07-9.55,0.36-8.17,1.12-8.17,1.12-0.11,3.39-.11,4.12a2.62,2.62,0,0,0,2.6,2.52c1.48,0.09,8.43.18,9.58,0.19s5.65-.08,5.65-0.08,4.5,0.1,5.65.08,8.1-.11,9.58-0.19a2.62,2.62,0,0,0,2.6-2.52C123.14,15.05,123,11.66,123,11.66Z"/><path class="cls-4" d="M87.59,11.66a2.87,2.87,0,0,1,0-.36,5.14,5.14,0,0,1,.05-0.79,6.85,6.85,0,0,1,.12-0.79,1.89,1.89,0,0,1,.1-0.35h0a4.88,4.88,0,0,0-.13,1.14,5.12,5.12,0,0,1-.06.79,2.94,2.94,0,0,1-.07.36h0Z"/><path class="cls-4" d="M85.25,12.39l-0.93,3.52a27.21,27.21,0,0,1-1.18,4,4.69,4.69,0,0,0-.46,1.14,5.86,5.86,0,0,0-.09,1.3c0,0.9.1,1.85,0.21,2.83l0.39,3.07a20.57,20.57,0,0,0,.55,3.25A3.35,3.35,0,0,0,84.57,33a2.66,2.66,0,0,0,1.55.66c1.17,0,2.41,0,3.64,0l15.55,0.08,15.55-.08c1.24,0,2.47,0,3.65,0a2.67,2.67,0,0,0,1.54-.66,3.35,3.35,0,0,0,.84-1.44,20.58,20.58,0,0,0,.55-3.25l0.39-3.07c0.11-1,.19-1.93.21-2.83a5.86,5.86,0,0,0-.09-1.3,4.69,4.69,0,0,0-.46-1.14,27.22,27.22,0,0,1-1.18-4l-0.93-3.52,1,3.51a27.17,27.17,0,0,0,1.22,4A4.78,4.78,0,0,1,128,21a6,6,0,0,1,.11,1.33c0,0.91-.09,1.86-0.19,2.85l-0.37,3.08a20.61,20.61,0,0,1-.54,3.28,3.52,3.52,0,0,1-.88,1.51,2.85,2.85,0,0,1-1.65.72c-1.2.05-2.42,0-3.66,0.05L105.31,34l-15.55-.14c-1.24,0-2.45,0-3.66-.05a2.84,2.84,0,0,1-1.65-.72,3.52,3.52,0,0,1-.88-1.51A20.61,20.61,0,0,1,83,28.28l-0.37-3.08c-0.1-1-.19-1.94-0.19-2.85A6,6,0,0,1,82.58,21a4.78,4.78,0,0,1,.48-1.16,27.19,27.19,0,0,0,1.22-4Z"/><path class="cls-4" d="M84.9,13.6l0.34-.43c0.21-.26.48-0.6,0.78-0.93a3.38,3.38,0,0,1,.48-0.45A1.13,1.13,0,0,1,87,11.59a1,1,0,0,1,.55.07h0a1.33,1.33,0,0,0-.53,0,1.47,1.47,0,0,0-.49.22,5.09,5.09,0,0,0-.48.42c-0.62.62-1.19,1.29-1.19,1.29h0Z"/><path class="cls-11" d="M90.29,24.55a1.55,1.55,0,0,0-1.17-1.12C88.46,23.3,81.83,23,80.89,23a2.29,2.29,0,0,0-2.34,1.41c-0.28,1-.56,3-0.56,3s6.26,0.17,7,.17h5.6c0.43,0,.55-0.18.42-0.61Z"/><path class="cls-12" d="M90.29,24.55a2.29,2.29,0,0,0-.54-0.83,1.53,1.53,0,0,0-.92-0.32c-0.66-.06-1.32-0.1-2-0.13l-4-.19c-0.66,0-1.33-.06-2-0.06a2.76,2.76,0,0,0-1.81.63,1.63,1.63,0,0,0-.48.83c-0.08.32-.15,0.64-0.21,1-0.12.65-.23,1.31-0.32,2L78,27.34l4,0.11c1.34,0,2.68.1,4,.09l4,0h0.5A0.56,0.56,0,0,0,91,27.43,0.57,0.57,0,0,0,91,27l-0.15-.48Zm0,0,0.6,1.92L91,27a0.59,0.59,0,0,1,0,.5,0.58,0.58,0,0,1-.47.14h-0.5l-4,0c-1.34,0-2.68,0-4-.06l-4-.08H77.92V27.39c0.1-.66.21-1.31,0.34-2,0.06-.33.13-0.65,0.22-1A1.73,1.73,0,0,1,79,23.58a2.84,2.84,0,0,1,1.87-.64c0.67,0,1.33,0,2,.08l4,0.22c0.66,0,1.33.09,2,.15a1.55,1.55,0,0,1,.92.33A2.29,2.29,0,0,1,90.29,24.55Z"/><path class="cls-5" d="M90,26.54c-0.16-.7-0.34-1.51-0.41-1.74a0.83,0.83,0,0,0-.92-0.57c-0.59-.08-6.31-0.63-7.36-0.63a1.61,1.61,0,0,0-1.42.95c-0.12.45-.27,1.27-0.37,1.86,1.85,0.05,5,.13,5.53.13H90Z"/><path class="cls-7" d="M81.29,19.33c-0.23-.6-0.24-0.76-0.62-0.75a10.92,10.92,0,0,0-1.84.18,11.62,11.62,0,0,0-1.49.34,1,1,0,0,0-.94.65,6.28,6.28,0,0,0-.36,1,0.93,0.93,0,0,0,.22.82,2.12,2.12,0,0,0,.81.38"/><path class="cls-4" d="M81.27,19.33L81.14,19a0.73,0.73,0,0,0-.21-0.33,1.07,1.07,0,0,0-.51,0,12,12,0,0,0-1.34.16c-0.48.12-1,.18-1.51,0.35a4.5,4.5,0,0,0-.72.27,0.57,0.57,0,0,0-.24.2c0,0.09-.13.24-0.17,0.32s-0.16.45-.23,0.66a0.78,0.78,0,0,0-.06.56,0.65,0.65,0,0,0,.24.41,2.17,2.17,0,0,0,.34.21,2.21,2.21,0,0,0,.33.14v0a2.22,2.22,0,0,1-.36-0.08,1.57,1.57,0,0,1-.4-0.18,0.79,0.79,0,0,1-.35-0.47,1.09,1.09,0,0,1-.05-0.34A1.49,1.49,0,0,1,76,20.53a5.07,5.07,0,0,1,.24-0.69c0.07-.14.11-0.21,0.18-0.35a0.76,0.76,0,0,1,.35-0.29,4.65,4.65,0,0,1,.77-0.25c0.52-.15,1-0.19,1.54-0.3a10.36,10.36,0,0,1,1.36-.1,1.1,1.1,0,0,1,.55.06,0.77,0.77,0,0,1,.22.37l0.12,0.34h0Z"/><polygon class="cls-13" points="105.31 26.22 100.11 26.22 100.11 31.23 105.31 31.23 110.5 31.23 110.5 26.22 105.31 26.22"/><path class="cls-6" d="M105.31,36.13l-10.39.14c-5.19.08-10.39,0.09-10.39,0.09h0s5.19-.1,10.39-0.14l10.39-.09h0Z"/><path class="cls-6" d="M105.31,20.35a4.47,4.47,0,0,0-1.3.3l0,0.18a5.14,5.14,0,0,1,1.27-.29,4,4,0,0,1,1.27.29l0-.18A4.12,4.12,0,0,0,105.31,20.35Z"/><path class="cls-8" d="M90.65,42.72l-6.83,0c-0.16,0-.31-0.17-0.11-0.27a6.37,6.37,0,0,1,1.41-.42c0.48-.06,2.46-0.19,2.77-0.21l4.29-.13c0.26,0,.26.07,0.16,0.17s-0.38.34-.58,0.5A1.76,1.76,0,0,1,90.65,42.72Z"/><path class="cls-9" d="M90.65,42.72l-2.83,0-2.9,0H84.11a1.11,1.11,0,0,1-.42,0,0.16,0.16,0,0,1-.08-0.21,0.4,0.4,0,0,1,.19-0.12A5,5,0,0,1,85.44,42c1.13-.07,2.26-0.2,3.32-0.2l2.9-.08c0.21,0,.41,0,0.61,0a0.17,0.17,0,0,1,.14.06,0.14,0.14,0,0,1-.06.13l-0.2.17a2.29,2.29,0,0,1-.72.52,2.15,2.15,0,0,1-.56.11h-0.2Zm0,0h0.2a2.14,2.14,0,0,0,.56-0.12,2.27,2.27,0,0,0,.72-0.52l0.2-.18a0.13,0.13,0,0,0,.06-0.11,0.17,0.17,0,0,0-.12,0c-0.19,0-.4,0-0.61,0l-2.9.1c-1.06,0-2.19.14-3.32,0.22a4.94,4.94,0,0,0-1.62.41c-0.15,0-.24.15-0.1,0.23a1.13,1.13,0,0,0,.39,0h6.54Z"/><path class="cls-14" d="M91.93,47.52V47.19a2.29,2.29,0,0,1,.18-0.92,1.59,1.59,0,0,1,1.18-.81,9.19,9.19,0,0,1,1.89-.12l10.14-.06,10.14,0.06a9.15,9.15,0,0,1,1.89.12,1.59,1.59,0,0,1,1.18.81,2.29,2.29,0,0,1,.18.92v0a2.27,2.27,0,0,0-.21-0.9,1.52,1.52,0,0,0-1.16-.74,10.92,10.92,0,0,0-1.87-.07l-10.14.06-10.14-.06a10.87,10.87,0,0,0-1.87.07,1.52,1.52,0,0,0-1.16.74,2.27,2.27,0,0,0-.21.9C91.93,47.41,91.93,47.52,91.93,47.52Z"/><path class="cls-14" d="M95.63,42.76l3-.05,6.65,0,6.65,0,3,0.05-3,.05-6.65,0-6.65,0Z"/><path class="cls-15" d="M84.9,21.24l1.73-.32c1.1-.19,2.67-0.55,4.59-0.74s4.16-.35,6.56-0.44l7.52-.34,7.53,0.34c2.4,0.1,4.64.25,6.56,0.44s3.49,0.55,4.59.74l1.73,0.32L124,21c-1.11-.17-2.69-0.44-4.6-0.62s-4.15-.3-6.55-0.37l-7.51-.26L97.79,20c-2.4.07-4.64,0.2-6.55,0.37s-3.49.46-4.6,0.62Z"/><path class="cls-6" d="M106,20.74a2,2,0,0,0-.43-0.09l-0.13.21a0.16,0.16,0,1,1-.32,0L105,20.65a2,2,0,0,0-.43.09l-0.47.16a1,1,0,0,0,.19.26c0.09,0.06.11,0,.15,0a0.57,0.57,0,0,1,.28-0.16,0.53,0.53,0,0,1,.17,0l0.39,2.12L105.7,21a0.53,0.53,0,0,1,.17,0,0.58,0.58,0,0,1,.28.16s0.06,0.1.15,0a1,1,0,0,0,.19-0.26Z"/><path class="cls-6" d="M106,20.74a2,2,0,0,0-.43-0.09l-0.13.21a0.16,0.16,0,1,1-.32,0L105,20.65a2,2,0,0,0-.43.09l-0.47.16a1,1,0,0,0,.19.26c0.09,0.06.11,0,.15,0a0.57,0.57,0,0,1,.28-0.16,0.53,0.53,0,0,1,.17,0l0.39,2.12L105.7,21a0.53,0.53,0,0,1,.17,0,0.58,0.58,0,0,1,.28.16s0.06,0.1.15,0a1,1,0,0,0,.19-0.26Z"/><path class="cls-6" d="M106,20.74a2,2,0,0,0-.43-0.09l-0.13.21a0.16,0.16,0,1,1-.32,0L105,20.65a2,2,0,0,0-.43.09l-0.47.16a1,1,0,0,0,.19.26c0.09,0.06.11,0,.15,0a0.57,0.57,0,0,1,.28-0.16,0.53,0.53,0,0,1,.17,0l0.39,2.12L105.7,21a0.53,0.53,0,0,1,.17,0,0.58,0.58,0,0,1,.28.16s0.06,0.1.15,0a1,1,0,0,0,.19-0.26Z"/><path class="cls-6" d="M106,20.74a2,2,0,0,0-.43-0.09l-0.13.21a0.16,0.16,0,1,1-.32,0L105,20.65a2,2,0,0,0-.43.09l-0.47.16a1,1,0,0,0,.19.26c0.09,0.06.11,0,.15,0a0.57,0.57,0,0,1,.28-0.16,0.53,0.53,0,0,1,.17,0l0.39,2.12L105.7,21a0.53,0.53,0,0,1,.17,0,0.58,0.58,0,0,1,.28.16s0.06,0.1.15,0a1,1,0,0,0,.19-0.26Z"/><path class="cls-6" d="M106,20.74a2,2,0,0,0-.43-0.09l-0.13.21a0.16,0.16,0,1,1-.32,0L105,20.65a2,2,0,0,0-.43.09l-0.47.16a1,1,0,0,0,.19.26c0.09,0.06.11,0,.15,0a0.57,0.57,0,0,1,.28-0.16,0.53,0.53,0,0,1,.17,0l0.39,2.12L105.7,21a0.53,0.53,0,0,1,.17,0,0.58,0.58,0,0,1,.28.16s0.06,0.1.15,0a1,1,0,0,0,.19-0.26Z"/><path class="cls-6" d="M117.75,25.75a15,15,0,0,1-1.43,4.4,2.55,2.55,0,0,1-2,1.14c-0.81.1-3.38,0.26-4.81,0.33-1.14.06-4.24,0.09-4.24,0.09s-3.1,0-4.24-.09c-1.42-.08-4-0.24-4.81-0.33a2.55,2.55,0,0,1-2-1.14,15,15,0,0,1-1.43-4.4l-1.79-.07s1.34,3.72,1.79,4.63a2.64,2.64,0,0,0,2.53,1.75c1.66,0.16,4.42.29,5.42,0.29h9c1,0,3.77-.13,5.42-0.29a2.64,2.64,0,0,0,2.53-1.75c0.45-.91,1.79-4.63,1.79-4.63Z"/><path class="cls-6" d="M117.75,25.75a15,15,0,0,1-1.43,4.4,2.55,2.55,0,0,1-2,1.14c-0.81.1-3.38,0.26-4.81,0.33-1.14.06-4.24,0.09-4.24,0.09s-3.1,0-4.24-.09c-1.42-.08-4-0.24-4.81-0.33a2.55,2.55,0,0,1-2-1.14,15,15,0,0,1-1.43-4.4l-1.79-.07s1.34,3.72,1.79,4.63a2.64,2.64,0,0,0,2.53,1.75c1.66,0.16,4.42.29,5.42,0.29h9c1,0,3.77-.13,5.42-0.29a2.64,2.64,0,0,0,2.53-1.75c0.45-.91,1.79-4.63,1.79-4.63Z"/><path class="cls-6" d="M117.75,25.75a15,15,0,0,1-1.43,4.4,2.55,2.55,0,0,1-2,1.14c-0.81.1-3.38,0.26-4.81,0.33-1.14.06-4.24,0.09-4.24,0.09s-3.1,0-4.24-.09c-1.42-.08-4-0.24-4.81-0.33a2.55,2.55,0,0,1-2-1.14,15,15,0,0,1-1.43-4.4l-1.79-.07s1.34,3.72,1.79,4.63a2.64,2.64,0,0,0,2.53,1.75c1.66,0.16,4.42.29,5.42,0.29h9c1,0,3.77-.13,5.42-0.29a2.64,2.64,0,0,0,2.53-1.75c0.45-.91,1.79-4.63,1.79-4.63Z"/><path class="cls-6" d="M117.75,25.75a15,15,0,0,1-1.43,4.4,2.55,2.55,0,0,1-2,1.14c-0.81.1-3.38,0.26-4.81,0.33-1.14.06-4.24,0.09-4.24,0.09s-3.1,0-4.24-.09c-1.42-.08-4-0.24-4.81-0.33a2.55,2.55,0,0,1-2-1.14,15,15,0,0,1-1.43-4.4l-1.79-.07s1.34,3.72,1.79,4.63a2.64,2.64,0,0,0,2.53,1.75c1.66,0.16,4.42.29,5.42,0.29h9c1,0,3.77-.13,5.42-0.29a2.64,2.64,0,0,0,2.53-1.75c0.45-.91,1.79-4.63,1.79-4.63Z"/><path class="cls-6" d="M117.75,25.75a15,15,0,0,1-1.43,4.4,2.55,2.55,0,0,1-2,1.14c-0.81.1-3.38,0.26-4.81,0.33-1.14.06-4.24,0.09-4.24,0.09s-3.1,0-4.24-.09c-1.42-.08-4-0.24-4.81-0.33a2.55,2.55,0,0,1-2-1.14,15,15,0,0,1-1.43-4.4l-1.79-.07s1.34,3.72,1.79,4.63a2.64,2.64,0,0,0,2.53,1.75c1.66,0.16,4.42.29,5.42,0.29h9c1,0,3.77-.13,5.42-0.29a2.64,2.64,0,0,0,2.53-1.75c0.45-.91,1.79-4.63,1.79-4.63Z"/><path class="cls-6" d="M117.75,25.75a15,15,0,0,1-1.43,4.4,2.55,2.55,0,0,1-2,1.14c-0.81.1-3.38,0.26-4.81,0.33-1.14.06-4.24,0.09-4.24,0.09s-3.1,0-4.24-.09c-1.42-.08-4-0.24-4.81-0.33a2.55,2.55,0,0,1-2-1.14,15,15,0,0,1-1.43-4.4l-1.79-.07s1.34,3.72,1.79,4.63a2.64,2.64,0,0,0,2.53,1.75c1.66,0.16,4.42.29,5.42,0.29h9c1,0,3.77-.13,5.42-0.29a2.64,2.64,0,0,0,2.53-1.75c0.45-.91,1.79-4.63,1.79-4.63Z"/><path class="cls-6" d="M117.75,25.75a15,15,0,0,1-1.43,4.4,2.55,2.55,0,0,1-2,1.14c-0.81.1-3.38,0.26-4.81,0.33-1.14.06-4.24,0.09-4.24,0.09s-3.1,0-4.24-.09c-1.42-.08-4-0.24-4.81-0.33a2.55,2.55,0,0,1-2-1.14,15,15,0,0,1-1.43-4.4l-1.79-.07s1.34,3.72,1.79,4.63a2.64,2.64,0,0,0,2.53,1.75c1.66,0.16,4.42.29,5.42,0.29h9c1,0,3.77-.13,5.42-0.29a2.64,2.64,0,0,0,2.53-1.75c0.45-.91,1.79-4.63,1.79-4.63Z"/><path class="cls-6" d="M117.75,25.75a15,15,0,0,1-1.43,4.4,2.55,2.55,0,0,1-2,1.14c-0.81.1-3.38,0.26-4.81,0.33-1.14.06-4.24,0.09-4.24,0.09s-3.1,0-4.24-.09c-1.42-.08-4-0.24-4.81-0.33a2.55,2.55,0,0,1-2-1.14,15,15,0,0,1-1.43-4.4l-1.79-.07s1.34,3.72,1.79,4.63a2.64,2.64,0,0,0,2.53,1.75c1.66,0.16,4.42.29,5.42,0.29h9c1,0,3.77-.13,5.42-0.29a2.64,2.64,0,0,0,2.53-1.75c0.45-.91,1.79-4.63,1.79-4.63Z"/><path class="cls-6" d="M117.75,25.75a15,15,0,0,1-1.43,4.4,2.55,2.55,0,0,1-2,1.14c-0.81.1-3.38,0.26-4.81,0.33-1.14.06-4.24,0.09-4.24,0.09s-3.1,0-4.24-.09c-1.42-.08-4-0.24-4.81-0.33a2.55,2.55,0,0,1-2-1.14,15,15,0,0,1-1.43-4.4l-1.79-.07s1.34,3.72,1.79,4.63a2.64,2.64,0,0,0,2.53,1.75c1.66,0.16,4.42.29,5.42,0.29h9c1,0,3.77-.13,5.42-0.29a2.64,2.64,0,0,0,2.53-1.75c0.45-.91,1.79-4.63,1.79-4.63Z"/><path class="cls-4" d="M117.75,25.75a15,15,0,0,1-1.43,4.4,2.55,2.55,0,0,1-2,1.14c-0.81.1-3.38,0.26-4.81,0.33-1.14.06-4.24,0.09-4.24,0.09s-3.1,0-4.24-.09c-1.42-.08-4-0.24-4.81-0.33a2.55,2.55,0,0,1-2-1.14,15,15,0,0,1-1.43-4.4l-1.79-.07s1.34,3.72,1.79,4.63a2.64,2.64,0,0,0,2.53,1.75c1.66,0.16,4.42.29,5.42,0.29h9c1,0,3.77-.13,5.42-0.29a2.64,2.64,0,0,0,2.53-1.75c0.45-.91,1.79-4.63,1.79-4.63Z"/><path class="cls-4" d="M117.75,25.75a15,15,0,0,1-1.43,4.4,2.55,2.55,0,0,1-2,1.14c-0.81.1-3.38,0.26-4.81,0.33-1.14.06-4.24,0.09-4.24,0.09s-3.1,0-4.24-.09c-1.42-.08-4-0.24-4.81-0.33a2.55,2.55,0,0,1-2-1.14,15,15,0,0,1-1.43-4.4l-1.79-.07s1.34,3.72,1.79,4.63a2.64,2.64,0,0,0,2.53,1.75c1.66,0.16,4.42.29,5.42,0.29h9c1,0,3.77-.13,5.42-0.29a2.64,2.64,0,0,0,2.53-1.75c0.45-.91,1.79-4.63,1.79-4.63Z"/><path class="cls-16" d="M117.75,25.75a15,15,0,0,1-1.43,4.4,2.55,2.55,0,0,1-2,1.14c-0.81.1-3.38,0.26-4.81,0.33-1.14.06-4.24,0.09-4.24,0.09s-3.1,0-4.24-.09c-1.42-.08-4-0.24-4.81-0.33a2.55,2.55,0,0,1-2-1.14,15,15,0,0,1-1.43-4.4l-1.79-.07s1.34,3.72,1.79,4.63a2.64,2.64,0,0,0,2.53,1.75c1.66,0.16,4.42.29,5.42,0.29h9c1,0,3.77-.13,5.42-0.29a2.64,2.64,0,0,0,2.53-1.75c0.45-.91,1.79-4.63,1.79-4.63Z"/><path class="cls-4" d="M74.68,39.53c0.06,0.84.36,3.28,0.4,3.56s0.17,0.12.32,0.12,3.27-.37,4-0.41c0,0,3-.15,3.31-0.15A0.27,0.27,0,0,0,83,42.53c0.94-1.05,3.31-1.06,5.56-1.26,1.63-.14,11.17-0.37,16.78-0.37s15.15,0.23,16.78.37c2.25,0.19,4.63.2,5.56,1.26a0.27,0.27,0,0,0,.24.11c0.32,0,3.31.15,3.31,0.15,0.76,0,3.87.41,4,.41s0.3,0,.32-0.12,0.33-2.72.4-3.56,0.39-4.18.39-4.61-0.11-1.65-.14-2a4.69,4.69,0,0,0-3.28-2.65,29.9,29.9,0,0,0,.1,4,4.66,4.66,0,0,0,.71,2.18s-3.08.13-5.36,0-16-.21-18.44-0.26-4.61,0-4.61,0-2.21-.05-4.61,0-16.17.13-18.44,0.26-5.36,0-5.36,0a4.66,4.66,0,0,0,.71-2.18,29.9,29.9,0,0,0,.1-4,4.69,4.69,0,0,0-3.28,2.65h0c0,0.4-.14,1.68-0.14,2S74.62,38.68,74.68,39.53Z"/><path class="cls-17" d="M126.61,32.24l3.16,0.08,1.58,0a12,12,0,0,0,1.57,0h0l3.25,0.51-3.26-.42h0a12,12,0,0,1-1.58,0h-4.74V32.24Z"/><path class="cls-17" d="M84,32.5H79.27a12,12,0,0,1-1.58,0h0l-3.26.42,3.25-.51h0a12,12,0,0,0,1.57,0l1.58,0L84,32.24V32.5Z"/><path class="cls-6" d="M132.57,26.78s0.14,1,.24,2a19.12,19.12,0,0,1,.09,2,19.15,19.15,0,0,0-.12-2c-0.11-1-.27-2-0.27-2h0.07Z"/><path class="cls-6" d="M84,26l1.45-1-0.65-.09-1,.68-3-.06c0-.16.1-0.38,0.19-0.63s0.48-.34,1.08-0.34h0.07c0.59,0,2.86.09,3.86,0.22l1.1-.28c-1-.13-4.36-0.39-5-0.39H82.19a1.33,1.33,0,0,0-1.51.65,9.76,9.76,0,0,0-.27.95l-0.06.27Z"/><path class="cls-6" d="M84,26l1.45-1-0.65-.09-1,.68-3-.06c0-.16.1-0.38,0.19-0.63s0.48-.34,1.08-0.34h0.07c0.59,0,2.86.09,3.86,0.22l1.1-.28c-1-.13-4.36-0.39-5-0.39H82.19a1.33,1.33,0,0,0-1.51.65,9.76,9.76,0,0,0-.27.95l-0.06.27Z"/><path class="cls-12" d="M84,26l1.45-1-0.65-.09-1,.68-3-.06c0-.16.1-0.38,0.19-0.63s0.48-.34,1.08-0.34h0.07c0.59,0,2.86.09,3.86,0.22l1.1-.28c-1-.13-4.36-0.39-5-0.39H82.19a1.33,1.33,0,0,0-1.51.65,9.76,9.76,0,0,0-.27.95l-0.06.27Z"/><path class="cls-5" d="M86.72,24.89a18,18,0,0,1,2.77-.3,5.93,5.93,0,0,1,.3,1.16l-4.91-.07A4.12,4.12,0,0,1,86.72,24.89Z"/><path class="cls-6" d="M86.72,24.88a18.77,18.77,0,0,1,2.77-.39h0.07l0,0.07a6,6,0,0,1,.31,1.18l0,0.12H89.8l-4.91-.13h-0.1l0.08-.06A4.52,4.52,0,0,1,86.72,24.88Zm0,0a4.17,4.17,0,0,0-1.81.81l0-.06H89.8l-0.1.11a5.86,5.86,0,0,0-.3-1.14l0.1,0.06A18.63,18.63,0,0,0,86.72,24.9Z"/><path class="cls-5" d="M121.79,23.4c1-.19,5.64-0.53,7.38-0.72s2.8,0.08,3.17.45a8.72,8.72,0,0,1,1.9,3.14c0.11,0.8,0,.84-0.67,1a2.42,2.42,0,0,1-.95.12"/><path class="cls-6" d="M121.79,23.4s0.26-.05.71-0.12,1.11-.15,1.89-0.22l2.68-.26,1.51-.15c0.51-.05,1-0.13,1.57-0.14a5.34,5.34,0,0,1,1.58.19,1.57,1.57,0,0,1,.7.39,6.72,6.72,0,0,1,.48.58A8.82,8.82,0,0,1,134.24,26a2.54,2.54,0,0,1,.08.57,0.55,0.55,0,0,1-.18.49,2.77,2.77,0,0,1-.8.25,2.27,2.27,0,0,1-.72.05,2.26,2.26,0,0,0,.71-0.08A2.8,2.8,0,0,0,134.1,27a1.1,1.1,0,0,0,0-1,8.73,8.73,0,0,0-1.34-2.29,2,2,0,0,0-1.12-.9,5.19,5.19,0,0,0-1.53-.16c-0.52,0-1,.06-1.56.11l-1.51.13-2.68.21-1.9.15C122,23.35,121.79,23.4,121.79,23.4Z"/><path class="cls-11" d="M120.33,24.55a1.55,1.55,0,0,1,1.17-1.12c0.67-.13,7.29-0.45,8.23-0.45a2.29,2.29,0,0,1,2.34,1.41c0.28,1,.56,3,0.56,3s-6.26.17-7,.17H120c-0.43,0-.55-0.18-0.42-0.61Z"/><path class="cls-12" d="M120.33,24.55a2.29,2.29,0,0,1,.54-0.83,1.55,1.55,0,0,1,.92-0.33c0.66-.07,1.32-0.11,2-0.15l4-.22c0.66,0,1.33-.07,2-0.08a2.85,2.85,0,0,1,1.87.64,1.73,1.73,0,0,1,.51.87c0.09,0.32.15,0.65,0.22,1,0.13,0.65.24,1.31,0.34,2v0.07h-0.07l-4,.08c-1.34,0-2.68.08-4,.06l-4,0h-0.5a0.58,0.58,0,0,1-.47-0.14,0.59,0.59,0,0,1,0-.5l0.15-.48Zm0,0-0.58,1.93L119.6,27a0.57,0.57,0,0,0,0,.48,0.56,0.56,0,0,0,.46.13h0.5l4,0c1.34,0,2.68-.06,4-0.09l4-.11-0.06.07c-0.09-.66-0.2-1.31-0.32-2-0.06-.33-0.13-0.65-0.21-1a1.63,1.63,0,0,0-.48-0.83,2.76,2.76,0,0,0-1.81-.63c-0.66,0-1.33,0-2,.06l-4,.19c-0.66,0-1.33.07-2,.13a1.53,1.53,0,0,0-.92.32A2.29,2.29,0,0,0,120.33,24.55Z"/><path class="cls-5" d="M120.66,26.54c0.16-.7.34-1.51,0.41-1.74a0.83,0.83,0,0,1,.92-0.57c0.59-.08,6.31-0.63,7.36-0.63a1.61,1.61,0,0,1,1.42.95c0.12,0.45.27,1.27,0.37,1.86-1.85.05-5,.13-5.53,0.13h-4.95Z"/><path class="cls-5" d="M123.9,24.89a18,18,0,0,0-2.77-.3,5.93,5.93,0,0,0-.3,1.16l4.91-.07A4.12,4.12,0,0,0,123.9,24.89Z"/><path class="cls-6" d="M123.9,24.9a18.62,18.62,0,0,0-2.78-.21l0.1-.06a5.83,5.83,0,0,0-.3,1.14l-0.1-.11h4.91l0,0.06A4.17,4.17,0,0,0,123.9,24.9Zm0,0a4.52,4.52,0,0,1,1.86.78l0.08,0.06h-0.1l-4.91.13H120.7l0-.12a6,6,0,0,1,.31-1.18l0-.07h0.07A18.77,18.77,0,0,1,123.9,24.88Z"/><path class="cls-18" d="M117.79,24.45c-1.56,0-10.83-.22-12.48-0.22s-10.93.17-12.48,0.22c-0.7,0-2.31.09-3.33,0.14,0.14,0.54.19,0.77,0.3,1.16h31c0.11-.39.16-0.62,0.3-1.16C120.1,24.54,118.5,24.48,117.79,24.45Z"/><path class="cls-6" d="M126.58,26l-1.45-1,0.65-.09,1,0.68,3-.06c0-.16-0.1-0.38-0.19-0.63s-0.48-.34-1.08-0.34h-0.07c-0.59,0-2.86.09-3.86,0.22l-1.1-.28c1-.13,4.36-0.39,5-0.39h0.07a1.33,1.33,0,0,1,1.51.65,9.79,9.79,0,0,1,.27.95l0.06,0.27Z"/><path class="cls-6" d="M126.58,26l-1.45-1,0.65-.09,1,0.68,3-.06c0-.16-0.1-0.38-0.19-0.63s-0.48-.34-1.08-0.34h-0.07c-0.59,0-2.86.09-3.86,0.22l-1.1-.28c1-.13,4.36-0.39,5-0.39h0.07a1.33,1.33,0,0,1,1.51.65,9.79,9.79,0,0,1,.27.95l0.06,0.27Z"/><path class="cls-12" d="M126.58,26l-1.45-1,0.65-.09,1,0.68,3-.06c0-.16-0.1-0.38-0.19-0.63s-0.48-.34-1.08-0.34h-0.07c-0.59,0-2.86.09-3.86,0.22l-1.1-.28c1-.13,4.36-0.39,5-0.39h0.07a1.33,1.33,0,0,1,1.51.65,9.79,9.79,0,0,1,.27.95l0.06,0.27Z"/><path class="cls-1" d="M6.34,39.46h8.2v7.86c0,1.8-.09,3.4-1.39,3.4H7.88c-1.9,0-1.54-2.2-1.54-3.5V39.46Z"/><path class="cls-1" d="M68.06,39.46h-8.2v7.86c0,1.8.09,3.4,1.39,3.4h5.27c1.9,0,1.54-2.2,1.54-3.5V39.46Z"/><path class="cls-19" d="M68,44.37a2.14,2.14,0,0,1-1.4.49c-0.71.13-11.49,0.78-12.89,0.84S38,45.87,37.2,45.87s-15.1-.1-16.49-0.16S8.53,45,7.81,44.86a2.14,2.14,0,0,1-1.4-.49,2.13,2.13,0,0,0,0,.91A2,2,0,0,0,7,46.77a4.52,4.52,0,0,0,2.27.29c1.14,0,5.55,0,7.21,0a55.25,55.25,0,0,0,6.14,0C24.54,46.87,37.2,47,37.2,47s12.66-.13,14.55.07a55.25,55.25,0,0,0,6.14,0c1.66,0,6.07,0,7.21,0a4.52,4.52,0,0,0,2.27-.29A2,2,0,0,0,68,45.28,2.13,2.13,0,0,0,68,44.37Z"/><path class="cls-20" d="M68,44.37a2.14,2.14,0,0,1-1.4.49c-0.71.13-11.49,0.78-12.89,0.84S38,45.87,37.2,45.87s-15.1-.1-16.49-0.16S8.53,45,7.81,44.86a2.14,2.14,0,0,1-1.4-.49,2.13,2.13,0,0,0,0,.91A2,2,0,0,0,7,46.77a4.52,4.52,0,0,0,2.27.29c1.14,0,5.55,0,7.21,0a55.25,55.25,0,0,0,6.14,0C24.54,46.87,37.2,47,37.2,47s12.66-.13,14.55.07a55.25,55.25,0,0,0,6.14,0c1.66,0,6.07,0,7.21,0a4.52,4.52,0,0,0,2.27-.29A2,2,0,0,0,68,45.28,2.13,2.13,0,0,0,68,44.37Z"/><path class="cls-21" d="M68.37,39.27c0.13-1.07,0-3.54,0-4.94l-1-1L56.1,36.06l-4.58,2.73L37.2,40,22.88,38.79,18.3,36.06,7,33.33l-1,1c0,1.4-.13,3.87,0,4.94s0.19,2.92.27,3.86a8.25,8.25,0,0,0,.12,2.14c0.23,0.58,23.83.81,23.83,0.81l6.95,0.16,6.95-.16s23.6-.23,23.83-0.81a8.25,8.25,0,0,0,.12-2.14C68.18,42.19,68.24,40.35,68.37,39.27Z"/><path class="cls-22" d="M54.05,35.57a17.2,17.2,0,0,0-1.75-1.66,5.69,5.69,0,0,0-2.76-1.43,55.47,55.47,0,0,0-6.4-.89c-1.62-.11-4.58-0.31-5.94-0.31s-4.32.19-5.94,0.31a55.46,55.46,0,0,0-6.4.89,5.69,5.69,0,0,0-2.76,1.43,17.2,17.2,0,0,0-1.75,1.66c-0.52.65-.91,2-0.42,2.69a4.38,4.38,0,0,0,1.49,1.49,6.71,6.71,0,0,0,3.12.71c1.85,0.16,6.88.26,8.05,0.32s3.41,0,4.61,0,3.44,0.06,4.61,0,6.2-.16,8.05-0.32A6.71,6.71,0,0,0,53,39.76a4.38,4.38,0,0,0,1.49-1.49C55,37.59,54.57,36.22,54.05,35.57Z"/><polygon class="cls-3" points="19.71 37.55 19.71 37.55 19.71 37.55 19.71 37.55"/><path class="cls-3" d="M67.75,26.74a1,1,0,0,0-.39-0.65c-0.26-.23-2.24-1.46-3.51-2.27a5.71,5.71,0,0,1-2.27-3.08c-0.65-1.46-1.69-4.51-2.69-6.46a12.42,12.42,0,0,0-3.15-3.73,3.65,3.65,0,0,0-1.62-.81C53.53,9.6,49.89,9.08,48,8.82S38.5,8.33,37.2,8.33s-9,.23-10.84.49-5.49.78-6.07,0.91a3.65,3.65,0,0,0-1.62.81,12.42,12.42,0,0,0-3.15,3.73c-1,1.95-2,5-2.69,6.46a5.71,5.71,0,0,1-2.27,3.08c-1.27.81-3.25,2-3.51,2.27a1,1,0,0,0-.39.65,48,48,0,0,0-.62,6V35c0,0.42.16-.47,0.49-0.69a1.06,1.06,0,0,1,.94,0c0.45,0.07,3.67.75,4.94,1s4.87,1.17,5.36,1.3,1.91,0.59,2,.91a3.26,3.26,0,0,1,.64-2,17.2,17.2,0,0,1,1.75-1.66,5.69,5.69,0,0,1,2.76-1.43,55.46,55.46,0,0,1,6.4-.89c1.62-.11,4.58-0.31,5.94-0.31s4.32,0.19,5.94.31a55.47,55.47,0,0,1,6.4.89,5.69,5.69,0,0,1,2.76,1.43,17.2,17.2,0,0,1,1.75,1.66,3.26,3.26,0,0,1,.64,2c0-.32,1.47-0.78,2-0.91s4.09-1,5.36-1.3,4.48-.94,4.94-1a1.06,1.06,0,0,1,.94,0c0.32,0.22.49,1.11,0.49,0.69V32.72A48,48,0,0,0,67.75,26.74Z"/><polygon class="cls-3" points="54.69 37.55 54.69 37.55 54.69 37.55 54.69 37.55"/><polygon class="cls-4" points="19.45 10.02 18.52 11.29 18.42 11.2 19.45 10.02"/><path class="cls-6" d="M18.17,24.25l-1-.75c-0.6-.44-1.36-1.08-2.19-1.63l-0.61-.42-0.3-.21a0.61,0.61,0,0,1-.22-0.32A1.49,1.49,0,0,1,14,19.65a10.68,10.68,0,0,0,.55-1.11h0a6.56,6.56,0,0,1-.48,1.15A1.49,1.49,0,0,0,14,20.88a1,1,0,0,0,.47.47l0.6,0.44c0.82,0.57,1.57,1.22,2.16,1.68l1,0.78h0Z"/><path class="cls-4" d="M11,20.51a13,13,0,0,0-.29-2.27c-0.13-.32-0.13-0.71-0.86-0.6s-2.94.52-3.34,0.67a1.75,1.75,0,0,0-.93,1.1,5.37,5.37,0,0,0-.31,1.1,1.25,1.25,0,0,0,.8,1A15.15,15.15,0,0,0,9.6,22,1.34,1.34,0,0,0,11,20.51Z"/><path class="cls-4" d="M12,22.38l0,0.74a1.5,1.5,0,0,0,.12.69l0.28,0.82c0.13,0.58.28,1.14,0.37,1.6S12.81,27,12.81,27h0l-0.17-.72c-0.1-.43-0.28-1-0.44-1.56l-0.24-.84a1.64,1.64,0,0,1-.08-0.75c0.06-.44.13-0.73,0.13-0.73h0Z"/><path class="cls-5" d="M24.27,32.65a25.76,25.76,0,0,0-4-3.43,34.78,34.78,0,0,0-6.58-2.08A18.88,18.88,0,0,0,10,26.6a13.79,13.79,0,0,0-1.6.13,5.93,5.93,0,0,0-.13,2.36c0.22,1.13.35,1.8,0.93,2a18.21,18.21,0,0,0,2.63.78,1.76,1.76,0,0,0,.94-0.15,2,2,0,0,1,1.45-.37c2.35,0.27,4,.72,4.87.5s3.3-1,3.3-1Z"/><path class="cls-6" d="M24.27,32.65A31.79,31.79,0,0,0,21,29.77a7.11,7.11,0,0,0-1.91-1c-0.68-.25-1.38-0.47-2.07-0.67-1.4-.4-2.81-0.76-4.24-1a20.53,20.53,0,0,0-2.15-.31,4.73,4.73,0,0,0-1.07,0l-1.09.09,0.11-.09A5.79,5.79,0,0,0,8.41,29c0.07,0.37.13,0.75,0.23,1.11a1.37,1.37,0,0,0,.53.88,9.34,9.34,0,0,0,1.05.38c0.36,0.12.73,0.23,1.09,0.33a2.27,2.27,0,0,0,1.08.11,10,10,0,0,0,1-.44,2.84,2.84,0,0,1,1.17,0l1.14,0.16c0.76,0.11,1.51.25,2.26,0.33a3.4,3.4,0,0,0,1.11,0l1.1-.33,2.2-.64h0Zm0,0L22.4,30.9h0l-2.18.7-1.09.34A3.5,3.5,0,0,1,18,32c-0.77-.07-1.52-0.21-2.27-0.31l-1.13-.15a2.67,2.67,0,0,0-1.1,0,8.57,8.57,0,0,1-1.05.46,2.47,2.47,0,0,1-1.17-.1l-1.11-.32a9.13,9.13,0,0,1-1.1-.4,1.59,1.59,0,0,1-.65-1C8.3,29.77,8.23,29.4,8.16,29a5.74,5.74,0,0,1,.15-2.32l0-.08H8.42l1.09-.08a5,5,0,0,1,1.11,0,20.65,20.65,0,0,1,2.17.33c1.43,0.3,2.84.68,4.24,1.09,0.7,0.21,1.39.43,2.08,0.7a6.82,6.82,0,0,1,1.93,1A31.85,31.85,0,0,1,24.27,32.65Z"/><circle class="cls-23" cx="12.21" cy="29.45" r="1.79"/><circle class="cls-24" cx="12.21" cy="29.45" r="1.27"/><path class="cls-25" d="M14.75,28.18c-0.55-.23.28,1,0.43,1.29a1.59,1.59,0,0,0,1.52.86c1.13,0.11,2.42.33,3,.3a1.07,1.07,0,0,0,.72-0.19,11.47,11.47,0,0,0-1.67-1C18.15,29.15,15.12,28.33,14.75,28.18Z"/><path class="cls-12" d="M19.45,30.24c-0.36,0-.89-0.08-1.44-0.15l-1.27-.15a1.23,1.23,0,0,1-1.2-.64v0l-0.12-.19-0.21-.35,1,0.3c0.92,0.27,2.06.6,2.38,0.73A6.13,6.13,0,0,1,19.45,30.24Z"/><path class="cls-19" d="M37.2,34.89s-14.6.16-15.86-.3"/><path class="cls-19" d="M37.2,34.9s-4,.1-7.94.11c-2,0-4,0-5.46-.11-0.74,0-1.36-.09-1.8-0.16a4.47,4.47,0,0,1-.67-0.14v0a4.45,4.45,0,0,0,.67.08c0.43,0,1,.05,1.79.06,1.49,0,3.47.05,5.45,0.09l7.94,0.07v0Z"/><path class="cls-19" d="M25.94,33.87l0.79,0,1.74,0,1.74,0,0.79,0-0.79,0-1.74,0-1.74,0Z"/><path class="cls-2" d="M8.06,38.05c0.67,0.19,7,1.56,8.62,1.88a4,4,0,0,1,2.77,1.58c0.32,0.56,1.26,3,1.26,3s-7.58-.06-9.46-0.71S8.17,42,8.06,40.5A14.48,14.48,0,0,1,8.06,38.05Z"/><path class="cls-6" d="M19.45,41.51c-3.39-.31-6.76-0.72-10.13-1.14l0.16-.24a6.31,6.31,0,0,0,.83,1.12,2.68,2.68,0,0,0,1.21.57c0.45,0.08.95,0.12,1.42,0.18l1.43,0.17q2.86,0.35,5.71.75-2.87-.21-5.74-0.49l-1.43-.14c-0.48-.06-0.94-0.08-1.44-0.16a3,3,0,0,1-1.37-.63A5.68,5.68,0,0,1,9.2,40.3L9,40l0.33,0C12.73,40.51,16.1,41,19.45,41.51Z"/><path class="cls-26" d="M37.2,44.83L22,44.63a0.57,0.57,0,0,1-.33-0.21s-0.47-1.15-.68-1.85c-0.08-.26.06-0.37,0.38-0.34,1.86,0.22,6.63.46,7.86,0.53,1.48,0.09,7.45.26,7.93,0.24"/><path class="cls-4" d="M12.71,21c-0.59,0-3.74-.3-4.49-0.35s-3-.28-3-0.28a2.86,2.86,0,0,0,.53.71,13.67,13.67,0,0,0,2.09.35c0.42,0,2.94.2,3.2,0.2a7.83,7.83,0,0,1,1.21.31Z"/><path class="cls-6" d="M12.71,21L9,20.7l-3.73-.35,0,0c0.08,0.13.16,0.27,0.25,0.39a0.92,0.92,0,0,0,.31.32,7,7,0,0,0,.91.18,17,17,0,0,0,1.85.19l1.86,0.12a6.14,6.14,0,0,1,.93.1c0.3,0.08.6,0.17,0.9,0.27h0Zm0,0-0.44.95h0c-0.3-.09-0.6-0.18-0.9-0.25a6,6,0,0,0-.92-0.08l-1.86-.12a16.14,16.14,0,0,1-1.86-.2,6.83,6.83,0,0,1-.92-0.19,1,1,0,0,1-.33-0.34c-0.09-.13-0.17-0.26-0.25-0.4l0,0h0c1.24,0.13,2.49.25,3.73,0.33Z"/><path class="cls-12" d="M12.5,31.86s-1.18-.37-2-0.65a2.29,2.29,0,0,1-1.32-1.73c0-.53,0-2,0-2.11V27.16l0.22,0s2.48,0.35,3.8.5a28.86,28.86,0,0,1,5.41,1.47,25,25,0,0,1,3.1,1.95l-0.52.14a21.36,21.36,0,0,0-2.74-1.74,28.91,28.91,0,0,0-5.28-1.43c-1.1-.12-3-0.38-3.6-0.47,0,0.45,0,1.45,0,1.85a1.91,1.91,0,0,0,1.05,1.39c0.81,0.28,2.22.72,2.23,0.72Z"/><path class="cls-27" d="M23.91,32.73H35.53a11.23,11.23,0,0,0,.77,1.3,1.76,1.76,0,0,0,.89.72"/><path class="cls-19" d="M37.2,34.89s-14.6.16-15.86-.3"/><path class="cls-19" d="M37.2,34.9s-4,.1-7.94.11c-2,0-4,0-5.46-.11-0.74,0-1.36-.09-1.8-0.16a4.47,4.47,0,0,1-.67-0.14v0a4.45,4.45,0,0,0,.67.08c0.43,0,1,.05,1.79.06,1.49,0,3.47.05,5.45,0.09l7.94,0.07v0Z"/><path class="cls-28" d="M38,34.12a1.48,1.48,0,0,1-.77.64"/><path class="cls-29" d="M59.85,18.54c-0.18-.44-1.88-4.19-2.27-4.89-0.24-.43-1-1.52-1.65-2.41-0.66-.07-6.43-1-8.64-1.16s-9-.32-10.09-0.32-7.88.22-10.09,0.39-8,1-8.64,1.1c-0.66.89-1.41,2-1.65,2.41-0.39.7-2.09,4.45-2.27,4.89a3.83,3.83,0,0,0-.3,1.63,1.16,1.16,0,0,0,1,.54c0.41,0,5.37,0,6.43,0l15.48-.09,15.48,0.09c1.06,0,6,0,6.43,0a1.16,1.16,0,0,0,1-.54A3.83,3.83,0,0,0,59.85,18.54Z"/><path class="cls-4" d="M59.85,18.54c-0.56-1.27-1.14-2.53-1.73-3.78a11.33,11.33,0,0,0-1-1.82c-0.39-.57-0.79-1.14-1.2-1.7h0l-4.66-.67c-1.55-.21-3.11-0.44-4.67-0.53-3.13-.15-6.27-0.23-9.4-0.27s-6.27.18-9.4,0.35c-1.56.09-3.12,0.32-4.67,0.52l-4.66.64,0,0a20.08,20.08,0,0,0-2,3c-0.52,1.09-1,2.19-1.52,3.28a8.6,8.6,0,0,0-.65,1.67,2.56,2.56,0,0,0-.09.87,0.83,0.83,0,0,0,.65.47c1.17,0.11,2.4,0,3.6.06l14.48,0c4.83,0,9.66,0,14.48.05l7.24,0h3.62a8.17,8.17,0,0,0,.9,0,1.25,1.25,0,0,0,.79-0.39,1.39,1.39,0,0,0,0-.88A5.22,5.22,0,0,0,59.85,18.54Zm0,0a5.24,5.24,0,0,1,.25.87,1.39,1.39,0,0,1,0,.89,1.25,1.25,0,0,1-.79.4,8.22,8.22,0,0,1-.9,0H54.77l-7.24,0c-4.83,0-9.66-.08-14.48,0l-14.48.08c-1.21,0-2.41.06-3.63-.05a0.93,0.93,0,0,1-.74-0.56,2.62,2.62,0,0,1,.09-0.92,8.74,8.74,0,0,1,.65-1.7c0.5-1.1,1-2.2,1.53-3.29a20.18,20.18,0,0,1,2-3v0h0l4.66-.63c1.55-.19,3.11-0.41,4.68-0.5q4.7-.25,9.4-0.33c3.14,0,6.27.13,9.4,0.29,1.57,0.09,3.12.33,4.67,0.54l4.65,0.68h0q0.61,0.84,1.19,1.7a11.33,11.33,0,0,1,1,1.82C58.71,16,59.29,17.27,59.85,18.54Z"/><polygon class="cls-4" points="54.95 10.02 55.98 11.2 55.88 11.29 54.95 10.02"/><path class="cls-6" d="M56.22,24.24l1-.78c0.58-.46,1.34-1.11,2.16-1.68l0.6-.44a1,1,0,0,0,.47-0.47,1.49,1.49,0,0,0-.09-1.18,6.54,6.54,0,0,1-.48-1.15h0a10.63,10.63,0,0,0,.55,1.11,1.49,1.49,0,0,1,.13,1.27,0.62,0.62,0,0,1-.22.32l-0.3.21-0.61.42c-0.83.55-1.59,1.18-2.19,1.63l-1,.75h0Z"/><path class="cls-4" d="M63.43,20.51a13,13,0,0,1,.29-2.27c0.13-.32.13-0.71,0.86-0.6s2.94,0.52,3.34.67a1.75,1.75,0,0,1,.93,1.1,5.36,5.36,0,0,1,.31,1.1,1.25,1.25,0,0,1-.8,1A15.15,15.15,0,0,1,64.8,22,1.34,1.34,0,0,1,63.43,20.51Z"/><path class="cls-4" d="M62.4,22.37l0.07,0.19a2.92,2.92,0,0,1,.15.52,1.76,1.76,0,0,1-.06.8l-0.2.85c-0.18.56-.39,1.13-0.51,1.53S61.6,27,61.6,27h0l0.16-.72c0.1-.43.28-1,0.43-1.57a4.65,4.65,0,0,0,.33-1.57c-0.06-.44-0.13-0.73-0.13-0.73h0Z"/><path class="cls-5" d="M50.13,32.65a25.76,25.76,0,0,1,4-3.43,34.78,34.78,0,0,1,6.58-2.08,18.88,18.88,0,0,1,3.64-.54,13.79,13.79,0,0,1,1.6.13,5.93,5.93,0,0,1,.13,2.36c-0.22,1.13-.35,1.8-0.93,2a18.2,18.2,0,0,1-2.63.78,1.76,1.76,0,0,1-.94-0.15,2,2,0,0,0-1.45-.37c-2.35.27-4,.72-4.87,0.5s-3.3-1-3.3-1Z"/><path class="cls-6" d="M50.13,32.65a31.87,31.87,0,0,1,3.22-3,6.82,6.82,0,0,1,1.93-1c0.68-.26,1.38-0.49,2.08-0.7,1.4-.41,2.81-0.79,4.24-1.09a20.65,20.65,0,0,1,2.17-.33,5,5,0,0,1,1.11,0L66,26.61h0.09l0,0.08A5.74,5.74,0,0,1,66.24,29c-0.07.38-.14,0.75-0.25,1.13a1.59,1.59,0,0,1-.65,1,9.1,9.1,0,0,1-1.1.4l-1.1.32A2.47,2.47,0,0,1,62,32a8.58,8.58,0,0,1-1.05-.46,2.67,2.67,0,0,0-1.1,0l-1.13.15c-0.75.11-1.51,0.24-2.27,0.31a3.5,3.5,0,0,1-1.17,0l-1.09-.34L52,30.91h0Zm0,0L52,30.85h0l2.2,0.64,1.1,0.33a3.4,3.4,0,0,0,1.11,0c0.75-.08,1.51-0.22,2.26-0.33l1.14-.16a2.84,2.84,0,0,1,1.17,0,10,10,0,0,0,1,.44,2.27,2.27,0,0,0,1.08-.11c0.37-.1.73-0.21,1.09-0.33A9.35,9.35,0,0,0,65.23,31a1.37,1.37,0,0,0,.53-0.88c0.1-.36.16-0.74,0.23-1.11a5.79,5.79,0,0,0-.14-2.22L66,26.85l-1.09-.09a4.73,4.73,0,0,0-1.07,0,20.51,20.51,0,0,0-2.15.31c-1.42.28-2.84,0.65-4.24,1-0.7.2-1.39,0.42-2.07,0.67a7.11,7.11,0,0,0-1.91,1A31.77,31.77,0,0,0,50.13,32.65Z"/><circle class="cls-23" cx="62.19" cy="29.45" r="1.79"/><circle class="cls-24" cx="62.19" cy="29.45" r="1.27"/><path class="cls-25" d="M59.65,28.18c0.55-.23-0.28,1-0.43,1.29a1.59,1.59,0,0,1-1.52.86c-1.13.11-2.42,0.33-3,.3A1.07,1.07,0,0,1,54,30.43a11.47,11.47,0,0,1,1.67-1C56.25,29.15,59.28,28.33,59.65,28.18Z"/><path class="cls-12" d="M55,30.24c0.36,0,.89-0.08,1.44-0.15l1.27-.15a1.23,1.23,0,0,0,1.2-.64v0L59,29.08l0.21-.35-1,.3c-0.92.27-2.06,0.6-2.38,0.73A6.13,6.13,0,0,0,55,30.24Z"/><path class="cls-19" d="M37.2,34.89s14.6,0.16,15.86-.3"/><path class="cls-19" d="M37.2,34.88l7.94-.07c2,0,4-.08,5.45-0.09,0.74,0,1.36,0,1.79-.06a4.46,4.46,0,0,0,.67-0.08v0a4.45,4.45,0,0,1-.67.14c-0.43.08-1.05,0.11-1.8,0.16C49.11,35,47.12,35,45.14,35c-4,0-7.94-.11-7.94-0.11v0Z"/><path class="cls-19" d="M48.46,33.87l-0.79,0-1.74,0-1.74,0-0.79,0,0.79,0,1.74,0,1.74,0Z"/><path class="cls-2" d="M66.33,38.05c-0.67.19-7,1.56-8.62,1.88a4,4,0,0,0-2.77,1.58c-0.32.56-1.26,3-1.26,3s7.58-.06,9.46-0.71S66.23,42,66.33,40.5A14.48,14.48,0,0,0,66.33,38.05Z"/><path class="cls-6" d="M54.95,41.51c3.35-.55,6.72-1,10.09-1.46l0.33,0-0.17.28a5.68,5.68,0,0,1-.88,1.19,3,3,0,0,1-1.37.63c-0.5.08-1,.11-1.44,0.16l-1.43.14q-2.87.27-5.74,0.49,2.85-.41,5.71-0.75L61.47,42c0.47-.06,1-0.09,1.42-0.18a2.68,2.68,0,0,0,1.22-.57,6.32,6.32,0,0,0,.83-1.12l0.16,0.24C61.71,40.79,58.33,41.2,54.95,41.51Z"/><path class="cls-26" d="M37.2,44.83l15.15-.19a0.57,0.57,0,0,0,.33-0.21s0.47-1.15.68-1.85c0.08-.26-0.06-0.37-0.38-0.34-1.86.22-6.63,0.46-7.86,0.53C43.65,42.86,37.68,43,37.2,43"/><path class="cls-4" d="M61.69,21c0.59,0,3.74-.3,4.49-0.35s3-.28,3-0.28a2.86,2.86,0,0,1-.53.71,13.67,13.67,0,0,1-2.09.35c-0.42,0-2.94.2-3.2,0.2a7.83,7.83,0,0,0-1.21.31Z"/><path class="cls-6" d="M61.68,21l3.74-.31c1.24-.09,2.49-0.21,3.73-0.33h0l0,0c-0.08.14-.16,0.27-0.25,0.4a1,1,0,0,1-.33.34,6.83,6.83,0,0,1-.92.19,16.14,16.14,0,0,1-1.86.2L64,21.59a6,6,0,0,0-.92.08c-0.3.07-.6,0.16-0.9,0.25h0Zm0,0,0.45,0.93h0c0.3-.1.59-0.19,0.9-0.27a6.14,6.14,0,0,1,.93-0.1l1.86-.12a17,17,0,0,0,1.85-.19A7,7,0,0,0,68.58,21a0.93,0.93,0,0,0,.32-0.32c0.09-.13.17-0.26,0.25-0.39l0,0-3.73.35Z"/><path class="cls-12" d="M61.89,31.86s1.18-.37,2-0.65a2.29,2.29,0,0,0,1.32-1.73c0-.53,0-2,0-2.11V27.16l-0.22,0s-2.48.35-3.8,0.5a28.86,28.86,0,0,0-5.41,1.47,25,25,0,0,0-3.1,1.95l0.52,0.14a21.35,21.35,0,0,1,2.74-1.74,28.91,28.91,0,0,1,5.28-1.43c1.1-.12,3-0.38,3.6-0.47,0,0.45,0,1.45,0,1.85a1.91,1.91,0,0,1-1.05,1.39c-0.81.28-2.22,0.72-2.23,0.72Z"/><path class="cls-2" d="M54.64,36.92a17.77,17.77,0,0,0-3.46-.87c-1.95-.28-5.76-0.32-7.71-0.37s-5.11.13-6.28,0c-1.17.13-4.33,0-6.28,0s-5.76.08-7.71,0.37a17.77,17.77,0,0,0-3.46.87,1.77,1.77,0,0,0,.17,1.34,4.38,4.38,0,0,0,1.49,1.49,6.71,6.71,0,0,0,3.12.71c1.85,0.16,6.88.26,8.05,0.32s3.41,0,4.61,0,3.44,0.06,4.61,0,6.2-.16,8.05-0.32A6.71,6.71,0,0,0,53,39.76a4.38,4.38,0,0,0,1.49-1.49A1.77,1.77,0,0,0,54.64,36.92Z"/><path class="cls-27" d="M50.49,32.73H38.87a11.24,11.24,0,0,1-.77,1.3,1.76,1.76,0,0,1-.89.72"/><path class="cls-19" d="M37.2,34.89s14.6,0.16,15.86-.3"/><path class="cls-19" d="M37.2,34.88l7.94-.07c2,0,4-.08,5.45-0.09,0.74,0,1.36,0,1.79-.06a4.46,4.46,0,0,0,.67-0.08v0a4.45,4.45,0,0,1-.67.14c-0.43.08-1.05,0.11-1.8,0.16C49.11,35,47.12,35,45.14,35c-4,0-7.94-.11-7.94-0.11v0Z"/><path class="cls-28" d="M36.43,34.12a1.48,1.48,0,0,0,.77.64"/><path class="cls-6" d="M36.48,32a2,2,0,0,1,.43-0.09L37,32.1a0.8,0.8,0,0,0,.16.18,0.8,0.8,0,0,0,.16-0.18l0.13-.21a2,2,0,0,1,.43.09l0.47,0.16a1,1,0,0,1-.19.26c-0.09.06-.11,0-0.15,0a0.58,0.58,0,0,0-.28-0.16,0.53,0.53,0,0,0-.17,0L37.2,34.33l-0.39-2.12a0.53,0.53,0,0,0-.17,0,0.57,0.57,0,0,0-.28.16s-0.06.1-.15,0A1,1,0,0,1,36,32.14Z"/><path class="cls-6" d="M36.48,32a2,2,0,0,1,.43-0.09L37,32.1a0.8,0.8,0,0,0,.16.18,0.8,0.8,0,0,0,.16-0.18l0.13-.21a2,2,0,0,1,.43.09l0.47,0.16a1,1,0,0,1-.19.26c-0.09.06-.11,0-0.15,0a0.58,0.58,0,0,0-.28-0.16,0.53,0.53,0,0,0-.17,0L37.2,34.33l-0.39-2.12a0.53,0.53,0,0,0-.17,0,0.57,0.57,0,0,0-.28.16s-0.06.1-.15,0A1,1,0,0,1,36,32.14Z"/><path class="cls-6" d="M36.48,32a2,2,0,0,1,.43-0.09L37,32.1a0.8,0.8,0,0,0,.16.18,0.8,0.8,0,0,0,.16-0.18l0.13-.21a2,2,0,0,1,.43.09l0.47,0.16a1,1,0,0,1-.19.26c-0.09.06-.11,0-0.15,0a0.58,0.58,0,0,0-.28-0.16,0.53,0.53,0,0,0-.17,0L37.2,34.33l-0.39-2.12a0.53,0.53,0,0,0-.17,0,0.57,0.57,0,0,0-.28.16s-0.06.1-.15,0A1,1,0,0,1,36,32.14Z"/><path class="cls-6" d="M36.48,32a2,2,0,0,1,.43-0.09L37,32.1a0.8,0.8,0,0,0,.16.18,0.8,0.8,0,0,0,.16-0.18l0.13-.21a2,2,0,0,1,.43.09l0.47,0.16a1,1,0,0,1-.19.26c-0.09.06-.11,0-0.15,0a0.58,0.58,0,0,0-.28-0.16,0.53,0.53,0,0,0-.17,0L37.2,34.33l-0.39-2.12a0.53,0.53,0,0,0-.17,0,0.57,0.57,0,0,0-.28.16s-0.06.1-.15,0A1,1,0,0,1,36,32.14Z"/><path class="cls-12" d="M36.48,32a2,2,0,0,1,.43-0.09L37,32.1a0.8,0.8,0,0,0,.16.18,0.8,0.8,0,0,0,.16-0.18l0.13-.21a2,2,0,0,1,.43.09l0.47,0.16a1,1,0,0,1-.19.26c-0.09.06-.11,0-0.15,0a0.58,0.58,0,0,0-.28-0.16,0.53,0.53,0,0,0-.17,0L37.2,34.33l-0.39-2.12a0.53,0.53,0,0,0-.17,0,0.57,0.57,0,0,0-.28.16s-0.06.1-.15,0A1,1,0,0,1,36,32.14Z"/><path class="cls-12" d="M37.2,31.6a4.46,4.46,0,0,0-1.3.3l0,0.18a5.14,5.14,0,0,1,1.27-.29,4,4,0,0,1,1.27.29l0-.18A4.12,4.12,0,0,0,37.2,31.6Z"/><path class="cls-30" d="M54.05,35.57a17.2,17.2,0,0,0-1.75-1.66,5.69,5.69,0,0,0-2.76-1.43,55.47,55.47,0,0,0-6.4-.89c-1.62-.11-4.58-0.31-5.94-0.31s-4.32.19-5.94,0.31a55.46,55.46,0,0,0-6.4.89,5.69,5.69,0,0,0-2.76,1.43,17.2,17.2,0,0,0-1.75,1.66c-0.52.65-.91,2-0.42,2.69a4.38,4.38,0,0,0,1.49,1.49,6.71,6.71,0,0,0,3.12.71c1.85,0.16,6.88.26,8.05,0.32s3.41,0,4.61,0,3.44,0.06,4.61,0,6.2-.16,8.05-0.32A6.71,6.71,0,0,0,53,39.76a4.38,4.38,0,0,0,1.49-1.49C55,37.59,54.57,36.22,54.05,35.57Z"/></svg>