<svg id="Buddy_electric-2" data-name="Buddy electric" xmlns="http://www.w3.org/2000/svg" viewBox="0 0 198 158.35"><defs><style>.cls-1{fill:#080808;stroke:#080808;stroke-width:0.23px;}.cls-1,.cls-18,.cls-3{stroke-miterlimit:10;}.cls-2{fill:#202020;}.cls-15,.cls-18,.cls-3{fill:none;}.cls-18,.cls-3{stroke:#202020;}.cls-3{stroke-width:0.7px;}.cls-4{fill:#697e8a;}.cls-5{fill:#415762;}.cls-6{fill:#969696;}.cls-7{fill:#717171;}.cls-8{fill:#8ca8b8;}.cls-9{fill:#666466;}.cls-10{fill:#484749;}.cls-11{fill:#5c5f61;}.cls-12{fill:#abadb0;}.cls-13{fill:#c60000;}.cls-14{fill:#e2e3e4;}.cls-16{fill:#363537;}.cls-17{fill:#0d0d0e;}.cls-18{stroke-width:1.16px;}.cls-19{fill:#f8d689;}.cls-20{fill:#e8dbcc;}.cls-21{fill:#f4cb19;}</style></defs><title>Green street</title><polygon class="cls-1" points="146.78 137.01 112.17 138.97 114.83 150 178.77 150 181.9 138.97 146.78 137.01"/><polygon class="cls-2" points="146.78 137.01 120.01 138.97 125.23 150 168.33 150 173.55 138.97 146.78 137.01"/><path class="cls-1" d="M173.29,139.52a0.8,0.8,0,0,0-.24-0.59l-6.41-.47c-9.87-.15-29.3-0.08-39.34,0l-6.38.47-0.12,1.72L121,141.1c1.4,2.1,7.4,2,10.06,2.41,3.71,0.63,28.51,3.09,31,3.56,1.92,0.36,5.51,1.25,7.66-.05Z"/><path class="cls-2" d="M132.22,2.05c0.54,0.26,1.08.53,1.63,0.75a4.53,4.53,0,0,0,1.66.4l3.59,0c2.4,0,4.79,0,7.19,0h0.57V3.73l0.07,8.34,0,8.34,0,16.69-2.17,0,0.42-16.68,0.21-8.34,0.26-8.34,0.57,0.59c-2.39-.13-4.79-0.26-7.18-0.42l-3.59-.23a4.93,4.93,0,0,1-1.78-.56c-0.54-.27-1.06-0.58-1.58-0.87Z"/><path class="cls-2" d="M170.07,6.21s-0.65-.44-1.72-1.26a8.49,8.49,0,0,0-.9-0.62,7,7,0,0,0-1.11-.59A8.66,8.66,0,0,0,165,3.3c-0.48-.1-1-0.2-1.52-0.27S162.38,3,161.8,3l-1.93.1c-1.33.07-2.73,0.16-4.17,0.18s-2.94.1-4.46,0.1l-4.59,0-4.61,0c-1.52,0-3-.07-4.46-0.1s-2.85-.11-4.17-0.18L131.45,3h-0.39L130.6,3l-0.89,0c-0.53.08-1,.17-1.48,0.27a8.68,8.68,0,0,0-1.33.45,7.08,7.08,0,0,0-1.11.59,8.5,8.5,0,0,0-.9.62c-1.06.81-1.72,1.26-1.72,1.26l-0.09-.11,0.41-.37c0.27-.23.64-0.62,1.15-1.07A9.09,9.09,0,0,1,125.52,4a7.76,7.76,0,0,1,1.11-.72A9.34,9.34,0,0,1,128,2.61c0.51-.16,1.06-0.29,1.63-0.4s1.17-.13,1.81-0.15h6.11l9.07,0,9.07,0h6.11c0.63,0,1.23.1,1.81,0.15s1.12,0.24,1.63.4a9.25,9.25,0,0,1,1.38.62,7.58,7.58,0,0,1,1.11.72,9,9,0,0,1,.87.72c0.51,0.45.87,0.83,1.15,1.06l0.41,0.37Z"/><path class="cls-2" d="M161.11,2.21l-0.55.32a14.21,14.21,0,0,1-1.49.78,4.27,4.27,0,0,1-1.12.32c-0.43.05-.82,0.06-1.26,0.09l-2.7.16-7.35.42,0-1.17,7.36,0,2.7,0c0.42,0,.87,0,1.22,0a3.94,3.94,0,0,0,1-.22,13.76,13.76,0,0,0,1.52-.64L161,2.05Z"/><line class="cls-3" x1="141.91" y1="3.72" x2="145.89" y2="5.78"/><line class="cls-3" x1="150.49" y1="3.62" x2="145.89" y2="5.96"/><path class="cls-4" d="M175.18,141.88c0,0.77-.06,1.16.69,0.93s5.78-2,5.78-2L186,113.62v-11.8l-1.78-58.05L182,38.87l-4.74-.46,0.62,2.78,0.08,4.41"/><path class="cls-4" d="M118.69,141.88c0,0.77.06,1.16-.69,0.93s-5.78-2-5.78-2l-4.33-27.18v-11.8l1.78-58.05,2.22-4.9,4.74-.46L116,41.19l-0.08,4.41"/><path class="cls-5" d="M115.62,107.93c-0.24,2.55-1,9.23-.81,10.83s19.44,4.56,24.85,4.95,34.65-1.55,36.58-2.09,3-1.42,2.79-2.24-0.71-9-.7-9.41S115.62,107.93,115.62,107.93Z"/><path class="cls-6" d="M173.09,130.54c0,0.4-.07.81-0.09,1.21-0.25,4.14-.36,7.07-0.47,9.05h-0.08c-1.63-.39-22.27-1-25.44-1s-23.81.62-25.44,1H121.5c-0.11-2-.22-4.92-0.47-9.05,0-.4-0.06-0.8-0.09-1.21a2,2,0,0,0,1.92.74c1.82-.16,22.85-0.31,24.16-0.31s22.33,0.15,24.16.31A2,2,0,0,0,173.09,130.54Z"/><path d="M173.11,130.54c-0.14,1.71-.19,3.42-0.29,5.13l-0.26,5.13v0h-0.11c-1-.13-2.11-0.2-3.17-0.25l-3.18-.15-6.36-.24c-4.24-.13-8.49-0.27-12.72-0.32s-8.48.21-12.72,0.35l-6.36.26-3.18.16c-1.06.05-2.12,0.13-3.16,0.26h-0.19V140.8l-0.27-5.13c-0.1-1.71-.15-3.42-0.3-5.13l0-.34,0.21,0.27a1.92,1.92,0,0,0,1.35.7c0.52,0,1.09,0,1.63,0l3.29-.06,6.58-.12,6.58-.07,6.58,0L160.17,131l6.58,0.14,3.29,0.07c0.55,0,1.09,0,1.64,0a2,2,0,0,0,1.41-.72l0,0v0Zm0,0a2,2,0,0,1-1.4.72c-0.55,0-1.1,0-1.65,0l-3.29,0-6.58-.09L147,131.07l-13.15.13-6.58.11-3.29.05c-0.55,0-1.08,0-1.66,0a2.12,2.12,0,0,1-1.48-.77l0.18-.07c0.15,1.71.19,3.42,0.29,5.13l0.26,5.13-0.1-.09h0.06c1.07-.13,2.13-0.21,3.19-0.26l3.18-.16,6.36-.24c4.24-.14,8.48-0.27,12.73-0.32s8.49,0.21,12.73.36l6.36,0.26,3.18,0.16c1.06,0.05,2.12.13,3.18,0.26h0.07l0,0,0.28-5.13C172.88,134,172.94,132.26,173.08,130.57Z"/><path class="cls-7" d="M172.92,131.63c0-.36,0-0.73.08-1.09h-0.09a2.07,2.07,0,0,1-1.82.63c-1.82-.16-22.85-0.31-24.16-0.31s-22.34.15-24.16,0.31a2.07,2.07,0,0,1-1.82-.63h-0.08c0,0.1,0,.19,0,0.28,0,0.27,0,.55.06,0.82s0,0.26,0,.39a1.48,1.48,0,0,1,.45.08c1.23,0.39,11.28.59,13.37,0.88s9.13,1,14.46,1.75,10.21,1,13.61,1.78,6.44,1.31,8.29,1.62a1.75,1.75,0,0,0,1.45-.42C172.68,136.06,172.78,134.06,172.92,131.63Z"/><path class="cls-8" d="M178.33,43.51c0-3.79-1.55-5-5.1-5.34s-22.12-1.08-26.3-1.08-22.74.77-26.29,1.08-5.11,1.55-5.11,5.34,0.77,25,.77,29.62-0.77,36.66-.77,39.44,0.31,5.26,2.63,5.26,23.2-.77,28.77-0.77,26.45,0.77,28.77.77,2.63-2.47,2.63-5.26-0.77-34.8-.77-39.44S178.33,47.3,178.33,43.51Z"/><rect class="cls-9" x="117.71" y="59.75" width="57.82" height="40.99"/><polygon class="cls-10" points="175.85 98.75 121.55 59.21 118.02 59.21 118.02 100.2 175.85 100.2 175.85 98.75"/><polygon class="cls-2" points="147.09 45.6 146.78 45.6 117.71 45.6 117.71 59.75 146.78 59.75 147.09 59.75 176.16 59.75 176.16 45.6 147.09 45.6"/><polygon class="cls-2" points="147.09 99.42 146.78 99.42 117.99 99.42 117.99 115.58 146.78 115.58 147.09 115.58 175.88 115.58 175.88 99.42 147.09 99.42"/><circle class="cls-11" cx="168.49" cy="108.54" r="1.83"/><path class="cls-12" d="M170.33,108.54v0.13a1.41,1.41,0,0,1-.06.36,1.87,1.87,0,0,1-.23.52,2.32,2.32,0,0,1-.51.54,1.92,1.92,0,0,1-.82.31,1.85,1.85,0,0,1-1-.13,2.06,2.06,0,0,1-.82-0.68,2.1,2.1,0,0,1-.33-1.06,2.13,2.13,0,0,1,.31-1.07,2,2,0,0,1,.83-0.7,1.86,1.86,0,0,1,1-.14,1.88,1.88,0,0,1,.84.33,2.19,2.19,0,0,1,.51.56,2.09,2.09,0,0,1,.21.53,1.42,1.42,0,0,1,.05.36v0.13Zm0,0,0-.13a1.37,1.37,0,0,0-.07-0.35,1.58,1.58,0,0,0-.24-0.5,2.06,2.06,0,0,0-.52-0.48,1.9,1.9,0,0,0-.78-0.24,1.83,1.83,0,0,0-.89.13,2,2,0,0,0-.74.61,1.91,1.91,0,0,0-.3,1,1.94,1.94,0,0,0,.28,1,1.92,1.92,0,0,0,.74.64,1.87,1.87,0,0,0,1.71-.12,2,2,0,0,0,.51-0.5,1.84,1.84,0,0,0,.23-0.51,1.41,1.41,0,0,0,.06-0.36v-0.13Z"/><circle class="cls-13" cx="171.1" cy="112.49" r="1.83"/><path class="cls-12" d="M172.94,112.49v0.13a1.41,1.41,0,0,1-.06.36,1.86,1.86,0,0,1-.23.52,2.31,2.31,0,0,1-.51.54,1.92,1.92,0,0,1-.82.31,1.85,1.85,0,0,1-1-.13,2.06,2.06,0,0,1-.82-0.68,2.1,2.1,0,0,1-.33-1.06,2.13,2.13,0,0,1,.31-1.06,2,2,0,0,1,.83-0.7,1.89,1.89,0,0,1,1.85.19,2.17,2.17,0,0,1,.5.56,2.08,2.08,0,0,1,.21.53,1.42,1.42,0,0,1,.05.36v0.13Zm0,0,0-.13a1.36,1.36,0,0,0-.07-0.35,1.58,1.58,0,0,0-.24-0.5,2,2,0,0,0-.52-0.48,1.89,1.89,0,0,0-.78-0.24,1.83,1.83,0,0,0-.89.13,2,2,0,0,0-.74.61,1.91,1.91,0,0,0-.3,1,2,2,0,0,0,.28,1,1.93,1.93,0,0,0,.74.64,1.87,1.87,0,0,0,1.71-.12,2,2,0,0,0,.51-0.5,1.84,1.84,0,0,0,.23-0.51,1.37,1.37,0,0,0,.06-0.36v-0.13Z"/><circle class="cls-14" cx="163.44" cy="111.79" r="1.83"/><path class="cls-12" d="M165.28,111.79v0.13a1.41,1.41,0,0,1-.06.36,1.85,1.85,0,0,1-.23.52,2.26,2.26,0,0,1-.51.54,1.92,1.92,0,0,1-.82.31,1.85,1.85,0,0,1-1-.13,2.07,2.07,0,0,1-.82-0.68,2.1,2.1,0,0,1-.33-1.06,2.13,2.13,0,0,1,.31-1.07,2,2,0,0,1,.83-0.7,1.89,1.89,0,0,1,1.85.19,2.18,2.18,0,0,1,.5.56,2.1,2.1,0,0,1,.21.53,1.43,1.43,0,0,1,.05.36v0.13Zm0,0,0-.13a1.36,1.36,0,0,0-.07-0.35,1.59,1.59,0,0,0-.24-0.5,2,2,0,0,0-.52-0.48,1.9,1.9,0,0,0-.78-0.24,1.83,1.83,0,0,0-.89.13,2,2,0,0,0-.74.61,1.91,1.91,0,0,0-.3,1,1.75,1.75,0,0,0,1,1.61,1.87,1.87,0,0,0,1.71-.11,2,2,0,0,0,.51-0.5,1.83,1.83,0,0,0,.23-0.51,1.41,1.41,0,0,0,.06-0.36v-0.13Z"/><circle class="cls-2" cx="170.63" cy="133.68" r="0.59"/><circle class="cls-2" cx="169.27" cy="139.56" r="0.59"/><circle class="cls-14" cx="158.1" cy="111.79" r="1.83"/><path class="cls-12" d="M159.95,111.79v0.13a1.41,1.41,0,0,1-.06.36,1.85,1.85,0,0,1-.23.52,2.28,2.28,0,0,1-.51.54,1.92,1.92,0,0,1-.82.31,1.85,1.85,0,0,1-1-.13,2.07,2.07,0,0,1-.82-0.68,2.11,2.11,0,0,1-.33-1.06,2.13,2.13,0,0,1,.31-1.07,2,2,0,0,1,.83-0.7,1.86,1.86,0,0,1,1-.14,1.89,1.89,0,0,1,.84.33,2.18,2.18,0,0,1,.5.56,2.1,2.1,0,0,1,.21.53,1.42,1.42,0,0,1,.05.36v0.13Zm0,0,0-.13a1.36,1.36,0,0,0-.07-0.35,1.57,1.57,0,0,0-.24-0.5,2,2,0,0,0-.52-0.48,1.91,1.91,0,0,0-.78-0.24,1.83,1.83,0,0,0-.89.13,2,2,0,0,0-.74.61,1.91,1.91,0,0,0-.3,1,1.75,1.75,0,0,0,1,1.61,1.87,1.87,0,0,0,1.71-.12,2,2,0,0,0,.51-0.5,1.84,1.84,0,0,0,.23-0.51,1.37,1.37,0,0,0,.06-0.36v-0.13Z"/><circle class="cls-11" cx="173.48" cy="108.54" r="1.83"/><path class="cls-12" d="M175.32,108.54v0.13a1.41,1.41,0,0,1-.06.36,1.83,1.83,0,0,1-.23.52,2.29,2.29,0,0,1-.51.54,1.92,1.92,0,0,1-.82.31,1.86,1.86,0,0,1-1-.13,2.06,2.06,0,0,1-.82-0.68,2.1,2.1,0,0,1-.33-1.06,2.13,2.13,0,0,1,.31-1.07,2,2,0,0,1,.83-0.7,1.86,1.86,0,0,1,1-.14,1.89,1.89,0,0,1,.84.33,2.18,2.18,0,0,1,.5.56,2.09,2.09,0,0,1,.21.53,1.42,1.42,0,0,1,.05.36v0.13Zm0,0,0-.13a1.36,1.36,0,0,0-.07-0.35,1.63,1.63,0,0,0-.24-0.5,2,2,0,0,0-.52-0.48,1.88,1.88,0,0,0-.78-0.25,1.84,1.84,0,0,0-.89.13,2,2,0,0,0-.74.61,1.91,1.91,0,0,0-.3,1,1.94,1.94,0,0,0,.28,1,1.92,1.92,0,0,0,.74.64,1.87,1.87,0,0,0,1.71-.12,2,2,0,0,0,.51-0.5,1.83,1.83,0,0,0,.23-0.51,1.37,1.37,0,0,0,.06-0.36v-0.13Z"/><circle class="cls-13" cx="169.27" cy="43.77" r="1.11"/><path class="cls-12" d="M170.39,43.77a1.72,1.72,0,0,1,0,.3,1.13,1.13,0,0,1-.45.65,1.18,1.18,0,0,1-.5.19,1.13,1.13,0,0,1-.6-0.08,1.18,1.18,0,0,1-.7-1.06,1.3,1.3,0,0,1,.19-0.65,1.24,1.24,0,0,1,.5-0.43,1.11,1.11,0,0,1,.61-0.08,1.21,1.21,0,0,1,.51.2,1.13,1.13,0,0,1,.44.66A1.63,1.63,0,0,1,170.39,43.77Zm0,0a1.8,1.8,0,0,0-.05-0.29,1.06,1.06,0,0,0-.46-0.6,1.16,1.16,0,0,0-1-.07,1.06,1.06,0,0,0,0,1.93,1.14,1.14,0,0,0,1-.07,1,1,0,0,0,.45-0.61A1.76,1.76,0,0,0,170.37,43.77Z"/><circle class="cls-11" cx="172.26" cy="43.77" r="1.11"/><path class="cls-14" d="M173.38,43.77a1.73,1.73,0,0,1,0,.3,1.13,1.13,0,0,1-.45.65,1.17,1.17,0,0,1-.5.19,1.13,1.13,0,0,1-.6-0.08,1.17,1.17,0,0,1-.7-1.06,1.29,1.29,0,0,1,.19-0.65,1.25,1.25,0,0,1,.5-0.43,1.11,1.11,0,0,1,.61-0.08,1.21,1.21,0,0,1,.51.2,1.12,1.12,0,0,1,.44.66A1.76,1.76,0,0,1,173.38,43.77Zm0,0a1.81,1.81,0,0,0-.05-0.29,1.06,1.06,0,0,0-.46-0.6,1.16,1.16,0,0,0-1-.07,1.06,1.06,0,0,0,0,1.93,1.14,1.14,0,0,0,1-.07,1,1,0,0,0,.45-0.61A1.65,1.65,0,0,0,173.36,43.77Z"/><path d="M170.28,103.58c-3.65-1.75-7.31-3.47-10.94-5.25l0.2,0-11.68.29c-1,0-1.95,0-2.92,0S143,98.58,142,98.53c-1.95-.11-3.89-0.25-5.84-0.5V97.88c1.95-.25,3.89-0.39,5.84-0.5,1-.06,1.95-0.08,2.92-0.12s1.95,0,2.92,0l11.68,0.29h0.11l0.08,0c3.55,1.93,7.07,3.92,10.61,5.88Z"/><polygon points="164.96 98.57 159.9 98.62 159.97 97.69 164.96 98.57"/><path class="cls-6" d="M172.38,142c0.14-1.93.24-5.18,0.55-10.21A82.28,82.28,0,0,1,174.85,120c0.28-1.43.31-1.35,1.24-1.43a16.59,16.59,0,0,1,2.25-.16,0.71,0.71,0,0,1,.7,1c-0.12.65-3.59,20.26-3.85,21.35s0.06,1.55-.64,1.62-1.23-.08-1.62,0S172.34,142.49,172.38,142Z"/><path d="M172.37,142l0.43-8.46c0-.64.05-1.29,0.11-2l0.21-2.11c0.1-1.45.41-3,.65-4.54s0.63-3.17,1-4.8a6.17,6.17,0,0,1,.32-1.24,0.66,0.66,0,0,1,.58-0.35l0.63-.07c0.42,0,.84-0.1,1.27-0.11a2.71,2.71,0,0,1,1.3.1,0.71,0.71,0,0,1,.31.62,3.29,3.29,0,0,1-.08.65l-0.22,1.25-0.44,2.48-0.86,4.82c-0.55,3.13-1.1,6-1.57,8.54l-0.64,3.41a13.53,13.53,0,0,0-.23,1.42,1.08,1.08,0,0,1-.17.63,0.9,0.9,0,0,1-.58.15,7.83,7.83,0,0,1-1,0,3.28,3.28,0,0,0-.72.06,0.25,0.25,0,0,1-.28-0.3C172.37,142,172.37,142,172.37,142Zm0,0v0.15a0.22,0.22,0,0,0,.25.26,3.37,3.37,0,0,1,.73-0.07,7.61,7.61,0,0,0,1,0,0.85,0.85,0,0,0,.53-0.14,1,1,0,0,0,.14-0.59,13.6,13.6,0,0,1,.21-1.43l0.59-3.42c0.43-2.51.93-5.43,1.51-8.55l0.88-4.82,0.45-2.48,0.23-1.25a1,1,0,0,0-.15-1.07,2.69,2.69,0,0,0-1.19-.08c-0.42,0-.84.06-1.26,0.1l-0.62.06a0.49,0.49,0,0,0-.46.26,6.18,6.18,0,0,0-.31,1.19c-0.36,1.63-.7,3.23-1,4.79s-0.56,3.07-.68,4.52L173,131.52c-0.06.68-.09,1.34-0.13,2Z"/><line class="cls-15" x1="170.63" y1="140.62" x2="172.96" y2="131.3"/><polygon class="cls-2" points="184.02 54.18 179.96 56.02 179.96 49.93 184.02 49.93 184.02 54.18"/><rect class="cls-2" x="182.94" y="49.93" width="2.55" height="12.61"/><polygon class="cls-16" points="179.12 114.32 181.14 104.14 180.59 62.22 178.33 48.07 179.12 114.32"/><path class="cls-17" d="M179.09,114.31l2-10.18h0l-0.66-41.91v0L178.15,48.1l0.37,0L179,81.19c0.06,11,.19,22.08.18,33.13h0Zm0,0c-0.27-11-.4-22.08-0.6-33.12l-0.35-33.12,0.37,0,2.22,14.16h0l0.45,41.92h0l-2.09,10.38v-0.21Z"/><polygon class="cls-16" points="182.28 104.14 185.22 104.14 184.21 68.33 181.74 64.78 182.28 104.14"/><path class="cls-17" d="M182.3,104.12h2.92l0,0L184,68.34l0,0.1-2.49-3.55,0.35-.11q0.19,9.84.3,19.68C182.25,91,182.34,97.56,182.3,104.12Zm0,0c-0.22-6.56-.31-13.12-0.47-19.68s-0.18-13.12-.24-19.68V64.15l0.36,0.52,2.46,3.57,0,0v0.05l0.86,35.81v0h-3v0Z"/><circle class="cls-11" cx="125.39" cy="108.54" r="1.83"/><path class="cls-12" d="M123.57,108.54v0.13a1.37,1.37,0,0,0,.06.36,1.84,1.84,0,0,0,.23.51,2,2,0,0,0,.51.5,1.87,1.87,0,0,0,1.71.12,1.73,1.73,0,0,0,.72-2.56,2,2,0,0,0-.74-0.61,1.83,1.83,0,0,0-.89-0.13,1.88,1.88,0,0,0-.78.24,2,2,0,0,0-.52.48,1.58,1.58,0,0,0-.24.5,1.36,1.36,0,0,0-.07.35Zm0,0v-0.13a1.43,1.43,0,0,1,.05-0.36,2.13,2.13,0,0,1,.21-0.53,2.21,2.21,0,0,1,.51-0.56,1.89,1.89,0,0,1,.84-0.33,1.86,1.86,0,0,1,1,.14,2,2,0,0,1,.83.7,1.93,1.93,0,0,1,0,2.13,2.07,2.07,0,0,1-.82.68,1.85,1.85,0,0,1-1,.13,1.93,1.93,0,0,1-.82-0.31,2.3,2.3,0,0,1-.51-0.54,1.85,1.85,0,0,1-.23-0.52,1.41,1.41,0,0,1-.06-0.36v-0.13Z"/><circle class="cls-13" cx="122.78" cy="112.49" r="1.83"/><path class="cls-12" d="M121,112.49v0.13a1.37,1.37,0,0,0,.06.36,1.84,1.84,0,0,0,.23.51,2,2,0,0,0,.51.5,1.87,1.87,0,0,0,1.71.12,1.92,1.92,0,0,0,.74-0.64,2,2,0,0,0,.28-1,1.9,1.9,0,0,0-.3-1,2,2,0,0,0-.74-0.61,1.84,1.84,0,0,0-.89-0.13,1.9,1.9,0,0,0-.78.24,2,2,0,0,0-.52.48,1.58,1.58,0,0,0-.24.5,1.36,1.36,0,0,0-.07.35Zm0,0v-0.13A1.42,1.42,0,0,1,121,112a2.08,2.08,0,0,1,.21-0.53,2.16,2.16,0,0,1,.5-0.56,1.89,1.89,0,0,1,1.85-.19,2,2,0,0,1,.83.7,2.13,2.13,0,0,1,.31,1.06,2.09,2.09,0,0,1-.33,1.06,2.06,2.06,0,0,1-.82.68,1.85,1.85,0,0,1-1,.13,1.92,1.92,0,0,1-.82-0.31,2.31,2.31,0,0,1-.51-0.54A1.86,1.86,0,0,1,121,113a1.41,1.41,0,0,1-.06-0.36v-0.13Z"/><circle class="cls-14" cx="130.43" cy="111.79" r="1.83"/><path class="cls-12" d="M128.61,111.79v0.13a1.37,1.37,0,0,0,.06.36,1.83,1.83,0,0,0,.23.51,2,2,0,0,0,.51.5,1.87,1.87,0,0,0,1.71.11,1.92,1.92,0,0,0,.74-0.64,1.94,1.94,0,0,0,.28-1,1.91,1.91,0,0,0-.3-1,2,2,0,0,0-.74-0.61,1.83,1.83,0,0,0-.89-0.13,1.9,1.9,0,0,0-.78.24,2,2,0,0,0-.52.48,1.58,1.58,0,0,0-.24.5,1.37,1.37,0,0,0-.07.35Zm0,0v-0.13a1.42,1.42,0,0,1,.05-0.36,2.13,2.13,0,0,1,.21-0.53,2.2,2.2,0,0,1,.51-0.56,1.88,1.88,0,0,1,1.85-.19,2,2,0,0,1,.83.7,2.13,2.13,0,0,1,.31,1.07,2.11,2.11,0,0,1-.33,1.06,2.07,2.07,0,0,1-.82.68,1.85,1.85,0,0,1-1,.13,1.93,1.93,0,0,1-.82-0.31,2.28,2.28,0,0,1-.51-0.54,1.85,1.85,0,0,1-.23-0.52,1.41,1.41,0,0,1-.06-0.36v-0.13Z"/><circle class="cls-2" cx="123.24" cy="133.68" r="0.59"/><circle class="cls-2" cx="124.6" cy="139.56" r="0.59"/><circle class="cls-14" cx="135.77" cy="111.79" r="1.83"/><path class="cls-12" d="M133.95,111.79v0.13a1.42,1.42,0,0,0,.06.36,1.83,1.83,0,0,0,.23.51,2,2,0,0,0,.51.5,1.87,1.87,0,0,0,1.71.11,1.91,1.91,0,0,0,.74-0.64,2,2,0,0,0,.28-1,1.91,1.91,0,0,0-.3-1,2,2,0,0,0-.74-0.61,1.83,1.83,0,0,0-.89-0.13,1.9,1.9,0,0,0-.78.24,2,2,0,0,0-.52.48,1.58,1.58,0,0,0-.24.5,1.37,1.37,0,0,0-.07.35Zm0,0v-0.13a1.42,1.42,0,0,1,.05-0.36,2.09,2.09,0,0,1,.21-0.53,2.21,2.21,0,0,1,.51-0.56,1.88,1.88,0,0,1,1.85-.19,2,2,0,0,1,.83.7,2.13,2.13,0,0,1,.31,1.07,2.1,2.1,0,0,1-.33,1.06,2.06,2.06,0,0,1-.82.68,1.85,1.85,0,0,1-1,.13,1.93,1.93,0,0,1-.82-0.31,2.3,2.3,0,0,1-.51-0.54,1.85,1.85,0,0,1-.23-0.52,1.41,1.41,0,0,1-.06-0.36v-0.13Z"/><circle class="cls-11" cx="120.4" cy="108.54" r="1.83"/><path class="cls-12" d="M118.58,108.54v0.13a1.37,1.37,0,0,0,.06.36,1.84,1.84,0,0,0,.23.51,2,2,0,0,0,.51.5,1.87,1.87,0,0,0,1.71.12,1.73,1.73,0,0,0,.72-2.56,2,2,0,0,0-.74-0.61,1.83,1.83,0,0,0-.89-0.13,1.88,1.88,0,0,0-.78.24,2,2,0,0,0-.52.48,1.58,1.58,0,0,0-.24.5,1.37,1.37,0,0,0-.07.35Zm0,0v-0.13a1.42,1.42,0,0,1,.05-0.36,2.12,2.12,0,0,1,.21-0.53,2.21,2.21,0,0,1,.51-0.56,1.89,1.89,0,0,1,.84-0.33,1.86,1.86,0,0,1,1,.14,2,2,0,0,1,.83.7,1.93,1.93,0,0,1,0,2.13,2.07,2.07,0,0,1-.82.68,1.85,1.85,0,0,1-1,.13,1.93,1.93,0,0,1-.82-0.31,2.31,2.31,0,0,1-.51-0.54,1.85,1.85,0,0,1-.23-0.52,1.41,1.41,0,0,1-.06-0.36v-0.13Z"/><circle class="cls-13" cx="124.6" cy="43.77" r="1.11"/><path class="cls-12" d="M123.5,43.77a1.66,1.66,0,0,0,0,.29,1,1,0,0,0,.45.61,1.13,1.13,0,0,0,1,.07,1.06,1.06,0,0,0,0-1.93,1.15,1.15,0,0,0-1,.07,1,1,0,0,0-.46.6A1.82,1.82,0,0,0,123.5,43.77Zm0,0a1.74,1.74,0,0,1,0-.3A1.12,1.12,0,0,1,124,42.8a1.22,1.22,0,0,1,.51-0.2,1.11,1.11,0,0,1,.61.08,1.24,1.24,0,0,1,.5.43,1.29,1.29,0,0,1,.19.65,1.17,1.17,0,0,1-.7,1.06,1.13,1.13,0,0,1-.6.08,1.17,1.17,0,0,1-.5-0.19,1.13,1.13,0,0,1-.45-0.65A1.72,1.72,0,0,1,123.49,43.77Z"/><circle class="cls-11" cx="121.62" cy="43.77" r="1.11"/><path class="cls-14" d="M120.51,43.77a1.76,1.76,0,0,0,0,.29,1,1,0,0,0,.45.61,1.14,1.14,0,0,0,1,.07,1.06,1.06,0,0,0,0-1.93,1.16,1.16,0,0,0-1,.07,1.06,1.06,0,0,0-.46.6A1.79,1.79,0,0,0,120.51,43.77Zm0,0a1.64,1.64,0,0,1,0-.3A1.13,1.13,0,0,1,121,42.8a1.21,1.21,0,0,1,.51-0.2,1.11,1.11,0,0,1,.61.08,1.24,1.24,0,0,1,.5.43,1.3,1.3,0,0,1,.19.65,1.18,1.18,0,0,1-.7,1.06,1.13,1.13,0,0,1-.6.08,1.18,1.18,0,0,1-.5-0.19,1.13,1.13,0,0,1-.45-0.65A1.72,1.72,0,0,1,120.5,43.77Z"/><path d="M126.09,102.15c2.29-2.23,4.56-4.48,6.88-6.68l0.11-.11h0.17l11.68-.29c1,0,1.95,0,2.92,0s1.95,0.06,2.92.12c1.95,0.1,3.89.25,5.84,0.5v0.14c-1.95.25-3.89,0.4-5.84,0.5-1,.06-1.95.08-2.92,0.12s-1.95,0-2.92,0l-11.68-.29,0.28-.11c-2.42,2.08-4.9,4.1-7.35,6.16Z"/><polygon points="127.83 96.41 132.82 95.53 132.89 96.45 127.83 96.41"/><line class="cls-15" x1="123.24" y1="140.62" x2="120.91" y2="131.3"/><polygon class="cls-2" points="109.85 54.18 113.91 56.02 113.91 49.93 109.85 49.93 109.85 54.18"/><path class="cls-18" d="M147.09,45.6c-2.63,0-23.25.7-25.13,0.81-2.9.17-3.94,0.66-3.94,3.71V77.46c0,4.95.15,32,0,34s0.62,3.87,2.78,4,26.14,0,26.14,0,24,0.15,26.14,0,2.94-2,2.78-4,0-29.08,0-34V50.12c0-3.05-1-3.54-3.94-3.71-1.88-.11-22.5-0.81-25.13-0.81"/><rect class="cls-2" x="108.38" y="49.93" width="2.55" height="12.61"/><polygon class="cls-16" points="114.75 114.32 112.73 104.14 113.28 62.22 115.54 48.07 114.75 114.32"/><path class="cls-17" d="M114.77,114.53l-2.09-10.38h0l0.45-41.92h0L115.35,48l0.37,0L115.38,81.2c-0.2,11-.33,22.08-0.6,33.12v0.21Zm0-.21c0-11,.13-22.08.18-33.13l0.44-33.12,0.37,0-2.28,14.15v0l-0.66,41.91h0l2,10.18h0Z"/><path class="cls-6" d="M121.49,142c-0.14-1.93-.24-5.18-0.55-10.21A82,82,0,0,0,119,120c-0.28-1.43-.31-1.35-1.24-1.43a16.57,16.57,0,0,0-2.25-.16,0.71,0.71,0,0,0-.7,1c0.12,0.65,3.59,20.26,3.85,21.35s-0.06,1.55.64,1.62,1.22-.08,1.62,0S121.53,142.49,121.49,142Z"/><path d="M121.48,142L121,133.5c0-.63-0.06-1.3-0.13-2l-0.23-2.11c-0.12-1.45-.43-3-0.68-4.52s-0.64-3.16-1-4.79a6.18,6.18,0,0,0-.31-1.19,1.34,1.34,0,0,0-1.08-.32c-0.42,0-.84-0.1-1.26-0.1a2.69,2.69,0,0,0-1.19.08,1,1,0,0,0-.15,1.07l0.23,1.25,0.45,2.48,0.88,4.82c0.58,3.12,1.08,6,1.51,8.55l0.59,3.42a13.33,13.33,0,0,1,.21,1.43,1,1,0,0,0,.14.59,0.86,0.86,0,0,0,.53.14,7.61,7.61,0,0,0,1,0,3.36,3.36,0,0,1,.73.07,0.22,0.22,0,0,0,.25-0.26C121.48,142,121.48,142,121.48,142Zm0,0s0,0.05,0,.16a0.25,0.25,0,0,1-.28.3,3.25,3.25,0,0,0-.72-0.06,7.82,7.82,0,0,1-1,0,0.9,0.9,0,0,1-.58-0.15,1.08,1.08,0,0,1-.17-0.63,13.24,13.24,0,0,0-.23-1.42l-0.64-3.41c-0.47-2.5-1-5.41-1.57-8.54l-0.86-4.82L115,120.93l-0.22-1.25a3.35,3.35,0,0,1-.08-0.65,0.72,0.72,0,0,1,.31-0.62,2.71,2.71,0,0,1,1.3-.1c0.43,0,.85.07,1.27,0.11l0.63,0.07a0.66,0.66,0,0,1,.58.35,6.25,6.25,0,0,1,.32,1.24c0.35,1.63.68,3.24,1,4.8s0.55,3.08.65,4.54l0.21,2.11c0.06,0.69.07,1.35,0.11,2Z"/><polygon class="cls-16" points="111.59 104.14 108.66 104.14 109.66 68.33 112.13 64.78 111.59 104.14"/><path class="cls-17" d="M111.62,104.16h-3v0l0.86-35.81V68.28l0,0L112,64.67l0.36-.52v0.63q-0.08,9.84-.24,19.68c-0.16,6.56-.25,13.12-0.47,19.68v0Zm0,0c0-6.55,0-13.11.07-19.66s0.18-13.12.3-19.68l0.35,0.11-2.49,3.55,0-.1-1.15,35.8,0,0h2.92Z"/><rect class="cls-2" x="181.14" y="62.53" width="6.15" height="12.76" rx="1.16" ry="1.16"/><rect class="cls-2" x="106.59" y="62.53" width="6.15" height="12.76" rx="1.16" ry="1.16"/><path class="cls-6" d="M146.94,118.52H120.16c-2.33,0-1.22,1.39-1.15,2.63s0.93,6.26,1.15,7.58,0.79,2.71,2.61,2.55,22.85-.31,24.16-0.31,22.34,0.15,24.16.31,2.39-1.24,2.61-2.55,1.07-6.34,1.15-7.58,1.19-2.63-1.15-2.63H146.94Z"/><path d="M146.94,118.54l-20.76,0H120a1.65,1.65,0,0,0-1.16.35,1.46,1.46,0,0,0,0,1.22,8,8,0,0,1,.24,1.31c0.25,1.77.49,3.59,0.81,5.43a23.76,23.76,0,0,0,.54,2.77,2.72,2.72,0,0,0,.76,1.16,2,2,0,0,0,1.32.4l12-.21,12.4-.12,12.39,0.1,12,0.19a2,2,0,0,0,1.29-.39,2.67,2.67,0,0,0,.75-1.14,23.75,23.75,0,0,0,.53-2.77c0.32-1.85.55-3.66,0.81-5.42a8,8,0,0,1,.25-1.32,1.43,1.43,0,0,0,0-1.17,1.61,1.61,0,0,0-1.13-.33h-1.27l-4.86,0Zm0,0,20.76-.06,4.86,0h1.27a1.76,1.76,0,0,1,1.28.4,1.57,1.57,0,0,1,0,1.35,7.81,7.81,0,0,0-.23,1.29c-0.24,1.77-.47,3.6-0.8,5.44a23.45,23.45,0,0,1-.54,2.8,2.88,2.88,0,0,1-.82,1.24,2.23,2.23,0,0,1-1.43.44l-12-.21-12.39-.11-12.39.09-12,.19a2.18,2.18,0,0,1-1.4-.43,2.85,2.85,0,0,1-.8-1.22,23.64,23.64,0,0,1-.54-2.8c-0.32-1.85-.55-3.67-0.8-5.43a7.77,7.77,0,0,0-.24-1.3,1.54,1.54,0,0,1,0-1.31,1.72,1.72,0,0,1,1.24-.38h6.13Z"/><rect class="cls-19" x="167.74" y="124.91" width="4.05" height="3.57"/><path class="cls-2" d="M171.79,128.48c-1.35.15-2.7,0.22-4.05,0.28h-0.26v-0.29c0-.6,0-1.19,0-1.79l0-1.79v-0.35h0.35c1.35,0,2.7,0,4.05.09h0.27v0.24C172,126.1,171.93,127.29,171.79,128.48Zm0,0c-0.13-1.19-.2-2.38-0.26-3.57l0.26,0.26c-1.35.08-2.7,0.08-4.05,0.09l0.35-.35,0,1.79c0,0.59,0,1.19,0,1.79l-0.28-.28C169.09,128.26,170.44,128.33,171.79,128.48Z"/><rect class="cls-19" x="122.08" y="124.91" width="4.05" height="3.57"/><path class="cls-2" d="M122.08,128.48c1.35-.15,2.7-0.22,4.05-0.28l-0.28.28c0-.6,0-1.19,0-1.79l0-1.79,0.35,0.35c-1.35,0-2.7,0-4.05-.09l0.26-.26C122.28,126.1,122.21,127.29,122.08,128.48Zm0,0c-0.13-1.19-.2-2.38-0.26-3.57v-0.24h0.27c1.35-.08,2.7-0.08,4.05-0.09h0.35v0.35l0,1.79c0,0.59,0,1.19,0,1.79v0.29h-0.26C124.78,128.7,123.43,128.63,122.08,128.48Z"/><polygon class="cls-16" points="157.59 48.07 136.18 48.07 125.46 48.07 125.46 57.08 136.18 57.08 157.59 57.08 168.31 57.08 168.31 48.07 157.59 48.07"/><ellipse class="cls-2" cx="146.02" cy="26.19" rx="2.92" ry="1.08"/><polygon class="cls-1" points="50.57 137.01 15.96 138.97 18.62 150 82.56 150 85.69 138.97 50.57 137.01"/><polygon class="cls-2" points="50.57 137.01 23.8 138.97 29.02 150 72.12 150 77.34 138.97 50.57 137.01"/><path class="cls-1" d="M77.08,139.52a0.8,0.8,0,0,0-.24-0.59l-6.41-.47c-9.87-.15-29.3-0.08-39.34,0l-6.38.47-0.12,1.72,0.23,0.48c1.4,2.1,7.4,2,10.06,2.41,3.71,0.63,28.51,3.09,31,3.56,1.92,0.36,5.51,1.25,7.66-.05Z"/><path class="cls-2" d="M36,2.05c0.54,0.26,1.08.53,1.63,0.75a4.55,4.55,0,0,0,1.66.4l3.59,0c2.4,0,4.79,0,7.19,0h0.57V3.73l0.07,8.34,0,8.34,0,16.69-2.17,0L49,20.39l0.21-8.34,0.26-8.34L50.06,4.3C47.66,4.17,45.27,4,42.88,3.88l-3.59-.23a4.92,4.92,0,0,1-1.78-.56C37,2.82,36.45,2.51,35.93,2.21Z"/><path class="cls-2" d="M73.86,6.21s-0.65-.44-1.72-1.26a8.33,8.33,0,0,0-.9-0.62,7.08,7.08,0,0,0-1.11-.59A8.64,8.64,0,0,0,68.8,3.3c-0.48-.1-1-0.2-1.52-0.27S66.17,3,65.59,3l-1.93.1c-1.33.07-2.73,0.16-4.17,0.18s-2.94.1-4.46,0.1l-4.61,0-4.59,0c-1.52,0-3-.07-4.46-0.1s-2.85-.11-4.17-0.18L35.24,3H34.85L34.39,3,33.51,3C33,3.1,32.51,3.2,32,3.29a8.72,8.72,0,0,0-1.33.45,7.12,7.12,0,0,0-1.11.59,8.65,8.65,0,0,0-.9.62C27.63,5.76,27,6.21,27,6.21L26.88,6.1l0.41-.37c0.27-.23.64-0.62,1.15-1.07A9,9,0,0,1,29.31,4a7.65,7.65,0,0,1,1.11-.72,9.34,9.34,0,0,1,1.38-.62c0.51-.16,1.06-0.29,1.63-0.4s1.17-.13,1.81-0.15h6.11l9.07,0,9.07,0h6.11c0.63,0,1.23.1,1.81,0.15s1.12,0.24,1.63.4a9.28,9.28,0,0,1,1.38.62A7.66,7.66,0,0,1,71.52,4a9.11,9.11,0,0,1,.87.72c0.51,0.45.87,0.83,1.15,1.06L74,6.1Z"/><path class="cls-2" d="M64.9,2.21l-0.55.32a14.22,14.22,0,0,1-1.5.78,4.28,4.28,0,0,1-1.12.32c-0.43.05-.82,0.06-1.26,0.09l-2.7.16-7.35.42,0-1.17,7.36,0,2.7,0c0.42,0,.87,0,1.22,0a3.94,3.94,0,0,0,1-.22,14.07,14.07,0,0,0,1.52-.64l0.57-.27Z"/><line class="cls-3" x1="45.7" y1="3.72" x2="49.68" y2="5.79"/><line class="cls-3" x1="54.28" y1="3.62" x2="49.68" y2="5.96"/><path class="cls-4" d="M79,141.88c0,0.77-.06,1.16.69,0.93s5.78-2,5.78-2l4.33-27.18v-11.8L88,43.77l-2.22-4.9L81,38.41l0.62,2.78,0.08,4.41"/><path class="cls-4" d="M22.48,141.88c0,0.77.06,1.16-.69,0.93s-5.78-2-5.78-2l-4.33-27.18v-11.8l1.78-58.05,2.22-4.9,4.74-.46-0.62,2.78L19.71,45.6"/><path class="cls-5" d="M19.41,107.93c-0.24,2.55-1,9.23-.81,10.83s19.44,4.56,24.85,4.95S78.1,122.16,80,121.62s3-1.42,2.79-2.24-0.71-9-.7-9.41S19.41,107.93,19.41,107.93Z"/><path class="cls-6" d="M76.88,130.54c0,0.4-.07.81-0.09,1.21-0.25,4.14-.36,7.07-0.47,9.05H76.24c-1.63-.39-22.27-1-25.44-1s-23.81.62-25.44,1H25.29c-0.11-2-.23-4.92-0.48-9.05,0-.4-0.06-0.8-0.09-1.21a2,2,0,0,0,1.92.74c1.82-.16,22.84-0.31,24.16-0.31s22.34,0.15,24.16.31A2,2,0,0,0,76.88,130.54Z"/><path d="M76.89,130.54c-0.14,1.71-.19,3.42-0.29,5.13l-0.26,5.13v0H76.23c-1-.13-2.11-0.2-3.17-0.25l-3.18-.15-6.36-.24c-4.24-.13-8.48-0.27-12.72-0.32s-8.48.21-12.72,0.35l-6.36.26-3.18.16c-1.06.05-2.12,0.13-3.16,0.26H25.2V140.8l-0.27-5.13c-0.1-1.71-.15-3.42-0.3-5.13l0-.33,0.21,0.26a1.93,1.93,0,0,0,1.35.7c0.52,0,1.09,0,1.63,0l3.29-.06,6.58-.12,6.58-.07,6.58,0L64,131l6.58,0.14,3.29,0.07c0.55,0,1.09,0,1.64,0a2,2,0,0,0,1.41-.72l0,0v0Zm0,0a2,2,0,0,1-1.4.72c-0.55,0-1.1,0-1.65,0l-3.29,0L64,131.15l-13.15-.07-13.15.13-6.58.11-3.29.05c-0.55,0-1.08,0-1.66,0a2.13,2.13,0,0,1-1.48-.77l0.18-.07c0.15,1.71.19,3.42,0.3,5.13l0.27,5.13-0.1-.09h0.06c1.07-.13,2.13-0.21,3.19-0.26l3.18-.16,6.36-.24c4.24-.14,8.49-0.27,12.73-0.32s8.49,0.21,12.73.36l6.36,0.26,3.18,0.16c1.06,0.05,2.12.13,3.18,0.26h0.07l0,0,0.28-5.13C76.67,134,76.73,132.27,76.87,130.57Z"/><path class="cls-7" d="M76.71,131.63c0-.36,0-0.73.08-1.09H76.7a2.07,2.07,0,0,1-1.82.63c-1.82-.16-22.85-0.31-24.16-0.31s-22.34.15-24.16,0.31a2.07,2.07,0,0,1-1.82-.63H24.66c0,0.1,0,.19,0,0.28,0,0.27,0,.55.06,0.82l0,0.39a1.47,1.47,0,0,1,.45.08c1.23,0.39,11.28.59,13.37,0.88s9.13,1,14.46,1.75,10.21,1,13.61,1.78,6.44,1.31,8.29,1.62a1.74,1.74,0,0,0,1.45-.42C76.47,136.06,76.57,134.06,76.71,131.63Z"/><path class="cls-8" d="M82.12,43.51c0-3.79-1.55-5-5.11-5.34S54.9,37.09,50.73,37.09,28,37.86,24.43,38.17s-5.1,1.55-5.1,5.34,0.77,25,.77,29.62-0.77,36.66-.77,39.44,0.31,5.26,2.63,5.26,23.2-.77,28.77-0.77,26.45,0.77,28.77.77,2.63-2.47,2.63-5.26-0.77-34.8-.77-39.44S82.12,47.3,82.12,43.51Z"/><rect class="cls-9" x="21.5" y="59.75" width="57.82" height="40.99"/><polygon class="cls-10" points="79.64 98.75 25.34 59.21 21.81 59.21 21.81 100.2 79.64 100.2 79.64 98.75"/><polygon class="cls-2" points="50.88 45.6 50.57 45.6 21.5 45.6 21.5 59.75 50.57 59.75 50.88 59.75 79.95 59.75 79.95 45.6 50.88 45.6"/><polygon class="cls-2" points="50.88 99.42 50.57 99.42 21.78 99.42 21.78 115.58 50.57 115.58 50.88 115.58 79.67 115.58 79.67 99.42 50.88 99.42"/><circle class="cls-11" cx="72.28" cy="108.54" r="1.83"/><path class="cls-12" d="M74.12,108.54v0.13A1.41,1.41,0,0,1,74,109a1.85,1.85,0,0,1-.23.52,2.26,2.26,0,0,1-.51.54,1.92,1.92,0,0,1-.82.31,1.85,1.85,0,0,1-1-.13,2.06,2.06,0,0,1-.82-0.68,2.1,2.1,0,0,1-.33-1.06,2.13,2.13,0,0,1,.31-1.07,2,2,0,0,1,.83-0.7,1.86,1.86,0,0,1,1-.14,1.88,1.88,0,0,1,.84.33,2.18,2.18,0,0,1,.5.56,2.09,2.09,0,0,1,.21.53,1.42,1.42,0,0,1,.05.36v0.13Zm0,0,0-.13a1.37,1.37,0,0,0-.07-0.35,1.59,1.59,0,0,0-.24-0.5,2,2,0,0,0-.52-0.48,1.89,1.89,0,0,0-.78-0.24,1.84,1.84,0,0,0-.89.13,2,2,0,0,0-.74.61,1.91,1.91,0,0,0-.3,1,1.75,1.75,0,0,0,1,1.61,1.87,1.87,0,0,0,1.71-.12,2,2,0,0,0,.51-0.5A1.83,1.83,0,0,0,74,109a1.41,1.41,0,0,0,.06-0.36v-0.13Z"/><circle class="cls-11" cx="74.89" cy="112.49" r="1.83"/><path class="cls-12" d="M76.73,112.49v0.13a1.41,1.41,0,0,1-.06.36,1.85,1.85,0,0,1-.23.52,2.3,2.3,0,0,1-.51.54,1.92,1.92,0,0,1-.82.31,1.85,1.85,0,0,1-1-.13A1.9,1.9,0,0,1,73,112.48a2.13,2.13,0,0,1,.31-1.06,2,2,0,0,1,.83-0.7,1.89,1.89,0,0,1,1.85.19,2.17,2.17,0,0,1,.5.56,2.08,2.08,0,0,1,.21.53,1.43,1.43,0,0,1,.05.36v0.13Zm0,0,0-.13a1.36,1.36,0,0,0-.07-0.35,1.6,1.6,0,0,0-.24-0.5,2.06,2.06,0,0,0-.52-0.48,1.9,1.9,0,0,0-.78-0.24,1.84,1.84,0,0,0-.89.13,2,2,0,0,0-.74.61,1.9,1.9,0,0,0-.3,1,2,2,0,0,0,.28,1,1.92,1.92,0,0,0,.74.64,1.87,1.87,0,0,0,1.71-.12,2,2,0,0,0,.51-0.5,1.87,1.87,0,0,0,.23-0.51,1.37,1.37,0,0,0,.06-0.36v-0.13Z"/><circle class="cls-14" cx="67.23" cy="111.79" r="1.83"/><path class="cls-12" d="M69.07,111.79v0.13a1.41,1.41,0,0,1-.06.36,1.85,1.85,0,0,1-.23.52,2.28,2.28,0,0,1-.51.54,1.92,1.92,0,0,1-.82.31,1.85,1.85,0,0,1-1-.13,2.06,2.06,0,0,1-.82-0.68,2.11,2.11,0,0,1-.33-1.06,2.13,2.13,0,0,1,.31-1.07,2,2,0,0,1,.83-0.7,1.88,1.88,0,0,1,1.85.19,2.17,2.17,0,0,1,.51.56,2.13,2.13,0,0,1,.21.53,1.42,1.42,0,0,1,.05.36v0.13Zm0,0,0-.13a1.37,1.37,0,0,0-.07-0.35,1.59,1.59,0,0,0-.24-0.5,2,2,0,0,0-.52-0.48,1.9,1.9,0,0,0-.78-0.24,1.83,1.83,0,0,0-.89.13,2,2,0,0,0-.74.61,1.92,1.92,0,0,0-.3,1,2,2,0,0,0,.28,1,1.92,1.92,0,0,0,.74.64,1.87,1.87,0,0,0,1.71-.11,2,2,0,0,0,.51-0.5,1.81,1.81,0,0,0,.23-0.51,1.37,1.37,0,0,0,.06-0.36v-0.13Z"/><circle class="cls-2" cx="74.42" cy="133.68" r="0.59"/><circle class="cls-2" cx="73.06" cy="139.56" r="0.59"/><circle class="cls-11" cx="61.89" cy="111.79" r="1.83"/><path class="cls-12" d="M63.74,111.79v0.13a1.41,1.41,0,0,1-.06.36,1.84,1.84,0,0,1-.23.52,2.28,2.28,0,0,1-.51.54,1.92,1.92,0,0,1-.82.31,1.85,1.85,0,0,1-1-.13,2.07,2.07,0,0,1-.82-0.68,1.92,1.92,0,0,1,0-2.13,2,2,0,0,1,.83-0.7,1.86,1.86,0,0,1,1-.14,1.9,1.9,0,0,1,.84.33,2.19,2.19,0,0,1,.5.56,2.1,2.1,0,0,1,.21.53,1.42,1.42,0,0,1,.05.36v0.13Zm0,0,0-.13a1.36,1.36,0,0,0-.07-0.35,1.61,1.61,0,0,0-.24-0.5,2,2,0,0,0-.52-0.48,1.9,1.9,0,0,0-.78-0.24,1.83,1.83,0,0,0-.89.13,2,2,0,0,0-.74.61,1.91,1.91,0,0,0-.3,1,2,2,0,0,0,.28,1,1.92,1.92,0,0,0,.74.64,1.83,1.83,0,0,0,.91.15,1.85,1.85,0,0,0,.8-0.26,2,2,0,0,0,.51-0.5,1.83,1.83,0,0,0,.23-0.51,1.42,1.42,0,0,0,.06-0.36v-0.13Z"/><circle class="cls-11" cx="77.26" cy="108.54" r="1.83"/><path class="cls-12" d="M79.11,108.54v0.13A1.41,1.41,0,0,1,79,109a1.85,1.85,0,0,1-.23.52,2.29,2.29,0,0,1-.51.54,1.91,1.91,0,0,1-.82.31,1.86,1.86,0,0,1-1-.13,2.07,2.07,0,0,1-.82-0.68,1.92,1.92,0,0,1,0-2.13,2,2,0,0,1,.83-0.7,1.88,1.88,0,0,1,1.85.19,2.21,2.21,0,0,1,.51.56,2.12,2.12,0,0,1,.21.53,1.42,1.42,0,0,1,.05.36v0.13Zm0,0,0-.13a1.36,1.36,0,0,0-.07-0.35,1.58,1.58,0,0,0-.24-0.5,2,2,0,0,0-.52-0.48,1.89,1.89,0,0,0-.78-0.24,1.84,1.84,0,0,0-.89.13,2,2,0,0,0-.74.61,1.91,1.91,0,0,0-.3,1,2,2,0,0,0,.28,1,1.92,1.92,0,0,0,.74.64,1.87,1.87,0,0,0,1.71-.12,2,2,0,0,0,.51-0.5A1.83,1.83,0,0,0,79,109a1.37,1.37,0,0,0,.06-0.36v-0.13Z"/><circle class="cls-20" cx="73.06" cy="43.77" r="1.11"/><path class="cls-12" d="M74.18,43.77a1.72,1.72,0,0,1,0,.3,1.13,1.13,0,0,1-.45.65,1.17,1.17,0,0,1-.5.19,1.13,1.13,0,0,1-.6-0.08,1.17,1.17,0,0,1-.7-1.06,1.3,1.3,0,0,1,.19-0.65,1.25,1.25,0,0,1,.5-0.43,1.11,1.11,0,0,1,.61-0.08,1.22,1.22,0,0,1,.51.2,1.12,1.12,0,0,1,.44.66A1.63,1.63,0,0,1,74.18,43.77Zm0,0a1.82,1.82,0,0,0-.05-0.29,1.06,1.06,0,0,0-.46-0.6,1.16,1.16,0,0,0-1-.07,1.06,1.06,0,0,0,0,1.93,1.14,1.14,0,0,0,1-.07,1,1,0,0,0,.45-0.61A1.79,1.79,0,0,0,74.16,43.77Z"/><circle class="cls-11" cx="76.04" cy="43.77" r="1.11"/><path class="cls-14" d="M77.16,43.77a1.73,1.73,0,0,1,0,.3,1.13,1.13,0,0,1-.45.65,1.18,1.18,0,0,1-.5.19,1.13,1.13,0,0,1-.6-0.08,1.18,1.18,0,0,1-.7-1.06,1.3,1.3,0,0,1,.19-0.65,1.25,1.25,0,0,1,.5-0.43,1.11,1.11,0,0,1,.61-0.08,1.21,1.21,0,0,1,.51.2,1.12,1.12,0,0,1,.44.66A1.76,1.76,0,0,1,77.16,43.77Zm0,0a1.81,1.81,0,0,0-.05-0.29,1.06,1.06,0,0,0-.46-0.6,1.16,1.16,0,0,0-1-.07,1.06,1.06,0,0,0,0,1.93,1.14,1.14,0,0,0,1-.07,1,1,0,0,0,.45-0.61A1.65,1.65,0,0,0,77.15,43.77Z"/><path d="M74.07,103.58c-3.64-1.75-7.31-3.47-10.94-5.25l0.2,0-11.68.29c-1,0-1.95,0-2.92,0s-1.95-.06-2.92-0.12c-1.95-.11-3.89-0.25-5.84-0.5V97.88c1.95-.25,3.89-0.39,5.84-0.5,1-.06,1.95-0.08,2.92-0.12s1.95,0,2.92,0l11.68,0.29h0.11l0.08,0c3.55,1.93,7.07,3.92,10.61,5.88Z"/><polygon points="68.74 98.57 63.69 98.62 63.76 97.69 68.74 98.57"/><path class="cls-6" d="M76.17,142c0.14-1.93.24-5.18,0.55-10.21A82.18,82.18,0,0,1,78.64,120c0.28-1.43.31-1.35,1.24-1.43a16.6,16.6,0,0,1,2.25-.15,0.71,0.71,0,0,1,.7,1c-0.12.65-3.59,20.26-3.84,21.35s0.06,1.55-.64,1.62-1.22-.08-1.62,0S76.13,142.49,76.17,142Z"/><path d="M76.16,142s0.17-3.38.43-8.46c0-.63.05-1.29,0.11-2l0.21-2.11c0.1-1.45.41-3,.65-4.54s0.63-3.17,1-4.8a6.11,6.11,0,0,1,.32-1.24,0.66,0.66,0,0,1,.58-0.35l0.63-.07c0.42,0,.84-0.1,1.27-0.11a2.72,2.72,0,0,1,1.3.1,0.71,0.71,0,0,1,.31.62,3.28,3.28,0,0,1-.08.65l-0.22,1.25-0.44,2.48-0.86,4.82c-0.55,3.13-1.1,6-1.57,8.54l-0.64,3.41a13.52,13.52,0,0,0-.23,1.42,1.08,1.08,0,0,1-.17.63,0.91,0.91,0,0,1-.58.15,7.84,7.84,0,0,1-1,0,3.27,3.27,0,0,0-.72.06,0.25,0.25,0,0,1-.28-0.3C76.15,142,76.16,142,76.16,142Zm0,0s0,0.05,0,.15a0.22,0.22,0,0,0,.25.26,3.35,3.35,0,0,1,.73-0.07,7.63,7.63,0,0,0,1,0,0.86,0.86,0,0,0,.53-0.14,1,1,0,0,0,.14-0.59,13.65,13.65,0,0,1,.21-1.43l0.59-3.42c0.43-2.51.93-5.43,1.5-8.55L82,123.37l0.45-2.48,0.23-1.25a1,1,0,0,0-.15-1.07,2.71,2.71,0,0,0-1.19-.08c-0.42,0-.84.06-1.26,0.1a1.34,1.34,0,0,0-1.08.32,6.16,6.16,0,0,0-.31,1.19c-0.36,1.63-.7,3.23-1,4.79S77.13,128,77,129.42l-0.23,2.11c-0.06.68-.09,1.34-0.13,2Z"/><line class="cls-15" x1="74.42" y1="140.62" x2="76.75" y2="131.3"/><polygon class="cls-2" points="87.81 54.18 83.75 56.02 83.75 49.93 87.81 49.93 87.81 54.18"/><rect class="cls-2" x="86.72" y="49.93" width="2.55" height="12.61"/><polygon class="cls-16" points="82.91 114.32 84.93 104.14 84.38 62.22 82.12 48.07 82.91 114.32"/><path class="cls-17" d="M82.88,114.31l2-10.18h0L84.22,62.23v0L81.94,48.1l0.37,0,0.44,33.12c0.06,11,.19,22.08.18,33.12h0Zm0,0c-0.27-11-.4-22.08-0.6-33.12L81.94,48.07l0.37,0L84.53,62.2h0L85,104.14h0l-2.09,10.38v-0.21Z"/><polygon class="cls-16" points="86.07 104.14 89 104.14 88 68.33 85.53 64.78 86.07 104.14"/><path class="cls-17" d="M86.09,104.12H89l0,0-1.15-35.8,0,0.1-2.49-3.55,0.35-.11q0.19,9.84.3,19.68C86,91,86.13,97.56,86.09,104.12Zm0,0c-0.22-6.56-.31-13.12-0.47-19.68s-0.18-13.12-.24-19.68V64.15l0.36,0.52,2.46,3.57,0,0v0.05L89,104.14v0H86v0Z"/><circle class="cls-11" cx="29.17" cy="108.54" r="1.83"/><path class="cls-12" d="M27.36,108.54v0.13a1.37,1.37,0,0,0,.06.36,1.81,1.81,0,0,0,.23.51,2,2,0,0,0,.51.5,1.87,1.87,0,0,0,1.71.12,1.92,1.92,0,0,0,.74-0.64,2,2,0,0,0,.28-1,1.92,1.92,0,0,0-.3-1,2,2,0,0,0-.74-0.61,1.83,1.83,0,0,0-.89-0.13,1.89,1.89,0,0,0-.78.24,2,2,0,0,0-.52.48,1.59,1.59,0,0,0-.24.5,1.36,1.36,0,0,0-.07.35Zm0,0v-0.13a1.43,1.43,0,0,1,.05-0.36,2.13,2.13,0,0,1,.21-0.53,2.17,2.17,0,0,1,.51-0.56,1.88,1.88,0,0,1,1.85-.19,2,2,0,0,1,.83.7,2.13,2.13,0,0,1,.31,1.07,2.11,2.11,0,0,1-.33,1.06,2.06,2.06,0,0,1-.82.68,1.86,1.86,0,0,1-1,.13,1.92,1.92,0,0,1-.82-0.31,2.28,2.28,0,0,1-.51-0.54A1.85,1.85,0,0,1,27.4,109a1.41,1.41,0,0,1-.06-0.36v-0.13Z"/><circle class="cls-11" cx="26.56" cy="112.49" r="1.83"/><path class="cls-12" d="M24.75,112.49v0.13a1.37,1.37,0,0,0,.06.36,1.87,1.87,0,0,0,.23.51,2,2,0,0,0,.51.5,1.87,1.87,0,0,0,1.71.12,1.92,1.92,0,0,0,.74-0.64,2,2,0,0,0,.28-1,1.9,1.9,0,0,0-.3-1,2,2,0,0,0-.74-0.61,1.84,1.84,0,0,0-.89-0.13,1.89,1.89,0,0,0-.78.25,2,2,0,0,0-.52.48,1.58,1.58,0,0,0-.24.5,1.37,1.37,0,0,0-.07.35Zm0,0v-0.13a1.43,1.43,0,0,1,.05-0.36,2.09,2.09,0,0,1,.21-0.53,2.17,2.17,0,0,1,.5-0.56,1.87,1.87,0,0,1,.84-0.33,1.85,1.85,0,0,1,1,.14,2,2,0,0,1,.83.7,2.13,2.13,0,0,1,.31,1.06,1.91,1.91,0,0,1-1.15,1.74,1.85,1.85,0,0,1-1,.13,1.91,1.91,0,0,1-.82-0.31A2.3,2.3,0,0,1,25,113.5a1.86,1.86,0,0,1-.23-0.52,1.41,1.41,0,0,1-.06-0.36v-0.13Z"/><circle class="cls-14" cx="34.22" cy="111.79" r="1.83"/><path class="cls-12" d="M32.4,111.79v0.13a1.41,1.41,0,0,0,.06.36,1.83,1.83,0,0,0,.23.51,2,2,0,0,0,.51.5,1.87,1.87,0,0,0,1.71.11,1.91,1.91,0,0,0,.74-0.64,1.72,1.72,0,0,0,0-1.92,2,2,0,0,0-.74-0.61,1.83,1.83,0,0,0-.89-0.13,1.9,1.9,0,0,0-.78.24,2,2,0,0,0-.52.48,1.58,1.58,0,0,0-.24.5,1.36,1.36,0,0,0-.07.35Zm0,0v-0.13a1.43,1.43,0,0,1,.05-0.36,2.1,2.1,0,0,1,.21-0.53,2.19,2.19,0,0,1,.51-0.56A1.88,1.88,0,0,1,35,110a2,2,0,0,1,.83.7,2.13,2.13,0,0,1,.31,1.07,2.11,2.11,0,0,1-.33,1.06,2.06,2.06,0,0,1-.82.68,1.86,1.86,0,0,1-1,.13,1.93,1.93,0,0,1-.82-0.31,2.28,2.28,0,0,1-.51-0.54,1.85,1.85,0,0,1-.23-0.52,1.41,1.41,0,0,1-.06-0.36v-0.13Z"/><circle class="cls-2" cx="27.03" cy="133.68" r="0.59"/><circle class="cls-2" cx="28.39" cy="139.56" r="0.59"/><circle class="cls-11" cx="39.56" cy="111.79" r="1.83"/><path class="cls-12" d="M37.74,111.79v0.13a1.37,1.37,0,0,0,.06.36,1.84,1.84,0,0,0,.23.51,2,2,0,0,0,.51.5,1.87,1.87,0,0,0,1.71.11,1.73,1.73,0,0,0,.72-2.56,2,2,0,0,0-.74-0.61,1.83,1.83,0,0,0-.89-0.13,1.9,1.9,0,0,0-.78.24,2,2,0,0,0-.52.48,1.59,1.59,0,0,0-.24.5,1.37,1.37,0,0,0-.07.35Zm0,0v-0.13a1.42,1.42,0,0,1,.05-0.36,2.13,2.13,0,0,1,.21-0.53,2.2,2.2,0,0,1,.51-0.56,1.89,1.89,0,0,1,.84-0.33,1.86,1.86,0,0,1,1,.14,2,2,0,0,1,.83.7,1.92,1.92,0,0,1,0,2.13,2.06,2.06,0,0,1-.82.68,1.85,1.85,0,0,1-1,.13,1.93,1.93,0,0,1-.82-0.31A2.28,2.28,0,0,1,38,112.8a1.85,1.85,0,0,1-.23-0.52,1.41,1.41,0,0,1-.06-0.36v-0.13Z"/><circle class="cls-11" cx="24.19" cy="108.54" r="1.83"/><path class="cls-12" d="M22.37,108.54v0.13a1.37,1.37,0,0,0,.06.36,1.83,1.83,0,0,0,.23.51,2,2,0,0,0,.51.5,1.87,1.87,0,0,0,1.71.12,1.73,1.73,0,0,0,.72-2.56,2,2,0,0,0-.74-0.61,1.83,1.83,0,0,0-.89-0.13,1.88,1.88,0,0,0-.78.24,2,2,0,0,0-.52.48,1.59,1.59,0,0,0-.24.5,1.37,1.37,0,0,0-.07.35Zm0,0v-0.13a1.42,1.42,0,0,1,.05-0.36,2.12,2.12,0,0,1,.21-0.53,2.21,2.21,0,0,1,.51-0.56,1.89,1.89,0,0,1,.84-0.33,1.86,1.86,0,0,1,1,.14,2,2,0,0,1,.83.7,2.12,2.12,0,0,1,.31,1.07,2.1,2.1,0,0,1-.33,1.06,2.06,2.06,0,0,1-.82.68,1.85,1.85,0,0,1-1,.13,1.93,1.93,0,0,1-.82-0.31,2.29,2.29,0,0,1-.51-0.54,1.85,1.85,0,0,1-.23-0.52,1.41,1.41,0,0,1-.06-0.36v-0.13Z"/><circle class="cls-20" cx="28.39" cy="43.77" r="1.11"/><path class="cls-12" d="M27.29,43.77a1.77,1.77,0,0,0,0,.29,1,1,0,0,0,.45.61,1.14,1.14,0,0,0,1,.07,1.06,1.06,0,0,0,0-1.93,1.16,1.16,0,0,0-1,.07,1.06,1.06,0,0,0-.46.6A1.81,1.81,0,0,0,27.29,43.77Zm0,0a1.64,1.64,0,0,1,0-.3,1.13,1.13,0,0,1,.44-0.66,1.22,1.22,0,0,1,.51-0.2,1.11,1.11,0,0,1,.61.08,1.25,1.25,0,0,1,.5.43,1.3,1.3,0,0,1,.19.65,1.17,1.17,0,0,1-.7,1.06,1.13,1.13,0,0,1-.6.08,1.17,1.17,0,0,1-.5-0.19,1.13,1.13,0,0,1-.45-0.65A1.73,1.73,0,0,1,27.27,43.77Z"/><circle class="cls-11" cx="25.4" cy="43.77" r="1.11"/><path class="cls-14" d="M24.3,43.77a1.76,1.76,0,0,0,0,.29,1.05,1.05,0,0,0,.45.61,1.12,1.12,0,0,0,.49.16,1.11,1.11,0,0,0,.56-0.09,1.06,1.06,0,0,0,0-1.93,1.15,1.15,0,0,0-1,.07,1.06,1.06,0,0,0-.46.6A1.79,1.79,0,0,0,24.3,43.77Zm0,0a1.64,1.64,0,0,1,0-.3,1.13,1.13,0,0,1,.44-0.66,1.21,1.21,0,0,1,.51-0.2,1.11,1.11,0,0,1,.61.08,1.25,1.25,0,0,1,.5.43,1.29,1.29,0,0,1,.19.65,1.17,1.17,0,0,1-.7,1.06,1.13,1.13,0,0,1-.6.08,1.18,1.18,0,0,1-.5-0.19,1.13,1.13,0,0,1-.45-0.65A1.72,1.72,0,0,1,24.28,43.77Z"/><path d="M29.87,102.15c2.29-2.23,4.56-4.48,6.88-6.68l0.11-.11H37l11.68-.29c1,0,1.95,0,2.92,0s1.95,0.06,2.92.12c1.95,0.1,3.89.25,5.84,0.5v0.14c-1.95.25-3.89,0.4-5.84,0.5-1,.06-1.95.08-2.92,0.12s-1.95,0-2.92,0L37,96.21l0.28-.11c-2.42,2.08-4.9,4.1-7.35,6.16Z"/><polygon points="31.62 96.41 36.61 95.53 36.68 96.45 31.62 96.41"/><line class="cls-15" x1="27.03" y1="140.62" x2="24.7" y2="131.3"/><polygon class="cls-2" points="13.64 54.18 17.7 56.02 17.7 49.93 13.64 49.93 13.64 54.18"/><path class="cls-18" d="M50.88,45.6c-2.63,0-23.25.7-25.13,0.81-2.9.17-3.95,0.66-3.95,3.71V77.46c0,5,.16,32,0,34s0.62,3.87,2.78,4,26.14,0,26.14,0,24,0.15,26.14,0,2.94-2,2.78-4,0-29.08,0-34V50.12c0-3.05-1-3.54-3.94-3.71-1.88-.11-22.5-0.81-25.13-0.81"/><rect class="cls-2" x="12.17" y="49.93" width="2.55" height="12.61"/><polygon class="cls-16" points="18.54 114.32 16.52 104.14 17.07 62.22 19.33 48.07 18.54 114.32"/><path class="cls-17" d="M18.56,114.52l-2.09-10.37h0l0.45-41.92h0L19.14,48l0.37,0L19.17,81.2c-0.2,11-.33,22.08-0.6,33.12v0.21Zm0-.21c0-11,.13-22.08.18-33.12l0.44-33.12,0.37,0L17.23,62.25v0l-0.66,41.91h0l2,10.18h0Z"/><path class="cls-6" d="M25.28,142c-0.14-1.93-.24-5.18-0.55-10.21A82.13,82.13,0,0,0,22.81,120c-0.28-1.43-.31-1.35-1.24-1.43a16.62,16.62,0,0,0-2.25-.15,0.71,0.71,0,0,0-.7,1c0.12,0.65,3.59,20.26,3.85,21.35s-0.06,1.55.64,1.62,1.22-.08,1.62,0S25.32,142.49,25.28,142Z"/><path d="M25.27,142L24.8,133.5c0-.63-0.07-1.3-0.13-2l-0.23-2.11c-0.12-1.45-.43-3-0.68-4.52s-0.64-3.16-1-4.79a6.18,6.18,0,0,0-.31-1.19,0.49,0.49,0,0,0-.46-0.26l-0.62-.06c-0.42,0-.84-0.1-1.26-0.1a2.7,2.7,0,0,0-1.19.08,1,1,0,0,0-.15,1.07L19,120.89l0.45,2.48,0.88,4.82c0.58,3.12,1.08,6,1.51,8.55l0.59,3.42a13.35,13.35,0,0,1,.21,1.43,1,1,0,0,0,.14.59,0.86,0.86,0,0,0,.53.14,7.63,7.63,0,0,0,1,0,3.36,3.36,0,0,1,.73.07,0.22,0.22,0,0,0,.25-0.26V142Zm0,0s0,0.05,0,.16a0.25,0.25,0,0,1-.28.3,3.28,3.28,0,0,0-.72-0.06,7.82,7.82,0,0,1-1,0,0.9,0.9,0,0,1-.58-0.15,1.06,1.06,0,0,1-.17-0.63,13.52,13.52,0,0,0-.23-1.42l-0.64-3.41c-0.47-2.5-1-5.41-1.57-8.54l-0.86-4.82-0.44-2.48-0.22-1.25a3.29,3.29,0,0,1-.08-0.65,0.71,0.71,0,0,1,.31-0.62,2.72,2.72,0,0,1,1.3-.1c0.43,0,.85.07,1.27,0.11L22,118.48a0.66,0.66,0,0,1,.58.35,6.18,6.18,0,0,1,.32,1.24c0.35,1.63.68,3.24,1,4.8s0.55,3.08.65,4.54l0.21,2.11c0.06,0.69.07,1.35,0.11,2Z"/><polygon class="cls-16" points="15.38 104.14 12.44 104.14 13.45 68.33 15.92 64.78 15.38 104.14"/><path class="cls-17" d="M15.4,104.16h-3v0l0.86-35.81V68.28l0,0,2.46-3.57,0.36-.52v0.63Q16,74.62,15.88,84.46c-0.16,6.56-.25,13.12-0.47,19.68v0Zm0,0c0-6.55,0-13.11.07-19.66s0.18-13.12.3-19.68l0.35,0.11-2.49,3.55,0-.1-1.15,35.8,0,0h2.92Z"/><rect class="cls-2" x="84.93" y="62.53" width="6.15" height="12.76" rx="1.16" ry="1.16"/><rect class="cls-2" x="10.37" y="62.53" width="6.15" height="12.76" rx="1.16" ry="1.16"/><path class="cls-6" d="M50.73,118.52H24c-2.33,0-1.22,1.39-1.15,2.63s0.93,6.26,1.15,7.58,0.79,2.71,2.61,2.55S49.41,131,50.73,131s22.34,0.15,24.16.31,2.39-1.24,2.61-2.55,1.07-6.34,1.15-7.58,1.19-2.63-1.15-2.63H50.73Z"/><path d="M50.73,118.54l-20.76,0H23.84a1.64,1.64,0,0,0-1.16.35,1.46,1.46,0,0,0,0,1.22,7.9,7.9,0,0,1,.24,1.31c0.25,1.77.48,3.59,0.81,5.43a23.8,23.8,0,0,0,.54,2.77,2.72,2.72,0,0,0,.76,1.16,2.05,2.05,0,0,0,1.32.4l12-.21,12.4-.12L63.12,131l12,0.19a2,2,0,0,0,1.29-.39,2.68,2.68,0,0,0,.74-1.14,23.77,23.77,0,0,0,.53-2.77c0.32-1.85.55-3.66,0.81-5.42a7.92,7.92,0,0,1,.25-1.32,1.43,1.43,0,0,0,0-1.17,1.61,1.61,0,0,0-1.13-.33H76.35l-4.86,0Zm0,0,20.76-.06,4.86,0h1.27a1.76,1.76,0,0,1,1.27.4,1.58,1.58,0,0,1,0,1.35,7.82,7.82,0,0,0-.23,1.29c-0.24,1.77-.47,3.6-0.8,5.44a23.63,23.63,0,0,1-.54,2.8,2.89,2.89,0,0,1-.82,1.24,2.24,2.24,0,0,1-1.43.44l-12-.21-12.39-.11-12.39.09-12,.19a2.18,2.18,0,0,1-1.4-.43,2.85,2.85,0,0,1-.8-1.22,23.63,23.63,0,0,1-.54-2.8c-0.32-1.85-.55-3.67-0.8-5.43a7.84,7.84,0,0,0-.24-1.3,1.53,1.53,0,0,1,0-1.31,1.72,1.72,0,0,1,1.24-.38H30Z"/><rect class="cls-21" x="71.53" y="124.91" width="4.06" height="3.57"/><path class="cls-2" d="M75.58,128.48c-1.35.15-2.7,0.22-4.06,0.28H71.26v-0.29c0-.6,0-1.19,0-1.79l0-1.79v-0.35h0.35c1.35,0,2.7,0,4.06.09h0.27v0.24C75.79,126.1,75.72,127.29,75.58,128.48Zm0,0c-0.13-1.19-.2-2.38-0.26-3.57l0.26,0.26c-1.35.08-2.7,0.08-4.06,0.09l0.35-.35,0,1.79c0,0.59,0,1.19,0,1.79l-0.28-.28C72.88,128.26,74.23,128.33,75.58,128.48Z"/><rect class="cls-21" x="25.87" y="124.91" width="4.06" height="3.57"/><path class="cls-2" d="M25.87,128.48c1.35-.15,2.7-0.22,4.06-0.28l-0.28.28c0-.6,0-1.19,0-1.79l0-1.79,0.35,0.35c-1.35,0-2.7,0-4.06-.09l0.26-.26C26.07,126.1,26,127.29,25.87,128.48Zm0,0c-0.13-1.19-.2-2.38-0.26-3.57v-0.24h0.27c1.35-.08,2.7-0.08,4.06-0.09h0.35v0.35l0,1.79c0,0.59,0,1.19,0,1.79v0.29H29.92C28.57,128.7,27.22,128.63,25.87,128.48Z"/><polygon class="cls-16" points="61.38 48.07 39.96 48.07 29.25 48.07 29.25 57.08 39.96 57.08 61.38 57.08 72.09 57.08 72.09 48.07 61.38 48.07"/><ellipse class="cls-2" cx="49.81" cy="26.19" rx="2.92" ry="1.08"/></svg>