<svg id="Cars" xmlns="http://www.w3.org/2000/svg" viewBox="0 0 137.57 59.07"><defs><style>.cls-1{fill:#484749;}.cls-17,.cls-2,.cls-20{fill:#506d81;}.cls-3{fill:#3c5261;}.cls-4{fill:silver;}.cls-5{fill:#202020;}.cls-6{fill:#283741;}.cls-10,.cls-22,.cls-7{fill:#ece7e4;}.cls-20,.cls-24,.cls-7,.cls-9{stroke:#484749;}.cls-16,.cls-20,.cls-22,.cls-23,.cls-24,.cls-7,.cls-9{stroke-miterlimit:10;}.cls-7{stroke-width:0.08px;}.cls-8{fill:#8ea3ae;}.cls-12,.cls-9{fill:#c7c8ca;}.cls-9{stroke-width:0.04px;}.cls-11{fill:#5c5f61;}.cls-13{fill:#b1c0c9;}.cls-14{fill:#82949e;}.cls-15{fill:#ebe6de;}.cls-16,.cls-23,.cls-24{fill:none;}.cls-16,.cls-17,.cls-23{stroke:#ebe6de;}.cls-16{stroke-width:0.26px;}.cls-17{stroke-linecap:round;stroke-linejoin:round;}.cls-17,.cls-20,.cls-22,.cls-24{stroke-width:0.13px;}.cls-18{fill:#101010;}.cls-19{fill:#181818;}.cls-21{fill:#c60000;}.cls-22{stroke:#fff;}.cls-23{stroke-width:0.15px;}</style></defs><title>Green street</title><path class="cls-1" d="M133.23,42.43h-7.11v5.79c0,1.32.08,2.5,1.21,2.5h4.57c1.65,0,1.34-1.62,1.34-2.57V42.43Z"/><path class="cls-1" d="M72.47,42.43h7.11v5.79c0,1.32-.08,2.5-1.21,2.5H73.81c-1.65,0-1.34-1.62-1.34-2.57V42.43Z"/><rect class="cls-1" x="77.22" y="38.42" width="47.68" height="7.8"/><path class="cls-2" d="M132.49,25.26c-0.77-1.62-2-2.33-3.27-3.23a8.86,8.86,0,0,1-1.93-1.88,35.36,35.36,0,0,0-.95-4.46,26.18,26.18,0,0,0-3.56-6.21,15,15,0,0,0-3.49-3.62s-3.43-.58-6.73-0.84-7.63-.45-9.71-0.45S96.45,4.75,93.15,5s-6.73.84-6.73,0.84a15,15,0,0,0-3.49,3.62,26.19,26.19,0,0,0-3.56,6.21,35.12,35.12,0,0,0-.95,4.46A8.84,8.84,0,0,1,76.49,22c-1.26.91-2.5,1.62-3.27,3.23s-1.22,6.4-1.09,8.41,0.58,5.37.52,6.14-0.54,4.33.57,5.43,1.43,1.55,4.54,1.75,25.1,0,25.1,0,22,0.19,25.1,0,3.43-.65,4.54-1.75,0.64-4.66.57-5.43,0.39-4.14.52-6.14S133.25,26.87,132.49,25.26ZM80.88,14.52a33.18,33.18,0,0,1,3.92-6,3.55,3.55,0,0,1,2.46-1.68C88.62,6.69,100.07,6,102.85,6s14.23,0.66,15.59.86a3.56,3.56,0,0,1,2.46,1.68,33.33,33.33,0,0,1,3.92,6,10.37,10.37,0,0,1,.8,2.2H80.08A10.34,10.34,0,0,1,80.88,14.52Zm37.74,17a8.33,8.33,0,0,1-3.75,4.36c-2.37,1.34-3.45,1.08-11.94,1.08h-0.14c-8.5,0-9.57.26-11.94-1.08a8.32,8.32,0,0,1-3.75-4.36c-0.78-2.21.47-2,2.5-2.17s11.12-.25,13.26-0.25,11.24,0.11,13.26.25S119.39,29.29,118.62,31.51Zm12,13.67c-0.75,0-6.35.26-9.44,0.26-1.87,0-18.37,0-18.37,0s-16.5,0-18.37,0c-3.08,0-8.69-.22-9.43-0.26a2,2,0,0,1-1.28-.95s0.09,0,3.54.22S81.23,44.23,83,42s3.36-2.72,4.78-2.59,4.14,1.08,5.3,1.25v-3h19.45v3c1.16-.17,3.88-1.12,5.3-1.25s3,0.39,4.79,2.59,2.29,2.59,5.73,2.42,3.54-.22,3.54-0.22A2,2,0,0,1,130.66,45.18Z"/><path class="cls-1" d="M132.48,25.26a6.38,6.38,0,0,0-.47-0.79,6,6,0,0,0-.58-0.71A10.82,10.82,0,0,0,130,22.6a17.27,17.27,0,0,1-1.47-1.11,8.56,8.56,0,0,1-.67-0.63,7.55,7.55,0,0,1-.6-0.7h0c-0.13-.69-0.21-1.38-0.38-2.06l-0.49-2a4.89,4.89,0,0,0-.34-1,7.89,7.89,0,0,0-.43-1l-0.49-.93c-0.15-.31-0.36-0.6-0.54-0.9-0.36-.6-0.73-1.19-1.14-1.76l-0.6-.86c-0.19-.29-0.43-0.55-0.64-0.82L121.56,8c-0.22-.27-0.48-0.5-0.72-0.76a8.88,8.88,0,0,0-.76-0.72c-0.27-.22-0.53-0.46-0.82-0.65h0l-2-.31-2-.23-2-.23C112.46,5,111.78,5,111.09,5l-8.24-.37L94.62,5c-0.69,0-1.37,0-2.05.14l-2,.23-2,.24-2,.31h0c-0.28.19-.54,0.43-0.81,0.65a8.9,8.9,0,0,0-.75.72c-0.24.25-.5,0.48-0.72,0.76l-0.65.82c-0.21.28-.45,0.54-0.64,0.82l-0.59.87c-0.41.57-.78,1.16-1.14,1.76-0.18.3-.38,0.59-0.53,0.9l-0.49.93a7.91,7.91,0,0,0-.42,1,4.93,4.93,0,0,0-.34,1l-0.48,2c-0.17.68-.25,1.37-0.37,2.05v0A10.36,10.36,0,0,1,76,22.5a7.93,7.93,0,0,0-2.4,2.29,9.17,9.17,0,0,0-1,3.18c-0.17,1.11-.3,2.23-0.36,3.35A41.34,41.34,0,0,0,72.65,38c0.06,0.56.09,1.13,0.1,1.7s-0.11,1.12-.13,1.68A7.79,7.79,0,0,0,73,44.7a4.63,4.63,0,0,0,1.1,1.21,3.26,3.26,0,0,0,1.47.69,14.94,14.94,0,0,0,3.34.29l6.76,0c4.51,0,9,0,13.52,0s9,0,13.52.06c2.25,0,4.51,0,6.76,0l6.76,0h1.69c0.56,0,1.13-.08,1.68-0.17a4.59,4.59,0,0,0,1.6-.48,6.12,6.12,0,0,0,1.28-1.08,2.89,2.89,0,0,0,.62-1.52,10,10,0,0,0,.1-1.68,28.62,28.62,0,0,1-.1-3.37l0.33-3.37a21.17,21.17,0,0,0,.14-3.37c-0.06-1.12-.14-2.25-0.31-3.36A13.66,13.66,0,0,0,132.48,25.26Zm0,0a13.67,13.67,0,0,1,.78,3.28c0.17,1.12.25,2.24,0.31,3.37a21.09,21.09,0,0,1-.13,3.38l-0.33,3.36a28.64,28.64,0,0,0,.1,3.37,10,10,0,0,1-.1,1.69,2.93,2.93,0,0,1-.63,1.55,6.15,6.15,0,0,1-1.29,1.09,4.65,4.65,0,0,1-1.61.49c-0.56.09-1.12,0.13-1.68,0.17h-1.69l-6.76,0c-2.25,0-4.51,0-6.76,0-4.51,0-9-.1-13.52,0s-9,.06-13.53,0l-6.76,0a15,15,0,0,1-3.36-.29,4.23,4.23,0,0,1-2.65-2,7.86,7.86,0,0,1-.37-3.34c0-.56.1-1.12,0.13-1.69s0-1.12-.1-1.68a40.37,40.37,0,0,1-.37-6.74c0.06-1.13.2-2.25,0.37-3.36a9.24,9.24,0,0,1,1-3.22,8.05,8.05,0,0,1,2.43-2.32,10.24,10.24,0,0,0,2.49-2.26h0c0.13-.69.21-1.39,0.38-2.06l0.49-2a5,5,0,0,1,.34-1,8.14,8.14,0,0,1,.43-1l0.49-.93c0.15-.31.36-0.6,0.54-0.9,0.36-.6.73-1.19,1.14-1.76l0.59-.87c0.2-.29.43-0.55,0.65-0.83L84.11,8c0.22-.27.49-0.5,0.72-0.76a9.09,9.09,0,0,1,.76-0.72c0.27-.22.53-0.46,0.82-0.66h0l2-.31,2-.23,2-.23C93.24,5,93.93,5,94.61,4.93l8.24-.38,8.24,0.38c0.69,0,1.38,0,2.06.13l2,0.23,2,0.23,2,0.31h0c0.29,0.2.55,0.43,0.82,0.66a9.11,9.11,0,0,1,.76.72c0.24,0.25.51,0.48,0.72,0.76l0.66,0.82c0.21,0.28.45,0.54,0.65,0.83l0.59,0.87c0.41,0.57.78,1.16,1.14,1.76,0.18,0.3.38,0.59,0.54,0.9l0.49,0.93a7.94,7.94,0,0,1,.43,1,4.94,4.94,0,0,1,.34,1l0.48,2c0.17,0.68.25,1.38,0.38,2.06h0a7.6,7.6,0,0,0,.6.7,8.75,8.75,0,0,0,.67.63A17.11,17.11,0,0,0,130,22.58a10.9,10.9,0,0,1,1.42,1.17,6.08,6.08,0,0,1,.58.71A6.36,6.36,0,0,1,132.49,25.25Z"/><path class="cls-1" d="M80.87,14.52a33.51,33.51,0,0,1,1.7-2.91c0.59-1,1.29-1.84,2-2.74a9.67,9.67,0,0,1,1.1-1.28,2.86,2.86,0,0,1,1.52-.71c1.12-.1,2.24-0.17,3.37-0.25l3.37-.24C95,6.3,96.15,6.28,97.28,6.22l3.37-.15A29,29,0,0,1,104,6l6.74,0.27c2.25,0.13,4.5.29,6.74,0.44a5.46,5.46,0,0,1,1.68.25,3.27,3.27,0,0,1,1.38,1c0.72,0.88,1.4,1.77,2.06,2.68l0.94,1.41,0.86,1.46a10.66,10.66,0,0,1,.74,1.53l0.32,0.78c0.09,0.27.16,0.55,0.24,0.83l0,0.13h-0.15l-45.54-.1h0a7.62,7.62,0,0,1,.36-1.11Zm0,0-0.44,1.08a7.59,7.59,0,0,0-.36,1.11h45.53v0c-0.08-.27-0.14-0.54-0.24-0.81l-0.32-.78a10.63,10.63,0,0,0-.74-1.51l-0.85-1.45-0.93-1.41c-0.66-.91-1.34-1.81-2.05-2.68a3.16,3.16,0,0,0-1.33-1,5.4,5.4,0,0,0-1.66-.25c-2.24-.15-4.49-0.32-6.73-0.46L104,6.09a29,29,0,0,0-3.37,0l-3.37.14c-1.12.05-2.25,0.08-3.37,0.16l-3.37.23c-1.12.08-2.25,0.14-3.37,0.24a2.84,2.84,0,0,0-1.51.7,9.86,9.86,0,0,0-1.1,1.27c-0.69.89-1.38,1.77-2,2.73A33.39,33.39,0,0,0,80.89,14.52Z"/><path class="cls-1" d="M118.62,31.51l-0.34.73A7.64,7.64,0,0,1,117,34.12a9.55,9.55,0,0,1-2.81,2.1,10.17,10.17,0,0,1-4.47.78L98.31,37c-1,0-2.11,0-3.19,0a9.18,9.18,0,0,1-3.23-.54,5.52,5.52,0,0,1-.76-0.35,4.11,4.11,0,0,1-.72-0.43,7,7,0,0,1-1.32-1l-0.61-.59c-0.18-.21-0.34-0.45-0.5-0.68a5.38,5.38,0,0,1-.47-0.7l-0.36-.77a3.3,3.3,0,0,1-.4-1.66,0.88,0.88,0,0,1,.53-0.73,2.63,2.63,0,0,1,.84-0.2c1.12-.1,2.22-0.11,3.32-0.12l6.45-.1c2.09,0,4.11-.1,6-0.05l5.4,0.12,4.57,0.1c1.36,0,2.55,0,3.52.14a1.9,1.9,0,0,1,1.22.41,1.08,1.08,0,0,1,.18.92,3.94,3.94,0,0,1-.14.58Zm0,0,0.06-.19a3.89,3.89,0,0,0,.14-0.58,1.06,1.06,0,0,0-.18-0.91,1.88,1.88,0,0,0-1.21-.4c-1-.09-2.16-0.1-3.52-0.12l-4.57-.08-5.4-.1c-1.92,0-3.94.05-6,.07l-6.45.12c-1.1,0-2.21,0-3.31.13a2.53,2.53,0,0,0-.8.19,0.76,0.76,0,0,0-.46.63,3.22,3.22,0,0,0,.39,1.6,8.7,8.7,0,0,0,4.66,4.5,9.07,9.07,0,0,0,3.2.54c1.08,0.05,2.14,0,3.19,0h11.44a10.13,10.13,0,0,0,4.46-.76A9.52,9.52,0,0,0,117,34.11a7.63,7.63,0,0,0,1.25-1.87Z"/><path class="cls-1" d="M130.66,45.18l-7.16.21c-1.19,0-2.39.08-3.58,0.07h-3.58l-14.32,0-14.32,0H84.13l-3.58-.09L77,45.33l-1.79,0a1.59,1.59,0,0,1-.46-0.07A1.62,1.62,0,0,1,74.29,45a2.74,2.74,0,0,1-.62-0.69l-0.11-.16h0.24l2.62,0.15a25.59,25.59,0,0,0,2.65.06,3.47,3.47,0,0,0,.65-0.06,2.62,2.62,0,0,0,.63-0.14,2.19,2.19,0,0,0,.59-0.25,2.39,2.39,0,0,0,.53-0.36,18.52,18.52,0,0,0,1.8-1.94,10.09,10.09,0,0,1,1-1,6.81,6.81,0,0,1,1.11-.77,4.49,4.49,0,0,1,1.27-.47,4,4,0,0,1,1.36,0c0.44,0.08.88,0.14,1.31,0.25L90.57,40c0.86,0.24,1.71.47,2.57,0.65l-0.1.09V37.63h0.08l19.45,0h0.05v3l-0.05,0c0.87-.18,1.72-0.41,2.58-0.64l1.29-.33c0.43-.1.88-0.16,1.31-0.25a4,4,0,0,1,1.33,0,4.42,4.42,0,0,1,1.25.47,6.77,6.77,0,0,1,1.09.76,10.05,10.05,0,0,1,.94.95,18.65,18.65,0,0,0,1.8,2,2.46,2.46,0,0,0,.54.37,2.26,2.26,0,0,0,.61.26,2.7,2.7,0,0,0,.64.14,3.57,3.57,0,0,0,.66.06,25.84,25.84,0,0,0,2.66-.06c0.88-.06,1.78-0.08,2.65-0.16h0v0a2.76,2.76,0,0,1-.54.62,1.62,1.62,0,0,1-.35.22A1.31,1.31,0,0,1,130.66,45.18Zm0,0a1.29,1.29,0,0,0,.39-0.11,1.65,1.65,0,0,0,.35-0.22,2.75,2.75,0,0,0,.54-0.62h0c-0.89.08-1.77,0.11-2.66,0.17a25.77,25.77,0,0,1-2.66.07A3.54,3.54,0,0,1,126,44.4a2.71,2.71,0,0,1-.65-0.14A2.28,2.28,0,0,1,124.7,44a2.46,2.46,0,0,1-.55-0.38,18.67,18.67,0,0,1-1.81-2,10,10,0,0,0-.94-0.94,6.72,6.72,0,0,0-1.09-.76,4.36,4.36,0,0,0-1.24-.46,3.92,3.92,0,0,0-1.32,0c-0.44.08-.88,0.14-1.31,0.25l-1.29.33c-0.85.24-1.71,0.47-2.58,0.65h0v-3H93.14v3h0c-0.87-.18-1.73-0.41-2.58-0.65l-1.29-.33c-0.43-.1-0.87-0.16-1.31-0.25a3.93,3.93,0,0,0-1.32,0,4.37,4.37,0,0,0-1.24.46,6.76,6.76,0,0,0-1.09.76,10,10,0,0,0-.94.94,18.65,18.65,0,0,1-1.81,2A2.5,2.5,0,0,1,81,44a2.31,2.31,0,0,1-.61.26,2.74,2.74,0,0,1-.65.14,3.56,3.56,0,0,1-.66.06,25.79,25.79,0,0,1-2.66-.06c-0.89-.06-1.77-0.08-2.66-0.17l0,0a1.77,1.77,0,0,0,1.41.95l1.79,0,3.58,0.1,3.58,0.1h35.79c1.19,0,2.39,0,3.58-.06Z"/><path class="cls-3" d="M123,39.14s4.59-.4,5.95-0.56,3.07-.51,3.17.84a27.64,27.64,0,0,1,.13,3c0,0.84.25,1.2-1.59,1.26s-3.35.69-4.52,0.14S123,39.14,123,39.14Z"/><rect class="cls-1" x="126.86" y="17.76" width="1.63" height="1.25"/><path class="cls-1" d="M128.49,17.92h4.8s-0.26.55-1.78,0.87a18.46,18.46,0,0,1-3,.36V17.92Z"/><path class="cls-4" d="M128.49,17.92V14.52h1.73a3.08,3.08,0,0,1,3.07,3.39"/><path class="cls-1" d="M128.43,17.92l0-3.39v0h1.76a3.78,3.78,0,0,1,.85.13,3.3,3.3,0,0,1,.78.35,1.64,1.64,0,0,1,.35.25l0.31,0.3a1.86,1.86,0,0,1,.25.35,2.48,2.48,0,0,1,.22.37l0.13,0.41a1.58,1.58,0,0,1,.11.41l0.08,0.85-0.09-.85a1.6,1.6,0,0,0-.12-0.41l-0.14-.4a2.42,2.42,0,0,0-.22-0.36,1.81,1.81,0,0,0-.25-0.34l-0.31-.29a1.57,1.57,0,0,0-.35-0.24,3.2,3.2,0,0,0-.78-0.34,3.75,3.75,0,0,0-.84-0.12h-1.71l0,0,0,3.39h-0.13Z"/><path class="cls-5" d="M112.58,40.69c1.16-.17,3.88-1.12,5.3-1.25s3,0.39,4.79,2.59,2.29,2.59,5.73,2.42,3.54-.22,3.54-0.22a2,2,0,0,1-1.28.95c-0.75,0-6.35.26-9.44,0.26-1.32,0-2.06-1.65-2.65-2.3-0.75-.81-1.1-1.78-3.4-1.75a7.8,7.8,0,0,0-2.6.23V40.69Z"/><path class="cls-6" d="M132.12,39.42a27.63,27.63,0,0,1,.13,3c0,0.84.25,1.2-1.59,1.26a15.94,15.94,0,0,0-1.93.22c1-.29,1.26-0.33,1.67-0.42,1.65-.38,1.43-0.39,1.46-1.15a25.47,25.47,0,0,0-.12-2.75c-0.09-1.24-1.66-.92-2.9-0.77s-5.3.31-5.68,0.33c0.81-.07,4.59-0.41,5.79-0.55C130.31,38.42,132,38.07,132.12,39.42Z"/><path class="cls-7" d="M131.57,39.74c0.1,1.33.23,3.27,0.23,3.27h-0.39c-0.52,0-.87,0-1.49-1.42s-1.15-2.49,0-2.71S131.51,38.91,131.57,39.74Z"/><path class="cls-7" d="M74.13,39.74C74,41.07,73.91,43,73.91,43h0.39c0.52,0,.87,0,1.49-1.42s1.16-2.49,0-2.71S74.19,38.91,74.13,39.74Z"/><polygon class="cls-8" points="127.39 20.21 121.74 30.5 127.17 20.09 127.39 20.21"/><path class="cls-8" d="M113.67,20.66a8.46,8.46,0,0,1,1-1.31,3.15,3.15,0,0,1,.62-0.54,3.86,3.86,0,0,1,.72-0.4,4.78,4.78,0,0,1,.77-0.28,5.09,5.09,0,0,1,.79-0.2c0.27,0,.53-0.13.8-0.15l0.81-.1c1.07-.12,2.15-0.26,3.23-0.36l3.24-.31,0.19,0-0.1.16a24.74,24.74,0,0,1-1.54,2.18c-0.13.18-.28,0.34-0.43,0.51a6.39,6.39,0,0,1-.46.49c-0.16.15-.31,0.31-0.49,0.46l-0.53.4,0.51-.43c0.16-.15.3-0.32,0.46-0.48,0.3-.32.56-0.68,0.83-1a24.35,24.35,0,0,0,1.48-2.19l0.09,0.14-3.23.37c-1.08.13-2.15,0.21-3.24,0.32l-0.8.08c-0.27,0-.53.09-0.79,0.13a5.06,5.06,0,0,0-.78.18,4.69,4.69,0,0,0-.76.26,3.72,3.72,0,0,0-.7.38,3.19,3.19,0,0,0-.63.49A8.39,8.39,0,0,0,113.67,20.66Z"/><polygon class="cls-8" points="102.98 16.73 102.85 20 102.72 16.73 102.98 16.73"/><path class="cls-3" d="M82.7,39.14s-4.59-.4-6-0.56-3.07-.51-3.17.84a27.56,27.56,0,0,0-.13,3c0,0.84-.25,1.2,1.59,1.26s3.35,0.69,4.51.14S82.7,39.14,82.7,39.14Z"/><rect class="cls-1" x="77.22" y="17.76" width="1.63" height="1.25"/><path class="cls-9" d="M73.49,27.13c-0.48,1.44-.71,3.56,2.91,4.46A75.32,75.32,0,0,0,84.48,33a21.86,21.86,0,0,0-3-5.3,8.69,8.69,0,0,0-6.89-3S73.74,26.36,73.49,27.13Z"/><circle class="cls-10" cx="76.49" cy="28.19" r="1.94"/><path class="cls-11" d="M75.58,26.85a1.94,1.94,0,0,1,2.54.33A2.05,2.05,0,0,0,78,27a1.94,1.94,0,0,0-3.2,2.18L75,29.34A1.94,1.94,0,0,1,75.58,26.85Z"/><circle class="cls-10" cx="80.44" cy="30.05" r="1.51" transform="translate(-2.48 7.74) rotate(-5.42)"/><path class="cls-11" d="M79.64,29.08a1.51,1.51,0,0,1,2,.07L81.53,29a1.51,1.51,0,1,0-2.33,1.93l0.13,0.13A1.51,1.51,0,0,1,79.64,29.08Z"/><path class="cls-9" d="M132.22,27.13c0.48,1.44.71,3.56-2.91,4.46A75.36,75.36,0,0,1,121.22,33a21.92,21.92,0,0,1,3-5.3c3.32-3.49,6.89-3,6.89-3S132,26.36,132.22,27.13Z"/><circle class="cls-10" cx="129.22" cy="28.19" r="1.94"/><path class="cls-11" d="M130.12,26.85a1.93,1.93,0,0,0-2.54.33,1.72,1.72,0,0,1,.12-0.2,1.94,1.94,0,0,1,3.2,2.18l-0.15.18A1.93,1.93,0,0,0,130.12,26.85Z"/><circle class="cls-10" cx="125.26" cy="30.05" r="1.51" transform="translate(83.51 151.91) rotate(-84.58)"/><path class="cls-11" d="M126.07,29.08a1.51,1.51,0,0,0-2,.07l0.11-.15a1.51,1.51,0,0,1,2.33,1.93l-0.13.13A1.51,1.51,0,0,0,126.07,29.08Z"/><path class="cls-1" d="M77.22,17.92h-4.8s0.26,0.55,1.78.87a18.47,18.47,0,0,0,3,.36V17.92Z"/><path class="cls-4" d="M77.22,17.92V14.52H75.49a3.08,3.08,0,0,0-3.07,3.39"/><path class="cls-1" d="M77.15,17.92l0-3.39,0,0H75.5a3.76,3.76,0,0,0-.84.12,3.21,3.21,0,0,0-.78.34,1.6,1.6,0,0,0-.35.24l-0.31.29a1.9,1.9,0,0,0-.25.34,2.55,2.55,0,0,0-.22.37l-0.14.4a1.59,1.59,0,0,0-.11.41l-0.09.85,0.08-.85a1.62,1.62,0,0,1,.11-0.41l0.13-.41A2.59,2.59,0,0,1,73,15.87a1.88,1.88,0,0,1,.25-0.35l0.31-.3A1.6,1.6,0,0,1,73.87,15a3.28,3.28,0,0,1,.78-0.35,3.8,3.8,0,0,1,.85-0.13h1.76v0l0,3.39H77.15Z"/><path class="cls-1" d="M81.23,27.49l0.46-.16A11.25,11.25,0,0,1,83,27c0.58-.12,1.29-0.27,2.11-0.38s1.75-.24,2.76-0.35c4.06-.43,9.5-0.71,15-0.79,5.45,0.08,10.89.37,15,.79,1,0.11,1.94.22,2.76,0.35s1.53,0.26,2.11.38a11.21,11.21,0,0,1,1.33.37l0.46,0.16h0L124,27.35a11.32,11.32,0,0,0-1.33-.36c-0.58-.12-1.29-0.26-2.11-0.37s-1.75-.23-2.77-0.34c-4.06-.4-9.5-0.66-14.95-0.71S92,25.88,87.91,26.28c-1,.11-1.94.21-2.76,0.34S83.61,26.87,83,27a11.3,11.3,0,0,0-1.33.36l-0.46.15h0Z"/><polygon class="cls-12" points="102.85 37.72 93.13 37.72 93.13 42.03 102.85 42.03 112.58 42.03 112.58 37.72 102.85 37.72"/><path class="cls-1" d="M102.85,37.72l-9.73,0,0,0V42l0,0h19.45l0,0V37.72h-9.71Zm0,0h9.74V42H93.09V37.69h0Z"/><path class="cls-5" d="M93.13,40.69c-1.16-.17-3.88-1.12-5.3-1.25s-3,.39-4.78,2.59-2.29,2.59-5.74,2.42-3.54-.22-3.54-0.22a2,2,0,0,0,1.28.95c0.75,0,6.35.26,9.43,0.26,1.32,0,2.06-1.65,2.65-2.3,0.74-.81,1.1-1.78,3.4-1.75a7.79,7.79,0,0,1,2.6.23V40.69Z"/><path class="cls-6" d="M73.58,39.42a27.55,27.55,0,0,0-.13,3c0,0.84-.25,1.2,1.59,1.26a16,16,0,0,1,1.93.22c-1-.29-1.26-0.33-1.67-0.42-1.65-.38-1.43-0.39-1.46-1.15A25.8,25.8,0,0,1,74,39.58c0.09-1.24,1.66-.92,2.9-0.77s5.3,0.31,5.68.33c-0.81-.07-4.59-0.41-5.79-0.55S73.68,38.07,73.58,39.42Z"/><path class="cls-7" d="M74.13,39.74C74,41.07,73.91,43,73.91,43h0.39c0.52,0,.87,0,1.49-1.42s1.16-2.49,0-2.71S74.19,38.91,74.13,39.74Z"/><polygon class="cls-8" points="78.54 20.09 83.96 30.5 78.31 20.21 78.54 20.09"/><path class="cls-8" d="M92,20.66a8.39,8.39,0,0,0-1-1.24,3.18,3.18,0,0,0-.63-0.49,3.74,3.74,0,0,0-.7-0.38,4.66,4.66,0,0,0-.76-0.26,5,5,0,0,0-.78-0.18c-0.27,0-.53-0.11-0.8-0.13l-0.8-.08c-1.08-.11-2.16-0.2-3.24-0.32l-3.23-.37,0.09-.14a24.11,24.11,0,0,0,1.48,2.19c0.27,0.35.53,0.7,0.83,1,0.15,0.16.29,0.33,0.46,0.48l0.51,0.43-0.53-.4c-0.17-.14-0.32-0.3-0.49-0.46A6.19,6.19,0,0,1,82,19.84c-0.15-.17-0.3-0.33-0.43-0.51A24.86,24.86,0,0,1,80,17.16L79.9,17l0.19,0,3.24,0.31c1.08,0.1,2.15.24,3.23,0.36l0.81,0.1c0.27,0,.54.1,0.8,0.15a5.13,5.13,0,0,1,.79.2,4.84,4.84,0,0,1,.77.28,3.85,3.85,0,0,1,.72.4,3.06,3.06,0,0,1,.62.54A8.4,8.4,0,0,1,92,20.66Z"/><path class="cls-13" d="M102.85,16.72H80.08a10.34,10.34,0,0,1,.8-2.2,33.18,33.18,0,0,1,3.92-6,3.55,3.55,0,0,1,2.46-1.68C88.62,6.69,100.07,6,102.85,6s14.23,0.66,15.59.86a3.56,3.56,0,0,1,2.46,1.68,33.33,33.33,0,0,1,3.92,6,10.37,10.37,0,0,1,.8,2.2H102.85Z"/><path class="cls-14" d="M124.83,14.52a33.33,33.33,0,0,0-3.92-6,3.56,3.56,0,0,0-2.46-1.68C117.08,6.69,105.64,6,102.85,6H102.3c3.5,0.07,13.75.67,15,.85a3.56,3.56,0,0,1,2.46,1.68,33.27,33.27,0,0,1,3.92,6,10.37,10.37,0,0,1,.8,2.2h1.11A10.37,10.37,0,0,0,124.83,14.52Z"/><path class="cls-1" d="M102.78,36.94c-8.5,0-9.57.26-11.94-1.08a8.32,8.32,0,0,1-3.75-4.36c-0.78-2.21.47-2,2.5-2.17s11.12-.25,13.26-0.25,11.24,0.11,13.26.25,3.28,0,2.5,2.17a8.33,8.33,0,0,1-3.75,4.36c-2.37,1.34-3.45,1.08-11.94,1.08"/><path class="cls-15" d="M102.78,37l-3.06.08-3.52.09a11.57,11.57,0,0,1-4.58-.59,8.36,8.36,0,0,1-1.17-.62c-0.36-.25-0.73-0.48-1.09-0.76l-1-1L87.45,33c-0.39-.92-1.1-1.7-0.84-3a1.17,1.17,0,0,1,.75-0.69,4,4,0,0,1,.83-0.17c0.54,0,1-.08,1.57-0.11l13.11-.35L116,29c0.54,0,1,.06,1.57.11a3.89,3.89,0,0,1,.83.17,1.17,1.17,0,0,1,.75.69,2.7,2.7,0,0,1-.19,1.7c-0.22.44-.41,0.88-0.64,1.31a9.13,9.13,0,0,1-4.17,3.59,11.53,11.53,0,0,1-4.59.59L106,37.05,102.92,37V36.92h6.58a12.11,12.11,0,0,0,4.47-.65,8.85,8.85,0,0,0,4-3.47c0.38-.85,1-1.76.79-2.74a1.38,1.38,0,0,0-1.27-.6c-0.51,0-1-.07-1.55-0.09l-13.09-.23-13.08.23c-0.52,0-1,0-1.55.09a1.38,1.38,0,0,0-1.27.6,2.44,2.44,0,0,0,.17,1.43c0.21,0.44.4,0.89,0.62,1.31a8.84,8.84,0,0,0,4,3.47,12.1,12.1,0,0,0,4.47.65h6.58V37Z"/><circle class="cls-16" cx="102.85" cy="33.02" r="2.04"/><path class="cls-15" d="M94.8,36.34s1-.49,2.45-1.14,3.48-1.5,5.48-2.32,4-1.73,5.48-2.32,2.52-1,2.52-1v0s-1,.48-2.46,1.13-3.48,1.5-5.48,2.33-4,1.76-5.48,2.33-2.53,1-2.53,1v0Z"/><polygon class="cls-17" points="102.85 32.4 100.44 32.4 100.44 33.63 102.85 33.63 105.26 33.63 105.26 32.4 102.85 32.4"/><path class="cls-18" d="M13,45.18c3.33,0.06,10.38-1.23,11-1.23s21.92-.13,22.7,0a104.67,104.67,0,0,0,10.47,1.23c2.65,0,0-4,0-4H11.45Z"/><path class="cls-5" d="M56.82,36.35H64.1v10c0,2.3-.08,4.34-1.24,4.34H58.19c-1.69,0-1.37-2.81-1.37-4.46V36.35Z"/><path class="cls-5" d="M12.92,36.35H5.64v10c0,2.3.08,4.34,1.24,4.34h4.68c1.69,0,1.37-2.81,1.37-4.46V36.35Z"/><path class="cls-19" d="M59.06,40.33c-1.08-3.66-3.19-4.4-8.43-4.46-4.33-.05-12.7-0.28-15.76-0.26s-11.42.21-15.76,0.26c-5.24.06-7.35,0.8-8.43,4.46a4.88,4.88,0,0,0-.32,2.56c2.74-.26,6.45-0.86,7-0.91s15.31-.3,17.46-0.3,16.86,0.26,17.46.3,4.31,0.65,7,.91A4.9,4.9,0,0,0,59.06,40.33Z"/><path class="cls-20" d="M54.34,15.73c0,0.11-.07.21-0.11,0.32C54.27,15.94,54.31,15.83,54.34,15.73Z"/><path class="cls-20" d="M62.87,23.19a44.56,44.56,0,0,1-1.42-5.11c-0.52-1.81-1-2.07-2.65-3s-2-2.2-2.91-3.56-1.75-2.39-3-4-3.23-2-5.17-2.2C46,5.17,39.34,4.75,36,4.65H33.69c-3.29.1-10,.52-11.69,0.69-1.94.2-3.95,0.58-5.17,2.2s-2.07,2.65-3,4-1.29,2.65-2.91,3.56-2.13,1.16-2.65,3a44.19,44.19,0,0,1-1.42,5.11c-0.65,1.49-1.94,4.4-1.88,7a68.26,68.26,0,0,0,.58,7.37,8.48,8.48,0,0,0,1.62,3.23c0.71,0.84,1.94,2,3.17,2a4.91,4.91,0,0,1,.32-2.57c1.08-3.66,3.19-4.4,8.43-4.46,4.33-.05,12.7-0.28,15.76-0.26s11.43,0.2,15.76.26c5.24,0.06,7.35.8,8.43,4.46a4.9,4.9,0,0,1,.33,2.57c1.23,0,2.46-1.21,3.17-2a8.47,8.47,0,0,0,1.62-3.23,68.21,68.21,0,0,0,.58-7.37C64.82,27.58,63.52,24.67,62.87,23.19ZM19.69,31.12a2.68,2.68,0,0,1-2.07.91c-1.34.13-5.91,0.52-5.91,0.52a2.79,2.79,0,0,1,.47-0.73A4,4,0,0,1,15,30.26c1.21-.13,5.86-0.34,5.86-0.34A14.15,14.15,0,0,1,19.69,31.12ZM58,32.54s-4.57-.39-5.91-0.52A2.68,2.68,0,0,1,50,31.12a14.23,14.23,0,0,1-1.21-1.21s4.66,0.22,5.87.34a4,4,0,0,1,2.85,1.55A3,3,0,0,1,58,32.54Zm0.58-12.46C57.09,20,55,19.89,55,19.89a11.26,11.26,0,0,0-.71-1.44,11.71,11.71,0,0,0-.82-1.16,6.8,6.8,0,0,0,.64-1.09,20.8,20.8,0,0,1-2.31,3.33c-1.62,2.1-4.11,1.94-5.34,2s-10.48,0-11.64,0-10.41,0-11.64,0-3.72.13-5.34-2a20.77,20.77,0,0,1-2.31-3.33,6.8,6.8,0,0,0,.64,1.09,11.6,11.6,0,0,0-.82,1.16,11,11,0,0,0-.71,1.44s-2,.13-3.56.19a29.29,29.29,0,0,0-2.94.29A26.41,26.41,0,0,1,9,17.75a3.78,3.78,0,0,1,2.39-2.2,4.91,4.91,0,0,0,1.88-1.75c0.58-.87,2.23-3.75,2.62-4.43a1,1,0,0,1,1.23-.51,32.37,32.37,0,0,0-1.49,3.56,7.38,7.38,0,0,0-.23,3.3l19.46-.34,19.47,0.34a7.4,7.4,0,0,0-.23-3.3,32.6,32.6,0,0,0-1.49-3.56,1,1,0,0,1,1.23.51c0.39,0.68,2,3.56,2.62,4.43a4.89,4.89,0,0,0,1.88,1.75,3.78,3.78,0,0,1,2.39,2.2,26.73,26.73,0,0,1,.81,2.62A29.33,29.33,0,0,0,58.61,20.08Z"/><path class="cls-20" d="M15.4,15.73c0,0.11.07,0.21,0.11,0.32A3.19,3.19,0,0,1,15.4,15.73Z"/><path class="cls-21" d="M52.62,8.87a1,1,0,0,1,1.23.51c0.39,0.68,2,3.56,2.62,4.43a4.89,4.89,0,0,0,1.88,1.75,3.78,3.78,0,0,1,2.39,2.2,26.73,26.73,0,0,1,.81,2.62,29.33,29.33,0,0,0-2.94-.29C57.09,20,55,19.89,55,19.89a11.26,11.26,0,0,0-.71-1.44,11.71,11.71,0,0,0-.82-1.16,6,6,0,0,0,.82-1.56,7.4,7.4,0,0,0-.23-3.3A32.6,32.6,0,0,0,52.62,8.87Z"/><path class="cls-1" d="M52.62,8.87a1.32,1.32,0,0,1,.93.13,3,3,0,0,1,.55.78l1,1.64,1,1.64a7.23,7.23,0,0,0,1.1,1.55,4.91,4.91,0,0,0,.71.63,5.45,5.45,0,0,0,.84.45,5.42,5.42,0,0,1,.84.46,3.67,3.67,0,0,1,.71.65l0.27,0.4c0.08,0.14.14,0.29,0.2,0.44,0.13,0.3.2,0.61,0.3,0.91l0.56,1.83v0h0l-1.62-.16c-0.54,0-1.08-.12-1.62-0.15L55,19.91h0c-0.19-.47-0.44-0.91-0.67-1.35-0.12-.22-0.29-0.41-0.43-0.62L53.5,17.3h0a7.65,7.65,0,0,0,.58-1c0.08-.17.14-0.34,0.21-0.52a3.37,3.37,0,0,0,.11-0.55,2.8,2.8,0,0,0,0-.56,4.08,4.08,0,0,0,0-.56A9.57,9.57,0,0,0,54.23,13l-0.11-.55c0-.18-0.13-0.35-0.19-0.52l-0.41-1c-0.25-.7-0.59-1.37-0.9-2.05h0Zm0,0c0.3,0.68.65,1.35,0.9,2l0.41,1c0.06,0.18.15,0.34,0.19,0.53L54.25,13a9.61,9.61,0,0,1,.17,1.11,4,4,0,0,1,0,.56,2.75,2.75,0,0,1,0,.56,3.23,3.23,0,0,1-.11.55c-0.07.17-.13,0.35-0.21,0.52a7.53,7.53,0,0,1-.58,1v0L54,17.9c0.14,0.21.3,0.4,0.43,0.62,0.23,0.45.48,0.89,0.67,1.36h0L58.31,20c0.54,0,1.08.1,1.62,0.15l1.62,0.16,0,0L61,18.56c-0.1-.3-0.17-0.62-0.3-0.9s-0.13-.29-0.2-0.43l-0.26-.39a3.56,3.56,0,0,0-.69-0.64,5.25,5.25,0,0,0-.83-0.45,5.41,5.41,0,0,1-.84-0.45,4.94,4.94,0,0,1-.72-0.64A7.33,7.33,0,0,1,56,13.08l-1-1.65-1-1.65A3,3,0,0,0,53.54,9,1.3,1.3,0,0,0,52.63,8.87Z"/><path class="cls-8" d="M61.78,19.59a4.73,4.73,0,0,1,.14,1l0.16,2.3c0,0.84.06,1.68,0.07,2.3v1l-0.06-1c0-.63-0.05-1.46-0.12-2.3l-0.2-2.29a4.72,4.72,0,0,1,0-1h0Z"/><path class="cls-22" d="M54.34,17.29s0.28,0.69.54,1.16a5.31,5.31,0,0,1,.4.94s1.63,0.13,2.58.17,2.85,0.24,2.85.24-0.17-.47-0.37-0.95A1.58,1.58,0,0,0,59,17.8c-0.84-.13-2-0.28-2.5-0.3S54.34,17.29,54.34,17.29Z"/><path class="cls-21" d="M48.84,29.91A14.23,14.23,0,0,0,50,31.12a2.68,2.68,0,0,0,2.07.91c1.34,0.13,5.91.52,5.91,0.52a3,3,0,0,0-.47-0.73,4,4,0,0,0-2.85-1.55C53.5,30.13,48.84,29.91,48.84,29.91Z"/><path class="cls-8" d="M48.86,29.92l0.87,0.86a6.11,6.11,0,0,0,.94.81,1.87,1.87,0,0,0,.56.25,4.05,4.05,0,0,0,.61.11c0.41,0.07.83,0.08,1.24,0.12l5,0.41,0,0h0s0,0-.08,0,0,0,0,0h0l0,0,0-.07-0.09-.13L57.65,32a3.08,3.08,0,0,0-.39-0.48,1.82,1.82,0,0,0-.46-0.42c-0.17-.11-0.33-0.24-0.51-0.34l-0.57-.24a2.63,2.63,0,0,0-.6-0.16,3.23,3.23,0,0,0-.61-0.1l-0.63,0Zm0,0,5.06,0.24,0.63,0a3.33,3.33,0,0,1,.63.1,2.67,2.67,0,0,1,.62.16l0.59,0.25c0.19,0.1.36,0.24,0.54,0.36a1.92,1.92,0,0,1,.46.43,3.2,3.2,0,0,1,.4.5l0.17,0.26L58,32.38l0,0.07,0,0v0a0,0,0,0,1,0,0c0,0.08-.11,0-0.08,0h0l-5-.45c-0.41,0-.83-0.06-1.24-0.13a4.31,4.31,0,0,1-.61-0.12,1.94,1.94,0,0,1-.57-0.26,6.06,6.06,0,0,1-.93-0.83Z"/><path class="cls-11" d="M54.77,40H54.62a1.16,1.16,0,0,1,0,2.29h0.15A1.16,1.16,0,1,0,54.77,40Z"/><circle class="cls-23" cx="54.81" cy="41.17" r="1.16"/><path class="cls-11" d="M14.9,40H14.75a1.16,1.16,0,0,1,0,2.29H14.9A1.16,1.16,0,1,0,14.9,40Z"/><circle class="cls-23" cx="14.93" cy="41.17" r="1.16"/><path class="cls-13" d="M54.14,12.62a12.62,12.62,0,0,0-2-4.44c-0.86-1.12-2.46-1-4-1.21S37.76,6.59,34.87,6.59,23.14,6.8,21.59,7s-3.15.09-4,1.21a12.65,12.65,0,0,0-2,4.44,7.82,7.82,0,0,0-.19,3.1l19.46-.34,19.47,0.34A7.83,7.83,0,0,0,54.14,12.62Z"/><path class="cls-14" d="M54.14,12.62a12.62,12.62,0,0,0-2-4.44c-0.86-1.12-2.46-1-4-1.21S37.76,6.59,34.87,6.59H33.69c3.6,0,10.72.23,12.1,0.38,1.55,0.17,3.15.09,4,1.21a12.64,12.64,0,0,1,2,4.44A8.08,8.08,0,0,1,52,15.69l2.34,0A7.83,7.83,0,0,0,54.14,12.62Z"/><path class="cls-3" d="M16.48,17.55A17.19,17.19,0,0,0,15,20.15c-0.55,1.15-1.77,2.09.34,4.59s2.67,1.64,4.49,1.68,14.05,0,15.35,0,13.54,0,15.35,0,2.37,0.82,4.48-1.68,0.89-3.44.35-4.59a17.2,17.2,0,0,0-1.54-2.6H16.48Z"/><path class="cls-20" d="M16.23,17.29a17.22,17.22,0,0,0-1.53,2.6C14.14,21,12.92,22,15,24.48s2.67,1.64,4.48,1.68,14.06,0,15.35,0,13.54,0,15.35,0S52.59,27,54.7,24.48,55.6,21,55,19.89a17.22,17.22,0,0,0-1.53-2.6"/><path class="cls-8" d="M5.07,32.21l0.54-.42a7.7,7.7,0,0,1,1.62-1.05,8.3,8.3,0,0,1,1.28-.52c0.49-.11,1-0.26,1.58-0.38,1.14-.22,2.42-0.48,3.85-0.62s3-.23,4.6-0.29l5.15-.19c3.57-.11,7.38-0.22,11.19-0.29s7.62,0.18,11.19.29l5.15,0.19c1.64,0.06,3.18.2,4.6,0.29s2.71,0.4,3.85.62c0.57,0.12,1.09.26,1.58,0.38a8.22,8.22,0,0,1,1.28.52,7.71,7.71,0,0,1,1.62,1.05l0.54,0.42-0.55-.41a7.72,7.72,0,0,0-1.62-1,8.24,8.24,0,0,0-1.27-.52c-0.49-.11-1-0.26-1.58-0.37-1.14-.21-2.43-0.47-3.85-0.6s-3-.21-4.6-0.27l-5.14-.17c-3.57-.1-7.38-0.19-11.18-0.24s-7.62.14-11.18,0.24L18.54,29c-1.63.05-3.18,0.19-4.6,0.27s-2.71.39-3.85,0.6C9.52,30,9,30.12,8.51,30.23a8.23,8.23,0,0,0-1.28.52,7.73,7.73,0,0,0-1.62,1Z"/><path class="cls-24" d="M5.64,37.88a22.45,22.45,0,0,1,6.08-2.75,45,45,0,0,1,6.34-1c1.85-.22,1.81-0.39,2.46-1.08s0.82-.95,2-2.16a4.2,4.2,0,0,1,3.1-1.47c1.25-.17,8.11-0.19,9.27-0.19s8,0,9.27.19a4.2,4.2,0,0,1,3.1,1.47c1.16,1.21,1.34,1.47,2,2.16s0.6,0.86,2.46,1.08a45,45,0,0,1,6.34,1,22.44,22.44,0,0,1,6.07,2.75"/><path class="cls-21" d="M17.12,8.87a1,1,0,0,0-1.23.51c-0.39.68-2,3.56-2.62,4.43a4.91,4.91,0,0,1-1.88,1.75A3.78,3.78,0,0,0,9,17.75a26.41,26.41,0,0,0-.81,2.62,29.29,29.29,0,0,1,2.94-.29c1.52-.06,3.56-0.19,3.56-0.19a11,11,0,0,1,.71-1.44,11.6,11.6,0,0,1,.82-1.16,5.94,5.94,0,0,1-.82-1.56,7.38,7.38,0,0,1,.23-3.3A32.37,32.37,0,0,1,17.12,8.87Z"/><path class="cls-1" d="M17.11,8.87A1.3,1.3,0,0,0,16.2,9a3.09,3.09,0,0,0-.54.78l-1,1.65-1,1.65a7.3,7.3,0,0,1-1.1,1.56,4.92,4.92,0,0,1-.72.64,5.43,5.43,0,0,1-.85.45,5.2,5.2,0,0,0-.83.45,3.56,3.56,0,0,0-.69.64l-0.26.39c-0.07.14-.13,0.29-0.2,0.43s-0.2.6-.3,0.9L8.22,20.38l0,0,1.62-.16c0.54,0,1.08-.12,1.62-0.15l3.26-.17h0c0.19-.47.44-0.91,0.67-1.36,0.13-.22.29-0.42,0.43-0.62l0.44-.62v0a7.42,7.42,0,0,1-.58-1c-0.08-.17-0.14-0.35-0.21-0.52a3.42,3.42,0,0,1-.11-0.55,2.82,2.82,0,0,1,0-.56,4.12,4.12,0,0,1,0-.56A9.61,9.61,0,0,1,15.49,13l0.12-.55c0-.18.13-0.35,0.19-0.53l0.41-1C16.47,10.22,16.81,9.55,17.11,8.87Zm0,0c-0.3.68-.64,1.35-0.9,2.05l-0.41,1c-0.06.18-.15,0.35-0.19,0.52L15.51,13a9.81,9.81,0,0,0-.16,1.11,4.07,4.07,0,0,0,0,.56,2.72,2.72,0,0,0,0,.56,3.36,3.36,0,0,0,.11.55c0.07,0.17.13,0.35,0.21,0.52a7.27,7.27,0,0,0,.58,1h0l-0.44.62c-0.14.21-.3,0.41-0.43,0.62-0.23.45-.48,0.89-0.67,1.35h0l-3.25.18c-0.54,0-1.08.1-1.62,0.15l-1.62.16h0v0l0.56-1.83c0.1-.3.17-0.61,0.3-0.91,0.07-.15.13-0.29,0.2-0.44l0.27-.4a3.68,3.68,0,0,1,.71-0.65A5.38,5.38,0,0,1,11,15.68a5.39,5.39,0,0,0,.83-0.45,5,5,0,0,0,.71-0.63,7.23,7.23,0,0,0,1.1-1.55l1-1.64,1-1.64A3.06,3.06,0,0,1,16.19,9a1.32,1.32,0,0,1,.93-0.13h0Z"/><path class="cls-5" d="M34.87,15.38l-19.46.34c0.26,0.85.87,1.7,2.49,3.81s4.11,1.94,5.34,2,10.48,0,11.64,0,10.41,0,11.64,0,3.72,0.13,5.34-2,2.23-3,2.49-3.81Z"/><path class="cls-8" d="M8,19.59a4.68,4.68,0,0,1,0,1l-0.2,2.29c-0.06.83-.07,1.67-0.12,2.3l-0.06,1s0-.42,0-1,0-1.47.07-2.3l0.17-2.3a4.72,4.72,0,0,1,.14-1H8Z"/><path class="cls-22" d="M15.4,17.29s-0.28.69-.54,1.16a5.27,5.27,0,0,0-.4.94s-1.63.13-2.58,0.17S9,19.8,9,19.8s0.17-.47.37-0.95a1.58,1.58,0,0,1,1.36-1.06c0.84-.13,2-0.28,2.5-0.3S15.4,17.29,15.4,17.29Z"/><path class="cls-21" d="M20.9,29.91a14.15,14.15,0,0,1-1.21,1.21,2.68,2.68,0,0,1-2.07.91c-1.34.13-5.91,0.52-5.91,0.52a2.79,2.79,0,0,1,.47-0.73A4,4,0,0,1,15,30.26C16.24,30.13,20.9,29.91,20.9,29.91Z"/><path class="cls-8" d="M20.92,29.91L20,30.8a6.12,6.12,0,0,1-.93.83,1.9,1.9,0,0,1-.57.26,4.16,4.16,0,0,1-.61.12c-0.41.08-.83,0.09-1.24,0.13l-5,.45h0s0,0-.09,0,0,0,0,0v0l0,0,0-.07,0.09-.13L12,32a3.23,3.23,0,0,1,.4-0.5,1.91,1.91,0,0,1,.46-0.43c0.18-.12.35-0.26,0.54-0.36L14,30.45a2.73,2.73,0,0,1,.62-0.16,3.32,3.32,0,0,1,.63-0.1l0.63,0Zm0,0-5,.35-0.63,0a3.24,3.24,0,0,0-.61.1,2.62,2.62,0,0,0-.6.16l-0.57.24c-0.18.1-.34,0.23-0.51,0.34a1.83,1.83,0,0,0-.46.42,3.14,3.14,0,0,0-.39.48l-0.18.26-0.09.13,0,0.07,0,0h0v0c-0.13-.06-0.06,0-0.08,0h0l5-.41c0.41,0,.83,0,1.24-0.12a4.12,4.12,0,0,0,.61-0.11,1.87,1.87,0,0,0,.56-0.25A6.09,6.09,0,0,0,20,30.78Z"/><path class="cls-20" d="M17.48,35.93a6.19,6.19,0,0,0,5.29-2.39c1.55-2,2.09-3.49,2.73-3.49H45a7.4,7.4,0,0,1,1.86,1.76c1,1.29,1.89,3.6,5.43,4.09"/><path class="cls-3" d="M25.5,30H45a7.4,7.4,0,0,1,1.86,1.76c1,1.29,1.89,3.6,5.43,4.09v0c4.07,0.21,5.85,1.15,6.8,4.41a4.9,4.9,0,0,1,.33,2.57c1.23,0,2.46-1.21,3.17-2a8.75,8.75,0,0,0,1.55-3h0A22.44,22.44,0,0,0,58,35.13a45,45,0,0,0-6.34-1c-1.85-.22-1.81-0.39-2.46-1.08s-0.82-.95-2-2.16a4.2,4.2,0,0,0-3.1-1.47c-1.25-.17-8.11-0.19-9.27-0.19s-8,0-9.27.19a4.2,4.2,0,0,0-3.1,1.47c-1.16,1.21-1.33,1.47-2,2.16s-0.6.86-2.46,1.08a45,45,0,0,0-6.34,1,22.45,22.45,0,0,0-6.08,2.75h0a8.71,8.71,0,0,0,1.55,3c0.71,0.84,1.94,2,3.17,2a4.91,4.91,0,0,1,.32-2.57c1-3.49,3-4.32,7.7-4.45a5.78,5.78,0,0,0,4.4-2.34C24.32,31.55,24.86,30,25.5,30Z"/><polygon class="cls-12" points="34.87 30.05 25.14 30.05 25.14 34.36 34.87 34.36 44.6 34.36 44.6 30.05 34.87 30.05"/><path class="cls-1" d="M34.87,30.05l-9.73,0,0,0v4.31l0,0H44.6l0,0V30H34.87Zm0,0h9.75v4.33H25.11V30h0Z"/><path class="cls-21" d="M35.51,6H30.73a0.65,0.65,0,0,0-.65.23,0.65,0.65,0,0,0,.65.23H39a0.65,0.65,0,0,0,.65-0.23A0.65,0.65,0,0,0,39,6H35.51Z"/><path class="cls-1" d="M54,12.65a11.79,11.79,0,0,0-1-2.79c-0.11-.22-0.21-0.45-0.34-0.67l-0.4-.62a2.28,2.28,0,0,0-1-1,9.6,9.6,0,0,0-2.91-.51l-3-.15c-2-.1-4-0.19-6-0.22l-3-.07c-1,0-2,0-3,0-2,0-4,.07-6,0.14l-3,.13c-1,.05-2,0.08-3,0.16a8.56,8.56,0,0,0-2.9.55,2.57,2.57,0,0,0-1,1c-0.13.21-.28,0.42-0.4,0.64L16.67,10a11.42,11.42,0,0,0-1,2.8,7.58,7.58,0,0,0-.18,2.92l-0.12-.08,19.47-.3,9.73,0.15,4.87,0.08,2.43,0a14,14,0,0,1,2.43.14h0l0-.39a1.8,1.8,0,0,0,0-.38c0-.26,0-0.51-0.08-0.77L54,12.64h0Zm0.25,0c0.08,0.51.16,1,.22,1.56,0,0.26,0,.53,0,0.79a1.89,1.89,0,0,1-.07.39l-0.09.39h0a14,14,0,0,1-2.44.05l-2.43,0-4.87-.09-9.73-.2-19.46.38H15.3V15.76a7.71,7.71,0,0,1,.16-3,11.62,11.62,0,0,1,1-2.86l0.34-.68c0.13-.22.27-0.42,0.4-0.63A2.8,2.8,0,0,1,18.3,7.47a8.67,8.67,0,0,1,3-.54c1-.07,2-0.08,3-0.13l3-.12c2-.05,4-0.07,6-0.1s4,0,6,0,4,0.08,6,.16c1,0,2,.07,3,0.12a9.67,9.67,0,0,1,3,.51,2.5,2.5,0,0,1,1.13,1l0.41,0.64C53,9.3,53.1,9.53,53.22,9.75a12.11,12.11,0,0,1,1,2.84h0Z"/><path class="cls-8" d="M5.64,37.88s0.19-.16.58-0.41A16,16,0,0,1,8,36.54a30.53,30.53,0,0,1,2.9-1.16c0.29-.09.58-0.19,0.89-0.28l1-.2,2.09-.42,2.29-.3c0.4-.05.8-0.1,1.21-0.16a5.37,5.37,0,0,0,1.22-.26c1.38-.92,2.31-2.59,3.8-3.7L24,29.71l0.68-.2a7.32,7.32,0,0,1,1.41-.18L29,29.23c1.94-.09,3.93-0.06,5.91-0.09s4,0,5.9.09l2.89,0.11a7.28,7.28,0,0,1,1.41.18l0.68,0.2,0.62,0.35c1.5,1.11,2.42,2.78,3.81,3.7A5.34,5.34,0,0,0,51.4,34c0.41,0.07.81,0.11,1.21,0.16l2.3,0.3L57,34.91l1,0.2c0.31,0.08.6,0.18,0.89,0.27a30.63,30.63,0,0,1,2.9,1.16,16,16,0,0,1,1.78.93c0.39,0.25.58,0.41,0.58,0.41s-0.19-.16-0.58-0.41a15.85,15.85,0,0,0-1.78-.92,30.57,30.57,0,0,0-2.9-1.15c-0.29-.09-0.58-0.19-0.89-0.27l-1-.19-2.09-.41-2.29-.29c-0.4-.05-0.8-0.09-1.21-0.16a5.36,5.36,0,0,1-1.23-.26c-1.42-.94-2.35-2.6-3.83-3.69a4.89,4.89,0,0,0-2.67-.7l-2.89-.09c-1.94-.08-3.92,0-5.9-0.07s-4,0-5.9.07l-2.89.09a4.9,4.9,0,0,0-2.67.7c-1.49,1.09-2.41,2.75-3.83,3.69a5.38,5.38,0,0,1-1.23.26c-0.41.07-.81,0.1-1.21,0.16l-2.29.29-2.09.41-1,.19c-0.31.08-.6,0.18-0.89,0.27A30.57,30.57,0,0,0,8,36.55a15.94,15.94,0,0,0-1.78.92C5.83,37.72,5.64,37.88,5.64,37.88Z"/></svg>