<svg id="Buddy_electric-2" data-name="Buddy electric" xmlns="http://www.w3.org/2000/svg" viewBox="0 0 209.99 108.13"><defs><style>.cls-1{fill:#202020;}.cls-2{fill:#666466;}.cls-3{fill:#484749;}.cls-18,.cls-22,.cls-4{fill:#881d1c;}.cls-18,.cls-24,.cls-4,.cls-9{stroke:#881d1c;}.cls-11,.cls-14,.cls-15,.cls-16,.cls-18,.cls-20,.cls-21,.cls-24,.cls-4,.cls-7,.cls-8,.cls-9{stroke-miterlimit:10;}.cls-14,.cls-4,.cls-7,.cls-8{stroke-width:0.19px;}.cls-5{fill:#c7c8ca;}.cls-24,.cls-6,.cls-7{fill:#661615;}.cls-7{stroke:#c60000;}.cls-20,.cls-7{opacity:0.5;}.cls-13,.cls-8{fill:#ece7e4;}.cls-14,.cls-8{stroke:#4a4452;}.cls-11,.cls-14,.cls-15,.cls-16,.cls-9{fill:none;}.cls-11,.cls-15,.cls-9{stroke-width:0.75px;}.cls-10{fill:#363537;}.cls-11,.cls-15{stroke:#000;}.cls-12{fill:#969696;}.cls-15{stroke-linecap:round;}.cls-16{stroke:#661615;stroke-width:0.38px;}.cls-17{fill:#a04a49;}.cls-18,.cls-21,.cls-24{stroke-width:0.19px;}.cls-19,.cls-20{fill:#5c5f61;}.cls-20{stroke:#202020;stroke-width:0.38px;}.cls-21{fill:silver;stroke:silver;}.cls-23{fill:#c60000;}</style></defs><title>Green street</title><path class="cls-1" d="M84.11,96.73h13.5V96.49c0,3.33-.14,6.29-2,6.29H86.37c-2.78,0-2.26-4.07-2.26-6.47v0.43Z"/><rect class="cls-1" x="99.79" y="25.07" width="7.37" height="5.35"/><path class="cls-2" d="M10.82,69.47h89.54L100.43,68c0.38-8.44-.94-50.28-1.31-53.47s-0.75-3-3.19-3-40.34-.3-40.34-0.3-37.9.3-40.34,0.3-2.81-.19-3.19,3-1.69,45-1.31,53.47Z"/><path class="cls-3" d="M12,69.46c6.47-9,14.23-13.07,33.36-23.19C62.47,37.22,77,32.94,97.55,30.41V69.47H12Z"/><path class="cls-1" d="M15.44,74c2.75,1.13,8,1.38,12.38,1.63s13.7,0,18.26,0c3.75,0,3.5.53,4.75,1.22a8.82,8.82,0,0,0,4.75,1,8.82,8.82,0,0,0,4.75-1c1.25-.69,1-1.22,4.75-1.22,4.56,0,13.88.22,18.26,0S93,75.08,95.74,74c2.3-.94,3-2.59,3.5-4.49H11.94C12.41,71.37,13.14,73,15.44,74Z"/><path class="cls-1" d="M99.79,30.49c-0.26-8.19-.53-14.74-0.67-15.93-0.38-3.19-.75-3-3.19-3s-40.34-.38-40.34-0.38-37.9.38-40.34,0.38-2.81-.19-3.19,3c-0.14,1.19-.41,7.74-0.67,15.93h88.4Z"/><path class="cls-4" d="M99.49,68.4c-0.5,2.38-1,4.5-3.75,5.63s-8,1.38-12.38,1.63-13.7,0-18.26,0c-3.75,0-3.5.53-4.75,1.22a8.82,8.82,0,0,1-4.75,1,8.82,8.82,0,0,1-4.75-1c-1.25-.69-1-1.22-4.75-1.22-4.57,0-13.88.22-18.26,0s-9.63-.5-12.38-1.63-3.25-3.25-3.75-5.63-0.61-22.14-.61-27.52h0C10.78,52.31,10.57,64,10.75,68c0.38,8.44,1.31,28.71,1.31,28.71H99.12s0.94-20.26,1.31-28.71c0.18-4,0-15.71-.33-27.15h0C100.1,46.27,100,66,99.49,68.4Z"/><path d="M99.1,14.49c-0.37-3.19-.75-3-3.19-3s-40.34-.3-40.34-0.3H54.46c6.26,0.05,37,.29,39.23.29,2.44,0,2.81-.19,3.19,3,0.33,2.82,1.4,35.91,1.38,49.34,0-5.52-.17-14.3-0.4-22.94,0,5.38-.1,25.14-0.6,27.52-0.08.36-.15,0.72-0.24,1.06h0C96.53,71.37,95.81,73,93.5,74c-2.75,1.13-8,1.38-12.38,1.63-1.36.08-3.21,0.11-5.24,0.12,2.88,0,5.61,0,7.46-.12,4.38-.25,9.63-0.5,12.38-1.63,2.3-.94,3-2.59,3.5-4.49h0c0.08-.35.16-0.7,0.24-1.06,0.5-2.38.6-22.14,0.6-27.52,0.23,8.64.41,17.43,0.4,22.94C100.5,50.4,99.43,17.31,99.1,14.49Z"/><path class="cls-1" d="M27.07,96.73H13.57V96.49c0,3.33.14,6.29,2,6.29h9.21c2.78,0,2.26-4.07,2.26-6.47v0.43Z"/><polygon class="cls-5" points="55.59 92.51 46.4 92.51 46.4 96.65 55.59 96.65 64.78 96.65 64.78 92.51 55.59 92.51"/><path class="cls-3" d="M55.59,92.52l-9.19,0,0,0v4.13l0,0H64.78l0,0V92.51H55.59Zm0,0h9.21v4.15H46.37V92.49h0Z"/><path class="cls-6" d="M12.9,72l-1,.47a3.15,3.15,0,0,0-.6.41l-0.25.22,0.21-.26a3.28,3.28,0,0,1,.54-0.53l0.87-.64Z"/><path class="cls-6" d="M25.69,75.53l3,5.42,3,5.56c0.55,1,1.13,2.06,1.69,3.14a5.19,5.19,0,0,0,1,1.48,2.29,2.29,0,0,0,1.54.74c1.21,0.06,2.46.05,3.67,0.08L43.1,92c2.31,0,4.47.13,6.32,0.2,3.7,0.13,6.17.27,6.17,0.27v0s-2.47,0-6.17,0c-1.85,0-4,0-6.32-.1l-3.57-.1c-1.22,0-2.44-.06-3.69-0.14a2.58,2.58,0,0,1-1.71-.84,5.46,5.46,0,0,1-1-1.57c-0.54-1.08-1.12-2.13-1.65-3.16L28.52,81l-2.86-5.46Z"/><polygon class="cls-6" points="34.15 91.35 28.76 91.26 28.85 91.12 30.82 96.73 28.67 91.19 28.62 91.06 28.76 91.06 34.15 90.97 34.15 91.35"/><path d="M59.84,67.83l-5.25,0c-1.57,0-3.41.06-5.38,0s-4.08-.09-6.17-0.17l-3.12-.15h-3c-1,0-1.93.11-2.83,0.13l-2.54.1c-1.57,0-2.89.07-3.81,0.07H26.33V67.73l1.43-.22c0.91-.14,2.21-0.29,3.78-0.48s3.38-.38,5.36-0.51c1,0,2,0,3.09,0L43.1,66.8l6.14,0.46c2,0.18,3.8.18,5.37,0.27l5.24,0.2v0.09Z"/><path class="cls-7" d="M13.81,91.61a2.87,2.87,0,0,0,2.38,1.88c1.69,0.31,12.57,1.06,12.57,1.06s-0.31-.88-0.81-2-0.56-1.24-2-1.35l-12.63-1A8.08,8.08,0,0,0,13.81,91.61Z"/><path class="cls-7" d="M12.8,83s8.27,0.44,9.83.63S24.38,84,25.07,85.1s2,3.81,2,3.81l-13.76-1Z"/><path class="cls-8" d="M20.38,85.69a3.1,3.1,0,0,0-1-2.27l-3.69-.22a3.12,3.12,0,0,0-.13,4.88l3.34,0.24A3.08,3.08,0,0,0,20.38,85.69Z"/><path class="cls-9" d="M55.59,11.18s37.9,0.38,40.34.38,2.81-.19,3.19,3,1.69,45,1.31,53.47c-0.34,7.64-1.14,25-1.29,28.18a0.48,0.48,0,0,1-.52.52H12.53A0.47,0.47,0,0,1,12,96.21C11.89,93,11.09,75.67,10.75,68c-0.37-8.44.94-50.28,1.31-53.47s0.75-3,3.19-3S55.59,11.18,55.59,11.18Z"/><path class="cls-6" d="M98.48,71.67l0.87,0.64a3.26,3.26,0,0,1,.54.53l0.21,0.26-0.25-.22a3.11,3.11,0,0,0-.6-0.41l-1-.47Z"/><path class="cls-6" d="M85.52,75.54L82.66,81l-2.94,5.6c-0.53,1-1.11,2.08-1.65,3.16a5.46,5.46,0,0,1-1,1.57,2.59,2.59,0,0,1-1.71.84c-1.25.08-2.47,0.09-3.69,0.14l-3.57.1c-2.31.07-4.47,0.08-6.32,0.1-3.7.05-6.17,0-6.17,0v0s2.47-.14,6.17-0.27c1.85-.07,4-0.16,6.32-0.2l3.57-.08c1.21,0,2.46,0,3.67-.08a2.29,2.29,0,0,0,1.54-.74,5.19,5.19,0,0,0,1-1.48c0.56-1.08,1.14-2.12,1.69-3.14l3-5.56,3-5.42Z"/><polygon class="cls-6" points="77.02 90.97 82.42 91.06 82.56 91.06 82.51 91.19 80.36 96.73 82.32 91.12 82.42 91.26 77.02 91.35 77.02 90.97"/><path class="cls-10" d="M55.59,28.38H91.86v-9c0-1.75-1.75-2.5-3.13-2.5H22.44c-1.38,0-3.13.75-3.13,2.5v9H55.59Z"/><path class="cls-11" d="M88.85,71.83c-4.63-1-17.87-7.3-17.87-7.3"/><path d="M49.26,65.21s2-.26,4.91-0.58c1.48-.16,3.19-0.38,5-0.53S63,63.74,65,63.67l1.49-.09c0.5,0,1,0,1.49,0l2.86,0c1.85,0.07,3.58.17,5.06,0.3,0.74,0.06,1.42.14,2,.19s1.12,0.11,1.55.17c0.86,0.11,1.35.19,1.35,0.19v0.11s-0.5,0-1.36.1c-0.43,0-1,.06-1.56.07s-1.29.05-2,.06c-1.49,0-3.22,0-5.07,0L68,64.63c-0.48,0-1-.07-1.45-0.08l-1.47,0c-1,0-2,0-2.93.12l-2.85.16c-1.85.11-3.58,0.2-5.06,0.26-3,.15-4.94.21-4.94,0.21V65.21Z"/><path class="cls-7" d="M97.36,91.61A2.86,2.86,0,0,1,95,93.48c-1.69.31-12.57,1.06-12.57,1.06s0.31-.88.81-2,0.56-1.24,2-1.35l12.63-1A8,8,0,0,1,97.36,91.61Z"/><path class="cls-7" d="M98.38,83s-8.27.44-9.83,0.63S86.8,84,86.11,85.1s-2,3.81-2,3.81l13.76-1Z"/><rect class="cls-1" x="98.18" y="36.22" width="13.31" height="6.77" rx="0.94" ry="0.94" transform="translate(64.95 144.33) rotate(-89.85)"/><rect class="cls-1" x="106.57" y="27.74" width="0.59" height="5.35"/><rect class="cls-1" x="4.07" y="25.07" width="7.37" height="5.35"/><rect class="cls-1" x="3.01" y="32.95" width="6.77" height="13.31" rx="0.94" ry="0.94" transform="translate(-0.1 0.02) rotate(-0.15)"/><rect class="cls-1" x="4.07" y="27.74" width="0.58" height="5.35"/><path class="cls-8" d="M90.8,85.69a3.09,3.09,0,0,1,1-2.27l3.69-.22a3.11,3.11,0,0,1,.13,4.88l-3.34.24A3.08,3.08,0,0,1,90.8,85.69Z"/><circle class="cls-12" cx="88.6" cy="86.35" r="2.04"/><circle class="cls-12" cx="22.58" cy="86.35" r="2.04"/><circle class="cls-12" cx="16" cy="19.35" r="1.48"/><circle class="cls-12" cx="95.18" cy="19.35" r="1.48"/><rect class="cls-13" x="19.94" y="91.16" width="5.73" height="2.67" rx="0.94" ry="0.94"/><rect class="cls-14" x="19.94" y="91.16" width="5.73" height="2.67" rx="0.94" ry="0.94"/><rect class="cls-13" x="85.51" y="91.16" width="5.73" height="2.67" rx="0.94" ry="0.94"/><rect class="cls-14" x="85.51" y="91.16" width="5.73" height="2.67" rx="0.94" ry="0.94"/><path class="cls-15" d="M21.94,71.16l18.69-4.07"/><path class="cls-6" d="M49.26,84l15.79-.13c3.95,0,7.9-.06,10.86,0S80.85,84,80.85,84v0s-2,.08-4.94.12-6.91.05-10.86,0L49.26,84v0Z"/><line class="cls-16" x1="78.82" y1="88" x2="32.36" y2="88"/><path class="cls-6" d="M30.82,84L37,83.87l2.25,0c0.72,0,1.39,0,2,0,1.15,0,1.92.13,1.92,0.13v0s-0.77.08-1.92,0.13c-0.57,0-1.25,0-2,0l-2.25,0L30.82,84v0Z"/><path class="cls-17" d="M55.59,79h0c6.19,0,23.64-1.13,28.48-1.26S90.8,76.49,95.74,74h0c-2.75,1.13-8,1.38-12.38,1.63s-13.7,0-18.26,0c-3.75,0-3.5.53-4.75,1.22a8.82,8.82,0,0,1-4.75,1,8.82,8.82,0,0,1-4.75-1c-1.25-.69-1-1.22-4.75-1.22-4.57,0-13.88.22-18.26,0s-9.63-.5-12.38-1.63c4.94,2.53,6.83,3.67,11.67,3.8S49.4,79,55.59,79Z"/><path class="cls-1" d="M192.62,96.71h9.19V96.46c0,3.35-.14,6.32-2,6.32h-4.89c-2.78,0-2.26-4.09-2.26-6.5v0.43Z"/><path class="cls-1" d="M183.43,96.71h9.19V96.46c0,3.35-.13,6.32-2,6.32h-4.9c-2.78,0-2.26-4.09-2.26-6.5v0.43Z"/><path class="cls-1" d="M126.67,96.71h-9.19V96.46c0,3.35.13,6.32,2,6.32h4.89c2.78,0,2.26-4.09,2.26-6.5v0.43Z"/><path class="cls-1" d="M135.86,96.71h-9.19V96.46c0,3.35.14,6.32,2,6.32h4.89c2.79,0,2.26-4.09,2.26-6.5v0.43Z"/><path class="cls-18" d="M202.8,14.27c-0.37-3.2-1.13-3-3.56-3s-39.59-.38-39.59-0.38v86h43a0.48,0.48,0,0,0,.52-0.52c0.15-3.24-.18-20.64.16-28.32C203.73,59.51,203.17,17.47,202.8,14.27Z"/><path class="cls-18" d="M120.06,11.25c-2.44,0-3.19-.19-3.56,3s-0.94,45.24-.56,53.72c0.34,7.68,0,25.07.16,28.32a0.48,0.48,0,0,0,.52.52h43v-86S122.5,11.25,120.06,11.25Z"/><path class="cls-17" d="M159.65,44.85l-39.59-2.51v9.93c10.28,2.58,24.83,3.52,39.59,3.52s29.3-.94,39.58-3.52V42.34Z"/><path class="cls-17" d="M159.65,79.8H116.09a5.1,5.1,0,0,0,4.62,2.64h77.87a5.1,5.1,0,0,0,4.62-2.64H159.65Z"/><path class="cls-19" d="M203.33,79.8l0.12-15.19h-4.21c-2.28,0-7.58,2.19-8.47,10.17-0.22,1.94-.4,3.59-0.57,5h13.13Z"/><path class="cls-1" d="M159.65,10.88l-39.59.38v36.1a79.36,79.36,0,0,0,9.59,1.79c5.35,0.66,25,1.5,30,1.5s24.64-.84,30-1.5a79.34,79.34,0,0,0,9.6-1.79V11.25Z"/><path class="cls-3" d="M159.65,24.13H125.06V40.72c0,1.51.41,2.23,1.86,2.58,6.47,1.53,32.73,2.35,32.73,2.35s26.36-.54,32.73-2.35c1.43-.41,1.85-1.06,1.85-2.58V24.13H159.65Z"/><path class="cls-2" d="M126.91,43.29c0.5,0.12,1.13.23,1.85,0.34,9.37-5.1,32.39-13.87,53.25-19.5h-57V40.72C125.06,42.23,125.46,42.95,126.91,43.29Z"/><ellipse class="cls-12" cx="194.23" cy="14.94" rx="1.48" ry="1.49"/><ellipse class="cls-20" cx="194.73" cy="77.49" rx="0.99" ry="1"/><path class="cls-19" d="M116,79.8l-0.12-15.19h4.21c2.28,0,7.58,2.19,8.47,10.17,0.22,1.94.4,3.59,0.57,5H116Z"/><ellipse class="cls-20" cx="124.56" cy="77.49" rx="0.99" ry="1"/><ellipse class="cls-21" cx="194.23" cy="20.57" rx="1.86" ry="1.86"/><path class="cls-6" d="M203.42,64.63c-1.46,0-2.92,0-4.37.07a7.58,7.58,0,0,0-3.95,1.64,9.18,9.18,0,0,0-1.54,1.52,10.38,10.38,0,0,0-1.18,1.82,12.35,12.35,0,0,0-.81,2,8.4,8.4,0,0,0-.28,1,9,9,0,0,0-.21,1.07c-0.22,1.42-.33,2.9-0.51,4.35l-0.48,4.37-1,8.73-0.16-.18,14.29,0-0.12.12Zm0,0-0.11,26.64v0.12h-0.12l-14.29,0h-0.18l0-.18,0.94-8.74,0.48-4.37c0.18-1.46.27-2.91,0.53-4.37a9.17,9.17,0,0,1,.23-1.09,8.62,8.62,0,0,1,.3-1.07,12.55,12.55,0,0,1,.86-2,10.62,10.62,0,0,1,1.23-1.85,9.48,9.48,0,0,1,1.6-1.54,8.8,8.8,0,0,1,1.92-1.1,6.49,6.49,0,0,1,2.16-.51c1.47,0,2.93,0,4.4.05h0Z"/><path class="cls-6" d="M199.21,91.23s-0.07-20-.13-40c0-10-.06-20,0-27.49s0.12-12.5.12-12.5h0s0.08,5,.12,12.5,0.05,17.49,0,27.49c-0.07,20-.13,40-0.13,40h0Z"/><path class="cls-22" d="M203.39,64.61a0.42,0.42,0,0,0-.19,0v0h-4v5h4V69.57a0.42,0.42,0,0,0,.19.05c0.54,0,1-1.12,1-2.51S203.93,64.61,203.39,64.61Z"/><path class="cls-23" d="M203.39,64.62l-0.19.05h0v0h0l-4,0,0,0,0,5-0.07-.07,4,0-0.09.09V69.46l0.14,0,0.14,0,0.15,0a0.64,0.64,0,0,0,.22-0.21,2.08,2.08,0,0,0,.31-0.63,5.18,5.18,0,0,0,.24-1.44,5.86,5.86,0,0,0-.13-1.46,3.32,3.32,0,0,0-.25-0.69,1.31,1.31,0,0,0-.22-0.29A0.54,0.54,0,0,0,203.39,64.62Zm0,0a0.57,0.57,0,0,1,.34.15A1.36,1.36,0,0,1,204,65a3.42,3.42,0,0,1,.28.69,6,6,0,0,1,.18,1.48,5.33,5.33,0,0,1-.19,1.49,1.94,1.94,0,0,1-.33.7,0.82,0.82,0,0,1-.33.27,0.92,0.92,0,0,1-.21,0l-0.22-.06,0.14-.08v0.14H203.2l-4,0h-0.07V69.62l0-5v0h0l4,0h0v0h0Z"/><path class="cls-5" d="M203.39,69.62a0.42,0.42,0,0,0-.19.05V69.62h-4v5h4v0a0.43,0.43,0,0,0,.19,0c0.54,0,1-1.12,1-2.51S203.93,69.62,203.39,69.62Z"/><path class="cls-23" d="M203.39,69.63l-0.19.05h0V69.62h-3.95v5l0,0h4l0,0V74.55h0l0.17,0a1.05,1.05,0,0,0,.17,0,0.69,0.69,0,0,0,.26-0.23,2,2,0,0,0,.31-0.65,5.24,5.24,0,0,0,.22-1.45,5.91,5.91,0,0,0-.15-1.47,3.4,3.4,0,0,0-.26-0.69,1.35,1.35,0,0,0-.22-0.29A0.55,0.55,0,0,0,203.39,69.63Zm0,0a0.56,0.56,0,0,1,.33.15,1.35,1.35,0,0,1,.23.29,3.37,3.37,0,0,1,.27.69,6,6,0,0,1,.16,1.47,5.27,5.27,0,0,1-.21,1.47,2,2,0,0,1-.32.67,0.75,0.75,0,0,1-.29.25,1,1,0,0,1-.19,0l-0.19,0,0,0v0.08h-4v-5h4v0.05h0Z"/><path class="cls-22" d="M203.39,74.64a0.43,0.43,0,0,0-.19.05V74.64h-4v5h4V79.6a0.42,0.42,0,0,0,.19.05c0.54,0,1-1.12,1-2.51S203.93,74.64,203.39,74.64Z"/><path class="cls-23" d="M203.39,74.65l-0.19.05h0V74.64h0l-4,0,0,0,0,5-0.07-.07,4,0-0.09.09V79.49l0.14,0,0.14,0,0.15,0a0.63,0.63,0,0,0,.22-0.21,2.1,2.1,0,0,0,.31-0.63,5.18,5.18,0,0,0,.24-1.44,5.81,5.81,0,0,0-.13-1.46,3.32,3.32,0,0,0-.25-0.69,1.31,1.31,0,0,0-.22-0.29A0.54,0.54,0,0,0,203.39,74.65Zm0,0a0.57,0.57,0,0,1,.34.15,1.34,1.34,0,0,1,.23.29,3.42,3.42,0,0,1,.28.69,6,6,0,0,1,.18,1.48,5.37,5.37,0,0,1-.19,1.49,2,2,0,0,1-.33.7,0.82,0.82,0,0,1-.33.27,0.92,0.92,0,0,1-.21,0l-0.22-.06,0.14-.08v0.14H203.2l-4,0h-0.07V79.65l0-5v0h0l4,0h0v0.05h0Z"/><ellipse class="cls-12" cx="125.06" cy="14.94" rx="1.48" ry="1.49"/><ellipse class="cls-21" cx="125.06" cy="20.57" rx="1.85" ry="1.86"/><path class="cls-6" d="M115.85,64.59c1.47,0,2.92-.05,4.4-0.05a6.48,6.48,0,0,1,2.16.51,8.79,8.79,0,0,1,1.92,1.1,9.41,9.41,0,0,1,1.6,1.54,10.55,10.55,0,0,1,1.23,1.85,12.55,12.55,0,0,1,.86,2,8.66,8.66,0,0,1,.3,1.07,9.23,9.23,0,0,1,.23,1.09c0.26,1.47.35,2.91,0.53,4.37l0.48,4.37,0.94,8.74,0,0.18h-0.18l-14.29,0h-0.12V91.23l-0.11-26.64h0Zm0,0,0.3,26.6-0.12-.12,14.29,0-0.16.18-1-8.73-0.48-4.37c-0.18-1.45-.29-2.93-0.51-4.35a9,9,0,0,0-.21-1.07,8.37,8.37,0,0,0-.28-1,12.22,12.22,0,0,0-.81-2,10.28,10.28,0,0,0-1.18-1.82,9.19,9.19,0,0,0-1.54-1.52,7.59,7.59,0,0,0-3.95-1.64C118.79,64.66,117.32,64.65,115.87,64.63Z"/><path class="cls-24" d="M159.65,76.49H145.73v2.05c0,1.51.88,2.88,2.13,2.95s11.79,0,11.79,0,10.54,0.07,11.79,0,2.13-1.44,2.13-2.95V76.49H159.65Z"/><path class="cls-6" d="M120,91.23s-0.07-20-.13-40c0-10-.06-20,0-27.49s0.12-12.5.12-12.5h0s0.08,5,.12,12.5,0.05,17.49,0,27.49c-0.07,20-.13,40-0.13,40h0Z"/><path class="cls-6" d="M128.63,75.38l31-.13c7.75,0,15.51-.06,21.32,0s9.69,0.12,9.69.12v0s-3.88.08-9.69,0.12-13.57.05-21.32,0l-31-.13v0Z"/><path class="cls-6" d="M130.34,91.21l29.3-.13c7.33,0,14.65-.06,20.15,0s9.16,0.12,9.16.12v0s-3.66.08-9.16,0.12-12.82.05-20.15,0l-29.3-.13v0Z"/><path class="cls-22" d="M115.9,64.61a0.41,0.41,0,0,1,.19,0v0h4v5h-4V69.57a0.41,0.41,0,0,1-.19.05c-0.54,0-1-1.12-1-2.51S115.36,64.61,115.9,64.61Z"/><path class="cls-23" d="M115.9,64.6l0.19,0h0v0h0l4,0h0v0l0,5V69.7h-0.07l-4,0H116V69.57l0.14,0.08-0.22.06a0.94,0.94,0,0,1-.2,0,0.82,0.82,0,0,1-.33-0.27,1.94,1.94,0,0,1-.33-0.7,5.37,5.37,0,0,1-.19-1.49,6,6,0,0,1,.18-1.48,3.36,3.36,0,0,1,.28-0.69,1.39,1.39,0,0,1,.23-0.29A0.57,0.57,0,0,1,115.9,64.6Zm0,0a0.54,0.54,0,0,0-.32.16,1.31,1.31,0,0,0-.22.29,3.29,3.29,0,0,0-.25.69,5.85,5.85,0,0,0-.13,1.46,5.17,5.17,0,0,0,.24,1.43,2.08,2.08,0,0,0,.31.63,0.65,0.65,0,0,0,.22.21l0.15,0,0.14,0,0.14,0v0.16l-0.09-.09,4,0-0.07.07,0-5,0,0-4,0h0v0h0Z"/><path class="cls-5" d="M115.9,69.62a0.41,0.41,0,0,1,.19.05V69.62h4v5h-4v0a0.42,0.42,0,0,1-.19,0c-0.54,0-1-1.12-1-2.51S115.36,69.62,115.9,69.62Z"/><path class="cls-23" d="M115.9,69.62l0.19,0h0V69.62h4v5h-4V74.59l0,0-0.19,0a1,1,0,0,1-.19,0,0.77,0.77,0,0,1-.29-0.25,2,2,0,0,1-.32-0.67,5.27,5.27,0,0,1-.21-1.47,5.94,5.94,0,0,1,.16-1.47,3.34,3.34,0,0,1,.27-0.69,1.34,1.34,0,0,1,.23-0.29A0.56,0.56,0,0,1,115.9,69.62Zm0,0a0.55,0.55,0,0,0-.32.16,1.34,1.34,0,0,0-.22.29,3.34,3.34,0,0,0-.26.69,5.87,5.87,0,0,0-.15,1.47,5.25,5.25,0,0,0,.22,1.45,2.05,2.05,0,0,0,.31.65,0.7,0.7,0,0,0,.26.23,1.08,1.08,0,0,0,.17,0l0.17,0h0v0.09l0,0h4l0,0v-5H116.1v0.05h0Z"/><path class="cls-22" d="M115.9,74.64a0.42,0.42,0,0,1,.19.05V74.64h4v5h-4V79.6a0.41,0.41,0,0,1-.19.05c-0.54,0-1-1.12-1-2.51S115.36,74.64,115.9,74.64Z"/><path class="cls-23" d="M115.9,74.63l0.19,0h0V74.64h0l4,0h0v0l0,5v0.07h-0.07l-4,0H116V79.6l0.14,0.08-0.22.06a1,1,0,0,1-.2,0,0.82,0.82,0,0,1-.33-0.27,2,2,0,0,1-.33-0.7,5.33,5.33,0,0,1-.19-1.49,6,6,0,0,1,.18-1.48,3.36,3.36,0,0,1,.28-0.69,1.38,1.38,0,0,1,.23-0.29A0.57,0.57,0,0,1,115.9,74.63Zm0,0a0.54,0.54,0,0,0-.32.16,1.32,1.32,0,0,0-.22.29,3.31,3.31,0,0,0-.25.69,5.76,5.76,0,0,0-.13,1.46,5.17,5.17,0,0,0,.24,1.44,2.1,2.1,0,0,0,.31.63,0.66,0.66,0,0,0,.22.21l0.15,0,0.14,0,0.14,0v0.16l-0.09-.09,4,0-0.07.07,0-5,0,0-4,0h0v0.05h0Z"/><polygon class="cls-5" points="159.65 76.96 150.45 76.96 150.45 81.11 159.65 81.11 168.84 81.11 168.84 76.96 159.65 76.96"/><path class="cls-3" d="M159.65,77l-9.19,0,0,0v4.15l0,0h18.39l0,0V77h-9.18Zm0,0h9.21v4.17H150.42V76.94h0Z"/><polygon class="cls-10" points="159.65 13.45 151.35 13.45 151.35 22.38 159.65 22.38 167.94 22.38 167.94 13.45 159.65 13.45"/></svg>