<svg xmlns="http://www.w3.org/2000/svg" viewBox="0 0 500 400"><defs><style>.cls-1{isolation:isolate;}.cls-2{fill:#ffce5f;}.cls-2,.cls-3{mix-blend-mode:multiply;}.cls-3{fill:#f69420;}</style></defs><title>navbar-aboutme</title><g class="cls-1"><g id="Layer_1" data-name="Layer 1"><path class="cls-2" d="M249.85,139.23a87.5,87.5,0,0,0-87.4,87.4l1.69,156.56a15.81,15.81,0,1,0,31.61,0l14.2-156.56a39.9,39.9,0,0,1,79.8,0,23.75,23.75,0,0,0,47.5,0A87.5,87.5,0,0,0,249.85,139.23Z"/><path class="cls-3" d="M273.46,310.78A87.5,87.5,0,0,0,334,203L290.08,52.73a15.81,15.81,0,0,0-30.44,8.54l28.63,154.58a39.9,39.9,0,1,1-76.83,21.56,23.75,23.75,0,1,0-45.73,12.83A87.5,87.5,0,0,0,273.46,310.78Z"/><circle class="cls-3" cx="265.01" cy="12.65" r="12.65"/></g></g></svg>