<svg id="Layer_1" data-name="Layer 1" xmlns="http://www.w3.org/2000/svg" viewBox="0 0 16 16.87"><title>Viber icon</title><path d="M14.19,1.65C13.77,1.26,12.08,0,8.31,0c0,0-4.45-.27-6.62,1.72C0.48,2.94.05,4.71,0,6.9s-0.1,6.3,3.85,7.41h0V16a0.87,0.87,0,0,0,.43.83c0.55,0.17.87-.35,1.39-0.92,0.29-.31.68-0.76,1-1.11a15.28,15.28,0,0,0,5-.37,5,5,0,0,0,4.14-4.68C16.36,5.53,15.59,2.85,14.19,1.65Zm0.46,7.81a3.93,3.93,0,0,1-3.39,3.79,14.11,14.11,0,0,1-4.33.37s-1.71,2.07-2.25,2.6a0.29,0.29,0,0,1-.25.1A0.25,0.25,0,0,1,4.32,16V13.21C1,12.28,1.18,8.79,1.22,7a6,6,0,0,1,1.4-4.34C4.46,1,8.24,1.2,8.24,1.2c3.19,0,4.72,1,5.08,1.3C14.49,3.51,15.09,5.92,14.65,9.46Z"/><path d="M10.28,9a0.69,0.69,0,0,0-.88.12l-0.32.4a0.58,0.58,0,0,1-.46.17A4.13,4.13,0,0,1,5.85,6.88,0.58,0.58,0,0,1,6,6.42l0.4-.32a0.69,0.69,0,0,0,.12-0.88A8.8,8.8,0,0,0,5.46,3.72a0.6,0.6,0,0,0-.79-0.13h0a3.3,3.3,0,0,0-.81.66h0a1.08,1.08,0,0,0-.28,1h0a10.7,10.7,0,0,0,3.26,4.77,12.7,12.7,0,0,0,3.37,1.86h0a1.08,1.08,0,0,0,1-.28h0a3.24,3.24,0,0,0,.66-0.81h0a0.6,0.6,0,0,0-.13-0.79A8.68,8.68,0,0,0,10.28,9Z"/><path d="M7.89,3h0a0.21,0.21,0,0,0,0,.43,4,4,0,0,1,2.83,1.12,4.12,4.12,0,0,1,1.15,3,0.21,0.21,0,0,0,.21.21h0a0.21,0.21,0,0,0,.21-0.21A4.54,4.54,0,0,0,11,4.26,4.37,4.37,0,0,0,7.89,3Z"/><path d="M10.74,7.17a0.21,0.21,0,0,0,.21.22h0a0.21,0.21,0,0,0,.21-0.21,2.91,2.91,0,0,0-.75-2.1,3.1,3.1,0,0,0-2.14-.95,0.21,0.21,0,0,0,0,.43,2.65,2.65,0,0,1,1.86.81A2.46,2.46,0,0,1,10.74,7.17Z"/><path d="M8.37,5.47a0.21,0.21,0,0,0,.2.23A1,1,0,0,1,9.65,6.82a0.21,0.21,0,0,0,.21.2h0a0.21,0.21,0,0,0,.2-0.22A1.43,1.43,0,0,0,8.6,5.27,0.21,0.21,0,0,0,8.37,5.47Z"/></svg>