<svg id="Novogodisnja_Image" data-name="Novogodisnja Image" xmlns="http://www.w3.org/2000/svg" viewBox="0 0 114 114"><defs><style>.cls-1{fill:#e1ae7d;}.cls-2{fill:#55373c;}.cls-3{fill:#403331;}.cls-4{fill:#fbdecf;}.cls-5{fill:#d5b1a9;}.cls-6{fill:#cba69a;}.cls-7{fill:#625253;}.cls-8{fill:#281412;}.cls-9{fill:#d48e8d;}</style></defs><title>AboutIcon</title><circle class="cls-1" cx="57" cy="57" r="57"/><path class="cls-2" d="M147.31,218.42c-2.37-4-4.08-15.39-22.43-11.74C112,209.25,102,217.36,95.76,237.53c-4.54,14.72-6.16,30.18-7.34,35.84-0.66,3.14,26.91,23.79,26.91,23.79s-6.14-6.08-4.29-9.91S123,276.32,137,275a109.78,109.78,0,0,0,27.73-6.76s3.9-8.18-.84-23.35c-4.36-14-8.33-34.78-20.64-33.86" transform="translate(-73 -196.32)"/><path class="cls-3" d="M147.31,218.42c-0.75-1.32-1.28-2.76-2-4.11a17.52,17.52,0,0,0-2.49-3.81,12.35,12.35,0,0,0-3.56-2.82,14.74,14.74,0,0,0-4.32-1.42,26.93,26.93,0,0,0-9.08.24,36.48,36.48,0,0,0-8.73,2.59,30.91,30.91,0,0,0-7.68,4.87,35.83,35.83,0,0,0-6,6.82,61.63,61.63,0,0,0-7.62,16.52A163.54,163.54,0,0,0,91.53,255c-0.57,3-1.08,6-1.56,9s-0.91,6-1.49,9a1.85,1.85,0,0,0-.06.56,1.77,1.77,0,0,0,.18.54,6.42,6.42,0,0,0,.63,1,21,21,0,0,0,1.51,1.71c1.06,1.09,2.17,2.13,3.3,3.15,2.26,2,4.6,4,7,5.91,4.71,3.85,9.54,7.56,14.44,11.16l-0.24.27h0a24.11,24.11,0,0,1-2.77-3.4,11.6,11.6,0,0,1-1.82-4,4.51,4.51,0,0,1,.07-2.24,6.13,6.13,0,0,1,1.14-1.92,19.28,19.28,0,0,1,3.2-3,37.62,37.62,0,0,1,7.56-4.36,47.57,47.57,0,0,1,8.29-2.75c1.42-.34,2.86-0.6,4.3-0.8l4.32-.53c1.43-.21,2.85-0.41,4.27-0.69s2.83-.56,4.24-0.87,2.81-.67,4.2-1,2.78-.77,4.16-1.2c2.75-.85,5.5-1.79,8.14-2.87h0l-0.32.3a8.45,8.45,0,0,0,1.33-3.77,28.4,28.4,0,0,0,.43-4.07c0-.68,0-1.37,0-2.05s0-1.37-.09-2.05-0.1-1.37-.19-2-0.16-1.36-.29-2c-0.21-1.36-.51-2.7-0.82-4s-0.71-2.66-1.12-4c-0.79-2.64-1.52-5.3-2.28-8s-1.55-5.29-2.44-7.9a59.51,59.51,0,0,0-3.13-7.64,22.92,22.92,0,0,0-4.79-6.68,10.93,10.93,0,0,0-3.49-2.17,9.61,9.61,0,0,0-4.06-.56,9.62,9.62,0,0,1,4.07.54,11,11,0,0,1,3.5,2.16,23,23,0,0,1,4.83,6.67,94.43,94.43,0,0,1,5.72,15.51c0.79,2.64,1.55,5.3,2.36,7.93,0.42,1.31.8,2.64,1.18,4s0.66,2.69.89,4.05c0.14,0.68.23,1.37,0.32,2.05s0.18,1.37.23,2.07,0.11,1.38.13,2.08,0,1.39,0,2.08a29,29,0,0,1-.37,4.16c-0.22,1.4-.6,2.67-0.84,4.19l0,0.19-0.29.11h0c-2.74,1.06-5.51,1.95-8.3,2.76-1.4.4-2.81,0.78-4.22,1.13s-2.83.68-4.26,1-2.85.58-4.29,0.8-2.88.43-4.33,0.62-2.89.29-4.32,0.47-2.85.42-4.25,0.74a47,47,0,0,0-8.22,2.62,37.13,37.13,0,0,0-7.52,4.21,18.26,18.26,0,0,0-3.16,2.9,7.6,7.6,0,0,0-.62.85,3.94,3.94,0,0,0-.45.94,4.13,4.13,0,0,0-.06,2.05,11.25,11.25,0,0,0,1.76,3.86,23.77,23.77,0,0,0,2.71,3.34h0l-0.24.27q-3.62-2.78-7.19-5.63t-7.11-5.73C98.57,284,96.25,282,94,280c-1.12-1-2.23-2.07-3.28-3.17a21,21,0,0,1-1.5-1.72,6.43,6.43,0,0,1-.62-1,1.77,1.77,0,0,1-.18-0.54,1.91,1.91,0,0,1,.07-0.56c0.58-3,1-6,1.49-9s1-6,1.56-9a163.54,163.54,0,0,1,4.3-17.73,61.63,61.63,0,0,1,7.62-16.52,35.83,35.83,0,0,1,6-6.82,30.91,30.91,0,0,1,7.68-4.87,36.48,36.48,0,0,1,8.73-2.59,26.93,26.93,0,0,1,9.08-.24,14.74,14.74,0,0,1,4.32,1.42,12.35,12.35,0,0,1,3.56,2.82,17.52,17.52,0,0,1,2.49,3.81C146,215.67,146.56,217.1,147.31,218.42Z" transform="translate(-73 -196.32)"/><path class="cls-4" d="M156.62,248.75c-0.78-18.39-12.59-32.82-26.39-32.23s-24.35,16-23.57,34.35a39.59,39.59,0,0,0,8.09,23c4.8,6,11.29,9.57,18.3,9.28s13.15-4.46,17.42-10.79A39.21,39.21,0,0,0,156.62,248.75Z" transform="translate(-73 -196.32)"/><path class="cls-5" d="M132.86,216.53l-19.91,12a40.82,40.82,0,0,0-5.79,21.32c-0.06,11,2.71,17.41,7.11,23.41l0.22,0.27a10.54,10.54,0,0,1-.5-4.68c1.32-6.07,9.72-8.61,18.56-27.48,4.21-9,9.57-13.87,15.16-16.53C143.5,220,138.77,216.75,132.86,216.53Z" transform="translate(-73 -196.32)"/><path class="cls-3" d="M148.18,239.37a7,7,0,0,0-1.45-.13c-3.78-.06-6.8,1.84-8.28,2.44-0.82.33-2.89,1.22-3.17,1.31a0.4,0.4,0,0,1-.39-0.36l0.1-1a0.39,0.39,0,0,1,.19-0.3h0l0.49-.29,0.78-.42,0.49-.24,0.26-.13,0.28-.13,0.29-.13,0.31-.14,0.65-.27c0.45-.18.93-0.36,1.43-0.52,0.25-.08.51-0.16,0.77-0.23l0.4-.11,0.41-.09,0.41-.09,0.42-.08c0.28,0,.56-0.09.84-0.12s0.57-.05.85-0.07h1.06l0.21,0,0.21,0,0.21,0,0.4,0,0.4,0.06a13.82,13.82,0,0,1,1.48.32l0.34,0.1,0.32,0.12,0.31,0.12,0.29,0.13a8.73,8.73,0,0,1,1,.55l0.2,0.14,0.19,0.13,0.32,0.24,0.25,0.2,0.18,0.16,0.15,0.13A8.62,8.62,0,0,0,148.18,239.37Z" transform="translate(-73 -196.32)"/><path class="cls-3" d="M136.23,248.53a20.37,20.37,0,0,1,2.55-2.17,7.25,7.25,0,0,1,3.09-1.31,8,8,0,0,1,1.69-.1,5.68,5.68,0,0,1,1.67.35,5.5,5.5,0,0,1,1.49.85,5,5,0,0,1,1.16,1.29l0.05,0.09-0.05.1a6.45,6.45,0,0,1-1.62,1.87,5.74,5.74,0,0,1-1.06.66,4.48,4.48,0,0,1-1.19.38,9.48,9.48,0,0,1-1.22.12,8.85,8.85,0,0,1-1.22,0,6.84,6.84,0,0,1-1.2-.22,8.67,8.67,0,0,0-1.16-.29v0a8.72,8.72,0,0,1,1.19.17,8.31,8.31,0,0,0,1.18.13,11.62,11.62,0,0,0,1.18,0,9.19,9.19,0,0,0,1.17-.16,5.23,5.23,0,0,0,2.06-1,6.78,6.78,0,0,0,1.53-1.73v0.18a4.69,4.69,0,0,0-1-1.21,5.12,5.12,0,0,0-1.38-.83,5.4,5.4,0,0,0-1.58-.36,7.78,7.78,0,0,0-1.64.07,7.19,7.19,0,0,0-3,1.2,20.29,20.29,0,0,0-2.6,2.09Z" transform="translate(-73 -196.32)"/><path class="cls-6" d="M135.9,246.78l0.43-.44a14.84,14.84,0,0,1,1.21-1.1,12.24,12.24,0,0,1,1.94-1.27,10.55,10.55,0,0,1,1.2-.53,9.09,9.09,0,0,1,1.32-.36,7.93,7.93,0,0,1,1.36-.13,8.13,8.13,0,0,1,1.32.1,7.22,7.22,0,0,1,1.2.29,8.47,8.47,0,0,1,1,.39,6.21,6.21,0,0,1,.82.42,6.11,6.11,0,0,1,.61.37l0.51,0.35-0.55-.28a12.06,12.06,0,0,0-1.48-.64,8.22,8.22,0,0,0-1-.32,10.81,10.81,0,0,0-1.17-.22,7.76,7.76,0,0,0-1.26-.07,7.69,7.69,0,0,0-1.29.15,8.7,8.7,0,0,0-1.26.32,10.17,10.17,0,0,0-1.17.49,14.81,14.81,0,0,0-2,1.14c-0.54.39-1,.71-1.29,1Z" transform="translate(-73 -196.32)"/><path class="cls-6" d="M140.68,243.64a10.09,10.09,0,0,1,1.61-.27,8,8,0,0,1,1.69,0,6.4,6.4,0,0,1,.94.19,6.93,6.93,0,0,1,.94.34,7.93,7.93,0,0,1,1.62,1.09,10.79,10.79,0,0,1,1.16,1.21,14.36,14.36,0,0,1,1,1.31l-1.14-1.15a10.53,10.53,0,0,0-2.79-2.09,8.07,8.07,0,0,0-3.38-.7c-0.48,0-.89,0-1.17,0Z" transform="translate(-73 -196.32)"/><ellipse class="cls-3" cx="142.43" cy="247.74" rx="2.78" ry="2.64" transform="translate(-81.15 -191.45) rotate(-1.9)"/><circle class="cls-7" cx="142.43" cy="247.6" r="1.33" transform="translate(-81.15 -191.45) rotate(-1.9)"/><circle class="cls-6" cx="142.89" cy="247.48" r="0.28" transform="translate(-81.14 -191.44) rotate(-1.9)"/><circle class="cls-3" cx="118.13" cy="248.82" r="2.72" transform="translate(-81.2 -192.26) rotate(-1.9)"/><circle class="cls-7" cx="118.49" cy="248.67" r="1.3" transform="matrix(1, -0.03, 0.03, 1, -81.2, -192.25)"/><circle class="cls-6" cx="119.07" cy="248.38" r="0.28" transform="translate(-81.19 -192.23) rotate(-1.9)"/><path class="cls-6" d="M123.57,247.12L123,247c-0.35-.09-0.85-0.21-1.45-0.32a12.07,12.07,0,0,0-4.44,0,10.52,10.52,0,0,0-2.28.65c-0.34.16-.7,0.28-1,0.45s-0.62.3-.87,0.47l-0.72.44-0.53.37-0.47.32,0.42-.39a9.83,9.83,0,0,1,1.17-.95c0.25-.2.55-0.35,0.85-0.54a8.47,8.47,0,0,1,1-.52,10.82,10.82,0,0,1,2.35-.73,10.56,10.56,0,0,1,4.57.21,11.74,11.74,0,0,1,1.43.48Z" transform="translate(-73 -196.32)"/><path class="cls-3" d="M123.87,242.3a0.29,0.29,0,0,1,.2.15l1,1.65s0.33,0.43-.12.42c-1.55,0-6.7-.27-8.58-0.58-1.11-.18-3.23-0.86-4.49-0.4a19.43,19.43,0,0,0-3.55,2.25s2.79-2.52,4.11-3.43a6.8,6.8,0,0,1,4.29-.94A71,71,0,0,1,123.87,242.3Z" transform="translate(-73 -196.32)"/><path class="cls-3" d="M119.28,246.3a4.3,4.3,0,0,1,.72.27,8,8,0,0,1,1.72,1.1c0.33,0.27.67,0.58,1,.91s0.76,0.59,1.15,1a2.37,2.37,0,0,1,.29.32,0.78,0.78,0,0,1,.12.23,0.43,0.43,0,0,1,0,.32,0.74,0.74,0,0,1-.46.32,2.82,2.82,0,0,1-.43.09,15,15,0,0,1-1.69.09,1.78,1.78,0,0,0-.76.12l-0.79.27a9.22,9.22,0,0,1-1.6.36,5.07,5.07,0,0,1-1.55,0,7.86,7.86,0,0,1-1.34-.32,11.58,11.58,0,0,1-1.87-.82,7.45,7.45,0,0,1-.66-0.39,13.06,13.06,0,0,0,2.6,1,7.59,7.59,0,0,0,1.31.24,5.65,5.65,0,0,0,1.46-.07,8.84,8.84,0,0,0,1.53-.38l0.78-.28a2.21,2.21,0,0,1,.88-0.15,14.75,14.75,0,0,0,1.64-.06,2.46,2.46,0,0,0,.37-0.07c0.1,0,.24-0.12.22-0.09a0.62,0.62,0,0,0-.29-0.47c-0.35-.35-0.79-0.64-1.11-1s-0.64-.67-1-0.95a9.38,9.38,0,0,0-1.6-1.21A4.31,4.31,0,0,0,119.28,246.3Z" transform="translate(-73 -196.32)"/><path class="cls-2" d="M115.32,297.16c-3.17-3.3-16.36-23-15-29s10.09-6.17,18.93-25,26.57-23,30.53-19.55l-7.84-10.8h-19L108,225.51,94.8,260.6l3.69,20.18Z" transform="translate(-73 -196.32)"/><path class="cls-8" d="M149.75,223.55l-0.26-.14a4.41,4.41,0,0,0-.79-0.32,9.1,9.1,0,0,0-3.15-.28,18.85,18.85,0,0,0-4.76,1.05,27.36,27.36,0,0,0-5.59,2.81,32.06,32.06,0,0,0-5.58,4.76,37,37,0,0,0-4.86,6.56,39.43,39.43,0,0,0-2,3.85l-1,2.12-1.08,2.22a70.25,70.25,0,0,1-5.13,8.58,66.42,66.42,0,0,1-6.36,7.71c-2.2,2.35-4.51,4.49-5.18,6.38a3.36,3.36,0,0,0-.24,1.33A11.35,11.35,0,0,0,104,272a30.79,30.79,0,0,0,1.07,3.82c0.87,2.51,1.87,4.91,2.85,7.09,2,4.36,3.82,8,5.16,10.45,0.68,1.24,1.21,2.22,1.62,2.86s0.64,1,.64,1a10.88,10.88,0,0,1-.88-0.78c-0.55-.54-1.35-1.34-2.27-2.43s-2.05-2.43-3.23-4-2.51-3.43-3.81-5.53a61.57,61.57,0,0,1-3.91-7,30.84,30.84,0,0,1-1.65-4.29,13.83,13.83,0,0,1-.51-2.58,8.7,8.7,0,0,1,0-1.61l0-.28v-0.11l0-.21,0-.18c0.06-.24.1-0.49,0.18-0.73a14.06,14.06,0,0,1,2.73-4.83c1.07-1.32,2.13-2.49,3.17-3.66A77.33,77.33,0,0,0,111,251.6a80.55,80.55,0,0,0,4.83-7.94l1.06-2,1.07-2.12a44,44,0,0,1,2.49-4.22,36,36,0,0,1,6.13-7,32.9,32.9,0,0,1,3.44-2.61,30.34,30.34,0,0,1,3.52-1.94,23.93,23.93,0,0,1,6.67-2.07,16.71,16.71,0,0,1,5.35,0,8.57,8.57,0,0,1,3.23,1.14,3.72,3.72,0,0,1,.7.56Z" transform="translate(-73 -196.32)"/><path class="cls-9" d="M141.6,268.9l-0.18.11a4.12,4.12,0,0,1-.54.28,17.25,17.25,0,0,1-2,.78,29.28,29.28,0,0,1-2.91.78c-1.07.25-2.23,0.42-3.39,0.59s-2.34.24-3.44,0.25a22.71,22.71,0,0,1-3-.1,13.79,13.79,0,0,1-2.13-.35c-0.51-.13-0.79-0.23-0.79-0.23l2.89-.43,2.92-.43c0.54-.06,1.08-0.18,1.65-0.23l1.7-.22,1.71-.2c0.56-.08,1.12-0.11,1.66-0.17,1.08-.1,2.09-0.19,3-0.24s1.6-.1,2.11-0.13S141.6,268.9,141.6,268.9Z" transform="translate(-73 -196.32)"/></svg>