<svg id="Layer_1" data-name="Layer 1" xmlns="http://www.w3.org/2000/svg" viewBox="0 0 41.9 38"><defs><style>.cls-1{fill:#e2ae7d;}</style></defs><title>Call</title><circle class="cls-1" cx="22.9" cy="19" r="19"/><path d="M98.72,1193.79a3.12,3.12,0,0,0-4,.54l-1.45,1.81a2.62,2.62,0,0,1-2.08.77,18.66,18.66,0,0,1-12.51-12.69,2.62,2.62,0,0,1,.68-2.08l1.81-1.45a3.12,3.12,0,0,0,.54-4,39.75,39.75,0,0,0-4.79-6.78,2.71,2.71,0,0,0-3.57-.59h0a14.91,14.91,0,0,0-3.66,3h0a4.88,4.88,0,0,0-1.26,4.52h0a48.33,48.33,0,0,0,14.73,21.55,57.37,57.37,0,0,0,15.22,8.4h0a4.88,4.88,0,0,0,4.52-1.26h0a14.64,14.64,0,0,0,3-3.66h0a2.71,2.71,0,0,0-.59-3.57A39.21,39.21,0,0,0,98.72,1193.79Z" transform="translate(-68.32 -1168.93)"/></svg>