<svg id="Layer_1" data-name="Layer 1" xmlns="http://www.w3.org/2000/svg" viewBox="0 0 40.19 38"><defs><style>.cls-1{fill:#e2ae7d;}.cls-2{fill:#231f20;}</style></defs><title>Email</title><circle class="cls-1" cx="21.19" cy="19" r="19"/><path class="cls-2" d="M50.09,1173.15H20.36a4.14,4.14,0,0,0-4.13,4.13v17.62a4.14,4.14,0,0,0,4.13,4.13H50.09a4.14,4.14,0,0,0,4.13-4.13v-17.62A4.14,4.14,0,0,0,50.09,1173.15Zm0,1.65,0.19,0-15.06,8.7-15.06-8.7,0.19,0H50.09Zm2.48,20.1a2.48,2.48,0,0,1-2.48,2.48H20.36a2.48,2.48,0,0,1-2.48-2.48v-17.62a2.45,2.45,0,0,1,.56-1.55l16.79,9.7,16.79-9.7a2.45,2.45,0,0,1,.56,1.55v17.62Z" transform="translate(-16.22 -1168.93)"/></svg>