<svg id="Discussion" xmlns="http://www.w3.org/2000/svg" viewBox="0 0 64 63.11"><defs><style>.cls-1{fill:#41444b;}</style></defs><title>Discussion</title><path class="cls-1" d="M62.8,36.72a2,2,0,0,0-2.63,1,24.32,24.32,0,0,1-4.53,6.85l-0.72.77L57,54.89l-7.25-4.35A2,2,0,1,0,47.72,54L63,63.11,59.28,46.54a28.12,28.12,0,0,0,4.55-7.19A2,2,0,0,0,62.8,36.72Z"/><path class="cls-1" d="M40.9,53.06A33.3,33.3,0,0,1,33,54C17,54,4,42.79,4,29S17,4,33,4a31.28,31.28,0,0,1,21.62,8.34,2,2,0,1,0,2.78-2.88A35.31,35.31,0,0,0,33,0C14.8,0,0,13,0,29S14.8,58,33,58a37.27,37.27,0,0,0,8.85-1.06A2,2,0,0,0,40.9,53.06Z"/><circle class="cls-1" cx="32" cy="29" r="6"/><circle class="cls-1" cx="16" cy="29" r="6"/><circle class="cls-1" cx="48" cy="29" r="6"/></svg>