<svg id="Download" xmlns="http://www.w3.org/2000/svg" viewBox="0 0 46 64"><defs><style>.cls-1{fill:#41444b;}</style></defs><title>Download</title><circle class="cls-1" cx="30" cy="3" r="2"/><circle class="cls-1" cx="23" cy="4" r="2"/><circle class="cls-1" cx="16" cy="2" r="2"/><circle class="cls-1" cx="9" cy="5.38" r="2"/><circle class="cls-1" cx="2" cy="3.38" r="2"/><path class="cls-1" d="M37.92,9v6.38a1,1,0,0,0,2,0V9A1,1,0,0,0,37.92,9Z" transform="translate(-8.92)"/><path class="cls-1" d="M30.92,9v3.06a1,1,0,0,0,2,0V9A1,1,0,1,0,30.92,9Z" transform="translate(-8.92)"/><path class="cls-1" d="M24.92,7.38h0a1,1,0,0,0-1,1v7a1,1,0,0,0,1,1h0a1,1,0,0,0,1-1v-7A1,1,0,0,0,24.92,7.38Z" transform="translate(-8.92)"/><circle class="cls-1" cx="44" cy="2" r="2"/><circle class="cls-1" cx="37" cy="5.38" r="2"/><path class="cls-1" d="M52.92,36a1,1,0,0,0,1-1V8a1,1,0,0,0-2,0V35A1,1,0,0,0,52.92,36Z" transform="translate(-8.92)"/><path class="cls-1" d="M44.92,11V35a1,1,0,0,0,2,0V11A1,1,0,0,0,44.92,11Z" transform="translate(-8.92)"/><path class="cls-1" d="M17.92,11h0a1,1,0,0,0-1,1L17,35a1,1,0,0,0,1,1h0a1,1,0,0,0,1-1L18.92,12A1,1,0,0,0,17.92,11Z" transform="translate(-8.92)"/><path class="cls-1" d="M52,38.62H41L41.2,25.2c0-5-4-8.82-9.28-8.82s-9.27,3.79-9.27,8.86L23,38.62H12A2,2,0,0,0,10.54,42l20,21.38a2,2,0,0,0,2.92,0L53.46,42A2,2,0,0,0,52,38.62Z" transform="translate(-8.92)"/><path class="cls-1" d="M10.92,36a1,1,0,0,0,1-1V9a1,1,0,1,0-2,0V35A1,1,0,0,0,10.92,36Z" transform="translate(-8.92)"/></svg>