<svg id="Learning_path" data-name="Learning path" xmlns="http://www.w3.org/2000/svg" viewBox="0 0 64.12 64.1"><defs><style>.cls-1{fill:#41444b;}</style></defs><title>LearningPath</title><path class="cls-1" d="M52.94,30.87a1,1,0,0,0,0-2H4.26c1.84-14.28,13.41-25,27.86-25,15.7,0,28,12.72,28,29,0,6.11-1.18,10.86-3.7,14.95a2,2,0,0,0,3.4,2.1c2.93-4.75,4.3-10.17,4.3-17.05,0-18.49-14.06-33-32-33S0,14.39,0,32.87a31.29,31.29,0,0,0,4.39,16,2,2,0,1,0,3.47-2A27,27,0,0,1,4,32.87c0-.67,0-1.34.07-2H24.53L8.94,64l25.91-1.41L33.63,57h2.63l1.53,5.43L63.94,61,32.84,30.87h20.1Zm-25,.13h1l0.28,1H28.16Zm0.66,3h1.19l1,3.5H29.36Zm1.2,5.5h1.53l1,3.5H30.57ZM35.69,55h-2.5l-0.87-4h2.25ZM32.88,45L34,49H31.88L31,45h1.88Z" transform="translate(0 0.1)"/></svg>