<svg id="My_Classes" data-name="My Classes" xmlns="http://www.w3.org/2000/svg" viewBox="0 0 64.4 64.4"><defs><style>.cls-1{fill:#fff;stroke:#669ac5;stroke-linecap:round;stroke-miterlimit:10;stroke-width:1.65px;}.cls-2{fill:#41444b;}</style></defs><title>MyClasses</title><path class="cls-1" d="M31.24,5.93" transform="translate(0 0.2)"/><path class="cls-2" d="M32.2,64.2A32.28,32.28,0,0,1,11.94,57a2,2,0,0,1,2.52-3.11,28.21,28.21,0,1,0,30-47.32A2,2,0,0,1,46.22,3,32.21,32.21,0,0,1,32.2,64.2Z" transform="translate(0 0.2)"/><path class="cls-2" d="M4.84,46.79A2,2,0,0,1,3,45.64,32.22,32.22,0,0,1,32.2-.2a32.45,32.45,0,0,1,6.4.64,2,2,0,1,1-.79,3.92A28.23,28.23,0,0,0,4,32,28,28,0,0,0,6.65,43.95,2,2,0,0,1,4.84,46.79Z" transform="translate(0 0.2)"/><path class="cls-2" d="M20,25.19l-5.83-3.74A2.73,2.73,0,0,0,12.69,21,2.65,2.65,0,0,0,10,23.6V42.41A2.65,2.65,0,0,0,12.69,45a2.74,2.74,0,0,0,1.48-.44L20,40.82V25.19Z" transform="translate(0 0.2)"/><path class="cls-2" d="M32,25.19l-5.83-3.74A2.73,2.73,0,0,0,24.69,21,2.65,2.65,0,0,0,22,23.6v2.87h0V39.53h0v2.88A2.65,2.65,0,0,0,24.69,45a2.74,2.74,0,0,0,1.48-.44L32,40.82V25.19Z" transform="translate(0 0.2)"/><path class="cls-2" d="M52.8,30.84l-14.63-9.4A2.73,2.73,0,0,0,36.69,21,2.65,2.65,0,0,0,34,23.6v2.87h0V39.53h0v2.88A2.65,2.65,0,0,0,36.69,45a2.74,2.74,0,0,0,1.48-.44L52.8,35.16A2.54,2.54,0,0,0,52.8,30.84Z" transform="translate(0 0.2)"/></svg>