<svg id="Notification" xmlns="http://www.w3.org/2000/svg" viewBox="0 0 64.4 63.85"><defs><style>.cls-1{fill:#41444b;}</style></defs><title>Notification</title><path class="cls-1" d="M37.2,15.15a5,5,0,0,0-10,0l1,33a4.19,4.19,0,0,0,4,4,4.19,4.19,0,0,0,4-4Z" transform="translate(0 -0.15)"/><path class="cls-1" d="M51.69,6.72A2,2,0,0,0,49.27,9.9,28.21,28.21,0,0,1,37.62,60,2,2,0,1,0,38.38,64,32.21,32.21,0,0,0,51.69,6.72Z" transform="translate(0 -0.15)"/><path class="cls-1" d="M26.41,60A28.21,28.21,0,0,1,32.2,4.15a28,28,0,0,1,11,2.23A2,2,0,1,0,44.77,2.7,32.22,32.22,0,0,0,0,32.35,32.32,32.32,0,0,0,25.59,63.88a2,2,0,0,0,.41,0A2,2,0,0,0,26.41,60Z" transform="translate(0 -0.15)"/></svg>