<svg id="Play_button" data-name="Play button" xmlns="http://www.w3.org/2000/svg" viewBox="0 0 64.01 64"><defs><style>.cls-1{fill:#fff;stroke:#221f1f;stroke-linecap:round;stroke-miterlimit:10;stroke-width:1.6px;}.cls-2{fill:#41444b;}</style></defs><title>Play</title><path class="cls-1" d="M32,6" transform="translate(0.01 0)"/><path class="cls-2" d="M51.32,6.49A2,2,0,1,0,48.9,9.67,27.81,27.81,0,0,1,60,32,28.17,28.17,0,0,1,38.06,59.35a2,2,0,0,0,.86,3.91A32.19,32.19,0,0,0,64,32,31.78,31.78,0,0,0,51.32,6.49Z" transform="translate(0.01 0)"/><path class="cls-2" d="M31.26,60A28,28,0,0,1,32,4a28.25,28.25,0,0,1,5.86.61A2,2,0,0,0,38.69.7,32,32,0,0,0,0,32,31.82,31.82,0,0,0,31.16,64h0.05A2,2,0,0,0,31.26,60Z" transform="translate(0.01 0)"/><path class="cls-2" d="M21,51.38a3.86,3.86,0,0,0,4-.18L49.26,35.26a3.92,3.92,0,0,0,0-6.52L25,12.49a3.86,3.86,0,0,0-4-.18,3.91,3.91,0,0,0-2,3.44V47.94A3.91,3.91,0,0,0,21,51.38Z" transform="translate(0.01 0)"/></svg>