<svg id="New_Save" data-name="New Save" xmlns="http://www.w3.org/2000/svg" viewBox="0 0 50.03 56"><defs><style>.cls-1{fill:#41444b;}</style></defs><title>Save</title><rect class="cls-1" x="13.03" y="35" width="7" height="5" rx="1" ry="1"/><path class="cls-1" d="M38,35a1,1,0,0,0-1,1v3a1,1,0,0,0,1,1h5a1,1,0,0,0,1-1V36a1,1,0,0,0-2,0v2H39V36A1,1,0,0,0,38,35Z" transform="translate(-7)"/><path class="cls-1" d="M57,18S57,4.06,57,0H7C7,4.06,7,18,7,18c0,2.67.81,4.55,6,4.92,0,0,0,0,0,.07V54a2,2,0,0,0,2,2h4a2,2,0,0,0,0-4H17V23H47V52H27a2,2,0,0,0,0,4H49a2,2,0,0,0,2-2V23s0,0,0-.08C56.22,22.53,57,20.52,57,18Z" transform="translate(-7)"/></svg>