<svg id="Search" xmlns="http://www.w3.org/2000/svg" viewBox="0 0 64 64"><defs><style>.cls-1{fill:#41444b;}</style></defs><title>Search</title><path class="cls-1" d="M38.07,54.72a26,26,0,1,1,11.39-42,2,2,0,0,0,3-2.65A30,30,0,1,0,39.31,58.53,2,2,0,1,0,38.07,54.72Z"/><path class="cls-1" d="M63.41,60.59L52.79,50A30.38,30.38,0,0,0,58.63,20a2,2,0,0,0-3.78,1.31,26.36,26.36,0,0,1-6.26,27.26L47.17,50,60.59,63.41A2,2,0,0,0,63.41,60.59Z"/><path class="cls-1" d="M30,10A20,20,0,1,0,50,30,20,20,0,0,0,30,10Z"/></svg>