<svg id="Student" xmlns="http://www.w3.org/2000/svg" viewBox="0 0 63.88 63.87"><defs><style>.cls-1{fill:#41444b;}</style></defs><title>Student</title><ellipse class="cls-1" cx="31.94" cy="24.94" rx="12" ry="15"/><path class="cls-1" d="M58.59,47.39l-0.11-.12-0.12-.13A12.1,12.1,0,0,0,48.9,43L32,42,15,43a13.12,13.12,0,0,0-7.61,2.44,28,28,0,0,1,5.39-33.89,1.94,1.94,0,0,0-2.65-2.82A31.94,31.94,0,1,0,58.65,49.62a1.93,1.93,0,0,0-.06-2.21h0Z" transform="translate(-0.07 -0.07)"/><path class="cls-1" d="M37.49,0.54A31.93,31.93,0,0,0,21.05,2a1.94,1.94,0,0,0,1.33,3.63A28.09,28.09,0,0,1,58,42.7a1.94,1.94,0,1,0,3.58,1.47A32,32,0,0,0,37.49.54Z" transform="translate(-0.07 -0.07)"/></svg>