<svg id="Teacher" xmlns="http://www.w3.org/2000/svg" viewBox="0 0 63.84 64"><defs><style>.cls-1{fill:#41444b;}</style></defs><title>Teacher</title><path class="cls-1" d="M4.16,34V8.84A3.85,3.85,0,0,1,8,5H56.16a3.81,3.81,0,0,1,2.71,1.13A2,2,0,1,0,61.7,3.3,7.78,7.78,0,0,0,56.16,1H8A7.85,7.85,0,0,0,.16,8.84V34A2,2,0,1,0,4.16,34Z" transform="translate(-0.16 -1)"/><ellipse class="cls-1" cx="31.83" cy="24.5" rx="12" ry="15"/><path class="cls-1" d="M62,10a2,2,0,0,0-2,2V45.16a3.81,3.81,0,0,1-.74,2.24A13.28,13.28,0,0,0,49,42.5l-17-1-17,1a13.32,13.32,0,0,0-11.1,6,4.81,4.81,0,0,0-.62,1.08A2,2,0,0,0,4.16,52,7.82,7.82,0,0,0,8,53H27.92v8H20.16a2,2,0,1,0,0,4h24a2,2,0,0,0,0-4H35.92V53H56.16A7.85,7.85,0,0,0,64,45.16V12A2,2,0,0,0,62,10Z" transform="translate(-0.16 -1)"/></svg>