<svg id="Novogodisnja_Image" data-name="Novogodisnja Image" xmlns="http://www.w3.org/2000/svg" viewBox="0 0 260 260"><defs><style>.cls-1{fill:#e1af7d;}.cls-2{fill:#56383d;}.cls-3{fill:#413432;}.cls-4{fill:#fadecf;}.cls-5{fill:#d5b1a9;}.cls-6{fill:#635354;}.cls-7{fill:#cba69b;}.cls-8{fill:#281412;}.cls-9{fill:#d48e8d;}</style></defs><title>Flavicon_svg</title><path class="cls-1" d="M130,0A130,130,0,1,0,260,130,130,130,0,0,0,130,0Zm79.24,163.92S179.82,176,146,179.33c-32,3.11-55,19.33-59.26,28.05S96.52,230,96.52,230s-62.87-47.08-61.37-54.25c2.7-12.92,6.4-48.18,16.75-81.75,14.18-46,37-64.5,66.42-70.35,24-4.77,35.5,1.77,42,9.92l-0.06-.11c28.08-2.11,37.13,45.36,47.08,77.22C218.14,145.27,209.24,163.92,209.24,163.92Z"/><path class="cls-1" d="M169.48,50.41L168.71,49C169,49.49,169.22,50,169.48,50.41Z"/><path class="cls-2" d="M169.48,50.41c-5.42-9-9.31-35.1-51.15-26.78C88.91,29.48,66.09,48,51.91,94c-10.35,33.57-14.05,68.83-16.75,81.75C33.66,182.91,96.52,230,96.52,230s-14-13.87-9.79-22.6S114,182.45,146,179.33c33.82-3.28,63.24-15.42,63.24-15.42s8.89-18.65-1.91-53.25c-9.95-31.86-19-79.33-47.08-77.22"/><path class="cls-3" d="M169.48,50.41c-1.72-3-2.92-6.29-4.5-9.38a40,40,0,0,0-5.68-8.69,28.18,28.18,0,0,0-8.12-6.42,33.62,33.62,0,0,0-9.85-3.24,50.09,50.09,0,0,0-10.37-.6c-1.74,0-3.46.23-5.19,0.38s-3.45.43-5.15,0.76a83.21,83.21,0,0,0-19.91,5.91A70.49,70.49,0,0,0,83.2,40.24,81.72,81.72,0,0,0,69.45,55.79c-2,2.87-3.76,5.84-5.45,8.87s-3.2,6.16-4.63,9.32a176.62,176.62,0,0,0-7.29,19.49,373,373,0,0,0-9.82,40.44c-1.3,6.82-2.46,13.66-3.56,20.51S36.62,168.15,35.31,175a4.27,4.27,0,0,0-.16,1.28,4.11,4.11,0,0,0,.43,1.22A14.55,14.55,0,0,0,37,179.64a48.48,48.48,0,0,0,3.43,3.91c2.41,2.5,4.95,4.87,7.52,7.19,5.16,4.64,10.47,9.12,15.86,13.48s10.84,8.67,16.33,12.91,11,8.4,16.63,12.52l-0.54.62h0a56.55,56.55,0,0,1-6.28-7.76,26.54,26.54,0,0,1-4.17-9.1,10.35,10.35,0,0,1,.14-5.11,7.5,7.5,0,0,1,.49-1.22c0.2-.36.37-0.73,0.62-1.1a18.09,18.09,0,0,1,1.49-2.06,43.77,43.77,0,0,1,7.3-6.84,85.8,85.8,0,0,1,17.25-10A108.48,108.48,0,0,1,132,180.84c3.24-.76,6.52-1.36,9.81-1.83s6.57-.8,9.86-1.21,6.5-.95,9.73-1.57,6.46-1.27,9.67-2l4.8-1.13,4.78-1.23,4.76-1.32,4.73-1.41c3.14-1,6.27-2,9.37-3.08s6.2-2.23,9.2-3.46l-0.73.69h0a7.59,7.59,0,0,0,1.2-1.9,14.15,14.15,0,0,0,.82-2.16c0.43-1.49.74-3,1-4.53a68.75,68.75,0,0,0,1-9.28,92.18,92.18,0,0,0-1.25-18.68,132.45,132.45,0,0,0-4.44-18.27c-1.8-6-3.47-12.1-5.21-18.14s-3.53-12.07-5.56-18a135.72,135.72,0,0,0-7.15-17.43,69.39,69.39,0,0,0-4.78-8.11,40.3,40.3,0,0,0-6.14-7.12,24.93,24.93,0,0,0-8-4.94,21.92,21.92,0,0,0-9.27-1.28,21.94,21.94,0,0,1,9.28,1.24,25,25,0,0,1,8,4.92,40.39,40.39,0,0,1,6.18,7.11,69.53,69.53,0,0,1,4.82,8.11,144.81,144.81,0,0,1,7.29,17.4c2.1,5.93,4,12,5.75,18s3.53,12.08,5.39,18.08c0.94,3,1.89,6,2.69,9.06s1.49,6.14,2.05,9.24a93.31,93.31,0,0,1,1.57,18.88,70.09,70.09,0,0,1-.84,9.48c-0.25,1.57-.58,3.13-1,4.69s-0.67,3.07-1,4.87h0l-0.24.5-0.49.19c-3.14,1.23-6.26,2.31-9.42,3.36s-6.33,2-9.52,2.95l-4.8,1.34-4.82,1.25-4.84,1.15-4.87,1.06c-3.25.66-6.51,1.31-9.79,1.82s-6.58,1-9.87,1.42-6.6.66-9.84,1.06-6.49,1-9.7,1.68a107.12,107.12,0,0,0-18.75,6,84.69,84.69,0,0,0-17.14,9.61,41.83,41.83,0,0,0-7.21,6.6,17.33,17.33,0,0,0-1.42,1.95c-0.22.32-.41,0.7-0.6,1.06a6.7,6.7,0,0,0-.44,1.07,9.5,9.5,0,0,0-.15,4.69,25.78,25.78,0,0,0,4,8.83,53,53,0,0,0,6.21,7.61h0l-0.54.62Q88,224,79.88,217.47t-16.19-13.1c-5.33-4.44-10.65-8.9-15.79-13.57-2.57-2.34-5.1-4.71-7.5-7.22A48.53,48.53,0,0,1,37,179.65a14.56,14.56,0,0,1-1.42-2.18,4.11,4.11,0,0,1-.42-1.23,4.35,4.35,0,0,1,.16-1.28c1.31-6.82,2.26-13.69,3.39-20.54s2.26-13.7,3.56-20.51a373,373,0,0,1,9.82-40.44A176.62,176.62,0,0,1,59.37,74q2.14-4.74,4.63-9.32c1.69-3,3.49-6,5.45-8.87A81.72,81.72,0,0,1,83.2,40.24a70.49,70.49,0,0,1,17.52-11.11,83.21,83.21,0,0,1,19.91-5.91c1.7-.34,3.43-0.52,5.15-0.76s3.45-.34,5.19-0.38a50.09,50.09,0,0,1,10.37.6,33.62,33.62,0,0,1,9.85,3.24,28.18,28.18,0,0,1,8.12,6.42A40,40,0,0,1,165,41C166.56,44.12,167.76,47.39,169.48,50.41Z"/><path class="cls-4" d="M191,119.57c-1.06-25-11.05-46.76-25.61-60-15.87.37-44,13.54-59.71,47.13C96.5,126.26,87.38,137,79.86,144.13A84.81,84.81,0,0,0,95.5,176.76c10.94,13.68,25.75,21.83,41.73,21.15s30-10.18,39.74-24.61C186.51,159.17,191.86,140.32,191,119.57Zm-34.66,46.21a9.4,9.4,0,0,1-1.22.65,39.35,39.35,0,0,1-4.58,1.77,66.77,66.77,0,0,1-6.64,1.78c-2.45.57-5.09,1-7.74,1.35s-5.33.55-7.85,0.58a51.79,51.79,0,0,1-6.9-.23,31.44,31.44,0,0,1-4.85-.8c-1.16-.31-1.8-0.52-1.8-0.52l6.6-1,6.67-1c1.22-.13,2.47-0.4,3.76-0.52l3.89-.51,3.9-.45c1.28-.18,2.56-0.25,3.79-0.4,2.46-.24,4.76-0.44,6.75-0.56s3.66-.22,4.8-0.29,1.86-.14,1.86-0.14Z"/><path class="cls-5" d="M165.39,60.24c-15.89.45-43.87,13.63-59.56,47.12C96.67,126.92,87.54,137.62,80,144.79A85.44,85.44,0,0,0,94.6,176c-1.07-3.93-1.5-7.57-1-10,3-13.84,22.17-19.64,42.33-62.67,9.6-20.49,21.82-31.64,34.58-37.71Q168,62.76,165.39,60.24Z"/><path class="cls-6" d="M158.25,113.94a3,3,0,1,0,3.12,2.92A3,3,0,0,0,158.25,113.94Zm1.17,3.37a0.64,0.64,0,1,1,.62-0.66A0.64,0.64,0,0,1,159.42,117.31Z"/><path class="cls-6" d="M103.64,116.43a3,3,0,1,0,3.06,2.86A3,3,0,0,0,103.64,116.43Zm1.46,2.92a0.63,0.63,0,1,1,.61-0.65A0.63,0.63,0,0,1,105.1,119.35Z"/><path class="cls-7" d="M172.51,113.81a24.61,24.61,0,0,0-2.65-2.77,18.09,18.09,0,0,0-3.69-2.49,15.81,15.81,0,0,0-2.14-.78,14.61,14.61,0,0,0-2.15-.44,11.5,11.5,0,0,0-1.64-.1l0.25,0a17.71,17.71,0,0,1,2.88.15,24.66,24.66,0,0,1,2.66.5,18.74,18.74,0,0,1,2.33.73,27.52,27.52,0,0,1,3.37,1.46l1.26,0.63-1.16-.79a13.93,13.93,0,0,0-1.38-.84,14.16,14.16,0,0,0-1.88-1,19.34,19.34,0,0,0-2.34-.9,16.46,16.46,0,0,0-2.73-.65,18.55,18.55,0,0,0-3-.22,18.09,18.09,0,0,0-3.1.3,20.74,20.74,0,0,0-3,.82,24.06,24.06,0,0,0-2.75,1.22,27.92,27.92,0,0,0-4.42,2.9,33.84,33.84,0,0,0-2.75,2.5l-1,1,1.1-.87c0.68-.59,1.73-1.31,2.95-2.21A33.78,33.78,0,0,1,152,109.4a23.19,23.19,0,0,1,2.67-1.12c0.51-.15,1-0.3,1.55-0.44l1.85,0a18.42,18.42,0,0,1,7.71,1.59,24,24,0,0,1,6.35,4.76l2.6,2.63A32.74,32.74,0,0,0,172.51,113.81Z"/><circle class="cls-7" cx="159.4" cy="116.67" r="0.64" transform="matrix(1, -0.03, 0.03, 1, -3.79, 5.36)"/><circle class="cls-7" cx="105.08" cy="118.72" r="0.63" transform="translate(-3.88 3.55) rotate(-1.9)"/><path class="cls-7" d="M110.9,114.25a23.65,23.65,0,0,0-4.81-.79,24.38,24.38,0,0,0-3.82.11l-0.53,1a28.5,28.5,0,0,1,9.05.21c1.38,0.25,2.52.53,3.31,0.74l1.25,0.35-1.19-.52A26.77,26.77,0,0,0,110.9,114.25Z"/><path class="cls-3" d="M179.32,101.15l-0.41-.36-0.57-.46c-0.21-.18-0.46-0.35-0.73-0.55s-0.28-.2-0.42-0.3l-0.46-.31a19.92,19.92,0,0,0-2.26-1.25c-0.21-.11-0.44-0.2-0.66-0.29s-0.46-.2-0.7-0.28l-0.74-.27-0.77-.24a31.47,31.47,0,0,0-3.38-.74L167.3,96l-0.92-.11-0.47,0-0.47,0-0.48,0-0.48,0c-0.32,0-.64,0-1,0l-1,0c-0.65,0-1.3.08-1.94,0.16s-1.29.18-1.93,0.28l-1,.18-0.94.2-0.93.22L155,97c-0.61.16-1.19,0.35-1.77,0.53-1.15.37-2.25,0.77-3.27,1.19-0.51.2-1,.42-1.48,0.62l-0.7.31-0.67.31-0.64.3-0.6.3-1.11.55c-0.69.37-1.29,0.68-1.77,1l-1.12.65h0a0.89,0.89,0,0,0-.43.68l-0.23,2.25a0.9,0.9,0,0,0,.88.82c0.64-.2,5.37-2.24,7.24-3,3.39-1.36,10.28-5.7,18.89-5.56a16.07,16.07,0,0,1,3.32.29,19.67,19.67,0,0,1,8.18,3.27Z"/><path class="cls-3" d="M168.14,113.6a12.53,12.53,0,0,0-3.4-1.93,13,13,0,0,0-3.82-.79,18.28,18.28,0,0,0-3.86.24,16.53,16.53,0,0,0-7,3,46.46,46.46,0,0,0-5.82,5l0.07,0.07a46.28,46.28,0,0,1,5.93-4.76,17.49,17.49,0,0,1,5.16-2.39,6,6,0,0,0-3.34,5.49,6.1,6.1,0,0,0,5.11,5.7h-0.68a19,19,0,0,1-2.69-.29,19.92,19.92,0,0,0-2.72-.4v0.1a19.77,19.77,0,0,1,2.65.67,15.59,15.59,0,0,0,2.73.51,20.19,20.19,0,0,0,2.78.08,21.6,21.6,0,0,0,2.78-.26,10.21,10.21,0,0,0,2.71-.86,13.08,13.08,0,0,0,2.41-1.5,14.72,14.72,0,0,0,3.69-4.27l0.12-.22-0.12-.2A11.42,11.42,0,0,0,168.14,113.6Zm-9.7,6.38a3,3,0,1,1,2.92-3.12A3,3,0,0,1,158.45,120Zm8.07,0.5a11.93,11.93,0,0,1-4.71,2.25c-0.48.11-1,.18-1.51,0.24a5.92,5.92,0,0,0-.27-11.5c0.29,0,.58,0,0.86,0a12.31,12.31,0,0,1,3.61.83,11.68,11.68,0,0,1,3.16,1.89,10.81,10.81,0,0,1,2.21,2.55A15.46,15.46,0,0,1,166.52,120.48Z"/><path class="cls-3" d="M116.46,105.2a0.66,0.66,0,0,0-.45-0.33c-2-.4-5.44-0.89-8.75-1.3-0.53,1-1.09,2-1.6,3.13-0.4.85-.8,1.67-1.2,2.49,5.13,0.39,11.51.66,14,.74,1,0,.27-1,0.27-1Z"/><path class="cls-3" d="M116.7,122.13a5.4,5.4,0,0,0-.65-0.73c-0.89-.89-1.9-1.44-2.62-2.23s-1.57-1.47-2.31-2.08a18.28,18.28,0,0,0-3.92-2.5,9.81,9.81,0,0,0-1.65-.6,9.83,9.83,0,0,1,1.58.75,21.4,21.4,0,0,1,3.64,2.76c0.7,0.64,1.43,1.36,2.17,2.16s1.74,1.53,2.53,2.33c0.38,0.36.86,1,.66,1.07,0-.07-0.28.16-0.51,0.2a5.62,5.62,0,0,1-.85.16,33.63,33.63,0,0,1-3.74.13,5,5,0,0,0-2,.35l-1.77.64-0.62.18a6.2,6.2,0,0,0-3.9-11.19c-0.17,0-.32,0-0.48.06-1.66,3.17-3.31,6.06-4.94,8.72a6.22,6.22,0,0,0,3.51,3.25c-0.13,0-.27,0-0.41,0a17.32,17.32,0,0,1-3-.56c-0.55-.15-1.05-0.3-1.54-0.46l-0.23.37c0.5,0.21,1,.42,1.62.61a17.94,17.94,0,0,0,3,.73,11.56,11.56,0,0,0,3.53,0,21,21,0,0,0,3.66-.83l1.8-.62a4.07,4.07,0,0,1,1.73-.27,34.19,34.19,0,0,0,3.85-.21,6.44,6.44,0,0,0,1-.21,1.69,1.69,0,0,0,1.06-.72,1,1,0,0,0,0-.72A1.79,1.79,0,0,0,116.7,122.13Zm-12.87.22a3,3,0,1,1,2.86-3.06A3,3,0,0,1,103.84,122.36Z"/><path class="cls-8" d="M175,62.11l-0.6-.33a10.06,10.06,0,0,0-1.79-.74,20.76,20.76,0,0,0-7.18-.63,43,43,0,0,0-10.85,2.4,62.39,62.39,0,0,0-12.76,6.42A73.13,73.13,0,0,0,129.13,80.1a84.32,84.32,0,0,0-11.07,15,89.93,89.93,0,0,0-4.55,8.78l-2.25,4.83-2.47,5.06a160.22,160.22,0,0,1-11.7,19.58,151.47,151.47,0,0,1-14.51,17.59c-5,5.36-10.29,10.24-11.82,14.56a7.67,7.67,0,0,0-.54,3,25.9,25.9,0,0,0,.46,4.06,70.23,70.23,0,0,0,2.44,8.7c2,5.74,4.27,11.19,6.5,16.16,4.53,9.94,8.71,18.15,11.76,23.82,1.56,2.82,2.77,5.06,3.69,6.52S96.52,230,96.52,230a24.82,24.82,0,0,1-2-1.78c-1.25-1.23-3.07-3.06-5.19-5.55s-4.68-5.53-7.37-9.2-5.73-7.83-8.69-12.62a140.43,140.43,0,0,1-8.93-16A70.33,70.33,0,0,1,60.58,175a31.54,31.54,0,0,1-1.16-5.88,19.83,19.83,0,0,1,0-3.67l0.07-.64,0-.16v-0.08l0.08-.47,0.09-.42c0.14-.55.24-1.12,0.42-1.66a32.06,32.06,0,0,1,6.22-11c2.43-3,4.86-5.69,7.23-8.35a176.4,176.4,0,0,0,13.18-16.59,183.68,183.68,0,0,0,11-18.1l2.42-4.62,2.43-4.83a100.32,100.32,0,0,1,5.67-9.63A82.18,82.18,0,0,1,122.3,73,75.05,75.05,0,0,1,130.14,67a69.2,69.2,0,0,1,8-4.43,54.57,54.57,0,0,1,15.22-4.72,38.12,38.12,0,0,1,12.21-.11A19.55,19.55,0,0,1,173,60.35a8.49,8.49,0,0,1,1.59,1.27Z"/><path class="cls-9" d="M156.47,165.53l-0.42.25a9.4,9.4,0,0,1-1.22.65,39.35,39.35,0,0,1-4.58,1.77,66.77,66.77,0,0,1-6.64,1.78c-2.45.57-5.09,1-7.74,1.35s-5.33.55-7.85,0.58a51.79,51.79,0,0,1-6.9-.23,31.44,31.44,0,0,1-4.85-.8c-1.16-.31-1.8-0.52-1.8-0.52l6.6-1,6.67-1c1.22-.13,2.47-0.4,3.76-0.52l3.89-.51,3.9-.45c1.28-.18,2.56-0.25,3.79-0.4,2.46-.24,4.76-0.44,6.75-0.56s3.66-.22,4.8-0.29S156.47,165.53,156.47,165.53Z"/></svg>