<?xml version="1.0" standalone="no"?>
<!DOCTYPE svg PUBLIC "-//W3C//DTD SVG 20010904//EN"
 "http://www.w3.org/TR/2001/REC-SVG-20010904/DTD/svg10.dtd">
<svg version="1.0" xmlns="http://www.w3.org/2000/svg"
 width="700.000000pt" height="700.000000pt" viewBox="0 0 700.000000 700.000000"
 preserveAspectRatio="xMidYMid meet">
<metadata>
Created by potrace 1.11, written by Peter Selinger 2001-2013
</metadata>
<g transform="translate(0.000000,700.000000) scale(0.100000,-0.100000)"
fill="#000000" stroke="none">
<path d="M3308 6995 c-2 -1 -46 -6 -98 -10 -52 -3 -97 -8 -100 -10 -3 -1 -34
-5 -70 -9 -36 -3 -101 -13 -144 -21 -44 -8 -91 -17 -105 -20 -49 -9 -67 -13
-186 -44 -66 -18 -138 -39 -160 -47 -22 -9 -47 -17 -55 -19 -123 -26 -495
-198 -710 -329 -102 -61 -336 -225 -372 -259 -7 -6 -51 -44 -98 -84 -129 -108
-331 -320 -444 -463 -36 -47 -74 -94 -82 -105 -39 -48 -204 -307 -244 -380
-23 -44 -46 -84 -50 -90 -4 -5 -31 -62 -60 -125 -108 -236 -202 -515 -244
-720 -3 -14 -7 -36 -10 -50 -14 -63 -26 -129 -31 -170 -3 -25 -10 -72 -15
-105 -30 -196 -33 -665 -5 -839 2 -11 6 -41 9 -66 3 -25 8 -54 10 -65 2 -11 7
-42 10 -70 13 -88 67 -306 111 -445 320 -1010 1066 -1811 2047 -2200 213 -85
519 -173 678 -195 25 -3 52 -8 60 -9 16 -3 97 -15 145 -21 174 -24 725 -24
796 -1 8 3 39 8 69 11 114 13 139 17 273 46 75 16 183 43 240 60 56 17 109 32
117 34 98 23 470 186 600 263 19 11 53 30 75 42 92 50 373 244 441 305 7 5 40
35 75 65 105 90 331 319 411 417 327 396 562 857 693 1358 33 128 69 306 80
395 3 25 8 65 11 89 20 146 25 557 10 706 -63 611 -251 1139 -582 1635 -46 69
-91 134 -101 145 -10 11 -37 45 -60 76 -23 31 -47 62 -55 70 -7 8 -38 43 -68
78 -180 209 -466 455 -715 616 -449 290 -969 478 -1490 539 -27 4 -68 9 -90
12 -40 5 -512 14 -517 9z"/>
</g>
</svg>
