<svg id="Layer_1" data-name="Layer 1" xmlns="http://www.w3.org/2000/svg" viewBox="0 0 41 38"><defs><style>.cls-1{fill:#a0d8ca;}.cls-2{fill:#231f20;}</style></defs><title>Email</title><circle class="cls-1" cx="22" cy="19" r="19"/><path class="cls-2" d="M472.87,408.87H443.13A4.14,4.14,0,0,0,439,413v18a3.92,3.92,0,0,0,4,4h30a3.92,3.92,0,0,0,4-4V413A4.14,4.14,0,0,0,472.87,408.87Zm0,1.65,0.19,0L458,419.24l-15.06-8.7,0.19,0h29.74ZM475.35,431a2.26,2.26,0,0,1-2.35,2.35H443a2.26,2.26,0,0,1-2.35-2.35V413a2.45,2.45,0,0,1,.56-1.55l16.79,9.7,16.79-9.7a2.45,2.45,0,0,1,.56,1.55v18Z" transform="translate(-439 -402)"/></svg>