<svg id="_99d_logo" data-name="99d logo" xmlns="http://www.w3.org/2000/svg" viewBox="0 0 38 38"><defs><style>.cls-1{fill:#171516;}</style></defs><title>99</title><path class="cls-1" d="M-4984.75,5356.39a2.84,2.84,0,0,0-3.89,1,2.87,2.87,0,0,0,1,3.91,2.84,2.84,0,0,0,3.89-1A2.87,2.87,0,0,0-4984.75,5356.39Z" transform="translate(4993.4 -5342.41)"/><path class="cls-1" d="M-4974.4,5342.41a19,19,0,0,0-19,19,19,19,0,0,0,19,19,19,19,0,0,0,19-19A19,19,0,0,0-4974.4,5342.41Zm12.67,27.41v-1.25a4.37,4.37,0,0,1-1.53,1.26,4.81,4.81,0,0,1-2,.39,5.83,5.83,0,0,1-2.36-.47,5.6,5.6,0,0,1-1.86-1.31,5.92,5.92,0,0,1-1.22-2,7.05,7.05,0,0,1-.43-2.25l-3.23,5.63h-4.06l2.71-4.72a6.17,6.17,0,0,1-2.67-.82,6.22,6.22,0,0,1-2.32-2.36l0,0.06-4.49,7.83h-4.06l2.71-4.72a6.17,6.17,0,0,1-2.67-.82,6.29,6.29,0,0,1-2.28-8.56,6.21,6.21,0,0,1,8.51-2.29,6.22,6.22,0,0,1,2.32,2.36l0-.06a6.21,6.21,0,0,1,8.51-2.29,6.27,6.27,0,0,1,3.11,5.55,5.55,5.55,0,0,1,1.4-.88,5.64,5.64,0,0,1,2.31-.47,5,5,0,0,1,1.92.34,5,5,0,0,1,1.54,1V5353h3.51v16.86h-3.32Z" transform="translate(4993.4 -5342.41)"/><path class="cls-1" d="M-4973.88,5356.39a2.84,2.84,0,0,0-3.89,1,2.87,2.87,0,0,0,1,3.91,2.84,2.84,0,0,0,3.89-1A2.87,2.87,0,0,0-4973.88,5356.39Z" transform="translate(4993.4 -5342.41)"/><path class="cls-1" d="M-4962.57,5361.79a2.83,2.83,0,0,0-.94-0.62,3,3,0,0,0-1.17-.22,3.17,3.17,0,0,0-1.21.22,2.9,2.9,0,0,0-.95.61,2.72,2.72,0,0,0-.62.94,3.15,3.15,0,0,0-.22,1.19,3.22,3.22,0,0,0,.22,1.21,2.93,2.93,0,0,0,.61,1,2.68,2.68,0,0,0,.94.62,3.1,3.1,0,0,0,1.18.22,2.91,2.91,0,0,0,2.15-.85,3,3,0,0,0,.84-2.19,3,3,0,0,0-.22-1.17A2.87,2.87,0,0,0-4962.57,5361.79Z" transform="translate(4993.4 -5342.41)"/></svg>