<svg id="Novogodisnja_Image" data-name="Novogodisnja Image" xmlns="http://www.w3.org/2000/svg" viewBox="0 0 42.04 42.87"><defs><style>.cls-1{fill:#e2ae7d;}.cls-2{fill:#334e5c;}.cls-3{fill:#fff;}.cls-4{fill:#497c84;}.cls-5{fill:none;stroke:#334e5c;stroke-miterlimit:10;stroke-width:1.11px;}</style></defs><title>AboutIcon_mobile</title><circle class="cls-1" cx="21" cy="21" r="21"/><path class="cls-2" d="M-1762,2561.68a3,3,0,0,0-.62-0.05,8.22,8.22,0,0,0-3.56,1c-0.35.14-1.24,0.53-1.36,0.56a0.17,0.17,0,0,1-.17-0.16l0-.42a0.17,0.17,0,0,1,.08-0.13h0l0.21-.12,0.33-.18,0.21-.1,0.11-.06,0.12-.06,0.13-.06,0.13-.06,0.28-.12,0.62-.22,0.33-.1,0.17,0,0.17,0,0.18,0,0.18,0,0.36-.05,0.37,0h0.72l0.17,0,0.17,0a5.94,5.94,0,0,1,.64.14l0.15,0,0.14,0.05,0.13,0.05,0.13,0.06a3.75,3.75,0,0,1,.43.24l0.09,0.06,0.08,0.06,0.14,0.1,0.11,0.09,0.08,0.07,0.06,0.06A3.71,3.71,0,0,0-1762,2561.68Z" transform="translate(1796.14 -2545.12)"/><path class="cls-2" d="M-1767.18,2565.61a4.75,4.75,0,0,1,2.42-1.5,2.79,2.79,0,0,1,1.45.1,2.31,2.31,0,0,1,1.14.92l0,0,0,0a2.48,2.48,0,0,1-1.66,1.25,4.63,4.63,0,0,1-1,0,8.39,8.39,0,0,1-1-.22v0c0.35,0,.68.13,1,0.13a4.52,4.52,0,0,0,1-.09,2.53,2.53,0,0,0,1.55-1.17v0.08a2.14,2.14,0,0,0-1-.88,2.68,2.68,0,0,0-1.39-.13,4.73,4.73,0,0,0-2.43,1.41h0Z" transform="translate(1796.14 -2545.12)"/><path class="cls-3" d="M-1767.32,2564.86l0.19-.19a5.5,5.5,0,0,1,.52-0.47,4.77,4.77,0,0,1,1.92-.93,3.69,3.69,0,0,1,2.11.28,3.61,3.61,0,0,1,.61.34l0.22,0.15a6.28,6.28,0,0,0-.87-0.4,3.56,3.56,0,0,0-2-.19,4.64,4.64,0,0,0-1.89.83C-1767,2564.61-1767.32,2564.86-1767.32,2564.86Z" transform="translate(1796.14 -2545.12)"/><path class="cls-3" d="M-1765.27,2563.51a4.29,4.29,0,0,1,.69-0.12,3.3,3.3,0,0,1,1.53.24,4.12,4.12,0,0,1,1.19,1,6,6,0,0,1,.42.56l-0.49-.5a4,4,0,0,0-1.2-.9,3.16,3.16,0,0,0-1.45-.3C-1765,2563.49-1765.27,2563.51-1765.27,2563.51Z" transform="translate(1796.14 -2545.12)"/><ellipse class="cls-2" cx="-1764.51" cy="2565.27" rx="1.19" ry="1.14" transform="translate(1709.94 -2602.33) rotate(-1.9)"/><circle class="cls-4" cx="-1764.51" cy="2565.22" r="0.57" transform="translate(1709.94 -2602.33) rotate(-1.9)"/><circle class="cls-3" cx="-1764.32" cy="2565.16" r="0.12" transform="translate(1709.94 -2602.32) rotate(-1.9)"/><circle class="cls-2" cx="-1774.96" cy="2565.74" r="1.17" transform="translate(1709.92 -2602.67) rotate(-1.9)"/><circle class="cls-4" cx="-1774.81" cy="2565.68" r="0.56" transform="translate(1709.92 -2602.67) rotate(-1.9)"/><circle class="cls-3" cx="-1774.55" cy="2565.55" r="0.12" transform="translate(1709.92 -2602.66) rotate(-1.9)"/><path class="cls-3" d="M-1772.62,2565a7.17,7.17,0,0,0-.86-0.21,4.76,4.76,0,0,0-1.91,0,4.83,4.83,0,0,0-1.79.68c-0.22.14-.41,0.25-0.54,0.35l-0.2.14,0.18-.16a3.76,3.76,0,0,1,.5-0.41,5,5,0,0,1,1.81-.77,4.9,4.9,0,0,1,2,.09A4.49,4.49,0,0,1-1772.62,2565Z" transform="translate(1796.14 -2545.12)"/><path class="cls-2" d="M-1772.49,2562.94a0.13,0.13,0,0,1,.08.06l0.42,0.71s0.14,0.19-.05.18c-0.66,0-2.88-.12-3.69-0.25a4.53,4.53,0,0,0-1.93-.17,8.35,8.35,0,0,0-1.52,1s1.2-1.09,1.77-1.47a2.92,2.92,0,0,1,1.85-.41A30.52,30.52,0,0,1-1772.49,2562.94Z" transform="translate(1796.14 -2545.12)"/><path class="cls-2" d="M-1774.46,2564.66a2.79,2.79,0,0,1,1,.59c0.14,0.12.28,0.25,0.43,0.4s0.32,0.26.49,0.42a0.36,0.36,0,0,1,.17.36,0.52,0.52,0,0,1-.38.17,6.44,6.44,0,0,1-.72,0,1.88,1.88,0,0,0-.67.16,4,4,0,0,1-.69.15,2.66,2.66,0,0,1-1.24-.13,4.6,4.6,0,0,1-1.09-.52,5.88,5.88,0,0,0,1.12.42,2.54,2.54,0,0,0,1.19.08,3.81,3.81,0,0,0,.66-0.17,2,2,0,0,1,.71-0.19,6.36,6.36,0,0,0,.71,0,0.76,0.76,0,0,0,.26-0.07,0.27,0.27,0,0,0-.12-0.21c-0.15-.16-0.34-0.28-0.48-0.44s-0.28-.28-0.41-0.4A3.15,3.15,0,0,0-1774.46,2564.66Z" transform="translate(1796.14 -2545.12)"/><path class="cls-3" d="M-1755.15,2564.63c-1.87-6-3.58-15-8.87-14.55l0,0c-1.22-1.54-3.38-2.79-7.92-1.89-5.55,1.1-9.85,4.59-12.52,13.26-1.95,6.33-2.65,13-3.16,15.41-0.28,1.35,11.57,10.22,11.57,10.22s-2.64-2.61-1.84-4.26c0.44-.9,1.94-2.23,4.21-3.34a11.58,11.58,0,0,1-2.82-2.75,15.83,15.83,0,0,1-2.59-5.82,30.69,30.69,0,0,0,5.08-7.83c3.08-6.57,8.43-8.49,11.25-8.19a16,16,0,0,1,4.69,11.83,16.91,16.91,0,0,1-2.95,9.83,46.31,46.31,0,0,0,6.21-1.93S-1753.11,2571.15-1755.15,2564.63Z" transform="translate(1796.14 -2545.12)"/><path class="cls-2" d="M-1755.15,2564.63c-0.91-2.89-1.66-5.85-2.79-8.66-0.28-.7-0.61-1.39-1-2.06l-0.58-1c-0.23-.3-0.43-0.62-0.67-0.9a6.41,6.41,0,0,0-.79-0.79,3.84,3.84,0,0,0-.93-0.61,3.58,3.58,0,0,0-1-.36,6.46,6.46,0,0,0-1.1-.07l0.09-.17,0,0a0.12,0.12,0,0,1,0,.16,0.12,0.12,0,0,1-.15,0,5.37,5.37,0,0,0-3-1.89,9.78,9.78,0,0,0-3.61-.06,14.85,14.85,0,0,0-6.69,2.63,14.21,14.21,0,0,0-2.57,2.52,17.85,17.85,0,0,0-1.94,3,26.55,26.55,0,0,0-1.42,3.34q-0.6,1.72-1,3.5c-0.61,2.36-1.07,4.77-1.46,7.19l-0.54,3.64-0.28,1.84-0.16.93,0,0.12v0h0c0-.07,0,0.18,0-0.16v0.06s0,0.12,0,.07a0.15,0.15,0,0,0,0-.09l0,0,0,0,0,0.06a1.07,1.07,0,0,0,.1.14,21,21,0,0,0,2.51,2.47c0.92,0.8,1.86,1.58,2.82,2.35,1.91,1.53,3.86,3,5.83,4.5l-1.13,1.31a11.28,11.28,0,0,1-.93-1.06,8.4,8.4,0,0,1-.78-1.2,4.78,4.78,0,0,1-.53-1.5l0-.46c0-.16,0-0.33.06-0.49a2.76,2.76,0,0,1,.36-0.86,4.84,4.84,0,0,1,.49-0.64c0.17-.18.34-0.36,0.52-0.52a11.38,11.38,0,0,1,1.09-.87,16.93,16.93,0,0,1,2.35-1.37l-0.1,1.47a12.12,12.12,0,0,1-2.09-1.83,13,13,0,0,1-.87-1.07l-0.39-.56c-0.13-.2-0.25-0.39-0.37-0.58a17.15,17.15,0,0,1-2-5h0a0.77,0.77,0,0,1,.18-0.68,29.33,29.33,0,0,0,3.48-4.72c0.51-.84,1-1.71,1.42-2.59,0.24-.48.47-0.9,0.71-1.35s0.55-.91.84-1.34,0.6-.86,1-1.24a13.27,13.27,0,0,1,1.06-1.15,14.26,14.26,0,0,1,1.18-1,13,13,0,0,1,1.29-.9,11.62,11.62,0,0,1,1.39-.73,10.12,10.12,0,0,1,1.48-.55,8.79,8.79,0,0,1,1.55-.32,7.13,7.13,0,0,1,1.61,0,0.42,0.42,0,0,1,.25.11,14.05,14.05,0,0,1,3.33,5,18,18,0,0,1,1.27,5.81,19,19,0,0,1-.59,5.89,16.11,16.11,0,0,1-2.47,5.35l-0.11-.17a47.89,47.89,0,0,0,6.21-1.88l0,0a9.11,9.11,0,0,0,.58-2.46,15.44,15.44,0,0,0,.05-2.54,19.72,19.72,0,0,0-.32-2.53C-1754.69,2566.27-1754.91,2565.45-1755.15,2564.63Zm0,0c0.25,0.81.48,1.64,0.65,2.47a19.76,19.76,0,0,1,.35,2.53,15.54,15.54,0,0,1,0,2.56,9.2,9.2,0,0,1-.56,2.5l0,0a48.06,48.06,0,0,1-6.21,2,0.11,0.11,0,0,1-.13-0.08,0.11,0.11,0,0,1,0-.09,15.3,15.3,0,0,0,2.34-5.3,18.56,18.56,0,0,0,.39-5.78,17.36,17.36,0,0,0-1.4-5.58,13.27,13.27,0,0,0-3.29-4.61l0.25,0.11a6.24,6.24,0,0,0-1.4.06,7.85,7.85,0,0,0-1.39.33,9.13,9.13,0,0,0-1.33.54,10.58,10.58,0,0,0-1.25.71,11.84,11.84,0,0,0-1.16.86,13.12,13.12,0,0,0-1.05,1,12.11,12.11,0,0,0-.94,1.09c-0.31.37-.56,0.79-0.84,1.18s-0.49.81-.72,1.24-0.46.92-.65,1.34c-0.43.93-.89,1.84-1.39,2.74a29,29,0,0,1-3.59,5l0.18-.7a15.55,15.55,0,0,0,1.85,4.55c0.11,0.17.22,0.35,0.33,0.51l0.36,0.5a11.29,11.29,0,0,0,.78.93,10.43,10.43,0,0,0,1.82,1.56,0.85,0.85,0,0,1,.23,1.18,0.84,0.84,0,0,1-.32.28h0a15.23,15.23,0,0,0-2.09,1.25,9.64,9.64,0,0,0-.91.75c-0.14.13-.27,0.27-0.39,0.4a3.44,3.44,0,0,0-.29.38,1,1,0,0,0-.14.31,1,1,0,0,1,0,.15,1.34,1.34,0,0,1,0,.19,3.09,3.09,0,0,0,.33.92,6.68,6.68,0,0,0,.62,1,9.74,9.74,0,0,0,.75.89l0,0a0.86,0.86,0,0,1,0,1.22,0.86,0.86,0,0,1-1.13.07c-2-1.51-3.91-3-5.82-4.61-1-.79-1.9-1.59-2.84-2.42a21.72,21.72,0,0,1-2.71-2.75,2.23,2.23,0,0,1-.16-0.24l-0.08-.14,0-.07-0.06-.14a1.5,1.5,0,0,1-.1-0.46v-0.06a0.85,0.85,0,1,1,0-.19h0v0l0-.11,0.17-.89,0.31-1.82,0.66-3.65c0.47-2.44,1-4.86,1.72-7.25,0.34-1.19.74-2.38,1.19-3.55a27.47,27.47,0,0,1,1.58-3.41,18.66,18.66,0,0,1,2.13-3.11,14.91,14.91,0,0,1,2.78-2.56,15.37,15.37,0,0,1,7-2.51,10.11,10.11,0,0,1,3.73.19,5.64,5.64,0,0,1,3.11,2l-0.19.13,0,0v0a0.11,0.11,0,0,1,0-.14h0.06a6.62,6.62,0,0,1,1.16.09,3.78,3.78,0,0,1,1.09.4,4,4,0,0,1,1,.65,6.57,6.57,0,0,1,.81.82c0.25,0.29.45,0.62,0.67,0.93l0.57,1c0.34,0.68.66,1.38,0.93,2.08C-1756.73,2558.77-1756,2561.73-1755.15,2564.63Z" transform="translate(1796.14 -2545.12)"/><path class="cls-5" d="M-1762.69,2554.94c-2.82-.3-8.17,1.62-11.25,8.19A30.69,30.69,0,0,1-1779,2571a15.83,15.83,0,0,0,2.59,5.82,9.64,9.64,0,0,0,7.69,4.32,9.71,9.71,0,0,0,7.68-4.32,16.86,16.86,0,0,0,3.07-10A16,16,0,0,0-1762.69,2554.94Z" transform="translate(1796.14 -2545.12)"/><path class="cls-2" d="M-1761.18,2555.48a1.85,1.85,0,0,0-.46-0.17,4,4,0,0,0-1.35,0,10,10,0,0,0-4.3,1.81,15.06,15.06,0,0,0-4.26,4.85,16.59,16.59,0,0,0-.81,1.62l-0.87,1.85a31.06,31.06,0,0,1-2.24,3.77,27.82,27.82,0,0,1-2.78,3.35,11.36,11.36,0,0,0-2.16,2.56,1,1,0,0,0-.1.42,4.39,4.39,0,0,0,.06.7,12.91,12.91,0,0,0,.41,1.6c0.34,1.07.74,2.11,1.13,3.05,0.8,1.89,1.52,3.47,2.05,4.57s0.89,1.7.89,1.7a10.43,10.43,0,0,1-1.43-1.33,31.23,31.23,0,0,1-3.19-4,25,25,0,0,1-1.77-3,13.11,13.11,0,0,1-.76-1.88,6.07,6.07,0,0,1-.24-1.18,3.73,3.73,0,0,1,.14-1.49A6.48,6.48,0,0,1-1782,2572c0.47-.6.92-1.1,1.36-1.6a34.49,34.49,0,0,0,2.43-3.09c0.74-1.08,1.43-2.22,2-3.33l0.93-1.79a19.31,19.31,0,0,1,1.11-1.85,15.5,15.5,0,0,1,2.75-3,12.55,12.55,0,0,1,3.11-1.94,9,9,0,0,1,5.31-.76,3.67,3.67,0,0,1,1.4.56A1.86,1.86,0,0,1-1761.18,2555.48Z" transform="translate(1796.14 -2545.12)"/><path class="cls-2" d="M-1764.55,2574.55a1.7,1.7,0,0,1-.31.17,9.26,9.26,0,0,1-.86.34,15.44,15.44,0,0,1-2.71.59,13.12,13.12,0,0,1-2.78.07,6.05,6.05,0,0,1-1.25-.25l0.35-.05c0.22,0,.53-0.08.9-0.13,0.74-.11,1.71-0.25,2.7-0.38s2-.22,2.72-0.27Z" transform="translate(1796.14 -2545.12)"/></svg>