<svg id="Novogodisnja_Image" data-name="Novogodisnja Image" xmlns="http://www.w3.org/2000/svg" viewBox="0 0 64 64"><defs><style>.cls-1{fill:#fff;}.cls-2{fill:#334e5c;}.cls-3{fill:#497c84;}.cls-4{fill:none;stroke:#334e5c;stroke-miterlimit:10;stroke-width:1.4px;}</style></defs><title>AboutIcon_mobile</title><circle class="cls-1" cx="32" cy="32" r="32"/><path class="cls-2" d="M-4617.4,5674.25a3.8,3.8,0,0,0-.78-0.07,10.32,10.32,0,0,0-4.47,1.32c-0.44.18-1.56,0.66-1.71,0.71a0.21,0.21,0,0,1-.21-0.19l0.05-.53a0.21,0.21,0,0,1,.1-0.16h0l0.26-.15,0.42-.23,0.26-.13,0.14-.07,0.15-.07,0.16-.07,0.17-.07,0.35-.15c0.24-.1.5-0.19,0.77-0.28l0.42-.12,0.22-.06,0.22-.05,0.22,0,0.22,0,0.46-.07,0.46,0h0.91l0.22,0,0.21,0a7.45,7.45,0,0,1,.8.17l0.18,0.06,0.17,0.06,0.17,0.07,0.16,0.07a4.71,4.71,0,0,1,.54.29l0.11,0.07,0.1,0.07,0.17,0.13,0.14,0.11,0.1,0.08,0.08,0.07A4.65,4.65,0,0,0-4617.4,5674.25Z" transform="translate(4660.48 -5649.58)"/><path class="cls-2" d="M-4623.85,5679.19a11,11,0,0,1,1.38-1.17,3.92,3.92,0,0,1,1.67-.71,3.51,3.51,0,0,1,1.82.13,2.9,2.9,0,0,1,1.43,1.15l0,0,0,0.05a3.11,3.11,0,0,1-2.08,1.56,5.82,5.82,0,0,1-1.32,0,10.53,10.53,0,0,1-1.27-.28v0c0.44,0,.85.16,1.28,0.17a5.67,5.67,0,0,0,1.27-.11,3.18,3.18,0,0,0,1.94-1.47v0.1a2.69,2.69,0,0,0-1.31-1.1,3.36,3.36,0,0,0-1.74-.16,5.94,5.94,0,0,0-3,1.77Z" transform="translate(4660.48 -5649.58)"/><path class="cls-1" d="M-4624,5678.24l0.23-.24a7.66,7.66,0,0,1,.65-0.59,6.59,6.59,0,0,1,1-.69,4.92,4.92,0,0,1,1.36-.48,4.42,4.42,0,0,1,2.65.35,4.87,4.87,0,0,1,.77.43l0.28,0.19a7.31,7.31,0,0,0-1.09-.5,4.72,4.72,0,0,0-2.56-.25,6.25,6.25,0,0,0-2.37,1C-4623.66,5677.92-4624,5678.24-4624,5678.24Z" transform="translate(4660.48 -5649.58)"/><path class="cls-1" d="M-4621.45,5676.55a5.93,5.93,0,0,1,.87-0.15,3.81,3.81,0,0,1,1.93.3,4.67,4.67,0,0,1,1.5,1.24,8.75,8.75,0,0,1,.52.71s-0.24-.26-0.62-0.62a5.69,5.69,0,0,0-1.5-1.13,4.36,4.36,0,0,0-1.82-.38C-4621.09,5676.52-4621.45,5676.55-4621.45,5676.55Z" transform="translate(4660.48 -5649.58)"/><ellipse class="cls-2" cx="-4620.5" cy="5678.76" rx="1.5" ry="1.43" transform="matrix(1, -0.03, 0.03, 1, 4469.27, -5799.95)"/><circle class="cls-3" cx="-4620.5" cy="5678.69" r="0.72" transform="translate(4469.27 -5799.95) rotate(-1.9)"/><circle class="cls-1" cx="-4620.25" cy="5678.62" r="0.15" transform="translate(4469.27 -5799.94) rotate(-1.9)"/><circle class="cls-2" cx="-4633.61" cy="5679.35" r="1.47" transform="translate(4469.24 -5800.39) rotate(-1.9)"/><circle class="cls-3" cx="-4633.42" cy="5679.26" r="0.7" transform="translate(4469.24 -5800.38) rotate(-1.9)"/><circle class="cls-1" cx="-4633.1" cy="5679.11" r="0.15" transform="translate(4469.25 -5800.37) rotate(-1.9)"/><path class="cls-1" d="M-4630.68,5678.43a8.19,8.19,0,0,0-1.08-.26,6.52,6.52,0,0,0-2.4,0,6.61,6.61,0,0,0-2.24.85,8,8,0,0,0-.67.44l-0.25.18,0.23-.21a5.11,5.11,0,0,1,.63-0.51,5.74,5.74,0,0,1,2.27-1,5.68,5.68,0,0,1,2.46.11A6,6,0,0,1-4630.68,5678.43Z" transform="translate(4660.48 -5649.58)"/><path class="cls-2" d="M-4630.52,5675.83a0.16,0.16,0,0,1,.11.08l0.53,0.89s0.18,0.23-.07.23c-0.83,0-3.61-.15-4.63-0.32a5.69,5.69,0,0,0-2.42-.22,10.48,10.48,0,0,0-1.91,1.21s1.51-1.36,2.22-1.85a3.67,3.67,0,0,1,2.32-.51A38.31,38.31,0,0,1-4630.52,5675.83Z" transform="translate(4660.48 -5649.58)"/><path class="cls-2" d="M-4633,5678a3.57,3.57,0,0,1,1.32.73c0.18,0.14.36,0.31,0.55,0.49s0.41,0.32.62,0.53a0.47,0.47,0,0,1,.21.46,0.66,0.66,0,0,1-.48.22,8.09,8.09,0,0,1-.91,0,2.36,2.36,0,0,0-.83.21,4.94,4.94,0,0,1-.87.2,3.24,3.24,0,0,1-1.56-.17,6,6,0,0,1-1.36-.65,7.07,7.07,0,0,0,1.4.53,3.28,3.28,0,0,0,1.49.09,4.71,4.71,0,0,0,.83-0.2,2.56,2.56,0,0,1,.9-0.23,8,8,0,0,0,.89,0,1.07,1.07,0,0,0,.32-0.08,0.34,0.34,0,0,0-.16-0.25c-0.19-.19-0.43-0.35-0.6-0.55s-0.35-.36-0.51-0.51A3.85,3.85,0,0,0-4633,5678Z" transform="translate(4660.48 -5649.58)"/><path class="cls-1" d="M-4608.75,5678c-2.35-7.54-4.49-18.77-11.14-18.27l0,0c-1.53-1.94-4.25-3.5-9.94-2.37-7,1.38-12.36,5.76-15.71,16.64-2.45,7.94-3.32,16.28-4,19.34-0.35,1.7,14.52,12.83,14.52,12.83s-3.31-3.28-2.31-5.35c0.55-1.13,2.44-2.8,5.28-4.19a14.53,14.53,0,0,1-3.54-3.45,19.87,19.87,0,0,1-3.25-7.3,38.51,38.51,0,0,0,6.38-9.83c3.86-8.25,10.58-10.66,14.12-10.28,3.55,3.24,5.89,8.68,5.89,14.85a21.23,21.23,0,0,1-3.7,12.34,58.12,58.12,0,0,0,7.8-2.42S-4606.19,5686.14-4608.75,5678Z" transform="translate(4660.48 -5649.58)"/><path class="cls-2" d="M-4608.75,5678c-1.14-3.64-2.06-7.35-3.47-10.89l-0.56-1.31-0.63-1.28-0.73-1.22c-0.29-.38-0.54-0.78-0.85-1.14a8.07,8.07,0,0,0-1-1l-0.56-.43a4.89,4.89,0,0,0-.61-0.34,4.52,4.52,0,0,0-1.32-.45,8.17,8.17,0,0,0-1.39-.08l0.1-.19,0,0a0.13,0.13,0,0,1-.05.18,0.13,0.13,0,0,1-.17,0,6.74,6.74,0,0,0-3.78-2.36,12.27,12.27,0,0,0-4.54-.08,18.63,18.63,0,0,0-8.4,3.3,17.83,17.83,0,0,0-3.22,3.16,22.37,22.37,0,0,0-2.43,3.82,33.33,33.33,0,0,0-1.78,4.2q-0.75,2.16-1.31,4.4c-0.76,3-1.35,6-1.83,9-0.24,1.52-.46,3-0.68,4.57l-0.34,2.31-0.2,1.17,0,0.15v0.06c0-.09,0,0.23,0-0.2v0.15s0,0,0,0a0.2,0.2,0,0,0,0-.11l0,0,0,0,0,0.08a1.35,1.35,0,0,0,.12.18,26.43,26.43,0,0,0,3.16,3.09c1.15,1,2.35,2,3.54,2.93,2.39,1.93,4.84,3.82,7.3,5.67l-1.44,1.66c-0.23-.23-0.41-0.44-0.61-0.66s-0.37-.45-0.55-0.68a10.55,10.55,0,0,1-1-1.51,6,6,0,0,1-.66-1.88l0-.57c0-.2,0-0.41.07-0.61a5,5,0,0,1,.2-0.62,3,3,0,0,1,.25-0.47,6,6,0,0,1,.62-0.81c0.21-.23.42-0.45,0.65-0.65a14.33,14.33,0,0,1,1.37-1.1,21.27,21.27,0,0,1,2.95-1.73l-0.13,1.88a15.27,15.27,0,0,1-2.63-2.3,16.19,16.19,0,0,1-1.1-1.34c-0.19-.26-0.32-0.44-0.49-0.7s-0.31-.49-0.47-0.73a21.55,21.55,0,0,1-2.46-6.35v0a1,1,0,0,1,.23-0.87,36.34,36.34,0,0,0,4.39-5.91c0.64-1.06,1.23-2.14,1.78-3.25,0.3-.61.59-1.13,0.89-1.7s0.69-1.14,1-1.68,0.75-1.07,1.19-1.56a16.66,16.66,0,0,1,1.33-1.45,18,18,0,0,1,1.48-1.3l0.79-.59,0.83-.53a14.58,14.58,0,0,1,1.75-.92,12.72,12.72,0,0,1,1.85-.69,11,11,0,0,1,1.95-.4,9,9,0,0,1,2,0,0.52,0.52,0,0,1,.31.14,18.42,18.42,0,0,1,1.31,1.39q0.6,0.74,1.13,1.53c0.34,0.53.66,1.08,1,1.64s0.55,1.13.79,1.71a22.53,22.53,0,0,1,1.59,7.3c0,0.62,0,1.24,0,1.87s-0.05,1.24-.11,1.86a23.25,23.25,0,0,1-.66,3.66,20.09,20.09,0,0,1-3.11,6.7l-0.12-.18a57.72,57.72,0,0,0,7.81-2.35l0,0a11.47,11.47,0,0,0,.73-3.1c0.05-.53.09-1.06,0.09-1.6s0-1.07,0-1.6-0.08-1.06-.16-1.59-0.17-1.05-.26-1.58C-4608.17,5680-4608.44,5679-4608.75,5678Zm0,0c0.31,1,.59,2.05.8,3.1,0.09,0.53.21,1,.27,1.58s0.13,1.06.17,1.6,0.06,1.07,0,1.6,0,1.07-.08,1.6a11.5,11.5,0,0,1-.71,3.13l0,0a63,63,0,0,1-7.79,2.49,0.11,0.11,0,0,1-.14-0.08,0.12,0.12,0,0,1,0-.09,19.34,19.34,0,0,0,2.92-6.67,22.8,22.8,0,0,0,.53-3.61c0-.61.06-1.21,0.05-1.83s0-1.21-.09-1.82a21.78,21.78,0,0,0-1.76-7c-0.24-.55-0.52-1.09-0.8-1.61s-0.62-1-1-1.52-0.72-1-1.11-1.4a17.34,17.34,0,0,0-1.26-1.26l0.31,0.14a7.84,7.84,0,0,0-1.75.08,9.84,9.84,0,0,0-1.74.42,11.44,11.44,0,0,0-1.67.68,13.22,13.22,0,0,0-1.57.89l-0.75.51-0.71.57a16.5,16.5,0,0,0-1.32,1.24,15.13,15.13,0,0,0-1.19,1.37c-0.39.46-.71,1-1.06,1.48s-0.61,1-.9,1.56-0.58,1.15-.81,1.68c-0.53,1.17-1.11,2.31-1.74,3.44a36.76,36.76,0,0,1-4.48,6.32l0.23-.89a19.48,19.48,0,0,0,2.33,5.69c0.13,0.21.27,0.44,0.41,0.64s0.31,0.45.44,0.63a14.14,14.14,0,0,0,1,1.16,13.09,13.09,0,0,0,2.27,2,1.09,1.09,0,0,1,.29,1.52,1.09,1.09,0,0,1-.41.36h0a19.13,19.13,0,0,0-2.62,1.56,12.1,12.1,0,0,0-1.15.94c-0.18.16-.34,0.33-0.49,0.5a4.35,4.35,0,0,0-.37.48,1.28,1.28,0,0,0-.13.24,1.2,1.2,0,0,1,0,.15,1.21,1.21,0,0,1,0,.19,1.9,1.9,0,0,1,0,.23,3.89,3.89,0,0,0,.42,1.16,8.41,8.41,0,0,0,.78,1.21c0.15,0.2.3,0.39,0.47,0.58s0.34,0.39.48,0.54h0a1.1,1.1,0,0,1,0,1.56,1.1,1.1,0,0,1-1.44.09c-2.48-1.88-4.92-3.8-7.33-5.77-1.2-1-2.38-2-3.55-3.05a27.29,27.29,0,0,1-3.39-3.47,2.73,2.73,0,0,1-.2-0.3l-0.1-.17-0.05-.09-0.07-.18a2.39,2.39,0,0,1-.1-0.38,1,1,0,0,1,0-.2v-0.07a1.11,1.11,0,1,1,0-.24v-0.05l0-.14,0.21-1.11,0.39-2.28c0.27-1.53.54-3.06,0.83-4.58,0.59-3.06,1.28-6.1,2.16-9.1,0.43-1.49.93-3,1.49-4.45a34.46,34.46,0,0,1,2-4.28,23.46,23.46,0,0,1,2.67-3.91,18.71,18.71,0,0,1,3.49-3.21,19.29,19.29,0,0,1,8.81-3.14,12.68,12.68,0,0,1,4.69.23,7.07,7.07,0,0,1,3.9,2.54l-0.22.14,0,0v0a0.12,0.12,0,0,1,0-.16h0.07a8.31,8.31,0,0,1,1.45.12,4.71,4.71,0,0,1,1.36.5,5.08,5.08,0,0,1,.63.36l0.56,0.46a8.25,8.25,0,0,1,1,1c0.31,0.37.56,0.78,0.84,1.17l0.71,1.24,0.62,1.29,0.55,1.32C-4610.76,5670.6-4609.86,5674.31-4608.75,5678Z" transform="translate(4660.48 -5649.58)"/><path class="cls-4" d="M-4618.21,5665.78c-3.55-.38-10.26,2-14.12,10.28a38.51,38.51,0,0,1-6.38,9.83,19.87,19.87,0,0,0,3.25,7.3c2.45,3.34,5.87,5.42,9.65,5.42s7.19-2.11,9.64-5.42a21.16,21.16,0,0,0,3.85-12.56C-4612.32,5674.46-4614.66,5669-4618.21,5665.78Z" transform="translate(4660.48 -5649.58)"/><path class="cls-2" d="M-4616.32,5666.47a2.34,2.34,0,0,0-.58-0.22,5,5,0,0,0-1.69-.07,10.49,10.49,0,0,0-2.51.66,15.25,15.25,0,0,0-2.92,1.59,18.82,18.82,0,0,0-5.39,6.09,20.84,20.84,0,0,0-1,2c-0.34.73-.7,1.53-1.11,2.36a37.26,37.26,0,0,1-2.79,4.69,35.18,35.18,0,0,1-3.49,4.2,14.15,14.15,0,0,0-2.73,3.25,1.47,1.47,0,0,0-.12.55,5.67,5.67,0,0,0,.08.89,16.27,16.27,0,0,0,.53,2c0.44,1.35.94,2.64,1.44,3.83,1,2.37,1.94,4.34,2.61,5.72,0.35,0.68.61,1.23,0.81,1.58s0.32,0.55.32,0.55a13.2,13.2,0,0,1-1.79-1.68,39.73,39.73,0,0,1-4-5.08,31.54,31.54,0,0,1-2.21-3.79,16.46,16.46,0,0,1-.94-2.36,7.61,7.61,0,0,1-.3-1.46,4.81,4.81,0,0,1,.17-1.84,8,8,0,0,1,1.54-2.77c0.59-.73,1.15-1.37,1.71-2a43.11,43.11,0,0,0,3.07-3.88,44.82,44.82,0,0,0,2.58-4.22c0.39-.7.75-1.44,1.15-2.22a24.11,24.11,0,0,1,1.39-2.31,19.44,19.44,0,0,1,3.43-3.81,15.76,15.76,0,0,1,3.88-2.43,11.33,11.33,0,0,1,6.64-1,4.62,4.62,0,0,1,1.75.69A2.35,2.35,0,0,1-4616.32,5666.47Z" transform="translate(4660.48 -5649.58)"/><path class="cls-2" d="M-4620.55,5690.41a2.4,2.4,0,0,1-.39.21,9.23,9.23,0,0,1-1.08.42,19.36,19.36,0,0,1-3.4.74,16.46,16.46,0,0,1-3.49.08,6.71,6.71,0,0,1-1.57-.31l1.56-.23c0.92-.14,2.15-0.32,3.39-0.48s2.47-.27,3.41-0.33l1.14-.07C-4620.71,5690.43-4620.55,5690.41-4620.55,5690.41Z" transform="translate(4660.48 -5649.58)"/></svg>