<svg id="Layer_1" data-name="Layer 1" xmlns="http://www.w3.org/2000/svg" viewBox="0 0 58 64"><defs><style>.cls-1{fill:#ffcd5f;}.cls-2{fill:#fff;}.cls-3{fill:#e1ae7d;}.cls-4{fill:none;stroke:#334e5c;stroke-miterlimit:10;stroke-width:2px;}</style></defs><title>BDentIcon</title><circle class="cls-1" cx="53.22" cy="837.88" r="29" transform="translate(-809.38 73.8) rotate(-89.42)"/><path class="cls-2" d="M56.42,848.55c-0.32,1.13-.66,2.63-0.86,3.4A22.11,22.11,0,0,1,56.42,848.55Z" transform="translate(-24.22 -808.88)"/><path class="cls-2" d="M54.61,869.4a3,3,0,0,1-1.39,2.3,0.68,0.68,0,0,0-.17.08,2.24,2.24,0,0,1-.35.07h0c-1.5-.19-4.7-5.7-5.45-9.33-0.81-3.88,0-10,.57-14.5s0.31-15.53.18-18.16-1.26-8.6.1-9.89,2.27-2,4.23-1.75c2.88,0.32,5.33,1.84,10.22,1.8s7.63-2.75,9-2.74c5.08,0.05-.44,11.48-1.39,15.67-1.07,4.8-2.4,18.95-3,22.16-1.13,6.8-3,14-5.89,15.51l-0.06,0a3.67,3.67,0,0,1-.87.24h-0.1c-2.14,0,1.65-6.83,3.05-16.44a19.75,19.75,0,0,0-.69-9.4c-0.43-1.18-4.18-1.56-5.7,2.1a3.9,3.9,0,0,0-.28.71c-0.08.23-.16,0.48-0.22,0.73a22.11,22.11,0,0,0-.86,3.4,54.46,54.46,0,0,0-1,9c0,0.5,0,.87,0,1.08s0,0.71.07,1.16c0.08,1.6.17,3.77,0.1,5.33v0C54.68,868.84,54.64,869.13,54.61,869.4Z" transform="translate(-24.22 -808.88)"/><path class="cls-2" d="M43,817c0.63,0.87,3.07.65,4.38,0.33a35.61,35.61,0,0,1,5.57-.94c1.5,0,5.72,1.1,7.15,1.23,2.06,0.19,3.2-.76,1.9-1.44s-9.43.17-10.89,0.16a48.37,48.37,0,0,0-5,.18C44.77,816.59,42.49,816.26,43,817Zm4.79,31c-0.55,4.52-1.38,10.63-.57,14.5,0.75,3.63,3.95,9.14,5.45,9.33a1.07,1.07,0,0,1-.35,0c-2.14,0-4-1.79-4.86-3.09-1.84-2.65-3.76-8.64-4.23-11.51-0.33-2-.62-11-1-14.1A75.7,75.7,0,0,0,39.7,830.8,26,26,0,0,1,37.93,823c-0.11-4.25,1-6.48,2.06-7.33a5.83,5.83,0,0,1,5.73-1.08c2.42,0.62,4.83,1.84,9.22-.29a10.65,10.65,0,0,1,9.26-.12,6.33,6.33,0,0,0,4.88.84,6.13,6.13,0,0,1,5.57,2.52c1.4,2.09,1.9,6.31-.3,12.7-1,2.93-2.36,4.65-3.29,11.13-0.23,1.46-1.28,11-2,14.18a41.52,41.52,0,0,1-3.12,9.8c-0.77,1.67-2.66,4.34-4.71,5.21,2.9-1.47,4.76-8.71,5.89-15.51,0.55-3.21,1.89-17.36,3-22.16,0.95-4.19,6.47-15.62,1.39-15.67-1.35,0-4.07,2.69-9,2.74s-7.34-1.48-10.22-1.8c-2-.23-2.85.43-4.23,1.75s-0.23,7.25-.1,9.89S48.37,843.49,47.81,848Z" transform="translate(-24.22 -808.88)"/><path class="cls-3" d="M62.61,845c-0.43-1.18-4.18-1.56-5.7,2.1l1.17,8.34a56,56,0,0,1-.2,5.66,50.92,50.92,0,0,0-.33,6.35c0,1.89,1.22,3.53,2.7,3.39l-0.36-2.59c0.69-2.83,2.53-7.78,3.42-13.85A19.75,19.75,0,0,0,62.61,845Z" transform="translate(-24.22 -808.88)"/><path class="cls-2" d="M54.54,861a54.46,54.46,0,0,1,1-9c0.2-.77.54-2.27,0.86-3.4" transform="translate(-24.22 -808.88)"/><path class="cls-4" d="M74.64,817.58a6.11,6.11,0,0,0-5.57-2.52,6.32,6.32,0,0,1-4.88-.84,10.66,10.66,0,0,0-9.25.13c-4.4,2.14-6.8.92-9.23,0.3A5.77,5.77,0,0,0,40,815.72c-1.1.86-2.18,3.08-2.06,7.32a25.33,25.33,0,0,0,1.77,7.75,75.4,75.4,0,0,1,2.58,12.38c0.34,3.14.64,12.09,1,14.11,0.47,2.86,2.38,8.85,4.23,11.51,0.89,1.29,2.72,3.07,4.85,3.09,1,0,1.87-.58,2.28-2.48a44.64,44.64,0,0,0-.1-7.36,56,56,0,0,1,1-10.08c0.36-1.37,1.17-5.06,1.51-5,0.5,0.09.91,6.64,1,7.12a49.61,49.61,0,0,1-.12,7,50.2,50.2,0,0,0-.34,6.35c0.05,1.94,1.28,3.61,2.8,3.41,2.38-.32,4.75-3.55,5.64-5.47a42,42,0,0,0,3.12-9.8c0.67-3.2,1.73-12.73,1.94-14.19,0.93-6.49,2.29-8.2,3.3-11.13C76.54,823.9,76.05,819.68,74.64,817.58Z" transform="translate(-24.22 -808.88)"/><polygon class="cls-4" points="32.31 39.26 32.31 39.26 32.31 39.26 32.31 39.26"/><path class="cls-4" d="M57.05,847c0.5,0.09.91,6.64,1,7.12a49.61,49.61,0,0,1-.12,7,50.2,50.2,0,0,0-.34,6.35,4.61,4.61,0,0,0,.34,1.62c1.78-.77,2.84-3.36,3.26-4.73,0.49-1.6,2-8,2.26-9.68s0.35-7.06-.47-9-2.34-1.72-3.75-1.26C58.06,844.72,57,847,57.05,847Z" transform="translate(-24.22 -808.88)"/></svg>