<svg id="Layer_1" data-name="Layer 1" xmlns="http://www.w3.org/2000/svg" viewBox="0 0 39 39"><defs><style>.cls-1{fill:none;}.cls-1,.cls-2{stroke:#000;stroke-miterlimit:10;}</style></defs><title>Call</title><circle class="cls-1" cx="19.5" cy="19.5" r="19"/><path class="cls-2" d="M-5072,5307.57a2.16,2.16,0,0,0-2.76.38l-1,1.25a1.82,1.82,0,0,1-1.44.53,12.94,12.94,0,0,1-8.68-8.8,1.82,1.82,0,0,1,.47-1.44l1.25-1a2.16,2.16,0,0,0,.38-2.76,27.57,27.57,0,0,0-3.32-4.7,1.88,1.88,0,0,0-2.47-.41h0a10.34,10.34,0,0,0-2.54,2.07h0a3.38,3.38,0,0,0-.88,3.13h0a33.52,33.52,0,0,0,10.21,14.94,39.78,39.78,0,0,0,10.56,5.83h0a3.38,3.38,0,0,0,3.13-.88h0a10.15,10.15,0,0,0,2.07-2.54h0a1.88,1.88,0,0,0-.41-2.47A27.19,27.19,0,0,0-5072,5307.57Z" transform="translate(5099.36 -5284)"/></svg>