<svg id="Discussion" xmlns="http://www.w3.org/2000/svg" viewBox="0 0 92.39 85.7"><defs><style>.cls-1{fill:#fff;}.cls-2{fill:none;stroke:#334e5c;stroke-linecap:round;stroke-miterlimit:10;stroke-width:3.81px;}</style></defs><title>Contact_mobile</title><path class="cls-1" d="M-5125.35,5676.81a33.83,33.83,0,0,1-9.83,23.46c-1.73,1.81,3.23,18.49,3.23,18.49s-13.57-10.48-16.11-9.26a52.17,52.17,0,0,1-22.54,5c-25,0-45.24-16.87-45.24-37.68s20.26-37.68,45.24-37.68S-5125.35,5656-5125.35,5676.81Z" transform="translate(5217.74 -5637.22)"/><line class="cls-2" x1="20.8" y1="27.5" x2="72.99" y2="27.5"/><line class="cls-2" x1="20.8" y1="40.29" x2="72.99" y2="40.29"/><line class="cls-2" x1="20.39" y1="53.09" x2="72.58" y2="53.09"/><path class="cls-2" d="M-5134.79,5701.69c0.42,2.41,2.84,17.06,2.84,17.06s-13.82-9.71-16.29-8.65a51.43,51.43,0,0,1-20.67,4.38c-24.94,0-46.92-16.38-46.92-37s22-38.39,46.92-38.39c9.15,0,18.48,3.25,25.59,7.11" transform="translate(5217.74 -5637.22)"/></svg>