<svg id="Novogodisnja_Image" data-name="Novogodisnja Image" xmlns="http://www.w3.org/2000/svg" viewBox="0 0 114.2 116.54"><defs><style>.cls-1{fill:#e1ae7d;}.cls-2{fill:#fff;}.cls-3{fill:#281412;}</style></defs><title>Contact_narrow</title><circle class="cls-1" cx="57" cy="57" r="57"/><path class="cls-2" d="M-870.68,2702.52a33.83,33.83,0,0,1-9.83,23.46c-1.73,1.81,3.23,18.49,3.23,18.49s-13.57-10.48-16.11-9.26a52.17,52.17,0,0,1-22.54,5c-25,0-45.24-16.87-45.24-37.68s20.26-37.68,45.24-37.68S-870.68,2681.71-870.68,2702.52Z" transform="translate(984.68 -2630.46)"/><path class="cls-3" d="M-870.48,2702.53c0,0.94,0,1.88-.11,2.82a28.2,28.2,0,0,1-.36,2.81c-0.15.93-.37,1.86-0.6,2.77s-0.53,1.82-.84,2.71-0.68,1.77-1.08,2.63-0.81,1.71-1.29,2.53-1,1.63-1.48,2.42l-0.8,1.18-0.84,1.14c-0.58.75-1.17,1.49-1.81,2.2l-0.47.54a1.32,1.32,0,0,0-.11.21c0,0.07,0,.08,0,0.2a5.37,5.37,0,0,0,0,1.28,36,36,0,0,0,.92,5.45c0.82,3.63,1.93,7.22,3.1,10.76l0.93,2.82-2.48-1.76c-2-1.41-4.05-2.79-6.12-4.1a59.65,59.65,0,0,0-6.31-3.56,14.22,14.22,0,0,0-1.56-.63,4.4,4.4,0,0,0-.69-0.18,0.65,0.65,0,0,0-.28,0,0.29,0.29,0,0,0,.16,0l-0.18.09-0.41.21c-0.28.14-.54,0.28-0.84,0.42-0.59.28-1.18,0.56-1.77,0.81a52.18,52.18,0,0,1-7.28,2.55,53.81,53.81,0,0,1-15.33,1.89h-1.86c-0.62,0-1.31-.1-2-0.15l-2-.18a16.77,16.77,0,0,1-2-.25l-3.86-.7c-1.27-.34-2.54-0.67-3.8-1a51.39,51.39,0,0,1-14.16-7.05,42.31,42.31,0,0,1-11-11.69l-1-1.76a13.23,13.23,0,0,1-1-1.81l-0.84-1.88a12,12,0,0,1-.75-1.92l-0.6-2a13.73,13.73,0,0,1-.51-2l-0.36-2a14.43,14.43,0,0,1-.28-2l-0.11-2.06-0.05-1,0-.52a0.83,0.83,0,0,1,0-.28v-0.17l0-.23c0.1-1.25.13-2.43,0.29-3.75s0.49-2.86.81-4.24,0.83-2.61,1.29-3.9a39,39,0,0,1,9-13.34,46.86,46.86,0,0,1,13.08-8.77,54.52,54.52,0,0,1,14.88-4.29l3.84-.36a15.92,15.92,0,0,1,1.92-.08h3.9l1.85,0.14a36,36,0,0,1,3.75.39,50.67,50.67,0,0,1,14.61,4.23c0.57,0.27,1.16.49,1.72,0.79l1.66,0.91,1.65,0.91c0.54,0.33,1.05.69,1.58,1a30.33,30.33,0,0,1,3.09,2.16l1.48,1.17c0.24,0.2.5,0.38,0.73,0.59l0.68,0.65a40.07,40.07,0,0,1,9,11.91,32.61,32.61,0,0,1,3.34,14.48h0Zm-0.4,0a32.15,32.15,0,0,0-3.41-14.24,37.52,37.52,0,0,0-9.06-11.54,46,46,0,0,0-12.55-7.68,49.36,49.36,0,0,0-14.28-3.59,57.14,57.14,0,0,0-14.74.43,52,52,0,0,0-14,4.57,44,44,0,0,0-11.91,8.58,35.42,35.42,0,0,0-7.92,12.28c-0.38,1.16-.73,2.34-1.09,3.51s-0.45,2.39-.68,3.59-0.16,2.47-.25,3.7,0.13,2.43.18,3.65a32.86,32.86,0,0,0,4.78,13.75,39.24,39.24,0,0,0,9.95,10.72,47.82,47.82,0,0,0,13,6.82l3.53,1.08,3.61,0.78a14.68,14.68,0,0,0,1.82.3l1.83,0.23c0.61,0.07,1.21.18,1.83,0.21l1.86,0.08a51.17,51.17,0,0,0,14.67-1.28,50,50,0,0,0,7-2.19c0.58-.22,1.14-0.46,1.7-0.7,0.28-.12.56-0.26,0.84-0.38l0.42-.19a2.4,2.4,0,0,1,.51-0.18,4.3,4.3,0,0,1,2,.35,16.48,16.48,0,0,1,1.72.77,61.8,61.8,0,0,1,6.36,3.91q3.07,2.11,6,4.38l-0.41.28c-1-3.61-2-7.25-2.77-10.93a36.49,36.49,0,0,1-.81-5.61,6,6,0,0,1,.1-1.46,1.89,1.89,0,0,1,.13-0.4,1.41,1.41,0,0,1,.22-0.34l0.47-.51c0.64-.68,1.24-1.4,1.83-2.12l0.86-1.11,0.81-1.14c0.52-.78,1-1.56,1.48-2.37s0.89-1.64,1.29-2.48,0.75-1.71,1.08-2.58,0.61-1.76.85-2.66,0.46-1.81.61-2.73a27.78,27.78,0,0,0,.38-2.77c0.09-.92.12-1.86,0.14-2.8h0Z" transform="translate(984.68 -2630.46)"/><path class="cls-3" d="M-941.81,2688.53l52.19,1.91-52.19,1.91a1.91,1.91,0,0,1-2-1.84,1.91,1.91,0,0,1,1.84-2h0.14Z" transform="translate(984.68 -2630.46)"/><path class="cls-3" d="M-941.81,2701.33l52.19,1.91-52.19,1.91a1.91,1.91,0,0,1-2-1.84,1.91,1.91,0,0,1,1.84-2h0.14Z" transform="translate(984.68 -2630.46)"/><path class="cls-3" d="M-942.22,2714.12L-890,2716l-52.19,1.91a1.91,1.91,0,0,1-2-1.84,1.91,1.91,0,0,1,1.84-2h0.14Z" transform="translate(984.68 -2630.46)"/></svg>