<svg id="Discussion" xmlns="http://www.w3.org/2000/svg" viewBox="0 0 44.5 43.74"><defs><style>.cls-1{fill:#e1ae7d;}.cls-2{fill:#fff;}.cls-3{fill:none;stroke:#334e5c;stroke-linecap:round;stroke-miterlimit:10;stroke-width:1.59px;}</style></defs><title>Contact_mobile</title><circle class="cls-1" cx="21" cy="21" r="21"/><path class="cls-2" d="M-1631.1,2570a14.08,14.08,0,0,1-4.09,9.76c-0.72.75,1.35,7.7,1.35,7.7s-5.65-4.36-6.7-3.86a21.72,21.72,0,0,1-9.38,2.08c-10.4,0-18.83-7-18.83-15.69s8.43-15.69,18.83-15.69S-1631.1,2561.3-1631.1,2570Z" transform="translate(1675.6 -2545.42)"/><line class="cls-3" x1="14.7" y1="19.51" x2="36.43" y2="19.51"/><line class="cls-3" x1="14.7" y1="24.84" x2="36.43" y2="24.84"/><line class="cls-3" x1="14.53" y1="30.16" x2="36.25" y2="30.16"/><path class="cls-3" d="M-1635,2580.32c0.17,1,1.18,7.1,1.18,7.1s-5.75-4-6.78-3.6a21.41,21.41,0,0,1-8.61,1.82c-10.38,0-19.53-6.82-19.53-15.39s9.15-16,19.53-16a23.3,23.3,0,0,1,10.65,3" transform="translate(1675.6 -2545.42)"/></svg>