<svg id="Layer_1" data-name="Layer 1" xmlns="http://www.w3.org/2000/svg" viewBox="0 0 64.03 58"><defs><style>.cls-1{fill:#ffcd5f;}.cls-2{fill:#fff;}.cls-3{fill:#e1ae7d;}.cls-4{fill:#334e5c;}</style></defs><title>DominoIcon</title><circle class="cls-1" cx="29" cy="29" r="29"/><polygon class="cls-2" points="62.24 32.24 62.24 32.9 59.38 32.51 62.24 32.24"/><polygon class="cls-2" points="62.24 19.97 62.24 21.31 59.26 20.75 62.24 19.97"/><polygon class="cls-2" points="55.46 42.76 55.46 43.23 54.96 43.23 54.96 42.75 55.46 42.76"/><polygon class="cls-2" points="55.46 33.1 55.46 42.76 54.96 42.75 54.96 33.05 55.46 33.1"/><polygon class="cls-2" points="55.46 22.18 55.46 30.07 54.96 30.02 54.96 22.07 55.46 22.18"/><polygon class="cls-2" points="55.46 19.84 55.46 22.18 54.96 22.07 54.96 19.77 55.46 19.84"/><polygon class="cls-2" points="55.46 32.18 55.46 33.1 54.96 33.05 54.96 32.13 55.46 32.18"/><path class="cls-2" d="M75.11,929.28l-1.32.07Z" transform="translate(-21.21 -884.27)"/><polygon class="cls-2" points="40.3 42.54 40.3 43.77 39.77 43.79 39.77 42.52 40.3 42.54"/><polygon class="cls-2" points="40.3 33.42 40.3 42.54 39.77 42.52 39.77 33.47 40.3 33.42"/><polygon class="cls-2" points="40.3 22.94 40.3 28.54 39.77 28.49 39.77 23.06 40.3 22.94"/><polygon class="cls-2" points="40.3 16.97 40.3 22.94 39.77 23.06 39.77 16.77 40.3 16.97"/><polygon class="cls-2" points="39.77 31.02 40.3 31.09 40.3 33.42 39.77 33.47 39.77 31.02"/><polygon class="cls-2" points="38.47 42.5 38.47 42.75 37.96 42.78 37.96 42.5 38.47 42.5"/><polygon class="cls-2" points="38.47 33.61 38.47 42.5 37.96 42.5 37.96 33.66 38.47 33.61"/><polygon class="cls-2" points="38.47 23.36 38.47 28.35 37.96 28.3 37.96 23.46 38.47 23.36"/><polygon class="cls-2" points="38.47 23.18 38.47 23.36 37.96 23.46 37.96 23.1 38.47 23.18"/><polygon class="cls-2" points="37.96 33.45 38.47 33.5 38.47 33.61 37.96 33.66 37.96 33.45"/><polygon class="cls-2" points="39.58 45.68 23.31 46.46 23.31 44.86 64.03 43.34 64.03 44.52 57.02 44.85 54.49 44.97 53.9 45 52.58 45.07 42.23 45.56 39.65 45.68 39.58 45.68"/><polygon class="cls-2" points="55.46 30.07 54.96 30.02 54.21 29.95 40.3 28.54 39.77 28.49 39.16 28.42 38.47 28.35 37.96 28.3 37.27 28.23 23.31 26.82 23.31 28.42 37.27 29.67 37.96 29.74 38.47 29.77 39.16 29.84 39.77 29.89 40.3 29.95 54.21 31.18 54.96 31.25 55.46 31.3 64.03 32.06 64.03 30.94 55.46 30.07"/><polygon class="cls-2" points="23.48 10.56 23.48 8.87 64.03 18.33 64.03 19.51 23.48 10.56"/><polygon class="cls-2" points="23.31 42.73 23.31 43.02 22.59 43.09 22.59 42.75 23.31 42.73"/><polygon class="cls-2" points="23.31 33.16 23.31 42.73 22.59 42.75 22.59 33.12 23.31 33.16"/><polygon class="cls-2" points="23.31 22.35 23.31 26.82 22.59 26.95 22.59 22.25 23.31 22.35"/><polygon class="cls-2" points="23.31 21.15 23.31 22.35 22.59 22.25 22.59 21.07 23.31 21.15"/><polygon class="cls-2" points="23.31 32.69 23.31 33.16 22.59 33.12 22.59 32.65 23.31 32.69"/><polygon class="cls-2" points="19.54 42.82 19.54 44.12 18.71 44.17 18.71 42.83 19.54 42.82"/><polygon class="cls-2" points="19.54 32.95 19.54 42.82 18.71 42.83 18.71 32.9 19.54 32.95"/><polygon class="cls-2" points="19.54 21.85 19.54 27.47 18.71 27.61 18.71 21.73 19.54 21.85"/><polygon class="cls-2" points="19.54 29.55 19.54 32.95 18.71 32.9 18.71 29.44 19.54 29.55"/><polygon class="cls-2" points="19.54 12.95 19.54 21.85 18.71 21.73 18.71 12.72 19.54 12.95"/><polygon class="cls-2" points="4.26 43.15 4.26 43.32 3.59 43.34 3.59 43.16 4.26 43.15"/><polygon class="cls-2" points="4.26 32.05 4.26 43.15 3.59 43.16 3.59 32.01 4.26 32.05"/><polygon class="cls-2" points="4.26 19.8 4.26 30.07 3.59 30.17 3.59 19.7 4.26 19.8"/><polygon class="cls-2" points="4.26 31.49 4.26 32.05 3.59 32.01 3.59 31.44 4.26 31.49"/><polygon class="cls-2" points="4.26 18.52 4.26 19.8 3.59 19.7 3.59 18.24 4.26 18.52"/><polygon class="cls-3" points="3.59 43.34 4.26 43.32 4.26 43.15 18.02 42.85 18.02 44.12 18.71 44.17 19.54 44.12 19.54 42.82 22.07 42.76 22.07 43.06 22.59 43.09 23.31 43.02 23.31 42.73 35.62 42.47 37.27 42.49 37.27 42.73 37.96 42.78 38.47 42.75 38.47 42.5 39.16 42.52 39.16 43.75 39.77 43.79 40.3 43.77 40.3 42.54 54.21 42.75 54.21 43.23 54.96 43.23 55.46 43.23 55.46 42.76 61.81 42.85 59.09 43.09 64.03 43.34 23.31 44.86 0.03 43.23 3.01 43.16 3.01 43.3 3.59 43.34"/><polygon class="cls-3" points="64.03 32.06 55.46 31.3 54.96 31.25 54.21 31.18 40.3 29.95 39.77 29.89 39.16 29.84 38.47 29.77 37.96 29.74 37.27 29.67 23.31 28.42 22.59 28.52 22.07 28.59 19.54 28.98 18.71 29.1 18.02 29.18 4.26 31.2 3.59 31.28 3.01 31.37 0.03 31.8 3.01 31.98 3.01 31.52 3.59 31.44 4.26 31.49 4.26 32.05 18.02 32.86 18.02 29.55 18.71 29.44 19.54 29.55 19.54 32.95 22.07 33.09 22.07 32.69 22.59 32.65 23.31 32.69 23.31 33.16 35.62 33.88 37.27 33.73 37.27 33.54 37.96 33.45 38.47 33.5 38.47 33.61 39.16 33.54 39.16 31.14 39.77 31.02 40.3 31.09 40.3 33.42 49.05 32.55 54.21 32.98 54.21 32.24 54.96 32.13 55.46 32.18 55.46 33.1 57.18 33.24 62.24 32.9 59.38 32.51 62.24 32.24 64.03 32.06"/><polygon class="cls-3" points="4.26 18.52 3.59 18.24 3.01 18.54 3.01 19.63 0.03 19.23 18.57 12.38 18.71 12.72 18.02 13.07 18.02 21.64 4.26 19.8 4.26 18.52"/><polygon class="cls-3" points="19.54 21.85 19.54 12.95 18.71 12.72 18.57 12.38 23.48 10.56 64.03 19.51 62.24 19.97 59.26 20.75 62.24 21.31 56.69 22.4 55.46 22.18 55.46 19.84 54.96 19.77 54.21 19.97 54.21 21.93 49.05 20.96 40.3 22.94 40.3 16.97 39.77 16.77 39.16 16.94 39.16 23.2 38.47 23.36 38.47 23.18 37.96 23.1 37.27 23.32 37.27 23.63 35.62 24 23.31 22.35 23.31 21.15 22.59 21.07 22.07 21.17 22.07 22.18 19.54 21.85"/><polygon class="cls-4" points="54.21 19.97 54.21 21.93 54.21 29.95 54.96 30.02 54.96 22.07 54.96 19.77 54.21 19.97"/><polygon class="cls-4" points="54.21 32.24 54.21 32.98 54.21 42.75 54.21 43.23 54.96 43.23 54.96 42.75 54.96 33.05 54.96 32.13 54.21 32.24"/><polygon class="cls-4" points="39.16 31.14 39.16 33.54 39.16 42.52 39.16 43.75 39.77 43.79 39.77 42.52 39.77 33.47 39.77 31.02 39.16 31.14"/><polygon class="cls-4" points="39.16 16.94 39.16 23.2 39.16 28.42 39.77 28.49 39.77 23.06 39.77 16.77 39.16 16.94"/><polygon class="cls-4" points="37.27 33.54 37.27 33.73 37.27 42.49 37.27 42.73 37.96 42.78 37.96 42.5 37.96 33.66 37.96 33.45 37.27 33.54"/><polygon class="cls-4" points="37.27 23.32 37.27 23.63 37.27 28.23 37.96 28.3 37.96 23.46 37.96 23.1 37.27 23.32"/><polygon class="cls-4" points="22.07 21.17 22.07 22.18 22.07 27.03 22.59 26.95 22.59 22.25 22.59 21.07 22.07 21.17"/><polygon class="cls-4" points="22.07 32.69 22.07 33.09 22.07 42.76 22.07 43.06 22.59 43.09 22.59 42.75 22.59 33.12 22.59 32.65 22.07 32.69"/><polygon class="cls-4" points="18.02 13.07 18.02 21.64 18.02 27.73 18.71 27.61 18.71 21.73 18.71 12.72 18.02 13.07"/><polygon class="cls-4" points="18.02 29.55 18.02 32.86 18.02 42.85 18.02 44.12 18.71 44.17 18.71 42.83 18.71 32.9 18.71 29.44 18.02 29.55"/><polygon class="cls-4" points="3.01 18.54 3.01 19.63 3.01 30.28 3.59 30.17 3.59 19.7 3.59 18.24 3.01 18.54"/><polygon class="cls-4" points="3.01 31.52 3.01 31.98 3.01 43.16 3.01 43.3 3.59 43.34 3.59 43.16 3.59 32.01 3.59 31.44 3.01 31.52"/><polygon class="cls-4" points="22.59 26.95 22.07 27.03 19.54 27.47 18.71 27.61 18.02 27.73 4.26 30.07 3.59 30.17 3.01 30.28 0.03 30.78 0.03 31.8 3.01 31.37 3.59 31.28 4.26 31.2 18.02 29.18 18.71 29.1 19.54 28.98 22.07 28.59 22.59 28.52 23.31 28.42 23.31 26.82 22.59 26.95"/><polygon class="cls-4" points="18.57 12.38 0.03 19.23 0.03 18.07 23.48 8.87 23.48 10.56 18.57 12.38"/><polygon class="cls-4" points="0.03 43.23 23.31 44.86 23.31 46.46 22.59 46.41 16.39 45.9 6.78 45.12 5.15 45 5.11 45 1.99 44.74 1.97 44.74 0.03 44.59 0.03 43.23"/></svg>