<svg id="Layer_1" data-name="Layer 1" xmlns="http://www.w3.org/2000/svg" viewBox="0 0 58 63.96"><defs><style>.cls-1{fill:#ffcd5f;}.cls-2{fill:#fff;}.cls-3,.cls-4{fill:none;stroke:#334e5c;stroke-miterlimit:10;stroke-width:2px;}.cls-4{stroke-linecap:round;stroke-dasharray:0 3.22;}</style></defs><title>NescafeIcon</title><circle class="cls-1" cx="29" cy="33.5" r="29"/><path class="cls-2" d="M69.16,643.84c0,4.41-7.13,8.85-15.93,8.85s-15.93-4.44-15.93-8.85,7.13-7.08,15.93-7.08S69.16,639.43,69.16,643.84Z" transform="translate(-24.22 -589.73)"/><path class="cls-3" d="M69.16,597.81c0,4.4-7.13,8.85-15.93,8.85s-15.93-4.45-15.93-8.85,7.13-7.08,15.93-7.08S69.16,593.41,69.16,597.81Z" transform="translate(-24.22 -589.73)"/><path class="cls-3" d="M69.16,601.35v42.49c0,4.4-7.13,8.85-15.93,8.85s-15.93-4.45-15.93-8.85V601.35" transform="translate(-24.22 -589.73)"/><path class="cls-4" d="M69.16,643.84c0,4.4-7.13,8.85-15.93,8.85s-15.93-4.45-15.93-8.85,7.13-7.08,15.93-7.08S69.16,639.44,69.16,643.84Z" transform="translate(-24.22 -589.73)"/><path class="cls-3" d="M37.29,597.81v4.43c0,4.4,7.13,9.74,15.93,9.74s15.93-5.34,15.93-9.74v-4.43" transform="translate(-24.22 -589.73)"/></svg>