<svg id="Play_button" data-name="Play button" xmlns="http://www.w3.org/2000/svg" viewBox="0 0 64 64"><defs><style>.cls-1{fill:#fff;}.cls-2{fill:none;stroke:#334e5c;stroke-linecap:round;stroke-miterlimit:10;stroke-width:2.6px;}</style></defs><title>Projects_mobile</title><circle class="cls-1" cx="32" cy="32" r="32"/><path class="cls-2" d="M-4680.4,5694.48a4.1,4.1,0,0,0,.49-1.94,4.1,4.1,0,0,0-.68-2.26l-16.74-25.61a4.1,4.1,0,0,0-3.42-1.84,4.1,4.1,0,0,0-3.42,1.84l-17.07,25.61a4.1,4.1,0,0,0-.19,4.2,4.1,4.1,0,0,0,3.61,2.16h33.8A4.1,4.1,0,0,0-4680.4,5694.48Z" transform="translate(4732.91 -5649.58)"/></svg>