<svg id="Play_button" data-name="Play button" xmlns="http://www.w3.org/2000/svg" viewBox="0 0 64 64"><defs><style>.cls-1{fill:#fff;}.cls-2{fill:none;stroke:#334e5c;stroke-linecap:round;stroke-miterlimit:10;stroke-width:3.81px;}</style></defs><title>Projects_mobile</title><circle class="cls-1" cx="32" cy="32" r="32"/><path class="cls-2" d="M-4750.31,5693.73a4,4,0,0,0,.48-1.9,4,4,0,0,0-.66-2.2l-16.34-25a4,4,0,0,0-3.34-1.8,4,4,0,0,0-3.34,1.8l-16.66,25a4,4,0,0,0-.18,4.1,4,4,0,0,0,3.52,2.1h33A4,4,0,0,0-4750.31,5693.73Z" transform="translate(4802.33 -5649.58)"/></svg>