<svg id="Layer_1" data-name="Layer 1" xmlns="http://www.w3.org/2000/svg" viewBox="0 0 58 59.35"><defs><style>.cls-1{fill:#ffcd5f;}.cls-2{fill:none;}.cls-2,.cls-3{stroke:#334e5c;stroke-linecap:round;stroke-miterlimit:10;stroke-width:2px;}.cls-3{fill:#fff;}</style></defs><title>SkillshareIcon</title><circle class="cls-1" cx="29" cy="29" r="29"/><path class="cls-2" d="M42.75,675.92a7.53,7.53,0,1,1-2.28-3.16" transform="translate(-24.22 -665.42)"/><path class="cls-2" d="M55.42,671.16a7.53,7.53,0,1,1-3.88.4" transform="translate(-24.22 -665.42)"/><path class="cls-2" d="M70.05,671.56a7.53,7.53,0,1,1-3.16,2.28" transform="translate(-24.22 -665.42)"/><path class="cls-2" d="M29.87,692.67a7.53,7.53,0,1,1-1.6,3.56" transform="translate(-24.22 -665.42)"/><path class="cls-2" d="M59,691.58a7.53,7.53,0,1,1-3.56-1.6" transform="translate(-24.22 -665.42)"/><path class="cls-3" d="M65.3,696.22a7.53,7.53,0,1,1,.4,3.88" transform="translate(-24.22 -665.42)"/><path class="cls-2" d="M28.67,718.92A7.53,7.53,0,1,1,31,722.09" transform="translate(-24.22 -665.42)"/><path class="cls-2" d="M53,723.68a7.53,7.53,0,1,1,3.88-.4" transform="translate(-24.22 -665.42)"/><path class="cls-2" d="M68,722.09a7.53,7.53,0,1,1,3.56,1.6" transform="translate(-24.22 -665.42)"/></svg>