<svg id="Isolation_Mode" data-name="Isolation Mode" xmlns="http://www.w3.org/2000/svg" viewBox="0 0 58 62.68"><defs><style>.cls-1{fill:#ffcd5f;}.cls-2{fill:none;stroke:#334e5c;stroke-miterlimit:10;stroke-width:2px;}.cls-3{fill:#fff;}</style></defs><title>WalkingIcon</title><circle class="cls-1" cx="29" cy="29" r="29"/><path class="cls-2" d="M69.2,793.55l-6.72-11a6.72,6.72,0,0,1-.26-0.65l-3-12.72-2.69-11.61c0-.17,0-0.25.27-0.12l3.3,2.58a0.53,0.53,0,0,1,.18.25l2.2,9.79a2.14,2.14,0,0,0,2.21,1.69,2.1,2.1,0,0,0,2.22-1.94,3,3,0,0,0-.07-0.5l-2.23-9.91a3.41,3.41,0,0,0-1.37-2.12l-8.81-6.94a8.3,8.3,0,0,0-4.36-1.21,7.25,7.25,0,0,0-4.34,1.23,3,3,0,0,0-.83,1.16c-1.69,2.56-2.16,8.82-3,9.33l-8.05,5.47c-1.54,1.68.15,4.06,2.88,3l8.07-5.57c0.81-.58,1.21-2.21,1.49-3.14,0.12-.27.25-0.4,0.36-0.2l2.48,10.49a0.71,0.71,0,0,1-.24.53L41,778.57a5,5,0,0,0-1.84,3.3l-0.15.69s-1.16,6.26-1.81,10.22a5.1,5.1,0,0,0-.14.83v0a3.3,3.3,0,0,0,3.53,3.07A3.48,3.48,0,0,0,44,794.33a2.67,2.67,0,0,0,.07-0.41l1.93-11a1.17,1.17,0,0,1,.15-0.26L53.41,776l0,0a0.18,0.18,0,0,1,.25.07l1.72,7.37a6.81,6.81,0,0,0,.67,1.65L63,796.41a3.68,3.68,0,0,0,3.3,1.92h0a3.43,3.43,0,0,0,3.53-3.2A3.14,3.14,0,0,0,69.2,793.55Z" transform="translate(-24.22 -736.65)"/><path class="cls-3" d="M48.4,747.15h0a5,5,0,0,0,5.08-5V742a5,5,0,0,0-5.06-4.78,5.1,5.1,0,0,0-2.88.88,3.51,3.51,0,0,0-1.38,1.4,4.89,4.89,0,0,0-.83,2.68A5,5,0,0,0,48.4,747.15Z" transform="translate(-24.22 -736.65)"/></svg>