<svg id="Layer_1" data-name="Layer 1" xmlns="http://www.w3.org/2000/svg" viewBox="0 0 220 220"><defs><style>.cls-1{fill:#264e47;}.cls-2,.cls-3{fill:none;}.cls-3{stroke:#fff;stroke-miterlimit:10;}.cls-4{fill:#fff;}.cls-5{fill:#d7737e;}.cls-6{fill:#f3f3f3;}.cls-7{fill:#d2d3d3;fill-opacity:0.5;}</style></defs><title>B-dent_S</title><path class="cls-1" d="M220,193.17A26.91,26.91,0,0,1,193.17,220H26.83A26.91,26.91,0,0,1,0,193.17V26.83A26.91,26.91,0,0,1,26.83,0H193.17A26.91,26.91,0,0,1,220,26.83V193.17Z"/><line class="cls-2" x1="162.23" y1="48.94" x2="162.23" y2="106.68"/><line class="cls-3" x1="162.23" y1="48.94" x2="162.23" y2="104.4"/><polygon class="cls-4" points="158.84 100.41 162.23 103.81 165.62 100.41 165.62 103.29 162.23 106.68 158.84 103.29 158.84 100.41"/><line class="cls-2" x1="60.74" y1="48.94" x2="60.74" y2="106.68"/><line class="cls-3" x1="60.74" y1="48.94" x2="60.74" y2="104.4"/><polygon class="cls-4" points="57.35 100.41 60.74 103.81 64.13 100.41 64.13 103.29 60.74 106.68 57.35 103.29 57.35 100.41"/><line class="cls-2" x1="74.77" y1="41.05" x2="74.77" y2="98.79"/><line class="cls-3" x1="74.77" y1="41.05" x2="74.77" y2="96.5"/><polygon class="cls-4" points="71.38 92.52 74.77 95.91 78.16 92.52 78.16 95.4 74.77 98.79 71.38 95.4 71.38 92.52"/><line class="cls-2" x1="109.78" y1="29.94" x2="109.78" y2="87.67"/><line class="cls-3" x1="109.78" y1="29.94" x2="109.78" y2="85.39"/><polygon class="cls-4" points="106.39 81.4 109.78 84.8 113.17 81.4 113.17 84.28 109.78 87.67 106.39 84.28 106.39 81.4"/><line class="cls-2" x1="148.15" y1="37.04" x2="148.15" y2="94.78"/><line class="cls-3" x1="148.15" y1="37.04" x2="148.15" y2="92.49"/><polygon class="cls-4" points="144.76 88.51 148.15 91.9 151.54 88.51 151.54 91.39 148.15 94.78 144.76 91.39 144.76 88.51"/><path class="cls-5" d="M194.21,110.45c-14.58.64-67.07,10.89-78.15,10C109,119.84,22.34,108.25,0,108.84v87.55A23.68,23.68,0,0,0,23.61,220H196.39A23.68,23.68,0,0,0,220,196.39V110C207.15,110,202.82,110.07,194.21,110.45Z"/><path class="cls-6" d="M71,47.28a151.56,151.56,0,0,1,4.65,17.14,1.7,1.7,0,0,1,.3.63c1.42,6.29,4.23,14.75,12,15.24,16.19,1,56.09,6.21,62.12-18h0c1.85-8.9,4.2-12.75,6-18.37,5-15.81,3.56-26.15,0-31.22-3.12-4.4-9.54-6.78-13.84-5.85-3.8.81-6.57,0.94-12-1.78-7.91-3.94-17.18-2-22.71.87C96.73,11.48,90.74,8.63,84.75,7.25c-5-1.14-8.75-1.19-14,3-2.64,2.18-5.18,7.7-4.61,18.11C66.51,35,68.62,41.17,71,47.28Z"/><path class="cls-7" d="M78.25,13.15c1.61,2.09,7.6,1.39,10.81.54s9.9-2.46,13.6-2.62,14.13,2.33,17.62,2.56c5.07,0.34,7.84-2.06,4.58-3.63s-23.12,1-26.71,1-7.84.23-12.34,0.73C82.55,12.11,76.93,11.43,78.25,13.15Z"/><path class="cls-4" d="M92.29,80.6a184,184,0,0,0,25.38.63c3.58-3,8.08-2.73,9.8-1.23,5.93-1.18,11.35-3.21,15.48-6.55,0.9-9.16,1.88-17.89,2.85-22.74,2.07-10.33,14.95-38.75,2.46-38.57-3.31.05-9.85,6.85-21.88,7.26s-18.13-3.17-25.19-3.81c-4.85-.44-7,1.26-10.28,4.54S90.78,38,91.26,44.43C91.63,49.59,92.5,67.78,92.29,80.6Z"/><polygon class="cls-7" points="109.78 134.7 109.78 134.7 109.78 134.7 109.78 134.7"/><path class="cls-7" d="M111,131.79c1.22,0.21,2.4,16.29,2.51,17.48a122.38,122.38,0,0,1-.13,17.25,123.78,123.78,0,0,0-.68,15.59,11.4,11.4,0,0,0,.88,4c4.35-1.94,6.9-8.32,7.9-11.7,1.16-3.93,4.63-19.67,5.32-23.83s0.69-17.35-1.39-22.21-5.78-4.16-9.25-3c-2.74.91-4,3.27-5.35,6.56A0.24,0.24,0,0,1,111,131.79Z"/><path class="cls-6" d="M144.9,123c0.23-2.06.6-6.15-.74-8.86s-1.88-13.24-1.88-18.88-4.37-8.24-10.62-8.24-28.11-.35-35.75,0-12.84,3.12-12.84,7.64-2.43,18.28-4.75,21c-2.15,2.53-3.84,3.72-3.5,8.77,0.85,8.8,1.75,28.36,2.56,33,1.22,7,6.07,21.68,10.68,28.17,2.22,3.13,6.77,7.48,12,7.48,2.51,0,4.59-1.47,5.54-6.15,0.78-7.37-.38-15.86-0.43-18.09-0.15-6.85,1.17-20.31,2.31-24.78,0.85-3.37,2.76-12.45,3.58-12.31,1.22,0.21,2.4,16.29,2.52,17.48a122.34,122.34,0,0,1-.13,17.25,124.18,124.18,0,0,0-.68,15.59c0.18,4.77,3.25,8.84,7,8.31,5.85-.84,11.59-8.84,13.73-13.57s4.94-11.58,7.42-24.15c1.31-6.61,3.18-22.06,4-29.67h0Z"/><path class="cls-4" d="M134.21,115c-6.48.85-30.43-.35-38.06,0-2.87.13-2.15,1.19-6.25,1.65,0.4,9.44-.45,8-1.56,17.91-1.24,11.11-3.16,26.15-1.07,35.63s11.11,24.29,14.34,22.67c1.68-.84,3.42-1,4-5.92,0.5-4.56-.13-13.7-0.43-18.09-0.2-2.87,1.13-17.54,2.31-24.78A73.59,73.59,0,0,1,110,133.9c3.17-10.88,13.48-10.11,14.63-7.06,2.82,7.51,2.88,16,1.92,23.08-3.26,24.05-12.62,41-6.86,40.5,8.42-.7,13.47-20.47,16.39-38.94,1.16-7.32.95-18.52,3.36-32.21C136.4,118.64,140.4,114.2,134.21,115Z"/><path class="cls-4" d="M80.48,111.46a2.4,2.4,0,0,0,0,.75,1.91,1.91,0,0,0,1.25,1.33c1.56,0.69,4.18.9,7.3,1s6.82,0,10.78-.06,8.2-.15,12.45-0.18c2.13,0,4.26,0,6.36,0l6.15,0.15c4,0.1,7.66.21,10.76,0.08a21.63,21.63,0,0,0,4.1-.49,4.82,4.82,0,0,0,2.58-1.36,3.4,3.4,0,0,0,.74-1.83,5.43,5.43,0,0,0,.05-0.77l0.06,0.19a4.16,4.16,0,0,1,.16.57,3.69,3.69,0,0,1-.21,2.33,5.62,5.62,0,0,1-2.73,2.57,19.5,19.5,0,0,1-4.37,1.53,71.81,71.81,0,0,1-11.06,1.49c-2,.15-4.09.23-6.19,0.33s-4.23.15-6.37,0.17-4.28,0-6.4,0-4.2-.15-6.22-0.28a75.25,75.25,0,0,1-11-1.49,30.13,30.13,0,0,1-4.35-1.3,10.11,10.11,0,0,1-3.15-1.78,3.13,3.13,0,0,1-.85-1.14,1.88,1.88,0,0,1-.12-1A2.22,2.22,0,0,1,80.48,111.46Z"/><path class="cls-4" d="M89.48,102a14.63,14.63,0,0,1-.43-2.77c0-.42-0.05-0.88,0-1.36a11,11,0,0,1,.13-1.54,12.75,12.75,0,0,1,.33-1.64A10.16,10.16,0,0,1,90.14,93a7.74,7.74,0,0,1,1-1.52c0.2-.23.41-0.44,0.63-0.65s0.47-.37.7-0.54a6.55,6.55,0,0,1,1.45-.79,10.67,10.67,0,0,1,1.4-.36c0.44,0,.84-0.06,1.19-0.07a5.91,5.91,0,0,1,.9.09c0.49,0.07.76,0.14,0.76,0.14s-0.27.11-.73,0.26c-0.23.08-.51,0.15-0.81,0.27s-0.63.28-1,.42l-1.06.6a10,10,0,0,0-1,.82c-0.15.16-.33,0.3-0.47,0.48s-0.28.37-.43,0.55-0.25.4-.38,0.59a3.55,3.55,0,0,0-.35.63,13.6,13.6,0,0,0-.6,1.35c-0.14.48-.35,0.93-0.46,1.4-0.28.93-.47,1.84-0.68,2.63s-0.36,1.46-.49,1.93S89.48,102,89.48,102Z"/><path class="cls-4" d="M130.45,88.61l0.5-.09a8.08,8.08,0,0,1,3.24.26,7.35,7.35,0,0,1,1,.38,7.67,7.67,0,0,1,1,.55,7,7,0,0,1,.9.73,5.1,5.1,0,0,1,.72.86,5.18,5.18,0,0,1,.51.91,8,8,0,0,1,.3.88c0.06,0.28.09,0.54,0.13,0.76a3.32,3.32,0,0,1,0,.59c0,0.32,0,.51,0,0.51l-0.18-.47c-0.06-.15-0.1-0.33-0.2-0.53l-0.29-.66-0.42-.72a8.31,8.31,0,0,0-.55-0.73,6.83,6.83,0,0,0-1.47-1.29A12.24,12.24,0,0,0,132.2,89l-1.26-.31Z"/></svg>