<svg id="Layer_1" data-name="Layer 1" xmlns="http://www.w3.org/2000/svg" viewBox="0 0 220 220"><defs><style>.cls-1{fill:#254d46;}.cls-2{fill:#fff;}</style></defs><title>B-dent_Icon1</title><path class="cls-1" d="M220,193.17A26.91,26.91,0,0,1,193.17,220H26.83A26.91,26.91,0,0,1,0,193.17V26.83A26.91,26.91,0,0,1,26.83,0H193.17A26.91,26.91,0,0,1,220,26.83V193.17Z"/><path class="cls-2" d="M154,61.12c1.19-5.56,5.84-13.37,5.88-21.18s-8.78-22.15-24.94-22.15c-15.69,0-19.09,5.29-25.65,7.38-6.67-1.25-10.29-7.38-18-7.38-8.64,0-11.76,3.63-16.85,2.94-12-1.64-14.41,4.72-14.36,12.52s3.27,22.31,4.46,27.86c1.58,7.39,4.52,14.47,4.54,21.18,0,1.93,0,3.89-.15,5.87h0c0.92,7.45,23.67,8,41,9.25,18.9,1.41,39.49,4.65,39.77,1.41,0,0,.15-9.36.16-9.4a56.57,56.57,0,0,1-.48-7.14C149.48,75.59,152.42,68.5,154,61.12Z"/><path class="cls-2" d="M137.52,116.25c5.59,0,4-1.23,4-2,0-3-.33-5.87,11.68-7.53,4.22-.58,4-1.66.48-2.51a86,86,0,0,0-15.64-2.7c-17.8-1.27-35.63-2.54-53.08-4.12-9.5-.86-14.9.45-18.82,2.13-4.23,1.81,3.36,2.54,7.29,3.32,5.29,1,6.07,2.44,5.54,3.88-1.27,3.46,4.75,5,16.78,5.81,11.76,0.76,23.05,2,34.56,3.08C132.66,115.87,135.08,116.05,137.52,116.25Z"/><path class="cls-2" d="M134.26,132.13c6.06,0.22,5.94-1,5.94-2,0-2.64-.08-5.18,10.19-6.75,4.2-.64,3.46-1.68-0.12-2.51a85.07,85.07,0,0,0-13.55-2.37c-16.45-1.35-33-2.67-49-4.29-8.93-.9-14,0.35-18.19,1.86-5,1.8,2.14,2.62,6.12,3.39,7.31,1.42,5.56,3.44,5.45,5.26s2.36,2.85,9.11,3.41C105,129.4,119.62,130.81,134.26,132.13Z"/><path class="cls-2" d="M84.86,130.17c-6.58,0-10.22,1-12.84,2.1s1.41,1.9,4.35,2.43c5.14,0.94,7.13,2.18,6.31,3.77-1.29,2.57,2.93,3.89,12.06,4.61,11.67,0.92,23,2.13,34.37,3.29,6.7,0.69,10.27.48,9.62-1.77-0.6-2.06-.18-4,7.76-5.31,4-.64,3.73-1.68.32-2.56a45,45,0,0,0-5.75-1.31C122.9,133.06,103,132,84.86,130.17Z"/><path class="cls-2" d="M110.12,187.15a50.68,50.68,0,0,0,15.45-15.79c1.11-1.67,2.87-3,8.42-3.95,7.61-1.27,6.95-2.61.06-3.95-13.06-2.53-28.41-3.84-42.6-5.76a20.83,20.83,0,0,0-10.35,1.18c-3.33,1.19-1,2.1,2.79,2.75,5.62,1,6.77,2.4,7.61,4.06C95.05,172.7,99.3,179.67,110.12,187.15Z"/><path class="cls-2" d="M74.27,146.13c0.35,1.18,3.28,1.64,5.72,2.15,3.4,0.72,5.33,1.55,5.74,2.76,0.52,1.53-1.24,3.46,4.87,4.35,12,1.74,24.35,3.31,36.82,4.78,3.72,0.44,4.21-.66,4.25-1.36,0.2-2.29,1.78-4.3,10-5.65,5.45-.9,3.63-2.08-0.68-3-16.27-3.3-35.85-4.71-54.41-6.62C80.86,143,76.09,144.62,74.27,146.13Z"/></svg>