<svg id="Layer_1" data-name="Layer 1" xmlns="http://www.w3.org/2000/svg" viewBox="0 0 220 220"><defs><style>.cls-1{fill:#254d46;}.cls-2{fill:#f2f2f2;}.cls-3{fill:#fff;}.cls-4{fill:#d1d2d3;fill-opacity:0.5;}</style></defs><title>B-dent_Icon3</title><path class="cls-1" d="M930,438.19A26.91,26.91,0,0,1,903.17,465H736.83A26.91,26.91,0,0,1,710,438.19V271.85A26.91,26.91,0,0,1,736.83,245H903.17A26.91,26.91,0,0,1,930,271.85V438.19Z" transform="translate(-710 -245.02)"/><path class="cls-2" d="M871.35,274.55c-3.62-5.25-11.15-8.16-16.24-7.15-4.49.9-7.77,1-14.17-2.3-9.28-4.78-20.24-2.64-26.83.64-12.69,6.33-19.71,2.86-26.75,1.13-5.84-1.43-10.31-1.55-16.56,3.28-3.15,2.53-6.24,9-5.75,21.31,0.31,7.86,2.69,15.19,5.35,22.43,2.18,5.94,6.45,24.06,7.83,35.83,1.07,9.11,2.21,35,3.23,40.9,1.44,8.29,7.17,25.6,12.6,33.26,2.62,3.7,8,8.83,14.15,8.83,3,0,5.41-1.73,6.54-7.27,0.92-8.71-.45-18.73-0.51-21.35-0.17-8.09,1.39-24,2.73-29.26,1-4,3.25-14.7,4.23-14.53,1.44,0.25,2.83,19.23,3,20.63,0.72,7.27,0,18.68-.16,20.37a145.6,145.6,0,0,0-.8,18.41c0.21,5.63,3.83,10.44,8.22,9.81,6.91-1,13.68-10.43,16.21-16s5.83-13.67,8.77-28.52c1.84-9.3,4.64-37,5.2-41.2,2.52-18.84,6.41-23.86,9.25-32.39C877,292.83,875.51,280.59,871.35,274.55Z" transform="translate(-710 -245.02)"/><path class="cls-3" d="M806.63,277c8.33,0.87,15.47,5.19,29.68,4.92s22-8.19,26-8.2c14.75,0-.93,33.32-3.55,45.49-3,13.93-6.46,55.06-7.92,64.33-3.45,21.82-9.41,45.15-19.35,46-6.8.57,4.25-19.42,8.1-47.81,1.13-8.3,1.06-18.39-2.27-27.25-1.35-3.61-13.53-4.52-17.27,8.33a87.28,87.28,0,0,0-3,12c-1.39,8.55-3,25.87-2.73,29.26,0.36,5.18,1.11,16,.51,21.35-0.64,5.77-2.7,6-4.68,7-3.82,1.92-14.48-15.56-16.94-26.77s-0.2-29,1.27-42.07,0.45-45.07,0-52.72-3.92-24.86,0-28.68S800.91,276.41,806.63,277Z" transform="translate(-710 -245.02)"/><path class="cls-4" d="M779.59,273.72c1.86,2.49,9,1.78,12.76.82s11.72-2.73,16.1-2.87,16.63,3,20.76,3.32c6,0.49,9.29-2.3,5.47-4.21s-27.32.75-31.55,0.75-9.25.15-14.58,0.66C784.68,272.57,778.06,271.68,779.59,273.72Z" transform="translate(-710 -245.02)"/><polygon class="cls-4" points="109.72 118.72 109.72 118.72 109.72 118.72 109.72 118.72"/><path class="cls-4" d="M821.21,360.29c1.44,0.25,2.83,19.23,3,20.63,0.72,7.27,0,18.68-.16,20.37a145.6,145.6,0,0,0-.8,18.41,13.36,13.36,0,0,0,1,4.69c5.14-2.28,8.15-9.82,9.33-13.81,1.36-4.65,5.46-23.22,6.28-28.14s0.82-20.49-1.64-26.23-6.83-4.92-10.93-3.55c-3.24,1.08-4.77,3.87-6.31,7.75A0.28,0.28,0,0,1,821.21,360.29Z" transform="translate(-710 -245.02)"/><path class="cls-2" d="M867,268.21c31.2,0,31.2.17,31.2,31.2,0-31,0-31.2,31.2-31.2-28.27,0-30.93,0-31.18-23.19h-0.05C897.87,268.21,895.2,268.21,867,268.21Z" transform="translate(-710 -245.02)"/><path class="cls-2" d="M745.58,390.92c0,41.67,0,44.84-35.58,45.08v0c30.28,0.23,34.79,2.71,35.47,29h0.24c0.74-28.81,6.09-29,45-29C745.58,436,745.58,436,745.58,390.92Z" transform="translate(-710 -245.02)"/></svg>