<svg id="Layer_1" data-name="Layer 1" xmlns="http://www.w3.org/2000/svg" viewBox="0 0 220 220"><defs><style>.cls-1{fill:#254d46;}.cls-2{fill:#c3848e;}.cls-3{fill:#8a5f65;}.cls-4{fill:#f6b8c0;}.cls-5{fill:#fff;}.cls-6{fill:#d4d1ce;}.cls-7{fill:#b5b3b1;}</style></defs><title>B-dent_Icon2</title><path class="cls-1" d="M584.78,581.21A26.91,26.91,0,0,1,558,608H391.61a26.91,26.91,0,0,1-26.83-26.83V414.87A26.91,26.91,0,0,1,391.61,388H558a26.91,26.91,0,0,1,26.83,26.83V581.21Z" transform="translate(-364.78 -388.04)"/><circle class="cls-2" cx="75.25" cy="56.96" r="44.31"/><path class="cls-3" d="M404,429.42l-0.4,1.29-0.48,1.55c-0.09.31-.21,0.63-0.3,1l-0.24,1.14L402.05,437l-0.36,3.16c0,0.28-.07.56-0.09,0.85s0,0.59,0,.89q0,0.9,0,1.85c0,0.31,0,.63,0,1V445l0,0.21,0,0.5,0.17,2.06,0.09,1.07c0,0.36.12,0.69,0.18,1l0.4,2.13a18.88,18.88,0,0,0,.55,2.18l0.64,2.24,0.87,2.22,0.44,1.13,0.56,1.1,1.12,2.23,1.35,2.15c0.23,0.36.44,0.73,0.69,1.08l0.79,1c0.54,0.68,1,1.4,1.63,2l1.81,1.93c0.58,0.67,1.3,1.21,1.95,1.82l1,0.9c0.34,0.3.72,0.54,1.07,0.82,0.73,0.53,1.44,1.09,2.19,1.59a39.91,39.91,0,0,0,4.75,2.63,42,42,0,0,0,5,2,41.18,41.18,0,0,0,5.25,1.2l1.32,0.21a8.18,8.18,0,0,0,1.32.15l2.64,0.17,0.61,0h0.68l1.35,0c0.92,0,1.72-.12,2.57-0.19a39.48,39.48,0,0,0,17.49-6.24,42.89,42.89,0,0,0,5.9-4.72c0.83-.77,1.51-1.58,2.21-2.28l1.73-2.08,1.29-1.76c0.38-.51.65-1,0.89-1.35l0.73-1.14-0.6,1.22a35,35,0,0,1-1.86,3.36l-1.55,2.28c-0.63.78-1.28,1.66-2.06,2.52a38.55,38.55,0,0,1-23.91,12.71c-0.91.1-1.87,0.26-2.75,0.27l-1.35.07-0.68,0-0.75,0-2.83-.11a9.16,9.16,0,0,1-1.42-.15l-1.42-.21a44.21,44.21,0,0,1-5.65-1.24,43.72,43.72,0,0,1-5.43-2.14,42.59,42.59,0,0,1-5.08-2.87c-0.8-.55-1.56-1.16-2.33-1.73-0.38-.3-0.78-0.57-1.14-0.89l-1.06-1a37.88,37.88,0,0,1-7.15-8.62l-1.37-2.33-1.11-2.41-0.53-1.19-0.42-1.22-0.81-2.39L401,454.66a16.77,16.77,0,0,1-.46-2.34l-0.28-2.3c0-.37-0.1-0.75-0.12-1.11l0-1.07q0-1.06,0-2.07V445l0-.25,0.09-1,0.17-1.9,0.08-.91c0-.3.11-0.59,0.16-0.87l0.63-3.19,0.83-2.64,0.35-1.12c0.13-.34.28-0.65,0.41-0.95l0.66-1.49Z" transform="translate(-364.78 -388.04)"/><ellipse class="cls-4" cx="79.24" cy="49.54" rx="35.23" ry="33.57"/><path class="cls-5" d="M468.17,427.94c0-10-8.54-18.17-19.07-18.17S430,417.9,430,427.94s8.54,18.17,19.07,18.17S468.17,438,468.17,427.94Z" transform="translate(-364.78 -388.04)"/><path class="cls-6" d="M464.57,486.82S531,569,533,571.68s7.06,5.07,10,2.21c2-2,2.44-4.87,0-8s-69-86.41-69-86.41-2.76,2.42-3.93,3.42S464.57,486.82,464.57,486.82Z" transform="translate(-364.78 -388.04)"/><path class="cls-7" d="M471,484.39s49.44,61.36,65.34,81.54c2.13,2.7,0,7.09-3.32,3.32-16.8-19-65.58-82.43-65.58-82.43s1.38-.81,1.8-1.1S471,484.39,471,484.39Z" transform="translate(-364.78 -388.04)"/></svg>