<svg id="Layer_1" data-name="Layer 1" xmlns="http://www.w3.org/2000/svg" viewBox="0 0 220 220"><defs><style>.cls-1{fill:#254d46;}.cls-2{fill:#f2f2f2;}.cls-3{fill:#fff;}.cls-4{fill:#d1d2d3;}.cls-4,.cls-6{fill-opacity:0.5;}.cls-5{fill:#d6727d;}.cls-6{fill:#f6b8c0;}</style></defs><title>B-dent_Icon4</title><path class="cls-1" d="M220,683.21A26.91,26.91,0,0,1,193.17,710H26.83A26.91,26.91,0,0,1,0,683.21V516.86A26.91,26.91,0,0,1,26.83,490H193.17A26.91,26.91,0,0,1,220,516.86V683.21Z" transform="translate(0 -490.04)"/><path class="cls-2" d="M167.93,550.74c-3.88-5.64-12-8.76-17.44-7.67-4.83,1-8.35,1.07-15.22-2.47-10-5.14-21.73-2.84-28.8.69-13.63,6.79-21.16,3.07-28.72,1.22C71.48,541,66.68,540.84,60,546c-3.38,2.72-6.7,9.66-6.18,22.88,0.33,8.44,2.89,16.31,5.75,24.09,2.34,6.38,6.93,25.83,8.41,38.47,1.14,9.78,45.1,11.17,46.14,11.35,1.55,0.27,42.78-13.2,43.39-17.73,2.71-20.23,6.89-25.62,9.93-34.78C174,570.37,172.4,557.23,167.93,550.74Z" transform="translate(0 -490.04)"/><path class="cls-3" d="M98.43,553.38c8.94,0.93,16.61,5.57,31.87,5.28s23.67-8.8,27.87-8.8c15.84,0-1,35.78-3.81,48.84-3.23,15-6.93,59.12-8.51,69.08-3.71,23.43-16.21,28.52-12.07-2,1.21-8.92,1.13-19.74-2.44-29.26-1.45-3.87-14.53-4.85-18.55,8.95a93.57,93.57,0,0,0-3.24,12.93c-1.49,9.18-25.81,2-24.23-12.05s0.48-48.4,0-56.61-4.22-26.69,0-30.8S92.29,552.74,98.43,553.38Z" transform="translate(0 -490.04)"/><path class="cls-4" d="M69.4,549.86c2,2.67,9.61,1.91,13.7.88s12.59-2.93,17.28-3.08,17.86,3.2,22.29,3.56c6.42,0.52,10-2.47,5.87-4.52s-29.33.81-33.88,0.81-9.94.15-15.66,0.71C74.86,548.62,67.75,547.66,69.4,549.86Z" transform="translate(0 -490.04)"/><path class="cls-5" d="M190.33,609.83c-14.58.63-29-3.43-30.84,3.67-8.08,30.54-58.57,23.23-79.07,21.65-9.83-.76-13.25-11.54-14.93-19.54C64,608.68,22.34,609.29,0,609.87v76.55A23.68,23.68,0,0,0,23.61,710H196.39A23.68,23.68,0,0,0,220,686.43V611C207.15,611,198.95,609.45,190.33,609.83Z" transform="translate(0 -490.04)"/><path class="cls-6" d="M112.79,643.63c16.92-.9,38.09-7.07,44.22-14.55s6.72-16.28,11.41-15.1,0.52,12.92-3.55,18.78-16.4,12.9-28.12,15.83-71.57,2.78-67.58-5C73.73,634.75,95.87,644.54,112.79,643.63Z" transform="translate(0 -490.04)"/></svg>