<?xml version="1.0" encoding="utf-8"?>
<!-- Generator: Adobe Illustrator 19.2.0, SVG Export Plug-In . SVG Version: 6.00 Build 0)  -->
<svg version="1.1" id="Layer_1" xmlns="http://www.w3.org/2000/svg" xmlns:xlink="http://www.w3.org/1999/xlink" x="0px" y="0px"
	 viewBox="0 0 229.5 244.1" style="enable-background:new 0 0 229.5 244.1;" xml:space="preserve">
<style type="text/css">
	.st0{fill:#264E47;}
	.st1{fill:#F3F3F3;}
	.st2{fill:#FFFFFF;}
	.st3{fill:#D2D3D3;fill-opacity:0.5;}
</style>
<g>
	<g>
		<path class="st0" d="M229.5,201.2c0,14.8-12.1,26.8-26.8,26.8H36.3c-14.8,0-26.8-12.1-26.8-26.8V34.8C9.5,20.1,21.6,8,36.3,8
			h166.3c14.8,0,26.8,12.1,26.8,26.8V201.2z"/>
	</g>
	<g>
		<path class="st1" d="M170.9,37.5c-3.6-5.3-11.1-8.2-16.2-7.1c-4.5,0.9-7.8,1-14.2-2.3c-9.3-4.8-20.2-2.6-26.8,0.6
			c-12.7,6.3-19.7,2.9-26.8,1.1c-5.8-1.4-10.3-1.5-16.6,3.3c-3.2,2.5-6.2,9-5.8,21.3c0.3,7.9,2.7,15.2,5.4,22.4
			c2.2,5.9,6.5,24.1,7.8,35.8c1.1,9.1,2.2,35,3.2,40.9c1.4,8.3,7.2,25.6,12.6,33.3c2.6,3.7,8,8.8,14.2,8.8c3,0,5.4-1.7,6.5-7.3
			c0.9-8.7-0.5-18.7-0.5-21.4c-0.2-8.1,1.4-24,2.7-29.3c1-4,3.3-14.7,4.2-14.5c1.4,0.2,2.8,19.2,3,20.6c0.7,7.3,0,18.7-0.2,20.4
			c-0.9,10-0.9,15.5-0.8,18.4c0.2,5.6,3.8,10.4,8.2,9.8c6.9-1,13.7-10.4,16.2-16c2.5-5.4,5.8-13.7,8.8-28.5c1.8-9.3,4.6-37,5.2-41.2
			c2.5-18.8,6.4-23.9,9.2-32.4C176.6,55.8,175,43.6,170.9,37.5z"/>
		<path class="st2" d="M106.1,40c8.3,0.9,15.5,5.2,29.7,4.9c14.2-0.3,22-8.2,26-8.2c14.8,0-0.9,33.3-3.6,45.5
			c-3,13.9-6.5,55.1-7.9,64.3c-3.4,21.8-9.4,45.2-19.3,46c-6.8,0.6,4.3-19.4,8.1-47.8c1.1-8.3,1.1-18.4-2.3-27.2
			c-1.4-3.6-13.5-4.5-17.3,8.3c-0.9,3-2.1,6.6-3,12c-1.4,8.6-3,25.9-2.7,29.3c0.4,5.2,1.1,16,0.5,21.4c-0.6,5.8-2.7,6-4.7,7
			c-3.8,1.9-14.5-15.6-16.9-26.8c-2.5-11.2-0.2-29,1.3-42.1s0.4-45.1,0-52.7c-0.4-7.6-3.9-24.9,0-28.7
			C97.8,41.4,100.4,39.4,106.1,40z"/>
		<path class="st3" d="M79.1,36.7c1.9,2.5,9,1.8,12.8,0.8c3.8-1,11.7-2.7,16.1-2.9c4.4-0.1,16.6,3,20.8,3.3c6,0.5,9.3-2.3,5.5-4.2
			c-3.8-1.9-27.3,0.8-31.6,0.8c-4.2,0-9.3,0.1-14.6,0.7C84.2,35.6,77.6,34.7,79.1,36.7z"/>
		<g>
			<polygon class="st3" points="119.2,126.7 119.2,126.7 119.2,126.7 			"/>
			<path class="st3" d="M120.7,123.3c1.4,0.2,2.8,19.2,3,20.6c0.7,7.3,0,18.7-0.2,20.4c-0.9,10-0.9,15.5-0.8,18.4
				c0.1,1.7,0.4,3.3,1,4.7c5.1-2.3,8.2-9.8,9.3-13.8c1.4-4.6,5.5-23.2,6.3-28.1c0.8-4.9,0.8-20.5-1.6-26.2
				c-2.5-5.7-6.8-4.9-10.9-3.5c-3.2,1.1-4.8,3.9-6.3,7.8C120.6,123.3,120.6,123.3,120.7,123.3z"/>
		</g>
	</g>
	<path class="st1" d="M228.9,31.2c-31.2,0-31.2,0.2-31.2,31.2c0-31,0-31.2-31.2-31.2c31.2,0,31.2,0,31.2-31.2
		C197.7,31.2,197.7,31.2,228.9,31.2z"/>
	<path class="st1" d="M90.2,199c-45.1,0-45.1,0.3-45.1,45.1c0-44.8,0-45.1-45.1-45.1c45.1,0,45.1,0,45.1-45.1
		C45.1,199,45.1,199,90.2,199z"/>
</g>
</svg>
