<svg id="Layer_1" data-name="Layer 1" xmlns="http://www.w3.org/2000/svg" xmlns:xlink="http://www.w3.org/1999/xlink" viewBox="0 0 1871.8 769.23"><defs><style>.cls-1,.cls-10,.cls-100,.cls-102,.cls-11,.cls-12,.cls-13,.cls-14,.cls-15,.cls-16,.cls-17,.cls-18,.cls-19,.cls-2,.cls-20,.cls-21,.cls-22,.cls-23,.cls-24,.cls-25,.cls-26,.cls-27,.cls-28,.cls-29,.cls-3,.cls-30,.cls-31,.cls-32,.cls-33,.cls-34,.cls-35,.cls-36,.cls-37,.cls-38,.cls-39,.cls-4,.cls-40,.cls-41,.cls-42,.cls-43,.cls-44,.cls-45,.cls-46,.cls-47,.cls-48,.cls-49,.cls-5,.cls-50,.cls-51,.cls-52,.cls-53,.cls-54,.cls-55,.cls-56,.cls-57,.cls-58,.cls-59,.cls-6,.cls-60,.cls-61,.cls-62,.cls-63,.cls-64,.cls-65,.cls-66,.cls-67,.cls-68,.cls-69,.cls-7,.cls-70,.cls-71,.cls-72,.cls-73,.cls-74,.cls-75,.cls-76,.cls-77,.cls-78,.cls-79,.cls-8,.cls-80,.cls-81,.cls-82,.cls-83,.cls-84,.cls-85,.cls-86,.cls-87,.cls-88,.cls-89,.cls-9,.cls-90,.cls-97,.cls-98,.cls-99{fill:none;}.cls-10,.cls-11,.cls-12,.cls-13,.cls-14,.cls-15,.cls-16,.cls-17,.cls-18,.cls-19,.cls-2,.cls-20,.cls-21,.cls-22,.cls-23,.cls-24,.cls-25,.cls-26,.cls-27,.cls-28,.cls-29,.cls-3,.cls-30,.cls-31,.cls-32,.cls-33,.cls-34,.cls-35,.cls-36,.cls-37,.cls-38,.cls-39,.cls-4,.cls-40,.cls-41,.cls-42,.cls-43,.cls-44,.cls-45,.cls-46,.cls-47,.cls-48,.cls-49,.cls-5,.cls-50,.cls-51,.cls-52,.cls-53,.cls-54,.cls-55,.cls-56,.cls-57,.cls-58,.cls-59,.cls-6,.cls-60,.cls-61,.cls-62,.cls-63,.cls-64,.cls-65,.cls-66,.cls-67,.cls-68,.cls-69,.cls-7,.cls-70,.cls-71,.cls-72,.cls-73,.cls-74,.cls-75,.cls-76,.cls-77,.cls-78,.cls-79,.cls-8,.cls-80,.cls-81,.cls-82,.cls-83,.cls-84,.cls-85,.cls-86,.cls-87,.cls-88,.cls-89,.cls-9,.cls-90{stroke:#2c858d;stroke-linecap:round;stroke-dasharray:0 14.6;}.cls-2{stroke-width:0.44px;}.cls-3{stroke-width:0.59px;}.cls-4{stroke-width:0.73px;}.cls-5{stroke-width:0.88px;}.cls-6{stroke-width:1.02px;}.cls-7{stroke-width:1.17px;}.cls-8{stroke-width:1.31px;}.cls-9{stroke-width:1.46px;}.cls-10{stroke-width:1.6px;}.cls-11{stroke-width:1.74px;}.cls-12{stroke-width:1.89px;}.cls-13{stroke-width:2.03px;}.cls-14{stroke-width:2.18px;}.cls-15{stroke-width:2.32px;}.cls-16{stroke-width:2.47px;}.cls-17{stroke-width:2.61px;}.cls-18{stroke-width:2.75px;}.cls-19{stroke-width:2.9px;}.cls-20{stroke-width:3.04px;}.cls-21{stroke-width:3.19px;}.cls-22{stroke-width:3.33px;}.cls-23{stroke-width:3.48px;}.cls-24{stroke-width:3.62px;}.cls-25{stroke-width:3.77px;}.cls-26{stroke-width:3.91px;}.cls-27{stroke-width:4.05px;}.cls-28{stroke-width:4.2px;}.cls-29{stroke-width:4.34px;}.cls-30{stroke-width:4.49px;}.cls-31{stroke-width:4.63px;}.cls-32{stroke-width:4.78px;}.cls-33{stroke-width:4.92px;}.cls-34{stroke-width:5.07px;}.cls-35{stroke-width:5.21px;}.cls-36{stroke-width:5.35px;}.cls-37{stroke-width:5.5px;}.cls-38{stroke-width:5.64px;}.cls-39{stroke-width:5.79px;}.cls-40{stroke-width:5.93px;}.cls-41{stroke-width:6.08px;}.cls-42{stroke-width:6.22px;}.cls-43{stroke-width:6.37px;}.cls-44{stroke-width:6.51px;}.cls-45{stroke-width:6.65px;}.cls-46{stroke-width:0.37px;}.cls-47{stroke-width:0.52px;}.cls-48{stroke-width:0.66px;}.cls-49{stroke-width:0.81px;}.cls-50{stroke-width:0.95px;}.cls-51{stroke-width:1.09px;}.cls-52{stroke-width:1.24px;}.cls-53{stroke-width:1.38px;}.cls-54{stroke-width:1.53px;}.cls-55{stroke-width:1.67px;}.cls-56{stroke-width:1.82px;}.cls-57{stroke-width:1.96px;}.cls-58{stroke-width:2.11px;}.cls-59{stroke-width:2.25px;}.cls-60{stroke-width:2.39px;}.cls-61{stroke-width:2.54px;}.cls-62{stroke-width:2.68px;}.cls-63{stroke-width:2.83px;}.cls-64{stroke-width:2.97px;}.cls-65{stroke-width:3.12px;}.cls-66{stroke-width:3.26px;}.cls-67{stroke-width:3.4px;}.cls-68{stroke-width:3.55px;}.cls-69{stroke-width:3.69px;}.cls-70{stroke-width:3.84px;}.cls-71{stroke-width:3.98px;}.cls-72{stroke-width:4.13px;}.cls-73{stroke-width:4.27px;}.cls-74{stroke-width:4.42px;}.cls-75{stroke-width:4.56px;}.cls-76{stroke-width:4.7px;}.cls-77{stroke-width:4.85px;}.cls-78{stroke-width:4.99px;}.cls-79{stroke-width:5.14px;}.cls-80{stroke-width:5.28px;}.cls-81{stroke-width:5.43px;}.cls-82{stroke-width:5.57px;}.cls-83{stroke-width:5.72px;}.cls-84{stroke-width:5.86px;}.cls-85{stroke-width:6px;}.cls-86{stroke-width:6.15px;}.cls-87{stroke-width:6.29px;}.cls-88{stroke-width:6.44px;}.cls-89{stroke-width:6.58px;}.cls-90{stroke-width:6.73px;}.cls-91{fill:#372d3d;}.cls-92{fill:#211429;}.cls-93{fill:#58313d;}.cls-94{fill:#fef2f7;}.cls-95{fill:#fff;}.cls-96{fill:#f6dce9;}.cls-100,.cls-97{stroke:#fef2f7;}.cls-100,.cls-102,.cls-97,.cls-98{stroke-miterlimit:10;}.cls-97{stroke-width:1.2px;}.cls-102,.cls-98,.cls-99{stroke:#fff;}.cls-98,.cls-99{stroke-width:2.4px;}.cls-99{stroke-linejoin:round;}.cls-100{stroke-width:0.48px;}.cls-101{fill:url(#SVGID_1_);}.cls-102{stroke-width:4px;}</style><pattern id="SVGID_1_" data-name="SVGID 1 " width="145" height="652.9" patternTransform="matrix(0.96, 0, 0, -0.96, 445.41, 30.56)" patternUnits="userSpaceOnUse" viewBox="0 0 145 652.9"><rect class="cls-1" width="145" height="652.9"/><rect class="cls-1" width="145" height="652.9"/><line class="cls-2" x1="137.8" y1="11.2" x2="183.8" y2="11.2"/><line class="cls-3" x1="137.8" y1="25.8" x2="183.8" y2="25.8"/><line class="cls-4" x1="137.8" y1="40.4" x2="183.8" y2="40.4"/><line class="cls-5" x1="137.8" y1="55.1" x2="183.8" y2="55.1"/><line class="cls-6" x1="137.8" y1="69.7" x2="183.8" y2="69.7"/><line class="cls-7" x1="137.8" y1="84.3" x2="183.8" y2="84.3"/><line class="cls-8" x1="137.8" y1="99" x2="183.8" y2="99"/><line class="cls-9" x1="137.8" y1="113.6" x2="183.8" y2="113.6"/><line class="cls-10" x1="137.8" y1="128.2" x2="183.8" y2="128.2"/><line class="cls-11" x1="137.8" y1="142.9" x2="183.8" y2="142.9"/><line class="cls-12" x1="137.8" y1="157.5" x2="183.8" y2="157.5"/><line class="cls-13" x1="137.8" y1="172.1" x2="183.8" y2="172.1"/><line class="cls-14" x1="137.8" y1="186.8" x2="183.8" y2="186.8"/><line class="cls-15" x1="137.8" y1="201.4" x2="183.8" y2="201.4"/><line class="cls-16" x1="137.8" y1="216" x2="183.8" y2="216"/><line class="cls-17" x1="137.8" y1="230.7" x2="183.8" y2="230.7"/><line class="cls-18" x1="137.8" y1="245.3" x2="183.8" y2="245.3"/><line class="cls-19" x1="137.8" y1="259.9" x2="183.8" y2="259.9"/><line class="cls-20" x1="137.8" y1="274.6" x2="183.8" y2="274.6"/><line class="cls-21" x1="137.8" y1="289.2" x2="183.8" y2="289.2"/><line class="cls-22" x1="137.8" y1="303.8" x2="183.8" y2="303.8"/><line class="cls-23" x1="137.8" y1="318.5" x2="183.8" y2="318.5"/><line class="cls-24" x1="137.8" y1="333.1" x2="183.8" y2="333.1"/><line class="cls-25" x1="137.8" y1="347.7" x2="183.8" y2="347.7"/><line class="cls-26" x1="137.8" y1="362.3" x2="183.8" y2="362.3"/><line class="cls-27" x1="137.8" y1="377" x2="183.8" y2="377"/><line class="cls-28" x1="137.8" y1="391.6" x2="183.8" y2="391.6"/><line class="cls-29" x1="137.8" y1="406.2" x2="183.8" y2="406.2"/><line class="cls-30" x1="137.8" y1="420.9" x2="183.8" y2="420.9"/><line class="cls-31" x1="137.8" y1="435.5" x2="183.8" y2="435.5"/><line class="cls-32" x1="137.8" y1="450.1" x2="183.8" y2="450.1"/><line class="cls-33" x1="137.8" y1="464.8" x2="183.8" y2="464.8"/><line class="cls-34" x1="137.8" y1="479.4" x2="183.8" y2="479.4"/><line class="cls-35" x1="137.8" y1="494" x2="183.8" y2="494"/><line class="cls-36" x1="137.8" y1="508.7" x2="183.8" y2="508.7"/><line class="cls-37" x1="137.8" y1="523.3" x2="183.8" y2="523.3"/><line class="cls-38" x1="137.8" y1="537.9" x2="183.8" y2="537.9"/><line class="cls-39" x1="137.8" y1="552.6" x2="183.8" y2="552.6"/><line class="cls-40" x1="137.8" y1="567.2" x2="183.8" y2="567.2"/><line class="cls-41" x1="137.8" y1="581.8" x2="183.8" y2="581.8"/><line class="cls-42" x1="137.8" y1="596.5" x2="183.8" y2="596.5"/><line class="cls-43" x1="137.8" y1="611.1" x2="183.8" y2="611.1"/><line class="cls-44" x1="137.8" y1="625.7" x2="183.8" y2="625.7"/><line class="cls-45" x1="137.8" y1="640.4" x2="183.8" y2="640.4"/><line class="cls-46" x1="130.5" y1="3.9" x2="176.5" y2="3.9"/><line class="cls-47" x1="130.5" y1="18.5" x2="176.5" y2="18.5"/><line class="cls-48" x1="130.5" y1="33.1" x2="176.5" y2="33.1"/><line class="cls-49" x1="130.5" y1="47.8" x2="176.5" y2="47.8"/><line class="cls-50" x1="130.5" y1="62.4" x2="176.5" y2="62.4"/><line class="cls-51" x1="130.5" y1="77" x2="176.5" y2="77"/><line class="cls-52" x1="130.5" y1="91.7" x2="176.5" y2="91.7"/><line class="cls-53" x1="130.5" y1="106.3" x2="176.5" y2="106.3"/><line class="cls-54" x1="130.5" y1="120.9" x2="176.5" y2="120.9"/><line class="cls-55" x1="130.5" y1="135.6" x2="176.5" y2="135.6"/><line class="cls-56" x1="130.5" y1="150.2" x2="176.5" y2="150.2"/><line class="cls-57" x1="130.5" y1="164.8" x2="176.5" y2="164.8"/><line class="cls-58" x1="130.5" y1="179.5" x2="176.5" y2="179.5"/><line class="cls-59" x1="130.5" y1="194.1" x2="176.5" y2="194.1"/><line class="cls-60" x1="130.5" y1="208.7" x2="176.5" y2="208.7"/><line class="cls-61" x1="130.5" y1="223.3" x2="176.5" y2="223.3"/><line class="cls-62" x1="130.5" y1="238" x2="176.5" y2="238"/><line class="cls-63" x1="130.5" y1="252.6" x2="176.5" y2="252.6"/><line class="cls-64" x1="130.5" y1="267.2" x2="176.5" y2="267.2"/><line class="cls-65" x1="130.5" y1="281.9" x2="176.5" y2="281.9"/><line class="cls-66" x1="130.5" y1="296.5" x2="176.5" y2="296.5"/><line class="cls-67" x1="130.5" y1="311.1" x2="176.5" y2="311.1"/><line class="cls-68" x1="130.5" y1="325.8" x2="176.5" y2="325.8"/><line class="cls-69" x1="130.5" y1="340.4" x2="176.5" y2="340.4"/><line class="cls-70" x1="130.5" y1="355" x2="176.5" y2="355"/><line class="cls-71" x1="130.5" y1="369.7" x2="176.5" y2="369.7"/><line class="cls-72" x1="130.5" y1="384.3" x2="176.5" y2="384.3"/><line class="cls-73" x1="130.5" y1="398.9" x2="176.5" y2="398.9"/><line class="cls-74" x1="130.5" y1="413.6" x2="176.5" y2="413.6"/><line class="cls-75" x1="130.5" y1="428.2" x2="176.5" y2="428.2"/><line class="cls-76" x1="130.5" y1="442.8" x2="176.5" y2="442.8"/><line class="cls-77" x1="130.5" y1="457.5" x2="176.5" y2="457.5"/><line class="cls-78" x1="130.5" y1="472.1" x2="176.5" y2="472.1"/><line class="cls-79" x1="130.5" y1="486.7" x2="176.5" y2="486.7"/><line class="cls-80" x1="130.5" y1="501.4" x2="176.5" y2="501.4"/><line class="cls-81" x1="130.5" y1="516" x2="176.5" y2="516"/><line class="cls-82" x1="130.5" y1="530.6" x2="176.5" y2="530.6"/><line class="cls-83" x1="130.5" y1="545.2" x2="176.5" y2="545.2"/><line class="cls-84" x1="130.5" y1="559.9" x2="176.5" y2="559.9"/><line class="cls-85" x1="130.5" y1="574.5" x2="176.5" y2="574.5"/><line class="cls-86" x1="130.5" y1="589.1" x2="176.5" y2="589.1"/><line class="cls-87" x1="130.5" y1="603.8" x2="176.5" y2="603.8"/><line class="cls-88" x1="130.5" y1="618.4" x2="176.5" y2="618.4"/><line class="cls-89" x1="130.5" y1="633" x2="176.5" y2="633"/><line class="cls-90" x1="130.5" y1="647.7" x2="176.5" y2="647.7"/><line class="cls-2" x1="108.8" y1="11.2" x2="154.8" y2="11.2"/><line class="cls-3" x1="108.8" y1="25.8" x2="154.8" y2="25.8"/><line class="cls-4" x1="108.8" y1="40.4" x2="154.8" y2="40.4"/><line class="cls-5" x1="108.8" y1="55.1" x2="154.8" y2="55.1"/><line class="cls-6" x1="108.8" y1="69.7" x2="154.8" y2="69.7"/><line class="cls-7" x1="108.8" y1="84.3" x2="154.8" y2="84.3"/><line class="cls-8" x1="108.8" y1="99" x2="154.8" y2="99"/><line class="cls-9" x1="108.8" y1="113.6" x2="154.8" y2="113.6"/><line class="cls-10" x1="108.8" y1="128.2" x2="154.8" y2="128.2"/><line class="cls-11" x1="108.8" y1="142.9" x2="154.8" y2="142.9"/><line class="cls-12" x1="108.8" y1="157.5" x2="154.8" y2="157.5"/><line class="cls-13" x1="108.8" y1="172.1" x2="154.8" y2="172.1"/><line class="cls-14" x1="108.8" y1="186.8" x2="154.8" y2="186.8"/><line class="cls-15" x1="108.8" y1="201.4" x2="154.8" y2="201.4"/><line class="cls-16" x1="108.8" y1="216" x2="154.8" y2="216"/><line class="cls-17" x1="108.8" y1="230.7" x2="154.8" y2="230.7"/><line class="cls-18" x1="108.8" y1="245.3" x2="154.8" y2="245.3"/><line class="cls-19" x1="108.8" y1="259.9" x2="154.8" y2="259.9"/><line class="cls-20" x1="108.8" y1="274.6" x2="154.8" y2="274.6"/><line class="cls-21" x1="108.8" y1="289.2" x2="154.8" y2="289.2"/><line class="cls-22" x1="108.8" y1="303.8" x2="154.8" y2="303.8"/><line class="cls-23" x1="108.8" y1="318.5" x2="154.8" y2="318.5"/><line class="cls-24" x1="108.8" y1="333.1" x2="154.8" y2="333.1"/><line class="cls-25" x1="108.8" y1="347.7" x2="154.8" y2="347.7"/><line class="cls-26" x1="108.8" y1="362.3" x2="154.8" y2="362.3"/><line class="cls-27" x1="108.8" y1="377" x2="154.8" y2="377"/><line class="cls-28" x1="108.8" y1="391.6" x2="154.8" y2="391.6"/><line class="cls-29" x1="108.8" y1="406.2" x2="154.8" y2="406.2"/><line class="cls-30" x1="108.8" y1="420.9" x2="154.8" y2="420.9"/><line class="cls-31" x1="108.8" y1="435.5" x2="154.8" y2="435.5"/><line class="cls-32" x1="108.8" y1="450.1" x2="154.8" y2="450.1"/><line class="cls-33" x1="108.8" y1="464.8" x2="154.8" y2="464.8"/><line class="cls-34" x1="108.8" y1="479.4" x2="154.8" y2="479.4"/><line class="cls-35" x1="108.8" y1="494" x2="154.8" y2="494"/><line class="cls-36" x1="108.8" y1="508.7" x2="154.8" y2="508.7"/><line class="cls-37" x1="108.8" y1="523.3" x2="154.8" y2="523.3"/><line class="cls-38" x1="108.8" y1="537.9" x2="154.8" y2="537.9"/><line class="cls-39" x1="108.8" y1="552.6" x2="154.8" y2="552.6"/><line class="cls-40" x1="108.8" y1="567.2" x2="154.8" y2="567.2"/><line class="cls-41" x1="108.8" y1="581.8" x2="154.8" y2="581.8"/><line class="cls-42" x1="108.8" y1="596.5" x2="154.8" y2="596.5"/><line class="cls-43" x1="108.8" y1="611.1" x2="154.8" y2="611.1"/><line class="cls-44" x1="108.8" y1="625.7" x2="154.8" y2="625.7"/><line class="cls-45" x1="108.8" y1="640.4" x2="154.8" y2="640.4"/><line class="cls-46" x1="101.5" y1="3.9" x2="147.5" y2="3.9"/><line class="cls-47" x1="101.5" y1="18.5" x2="147.5" y2="18.5"/><line class="cls-48" x1="101.5" y1="33.1" x2="147.5" y2="33.1"/><line class="cls-49" x1="101.5" y1="47.8" x2="147.5" y2="47.8"/><line class="cls-50" x1="101.5" y1="62.4" x2="147.5" y2="62.4"/><line class="cls-51" x1="101.5" y1="77" x2="147.5" y2="77"/><line class="cls-52" x1="101.5" y1="91.7" x2="147.5" y2="91.7"/><line class="cls-53" x1="101.5" y1="106.3" x2="147.5" y2="106.3"/><line class="cls-54" x1="101.5" y1="120.9" x2="147.5" y2="120.9"/><line class="cls-55" x1="101.5" y1="135.6" x2="147.5" y2="135.6"/><line class="cls-56" x1="101.5" y1="150.2" x2="147.5" y2="150.2"/><line class="cls-57" x1="101.5" y1="164.8" x2="147.5" y2="164.8"/><line class="cls-58" x1="101.5" y1="179.5" x2="147.5" y2="179.5"/><line class="cls-59" x1="101.5" y1="194.1" x2="147.5" y2="194.1"/><line class="cls-60" x1="101.5" y1="208.7" x2="147.5" y2="208.7"/><line class="cls-61" x1="101.5" y1="223.3" x2="147.5" y2="223.3"/><line class="cls-62" x1="101.5" y1="238" x2="147.5" y2="238"/><line class="cls-63" x1="101.5" y1="252.6" x2="147.5" y2="252.6"/><line class="cls-64" x1="101.5" y1="267.2" x2="147.5" y2="267.2"/><line class="cls-65" x1="101.5" y1="281.9" x2="147.5" y2="281.9"/><line class="cls-66" x1="101.5" y1="296.5" x2="147.5" y2="296.5"/><line class="cls-67" x1="101.5" y1="311.1" x2="147.5" y2="311.1"/><line class="cls-68" x1="101.5" y1="325.8" x2="147.5" y2="325.8"/><line class="cls-69" x1="101.5" y1="340.4" x2="147.5" y2="340.4"/><line class="cls-70" x1="101.5" y1="355" x2="147.5" y2="355"/><line class="cls-71" x1="101.5" y1="369.7" x2="147.5" y2="369.7"/><line class="cls-72" x1="101.5" y1="384.3" x2="147.5" y2="384.3"/><line class="cls-73" x1="101.5" y1="398.9" x2="147.5" y2="398.9"/><line class="cls-74" x1="101.5" y1="413.6" x2="147.5" y2="413.6"/><line class="cls-75" x1="101.5" y1="428.2" x2="147.5" y2="428.2"/><line class="cls-76" x1="101.5" y1="442.8" x2="147.5" y2="442.8"/><line class="cls-77" x1="101.5" y1="457.5" x2="147.5" y2="457.5"/><line class="cls-78" x1="101.5" y1="472.1" x2="147.5" y2="472.1"/><line class="cls-79" x1="101.5" y1="486.7" x2="147.5" y2="486.7"/><line class="cls-80" x1="101.5" y1="501.4" x2="147.5" y2="501.4"/><line class="cls-81" x1="101.5" y1="516" x2="147.5" y2="516"/><line class="cls-82" x1="101.5" y1="530.6" x2="147.5" y2="530.6"/><line class="cls-83" x1="101.5" y1="545.2" x2="147.5" y2="545.2"/><line class="cls-84" x1="101.5" y1="559.9" x2="147.5" y2="559.9"/><line class="cls-85" x1="101.5" y1="574.5" x2="147.5" y2="574.5"/><line class="cls-86" x1="101.5" y1="589.1" x2="147.5" y2="589.1"/><line class="cls-87" x1="101.5" y1="603.8" x2="147.5" y2="603.8"/><line class="cls-88" x1="101.5" y1="618.4" x2="147.5" y2="618.4"/><line class="cls-89" x1="101.5" y1="633" x2="147.5" y2="633"/><line class="cls-90" x1="101.5" y1="647.7" x2="147.5" y2="647.7"/><line class="cls-2" x1="79.8" y1="11.2" x2="125.8" y2="11.2"/><line class="cls-3" x1="79.8" y1="25.8" x2="125.8" y2="25.8"/><line class="cls-4" x1="79.8" y1="40.4" x2="125.8" y2="40.4"/><line class="cls-5" x1="79.8" y1="55.1" x2="125.8" y2="55.1"/><line class="cls-6" x1="79.8" y1="69.7" x2="125.8" y2="69.7"/><line class="cls-7" x1="79.8" y1="84.3" x2="125.8" y2="84.3"/><line class="cls-8" x1="79.8" y1="99" x2="125.8" y2="99"/><line class="cls-9" x1="79.8" y1="113.6" x2="125.8" y2="113.6"/><line class="cls-10" x1="79.8" y1="128.2" x2="125.8" y2="128.2"/><line class="cls-11" x1="79.8" y1="142.9" x2="125.8" y2="142.9"/><line class="cls-12" x1="79.8" y1="157.5" x2="125.8" y2="157.5"/><line class="cls-13" x1="79.8" y1="172.1" x2="125.8" y2="172.1"/><line class="cls-14" x1="79.8" y1="186.8" x2="125.8" y2="186.8"/><line class="cls-15" x1="79.8" y1="201.4" x2="125.8" y2="201.4"/><line class="cls-16" x1="79.8" y1="216" x2="125.8" y2="216"/><line class="cls-17" x1="79.8" y1="230.7" x2="125.8" y2="230.7"/><line class="cls-18" x1="79.8" y1="245.3" x2="125.8" y2="245.3"/><line class="cls-19" x1="79.8" y1="259.9" x2="125.8" y2="259.9"/><line class="cls-20" x1="79.8" y1="274.6" x2="125.8" y2="274.6"/><line class="cls-21" x1="79.8" y1="289.2" x2="125.8" y2="289.2"/><line class="cls-22" x1="79.8" y1="303.8" x2="125.8" y2="303.8"/><line class="cls-23" x1="79.8" y1="318.5" x2="125.8" y2="318.5"/><line class="cls-24" x1="79.8" y1="333.1" x2="125.8" y2="333.1"/><line class="cls-25" x1="79.8" y1="347.7" x2="125.8" y2="347.7"/><line class="cls-26" x1="79.8" y1="362.3" x2="125.8" y2="362.3"/><line class="cls-27" x1="79.8" y1="377" x2="125.8" y2="377"/><line class="cls-28" x1="79.8" y1="391.6" x2="125.8" y2="391.6"/><line class="cls-29" x1="79.8" y1="406.2" x2="125.8" y2="406.2"/><line class="cls-30" x1="79.8" y1="420.9" x2="125.8" y2="420.9"/><line class="cls-31" x1="79.8" y1="435.5" x2="125.8" y2="435.5"/><line class="cls-32" x1="79.8" y1="450.1" x2="125.8" y2="450.1"/><line class="cls-33" x1="79.8" y1="464.8" x2="125.8" y2="464.8"/><line class="cls-34" x1="79.8" y1="479.4" x2="125.8" y2="479.4"/><line class="cls-35" x1="79.8" y1="494" x2="125.8" y2="494"/><line class="cls-36" x1="79.8" y1="508.7" x2="125.8" y2="508.7"/><line class="cls-37" x1="79.8" y1="523.3" x2="125.8" y2="523.3"/><line class="cls-38" x1="79.8" y1="537.9" x2="125.8" y2="537.9"/><line class="cls-39" x1="79.8" y1="552.6" x2="125.8" y2="552.6"/><line class="cls-40" x1="79.8" y1="567.2" x2="125.8" y2="567.2"/><line class="cls-41" x1="79.8" y1="581.8" x2="125.8" y2="581.8"/><line class="cls-42" x1="79.8" y1="596.5" x2="125.8" y2="596.5"/><line class="cls-43" x1="79.8" y1="611.1" x2="125.8" y2="611.1"/><line class="cls-44" x1="79.8" y1="625.7" x2="125.8" y2="625.7"/><line class="cls-45" x1="79.8" y1="640.4" x2="125.8" y2="640.4"/><line class="cls-46" x1="72.5" y1="3.9" x2="118.5" y2="3.9"/><line class="cls-47" x1="72.5" y1="18.5" x2="118.5" y2="18.5"/><line class="cls-48" x1="72.5" y1="33.1" x2="118.5" y2="33.1"/><line class="cls-49" x1="72.5" y1="47.8" x2="118.5" y2="47.8"/><line class="cls-50" x1="72.5" y1="62.4" x2="118.5" y2="62.4"/><line class="cls-51" x1="72.5" y1="77" x2="118.5" y2="77"/><line class="cls-52" x1="72.5" y1="91.7" x2="118.5" y2="91.7"/><line class="cls-53" x1="72.5" y1="106.3" x2="118.5" y2="106.3"/><line class="cls-54" x1="72.5" y1="120.9" x2="118.5" y2="120.9"/><line class="cls-55" x1="72.5" y1="135.6" x2="118.5" y2="135.6"/><line class="cls-56" x1="72.5" y1="150.2" x2="118.5" y2="150.2"/><line class="cls-57" x1="72.5" y1="164.8" x2="118.5" y2="164.8"/><line class="cls-58" x1="72.5" y1="179.5" x2="118.5" y2="179.5"/><line class="cls-59" x1="72.5" y1="194.1" x2="118.5" y2="194.1"/><line class="cls-60" x1="72.5" y1="208.7" x2="118.5" y2="208.7"/><line class="cls-61" x1="72.5" y1="223.3" x2="118.5" y2="223.3"/><line class="cls-62" x1="72.5" y1="238" x2="118.5" y2="238"/><line class="cls-63" x1="72.5" y1="252.6" x2="118.5" y2="252.6"/><line class="cls-64" x1="72.5" y1="267.2" x2="118.5" y2="267.2"/><line class="cls-65" x1="72.5" y1="281.9" x2="118.5" y2="281.9"/><line class="cls-66" x1="72.5" y1="296.5" x2="118.5" y2="296.5"/><line class="cls-67" x1="72.5" y1="311.1" x2="118.5" y2="311.1"/><line class="cls-68" x1="72.5" y1="325.8" x2="118.5" y2="325.8"/><line class="cls-69" x1="72.5" y1="340.4" x2="118.5" y2="340.4"/><line class="cls-70" x1="72.5" y1="355" x2="118.5" y2="355"/><line class="cls-71" x1="72.5" y1="369.7" x2="118.5" y2="369.7"/><line class="cls-72" x1="72.5" y1="384.3" x2="118.5" y2="384.3"/><line class="cls-73" x1="72.5" y1="398.9" x2="118.5" y2="398.9"/><line class="cls-74" x1="72.5" y1="413.6" x2="118.5" y2="413.6"/><line class="cls-75" x1="72.5" y1="428.2" x2="118.5" y2="428.2"/><line class="cls-76" x1="72.5" y1="442.8" x2="118.5" y2="442.8"/><line class="cls-77" x1="72.5" y1="457.5" x2="118.5" y2="457.5"/><line class="cls-78" x1="72.5" y1="472.1" x2="118.5" y2="472.1"/><line class="cls-79" x1="72.5" y1="486.7" x2="118.5" y2="486.7"/><line class="cls-80" x1="72.5" y1="501.4" x2="118.5" y2="501.4"/><line class="cls-81" x1="72.5" y1="516" x2="118.5" y2="516"/><line class="cls-82" x1="72.5" y1="530.6" x2="118.5" y2="530.6"/><line class="cls-83" x1="72.5" y1="545.2" x2="118.5" y2="545.2"/><line class="cls-84" x1="72.5" y1="559.9" x2="118.5" y2="559.9"/><line class="cls-85" x1="72.5" y1="574.5" x2="118.5" y2="574.5"/><line class="cls-86" x1="72.5" y1="589.1" x2="118.5" y2="589.1"/><line class="cls-87" x1="72.5" y1="603.8" x2="118.5" y2="603.8"/><line class="cls-88" x1="72.5" y1="618.4" x2="118.5" y2="618.4"/><line class="cls-89" x1="72.5" y1="633" x2="118.5" y2="633"/><line class="cls-90" x1="72.5" y1="647.7" x2="118.5" y2="647.7"/><line class="cls-2" x1="50.8" y1="11.2" x2="96.8" y2="11.2"/><line class="cls-3" x1="50.8" y1="25.8" x2="96.8" y2="25.8"/><line class="cls-4" x1="50.8" y1="40.4" x2="96.8" y2="40.4"/><line class="cls-5" x1="50.8" y1="55.1" x2="96.8" y2="55.1"/><line class="cls-6" x1="50.8" y1="69.7" x2="96.8" y2="69.7"/><line class="cls-7" x1="50.8" y1="84.3" x2="96.8" y2="84.3"/><line class="cls-8" x1="50.8" y1="99" x2="96.8" y2="99"/><line class="cls-9" x1="50.8" y1="113.6" x2="96.8" y2="113.6"/><line class="cls-10" x1="50.8" y1="128.2" x2="96.8" y2="128.2"/><line class="cls-11" x1="50.8" y1="142.9" x2="96.8" y2="142.9"/><line class="cls-12" x1="50.8" y1="157.5" x2="96.8" y2="157.5"/><line class="cls-13" x1="50.8" y1="172.1" x2="96.8" y2="172.1"/><line class="cls-14" x1="50.8" y1="186.8" x2="96.8" y2="186.8"/><line class="cls-15" x1="50.8" y1="201.4" x2="96.8" y2="201.4"/><line class="cls-16" x1="50.8" y1="216" x2="96.8" y2="216"/><line class="cls-17" x1="50.8" y1="230.7" x2="96.8" y2="230.7"/><line class="cls-18" x1="50.8" y1="245.3" x2="96.8" y2="245.3"/><line class="cls-19" x1="50.8" y1="259.9" x2="96.8" y2="259.9"/><line class="cls-20" x1="50.8" y1="274.6" x2="96.8" y2="274.6"/><line class="cls-21" x1="50.8" y1="289.2" x2="96.8" y2="289.2"/><line class="cls-22" x1="50.8" y1="303.8" x2="96.8" y2="303.8"/><line class="cls-23" x1="50.8" y1="318.5" x2="96.8" y2="318.5"/><line class="cls-24" x1="50.8" y1="333.1" x2="96.8" y2="333.1"/><line class="cls-25" x1="50.8" y1="347.7" x2="96.8" y2="347.7"/><line class="cls-26" x1="50.8" y1="362.3" x2="96.8" y2="362.3"/><line class="cls-27" x1="50.8" y1="377" x2="96.8" y2="377"/><line class="cls-28" x1="50.8" y1="391.6" x2="96.8" y2="391.6"/><line class="cls-29" x1="50.8" y1="406.2" x2="96.8" y2="406.2"/><line class="cls-30" x1="50.8" y1="420.9" x2="96.8" y2="420.9"/><line class="cls-31" x1="50.8" y1="435.5" x2="96.8" y2="435.5"/><line class="cls-32" x1="50.8" y1="450.1" x2="96.8" y2="450.1"/><line class="cls-33" x1="50.8" y1="464.8" x2="96.8" y2="464.8"/><line class="cls-34" x1="50.8" y1="479.4" x2="96.8" y2="479.4"/><line class="cls-35" x1="50.8" y1="494" x2="96.8" y2="494"/><line class="cls-36" x1="50.8" y1="508.7" x2="96.8" y2="508.7"/><line class="cls-37" x1="50.8" y1="523.3" x2="96.8" y2="523.3"/><line class="cls-38" x1="50.8" y1="537.9" x2="96.8" y2="537.9"/><line class="cls-39" x1="50.8" y1="552.6" x2="96.8" y2="552.6"/><line class="cls-40" x1="50.8" y1="567.2" x2="96.8" y2="567.2"/><line class="cls-41" x1="50.8" y1="581.8" x2="96.8" y2="581.8"/><line class="cls-42" x1="50.8" y1="596.5" x2="96.8" y2="596.5"/><line class="cls-43" x1="50.8" y1="611.1" x2="96.8" y2="611.1"/><line class="cls-44" x1="50.8" y1="625.7" x2="96.8" y2="625.7"/><line class="cls-45" x1="50.8" y1="640.4" x2="96.8" y2="640.4"/><line class="cls-46" x1="43.5" y1="3.9" x2="89.5" y2="3.9"/><line class="cls-47" x1="43.5" y1="18.5" x2="89.5" y2="18.5"/><line class="cls-48" x1="43.5" y1="33.1" x2="89.5" y2="33.1"/><line class="cls-49" x1="43.5" y1="47.8" x2="89.5" y2="47.8"/><line class="cls-50" x1="43.5" y1="62.4" x2="89.5" y2="62.4"/><line class="cls-51" x1="43.5" y1="77" x2="89.5" y2="77"/><line class="cls-52" x1="43.5" y1="91.7" x2="89.5" y2="91.7"/><line class="cls-53" x1="43.5" y1="106.3" x2="89.5" y2="106.3"/><line class="cls-54" x1="43.5" y1="120.9" x2="89.5" y2="120.9"/><line class="cls-55" x1="43.5" y1="135.6" x2="89.5" y2="135.6"/><line class="cls-56" x1="43.5" y1="150.2" x2="89.5" y2="150.2"/><line class="cls-57" x1="43.5" y1="164.8" x2="89.5" y2="164.8"/><line class="cls-58" x1="43.5" y1="179.5" x2="89.5" y2="179.5"/><line class="cls-59" x1="43.5" y1="194.1" x2="89.5" y2="194.1"/><line class="cls-60" x1="43.5" y1="208.7" x2="89.5" y2="208.7"/><line class="cls-61" x1="43.5" y1="223.3" x2="89.5" y2="223.3"/><line class="cls-62" x1="43.5" y1="238" x2="89.5" y2="238"/><line class="cls-63" x1="43.5" y1="252.6" x2="89.5" y2="252.6"/><line class="cls-64" x1="43.5" y1="267.2" x2="89.5" y2="267.2"/><line class="cls-65" x1="43.5" y1="281.9" x2="89.5" y2="281.9"/><line class="cls-66" x1="43.5" y1="296.5" x2="89.5" y2="296.5"/><line class="cls-67" x1="43.5" y1="311.1" x2="89.5" y2="311.1"/><line class="cls-68" x1="43.5" y1="325.8" x2="89.5" y2="325.8"/><line class="cls-69" x1="43.5" y1="340.4" x2="89.5" y2="340.4"/><line class="cls-70" x1="43.5" y1="355" x2="89.5" y2="355"/><line class="cls-71" x1="43.5" y1="369.7" x2="89.5" y2="369.7"/><line class="cls-72" x1="43.5" y1="384.3" x2="89.5" y2="384.3"/><line class="cls-73" x1="43.5" y1="398.9" x2="89.5" y2="398.9"/><line class="cls-74" x1="43.5" y1="413.6" x2="89.5" y2="413.6"/><line class="cls-75" x1="43.5" y1="428.2" x2="89.5" y2="428.2"/><line class="cls-76" x1="43.5" y1="442.8" x2="89.5" y2="442.8"/><line class="cls-77" x1="43.5" y1="457.5" x2="89.5" y2="457.5"/><line class="cls-78" x1="43.5" y1="472.1" x2="89.5" y2="472.1"/><line class="cls-79" x1="43.5" y1="486.7" x2="89.5" y2="486.7"/><line class="cls-80" x1="43.5" y1="501.4" x2="89.5" y2="501.4"/><line class="cls-81" x1="43.5" y1="516" x2="89.5" y2="516"/><line class="cls-82" x1="43.5" y1="530.6" x2="89.5" y2="530.6"/><line class="cls-83" x1="43.5" y1="545.2" x2="89.5" y2="545.2"/><line class="cls-84" x1="43.5" y1="559.9" x2="89.5" y2="559.9"/><line class="cls-85" x1="43.5" y1="574.5" x2="89.5" y2="574.5"/><line class="cls-86" x1="43.5" y1="589.1" x2="89.5" y2="589.1"/><line class="cls-87" x1="43.5" y1="603.8" x2="89.5" y2="603.8"/><line class="cls-88" x1="43.5" y1="618.4" x2="89.5" y2="618.4"/><line class="cls-89" x1="43.5" y1="633" x2="89.5" y2="633"/><line class="cls-90" x1="43.5" y1="647.7" x2="89.5" y2="647.7"/><line class="cls-2" x1="21.8" y1="11.2" x2="67.8" y2="11.2"/><line class="cls-3" x1="21.8" y1="25.8" x2="67.8" y2="25.8"/><line class="cls-4" x1="21.8" y1="40.4" x2="67.8" y2="40.4"/><line class="cls-5" x1="21.8" y1="55.1" x2="67.8" y2="55.1"/><line class="cls-6" x1="21.8" y1="69.7" x2="67.8" y2="69.7"/><line class="cls-7" x1="21.8" y1="84.3" x2="67.8" y2="84.3"/><line class="cls-8" x1="21.8" y1="99" x2="67.8" y2="99"/><line class="cls-9" x1="21.8" y1="113.6" x2="67.8" y2="113.6"/><line class="cls-10" x1="21.8" y1="128.2" x2="67.8" y2="128.2"/><line class="cls-11" x1="21.8" y1="142.9" x2="67.8" y2="142.9"/><line class="cls-12" x1="21.8" y1="157.5" x2="67.8" y2="157.5"/><line class="cls-13" x1="21.8" y1="172.1" x2="67.8" y2="172.1"/><line class="cls-14" x1="21.8" y1="186.8" x2="67.8" y2="186.8"/><line class="cls-15" x1="21.8" y1="201.4" x2="67.8" y2="201.4"/><line class="cls-16" x1="21.8" y1="216" x2="67.8" y2="216"/><line class="cls-17" x1="21.8" y1="230.7" x2="67.8" y2="230.7"/><line class="cls-18" x1="21.8" y1="245.3" x2="67.8" y2="245.3"/><line class="cls-19" x1="21.8" y1="259.9" x2="67.8" y2="259.9"/><line class="cls-20" x1="21.8" y1="274.6" x2="67.8" y2="274.6"/><line class="cls-21" x1="21.8" y1="289.2" x2="67.8" y2="289.2"/><line class="cls-22" x1="21.8" y1="303.8" x2="67.8" y2="303.8"/><line class="cls-23" x1="21.8" y1="318.5" x2="67.8" y2="318.5"/><line class="cls-24" x1="21.8" y1="333.1" x2="67.8" y2="333.1"/><line class="cls-25" x1="21.8" y1="347.7" x2="67.8" y2="347.7"/><line class="cls-26" x1="21.8" y1="362.3" x2="67.8" y2="362.3"/><line class="cls-27" x1="21.8" y1="377" x2="67.8" y2="377"/><line class="cls-28" x1="21.8" y1="391.6" x2="67.8" y2="391.6"/><line class="cls-29" x1="21.8" y1="406.2" x2="67.8" y2="406.2"/><line class="cls-30" x1="21.8" y1="420.9" x2="67.8" y2="420.9"/><line class="cls-31" x1="21.8" y1="435.5" x2="67.8" y2="435.5"/><line class="cls-32" x1="21.8" y1="450.1" x2="67.8" y2="450.1"/><line class="cls-33" x1="21.8" y1="464.8" x2="67.8" y2="464.8"/><line class="cls-34" x1="21.8" y1="479.4" x2="67.8" y2="479.4"/><line class="cls-35" x1="21.8" y1="494" x2="67.8" y2="494"/><line class="cls-36" x1="21.8" y1="508.7" x2="67.8" y2="508.7"/><line class="cls-37" x1="21.8" y1="523.3" x2="67.8" y2="523.3"/><line class="cls-38" x1="21.8" y1="537.9" x2="67.8" y2="537.9"/><line class="cls-39" x1="21.8" y1="552.6" x2="67.8" y2="552.6"/><line class="cls-40" x1="21.8" y1="567.2" x2="67.8" y2="567.2"/><line class="cls-41" x1="21.8" y1="581.8" x2="67.8" y2="581.8"/><line class="cls-42" x1="21.8" y1="596.5" x2="67.8" y2="596.5"/><line class="cls-43" x1="21.8" y1="611.1" x2="67.8" y2="611.1"/><line class="cls-44" x1="21.8" y1="625.7" x2="67.8" y2="625.7"/><line class="cls-45" x1="21.8" y1="640.4" x2="67.8" y2="640.4"/><line class="cls-46" x1="14.5" y1="3.9" x2="60.5" y2="3.9"/><line class="cls-47" x1="14.5" y1="18.5" x2="60.5" y2="18.5"/><line class="cls-48" x1="14.5" y1="33.1" x2="60.5" y2="33.1"/><line class="cls-49" x1="14.5" y1="47.8" x2="60.5" y2="47.8"/><line class="cls-50" x1="14.5" y1="62.4" x2="60.5" y2="62.4"/><line class="cls-51" x1="14.5" y1="77" x2="60.5" y2="77"/><line class="cls-52" x1="14.5" y1="91.7" x2="60.5" y2="91.7"/><line class="cls-53" x1="14.5" y1="106.3" x2="60.5" y2="106.3"/><line class="cls-54" x1="14.5" y1="120.9" x2="60.5" y2="120.9"/><line class="cls-55" x1="14.5" y1="135.6" x2="60.5" y2="135.6"/><line class="cls-56" x1="14.5" y1="150.2" x2="60.5" y2="150.2"/><line class="cls-57" x1="14.5" y1="164.8" x2="60.5" y2="164.8"/><line class="cls-58" x1="14.5" y1="179.5" x2="60.5" y2="179.5"/><line class="cls-59" x1="14.5" y1="194.1" x2="60.5" y2="194.1"/><line class="cls-60" x1="14.5" y1="208.7" x2="60.5" y2="208.7"/><line class="cls-61" x1="14.5" y1="223.3" x2="60.5" y2="223.3"/><line class="cls-62" x1="14.5" y1="238" x2="60.5" y2="238"/><line class="cls-63" x1="14.5" y1="252.6" x2="60.5" y2="252.6"/><line class="cls-64" x1="14.5" y1="267.2" x2="60.5" y2="267.2"/><line class="cls-65" x1="14.5" y1="281.9" x2="60.5" y2="281.9"/><line class="cls-66" x1="14.5" y1="296.5" x2="60.5" y2="296.5"/><line class="cls-67" x1="14.5" y1="311.1" x2="60.5" y2="311.1"/><line class="cls-68" x1="14.5" y1="325.8" x2="60.5" y2="325.8"/><line class="cls-69" x1="14.5" y1="340.4" x2="60.5" y2="340.4"/><line class="cls-70" x1="14.5" y1="355" x2="60.5" y2="355"/><line class="cls-71" x1="14.5" y1="369.7" x2="60.5" y2="369.7"/><line class="cls-72" x1="14.5" y1="384.3" x2="60.5" y2="384.3"/><line class="cls-73" x1="14.5" y1="398.9" x2="60.5" y2="398.9"/><line class="cls-74" x1="14.5" y1="413.6" x2="60.5" y2="413.6"/><line class="cls-75" x1="14.5" y1="428.2" x2="60.5" y2="428.2"/><line class="cls-76" x1="14.5" y1="442.8" x2="60.5" y2="442.8"/><line class="cls-77" x1="14.5" y1="457.5" x2="60.5" y2="457.5"/><line class="cls-78" x1="14.5" y1="472.1" x2="60.5" y2="472.1"/><line class="cls-79" x1="14.5" y1="486.7" x2="60.5" y2="486.7"/><line class="cls-80" x1="14.5" y1="501.4" x2="60.5" y2="501.4"/><line class="cls-81" x1="14.5" y1="516" x2="60.5" y2="516"/><line class="cls-82" x1="14.5" y1="530.6" x2="60.5" y2="530.6"/><line class="cls-83" x1="14.5" y1="545.2" x2="60.5" y2="545.2"/><line class="cls-84" x1="14.5" y1="559.9" x2="60.5" y2="559.9"/><line class="cls-85" x1="14.5" y1="574.5" x2="60.5" y2="574.5"/><line class="cls-86" x1="14.5" y1="589.1" x2="60.5" y2="589.1"/><line class="cls-87" x1="14.5" y1="603.8" x2="60.5" y2="603.8"/><line class="cls-88" x1="14.5" y1="618.4" x2="60.5" y2="618.4"/><line class="cls-89" x1="14.5" y1="633" x2="60.5" y2="633"/><line class="cls-90" x1="14.5" y1="647.7" x2="60.5" y2="647.7"/><line class="cls-2" x1="-7.2" y1="11.2" x2="38.8" y2="11.2"/><line class="cls-3" x1="-7.2" y1="25.8" x2="38.8" y2="25.8"/><line class="cls-4" x1="-7.2" y1="40.4" x2="38.8" y2="40.4"/><line class="cls-5" x1="-7.2" y1="55.1" x2="38.8" y2="55.1"/><line class="cls-6" x1="-7.2" y1="69.7" x2="38.8" y2="69.7"/><line class="cls-7" x1="-7.2" y1="84.3" x2="38.8" y2="84.3"/><line class="cls-8" x1="-7.2" y1="99" x2="38.8" y2="99"/><line class="cls-9" x1="-7.2" y1="113.6" x2="38.8" y2="113.6"/><line class="cls-10" x1="-7.2" y1="128.2" x2="38.8" y2="128.2"/><line class="cls-11" x1="-7.2" y1="142.9" x2="38.8" y2="142.9"/><line class="cls-12" x1="-7.2" y1="157.5" x2="38.8" y2="157.5"/><line class="cls-13" x1="-7.2" y1="172.1" x2="38.8" y2="172.1"/><line class="cls-14" x1="-7.2" y1="186.8" x2="38.8" y2="186.8"/><line class="cls-15" x1="-7.2" y1="201.4" x2="38.8" y2="201.4"/><line class="cls-16" x1="-7.2" y1="216" x2="38.8" y2="216"/><line class="cls-17" x1="-7.2" y1="230.7" x2="38.8" y2="230.7"/><line class="cls-18" x1="-7.2" y1="245.3" x2="38.8" y2="245.3"/><line class="cls-19" x1="-7.2" y1="259.9" x2="38.8" y2="259.9"/><line class="cls-20" x1="-7.2" y1="274.6" x2="38.8" y2="274.6"/><line class="cls-21" x1="-7.2" y1="289.2" x2="38.8" y2="289.2"/><line class="cls-22" x1="-7.2" y1="303.8" x2="38.8" y2="303.8"/><line class="cls-23" x1="-7.2" y1="318.5" x2="38.8" y2="318.5"/><line class="cls-24" x1="-7.2" y1="333.1" x2="38.8" y2="333.1"/><line class="cls-25" x1="-7.2" y1="347.7" x2="38.8" y2="347.7"/><line class="cls-26" x1="-7.2" y1="362.3" x2="38.8" y2="362.3"/><line class="cls-27" x1="-7.2" y1="377" x2="38.8" y2="377"/><line class="cls-28" x1="-7.2" y1="391.6" x2="38.8" y2="391.6"/><line class="cls-29" x1="-7.2" y1="406.2" x2="38.8" y2="406.2"/><line class="cls-30" x1="-7.2" y1="420.9" x2="38.8" y2="420.9"/><line class="cls-31" x1="-7.2" y1="435.5" x2="38.8" y2="435.5"/><line class="cls-32" x1="-7.2" y1="450.1" x2="38.8" y2="450.1"/><line class="cls-33" x1="-7.2" y1="464.8" x2="38.8" y2="464.8"/><line class="cls-34" x1="-7.2" y1="479.4" x2="38.8" y2="479.4"/><line class="cls-35" x1="-7.2" y1="494" x2="38.8" y2="494"/><line class="cls-36" x1="-7.2" y1="508.7" x2="38.8" y2="508.7"/><line class="cls-37" x1="-7.2" y1="523.3" x2="38.8" y2="523.3"/><line class="cls-38" x1="-7.2" y1="537.9" x2="38.8" y2="537.9"/><line class="cls-39" x1="-7.2" y1="552.6" x2="38.8" y2="552.6"/><line class="cls-40" x1="-7.2" y1="567.2" x2="38.8" y2="567.2"/><line class="cls-41" x1="-7.2" y1="581.8" x2="38.8" y2="581.8"/><line class="cls-42" x1="-7.2" y1="596.5" x2="38.8" y2="596.5"/><line class="cls-43" x1="-7.2" y1="611.1" x2="38.8" y2="611.1"/><line class="cls-44" x1="-7.2" y1="625.7" x2="38.8" y2="625.7"/><line class="cls-45" x1="-7.2" y1="640.4" x2="38.8" y2="640.4"/><line class="cls-46" x1="-14.5" y1="3.9" x2="31.5" y2="3.9"/><line class="cls-47" x1="-14.5" y1="18.5" x2="31.5" y2="18.5"/><line class="cls-48" x1="-14.5" y1="33.1" x2="31.5" y2="33.1"/><line class="cls-49" x1="-14.5" y1="47.8" x2="31.5" y2="47.8"/><line class="cls-50" x1="-14.5" y1="62.4" x2="31.5" y2="62.4"/><line class="cls-51" x1="-14.5" y1="77" x2="31.5" y2="77"/><line class="cls-52" x1="-14.5" y1="91.7" x2="31.5" y2="91.7"/><line class="cls-53" x1="-14.5" y1="106.3" x2="31.5" y2="106.3"/><line class="cls-54" x1="-14.5" y1="120.9" x2="31.5" y2="120.9"/><line class="cls-55" x1="-14.5" y1="135.6" x2="31.5" y2="135.6"/><line class="cls-56" x1="-14.5" y1="150.2" x2="31.5" y2="150.2"/><line class="cls-57" x1="-14.5" y1="164.8" x2="31.5" y2="164.8"/><line class="cls-58" x1="-14.5" y1="179.5" x2="31.5" y2="179.5"/><line class="cls-59" x1="-14.5" y1="194.1" x2="31.5" y2="194.1"/><line class="cls-60" x1="-14.5" y1="208.7" x2="31.5" y2="208.7"/><line class="cls-61" x1="-14.5" y1="223.3" x2="31.5" y2="223.3"/><line class="cls-62" x1="-14.5" y1="238" x2="31.5" y2="238"/><line class="cls-63" x1="-14.5" y1="252.6" x2="31.5" y2="252.6"/><line class="cls-64" x1="-14.5" y1="267.2" x2="31.5" y2="267.2"/><line class="cls-65" x1="-14.5" y1="281.9" x2="31.5" y2="281.9"/><line class="cls-66" x1="-14.5" y1="296.5" x2="31.5" y2="296.5"/><line class="cls-67" x1="-14.5" y1="311.1" x2="31.5" y2="311.1"/><line class="cls-68" x1="-14.5" y1="325.8" x2="31.5" y2="325.8"/><line class="cls-69" x1="-14.5" y1="340.4" x2="31.5" y2="340.4"/><line class="cls-70" x1="-14.5" y1="355" x2="31.5" y2="355"/><line class="cls-71" x1="-14.5" y1="369.7" x2="31.5" y2="369.7"/><line class="cls-72" x1="-14.5" y1="384.3" x2="31.5" y2="384.3"/><line class="cls-73" x1="-14.5" y1="398.9" x2="31.5" y2="398.9"/><line class="cls-74" x1="-14.5" y1="413.6" x2="31.5" y2="413.6"/><line class="cls-75" x1="-14.5" y1="428.2" x2="31.5" y2="428.2"/><line class="cls-76" x1="-14.5" y1="442.8" x2="31.5" y2="442.8"/><line class="cls-77" x1="-14.5" y1="457.5" x2="31.5" y2="457.5"/><line class="cls-78" x1="-14.5" y1="472.1" x2="31.5" y2="472.1"/><line class="cls-79" x1="-14.5" y1="486.7" x2="31.5" y2="486.7"/><line class="cls-80" x1="-14.5" y1="501.4" x2="31.5" y2="501.4"/><line class="cls-81" x1="-14.5" y1="516" x2="31.5" y2="516"/><line class="cls-82" x1="-14.5" y1="530.6" x2="31.5" y2="530.6"/><line class="cls-83" x1="-14.5" y1="545.2" x2="31.5" y2="545.2"/><line class="cls-84" x1="-14.5" y1="559.9" x2="31.5" y2="559.9"/><line class="cls-85" x1="-14.5" y1="574.5" x2="31.5" y2="574.5"/><line class="cls-86" x1="-14.5" y1="589.1" x2="31.5" y2="589.1"/><line class="cls-87" x1="-14.5" y1="603.8" x2="31.5" y2="603.8"/><line class="cls-88" x1="-14.5" y1="618.4" x2="31.5" y2="618.4"/><line class="cls-89" x1="-14.5" y1="633" x2="31.5" y2="633"/><line class="cls-90" x1="-14.5" y1="647.7" x2="31.5" y2="647.7"/><line class="cls-2" x1="-36.2" y1="11.2" x2="9.8" y2="11.2"/><line class="cls-3" x1="-36.2" y1="25.8" x2="9.8" y2="25.8"/><line class="cls-4" x1="-36.2" y1="40.4" x2="9.8" y2="40.4"/><line class="cls-5" x1="-36.2" y1="55.1" x2="9.8" y2="55.1"/><line class="cls-6" x1="-36.2" y1="69.7" x2="9.8" y2="69.7"/><line class="cls-7" x1="-36.2" y1="84.3" x2="9.8" y2="84.3"/><line class="cls-8" x1="-36.2" y1="99" x2="9.8" y2="99"/><line class="cls-9" x1="-36.2" y1="113.6" x2="9.8" y2="113.6"/><line class="cls-10" x1="-36.2" y1="128.2" x2="9.8" y2="128.2"/><line class="cls-11" x1="-36.2" y1="142.9" x2="9.8" y2="142.9"/><line class="cls-12" x1="-36.2" y1="157.5" x2="9.8" y2="157.5"/><line class="cls-13" x1="-36.2" y1="172.1" x2="9.8" y2="172.1"/><line class="cls-14" x1="-36.2" y1="186.8" x2="9.8" y2="186.8"/><line class="cls-15" x1="-36.2" y1="201.4" x2="9.8" y2="201.4"/><line class="cls-16" x1="-36.2" y1="216" x2="9.8" y2="216"/><line class="cls-17" x1="-36.2" y1="230.7" x2="9.8" y2="230.7"/><line class="cls-18" x1="-36.2" y1="245.3" x2="9.8" y2="245.3"/><line class="cls-19" x1="-36.2" y1="259.9" x2="9.8" y2="259.9"/><line class="cls-20" x1="-36.2" y1="274.6" x2="9.8" y2="274.6"/><line class="cls-21" x1="-36.2" y1="289.2" x2="9.8" y2="289.2"/><line class="cls-22" x1="-36.2" y1="303.8" x2="9.8" y2="303.8"/><line class="cls-23" x1="-36.2" y1="318.5" x2="9.8" y2="318.5"/><line class="cls-24" x1="-36.2" y1="333.1" x2="9.8" y2="333.1"/><line class="cls-25" x1="-36.2" y1="347.7" x2="9.8" y2="347.7"/><line class="cls-26" x1="-36.2" y1="362.3" x2="9.8" y2="362.3"/><line class="cls-27" x1="-36.2" y1="377" x2="9.8" y2="377"/><line class="cls-28" x1="-36.2" y1="391.6" x2="9.8" y2="391.6"/><line class="cls-29" x1="-36.2" y1="406.2" x2="9.8" y2="406.2"/><line class="cls-30" x1="-36.2" y1="420.9" x2="9.8" y2="420.9"/><line class="cls-31" x1="-36.2" y1="435.5" x2="9.8" y2="435.5"/><line class="cls-32" x1="-36.2" y1="450.1" x2="9.8" y2="450.1"/><line class="cls-33" x1="-36.2" y1="464.8" x2="9.8" y2="464.8"/><line class="cls-34" x1="-36.2" y1="479.4" x2="9.8" y2="479.4"/><line class="cls-35" x1="-36.2" y1="494" x2="9.8" y2="494"/><line class="cls-36" x1="-36.2" y1="508.7" x2="9.8" y2="508.7"/><line class="cls-37" x1="-36.2" y1="523.3" x2="9.8" y2="523.3"/><line class="cls-38" x1="-36.2" y1="537.9" x2="9.8" y2="537.9"/><line class="cls-39" x1="-36.2" y1="552.6" x2="9.8" y2="552.6"/><line class="cls-40" x1="-36.2" y1="567.2" x2="9.8" y2="567.2"/><line class="cls-41" x1="-36.2" y1="581.8" x2="9.8" y2="581.8"/><line class="cls-42" x1="-36.2" y1="596.5" x2="9.8" y2="596.5"/><line class="cls-43" x1="-36.2" y1="611.1" x2="9.8" y2="611.1"/><line class="cls-44" x1="-36.2" y1="625.7" x2="9.8" y2="625.7"/><line class="cls-45" x1="-36.2" y1="640.4" x2="9.8" y2="640.4"/><line class="cls-46" x1="-43.5" y1="3.9" x2="2.5" y2="3.9"/><line class="cls-47" x1="-43.5" y1="18.5" x2="2.5" y2="18.5"/><line class="cls-48" x1="-43.5" y1="33.1" x2="2.5" y2="33.1"/><line class="cls-49" x1="-43.5" y1="47.8" x2="2.5" y2="47.8"/><line class="cls-50" x1="-43.5" y1="62.4" x2="2.5" y2="62.4"/><line class="cls-51" x1="-43.5" y1="77" x2="2.5" y2="77"/><line class="cls-52" x1="-43.5" y1="91.7" x2="2.5" y2="91.7"/><line class="cls-53" x1="-43.5" y1="106.3" x2="2.5" y2="106.3"/><line class="cls-54" x1="-43.5" y1="120.9" x2="2.5" y2="120.9"/><line class="cls-55" x1="-43.5" y1="135.6" x2="2.5" y2="135.6"/><line class="cls-56" x1="-43.5" y1="150.2" x2="2.5" y2="150.2"/><line class="cls-57" x1="-43.5" y1="164.8" x2="2.5" y2="164.8"/><line class="cls-58" x1="-43.5" y1="179.5" x2="2.5" y2="179.5"/><line class="cls-59" x1="-43.5" y1="194.1" x2="2.5" y2="194.1"/><line class="cls-60" x1="-43.5" y1="208.7" x2="2.5" y2="208.7"/><line class="cls-61" x1="-43.5" y1="223.3" x2="2.5" y2="223.3"/><line class="cls-62" x1="-43.5" y1="238" x2="2.5" y2="238"/><line class="cls-63" x1="-43.5" y1="252.6" x2="2.5" y2="252.6"/><line class="cls-64" x1="-43.5" y1="267.2" x2="2.5" y2="267.2"/><line class="cls-65" x1="-43.5" y1="281.9" x2="2.5" y2="281.9"/><line class="cls-66" x1="-43.5" y1="296.5" x2="2.5" y2="296.5"/><line class="cls-67" x1="-43.5" y1="311.1" x2="2.5" y2="311.1"/><line class="cls-68" x1="-43.5" y1="325.8" x2="2.5" y2="325.8"/><line class="cls-69" x1="-43.5" y1="340.4" x2="2.5" y2="340.4"/><line class="cls-70" x1="-43.5" y1="355" x2="2.5" y2="355"/><line class="cls-71" x1="-43.5" y1="369.7" x2="2.5" y2="369.7"/><line class="cls-72" x1="-43.5" y1="384.3" x2="2.5" y2="384.3"/><line class="cls-73" x1="-43.5" y1="398.9" x2="2.5" y2="398.9"/><line class="cls-74" x1="-43.5" y1="413.6" x2="2.5" y2="413.6"/><line class="cls-75" x1="-43.5" y1="428.2" x2="2.5" y2="428.2"/><line class="cls-76" x1="-43.5" y1="442.8" x2="2.5" y2="442.8"/><line class="cls-77" x1="-43.5" y1="457.5" x2="2.5" y2="457.5"/><line class="cls-78" x1="-43.5" y1="472.1" x2="2.5" y2="472.1"/><line class="cls-79" x1="-43.5" y1="486.7" x2="2.5" y2="486.7"/><line class="cls-80" x1="-43.5" y1="501.4" x2="2.5" y2="501.4"/><line class="cls-81" x1="-43.5" y1="516" x2="2.5" y2="516"/><line class="cls-82" x1="-43.5" y1="530.6" x2="2.5" y2="530.6"/><line class="cls-83" x1="-43.5" y1="545.2" x2="2.5" y2="545.2"/><line class="cls-84" x1="-43.5" y1="559.9" x2="2.5" y2="559.9"/><line class="cls-85" x1="-43.5" y1="574.5" x2="2.5" y2="574.5"/><line class="cls-86" x1="-43.5" y1="589.1" x2="2.5" y2="589.1"/><line class="cls-87" x1="-43.5" y1="603.8" x2="2.5" y2="603.8"/><line class="cls-88" x1="-43.5" y1="618.4" x2="2.5" y2="618.4"/><line class="cls-89" x1="-43.5" y1="633" x2="2.5" y2="633"/><line class="cls-90" x1="-43.5" y1="647.7" x2="2.5" y2="647.7"/></pattern></defs><title>BackgroundMountainsBig</title><g id="Layer_1-2" data-name="Layer 1"><path class="cls-91" d="M299.3,410.51c17.3,10.8,39.3,24.2,68.2,35.5,0.4,0.1.7,0.3,1.1,0.4-6-.2-12.7,1.7-25.4,5.2-24.4,6.8-50.3,1.8-63-15.6-3.2-4.4-32.2-38.2-33.5-44.2h26.4C283.9,389.61,298.2,401.51,299.3,410.51Z" transform="translate(-104.7 -19.98)"/><path class="cls-92" d="M544.2,518.91c-23-1.7-111.5-24.6-131-50.5-1.5-1.9-2.2-5.7-2.4-7,95.7,26.9,84.5,36.6,116.1,50.9,1.1,0.5,2.2,1,3.4,1.5C534.7,515.61,539.3,517.31,544.2,518.91Z" transform="translate(-104.7 -19.98)"/><path class="cls-93" d="M587.4,398.61c-14.9,9.6-42.2,21.5-93.4,16.7s-103.4-9.6-134.3-4c-23,4.2-61.7-6.7-83.5-14.5a54,54,0,0,0-11.6-4.8H567A58.29,58.29,0,0,1,587.4,398.61Z" transform="translate(-104.7 -19.98)"/><path class="cls-91" d="M276.2,396.81c21.8,7.8,60.5,18.7,83.5,14.5,30.9-5.6,83.1-.9,134.3,4s78.5-7.2,93.4-16.7c12.9,7.1,21.4,18.5,37.9,30.9,3.6,2.7,7.4,5.4,11.6,8.3-3.2,11.8-22.6,87.3-92.7,81.1-4.8-1.6-9.5-3.2-13.8-5.1-1.2-.5-2.3-1-3.4-1.5-29.5-13.6-22-26.4-116.1-50.9-5.1-1.4-10.4-2.9-16.2-4.4h0c-13.1-6.9-19.1-10.1-26-10.4-0.4-.1-0.7-0.3-1.1-0.4-28.9-11.4-50.9-24.8-68.2-35.5-3.8-2.3-7.3-4.5-10.6-6.6-0.3-.2-0.5-0.3-0.8-0.5C283.7,400.91,279.8,398.71,276.2,396.81Z" transform="translate(-104.7 -19.98)"/><path class="cls-93" d="M636.8,437.81c28.4,19.6,69.3,43.1,99.6,55.6,5.5,2.3,11.5,5.1,17.7,8.4h0c29.9,15.8,65.4,40.8,84.7,53l-0.3.4c-38.3-1.2-102-19-148-19.8-41.5-.7-102-2.3-146.5-16.5C614.2,525.11,633.7,449.61,636.8,437.81Z" transform="translate(-104.7 -19.98)"/><polygon class="cls-94" points="500.3 260.13 451.3 238.93 398.2 259.83 383.9 274.03 310 294.53 275.4 311.43 250.6 313.33 234.6 306.03 211.7 306.33 184.9 320.93 172.8 334.13 142 372.03 176.1 372.03 223.6 372.03 242.2 350.23 247.8 349.43 290.2 359.83 368 348.33 439.9 345.93 468.7 357.73 531.8 316.83 500.3 260.13"/><polygon class="cls-93" points="479.8 231.03 451.3 238.93 500.3 260.13 531.8 316.83 542 310.13 609.7 272.63 649.3 257.03 676.7 242.83 695.5 226.43 735.4 207.73 646.8 215.03 587.5 227.53 479.8 231.03"/><polygon class="cls-93" points="468.7 357.73 439.9 345.93 368 348.33 290.2 359.83 247.8 349.43 176.1 359.83 157.9 371.73 447.5 372.03 468.7 357.73"/><polygon class="cls-95" points="398.9 246.93 436.7 244.53 398.2 259.83 383.9 274.03 310 294.53 365.5 261.53 385.7 255.63 398.9 246.93"/><polygon class="cls-1" points="1074.5 148.03 1111.7 254.83 1169.3 338.83 1230.5 370.03 929.3 372.43 995.3 288.43 1026.5 186.43 1074.5 148.03"/><path class="cls-92" d="M1164.2,690.41c-5.3-8.1-5.2-9.2-11.1-12.2v-1.6c-8.2-5.3-49.1-68.8-92.8-91.7-38.2-20.1-102-15.9-139.8-24.8-42.9-10.1-45.9-27.9-59.9-31.9-40.3-11.6-71.5-20.8-106.4-26.4,29.9,15.8,65.4,40.8,84.7,53,1.9,1.2,3.7,2.3,5.2,3.2a576.38,576.38,0,0,1,76.4,49.8c25.8,20,52.2,50.2,83.4,70.7,30.7,20.2,59.7,16.3,86.4,30,31.3,16.1,56.5,47.6,62.8,49.8v-2.5C1160.6,740.41,1158.4,712.91,1164.2,690.41Z" transform="translate(-104.7 -19.98)"/><path class="cls-91" d="M587.4,398.61c12.9,7.1,21.4,18.5,37.9,30.9,3.6,2.7,7.4,5.4,11.6,8.3,28.4,19.6,69.3,43.1,99.6,55.6,5.5,2.3,11.5,5.1,17.7,8.4h0c34.9,5.6,66.1,14.8,106.4,26.4,13.9,4,17,21.8,59.9,31.9,37.8,8.9,101.6,4.8,139.8,24.8,43.7,22.9,84.6,86.4,92.8,91.7V392h-586A58.41,58.41,0,0,1,587.4,398.61Z" transform="translate(-104.7 -19.98)"/><path class="cls-91" d="M1153,387.91v288.7c5.9,3,5.9,4.1,11.1,12.2,7.2-28.1,6-64.1,9-78,4.6-21.6,19.5-79.4,37.2-106.8,9.4-14.6,31.9-66.1,57.6-84,22.2-15.5,43.2-19.2,61.2-31.2v-0.9H1153Z" transform="translate(-104.7 -19.98)"/><path class="cls-95" d="M1329.2,392h317c-35.6,6.5-108.6,52.7-125.4,63.9-18.1,12-54.6,42.6-72.8,68.1s-62.9,40.7-76.3,51.8c-5,4.2-16.5,15.8-31.8,31.6-25.5,26.3-61.9,64.3-97.8,99-41.5,40.2-67.5,49.1-88.9,51.9,7.6-15.4,5.3-42.9,11.1-65.4,7.2-28.1,6-64.1,9-78,4.6-21.6,19.5-79.4,37.2-106.8,9.4-14.6,31.9-66.1,57.6-84,22.2-15.5,43.2-19.2,61.2-31.2V392h-0.1Z" transform="translate(-104.7 -19.98)"/><path class="cls-91" d="M1520.7,455.91c-37,30.2-77.5,85.9-89.9,115.8-2.4.8-4.9,1.5-7.6,2.2h0c-34.7,6.4-57.7,16.3-83.4,33.6,15.4-15.8,26.8-27.5,31.8-31.6,13.4-11.1,58.1-26.4,76.3-51.8C1466.1,498.51,1502.6,467.91,1520.7,455.91Z" transform="translate(-104.7 -19.98)"/><path class="cls-94" d="M1646.1,392H1725c-33.4,5-83.6,33.9-110.4,47.5-29.6,15-95.8,76.2-122.2,92.4-24.2,14.8-35.4,31.1-61.7,39.8,12.4-29.9,52.9-85.6,89.9-115.8C1537.6,444.61,1610.6,398.51,1646.1,392Z" transform="translate(-104.7 -19.98)"/><path class="cls-94" d="M1430.8,571.61c26.3-8.7,37.5-25,61.7-39.8,26.4-16.2,92.6-77.3,122.2-92.4,26.7-13.6,77-42.4,110.4-47.5h69.4a158.09,158.09,0,0,0-28,7.5h0c-30.8,10.8-68.9,31.6-85.5,57.5-2,3.1-4,6-6,8.8-22.7,31-46.6,41.4-86.1,61-43.1,21.3-87.5,37.1-138.4,43.1-7.1.8-13.7,1.8-19.9,2.8A1.16,1.16,0,0,1,1430.8,571.61Z" transform="translate(-104.7 -19.98)"/><path class="cls-93" d="M1766.4,399.51c-34.1,40-31.2,47.8,15.5,23.9a178.93,178.93,0,0,0-17.9,20.3c-1.5,2-3,3.8-4.5,5.6-36.2,43.2-71.8,23.8-84.7,16.4,2-2.8,4-5.7,6-8.8C1697.6,431.11,1735.6,410.31,1766.4,399.51Z" transform="translate(-104.7 -19.98)"/><path class="cls-95" d="M1837.6,396.81c3.6,1.8,7.5,4.1,11.6,6.6-11.4-6.4-37.5-8.5-67.3,19.9-46.7,23.8-49.6,16.1-15.5-23.9h0a167.24,167.24,0,0,1,28-7.5h30.7C1827.9,393.21,1832.3,394.91,1837.6,396.81Z" transform="translate(-104.7 -19.98)"/><path class="cls-95" d="M1900.6,392c-6.9,3.7-55.4,25.5-66.2,27.9a153.24,153.24,0,0,1-15.8,2.6c-8.5,1.1-17.1,4.5-25.9,9-10.6,5.3-21.5,12.1-33.2,17.9,1.5-1.8,3-3.6,4.5-5.6a148.32,148.32,0,0,1,17.9-20.3c29.9-28.4,27.3-31.7,37.5-31.7C1819.7,391.91,1896.9,389.61,1900.6,392Z" transform="translate(-104.7 -19.98)"/><polygon class="cls-92" points="1731.5 342.23 1742.6 347.83 1754.6 351.53 1771.9 364.63 1795.9 372.03 1712.5 372.03 1715.7 358.23 1681.4 339.23 1660.8 319.23 1682.6 324.63 1709.2 339.73 1731.5 342.23"/><polygon class="cls-92" points="1636.1 323.53 1646.9 339.23 1659.1 351.53 1699.1 371.73 1719.2 371.73 1737.5 359.83 1715.7 358.23 1681.4 339.23 1636.1 323.53"/><polygon class="cls-91" points="1549.9 371.73 1631.9 371.73 1472.1 304.03 1404.1 234.13 1324.8 187.53 1324.4 187.83 1417.5 307.03 1549.9 371.73"/><polygon class="cls-91" points="1699 371.73 1624.5 336.03 1574 299.43 1565.2 279.43 1486 232.23 1407.3 200.73 1328.3 187.83 1325.9 187.83 1404.1 234.13 1472.1 304.03 1631.9 371.73 1699 371.73"/><path class="cls-91" d="M1431.8,209" transform="translate(-104.7 -19.98)"/><polygon class="cls-93" points="1571.7 294.03 1595.3 282.23 1631.9 284.13 1660.8 319.23 1681.4 339.23 1636.1 323.53 1646.9 339.23 1658.7 352.43 1624.5 336.03 1574 299.43 1571.7 294.03"/><polygon class="cls-95" points="1048.3 3.73 1048.3 2.93 985.6 54.43 899.2 84.43 815.8 155.23 754.9 198.33 695.5 226.43 676.7 242.83 649.3 257.03 693.4 252.83 755.9 234.83 815.8 202.93 955.6 178.03 1059.5 70.83 1048.3 3.73"/><polygon class="cls-96" points="1324 187.13 1417.5 307.03 1369.3 269.53 1322.8 211.93 1272.1 187.13 1324 187.13"/><polygon class="cls-94" points="1224.5 370.03 1163.3 338.83 1105.7 254.83 1068.5 148.03 1059.5 70.03 955.6 178.03 815.8 202.93 755.9 234.83 693.4 252.83 649.3 257.03 609.7 272.63 542 310.13 447.5 372.03 1048.3 371.53 1048.3 371.73 1224.5 370.03"/><polyline class="cls-92" points="1549.9 371.73 1417.5 307.03 1369.3 269.53 1322.8 211.93 1272.1 187.13 1090.8 11.43 1048.3 2.93 1059.5 70.03 1068.5 148.03 1105.7 254.83 1163.3 338.83 1224.5 370.03 1540.7 371.63"/><path class="cls-97" d="M1646.2,392c-35.6,6.5-108.6,52.6-125.5,63.9-18.1,12-54.6,42.6-72.8,68.1s-62.8,40.7-76.3,51.8c-5.1,4.2-16.5,15.8-31.9,31.6-25.5,26.3-61.9,64.3-97.8,99-41.5,40.2-67.5,49.1-88.9,51.9" transform="translate(-104.7 -19.98)"/><polygon class="cls-1" points="1068.5 148.03 1105.7 254.83 1163.3 338.83 1224.5 370.03 923.3 372.43 989.3 288.43 1020.5 186.43 1068.5 148.03"/><polygon class="cls-1" points="1068.1 148.03 1105.3 254.83 1162.9 338.83 1224.1 370.03 922.9 372.43 988.9 288.43 1020.1 186.43 1068.1 148.03"/><polyline class="cls-1" points="1047 2.93 1057.8 70.03 1044.9 82.93"/></g><g id="White_over" data-name="White over"><polygon class="cls-98" points="170.1 342.23 172.1 334.93 142 372.03 157.9 371.73 176.1 359.83 193.3 351.53 181.2 347.83 170.1 342.23"/><polygon class="cls-98" points="479.8 231.03 451.3 238.93 500.3 260.13 531.8 316.83 542 310.13 609.7 272.63 649.3 257.03 676.7 242.83 695.5 226.43 735.4 207.73 646.8 215.03 587.5 227.53 479.8 231.03"/><polygon class="cls-98" points="468.7 357.73 439.9 345.93 368 348.33 290.2 359.83 247.8 349.43 176.1 359.83 157.9 371.73 447.5 372.03 468.7 357.73"/><polyline class="cls-98" points="1050.4 83.73 955.6 178.03 815.8 202.93 755.9 234.83 693.4 252.83 649.3 257.03 609.7 272.63 542 310.13 447.5 372.03"/><polygon class="cls-98" points="451.3 238.93 398.2 259.83 383.9 274.03 310 294.53 193.3 351.53 176.1 359.83 247.8 349.43 290.2 359.83 368 348.33 439.9 345.93 468.7 357.73 531.8 316.83 500.3 260.13 451.3 238.93"/><polygon class="cls-98" points="275.4 311.43 250.6 313.33 234.6 306.03 211.7 306.33 184.9 320.93 172.8 334.13 170.1 342.23 181.2 347.83 193.3 351.53 275.4 311.43"/><polygon class="cls-98" points="398.9 246.93 436.7 244.53 398.2 259.83 383.9 274.03 310 294.53 365.5 261.53 385.7 255.63 398.9 246.93"/><polyline class="cls-98" points="1050.2 83.73 955.6 178.03 815.8 202.93 755.9 234.83 693.4 252.83 649.3 257.03 676.7 242.83 695.5 226.43 754.9 198.33 815.8 155.23"/><polyline class="cls-98" points="1050.9 0.93 985.6 54.43 899.2 84.43 815.8 155.23 899.2 84.43 985.6 54.43 1048.3 2.93"/><polyline class="cls-99" points="1048.3 2.93 1090.8 11.43 1272.1 187.13 1322.8 211.93 1369.3 269.53 1417.5 307.03 1548.8 371.23"/><polygon class="cls-98" points="1731.5 342.23 1742.6 347.83 1754.6 351.53 1771.9 364.63 1795.9 372.03 1748.5 372.03 1737.5 359.83 1715.7 358.23 1681.4 339.23 1660.8 319.23 1682.6 324.63 1709.2 339.73 1731.5 342.23"/><polygon class="cls-98" points="1636.1 323.53 1646.9 339.23 1659.1 351.53 1699.1 371.73 1719.2 371.73 1748.5 372.03 1737.5 359.83 1715.7 358.23 1681.4 339.23 1636.1 323.53"/><polyline class="cls-99" points="1048.3 2.93 1059.5 70.03 1068.5 148.03 1105.7 254.83 1163.3 338.83 1224.5 370.03"/><polygon class="cls-99" points="1549.9 371.73 1631.9 371.73 1472.1 304.03 1404.1 234.13 1324.8 187.53 1324.4 187.83 1417.5 307.03 1549.9 371.73"/><polygon class="cls-99" points="1699 371.73 1624.5 336.03 1574 299.43 1565.2 279.43 1486 232.23 1407.3 200.73 1328.3 187.83 1325.9 187.83 1404.1 234.13 1472.1 304.03 1631.9 371.73 1699 371.73"/><path class="cls-99" d="M1431.8,209" transform="translate(-104.7 -19.98)"/><polygon class="cls-98" points="1571.7 294.03 1595.3 282.23 1631.9 284.13 1660.8 319.23 1681.4 339.23 1636.1 323.53 1646.9 339.23 1658.7 352.43 1624.5 336.03 1574 299.43 1571.7 294.03"/><polygon class="cls-99" points="1324 187.13 1417.5 307.03 1369.3 269.53 1322.8 211.93 1272.1 187.13 1324 187.13"/></g><g id="White_overlay_underwater" data-name="White overlay underwater"><path class="cls-100" d="M299.3,410.51c17.3,10.7,39.3,24.2,68.2,35.5,0.4,0.1.7,0.3,1.1,0.4-6-.3-12.7,1.7-25.4,5.2-24.4,6.8-50.3,1.8-63-15.5-3.2-4.4-24.8-29-33.5-44.2" transform="translate(-104.7 -19.98)"/><path class="cls-100" d="M587.4,398.61h0c-14.9,9.6-42.2,21.5-93.4,16.7s-103.4-9.6-134.3-4c-23,4.2-61.7-6.8-83.5-14.5a56.18,56.18,0,0,0-11.6-4.8H567A58.29,58.29,0,0,1,587.4,398.61Z" transform="translate(-104.7 -19.98)"/><path class="cls-100" d="M625.3,429.51c3.5,2.7,7.4,5.4,11.6,8.3-3.2,11.8-22.6,87.3-92.7,81.1-4.8-1.6-9.4-3.2-13.8-5.1-37.8-16-18.9-25.6-135.7-56.8h0c-13.1-6.9-19-10.1-26-10.4-0.4-.1-0.7-0.3-1.1-0.4-28.9-11.4-50.9-24.8-68.2-35.5-3.8-2.3-7.3-4.5-10.6-6.6-0.3-.2-0.5-0.3-0.8-0.5-4.2-2.5-8-4.8-11.6-6.7,21.8,7.8,60.5,18.7,83.5,14.5,30.9-5.6,83.1-.9,134.3,4s78.5-7.1,93.4-16.7h0C600.3,405.71,608.8,417.11,625.3,429.51Z" transform="translate(-104.7 -19.98)"/><path class="cls-100" d="M838.9,554.71l-0.3.4c-38.3-1.2-102-19-147.9-19.8-41.5-.7-102-2.3-146.5-16.5,70.1,6.2,89.5-69.2,92.7-81.1,28.4,19.6,69.3,43.1,99.7,55.6,5.5,2.3,11.5,5.1,17.7,8.4h0C784.1,517.51,819.6,542.61,838.9,554.71Z" transform="translate(-104.7 -19.98)"/><path class="cls-100" d="M1153,758.31c-6.3-2.2-31.5-33.7-62.8-49.8-26.7-13.7-55.7-9.8-86.4-30-31.2-20.6-57.5-50.7-83.4-70.7A565,565,0,0,0,844,558c-1.6-.9-3.3-2-5.2-3.2" transform="translate(-104.7 -19.98)"/><path class="cls-100" d="M1153.2,676.81c-8.2-5.3-49.3-69-93-91.9-38.2-20.1-102-15.9-139.8-24.8-42.9-10.1-45.9-27.9-59.9-31.9-40.3-11.6-71.5-20.8-106.4-26.4h0q-9.3-5-17.7-8.4c-30.4-12.5-71.3-36-99.7-55.6-4.2-2.9-8-5.7-11.6-8.3-16.5-12.4-25-23.7-37.9-30.9a57.72,57.72,0,0,0-20.3-6.6" transform="translate(-104.7 -19.98)"/><path class="cls-100" d="M410.8,461.31c0.1,1.3.9,5.1,2.4,7,19.4,25.9,108,48.8,131,50.5-4.8-1.6-9.4-3.2-13.8-5.1C496.7,499.61,508.3,486.81,410.8,461.31Z" transform="translate(-104.7 -19.98)"/><path class="cls-100" d="M1447.9,523.91c18.2-25.5,54.8-56,72.8-68.1-37,30.2-77.5,85.9-89.9,115.7-2.4.8-4.9,1.5-7.6,2.2h0c-34.7,6.4-57.7,16.3-83.4,33.6,15.4-15.8,26.8-27.4,31.9-31.6C1385,564.71,1429.7,549.41,1447.9,523.91Z" transform="translate(-104.7 -19.98)"/><path class="cls-100" d="M1646.2,392H1725c-33.4,5-83.6,33.9-110.3,47.5-29.6,15-95.8,76.2-122.2,92.4-24.2,14.8-35.4,31.1-61.7,39.8,12.4-29.9,52.9-85.6,89.9-115.7C1537.6,444.61,1610.5,398.51,1646.2,392Z" transform="translate(-104.7 -19.98)"/><path class="cls-100" d="M1646.2,392c-35.6,6.5-108.6,52.6-125.5,63.9-18.1,12-54.6,42.6-72.8,68.1s-62.8,40.7-76.3,51.8c-5.1,4.2-16.5,15.8-31.9,31.6-25.5,26.3-61.9,64.3-97.8,99-41.5,40.2-67.5,49.1-88.9,51.9" transform="translate(-104.7 -19.98)"/><path class="cls-100" d="M1725,392h69.4a167.24,167.24,0,0,0-28,7.5h0c-30.8,10.8-68.9,31.6-85.5,57.5-2,3.1-4,6.1-6.1,8.8-22.6,31-46.6,41.4-86.1,61-43.1,21.3-87.5,37-138.4,43.1-7.1.8-13.7,1.8-19.9,2.8a3.55,3.55,0,0,1,.4-0.9c26.3-8.7,37.5-24.9,61.7-39.8,26.4-16.2,92.6-77.3,122.2-92.4C1641.4,425.81,1691.6,397,1725,392Z" transform="translate(-104.7 -19.98)"/><path class="cls-100" d="M1781.9,423.41a178.93,178.93,0,0,0-17.9,20.3c-1.5,2-3,3.8-4.5,5.6-36.2,43.1-71.8,23.8-84.7,16.4,2-2.8,4-5.7,6.1-8.8,16.6-25.8,54.7-46.6,85.5-57.5C1732.3,439.41,1735.2,447.21,1781.9,423.41Z" transform="translate(-104.7 -19.98)"/><path class="cls-100" d="M1781.9,423.41c-46.6,23.8-49.6,16-15.5-23.9h0a167.24,167.24,0,0,1,28-7.5" transform="translate(-104.7 -19.98)"/><path class="cls-100" d="M1853.2,391.51c13.6,0,47.4.4,47.4,0.4-6.9,3.7-55.4,25.5-66.2,27.9a152,152,0,0,1-15.8,2.7c-8.5,1-17.1,4.5-25.9,8.9-10.6,5.3-21.5,12.1-33.2,17.9,1.5-1.8,3-3.6,4.5-5.6,6-8.1,8.3-11,14.1-16.6,29.9-28.4,51.9-18.4,64-23.4C1846.8,401.81,1852.9,391.51,1853.2,391.51Z" transform="translate(-104.7 -19.98)"/><path class="cls-100" d="M1329.2,392.91c-18.1,12-39,15.7-61.2,31.2-25.7,17.9-48.2,69.4-57.6,84-17.7,27.4-32.6,85.2-37.2,106.8-3,13.9-1.8,49.9-9,78-5.8,22.5-3.5,50-11.1,65.4" transform="translate(-104.7 -19.98)"/><path class="cls-100" d="M1164.8,689.41c-5.2-8.1-5.8-9.6-11.8-12.6" transform="translate(-104.7 -19.98)"/></g><g id="dots_overlay" data-name="dots overlay"><rect class="cls-101" y="372.03" width="1871.8" height="397.2"/><rect class="cls-1" x="93" y="372.93" width="1778.8" height="396.3"/></g><g id="White_line_over_all" data-name="White line over all"><line class="cls-102" x1="1871.7" y1="372.03" y2="372.03"/></g></svg>