<svg id="Background" xmlns="http://www.w3.org/2000/svg" viewBox="0 0 399.83 647.77"><defs><style>.cls-1{fill:#ffce5f;stroke:#331f1f;stroke-width:0.52px;}.cls-1,.cls-6{stroke-miterlimit:10;}.cls-2{font-size:10.08px;}.cls-2,.cls-5,.cls-7,.cls-8,.cls-9{fill:#42454c;}.cls-2,.cls-7,.cls-8{font-family:Avenir;}.cls-3{font-size:8.4px;}.cls-4{letter-spacing:-1px;}.cls-5{font-size:12px;font-family:Proxima Nova;font-weight:700;}.cls-6{fill:none;stroke:#42454c;stroke-linecap:round;stroke-width:1.26px;}.cls-7{font-size:8px;}.cls-8{font-size:18px;}</style></defs><title>final sheet icons</title><rect class="cls-1" x="-123.71" y="124.23" width="647.26" height="399.31" transform="translate(523.8 123.97) rotate(90)"/><text class="cls-2" transform="translate(81.59 190.9)">Play<tspan class="cls-3"><tspan x="-5.54" y="10.08">(video)</tspan></tspan></text><text class="cls-2" transform="translate(297.26 190.9)">Download<tspan class="cls-3"><tspan x="0" y="10.08">(video)</tspan></tspan></text><text class="cls-2" transform="translate(70.03 294.17)">Sea<tspan x="16.98" y="0">r</tspan><tspan x="20.91" y="0">ch</tspan><tspan class="cls-3"><tspan x="-1.29" y="10.08">(our site)</tspan></tspan></text><text class="cls-2" transform="translate(63.88 392.85)">Student<tspan x="6.52" y="12.1">P</tspan><tspan x="12.87" y="12.1">r</tspan><tspan x="16.79" y="12.1">ofile</tspan></text><text class="cls-2" transform="translate(297.26 392.91)"><tspan class="cls-4">T</tspan><tspan x="4.67" y="0">eacher</tspan><tspan x="0" y="12.1">P</tspan><tspan x="6.35" y="12.1">r</tspan><tspan x="10.27" y="12.1">ofile</tspan></text><text class="cls-2" transform="translate(40.55 500.63)">Notifications<tspan class="cls-3"><tspan x="0.33" y="10.08">(ac</tspan><tspan x="11.07" y="10.08">t</tspan><tspan x="14.04" y="10.08">ivity or alert)</tspan></tspan></text><text class="cls-2" transform="translate(297.26 496.71)">Save<tspan class="cls-3"><tspan x="0" y="10.08">(my p</tspan><tspan x="21.01" y="10.08">r</tspan><tspan x="23.81" y="10.08">oject or content)</tspan></tspan></text><text class="cls-2" transform="translate(297.26 285.52)">Discussions<tspan class="cls-3"><tspan x="0" y="10.08">(chat or comment)</tspan></tspan></text><text class="cls-2" transform="translate(35.51 593.94)">Lea<tspan x="16.61" y="0">r</tspan><tspan x="20.9" y="0">ning Path</tspan><tspan class="cls-3"><tspan x="-14.1" y="10.08">(track or p</tspan><tspan x="24.5" y="10.08">r</tspan><tspan x="27.31" y="10.08">og</tspan><tspan x="37.43" y="10.08">r</tspan><tspan x="40.24" y="10.08">ession)</tspan></tspan></text><text class="cls-2" transform="translate(297.26 594.1)">My Classes<tspan class="cls-3"><tspan x="0" y="10.08">(</tspan><tspan x="2.33" y="10.08">l</tspan><tspan x="4.36" y="10.08">ist of videos)</tspan></tspan></text><text class="cls-5" transform="translate(134.7 44.25)">New icons for Skillshare</text><line class="cls-6" x1="105.24" y1="57.83" x2="183.24" y2="57.83"/><line class="cls-6" x1="218.28" y1="57.83" x2="296.27" y2="57.83"/><text class="cls-7" transform="translate(196.38 59.75)">by</text><text class="cls-8" transform="translate(146.08 83.18)">Jovana Pavić</text><path class="cls-9" d="M170.9,145.57a2,2,0,1,0-2.42,3.19,27.81,27.81,0,0,1,11.1,22.33,28.17,28.17,0,0,1-21.94,27.35,2,2,0,0,0,.86,3.91,32.19,32.19,0,0,0,25.08-31.25A31.78,31.78,0,0,0,170.9,145.57Z"/><path class="cls-9" d="M150.84,199.08a28,28,0,0,1,.74-56,28.25,28.25,0,0,1,5.86.61,2,2,0,0,0,.83-3.91,32,32,0,0,0-38.7,31.3,31.82,31.82,0,0,0,31.17,32h0.05A2,2,0,0,0,150.84,199.08Z"/><path class="cls-9" d="M147.74,148.39a1,1,0,1,0-.33-2,25.1,25.1,0,0,0-18.11,36.11,1,1,0,0,0,1.78-.91A23.1,23.1,0,0,1,147.74,148.39Z"/><path class="cls-9" d="M142.68,192.6a4,4,0,0,0,4.1-.18l25-16.34a4,4,0,0,0,0-6.68l-25-16.66a4,4,0,0,0-6.2,3.34v33A4,4,0,0,0,142.68,192.6Z"/><circle class="cls-9" cx="264.26" cy="142.08" r="2"/><circle class="cls-9" cx="257.26" cy="143.08" r="2"/><circle class="cls-9" cx="250.26" cy="141.08" r="2"/><circle class="cls-9" cx="243.26" cy="144.46" r="2"/><circle class="cls-9" cx="236.26" cy="142.46" r="2"/><path class="cls-9" d="M263.26,148.08v6.38a1,1,0,0,0,2,0v-6.38A1,1,0,0,0,263.26,148.08Z"/><path class="cls-9" d="M256.26,148.08v3.06a1,1,0,1,0,2,0v-3.06A1,1,0,0,0,256.26,148.08Z"/><path class="cls-9" d="M250.26,146.46h0a1,1,0,0,0-1,1v7a1,1,0,0,0,1,1h0a1,1,0,0,0,1-1v-7A1,1,0,0,0,250.26,146.46Z"/><circle class="cls-9" cx="278.26" cy="141.08" r="2"/><circle class="cls-9" cx="271.26" cy="144.46" r="2"/><path class="cls-9" d="M278.26,175.08a1,1,0,0,0,1-1v-27a1,1,0,0,0-2,0v27A1,1,0,0,0,278.26,175.08Z"/><path class="cls-9" d="M270.26,150.08v24a1,1,0,0,0,2,0v-24A1,1,0,0,0,270.26,150.08Z"/><path class="cls-9" d="M243.26,150.08h0a1,1,0,0,0-1,1l0.06,23a1,1,0,0,0,1,1h0a1,1,0,0,0,1-1l-0.06-23A1,1,0,0,0,243.26,150.08Z"/><path class="cls-9" d="M277.34,177.69h-11l0.17-13.42c0-5-4-8.82-9.28-8.82s-9.27,3.79-9.27,8.86l0.31,13.37h-11a2,2,0,0,0-1.46,3.37l20,21.38a2,2,0,0,0,2.92,0l20-21.38A2,2,0,0,0,277.34,177.69Z"/><path class="cls-9" d="M236.26,175.08a1,1,0,0,0,1-1v-26a1,1,0,0,0-2,0v26A1,1,0,0,0,236.26,175.08Z"/><path class="cls-9" d="M157.65,297.07a26,26,0,1,1,11.39-42,2,2,0,1,0,3-2.65,30,30,0,1,0-13.14,48.43A2,2,0,1,0,157.65,297.07Z"/><path class="cls-9" d="M183,302.93L172.36,292.3a30.38,30.38,0,0,0,5.84-29.94,2,2,0,0,0-3.78,1.31,26.36,26.36,0,0,1-6.26,27.26l-1.42,1.41,13.42,13.42A2,2,0,0,0,183,302.93Z"/><path class="cls-9" d="M149.58,252.35a20,20,0,1,0,20,20A20,20,0,0,0,149.58,252.35Zm0,5a15,15,0,0,0-15,15,1,1,0,0,1-2,0,17,17,0,0,1,17-17A1,1,0,1,1,149.58,257.35Zm6,1a1,1,0,1,1,1-1A1,1,0,0,1,155.58,258.35Z"/><ellipse class="cls-9" cx="151.58" cy="370.62" rx="12" ry="15"/><path class="cls-9" d="M178.17,393l-0.11-.12-0.12-.13a12.1,12.1,0,0,0-9.47-4.15l-16.9-1-17,1a13.12,13.12,0,0,0-7.61,2.44,28,28,0,0,1,5.39-33.89,1.94,1.94,0,1,0-2.65-2.82,31.94,31.94,0,1,0,48.52,40.89,1.93,1.93,0,0,0-.06-2.21h0Z"/><path class="cls-9" d="M157.07,346.16a31.93,31.93,0,0,0-16.44,1.46,1.94,1.94,0,1,0,1.33,3.63,28.09,28.09,0,0,1,35.57,37.07,1.94,1.94,0,1,0,3.58,1.47A32,32,0,0,0,157.07,346.16Z"/><path class="cls-9" d="M229.34,378.62V353.46a3.85,3.85,0,0,1,3.84-3.84h48.16a3.81,3.81,0,0,1,2.71,1.13,2,2,0,1,0,2.83-2.83,7.78,7.78,0,0,0-5.54-2.3H233.18a7.85,7.85,0,0,0-7.84,7.84v25.16A2,2,0,0,0,229.34,378.62Z"/><ellipse class="cls-9" cx="257.17" cy="370.12" rx="12" ry="15"/><path class="cls-9" d="M287.18,354.62a2,2,0,0,0-2,2v33.16a3.81,3.81,0,0,1-.74,2.24,13.28,13.28,0,0,0-10.28-4.9l-17-1-17,1a13.32,13.32,0,0,0-11.1,6,4.81,4.81,0,0,0-.62,1.08,2,2,0,0,0,.89,2.41,7.82,7.82,0,0,0,3.84,1H253.1v8h-7.77a2,2,0,1,0,0,4h24a2,2,0,0,0,0-4H261.1v-8h20.23a7.85,7.85,0,0,0,7.84-7.84V356.62A2,2,0,0,0,287.18,354.62Z"/><path class="cls-9" d="M156.58,464a5,5,0,0,0-10,0l1,33a4,4,0,0,0,8,0Z"/><path class="cls-9" d="M171.07,455.53a2,2,0,0,0-2.42,3.18A28.21,28.21,0,0,1,157,508.85a2,2,0,1,0,.76,3.93A32.21,32.21,0,0,0,171.07,455.53Z"/><path class="cls-9" d="M145.78,508.77a28.21,28.21,0,0,1,5.8-55.81,28,28,0,0,1,11,2.23,2,2,0,1,0,1.56-3.68,32.22,32.22,0,0,0-44.77,29.65A32.32,32.32,0,0,0,145,512.69a2,2,0,0,0,.41,0A2,2,0,0,0,145.78,508.77Z"/><rect class="cls-9" x="245.27" y="487.89" width="7" height="5" rx="1" ry="1"/><path class="cls-9" d="M263.27,487.89a1,1,0,0,0-1,1v3a1,1,0,0,0,1,1h5a1,1,0,0,0,1-1v-3a1,1,0,0,0-2,0v2h-3v-2A1,1,0,0,0,263.27,487.89Z"/><path class="cls-9" d="M282.27,470.9s-0.06-14-.06-18h-50c0,4.06,0,18,0,18,0,2.67.81,4.55,6,4.92,0,0,0,0,0,.07v31a2,2,0,0,0,2,2h4a2,2,0,0,0,0-4h-2v-29h30v29h-20a2,2,0,0,0,0,4h22a2,2,0,0,0,2-2v-31s0,0,0-.08C281.46,475.42,282.27,473.4,282.27,470.9Z"/><path class="cls-9" d="M288.06,271.31a2,2,0,0,0-2.63,1,24.32,24.32,0,0,1-4.53,6.85l-0.72.77,2.11,9.51L275,285.13a2,2,0,1,0-2.06,3.43l15.24,9.14-3.68-16.57a28.12,28.12,0,0,0,4.55-7.19A2,2,0,0,0,288.06,271.31Z"/><path class="cls-9" d="M266.16,287.65a33.3,33.3,0,0,1-7.9.94c-16,0-29-11.21-29-25s13-25,29-25a31.28,31.28,0,0,1,21.62,8.34,2,2,0,1,0,2.78-2.88,35.31,35.31,0,0,0-24.39-9.46c-18.2,0-33,13-33,29s14.8,29,33,29a37.27,37.27,0,0,0,8.85-1.06A2,2,0,1,0,266.16,287.65Z"/><circle class="cls-9" cx="257.26" cy="263.59" r="6"/><circle class="cls-9" cx="241.26" cy="263.59" r="6"/><circle class="cls-9" cx="273.26" cy="263.59" r="6"/><path class="cls-9" d="M172.46,583.08a1,1,0,1,0,0-2H123.78c1.84-14.28,13.41-25,27.86-25,15.7,0,28,12.72,28,29,0,6.11-1.18,10.86-3.7,14.95a2,2,0,0,0,3.4,2.1c2.93-4.75,4.3-10.17,4.3-17.05,0-18.49-14.06-33-32-33s-32.12,14.48-32.12,33a31.29,31.29,0,0,0,4.39,16,2,2,0,1,0,3.47-2,27,27,0,0,1-3.85-14c0-.67,0-1.34.07-2H144L128.46,616.2l25.91-1.41-1.22-5.59h2.63l1.53,5.43,26.16-1.43-31.1-30.13h20.1Zm-25,.13h1l0.28,1h-1.06Zm0.66,3h1.19l1,3.5h-1.41Zm1.2,5.5h1.53l1,3.5h-1.75Zm5.89,15.5h-2.5l-0.87-4h2.25Zm-2.81-10,1.13,4H151.4l-0.87-4h1.88Z"/><path class="cls-9" d="M245.41,605.3a1,1,0,0,0,.41,1.28,24.8,24.8,0,0,0,11.43,2.73,25.35,25.35,0,0,0,24.85-21.21,1,1,0,0,0-1.88-.3,23.42,23.42,0,0,1-23,19.6,22.92,22.92,0,0,1-10.56-2.52A1,1,0,0,0,245.41,605.3Z"/><path class="cls-9" d="M271.27,555.16a2,2,0,0,0-1.74,3.6,28.21,28.21,0,1,1-30,47.32,2,2,0,0,0-2.52,3.11A32.21,32.21,0,1,0,271.27,555.16Z"/><path class="cls-9" d="M229.06,584.16a28.23,28.23,0,0,1,33.81-27.65,2,2,0,1,0,.79-3.92,32.23,32.23,0,0,0-38.6,31.57,31.93,31.93,0,0,0,3,13.64,2,2,0,1,0,3.62-1.7A28,28,0,0,1,229.06,584.16Z"/><path class="cls-9" d="M239.15,595.62l5.82-3.75V576.24l-5.83-3.74a2.73,2.73,0,0,0-1.48-.44,2.65,2.65,0,0,0-2.69,2.6v18.81a2.65,2.65,0,0,0,2.69,2.6A2.74,2.74,0,0,0,239.15,595.62Z"/><path class="cls-9" d="M249.67,596.06a2.74,2.74,0,0,0,1.48-.44l5.82-3.75V576.24l-5.83-3.74a2.73,2.73,0,0,0-1.48-.44,2.65,2.65,0,0,0-2.69,2.6v2.87h0v13.06h0v2.88A2.65,2.65,0,0,0,249.67,596.06Z"/><path class="cls-9" d="M277.78,581.89l-14.63-9.4a2.73,2.73,0,0,0-1.48-.44,2.65,2.65,0,0,0-2.69,2.6v2.87h0v13.06h0v2.88a2.65,2.65,0,0,0,2.69,2.6,2.74,2.74,0,0,0,1.48-.44l14.63-9.41A2.54,2.54,0,0,0,277.78,581.89Z"/></svg>