<svg id="Cyclists" xmlns="http://www.w3.org/2000/svg" viewBox="0 0 122.5 59.07"><defs><style>.cls-1,.cls-16{fill:#dcd4c7;}.cls-2,.cls-21,.cls-9{fill:#484749;}.cls-3{fill:#577483;}.cls-4{fill:#82949e;}.cls-15,.cls-22,.cls-5{fill:silver;}.cls-6{fill:#ebe6de;}.cls-7{fill:#4a4452;}.cls-14,.cls-8{fill:#969696;}.cls-9{font-size:1.79px;font-family:Myriad Pro;}.cls-10{fill:#585757;}.cls-11{fill:#321d15;}.cls-12{fill:#c60000;}.cls-13{fill:#2f1e19;}.cls-14,.cls-15,.cls-16,.cls-19,.cls-20,.cls-22{stroke:#484749;stroke-miterlimit:10;}.cls-14,.cls-15,.cls-16{stroke-width:0.24px;}.cls-17{fill:#5c5f61;}.cls-18{fill:#b1c0c9;}.cls-19{fill:#506d81;}.cls-19,.cls-20{stroke-width:0.07px;}.cls-20{fill:#ece7e4;}.cls-21,.cls-22{fill-rule:evenodd;}.cls-22{stroke-width:0.02px;}</style></defs><title>Green street</title><path class="cls-1" d="M75.58,40.81c-0.35.59-.83,0.65-1.71,0.47A22.64,22.64,0,0,1,70.43,40l-0.08,0-0.07,0c-0.51-.34-0.47-0.85-0.63-1.8h0l0-.09c-0.18-1-.24-2.71-0.41-6.31s0.18-5.07.65-9.9S73.51,7.34,74.1,5.75s1.47-1.53,3.12-1.65,13.85-.26,13.85-0.26,12.2,0.14,13.85.26,2.53,0.06,3.12,1.65,3.77,11.26,4.24,16.09,0.83,6.31.65,9.9S112.7,37,112.53,38v0.09h0c-0.16.95-.12,1.45-0.63,1.8l-0.07,0-0.08,0a22.56,22.56,0,0,1-3.44,1.27c-0.88.18-1.36,0.12-1.71-.47a13.94,13.94,0,0,1-1-2.12c-0.24-.65-0.47-1-1.89-1H78.46c-1.41,0-1.65.35-1.89,1A14,14,0,0,1,75.58,40.81Zm35.08-1.21c0.63-.22.47-0.46,0.47-1.09s-0.79-.43-0.79-0.43h-3c-0.63,0-.71.27-0.47,0.9s0.39,1.49,1.26,1.45A9.32,9.32,0,0,0,110.66,39.6Zm-1.28-10.83c1.26-.16,1.89.39,1.73-1.81a74.39,74.39,0,0,0-1.26-9.74c-0.86-4.4-2.2-9.51-2.51-10.3a1.71,1.71,0,0,0-1.73-1.41L102,5.42V4.83h-1.37V5.38c-3.94-.11-8-0.26-9.59-0.26-1.31,0-5.65.15-9.59,0.26V4.83H80.12V5.42l-3.58.09a1.71,1.71,0,0,0-1.73,1.41c-0.31.79-1.65,5.9-2.51,10.3A74.61,74.61,0,0,0,71,27c-0.16,2.2.47,1.65,1.73,1.81s15.16,0.09,18.3.09S108.12,28.93,109.38,28.77ZM75.26,39c0.24-.63.16-0.9-0.47-0.9h-3s-0.79-.2-0.79.43-0.16.86,0.47,1.09a9.36,9.36,0,0,0,2.51.83C74.87,40.47,75,39.62,75.26,39Z"/><path class="cls-2" d="M75.36,41.24l0,0a1.08,1.08,0,0,1-.5.2,1.8,1.8,0,0,1-.51,0,4.64,4.64,0,0,1-.5-0.08L72.9,41.1C72.6,41,72.28,40.92,72,40.78l-0.91-.37-0.45-.19A1.77,1.77,0,0,1,70.18,40a1.09,1.09,0,0,1-.34-0.4,1.75,1.75,0,0,1-.16-0.49c-0.06-.33-0.1-0.64-0.15-1h0v0c-0.25-2.11-.31-4.22-0.42-6.34a38.64,38.64,0,0,1,.27-6.34c0.23-2.1.4-4.21,0.81-6.29s1-4.12,1.53-6.16S72.92,9,73.59,7c0.18-.5.32-1,0.54-1.5A2,2,0,0,1,75.23,4.3,11.9,11.9,0,0,1,78.4,4l12.68-.23L103.75,4a11.91,11.91,0,0,1,3.16.31A2,2,0,0,1,108,5.48c0.22,0.49.37,1,.54,1.49,0.67,2,1.28,4,1.86,6.06s1.12,4.08,1.52,6.16,0.58,4.19.8,6.29a38.41,38.41,0,0,1,.26,6.33c-0.11,2.11-.18,4.22-0.43,6.32h0a9,9,0,0,1-.24,1.3,1.1,1.1,0,0,1-.42.52,4.3,4.3,0,0,1-.61.27l-1.22.5c-0.41.16-.84,0.27-1.26,0.41a3.62,3.62,0,0,1-1.3.24,1.12,1.12,0,0,1-.63-0.21,1.59,1.59,0,0,1-.4-0.54c-0.44-.76-0.75-1.61-1.12-2.39a1.39,1.39,0,0,0-1.14-.52c-0.44,0-.88,0-1.32,0H79.07a10,10,0,0,0-1.32,0,1.21,1.21,0,0,0-1.05.68l-0.51,1.22c-0.18.4-.4,0.78-0.6,1.18Zm0.22-.43c0.2-.39.42-0.78,0.6-1.18l0.51-1.22a1.21,1.21,0,0,1,1.06-.68,9.86,9.86,0,0,1,1.32,0h23.81c0.44,0,.88,0,1.32,0a1.44,1.44,0,0,1,1.18.54c0.38,0.81.67,1.63,1.12,2.4a1.55,1.55,0,0,0,.38.52,1.07,1.07,0,0,0,.6.2,3.57,3.57,0,0,0,1.28-.24c0.42-.14.84-0.26,1.25-0.41l1.22-.5a4.36,4.36,0,0,0,.6-0.27,1,1,0,0,0,.39-0.49,9.32,9.32,0,0,0,.24-1.29h0c0.25-2.1.31-4.21,0.42-6.32a38.5,38.5,0,0,0-.27-6.32c-0.23-2.1-.4-4.21-0.81-6.28s-1-4.11-1.53-6.15S109.1,9,108.42,7c-0.17-.5-0.33-1-0.54-1.48a1.86,1.86,0,0,0-1-1.1,11.93,11.93,0,0,0-3.12-.29L91.07,3.91l-12.67.25a11.94,11.94,0,0,0-3.11.3,1.83,1.83,0,0,0-1,1.09c-0.21.47-.36,1-0.54,1.48-0.67,2-1.28,4-1.86,6.05s-1.12,4.08-1.51,6.14-0.58,4.18-.8,6.28a38.37,38.37,0,0,0-.26,6.31c0.11,2.1.17,4.22,0.43,6.31h0v0c0.05,0.32.09,0.64,0.15,1a1.57,1.57,0,0,0,.14.43,0.85,0.85,0,0,0,.29.32,1.75,1.75,0,0,0,.41.2l0.44,0.18,0.88,0.36c0.29,0.13.61,0.21,0.91,0.31l0.92,0.29a2.86,2.86,0,0,0,.91.07,0.84,0.84,0,0,0,.39-0.15,1.21,1.21,0,0,0,.29-0.34Z"/><path class="cls-2" d="M110.61,39.5a0.61,0.61,0,0,0,.4-0.28,2,2,0,0,0,0-.55V38.53l0-.15a0.15,0.15,0,0,0,0-.09,0.16,0.16,0,0,0-.08-0.07,0.48,0.48,0,0,0-.24-0.06,1.07,1.07,0,0,0-.27,0h0l-2.27,0h-0.57a1.33,1.33,0,0,0-.53.06,0.35,0.35,0,0,0-.14.43,4.2,4.2,0,0,0,.16.53,2.46,2.46,0,0,0,.49,1,0.79,0.79,0,0,0,.48.23,1.65,1.65,0,0,0,.55,0,2.12,2.12,0,0,0,.55-0.13c0.18-.06.36-0.11,0.53-0.19l1.05-.43Zm0.55-.11-0.5.22-1,.45c-0.17.08-.36,0.13-0.53,0.2a2.16,2.16,0,0,1-.55.15,1.7,1.7,0,0,1-.57.06,0.85,0.85,0,0,1-.52-0.24,2.51,2.51,0,0,1-.53-1,4.49,4.49,0,0,1-.18-0.55,0.46,0.46,0,0,1,.19-0.55,1.39,1.39,0,0,1,.58-0.09h0.57l2.27,0h0a1.21,1.21,0,0,1,.32,0A0.67,0.67,0,0,1,111,38a0.47,0.47,0,0,1,.23.3l0,0.15v0.17a2,2,0,0,1,0,.63A0.45,0.45,0,0,1,111.16,39.39Z"/><path class="cls-2" d="M109.37,28.65c0.3,0,.64,0,0.93,0a0.56,0.56,0,0,0,.63-0.36,5.33,5.33,0,0,0,0-1.79c-0.11-1.23-.21-2.46-0.34-3.69L110,19.13l-0.28-1.83-0.4-1.8-0.81-3.61c-0.24-1.21-.61-2.39-0.93-3.57l-0.25-.89a3.78,3.78,0,0,0-.3-0.86,1.43,1.43,0,0,0-1.34-.94l-3.7-.1h-0.09V4.83L102,4.92h-1.37l0.09-.09V5.47h-0.09L91.08,5.2l-9.59.25H81.42V4.83L81.49,4.9H80.12l0.07-.07V5.49H80.12l-2.07,0a15.19,15.19,0,0,0-2,.11,2,2,0,0,0-1.19,1.5l-0.55,2c-0.4,1.32-.69,2.67-1,4l-0.91,4-0.65,4.09c-0.25,1.36-.37,2.73-0.48,4.11-0.05.69-.15,1.37-0.17,2.06a2,2,0,0,0,.15,1,1,1,0,0,0,.91.27c1.38,0.08,2.76.05,4.14,0.08,2.76,0,5.52.08,8.28,0.07h8.28l8.28,0,8.28-.1V28.65Zm0,0.12-8.28.11H84.54c-2.76,0-5.52,0-8.28-.05-1.38,0-2.76,0-4.14-.08a1.08,1.08,0,0,1-1-.3,2.1,2.1,0,0,1-.17-1c0-.69.11-1.38,0.16-2.07,0.12-1.38.23-2.75,0.48-4.11l0.64-4.09,0.91-4c0.3-1.35.59-2.7,1-4l0.55-2A2.05,2.05,0,0,1,76,5.53a15.19,15.19,0,0,1,2.08-.12l2.07-.05-0.06.06V4.77h1.5V5.38l-0.07-.07L91.08,5l9.59,0.25-0.09.09V4.75h1.54V5.42L102,5.33l3.71,0.09a1.68,1.68,0,0,1,.92.29,1.88,1.88,0,0,1,.59.76,3.83,3.83,0,0,1,.31.88l0.25,0.89c0.32,1.2.69,2.38,0.94,3.59l0.82,3.61,0.4,1.81,0.29,1.83,0.58,3.66c0.13,1.23.23,2.46,0.34,3.69a5.42,5.42,0,0,1,0,1.89,0.7,0.7,0,0,1-.34.41,1.25,1.25,0,0,1-.5.1c-0.32,0-.61,0-0.92,0V28.77Z"/><path class="cls-2" d="M74.78,40L75.15,39a1.51,1.51,0,0,0,.12-0.48A0.24,0.24,0,0,0,75,38.21c-0.31,0-.71,0-1.06,0l-2.16,0h0a1,1,0,0,0-.41,0,0.32,0.32,0,0,0-.27.23,2.47,2.47,0,0,0,0,.43,1.35,1.35,0,0,0,0,.42,1.12,1.12,0,0,0,.69.44L72.59,40c0.14,0.06.28,0.1,0.42,0.15a3,3,0,0,0,.42.13l0.44,0.08a1.16,1.16,0,0,0,.44,0,0.93,0.93,0,0,0,.37-0.21A1.4,1.4,0,0,0,74.78,40Zm0.7-1.66L75.26,39a7.75,7.75,0,0,1-.31.84,1.39,1.39,0,0,1-.25.37,1,1,0,0,1-.39.23,1.2,1.2,0,0,1-.45,0l-0.44-.07A2.9,2.9,0,0,1,73,40.24c-0.14,0-.29-0.09-0.42-0.15l-0.83-.34-0.42-.17A0.55,0.55,0,0,1,71,39.26a1.39,1.39,0,0,1,0-.46,2.42,2.42,0,0,1,0-.46A0.46,0.46,0,0,1,71.35,38a1.1,1.1,0,0,1,.48,0h0L74,38a10.1,10.1,0,0,1,1.1,0,0.58,0.58,0,0,1,.3.14A0.44,0.44,0,0,1,75.48,38.38Z"/><path class="cls-3" d="M91.08,22.84c0.92,0,16.29-.2,17.23-0.24s1.26-.36.94-1.85-2.75-11-3.14-12.49S105.16,7,103.28,6.77,92.85,6.22,90.89,6.22s-10.13.31-12,.55-2.44,0-2.83,1.49-2.83,11-3.14,12.49,0,1.81.94,1.85S90.15,22.84,91.08,22.84Z"/><path class="cls-4" d="M90.12,22.84c0.92,0,16.29-.2,17.23-0.24s1.26-.36.94-1.85-2.75-11-3.14-12.49S104.21,7,102.32,6.77,91.9,6.22,89.94,6.22s-10.13.31-12,.55-2.44,0-2.83,1.49-2.83,11-3.14,12.49,0,1.81.94,1.85S89.2,22.84,90.12,22.84Z"/><path class="cls-1" d="M111.11,27a74.42,74.42,0,0,0-1.26-9.74c-0.87-4.4-2.2-9.51-2.51-10.29a1.71,1.71,0,0,0-1.73-1.41L102,5.42V4.83h-1.37V5.38c-3.94-.11-8-0.26-9.59-0.26-1.32,0-5.65.15-9.59,0.26V4.83H80.12V5.42l-3.58.09a1.71,1.71,0,0,0-1.73,1.41c-0.31.79-1.65,5.9-2.51,10.29A74.6,74.6,0,0,0,71,27c-0.16,2.2.47,1.65,1.73,1.81s15.16,0.09,18.3.09,17,0.06,18.3-.09S111.26,29.17,111.11,27ZM74.32,27A1.73,1.73,0,1,1,76,25.24,1.73,1.73,0,0,1,74.32,27Zm16.76-4.12c-0.92,0-16.29-.2-17.23-0.24s-1.26-.36-0.94-1.85S75.65,9.76,76,8.26,77,7,78.88,6.77s10.06-.55,12-0.55,10.5,0.31,12.38.55,2.43,0,2.83,1.49,2.83,11,3.14,12.49,0,1.81-.94,1.85S92,22.84,91.08,22.84ZM107.83,27a1.73,1.73,0,1,1,1.73-1.73A1.73,1.73,0,0,1,107.83,27Z"/><path class="cls-3" d="M70.22,19.47H69.83c-0.92,0-1.63,0-2,0a1.61,1.61,0,0,0-1.47,1.22,1.53,1.53,0,0,0,1.41,1.91c1,0,1.56,0,2,0"/><path class="cls-2" d="M70.22,19.48H68.1a1.8,1.8,0,0,0-.74.11,1.46,1.46,0,0,0-.93,1.22,2.1,2.1,0,0,0,.12.81,1.32,1.32,0,0,0,.44.62c0.1,0.07.22,0.11,0.33,0.16s0.24,0,.35.07a5.31,5.31,0,0,0,.68,0c0.86,0,1.43.06,1.43,0.06v0s-0.57,0-1.43,0a5.44,5.44,0,0,1-.7,0,2.66,2.66,0,0,1-.39-0.07,3.61,3.61,0,0,1-.37-0.19,1.4,1.4,0,0,1-.49-0.71,2.24,2.24,0,0,1-.1-0.87A1.29,1.29,0,0,1,66.64,20a2,2,0,0,1,.69-0.49,1.85,1.85,0,0,1,.78-0.1h0.69l1.43,0v0Z"/><rect class="cls-5" x="80.34" y="30.66" width="21.54" height="5.34" rx="0.71" ry="0.71"/><path class="cls-2" d="M101.94,35.31a0.88,0.88,0,0,1-.26.55,1,1,0,0,1-.7.2H85.66c-1.54,0-3.12,0-4.75,0a0.5,0.5,0,0,1-.28-0.12,0.58,0.58,0,0,1-.21-0.23A1.14,1.14,0,0,1,80.31,35V33.82c0-.82,0-1.64,0-2.46a2,2,0,0,1,.07-0.3,0.84,0.84,0,0,1,.2-0.25,0.88,0.88,0,0,1,.59-0.18H98c1.23,0,2.36,0,3.36,0a0.78,0.78,0,0,1,.32.17,0.79,0.79,0,0,1,.17.31,2.71,2.71,0,0,1,0,.67c0,0.43,0,.83,0,1.19,0,1.44,0,2.26,0,2.26h0.06Zm-0.06,0s0-.82,0-2.26c0-.36,0-0.76,0-1.19a2.74,2.74,0,0,0,0-.67,0.62,0.62,0,0,0-.48-0.48c-1-.07-2.13,0-3.36,0H81.18a0.72,0.72,0,0,0-.81.68V35a0.75,0.75,0,0,0,.55.89c1.6,0,3.2,0,4.74,0H100a2.94,2.94,0,0,0,1.58-.17,0.81,0.81,0,0,0,.22-0.49h0.06Z"/><rect class="cls-1" x="80.34" y="30.66" width="19.48" height="5.34" rx="0.71" ry="0.71"/><rect class="cls-6" x="86.48" y="32.07" width="9.19" height="2.51" rx="0.71" ry="0.71"/><path class="cls-7" d="M87.18,34.59l-0.24,0a1.39,1.39,0,0,1-.26-0.16A0.78,0.78,0,0,1,86.49,34a7.89,7.89,0,0,1,0-1.09,0.9,0.9,0,0,1,.19-0.65,0.88,0.88,0,0,1,.7-0.26c1,0,2.25,0,3.55,0H95a0.76,0.76,0,0,1,.73.69c0,0.35,0,.69,0,1a0.81,0.81,0,0,1-.51.83,4.7,4.7,0,0,1-1,0h-7Zm0,0h7a4.74,4.74,0,0,0,1,0,0.73,0.73,0,0,0,.46-0.76c0-.34,0-0.69,0-1a0.66,0.66,0,0,0-.66-0.6H90.89c-1.3,0-2.51,0-3.55,0a0.81,0.81,0,0,0-.65.22,0.86,0.86,0,0,0-.19.61,8.14,8.14,0,0,0,0,1.09,0.76,0.76,0,0,0,.17.35,1.51,1.51,0,0,0,.25.16Z"/><path class="cls-8" d="M110.4,37.92h-3.19c-0.67,0-.76.29-0.5,1s0.42,1.59,1.34,1.55a9.94,9.94,0,0,0,2.69-.89c0.67-.24.5-0.49,0.5-1.16S110.4,37.92,110.4,37.92Z"/><path class="cls-5" d="M110.65,37.92h-3.19c-0.67,0-.76.29-0.5,1s0.42,1.59,1.34,1.55a9.9,9.9,0,0,0,2.69-.89c0.67-.24.5-0.49,0.5-1.16S110.65,37.92,110.65,37.92Z"/><path class="cls-3" d="M111.93,19.47h0.39c0.92,0,1.63,0,2,0a1.6,1.6,0,0,1,1.47,1.22,1.53,1.53,0,0,1-1.41,1.91c-1,0-1.56,0-2,0"/><path class="cls-2" d="M111.93,19.46l1.43,0h0.69a1.85,1.85,0,0,1,.78.1,2,2,0,0,1,.69.49,1.29,1.29,0,0,1,.34.81,2.26,2.26,0,0,1-.1.87,1.4,1.4,0,0,1-.49.71,3.5,3.5,0,0,1-.37.19,2.68,2.68,0,0,1-.39.07,5.42,5.42,0,0,1-.7,0c-0.86,0-1.43,0-1.43,0v0s0.57,0,1.43-.06a5.31,5.31,0,0,0,.68,0c0.11,0,.24,0,0.35-0.07s0.23-.1.33-0.16a1.31,1.31,0,0,0,.44-0.62,2.1,2.1,0,0,0,.12-0.81,1.46,1.46,0,0,0-.93-1.22,1.8,1.8,0,0,0-.74-0.11h-2.12v0Z"/><text class="cls-9" transform="translate(87.42 34.06)">EL</text><path class="cls-10" d="M107.94,41.37v3.79H74.21V41.37l-0.35-.09c0.88,0.18,1.36.12,1.71-.47h31c0.35,0.59.83,0.65,1.71,0.47Z"/><path class="cls-8" d="M106.58,40.81h-31a14,14,0,0,0,1-2.12c0.24-.65.47-1,1.89-1h25.22c1.41,0,1.65.35,1.89,1A13.94,13.94,0,0,0,106.58,40.81Z"/><path class="cls-10" d="M105.57,38.69c-0.24-.65-0.47-1-1.89-1h-2.37c1.42,0,1.65.35,1.89,1a13.94,13.94,0,0,0,1,2.12h2.37A13.94,13.94,0,0,1,105.57,38.69Z"/><path class="cls-2" d="M112.51,38.13V48.65c0,0.77.2,2.06-.86,2.06h-2.94c-0.72,0-.77-0.94-0.77-2V41.37l0.34-.09A18.09,18.09,0,0,0,111.73,40l0.08,0,0.07,0A2.24,2.24,0,0,0,112.51,38.13Z"/><path class="cls-11" d="M111.81,40l0.07,0Z"/><path class="cls-11" d="M111.73,40a18.09,18.09,0,0,1-3.44,1.27A22.56,22.56,0,0,0,111.73,40Z"/><path class="cls-11" d="M70.43,40a22.64,22.64,0,0,0,3.44,1.27A18.15,18.15,0,0,1,70.43,40Z"/><path class="cls-11" d="M70.27,39.93l0.07,0Z"/><path class="cls-2" d="M69.64,48.65V38.13a2.24,2.24,0,0,0,.63,1.8l0.07,0,0.08,0a18.15,18.15,0,0,0,3.44,1.27l0.35,0.09v7.34c0,1.06-.05,2-0.78,2H70.5C69.44,50.72,69.64,49.42,69.64,48.65Z"/><circle class="cls-6" cx="74.52" cy="25.25" r="1.73"/><circle class="cls-12" cx="74.3" cy="25.24" r="1.73"/><path class="cls-5" d="M111.13,27a74.09,74.09,0,0,0-1.26-9.74c-0.87-4.4-2.2-9.51-2.51-10.29a1.71,1.71,0,0,0-1.73-1.41l-3.58-.09V4.83h-1.37V5.38c-3.56-.1-7.18-0.24-9.05-0.26-0.22.36-.42,0.73-0.63,1.1,2.11,0,10.43.32,12.29,0.55s2.44,0,2.83,1.49,2.83,11,3.14,12.49,0,1.81-.94,1.85-16.3.24-17.23,0.24l-4.48-.05a16.23,16.23,0,0,0-.93,2.92c-0.5,1.66-1.94,2.39-3.24,3.17h8.65c3.14,0,17,.06,18.3-0.09S111.28,29.16,111.13,27Zm-3.27,0a1.73,1.73,0,1,1,1.73-1.73A1.73,1.73,0,0,1,107.85,27Z"/><circle class="cls-6" cx="107.64" cy="25.24" r="1.73"/><circle class="cls-12" cx="107.79" cy="25.24" r="1.73"/><circle class="cls-1" cx="108.25" cy="39.17" r="0.85"/><circle class="cls-12" cx="108.09" cy="39.17" r="0.85"/><path class="cls-8" d="M71.75,37.92h3.19c0.67,0,.76.29,0.5,1S75,40.48,74.1,40.44a9.93,9.93,0,0,1-2.69-.89c-0.67-.24-0.5-0.49-0.5-1.16S71.75,37.92,71.75,37.92Z"/><path class="cls-5" d="M71.5,37.92h3.19c0.67,0,.75.29,0.5,1s-0.42,1.59-1.34,1.55a9.93,9.93,0,0,1-2.69-.89c-0.67-.24-0.5-0.49-0.5-1.16S71.5,37.92,71.5,37.92Z"/><circle class="cls-1" cx="73.91" cy="39.17" r="0.85"/><circle class="cls-12" cx="74.06" cy="39.17" r="0.86"/><rect class="cls-13" x="80.36" y="5.07" width="0.9" height="1.89" rx="0.24" ry="0.24"/><rect class="cls-13" x="100.9" y="5.07" width="0.9" height="1.89" rx="0.24" ry="0.24"/><path class="cls-2" d="M101.94,35.31a0.88,0.88,0,0,1-.26.55,1,1,0,0,1-.7.2H85.66c-1.54,0-3.12,0-4.75,0a0.5,0.5,0,0,1-.28-0.12,0.58,0.58,0,0,1-.21-0.23A1.14,1.14,0,0,1,80.31,35V33.82c0-.82,0-1.64,0-2.46a2,2,0,0,1,.07-0.3,0.84,0.84,0,0,1,.2-0.25,0.88,0.88,0,0,1,.59-0.18H98c1.23,0,2.36,0,3.36,0a0.78,0.78,0,0,1,.32.17,0.79,0.79,0,0,1,.17.31,2.71,2.71,0,0,1,0,.67c0,0.43,0,.83,0,1.19,0,1.44,0,2.26,0,2.26h0.06Zm-0.06,0s0-.82,0-2.26c0-.36,0-0.76,0-1.19a2.74,2.74,0,0,0,0-.67,0.62,0.62,0,0,0-.48-0.48c-1-.07-2.13,0-3.36,0H81.18a0.72,0.72,0,0,0-.81.68V35a0.75,0.75,0,0,0,.55.89c1.6,0,3.2,0,4.74,0H100a2.94,2.94,0,0,0,1.58-.17,0.81,0.81,0,0,0,.22-0.49h0.06Z"/><path class="cls-1" d="M55.58,39.63a46,46,0,0,1-2.28,5.49h0c0.16-1.48.64-2.92,1.16-6,0.76-4.46.86-5,1.13-7.07,0-.3.08-0.64,0.13-1a28.34,28.34,0,0,1,.19,7.17A8,8,0,0,1,55.58,39.63Z"/><path class="cls-2" d="M55.39,40.44l-0.79,2c-0.18.46-.36,0.92-0.58,1.37l-0.63,1.35,0,0.05H53.19l0-.1c0.22-1.17.44-2.35,0.68-3.51s0.5-2.32.68-3.5l0.58-3.52c0.18-1.18.41-2.34,0.54-3.53l0-.32,0,0.32c0.07,0.72.18,1.43,0.23,2.15s0.11,1.44.08,2.16v1.08c0,0.36-.05.72-0.08,1.08a5.31,5.31,0,0,1-.14,1.07l-0.25,1.05Zm0.38-1.62,0.06-.24A5.3,5.3,0,0,0,56,37.51c0-.36.06-0.72,0.07-1.08V35.36c0-.72-0.06-1.44-0.09-2.15s-0.16-1.43-.24-2.14h0.07c-0.13,1.18-.34,2.36-0.52,3.53l-0.55,3.53c-0.16,1.18-.43,2.34-0.65,3.51s-0.44,2.33-.65,3.5L53.3,45h0l-0.08.05,0.62-1.34c0.22-.44.39-0.91,0.57-1.37l1.07-2.77Z"/><path class="cls-2" d="M55.58,48.66c0,0.77.2,2.06-.86,2.06H51.78c-0.72,0-.77-0.94-0.77-2v-0.8h0l0.58,0c0.89,0,1.6-.31,1.66-2.07,0-.24,0-0.47,0-0.7h0a46,46,0,0,0,2.28-5.49v9Z"/><path class="cls-1" d="M12.17,39.69a46.1,46.1,0,0,0,2.28,5.49h0c-0.16-1.48-.64-2.92-1.16-6-0.76-4.46-.86-5-1.13-7.07l-0.13-1a28.38,28.38,0,0,0-.19,7.17A8.11,8.11,0,0,0,12.17,39.69Z"/><path class="cls-2" d="M12.48,40.46l0.78,2c0.18,0.46.36,0.92,0.58,1.37l0.63,1.34h0l0,0C14.2,44,14,42.84,13.75,41.67s-0.51-2.33-.68-3.51l-0.58-3.52c-0.18-1.17-.41-2.35-0.54-3.53h0.16c-0.07.71-.18,1.43-0.23,2.14s-0.11,1.43-.08,2.15v1.08c0,0.36.05,0.71,0.08,1.07l0,0.54a2.51,2.51,0,0,0,.1.52l0.25,1.05Zm-0.6-1.55-0.06-.25a2.87,2.87,0,0,1-.1-0.54l0-.54c0-.36-0.06-0.72-0.07-1.08V35.41c0-.72.06-1.44,0.09-2.16s0.17-1.43.24-2.15L12,30.35l0.08,0.75c0.13,1.18.34,2.35,0.52,3.53l0.55,3.53c0.16,1.18.43,2.34,0.65,3.51s0.44,2.34.65,3.51v0H14.43l-0.62-1.35c-0.22-.45-0.39-0.91-0.57-1.37l-1.07-2.77Z"/><path class="cls-2" d="M12.17,48.71c0,0.77-.2,2.06.86,2.06H16c0.72,0,.77-0.94.77-2V48h0l-0.58,0c-0.89,0-1.6-.31-1.66-2.07,0-.24,0-0.47,0-0.7h0a46.1,46.1,0,0,1-2.28-5.49v9Z"/><path class="cls-14" d="M48.14,46.38H19.61c0.1-.23.2-0.5,0.32-0.81,0.81-2.15.9-2.48,2.59-2.45S33.88,43,33.88,43s9.52,0.11,11.35.09,1.78,0.3,2.59,2.45C47.94,45.88,48,46.15,48.14,46.38Z"/><path class="cls-1" d="M16.74,47.91l-0.58,0c-0.89,0-1.6-.31-1.66-2.07,0-.24,0-0.47,0-0.7-0.16-1.48-.64-2.92-1.16-6-0.76-4.46-.86-5-1.13-7.07h0c0.92,2.2,1,3.22,3,3.84a16.14,16.14,0,0,0,4.62.78v0.08a4,4,0,0,0,4,3.22c3.14,0.13,5.93.44,10.09,0.44S40.83,40.14,44,40a4,4,0,0,0,4-3.22V36.7a16.12,16.12,0,0,0,4.62-.78c2.06-.63,2.09-1.64,3-3.84h0c-0.27,2-.37,2.62-1.13,7.07-0.52,3.05-1,4.49-1.16,6,0,0.23,0,.46,0,0.7-0.06,1.77-.77,2-1.66,2.07l-0.58,0H49.49c-0.43,0-.74-0.08-1.36-1.55-0.1-.23-0.2-0.5-0.32-0.81-0.81-2.15-.9-2.48-2.59-2.45S33.88,43,33.88,43s-9.52.11-11.35,0.09-1.78.3-2.59,2.45c-0.12.31-.22,0.57-0.32,0.81-0.62,1.47-.92,1.55-1.36,1.55H16.74Zm34.9-6a0.94,0.94,0,1,0-.94.94A0.94,0.94,0,0,0,51.64,41.88ZM18,41.88a0.94,0.94,0,1,0-.94.94A0.94,0.94,0,0,0,18,41.88Z"/><path class="cls-2" d="M16.74,47.92a5.81,5.81,0,0,1-1.1-.08,1.28,1.28,0,0,1-.87-0.63,2.73,2.73,0,0,1-.27-1.06c0-.37,0-0.73-0.09-1.09-0.27-1.44-.54-2.88-0.84-4.31-0.14-.72-0.31-1.43-0.42-2.16L12.8,36.42l-0.71-4.33V32h0.13l0,0,0.46,1.14a9.23,9.23,0,0,0,.49,1.11,2.43,2.43,0,0,0,.33.5,2.29,2.29,0,0,0,.42.42,3.46,3.46,0,0,0,.51.31,4.74,4.74,0,0,0,.56.22c0.37,0.14.79,0.21,1.18,0.32l0.6,0.15a3.26,3.26,0,0,0,.6.12L19.8,36.6h0.1v0.14a5.42,5.42,0,0,0,.84,1.71,3.88,3.88,0,0,0,.66.67,4.08,4.08,0,0,0,.84.43,6.37,6.37,0,0,0,1.88.33l2,0.11c1.3,0.08,2.6.16,3.91,0.19l3.91,0.12,3.91-.12c1.3,0,2.61-.11,3.91-0.18l2-.11a6.37,6.37,0,0,0,1.89-.33,4.07,4.07,0,0,0,.84-0.44A3.9,3.9,0,0,0,47,38.47a5.4,5.4,0,0,0,.84-1.72V36.61H48l2.43-.25a3.25,3.25,0,0,0,.6-0.12l0.59-.15c0.39-.11.8-0.18,1.17-0.32a4.61,4.61,0,0,0,.57-0.23,3.47,3.47,0,0,0,.5-0.31,2.27,2.27,0,0,0,.42-0.42,2.44,2.44,0,0,0,.33-0.5,9.26,9.26,0,0,0,.49-1.11L55.51,32l0-.05H55.7l0,0.1-1.14,7.09L53.83,42.7a26,26,0,0,0-.54,3.54,1.79,1.79,0,0,1-.86,1.56,5,5,0,0,1-1.8.2h-0.9a1.1,1.1,0,0,1-.89-0.23A5.35,5.35,0,0,1,48,46.17c-0.23-.55-0.42-1.12-0.65-1.67a1.79,1.79,0,0,0-1.11-1.24,11.23,11.23,0,0,0-1.78-.08l-1.79,0-7.18-.07c-2.39,0-4.78,0-7.18,0l-3.59,0H22.92a4.1,4.1,0,0,0-1.75.21,3,3,0,0,0-.93,1.48c-0.21.56-.42,1.12-0.66,1.67a7.24,7.24,0,0,1-.4.81,1.18,1.18,0,0,1-.64.61C17.94,48,17.34,47.92,16.74,47.92Zm0,0c0.6,0,1.2,0,1.79,0a1.16,1.16,0,0,0,.62-0.6,7,7,0,0,0,.39-0.8c0.23-.55.44-1.11,0.65-1.67a3,3,0,0,1,.95-1.5,4.12,4.12,0,0,1,1.77-.22l1.79,0,3.59,0c2.39,0,4.78-.07,7.18,0l7.18,0h1.79a11,11,0,0,1,1.8.08,1.91,1.91,0,0,1,1.19,1.31c0.24,0.56.43,1.12,0.66,1.67a5.31,5.31,0,0,0,.84,1.55,1,1,0,0,0,.79.19h0.9a5,5,0,0,0,1.74-.19,1.66,1.66,0,0,0,.77-1.44,26.3,26.3,0,0,1,.53-3.55l0.7-3.52,1.12-7.08,0.09,0.1h0l0.08-.05-0.45,1.14a9.31,9.31,0,0,1-.5,1.14,2.57,2.57,0,0,1-.34.53,2.49,2.49,0,0,1-.45.45,3.61,3.61,0,0,1-.54.34,4.76,4.76,0,0,1-.57.23c-0.39.15-.8,0.22-1.19,0.33l-0.6.15a3.23,3.23,0,0,1-.6.13L48,36.8l0.09-.1v0.12a5.62,5.62,0,0,1-.87,1.78,4.13,4.13,0,0,1-.7.71,4.31,4.31,0,0,1-.89.47,6.57,6.57,0,0,1-1.95.35l-2,.11c-2.61.18-5.21,0.22-7.82,0.31L30,40.43c-1.31,0-2.61-.11-3.91-0.18l-2-.11a6.56,6.56,0,0,1-2-.35,4.33,4.33,0,0,1-.89-0.47,4.07,4.07,0,0,1-.7-0.72,5.64,5.64,0,0,1-.86-1.78V36.7l0.1,0.11-2.46-.27a3.22,3.22,0,0,1-.6-0.13l-0.59-.15c-0.4-.11-0.79-0.18-1.19-0.33a4.77,4.77,0,0,1-.58-0.24,3.61,3.61,0,0,1-.53-0.33,2.44,2.44,0,0,1-.45-0.45A2.54,2.54,0,0,1,13,34.38a9.48,9.48,0,0,1-.49-1.13L12.1,32.1l0.06,0h0l0.07-.08,0.68,4.34,0.34,2.17c0.1,0.73.27,1.44,0.4,2.16,0.29,1.43.56,2.87,0.82,4.31,0,0.37,0,.73.09,1.1a2.7,2.7,0,0,0,.26,1,1.25,1.25,0,0,0,.84.62A5.83,5.83,0,0,0,16.74,47.9Z"/><path class="cls-2" d="M51.63,41.88a1.52,1.52,0,0,0,0-.25,0.81,0.81,0,0,0-.4-0.47,1,1,0,0,0-.38-0.1,1,1,0,0,0-.43.07,0.85,0.85,0,0,0,0,1.55,1,1,0,0,0,.86,0,0.86,0.86,0,0,0,.38-0.51A1.5,1.5,0,0,0,51.63,41.88Zm0,0a1,1,0,0,1-.41.81,1,1,0,0,1-1,.11,1,1,0,0,1,0-1.89,1,1,0,0,1,1,.12,1,1,0,0,1,.36.6A1.5,1.5,0,0,1,51.65,41.88Z"/><path class="cls-2" d="M18,41.88a1.52,1.52,0,0,0,0-.25,0.82,0.82,0,0,0-.4-0.47,1,1,0,0,0-.39-0.1,1,1,0,0,0-.43.07,0.85,0.85,0,0,0,0,1.55,1,1,0,0,0,.86,0,0.85,0.85,0,0,0,.38-0.51A1.51,1.51,0,0,0,18,41.88Zm0,0a1,1,0,0,1-.41.81,1,1,0,0,1-1,.11,1,1,0,0,1,0-1.89,1,1,0,0,1,1,.12,1,1,0,0,1,.36.6A1.52,1.52,0,0,1,18,41.88Z"/><path class="cls-5" d="M55.59,32.07c-0.92,2.2-.95,3.22-3,3.84A16.12,16.12,0,0,1,48,36.7v0.08A4,4,0,0,1,44,40c-3.14.13-5.93,0.44-10.09,0.44S27.05,40.15,24,40a10.17,10.17,0,0,0-.9,3.11c2.7,0,10.79-.1,10.79-0.1s9.52,0.11,11.35.09,1.78,0.3,2.59,2.45c0.12,0.31.22,0.57,0.32,0.81,0.62,1.47.92,1.55,1.36,1.55H51l0.58,0c0.89,0,1.6-.31,1.66-2.07,0-.24,0-0.47,0-0.7,0.16-1.48.64-2.92,1.16-6,0.76-4.46.86-5,1.13-7.07h0ZM50.7,42.83a0.94,0.94,0,1,1,.94-0.94A0.94,0.94,0,0,1,50.7,42.83Z"/><path class="cls-2" d="M63.28,20.67a1.53,1.53,0,0,1-1.42,1.91c-1.41.06-2,0-2.5,0a0.88,0.88,0,0,1-.78-0.34,1.49,1.49,0,0,0-1-.43,3,3,0,0,1-.56,0,1,1,0,0,0,.24-1l0-.17c0.32,0,1.25,0,1.25-.58s0.41-.66,1.3-0.63,1.63,0,2,0A1.6,1.6,0,0,1,63.28,20.67Z"/><path class="cls-15" d="M57.07,21.87a1.5,1.5,0,0,1-.62.24,1,1,0,0,0-.88,1h0C55.5,22.5,55.44,22,55.4,21.5A14.17,14.17,0,0,0,55,19.57c0.13,0.33.55,0.2,1.05,0.18,1.19,0,1.15.25,1.24,0.92l0,0.17A1,1,0,0,1,57.07,21.87Z"/><path class="cls-8" d="M19.79,36.79V36.7a16.14,16.14,0,0,1-4.62-.78,3.85,3.85,0,0,1-1.35-.67,3.3,3.3,0,0,0,1.7,1,15.79,15.79,0,0,0,4.34.77Z"/><path class="cls-8" d="M55.6,32.07s-1,3.22-3,3.84A16.14,16.14,0,0,1,48,36.7v0.08A4,4,0,0,1,44,40c-3.14.13-5.93,0.44-10.09,0.44s-7-.3-10.09-0.44a4.16,4.16,0,0,1-2.65-.93,4,4,0,0,0,3,1.28c3.14,0.13,5.93.44,10.09,0.44s6.95-.3,10.09-0.44a4,4,0,0,0,4-3.22V37.05a16.09,16.09,0,0,0,4.62-.78A2.93,2.93,0,0,0,55.22,34Z"/><path class="cls-8" d="M55.16,34.38c0.13-.65.37-2,0.33-1.65"/><path class="cls-16" d="M55,19.57a14.17,14.17,0,0,1,.41,1.93c0,0.46.1,1,.16,1.59a32,32,0,0,1,.17,8c-0.46,2.58-1.08,4.23-3.14,4.86A16.12,16.12,0,0,1,48,36.7v0.08A4,4,0,0,1,44,40c-3.14.13-5.93,0.44-10.09,0.44s-7-.3-10.09-0.44a4,4,0,0,1-4-3.22V36.7a16.14,16.14,0,0,1-4.62-.78c-2.06-.63-2.09-1.64-3-3.84h0l-0.13-1A39.14,39.14,0,0,1,12.21,23c0.05-.55.11-1,0.15-1.48a15.22,15.22,0,0,1,.45-2.09c0.9-3.38,2.89-9.08,3.77-12,1.1-3.63,3-3.34,4.25-3.37,1.73,0,11-.25,13.06-0.25S45.2,4,46.93,4.07c1.21,0,3.15-.25,4.25,3.37C52.07,10.37,54.11,16.21,55,19.57Z"/><path class="cls-5" d="M55.56,23c-0.06-.59-0.12-1.12-0.16-1.58A13.79,13.79,0,0,0,55,19.52c-0.88-3.36-2.92-9.19-3.81-12.12-1.1-3.63-3-3.34-4.25-3.37-1,0-7.38,0-7.39,0-4,11.79,1.95,29.52-14.08,34a3.71,3.71,0,0,0-2,1.86l0.31,0c3.14,0.13,5.93.44,10.09,0.44S40.83,40.09,44,40a4,4,0,0,0,4-3.22V36.66a16.13,16.13,0,0,0,4.62-.78c2.06-.63,2.68-2.28,3.14-4.86A32,32,0,0,0,55.56,23Z"/><circle class="cls-17" cx="50.7" cy="41.88" r="0.94"/><circle class="cls-17" cx="17.05" cy="41.88" r="0.94"/><path class="cls-15" d="M10.58,21.75a1,1,0,0,1-.24-1l0-.17c0.08-.66,0-0.94,1.23-0.91,0.54,0,1,.16,1.08-0.26l0.13,0a15.22,15.22,0,0,0-.45,2.09c0,0.43-.1.93-0.15,1.48H12.07a1,1,0,0,0-.88-1A1.47,1.47,0,0,1,10.58,21.75Z"/><path class="cls-2" d="M10.58,21.75A3.22,3.22,0,0,1,10,21.69a1.5,1.5,0,0,0-1,.43,0.88,0.88,0,0,1-.77.33c-0.53,0-1.09.06-2.5,0a1.53,1.53,0,0,1-1.42-1.91,1.61,1.61,0,0,1,1.47-1.22c0.35,0,1.06,0,2,0s1.3,0.16,1.3.63,0.93,0.58,1.25.58l0,0.17A1,1,0,0,0,10.58,21.75Z"/><path class="cls-18" d="M53.39,17.29c0.45,1.6.18,3.3-2.59,3.54s-12.87.68-16.92,0.68S19.73,21.06,17,20.82s-3-1.94-2.59-3.54c0.53-1.89,2.79-8.17,3.57-10.2S19.79,5,21.09,4.85,31.7,4.42,33.88,4.42s11.49,0.32,12.78.43S49,5,49.82,7.09,52.86,15.4,53.39,17.29Z"/><path class="cls-2" d="M53.4,17.28a5.18,5.18,0,0,1,.17,1.11,4.58,4.58,0,0,1-.05.61,2.39,2.39,0,0,1-.28.68,2.57,2.57,0,0,1-1.49,1c-0.34.06-.69,0.13-1.07,0.17l-1.18.07-2.66.15c-1.9.1-4,.25-6.38,0.29s-4.88.2-7.56,0.17l-8.44-.23L20,21.06l-2.27-.12a7.91,7.91,0,0,1-1.15-.1L16,20.75l-0.56-.21a2.17,2.17,0,0,1-1.33-1.84,5.5,5.5,0,0,1,.44-2.3L16.06,12l1.6-4.4a5,5,0,0,1,1.15-2.05A3.42,3.42,0,0,1,21,4.76l9-.32c1.47,0,2.89-.13,4.32-0.12l4.13,0.15L46,4.75a8.83,8.83,0,0,1,1.72.18,2.44,2.44,0,0,1,1.41.86,10,10,0,0,1,1.25,2.77c0.63,1.79,1.24,3.34,1.65,4.64Zm0,0L52,13.23c-0.42-1.3-1-2.84-1.68-4.63a10,10,0,0,0-1.25-2.72c-0.66-.87-1.9-0.94-3-1l-7.56-.22-4.13-.13c-1.39,0-2.84.08-4.3,0.11L21,5a3.23,3.23,0,0,0-2.08.7,4.89,4.89,0,0,0-1.1,2L16.24,12l-1.5,4.43a5.35,5.35,0,0,0-.44,2.23,2,2,0,0,0,1.22,1.71L16,20.59l0.57,0.1a7.73,7.73,0,0,0,1.13.1L20,20.91l4.45,0.24,8.44,0.26c2.68,0,5.22-.11,7.56-0.14s4.48-.18,6.38-0.27l2.66-.14,1.18-.06c0.37,0,.73-0.11,1.06-0.16a2.54,2.54,0,0,0,1.47-1A2.35,2.35,0,0,0,53.49,19a4.83,4.83,0,0,0,.06-0.61A5.07,5.07,0,0,0,53.38,17.29Z"/><path class="cls-4" d="M50.8,20.86c2.77-.23,3-1.94,2.59-3.54-0.53-1.89-2.79-8.17-3.57-10.2S48,5,46.66,4.89l-1.57,0c1.3,0.12,2.47.23,3.26,2.28s3,8.31,3.57,10.2c0.45,1.6.05,3.35-2.72,3.59Z"/><path class="cls-8" d="M47.11,23.88a0.62,0.62,0,0,1,.63.7l-1.08,10a0.81,0.81,0,0,1-.78.7H22.59a0.81,0.81,0,0,1-.78-0.7l-1.08-10a0.62,0.62,0,0,1,.63-0.7H47.11Z"/><path class="cls-1" d="M46.75,23.59a0.62,0.62,0,0,1,.63.7l-1.08,10a0.81,0.81,0,0,1-.78.7H22.23a0.81,0.81,0,0,1-.78-0.7l-1.08-10a0.62,0.62,0,0,1,.63-0.7H46.75Z"/><path class="cls-2" d="M46.75,23.58l0.21,0a0.63,0.63,0,0,1,.41.43,20.61,20.61,0,0,1-.2,2.33L46.8,30,46.56,32.2l-0.13,1.2L46.37,34a1.2,1.2,0,0,1-.18.62,0.65,0.65,0,0,1-.25.23,0.61,0.61,0,0,1-.32.12A4.67,4.67,0,0,1,45,35H22.72a1.94,1.94,0,0,1-.87-0.1,0.92,0.92,0,0,1-.5-0.77L20.6,27.38c-0.1-1.13-.3-2.22-0.31-3.36A0.78,0.78,0,0,1,21,23.48h2.45c4.31,0,8.33,0,11.78,0Zm0,0-11.49.07c-3.45,0-7.47.05-11.78,0H21a0.59,0.59,0,0,0-.53.34c0,1.06.21,2.21,0.3,3.32l0.73,6.82a0.75,0.75,0,0,0,.38.62,1.75,1.75,0,0,0,.81.1H45a1.24,1.24,0,0,0,1.16-.33,3.29,3.29,0,0,0,.24-1.21l0.13-1.2L46.74,30l0.4-3.6a21.44,21.44,0,0,0,.21-2.32A0.65,0.65,0,0,0,46.75,23.6Z"/><path class="cls-19" d="M16.11,33.31c-2.14,0-2.73-2.67-2.75-6a14.35,14.35,0,0,1,.32-2.61,17.12,17.12,0,0,1,1.92.74c0.78,0.36,1,.94,1.36,2.61s0.51,3.08.82,5.26C17.79,33.27,17.07,33.31,16.11,33.31Z"/><path class="cls-17" d="M13.68,27.27a13.83,13.83,0,0,1,.3-2.52l-0.29-.09a14.35,14.35,0,0,0-.32,2.61c0,3.37.6,6,2.75,6h0.28C14.28,33.28,13.69,30.62,13.68,27.27Z"/><circle class="cls-20" cx="16.06" cy="31.12" r="1.18"/><circle class="cls-20" cx="15.29" cy="27.91" r="1.34"/><path class="cls-4" d="M15,31.12A1.17,1.17,0,0,1,16.06,30H16a1.18,1.18,0,0,0,0,2.36h0.1A1.17,1.17,0,0,1,15,31.12Z"/><path class="cls-4" d="M14.17,27.91a1.34,1.34,0,0,1,1.18-1.33H15.18a1.34,1.34,0,1,0,0,2.68h0.16A1.34,1.34,0,0,1,14.17,27.91Z"/><path class="cls-19" d="M49.93,33.27c0.32-2.18.5-3.72,0.82-5.26s0.58-2.25,1.36-2.61A17.07,17.07,0,0,1,54,24.66a14.25,14.25,0,0,1,.32,2.61c0,3.37-.6,6-2.75,6C50.65,33.31,49.93,33.27,49.93,33.27Z"/><path class="cls-17" d="M54,27.27a13.7,13.7,0,0,0-.3-2.52L54,24.66a14.25,14.25,0,0,1,.32,2.61c0,3.37-.6,6-2.75,6H51.33C53.45,33.28,54,30.62,54,27.27Z"/><circle class="cls-20" cx="51.66" cy="31.12" r="1.18"/><circle class="cls-20" cx="52.43" cy="27.91" r="1.34"/><path class="cls-4" d="M52.74,31.12A1.17,1.17,0,0,0,51.66,30h0.1a1.18,1.18,0,0,1,0,2.36h-0.1A1.17,1.17,0,0,0,52.74,31.12Z"/><path class="cls-4" d="M53.55,27.91a1.34,1.34,0,0,0-1.18-1.33h0.16a1.34,1.34,0,1,1,0,2.68H52.38A1.34,1.34,0,0,0,53.55,27.91Z"/><path class="cls-21" d="M35.54,37.94H35.16a0.39,0.39,0,0,1-.42-0.47,0.66,0.66,0,0,1,.65-0.58h0.46a0.07,0.07,0,0,0,.08-0.06c0-.13.06-0.25,0.08-0.38a0.1,0.1,0,0,1,.11-0.09h0.16a0.06,0.06,0,0,1,.06.08l-0.15.69a0.1,0.1,0,0,1-.12.09H35.35a0.25,0.25,0,0,0-.25.17,0.16,0.16,0,0,0,.16.23H36c0.11,0,.12,0,0.09.11s0,0.21-.26.21H35.54Z"/><path class="cls-21" d="M34,37.94H33.58a0.39,0.39,0,0,1-.42-0.47,0.65,0.65,0,0,1,.65-0.58h0.46a0.07,0.07,0,0,0,.08-0.06c0-.13.06-0.25,0.08-0.38a0.1,0.1,0,0,1,.11-0.09H34.7a0.06,0.06,0,0,1,.06.08c0,0.23-.1.46-0.15,0.69a0.1,0.1,0,0,1-.12.09H33.76a0.25,0.25,0,0,0-.25.17,0.16,0.16,0,0,0,.16.23h0.72c0.11,0,.12,0,0.09.11s0,0.21-.26.21H34Z"/><path class="cls-21" d="M30.43,36.89H31a0.41,0.41,0,0,1,.34.64,0.62,0.62,0,0,1-.58.41c-0.27,0-.53,0-0.8,0-0.06,0-.08,0-0.06-0.09l0-.06c0-.18,0-0.17.22-0.17h0.65a0.25,0.25,0,0,0,.27-0.21,0.15,0.15,0,0,0-.16-0.19H30.15c-0.09,0-.11,0-0.09-0.11s0.09-.42.13-0.63a0.13,0.13,0,0,1,.15-0.12c0.23,0,.2,0,0.16.2Z"/><path class="cls-21" d="M37.32,37.94H36.8a0.4,0.4,0,0,1-.43-0.52c0-.15.06-0.3,0.09-0.45a0.1,0.1,0,0,1,.11-0.09h0.15c0.06,0,.08,0,0.07.09l-0.09.42a0.16,0.16,0,0,0,.18.22h0.44a0.07,0.07,0,0,0,.08-0.07c0-.19.08-0.37,0.12-0.55a0.11,0.11,0,0,1,.13-0.11H37.8a0.06,0.06,0,0,1,.06.08l-0.3,1.42a0.09,0.09,0,0,1-.1.08H37.29c-0.06,0-.08,0-0.07-0.09L37.31,38V37.94Z"/><path class="cls-21" d="M32.15,37.94H32a0.39,0.39,0,0,1-.44-0.5c0-.16.07-0.31,0.1-0.47a0.09,0.09,0,0,1,.1-0.08h0.16c0.06,0,.08,0,0.07.09l-0.09.41a0.16,0.16,0,0,0,.18.23h0.29a0.24,0.24,0,0,0,.26-0.2c0-.14.06-0.28,0.09-0.42a0.11,0.11,0,0,1,.12-0.1c0.25,0,.23,0,0.18.22s0,0.23-.08.34a0.64,0.64,0,0,1-.63.49H32.15Z"/><path class="cls-22" d="M35.46,37.94H35.08a0.39,0.39,0,0,1-.42-0.47,0.65,0.65,0,0,1,.65-0.58h0.46a0.07,0.07,0,0,0,.08-0.06c0-.13.06-0.25,0.08-0.38a0.1,0.1,0,0,1,.11-0.09h0.16a0.06,0.06,0,0,1,.06.08c0,0.23-.1.46-0.15,0.69a0.1,0.1,0,0,1-.12.09H35.27a0.25,0.25,0,0,0-.25.17,0.16,0.16,0,0,0,.16.23H35.9c0.11,0,.12,0,0.1.11s0,0.21-.27.21H35.46Z"/><path class="cls-22" d="M33.88,37.94H33.5a0.39,0.39,0,0,1-.42-0.47,0.66,0.66,0,0,1,.65-0.58H34.2a0.07,0.07,0,0,0,.08-0.06c0-.13.06-0.25,0.08-0.38a0.1,0.1,0,0,1,.11-0.09h0.15a0.06,0.06,0,0,1,.06.08c0,0.23-.1.46-0.15,0.69a0.1,0.1,0,0,1-.12.09H33.68a0.25,0.25,0,0,0-.26.17,0.16,0.16,0,0,0,.16.23h0.72c0.11,0,.12,0,0.09.11s0,0.21-.26.21H33.88Z"/><path class="cls-22" d="M30.35,36.89h0.57a0.41,0.41,0,0,1,.34.64,0.62,0.62,0,0,1-.58.41c-0.27,0-.53,0-0.8,0-0.07,0-.08,0-0.06-0.09l0-.06c0-.18,0-0.17.22-0.17h0.65A0.25,0.25,0,0,0,31,37.41a0.15,0.15,0,0,0-.16-0.19H30.07c-0.09,0-.11,0-0.09-0.11s0.09-.42.13-0.63a0.13,0.13,0,0,1,.14-0.12c0.23,0,.2,0,0.16.2Z"/><path class="cls-22" d="M37.24,37.94H36.72a0.4,0.4,0,0,1-.43-0.52c0-.15.06-0.3,0.09-0.45a0.1,0.1,0,0,1,.11-0.09h0.15c0.06,0,.08,0,0.07.09l-0.09.42a0.16,0.16,0,0,0,.18.22h0.44a0.07,0.07,0,0,0,.09-0.07c0-.19.08-0.37,0.12-0.55a0.11,0.11,0,0,1,.13-0.11h0.15a0.05,0.05,0,0,1,.06.08l-0.3,1.42a0.09,0.09,0,0,1-.1.08H37.22c-0.06,0-.08,0-0.07-0.09L37.23,38A0.68,0.68,0,0,0,37.24,37.94Z"/><path class="cls-22" d="M32.08,37.94H31.94a0.39,0.39,0,0,1-.44-0.5c0-.16.07-0.31,0.1-0.47a0.09,0.09,0,0,1,.1-0.08h0.16c0.06,0,.08,0,0.07.09l-0.09.41a0.16,0.16,0,0,0,.19.23h0.28a0.24,0.24,0,0,0,.26-0.2c0-.14.06-0.28,0.09-0.42a0.11,0.11,0,0,1,.12-0.1c0.25,0,.23,0,0.18.22s0,0.23-.08.34a0.64,0.64,0,0,1-.63.49H32.08Z"/><path class="cls-5" d="M46.71,23.59l-9.77.08a5.48,5.48,0,0,1-1,3.15C34.06,29.71,32.61,32,31,34.9L45.48,35a0.81,0.81,0,0,0,.78-0.7l1.08-10A0.62,0.62,0,0,0,46.71,23.59Z"/></svg>