<svg id="Buddy_electric-2" data-name="Buddy electric" xmlns="http://www.w3.org/2000/svg" viewBox="0 0 79 60.37"><defs><style>.cls-1,.cls-14,.cls-17,.cls-20,.cls-22,.cls-52,.cls-53{fill:#e6bd82;}.cls-1,.cls-14,.cls-17,.cls-20,.cls-52,.cls-53{stroke:#cf9358;}.cls-1,.cls-10,.cls-14,.cls-17,.cls-18,.cls-2,.cls-20,.cls-5,.cls-52,.cls-53,.cls-62,.cls-67,.cls-73,.cls-8{stroke-miterlimit:10;}.cls-1,.cls-10,.cls-2,.cls-5,.cls-8{stroke-width:0.04px;}.cls-2{fill:#abadb0;stroke:#8ea3ae;}.cls-3{fill:#623529;}.cls-4{fill:#881d1c;}.cls-5{fill:#374655;}.cls-5,.cls-8{stroke:#506d81;}.cls-6{fill:#661615;}.cls-7{fill:#e2e3e4;}.cls-28,.cls-8{fill:#495d71;}.cls-9{fill:#c7c8ca;}.cls-10{fill:#2f1e19;stroke:#684a2c;}.cls-11{fill:#0c0706;}.cls-12{fill:#594b47;}.cls-13{fill:#180f0d;}.cls-14{stroke-width:0.03px;}.cls-15{fill:#cf9358;}.cls-16{fill:#9c1f2e;}.cls-17{stroke-width:0.06px;}.cls-18,.cls-43{fill:#490302;}.cls-18{stroke:#490302;}.cls-18,.cls-20{stroke-width:0.04px;}.cls-19{fill:#6d3535;}.cls-21{fill:#3f2d3c;}.cls-23{fill:#fff0e1;}.cls-24{fill:#f6c961;}.cls-25{fill:#d61164;opacity:0.5;}.cls-26{fill:#dea931;}.cls-27{fill:#232323;}.cls-29{fill:#d4b055;}.cls-30{fill:#ebe6de;}.cls-31{fill:#1c344d;}.cls-32,.cls-33,.cls-59,.cls-60,.cls-67{fill:none;}.cls-32,.cls-59{stroke:#36374a;}.cls-32,.cls-33,.cls-34,.cls-35,.cls-59,.cls-60,.cls-74,.cls-75{stroke-linejoin:round;}.cls-32{stroke-width:0.48px;}.cls-33,.cls-34,.cls-60,.cls-74{stroke:#202020;}.cls-33{stroke-width:0.79px;}.cls-34,.cls-35,.cls-62,.cls-73,.cls-74,.cls-75{fill:#fff;}.cls-34,.cls-35,.cls-67,.cls-73,.cls-74,.cls-75{stroke-linecap:round;}.cls-34{stroke-width:1.43px;}.cls-35,.cls-75{stroke:#5c5f61;}.cls-35{stroke-width:0.63px;}.cls-36{fill:#969696;}.cls-37{fill:#dcd4c7;}.cls-38{fill:#202020;}.cls-39{fill:#15273a;}.cls-40{fill:#3b2c3f;}.cls-41{fill:#1e1620;}.cls-42{fill:#c60000;}.cls-44{fill:#a05622;}.cls-45{fill:#4a4452;}.cls-46{fill:#c5b84e;}.cls-47{fill:#523800;}.cls-48{fill:#948a3b;}.cls-49{fill:#aa8b87;}.cls-50{fill:#e3b9b4;}.cls-51{fill:#37160f;}.cls-52{stroke-width:0.03px;}.cls-53{stroke-width:0.03px;}.cls-54{fill:silver;}.cls-55{fill:#ece7e4;}.cls-56{fill:#e8dbcc;}.cls-57{fill:#aea499;}.cls-58{fill:#03394e;}.cls-59,.cls-67,.cls-73{stroke-width:0.52px;}.cls-60{stroke-width:0.87px;}.cls-61{fill:#f6f6f6;}.cls-62{stroke:silver;stroke-width:0.05px;}.cls-63{fill:#613943;}.cls-64{fill:#022b3b;}.cls-65{fill:#0c485e;}.cls-66{fill:#824737;}.cls-67{stroke:#b55232;}.cls-68{fill:#f5c453;}.cls-68,.cls-70,.cls-71{fill-rule:evenodd;}.cls-69{fill:#f4bb3a;}.cls-70{fill:#f7d075;}.cls-71{fill:#c2a460;}.cls-72{fill:#b55232;}.cls-73{stroke:#ed7c31;}.cls-74{stroke-width:1.56px;}.cls-75{stroke-width:0.69px;}</style></defs><title>Green street</title><path class="cls-1" d="M63.39,7.94a4.14,4.14,0,0,1-.07,1.21c0,0.31-.24.87-0.29,1.23a2.58,2.58,0,0,0,.43,1.11l2,2.15s3-3.39,2.46-3.62A2.42,2.42,0,0,1,66.72,9c-0.08-.41-0.2-1.22-0.2-1.22Z"/><path class="cls-2" d="M67.56,55.05c-0.26,0-.26.21-0.26,0.42,0,0-.05.1,0.29,0.23a5,5,0,0,0,1.14.07,7.25,7.25,0,0,0,1.2-.12c0.15,0,.24,0,0.24-0.22,0-.35-0.05-0.27-0.33-0.27S67.56,55.05,67.56,55.05Z"/><path class="cls-3" d="M68.16,49.94a1.21,1.21,0,0,0-.88,1c0,0.44.21,1.24,0.23,1.52a16.65,16.65,0,0,1-.13,1.75,2.27,2.27,0,0,0-.1.83c0.05,0.19.08,0.29,0.5,0.32s1.42,0,1.83,0,0.69-.26.54-0.61a8.78,8.78,0,0,0-.42-1,2.26,2.26,0,0,1-.19-0.9,9.11,9.11,0,0,1,.31-1.06c0-.17.64-0.78,0.34-1.21a1.64,1.64,0,0,0-.84-0.88A7.43,7.43,0,0,0,68.16,49.94Z"/><path class="cls-2" d="M62,59.94a0.36,0.36,0,0,0,.32.33,9.51,9.51,0,0,0,1.55.06,2.55,2.55,0,0,0,1.12-.21,7.51,7.51,0,0,0,.94-0.68c0.39-.21.57-0.15,0.57-0.4a1.09,1.09,0,0,0,0-.71c-0.8-.69-4.46,0-4.44,1.18v0.44Z"/><path class="cls-3" d="M63.35,55.55c0.08,0.54.4,1.25,0.41,1.57a0.7,0.7,0,0,1-.45.73c-0.39.28-1.68,1.27-1.32,1.74a0.68,0.68,0,0,0,.65.28c0.27,0,.76,0,1.05,0a2.68,2.68,0,0,0,1.4-.33,5.07,5.07,0,0,0,.51-0.42c0.15-.1.38-0.15,0.48-0.23a0.75,0.75,0,0,0,.38-0.77,2.17,2.17,0,0,0-.3-1,3.79,3.79,0,0,1,0-1.17l-2.68-.37H63.35Z"/><path class="cls-4" d="M60.33,29.82c0.08,0.57,0,3,0,4.12s0.47,3.74.66,5.39,0.19,3.12.24,3.88,0.24,6.72.43,7.66-0.43,2.32,0,3a6.26,6.26,0,0,0,.63.95,15.31,15.31,0,0,1,1,1.6,5.44,5.44,0,0,0,1.38.25,6,6,0,0,0,1.66-.43,7.16,7.16,0,0,0-.24-2.79,6.34,6.34,0,0,1-.14-2.79c0-.57-0.24-2.13-0.38-3.08a7.07,7.07,0,0,1-.19-3.13,72.15,72.15,0,0,1,1-8.13c0.42-2.41.42-1.66,0.8,0.09s0.71,3.74,1,4.64,0.52,1.18.57,1.56a3.44,3.44,0,0,1,0,1.42,29.91,29.91,0,0,0-.76,3.12c0,0.85.09,1.7,0,2s-0.24.47-.28,0.66-0.52,1.32-.29,1.56,1.7,1.13,2.55.76,0.57-2,.66-2.37a4.11,4.11,0,0,1,.75-1.47,8.2,8.2,0,0,0,.86-4.3c0-1.85-.19-3.36-0.24-4.74a27.56,27.56,0,0,1,.57-5.06A32.37,32.37,0,0,0,73,30.56c0-.72-6.32-1.92-6.32-1.92Z"/><path class="cls-5" d="M64.59,12.84a2.15,2.15,0,0,0,1.22.13,5.47,5.47,0,0,1,1.81.56l-3.57,1.36-1.48-2L62.85,11Z"/><path class="cls-6" d="M66.64,31.18a5.25,5.25,0,0,0,2.54.7,17.92,17.92,0,0,0,3.12,0,1,1,0,0,0,.65-0.77,2.72,2.72,0,0,0-2-1.17,3,3,0,0,0-2.19,0,8.05,8.05,0,0,0-2.12,1v0.24Z"/><path class="cls-7" d="M63.16,13a8.36,8.36,0,0,0,2,1.37c0.57,0.12,1.79-1.21,2.22-1.79S69,13,69,13L71,29.65a0.87,0.87,0,0,1-1,1.21c-1.38,0-1.19.3-2.15,0.31a17.83,17.83,0,0,1-3.5-.15c-1.16-.23-1.18-2.7-1.18-2.7V13Z"/><path class="cls-8" d="M63.11,10.38a6.23,6.23,0,0,0,.9,1.47L65,13l-1.16.44a14.73,14.73,0,0,1-.73-1.89c0-.34-0.12-1-0.12-1Z"/><path class="cls-8" d="M67.62,9.79a4.33,4.33,0,0,1-.87,1.51C66.5,11.61,65.58,13,65.58,13l1,0.44,1.23-2.58Z"/><path class="cls-9" d="M64.1,13.74c0.25,0.49.49,0.95,0.71,1.46a16.06,16.06,0,0,1,0,2.54c-0.07.83,0.28,5.18,0.29,5.68a28.67,28.67,0,0,1-.75,5.21c-0.31.44-.73-0.73-0.73-0.73L63,14.09a2.5,2.5,0,0,1,.38-0.84A2.18,2.18,0,0,1,64.1,13.74Z"/><path class="cls-10" d="M62.74,10.71c-0.85.57-2.51,1.7-3.5,2.41s-2,1.11-2.2,2.81-0.21,5.06-.26,6.39-0.09,3.08-.14,4.59A9.59,9.59,0,0,0,57,30.23a9.41,9.41,0,0,1,.24,2.21h2.18l-0.11-1.23c0-1.76.25-1.06,0.43-4.15,0.09-1.66.12-2.62,0.21-1.21a19,19,0,0,1,0,3.23,3.34,3.34,0,0,0,0,1.17s0.8,0.28,1.75.57,1.88,0.54,2.4.64,0.44-7.31.44-8.92-0.24-6.1-.33-6.81-0.62-2-.76-2.6S62.74,10.71,62.74,10.71Z"/><path class="cls-10" d="M68.4,10.24c0.71,0.21,2.73,1.06,3.26,1.31A4.91,4.91,0,0,1,73.9,13.9c0.46,1.21,1.42,5.36,1.63,5.92A5.84,5.84,0,0,1,76,21.74,7.93,7.93,0,0,1,75.82,24c-0.21.64-.75,2.2-0.92,2.59a7.43,7.43,0,0,1-1,1.56,10.36,10.36,0,0,0-.85,1.32,7.33,7.33,0,0,0-.14,1.66c-1,1-5.39,0-5.39,0s-1-17.6-1-18A26.36,26.36,0,0,1,68,10Z"/><path class="cls-11" d="M66.7,14.73a2.8,2.8,0,0,0,.13.47,1.46,1.46,0,0,0,.79-0.65A8.5,8.5,0,0,0,68.46,13a2.61,2.61,0,0,0,.25-1.3c-0.06-.51,0-0.87-0.15-0.63s-1.2,2.37-1.2,2.37l-0.71,1.21"/><path class="cls-12" d="M67.68,9.66a3.38,3.38,0,0,1,1,.87,1.81,1.81,0,0,1,0,1.22c-0.22.72-.61,1.18-0.91,2a2.73,2.73,0,0,1-1.18,1.24,7.2,7.2,0,0,1,0-2c0.14-.53.73-1.34,0.92-1.94a2.16,2.16,0,0,0,.14-0.91,1,1,0,0,0-.44-0.54C67.08,9.3,67.68,9.66,67.68,9.66Z"/><path class="cls-12" d="M63.16,9.87a5.69,5.69,0,0,0,0,1.8,8.67,8.67,0,0,0,.62,2,3.63,3.63,0,0,1,.57,1.65v0.79s-1.88-3.38-2.07-4a2.29,2.29,0,0,1,.09-1.45,3.36,3.36,0,0,1,.6-0.8l0.37-.5"/><path class="cls-13" d="M59.46,19.54c-0.09,1.21.32,2.42,0.18,2.95s-0.35,1-.5,1.56A9.52,9.52,0,0,0,59,26.24a11.72,11.72,0,0,0,.32,2.41,1.55,1.55,0,0,1,.1.89,26,26,0,0,0,.4-4.22c0-.39.15,2.6,0.16,2.88s-0.08,1.05-.08,1.25a15.39,15.39,0,0,0,.39-3.35,5.36,5.36,0,0,1,.29-1.72A5.47,5.47,0,0,1,61,23.11a2,2,0,0,0-.21-1.42A9.52,9.52,0,0,1,60,20a3.26,3.26,0,0,1,0-2C60.39,17.34,59.53,18.54,59.46,19.54Z"/><path class="cls-13" d="M72.09,26a19.5,19.5,0,0,1,1-2.09,3.41,3.41,0,0,0,.39-1.42,13.24,13.24,0,0,1-.71-1.79,16.14,16.14,0,0,1-.29-2.19c0.07-.67.32-1,0.29-1.17a2.35,2.35,0,0,0-.56,1.57C72.13,20.13,72,20.79,72,21.19a10.84,10.84,0,0,0-.1,2.28,2.46,2.46,0,0,1,.24,1A4,4,0,0,1,71.85,26C71.14,28.64,71.49,27.51,72.09,26Z"/><path class="cls-6" d="M67.09,35.67a23.81,23.81,0,0,1,1.32,3.66,26.06,26.06,0,0,1,.23,3.26c0,0.28.89,2.4,0.44,3.08A21.93,21.93,0,0,0,67.9,48c0-1.36.12-4.87,0.25-5.29s-0.44-2.75-.39-3.06S67.09,35.67,67.09,35.67Z"/><path class="cls-14" d="M57.39,32.37A13.55,13.55,0,0,1,57.27,34a1.05,1.05,0,0,0,.12,1.14c0.41,0.39,1.22,1,1.46,1.2s1.34,0.59.5-.32-1.12-.93-0.85-1.53c0.16-.37.31-0.5,0.43-0.11a6.53,6.53,0,0,0,.27.72c0.16,0.41.37,0.4,0.26-.3a3.65,3.65,0,0,0-.26-1.46,1.81,1.81,0,0,1-.35-0.93C58.83,32.1,57.39,32.37,57.39,32.37Z"/><path class="cls-14" d="M71,28.44a3.57,3.57,0,0,0-1.17.78c-0.25.36-.24,0.83-0.57,1.28a1,1,0,0,0-.38.76c0.24,0.23.26,0,.59-0.41,0.89-1.09,1-.84.78-0.11a1.52,1.52,0,0,1-1,1.21c-0.42.23-.43,0.47-0.18,0.72a1.37,1.37,0,0,0,.44.28L69.7,33a5.29,5.29,0,0,0,.62.08c1,0.16,1.34-.72,1.66-1.17a3.72,3.72,0,0,0,.57-1.67,1.73,1.73,0,0,1,0-1,1.62,1.62,0,0,0,.28-1c-0.15-.3-1.34-0.67-1.39-0.43A3.28,3.28,0,0,1,71,28.44Z"/><path class="cls-15" d="M69.08,32.66a1.88,1.88,0,0,0,.38-0.17A6.9,6.9,0,0,0,70.21,32a1.75,1.75,0,0,0,.49-0.73l0.16-.39h0a2,2,0,0,1-.07.42,1.32,1.32,0,0,1-.16.41,1.06,1.06,0,0,1-.36.37,5.85,5.85,0,0,1-.8.47,1.83,1.83,0,0,1-.39.15h0Z"/><path class="cls-15" d="M69.52,32.94l0.36-.18a4.89,4.89,0,0,0,.74-0.44A1.1,1.1,0,0,0,70.88,32c0.07-.13.13-0.25,0.19-0.35s0.2-.35.2-0.35h0a2.55,2.55,0,0,1-.11.39,1.6,1.6,0,0,1-.49.75,4.28,4.28,0,0,1-.79.4L69.52,33h0Z"/><path class="cls-15" d="M70.24,33.08a2.41,2.41,0,0,0,.81-0.57,0.55,0.55,0,0,0,.09-0.15l0.09-.16a1.61,1.61,0,0,0,.15-0.28,2,2,0,0,1,.14-0.28h0a2.19,2.19,0,0,1-.06.32,0.72,0.72,0,0,1-.13.31l-0.1.15a0.67,0.67,0,0,1-.12.16,1.89,1.89,0,0,1-.59.39l-0.3.11h0Z"/><path class="cls-16" d="M64,7.62l0.3,0.07a1.69,1.69,0,0,0,.3.06l0.35,0a2.46,2.46,0,0,0,.35,0,2,2,0,0,1,.31,0,1.93,1.93,0,0,1,.31,0h0a2,2,0,0,1-.3.08,2.07,2.07,0,0,1-.31.06,1.28,1.28,0,0,1-.37,0l-0.37-.05a1.47,1.47,0,0,1-.3-0.09L64,7.64h0Z"/><ellipse class="cls-17" cx="62.44" cy="5.73" rx="0.36" ry="1.09" transform="translate(0.14 12.81) rotate(-11.72)"/><ellipse class="cls-17" cx="67.39" cy="5.73" rx="1.09" ry="0.36" transform="translate(48.09 70.55) rotate(-78.28)"/><path class="cls-18" d="M67.28,4.84a3.73,3.73,0,0,0,.29-1.73,2.74,2.74,0,0,0-.26-1.29A2.62,2.62,0,0,0,66.18.45a9.38,9.38,0,0,0-1-.3A13.58,13.58,0,0,0,63.76,0s0.1,0.25-.31.3c-0.85.11-1.28,0.8-1.3,2a5.29,5.29,0,0,0,0,1.42c0.13,0.31.24,1,.29,1s0.16,0.28.16,0.28"/><path class="cls-19" d="M62.56,3.52a1.66,1.66,0,0,1,.38-1.06A0.52,0.52,0,0,0,63,1.85s0.78,0.76,1,.38a0.7,0.7,0,0,0-.27-0.66s1.07,0.9,1.34.6-0.19-.6-0.19-0.6,1,0.9,1.34.52c0.17-.19-0.56-0.69-0.56-0.69A14.4,14.4,0,0,1,67,2.46a0.7,0.7,0,0,1,.1.5C67.12,3.36,62.56,3.52,62.56,3.52Z"/><path class="cls-20" d="M66.85,2.68a8.26,8.26,0,0,0-1.94.09A8.25,8.25,0,0,0,63,2.68c-0.59.15-.42,2-0.42,2a13.08,13.08,0,0,0,.26,2.88C63,8,63.95,9.49,64.91,9.49S66.81,8,67,7.56a13.2,13.2,0,0,0,.26-2.88S67.45,2.83,66.85,2.68Z"/><path class="cls-21" d="M64.56,5a1.27,1.27,0,0,1-.31,0,1.66,1.66,0,0,1-.64-0.13,0.87,0.87,0,0,0-.59,0,0.6,0.6,0,0,0-.25.12l0,0A0.68,0.68,0,0,1,63,4.75a0.92,0.92,0,0,1,.3-0.11,1.52,1.52,0,0,1,.38,0,2.16,2.16,0,0,1,.63.14,1.31,1.31,0,0,1,.27.15V5Z"/><path class="cls-21" d="M65.33,4.94a1.12,1.12,0,0,1,.26-0.15,2,2,0,0,1,.6-0.12l0.35,0a0.32,0.32,0,0,1,.16,0,0.65,0.65,0,0,1,.16.07A0.7,0.7,0,0,1,67,5h0a0.69,0.69,0,0,0-.21-0.17l-0.1,0a0.26,0.26,0,0,0-.14,0l-0.3.1a1.53,1.53,0,0,1-.63.13,1.24,1.24,0,0,1-.3,0v0Z"/><circle class="cls-21" cx="63.85" cy="5.33" r="0.2"/><circle class="cls-21" cx="65.98" cy="5.33" r="0.2"/><path class="cls-22" d="M64.66,5.27c0,0.71-.51,1.5-0.24,1.68a1.1,1.1,0,0,0,1.1,0"/><path class="cls-15" d="M64.66,5.27a1.58,1.58,0,0,1,0,.45c0,0.27-.18.61-0.25,1a0.27,0.27,0,0,0,0,.23,0.62,0.62,0,0,0,.22.1,1.56,1.56,0,0,0,.45,0,0.7,0.7,0,0,0,.42-0.14h0a0.7,0.7,0,0,1-.42.18,1.13,1.13,0,0,1-.47,0A0.64,0.64,0,0,1,64.37,7a0.32,0.32,0,0,1-.05-0.28c0.08-.36.23-0.69,0.28-1a1.58,1.58,0,0,0,.05-0.45h0Z"/><path class="cls-19" d="M63.11,0.72A1.22,1.22,0,0,1,64,.8S63.65,0.52,63.82.37a2,2,0,0,1,1,.2A1.41,1.41,0,0,1,64.33.05L63.76,0s0.1,0.25-.31.3a1,1,0,0,0-1.05.76,1.63,1.63,0,0,1,.8.18A1.05,1.05,0,0,1,63.11.72Z"/><path class="cls-23" d="M64.1,7.84c0.26,0,.62.09,0.82,0.09s0.84,0,.82,0"/><path class="cls-16" d="M64.1,7.84l0.26,0a3.06,3.06,0,0,1,.55,0,3.45,3.45,0,0,1,.56,0,1.8,1.8,0,0,1,.26.06,1.48,1.48,0,0,1-.25.1,2,2,0,0,1-.57.08,3,3,0,0,1-.57-0.12Z"/><path class="cls-24" d="M7.93,13.39a6.55,6.55,0,0,1-.49-2.81c0-1.31-.27-1,0.24-2S9.07,6,9.07,6V6.85s-0.24-.12.56-0.56A5.5,5.5,0,0,0,11,5.18s0,0.67,0,.87a2.84,2.84,0,0,0,.54-0.87,2.28,2.28,0,0,0,.45,1c0.34,0.4.38-.24,0.38-0.24s-0.2-.4.4,0.16,0.83,0.83.83,0.83l0.18-.28s-0.18-.52.16,0.48a16,16,0,0,1,.43,1.78,5.38,5.38,0,0,1,.41,1.86,4.55,4.55,0,0,1-.58,2.06,1.92,1.92,0,0,1-1.22.71C12.4,13.63,7.93,13.39,7.93,13.39Z"/><path class="cls-25" d="M13.77,6.62h0S13.66,6.31,13.77,6.62Z"/><path class="cls-26" d="M14.27,11.94c-0.22.32,0-.4-0.09-1.27A4.66,4.66,0,0,0,14,9.6a4.43,4.43,0,0,1-.75,2.77c-0.22.14-.34,0.16-0.16-0.55a1.72,1.72,0,0,0,.16-1c-0.06-.24-0.18.69-0.5,1.05a1.14,1.14,0,0,1-.93.53A0.91,0.91,0,0,1,11,12,3.08,3.08,0,0,1,10.42,11s0.1,0.91.14,1.11a3.18,3.18,0,0,1,0,.57,0.5,0.5,0,0,1-.34.16A3,3,0,0,1,9,12.08a5.76,5.76,0,0,1-.42-1.35s0.05,1.05.11,1.27a1.52,1.52,0,0,1-.4-0.93,11.32,11.32,0,0,1,0-1.47,8.86,8.86,0,0,0-.13,1.55,9.15,9.15,0,0,0,.42,1.73,1.09,1.09,0,0,1-.74-0.44l-0.31-.59a5.64,5.64,0,0,0,.42,1.54s4.47,0.24,5,.12a1.92,1.92,0,0,0,1.22-.71,4.29,4.29,0,0,0,.54-1.67A9.06,9.06,0,0,1,14.27,11.94Z"/><ellipse class="cls-22" cx="5.76" cy="25.94" rx="1.22" ry="0.76"/><ellipse class="cls-22" cx="5.07" cy="27.01" rx="0.21" ry="0.18"/><path class="cls-15" d="M4.87,27a0.17,0.17,0,0,0,.1.15,0.19,0.19,0,1,0,0-.3A0.17,0.17,0,0,0,4.87,27Zm0,0A0.18,0.18,0,0,1,5,26.85a0.21,0.21,0,1,1,0,.32A0.18,0.18,0,0,1,4.87,27Z"/><ellipse class="cls-22" cx="4.67" cy="27" rx="0.22" ry="0.19"/><path class="cls-15" d="M4.45,27a0.18,0.18,0,0,0,.1.16,0.2,0.2,0,1,0,0-.31A0.18,0.18,0,0,0,4.45,27Zm0,0a0.19,0.19,0,0,1,.1-0.17,0.22,0.22,0,1,1,0,.34A0.19,0.19,0,0,1,4.45,27Z"/><ellipse class="cls-22" cx="5.44" cy="27.01" rx="0.21" ry="0.18"/><path class="cls-15" d="M5.23,27a0.17,0.17,0,0,0,.1.15,0.19,0.19,0,1,0,0-.29A0.17,0.17,0,0,0,5.23,27Zm0,0a0.18,0.18,0,0,1,.09-0.16,0.21,0.21,0,1,1,0,.32A0.18,0.18,0,0,1,5.23,27Z"/><ellipse class="cls-22" cx="5.8" cy="27.01" rx="0.21" ry="0.18"/><path class="cls-15" d="M5.59,27a0.17,0.17,0,0,0,.1.15,0.19,0.19,0,1,0,0-.29A0.17,0.17,0,0,0,5.59,27Zm0,0a0.18,0.18,0,0,1,.09-0.16,0.21,0.21,0,1,1,0,.32A0.18,0.18,0,0,1,5.59,27Z"/><path class="cls-27" d="M4.21,25.67a0.42,0.42,0,0,1,.18.37h2v0.87h-2a0.42,0.42,0,0,1-.18.37A0.94,0.94,0,0,1,4,26.47,0.94,0.94,0,0,1,4.21,25.67Z"/><path class="cls-22" d="M6,27.22a0.88,0.88,0,0,0,.78-0.6,0.88,0.88,0,0,0,.15-0.95,1,1,0,0,0-.54.73C6.16,26.84,5.85,27.13,6,27.22Z"/><path class="cls-15" d="M6,27.22a0.2,0.2,0,0,0,.16,0A0.94,0.94,0,0,0,6.54,27a1.84,1.84,0,0,0,.34-0.53A1,1,0,0,0,7,25.74c-0.07-.13-0.2,0-0.25.09s-0.12.21-.17,0.31a3.86,3.86,0,0,1-.32.55,3.29,3.29,0,0,0-.25.38A0.1,0.1,0,0,0,6,27.22Zm0,0a0.11,0.11,0,0,1,0-.15,3.27,3.27,0,0,1,.24-0.38,5.85,5.85,0,0,0,.31-0.55c0.05-.1.11-0.21,0.17-0.32a0.47,0.47,0,0,1,.12-0.14,0.12,0.12,0,0,1,.17.05,1,1,0,0,1-.11.71,1.84,1.84,0,0,1-.35.53,1,1,0,0,1-.37.25A0.21,0.21,0,0,1,6,27.22Z"/><ellipse class="cls-22" cx="18.69" cy="25.99" rx="1.22" ry="0.76"/><ellipse class="cls-22" cx="19.37" cy="27.06" rx="0.21" ry="0.18"/><path class="cls-15" d="M19.58,27.06a0.18,0.18,0,0,1-.1.16,0.21,0.21,0,1,1,0-.32A0.18,0.18,0,0,1,19.58,27.06Zm0,0a0.17,0.17,0,0,0-.1-0.15,0.19,0.19,0,1,0,0,.3A0.17,0.17,0,0,0,19.58,27.06Z"/><ellipse class="cls-22" cx="19.78" cy="27.05" rx="0.22" ry="0.19"/><path class="cls-15" d="M20,27.05a0.19,0.19,0,0,1-.1.17,0.22,0.22,0,1,1,0-.34A0.19,0.19,0,0,1,20,27.05Zm0,0a0.18,0.18,0,0,0-.11-0.15,0.2,0.2,0,1,0,0,.31A0.18,0.18,0,0,0,20,27.05Z"/><ellipse class="cls-22" cx="19" cy="27.06" rx="0.21" ry="0.18"/><path class="cls-15" d="M19.21,27.06a0.18,0.18,0,0,1-.1.16,0.21,0.21,0,1,1,0-.32A0.18,0.18,0,0,1,19.21,27.06Zm0,0a0.17,0.17,0,0,0-.1-0.15,0.19,0.19,0,1,0,0,.3A0.17,0.17,0,0,0,19.21,27.06Z"/><ellipse class="cls-22" cx="18.65" cy="27.06" rx="0.21" ry="0.18"/><path class="cls-15" d="M18.86,27.06a0.18,0.18,0,0,1-.1.16,0.21,0.21,0,1,1,0-.32A0.18,0.18,0,0,1,18.86,27.06Zm0,0a0.17,0.17,0,0,0-.1-0.15,0.19,0.19,0,1,0,0,.3A0.17,0.17,0,0,0,18.85,27.06Z"/><path class="cls-28" d="M10.33,37.08a27.67,27.67,0,0,0-.74,3.36c-0.21,1.64-.8,7.39-0.75,4.9S8.62,40.77,9,39.61s0.62-2,.9-2.77,0.33-1.35.44-1.12a2.58,2.58,0,0,1,0,.92v0.45Z"/><path class="cls-29" d="M8.75,48.32H6.34c-0.87,0-.63,2.14-0.32,2.14H9C9.19,50.46,9.35,48.32,8.75,48.32Z"/><path class="cls-30" d="M7.45,49.59c-0.59,0-1.17,0-1.72,0a1.08,1.08,0,0,0,.29.91H9a1.5,1.5,0,0,0,.18-0.91C8.62,49.57,8,49.59,7.45,49.59Z"/><path class="cls-29" d="M19.69,41.18H17.27c-0.87,0-.64,2.14-0.32,2.14h3C20.13,43.32,20.29,41.18,19.69,41.18Z"/><path class="cls-30" d="M18.39,42.45c-0.59,0-1.17,0-1.72,0a1.09,1.09,0,0,0,.29.91h3a1.49,1.49,0,0,0,.18-0.91C19.56,42.44,19,42.45,18.39,42.45Z"/><path class="cls-31" d="M7,30.09a24.06,24.06,0,0,0-.8,4c-0.12,1.7-.28,5.23-0.28,6.82s-0.08,2.74,0,4.24a12.89,12.89,0,0,0,.2,3,4.8,4.8,0,0,0,2.62.2C9.11,48,9,48.6,9,45.94a50.33,50.33,0,0,1,.18-5.23c0.18-1.55.5-2.19,0.65-3.21a2.88,2.88,0,0,1,.15-1c0.52-1.23.85-.61,2.63-0.57s3.34-.18,3.45.57a14.3,14.3,0,0,1,.39,2.21,10.74,10.74,0,0,0,.22,1.78c0.09,0.63-.22.52,0.25,0.71a4.59,4.59,0,0,0,2.54,0c0.36-.28.66,1,0.45-1.15s0.33-1.35,0-3.25-0.21-2.89-.37-3.69-0.16-1.59-.28-2.22,0.16-.59-0.2-1A1.49,1.49,0,0,0,17.73,29c-0.75,0-.44.08-1.06,0.52A6.18,6.18,0,0,1,13,31C8.63,31,7,30.09,7,30.09Z"/><polyline class="cls-32" points="11.69 45.34 10.06 45.34 10.06 50.9 9.59 50.9"/><line class="cls-33" x1="9.59" y1="50.9" x2="5.7" y2="50.9"/><line class="cls-33" x1="20.33" y1="43.72" x2="16.45" y2="43.72"/><polyline class="cls-32" points="16.45 43.72 15.73 43.72 15.73 45.34 14.35 45.34"/><line class="cls-34" x1="13.08" y1="50.9" x2="13.08" y2="58.98"/><line class="cls-35" x1="13.27" y1="50.46" x2="13.27" y2="59.45"/><path class="cls-36" d="M10.81,36.44c0,0.62-.44,1.65,2.21,1.65s2-1.22,2-1.65-1.33-.36-2-0.36S10.83,36.06,10.81,36.44Z"/><path class="cls-37" d="M11.35,36.6c0,0.46-.33,1.23,1.64,1.23s1.52-.9,1.52-1.23-1-.27-1.52-0.27S11.37,36.32,11.35,36.6Z"/><rect class="cls-36" x="11.76" y="36.27" width="2.37" height="1.66"/><rect class="cls-36" x="12.26" y="37.83" width="1.4" height="3.56"/><rect class="cls-37" x="12.77" y="38.09" width="0.69" height="3.3"/><rect class="cls-36" x="11.69" y="41.39" width="2.66" height="9.73" rx="0.63" ry="0.63"/><path class="cls-38" d="M14.37,50.49a0.65,0.65,0,0,1-.06.27,0.66,0.66,0,0,1-.62.39H12.52a0.8,0.8,0,0,1-.68-0.21,1,1,0,0,1-.18-0.77c0-2.22,0-5.18,0-8.14a0.67,0.67,0,0,1,.76-0.65h1.1a0.69,0.69,0,0,1,.81.55c0,0.36,0,.71,0,1.06,0,1.39,0,2.68,0,3.79v3.7h0Zm0,0s0-1.48,0-3.7c0-1.11,0-2.4,0-3.79,0-.35,0-0.7,0-1.05a0.67,0.67,0,0,0-.79-0.54h-1.1a0.64,0.64,0,0,0-.74.62c0,3,0,5.92,0,8.14a0.94,0.94,0,0,0,.17.74,0.75,0.75,0,0,0,.65.19h1.17a0.62,0.62,0,0,0,.58-0.36,0.53,0.53,0,0,0,.05-0.25h0Z"/><path class="cls-37" d="M13.79,50.26a0.59,0.59,0,0,1-.51.63,0.59,0.59,0,0,1-.51-0.63v-7.6A0.59,0.59,0,0,1,13.27,42a0.59,0.59,0,0,1,.51.63v7.6Z"/><path class="cls-39" d="M9.58,31.32a6.57,6.57,0,0,0,2.9.5A10.8,10.8,0,0,0,16,31a2.16,2.16,0,0,0,.83-1.19c0.09-.5,1.9-0.89.3-0.72s-2.62.6-3.64,0.72-2.4.56-2.84,0.61A2.53,2.53,0,0,0,9.58,31.32Z"/><path class="cls-40" d="M6.79,29.84c0.79,0.82,1.63,1.74,5.76,1.64s3.74-2.31,4.91-2.42,0.11-.88,0-2.47-0.1-.69,1.27-0.74,1.37-.26,1.06-1.74a17.74,17.74,0,0,1-.47-3.44c-0.05-1.22-.69-2.93-0.69-3.92s0.05-1.44-1.38-2.41a4.56,4.56,0,0,0-3.27-1.19,25.42,25.42,0,0,0-5.28.08c-2,.34-2,1-3.08,1.84s-1.16,1.16-1,2.22a12.16,12.16,0,0,1,.21,3.22,28.27,28.27,0,0,0-.28,3.6c0.07,1.06-.55,1.11,0,1.53s0.2,0.69,1,.85A1.84,1.84,0,0,0,7.26,26c0.53-.48-0.05-0.58.05,0.53a11.11,11.11,0,0,1-.48,3.12"/><path class="cls-27" d="M20.24,25.72a0.42,0.42,0,0,0-.18.37h-2V27h2a0.42,0.42,0,0,0,.18.37,0.94,0.94,0,0,0,.21-0.81A1,1,0,0,0,20.24,25.72Z"/><path class="cls-39" d="M7,30.09a8.41,8.41,0,0,0,.4,3.48,6,6,0,0,0,1.74,2.08c0.41,0.27.68-.36,0.66-0.64a8.08,8.08,0,0,0-1.21-1.28,6.21,6.21,0,0,1-1.19-2.25C7.18,30.74,7,30.09,7,30.09Z"/><path class="cls-39" d="M17.5,30.81a4.11,4.11,0,0,1,.74,2.77,3.33,3.33,0,0,1-1.35,2.69c-0.3.2-.68-0.67-0.66-0.87s1.07-1.5,1.25-2A12.74,12.74,0,0,0,17.5,30.81Z"/><path class="cls-38" d="M13.08,34.94c1.54,0,2-.74,3.43.21a1.59,1.59,0,0,1,.58,1.48,31.57,31.57,0,0,0-4-.45,26.08,26.08,0,0,0-4,.45,1.59,1.59,0,0,1,.58-1.48c1.45-1,1.89-.21,3.43-0.21"/><path class="cls-39" d="M17.91,33.55a4.08,4.08,0,0,1,.47-1.22c0.21-.24.56-0.41,0.42-0.13a8.1,8.1,0,0,0-.58,1c-0.16.45-.32,0.82-0.32,0.82l-0.16-.47"/><path class="cls-41" d="M16.7,18.4a10.8,10.8,0,0,0,0,2.93,17.62,17.62,0,0,1,.53,2.43c0,0.5-.05.69,0,1.08a1.78,1.78,0,0,0,.24.8c0.11,0.13.41,0.09,0.31-.11S17.6,24,17.52,23.68s-0.24-1.59-.33-2S16.7,18.4,16.7,18.4Z"/><path class="cls-41" d="M17.67,25.3a2.41,2.41,0,0,0,1,.29h0.21a1.41,1.41,0,0,0,.66-0.29,2.24,2.24,0,0,0,.32-0.53,1.2,1.2,0,0,1,0,.41,0.43,0.43,0,0,1-.2.48,2.49,2.49,0,0,1-.92.18H18.44L18,25.79a0.51,0.51,0,0,1-.52-0.28A0.53,0.53,0,0,1,17.67,25.3Z"/><path class="cls-41" d="M5.46,18.24a24.7,24.7,0,0,1,.63,2.7,15.6,15.6,0,0,1,.16,2.11,4.08,4.08,0,0,0,0,1.22,2.23,2.23,0,0,0,.36.5,2.8,2.8,0,0,0,.39,1c0.24,0.23,0,.45-0.2.57a1.3,1.3,0,0,1-.66.24c-0.25,0-.17.09,0-0.49A1.35,1.35,0,0,0,6.3,25,5.09,5.09,0,0,1,6,23.5a3.27,3.27,0,0,1,0-1.12,4.73,4.73,0,0,0-.26-1.77A7.64,7.64,0,0,1,5.46,19,1.65,1.65,0,0,0,5.46,18.24Z"/><path class="cls-41" d="M4.78,20.51a20.06,20.06,0,0,1-.11,2,13.15,13.15,0,0,0,.12,1.53,4.41,4.41,0,0,0,.39,1.23,1.07,1.07,0,0,1,.26.41l-0.62-.41a4,4,0,0,1,.36.54c0.12,0.24.17,0.36-.13,0.24a1.12,1.12,0,0,1-.59-0.45c-0.2-.26-0.32-0.09-0.19-0.45a0.88,0.88,0,0,0,.18-0.72c0-.71,0-1.35,0-1.75a4.74,4.74,0,0,1,.07-0.92C4.64,21.09,4.75,20.61,4.78,20.51Z"/><circle class="cls-42" cx="12.94" cy="39.61" r="1.06"/><path class="cls-43" d="M14,39.61a1,1,0,0,0,0-.28,1,1,0,0,0-2,.28,1,1,0,0,0,.61.94,1.07,1.07,0,0,0,1-.08A1,1,0,0,0,14,39.89,1,1,0,0,0,14,39.61Zm0,0a1,1,0,0,1,0,.28,1.07,1.07,0,0,1-.43.61,1.06,1.06,0,0,1-1,.1,1.08,1.08,0,0,1,0-2,1.07,1.07,0,0,1,1,.09,1.06,1.06,0,0,1,.43.6A1,1,0,0,1,14,39.61Z"/><path class="cls-22" d="M18.44,27.27a0.88,0.88,0,0,1-.78-0.6,0.88,0.88,0,0,1-.15-0.95,1,1,0,0,1,.54.73C18.28,26.9,18.6,27.19,18.44,27.27Z"/><path class="cls-15" d="M18.44,27.27a0.2,0.2,0,0,1-.17,0A1,1,0,0,1,17.9,27a1.82,1.82,0,0,1-.35-0.53,1,1,0,0,1-.11-0.71,0.12,0.12,0,0,1,.17-0.05,0.46,0.46,0,0,1,.12.14c0.07,0.1.12,0.21,0.17,0.32a6.19,6.19,0,0,0,.31.55,3.25,3.25,0,0,1,.24.38A0.1,0.1,0,0,1,18.44,27.27Zm0,0a0.1,0.1,0,0,0,0-.15,3.24,3.24,0,0,0-.25-0.38,4,4,0,0,1-.32-0.55c-0.05-.1-0.11-0.21-0.17-0.31s-0.18-.22-0.25-0.09a1,1,0,0,0,.1.69,1.83,1.83,0,0,0,.34.53,0.94,0.94,0,0,0,.36.26A0.2,0.2,0,0,0,18.44,27.27Z"/><path class="cls-41" d="M9.58,28.63c0.58,0.16.87,0.17,1.47,0.33a20.13,20.13,0,0,0,3.53.28,2,2,0,0,0,1.64-.61,1.54,1.54,0,0,0,.52-1.11A10.91,10.91,0,0,0,16.52,26a5.54,5.54,0,0,1-.08-1.24,19.4,19.4,0,0,0-.33-2.39,3.15,3.15,0,0,0-1.58-.32s-4.07,2.55-4.07,2.55Z"/><path class="cls-26" d="M13.59,6.89s-0.24-.28-0.83-0.83-0.4-.16-0.4-0.16,0,0.63-.38.24a1.52,1.52,0,0,1-.15-0.2,5.25,5.25,0,0,1,.33.93l0.28,1,0.11-1.47s-0.26-.54.21,0a7.9,7.9,0,0,1,.93,1.47l0.13-1.08-0.06-.16Z"/><path class="cls-26" d="M11,6.06c0-.2,0-0.87,0-0.87a5.51,5.51,0,0,1-.64.61l0.19,0.26a5.53,5.53,0,0,1,.53,1.07c0.1,0.36.12-.4,0.18-0.73a1.56,1.56,0,0,1,.3-0.52c0-.09.07-0.2,0.1-0.3a2.32,2.32,0,0,1-.12-0.4A2.84,2.84,0,0,1,11,6.06Z"/><path class="cls-26" d="M9.46,6.39a1.3,1.3,0,0,0-.39.31V6.39a15.37,15.37,0,0,0-.51,1.47s0.91-1.37,1-1.47H9.46Z"/><path class="cls-44" d="M14.54,13.14H14c0,0.19,0,1.38,0,2A1.36,1.36,0,0,0,14.55,15C14.55,14.14,14.54,13.14,14.54,13.14Z"/><path class="cls-45" d="M14.54,13.14H14v2h0A1.36,1.36,0,0,0,14.54,15h0V13.14Zm0,0,0,1.86h0a1.38,1.38,0,0,1-.56.09h0v-2h0.55Z"/><path class="cls-44" d="M8.86,14.24c0-.2.11-1.11,0.05-1.1l-0.53,0s-0.13,1.37-.12,2c0,0.09,0,.2,0,0.32a0.68,0.68,0,0,1,.58.09C8.86,15.08,8.87,14.41,8.86,14.24Z"/><path class="cls-45" d="M8.86,14.24c0-.27,0-0.54.05-0.82v-0.2s0-.08,0-0.07H8.8l-0.41,0h0L8.33,14.32c0,0.38-.06.76,0,1.14h0a0.69,0.69,0,0,1,.59.09h0Zm0,0v1.33h0a0.69,0.69,0,0,0-.57-0.09h0v0c0-.38,0-0.76,0-1.14l0.07-1.14h0l0.41,0H8.9c0.05,0,0,.06,0,0.09v0.21C8.91,13.7,8.87,14,8.86,14.24Z"/><path class="cls-46" d="M7.43,18.93a9.63,9.63,0,0,0-.32,2.36c0,1,.16,2.84.16,3.43A15.81,15.81,0,0,0,7.11,27a1.25,1.25,0,0,0,.41.8,1.3,1.3,0,0,0,1,.78,40.49,40.49,0,0,0,6,0A1.56,1.56,0,0,0,16,27.81a2.2,2.2,0,0,0,.4-1.67c-0.06-.63-0.32-0.78-0.32-1.29s0.17-1.23.21-2.11a25.39,25.39,0,0,0-.06-3.91C16.1,18.4,7.43,18.93,7.43,18.93Z"/><path class="cls-47" d="M7.43,18.93l-0.08.4a11,11,0,0,0-.21,1.13,11,11,0,0,0,0,1.78l0.11,2.31a13.61,13.61,0,0,0-.1,2.72,1.39,1.39,0,0,0,.38.62,1.3,1.3,0,0,0,.49.56,3.59,3.59,0,0,0,1.52.26c1.06,0,2.16,0,3.27,0,0.56,0,1.12,0,1.68-.09a3.56,3.56,0,0,0,.82-0.18,1.41,1.41,0,0,0,.61-0.56,2.19,2.19,0,0,0,.47-1.57c0-.58-0.41-1.05-0.33-1.64s0.15-1.1.19-1.64,0-1.08.05-1.61,0-1.05,0-1.56c0-.25,0-0.51,0-0.75a0.38,0.38,0,0,0-.11-0.32,1.61,1.61,0,0,0-.35-0.07c-1-.08-1.89,0-2.74,0C9.69,18.78,7.43,18.93,7.43,18.93Zm0,0s2.26-.16,5.65-0.26c0.85,0,1.77-.05,2.74,0a1.47,1.47,0,0,1,.37.07,0.4,0.4,0,0,1,.12.34c0,0.25,0,.5,0,0.76,0,0.51,0,1,0,1.56s0,1.07-.06,1.61-0.14,1.09-.19,1.64,0.36,1,.32,1.63A2.21,2.21,0,0,1,16,27.91a1.44,1.44,0,0,1-.62.57,3.56,3.56,0,0,1-.83.18c-0.56.06-1.12,0.07-1.68,0.09-1.11,0-2.21,0-3.27,0A3.61,3.61,0,0,1,8,28.46a1.31,1.31,0,0,1-.49-0.56,1.4,1.4,0,0,1-.39-0.62,13.57,13.57,0,0,1,.1-2.72l-0.1-2.31a11,11,0,0,1,0-1.78,11,11,0,0,1,.21-1.13Z"/><path class="cls-48" d="M7.85,19.46a7.55,7.55,0,0,0,2,0,18.77,18.77,0,0,1,2.5-.19c0.57,0,1,.12,1.65.13s0.87,0.3,1.32.3a1.3,1.3,0,0,0,1-.43c0.12-.21.05-0.33,0-0.33l-6-.43Z"/><path class="cls-46" d="M11.69,13.77c1,0,2.24.08,3,.17,1,0.11,1.27.22,1.49,1.71s1.17,4.15-1,3.81A16.83,16.83,0,0,0,11.69,19c-1,0-2.89.54-3.55,0.48S6.87,19.39,7,17.78,6.81,14.23,8.74,14A28,28,0,0,1,11.69,13.77Z"/><path class="cls-47" d="M11.69,13.77l1.19,0.06,1.36,0.07a8,8,0,0,1,.84.07,1.07,1.07,0,0,1,.81.41,8.07,8.07,0,0,1,.5,2,6.22,6.22,0,0,1,.2,2.32,0.92,0.92,0,0,1-.87.76,5.75,5.75,0,0,1-1.26-.13A15.4,15.4,0,0,0,11.9,19a16.81,16.81,0,0,0-2.55.35,5.42,5.42,0,0,1-1.26.12,1.92,1.92,0,0,1-.61-0.13,0.77,0.77,0,0,1-.4-0.46A3,3,0,0,1,7,17.73C7,17.34,7,17,7,16.59a3.47,3.47,0,0,1,.51-2A2,2,0,0,1,9.15,14l1.36-.1Zm0,0-1.18.09L9.15,14a2,2,0,0,0-1.59.62,3.46,3.46,0,0,0-.5,2c0,0.37,0,.75,0,1.14a3,3,0,0,0,.09,1.18,1,1,0,0,0,1,.57,5.42,5.42,0,0,0,1.25-.12A16.77,16.77,0,0,1,11.9,19a15.43,15.43,0,0,1,2.56.33,5.74,5.74,0,0,0,1.25.13,0.9,0.9,0,0,0,.86-0.75,6.21,6.21,0,0,0-.19-2.31,8.09,8.09,0,0,0-.49-2,1.06,1.06,0,0,0-.8-0.41,7.89,7.89,0,0,0-.84-0.07l-1.36-.07Z"/><rect class="cls-44" x="11.19" y="25.31" width="1.4" height="1.4" transform="translate(-14.91 16.02) rotate(-44.99)"/><path class="cls-45" d="M11.89,27l-1-1h0l1-1h0l1,1h0Zm0,0,1-1v0l-1-1h0l-1,1h0Z"/><rect class="cls-44" x="11.19" y="20.47" width="1.4" height="1.4" transform="translate(-11.49 14.6) rotate(-44.99)"/><path class="cls-45" d="M11.89,22.16l-1-1h0l1-1h0l1,1h0Zm0,0,1-1v0l-1-1h0l-1,1h0Z"/><path class="cls-44" d="M11,16.83V15.6h1.58v1.23a0.8,0.8,0,0,1-.79.43A0.76,0.76,0,0,1,11,16.83Z"/><path class="cls-45" d="M11,16.83V15.6h1.59v1.23h0a0.84,0.84,0,0,1-.8.43A0.81,0.81,0,0,1,11,16.83Zm0,0a0.8,0.8,0,0,0,.78.42,0.84,0.84,0,0,0,.78-0.42h0V15.6H11v1.23Z"/><path class="cls-44" d="M14.32,13.84c0,0.22,0,1.73,0,2.16s-0.06,1.85-.05,2.13,0.12,2.23.15,2.61,0.15,2,.19,2.25,0,1.32.43,1.28,0.22-.89.18-1.32S15,21.2,15,20.73s-0.12-2.31-.14-2.59,0-.75,0-1.5,0-2.79,0-2.79H14.32Z"/><path class="cls-45" d="M14.32,13.84c0,0.88,0,1.77,0,2.65l0,1.32c0,0.44,0,.88.05,1.32,0,0.88.1,1.76,0.18,2.64l0.12,1.32c0,0.22,0,.44.07,0.66a0.53,0.53,0,0,0,.32.51c0.24,0,.27-0.31.27-0.51a5.86,5.86,0,0,0-.06-0.66l-0.15-1.32c0-.44-0.11-0.88-0.13-1.32l-0.07-1.32c0-.44-0.07-0.88,0-1.32l0-1.32,0-2.65H14.32Zm0,0h0.55v4c0,0.44,0,.88.05,1.32L15,20.46c0,0.44.09,0.88,0.13,1.32l0.14,1.32a5.9,5.9,0,0,1,.06.66c0,0.19,0,.52-0.29.53a0.55,0.55,0,0,1-.34-0.53c0-.22-0.05-0.44-0.07-0.66L14.5,21.78c-0.08-.88-0.13-1.76-0.18-2.64,0-.44-0.07-0.88,0-1.32l0-1.32C14.33,15.61,14.32,14.73,14.32,13.84Z"/><path class="cls-44" d="M8.75,13.89a5.2,5.2,0,0,0,.53,0c0.05,0-.06.91-0.05,1.1s0,1,0,1.48,0,1.45,0,1.78,0,2.24,0,2.69,0,1.51,0,1.86,0,1.62-.41,1.61-0.18-1.1-.17-1.54,0.05-1.33.06-1.88,0-2.5,0-2.8,0-1.71-.05-2.29S8.75,13.89,8.75,13.89Z"/><path class="cls-45" d="M8.75,13.89l0.24,0,0.29,0a1.78,1.78,0,0,1,0,.4c-0.08.59,0,1.44,0,2.47s0,2.21,0,3.49v2a6.17,6.17,0,0,1-.19,2,0.33,0.33,0,0,1-.18.19,0.19,0.19,0,0,1-.22-0.11,1.23,1.23,0,0,1-.07-0.51c0-.34.06-0.68,0.06-1l0.06-2c0-1.28,0-2.47,0-3.49l0-1.39,0.06-1.07Zm0,0-0.05.93L8.64,15.89l0,1.39c0,1,0,2.21,0,3.49l-0.06,2c0,0.34-.06.67-0.07,1a1.2,1.2,0,0,0,.07.49,0.17,0.17,0,0,0,.19.1A0.3,0.3,0,0,0,9,24.17a6.17,6.17,0,0,0,.19-2c0-.67,0-1.33,0-2,0-1.28,0-2.47,0-3.49s0-1.87,0-2.47a2,2,0,0,0,0-.39L9,13.87Z"/><path class="cls-44" d="M15.37,18.26a0.36,0.36,0,0,1-.42.26l-0.88-.13a0.33,0.33,0,1,1,.09-0.64L15,17.88A0.36,0.36,0,0,1,15.37,18.26Z"/><path class="cls-45" d="M15.37,18.26a0.25,0.25,0,0,1-.07.15,0.43,0.43,0,0,1-.42.1l-0.63-.09a0.9,0.9,0,0,1-.35-0.09A0.31,0.31,0,0,1,14,17.75a0.9,0.9,0,0,1,.36,0L15,17.86a0.44,0.44,0,0,1,.37.23A0.25,0.25,0,0,1,15.37,18.26Zm0,0a0.24,0.24,0,0,0,0-.16A0.42,0.42,0,0,0,15,17.88l-0.63-.09a0.89,0.89,0,0,0-.35,0,0.29,0.29,0,0,0-.08.54,0.89,0.89,0,0,0,.34.09l0.63,0.1a0.42,0.42,0,0,0,.42-0.1A0.24,0.24,0,0,0,15.37,18.26Z"/><path class="cls-44" d="M9.81,18.08a0.36,0.36,0,0,1-.36.35l-0.89.06a0.33,0.33,0,1,1,0-.64l0.89-.06A0.36,0.36,0,0,1,9.81,18.08Z"/><path class="cls-45" d="M9.81,18.08a0.25,0.25,0,0,1,0,.17,0.43,0.43,0,0,1-.39.19l-0.64,0a0.9,0.9,0,0,1-.36,0,0.31,0.31,0,0,1,0-.59,0.9,0.9,0,0,1,.36-0.06l0.64,0a0.43,0.43,0,0,1,.41.14A0.25,0.25,0,0,1,9.81,18.08Zm0,0a0.24,0.24,0,0,0-.06-0.15,0.42,0.42,0,0,0-.41-0.13l-0.64,0a0.89,0.89,0,0,0-.35.06,0.31,0.31,0,0,0-.18.29,0.31,0.31,0,0,0,.22.26,0.89,0.89,0,0,0,.35,0l0.64,0a0.42,0.42,0,0,0,.39-0.18A0.25,0.25,0,0,0,9.81,18.08Z"/><path class="cls-44" d="M9.81,15a0.36,0.36,0,0,1-.39.31l-0.89,0a0.33,0.33,0,1,1,0-.64l0.89,0A0.36,0.36,0,0,1,9.81,15Z"/><path class="cls-45" d="M9.81,15a0.25,0.25,0,0,1-.06.16,0.43,0.43,0,0,1-.41.15l-0.64,0a0.9,0.9,0,0,1-.36,0,0.31,0.31,0,0,1,0-.59,0.9,0.9,0,0,1,.36,0l0.64,0a0.44,0.44,0,0,1,.4.18A0.25,0.25,0,0,1,9.81,15Zm0,0a0.24,0.24,0,0,0,0-.16,0.42,0.42,0,0,0-.39-0.17l-0.64,0a0.88,0.88,0,0,0-.35,0,0.31,0.31,0,0,0-.21.27,0.31,0.31,0,0,0,.19.28,0.88,0.88,0,0,0,.35,0l0.64,0a0.43,0.43,0,0,0,.4-0.14A0.25,0.25,0,0,0,9.81,15Z"/><path class="cls-44" d="M15.5,14.89a0.36,0.36,0,0,1-.39.31l-0.89,0a0.33,0.33,0,1,1,0-.64l0.89,0A0.36,0.36,0,0,1,15.5,14.89Z"/><path class="cls-45" d="M15.51,14.89a0.25,0.25,0,0,1-.06.16,0.43,0.43,0,0,1-.41.15l-0.64,0a0.9,0.9,0,0,1-.36,0,0.31,0.31,0,0,1,0-.59,0.89,0.89,0,0,1,.36,0l0.64,0a0.44,0.44,0,0,1,.4.18A0.25,0.25,0,0,1,15.51,14.89Zm0,0a0.24,0.24,0,0,0,0-.16,0.42,0.42,0,0,0-.39-0.17l-0.64,0a0.88,0.88,0,0,0-.35,0,0.29,0.29,0,0,0,0,.55,0.89,0.89,0,0,0,.35,0l0.64,0a0.42,0.42,0,0,0,.4-0.14A0.24,0.24,0,0,0,15.5,14.89Z"/><path class="cls-44" d="M14.39,27.45c-0.72,0-3.81.08-5.24,0a5.93,5.93,0,0,1-2-.38,1.25,1.25,0,0,0,.4.78,1.31,1.31,0,0,0,1,.78,40.49,40.49,0,0,0,6,0A1.56,1.56,0,0,0,16,27.81,2.19,2.19,0,0,0,16.4,27,5.27,5.27,0,0,1,14.39,27.45Z"/><path class="cls-45" d="M14.39,27.45H10.73c-0.61,0-1.22,0-1.83,0a5.79,5.79,0,0,1-1.79-.36h0a1.26,1.26,0,0,0,.26.62,4.53,4.53,0,0,1,.4.55A1.79,1.79,0,0,0,9,28.68c0.91,0.06,1.83.06,2.74,0.05s1.83,0,2.74-.11a1.78,1.78,0,0,0,1.24-.48A2.74,2.74,0,0,0,16.4,27h0A5.23,5.23,0,0,1,14.39,27.45Zm0,0a5.22,5.22,0,0,0,2-.5h0a2.76,2.76,0,0,1-.64,1.2,1.81,1.81,0,0,1-1.25.5c-0.91.09-1.83,0.09-2.74,0.1S10,28.76,9,28.7a1.81,1.81,0,0,1-1.27-.45,4.59,4.59,0,0,0-.4-0.55,1.28,1.28,0,0,1-.26-0.63v0h0a5.76,5.76,0,0,0,1.78.37c0.61,0,1.22,0,1.83,0h3.66Z"/><path class="cls-49" d="M45.36,35.33a1.52,1.52,0,0,1,.2.93c-0.12.29-.38,0.55-1.5,0.66a17.48,17.48,0,0,1-1.91.14c-1.27.06-2,.4-3.06,0.17a10.61,10.61,0,0,0-1.8-.44c-0.8,0-1.76.13-2-.29S35,33,35.56,32.13s0.45-1.7,3.17-1.56,3.65,1.62,3.76,1.84S45.36,35.33,45.36,35.33Z"/><path class="cls-50" d="M31.26,28a54.93,54.93,0,0,0,.81,5.61c0.52,2,.87,3.11.93,3.67s0.14-.14,1.21-0.43a8.22,8.22,0,0,1,2.46-.49c1.36-.09.28-3.63,0.68-3.94a4.29,4.29,0,0,1,2.71,0A3,3,0,0,1,42,33.46a4.77,4.77,0,0,0,1.91,1.73c0.69,0.29,1.62,1.13,1.7,1.07s0.29,0-.14-1.65-0.23-2.16-.72-2.87a3.65,3.65,0,0,1-.75-1.41c-0.26-.78.32-0.2,0.11-1.62s-0.14-1.79-.81-2.31-4.91-.32-6.5,0S31.26,28,31.26,28Z"/><path class="cls-51" d="M40.9,6.17c0.27,0.51,0,1,.26,1.28s0.57-.27.66,0.43A7,7,0,0,0,42.21,9a1.39,1.39,0,0,0,.24.82c0.23,0.39.72,0.14,0.62,0.71s0.31,0.67,0,.94a10.54,10.54,0,0,1-1.62.78l-8.74.61a1,1,0,0,1,0-1.39,3.15,3.15,0,0,0,1-1.34c0.52-.91.93-1.17,0.77-1.73s-0.51-.2-0.25-0.92a3.89,3.89,0,0,0,.25-1.28l0.35-.31,2.51-.65Z"/><path class="cls-52" d="M36.52,9.76c-0.18.81-.37,1.62-0.37,1.62l-0.1,1.85,1.56,1.29,2.4-.65,0.23-1.44-0.68-1.8L39.05,9.3Z"/><ellipse class="cls-53" cx="37.88" cy="7.88" rx="2.26" ry="3.09"/><path class="cls-15" d="M37.87,4.79c-1.16,0-2.11,1.18-2.25,2.71a2.38,2.38,0,0,1,1.85-.28,3,3,0,0,0,.83.5,11.27,11.27,0,0,1,1.16.64,3.77,3.77,0,0,0,.62.18,4.17,4.17,0,0,0,.05-0.65C40.13,6.17,39.12,4.79,37.87,4.79Z"/><path class="cls-54" d="M40.9,6.24a1.46,1.46,0,0,1-.25.92c-0.08.15-.38,0.55-0.38,0.55L40.1,7.45a0.74,0.74,0,0,0,.26-0.33,5,5,0,0,0,.26-0.95Z"/><path class="cls-55" d="M34.77,6.17a10.16,10.16,0,0,0,.63,2c0.41,0.95.24,0.58,0-.29s-0.5-1.71-.5-1.71H34.77Z"/><path class="cls-56" d="M35.84,13.14c1.3,0.61.91,0.67,1.91,0.73s2.46-1,2.64-1a7.51,7.51,0,0,1,1,1.68s1.34,10,1.35,10.29-9.55-.17-9.55-0.17l0.85-4.17Z"/><path class="cls-57" d="M36.31,16.43c0,1.15.08,2.06,0.13,3.18S35.32,24,35.63,24.4s-0.1,1-1,.54a1.42,1.42,0,0,1-1.46-.54c-0.43-.76.87-2.58,1.22-3.93s1-4.38,1-4.38Z"/><path class="cls-58" d="M33.35,23.58c0.11-.14.15-0.23,0.3-0.44a17.09,17.09,0,0,0,1-1.91,8.61,8.61,0,0,1,.75-1.54,6.68,6.68,0,0,0,.91-2.1,7.16,7.16,0,0,0,.26-1.93,7.52,7.52,0,0,0-.42-1.28c-0.18-.28.05-0.13,0.16-0.51a15.24,15.24,0,0,1-.56-1.61,8.17,8.17,0,0,1,.27-1.9H35.9c-0.72.09-1.88,0.39-2.7,0.48s-0.65.3-.78,0.65a10.68,10.68,0,0,1-.78,1.65c-0.3.48-1.39,2.3-1.84,3.25a14.34,14.34,0,0,0-1.4,3.73,15.63,15.63,0,0,1-1,3.05c-0.22.68,2,0,2.38,0.11s0.5-1.52.67-2.08,0.65-1.56,1.13-2.73,0.69-1,1.08-2-0.34,1.22-.37,2.86c0,1.39-1.83,3.28-1.15,3.88a4.47,4.47,0,0,0,1.64.38A3.21,3.21,0,0,0,33.35,23.58Z"/><path class="cls-58" d="M46.72,22a3,3,0,0,0-.4-1.59,21.27,21.27,0,0,1-1.06-2.77,27.64,27.64,0,0,1-1-3.51,4.52,4.52,0,0,0-.65-2.3c-0.37-.39-0.32-0.78-1.1-0.87s-1.71-.32-2.37-0.46a1.51,1.51,0,0,1-.24.15c0.82,1.16.27,1.42,0.18,2.69s-0.53,1.08-.53,1.08l0.14,0.08L39.41,15a16.18,16.18,0,0,1,1.75,2.86c0.1,0.61.35,1.52,0.53,2.25a26.53,26.53,0,0,0,.42,2.7c0.29,0.85.13,0.45,1.13,1.34,0.76-.12,1.26-0.38,1-0.94-0.87-2-.94-1.74-1.19-3.56-0.19-1.36-.51-2.41-0.06-1.06a22.72,22.72,0,0,1,.61,2.21,4.6,4.6,0,0,0,.8,2.13,5.28,5.28,0,0,0,1.9.44A2,2,0,0,0,46.72,22Z"/><polyline class="cls-59" points="37.04 51.2 35.26 51.2 35.26 54.06 34.74 54.06"/><polyline class="cls-59" points="39.69 45.46 38.91 45.46 38.91 51.2 37.39 51.2"/><line class="cls-60" x1="43.4" y1="45.46" x2="39.69" y2="45.46"/><rect class="cls-36" x="36.52" y="28.11" width="1.1" height="10.77"/><rect class="cls-37" x="36.92" y="28.89" width="0.54" height="9.99"/><line class="cls-60" x1="34.74" y1="54.07" x2="31.03" y2="54.07"/><circle class="cls-61" cx="37.05" cy="33.88" r="1.15"/><path class="cls-43" d="M38.2,33.89a1.74,1.74,0,0,0,0-.3,1.08,1.08,0,0,0-.47-0.63,1.18,1.18,0,0,0-1.08-.07,1.09,1.09,0,0,0,0,2,1.18,1.18,0,0,0,.55.09,1.11,1.11,0,0,0,.49-0.15,1.08,1.08,0,0,0,.48-0.61A1.72,1.72,0,0,0,38.2,33.89Zm0,0a1.78,1.78,0,0,1,0,.31,1.16,1.16,0,0,1-.46.69,1.26,1.26,0,0,1-.53.22A1.15,1.15,0,0,1,36.55,35a1.22,1.22,0,0,1,0-2.23,1.16,1.16,0,0,1,.62-0.08,1.22,1.22,0,0,1,.52.2,1.18,1.18,0,0,1,.46.67A1.84,1.84,0,0,1,38.21,33.88Z"/><circle class="cls-62" cx="37.05" cy="33.88" r="0.75"/><path class="cls-22" d="M29.79,23.29c-0.05-.46-0.64-0.57-1.41-0.48a1.23,1.23,0,0,0-1.29,1,2.73,2.73,0,0,0,.64,1.14,0.24,0.24,0,0,0,.14,0h0a0.21,0.21,0,0,0,.23.2,0.22,0.22,0,0,0,.22-0.16,0.23,0.23,0,0,0,.16.06,0.28,0.28,0,0,0,.22-0.3,0.55,0.55,0,0,0,.23.08c0.37-.2.15-0.42-0.06-1C29.3,23.48,29.82,23.57,29.79,23.29Z"/><path class="cls-15" d="M29.79,23.29a0.52,0.52,0,0,0-.39-0.43,1.81,1.81,0,0,0-.6-0.08,2.49,2.49,0,0,0-1.18.26,1.14,1.14,0,0,0-.44.41,0.59,0.59,0,0,0,0,.58,4.32,4.32,0,0,0,.28.54,2.31,2.31,0,0,0,.17.25,0.28,0.28,0,0,0,.1.09,0.26,0.26,0,0,0,.13,0l0,0v0a0.19,0.19,0,0,0,.19.19,0.21,0.21,0,0,0,.23-0.14v0l0,0a0.2,0.2,0,0,0,.25,0,0.33,0.33,0,0,0,.11-0.24v0h0l0.15,0.07a0.12,0.12,0,0,0,.14,0,0.25,0.25,0,0,0,.11-0.28c-0.06-.21-0.17-0.41-0.24-0.62h0a1.59,1.59,0,0,1,.5-0.23l0.26-.08A0.19,0.19,0,0,0,29.79,23.29Zm0,0a0.2,0.2,0,0,1-.15.21l-0.26.09a1.59,1.59,0,0,0-.5.23h0c0.08,0.21.19,0.41,0.25,0.63a0.28,0.28,0,0,1-.12.31,0.15,0.15,0,0,1-.16,0l-0.16-.07h0a0.35,0.35,0,0,1-.12.27,0.23,0.23,0,0,1-.29,0h0a0.24,0.24,0,0,1-.26.17,0.22,0.22,0,0,1-.21-0.22h0a0.29,0.29,0,0,1-.15,0,0.28,0.28,0,0,1-.12-0.1,2.56,2.56,0,0,1-.17-0.26A4.28,4.28,0,0,1,27.16,24a0.61,0.61,0,0,1,0-.6A1.16,1.16,0,0,1,27.61,23a2.5,2.5,0,0,1,1.19-.26,1.85,1.85,0,0,1,.61.08A0.53,0.53,0,0,1,29.8,23.28Z"/><path class="cls-27" d="M28.83,23.63l2.32-.37L31.3,24l-2.18.37A7.64,7.64,0,0,0,28.83,23.63Z"/><path class="cls-63" d="M32.85,49.75a16.09,16.09,0,0,1-1.1,2.17c-0.32.83-.72,1.76,0.26,1.82a2.14,2.14,0,0,0,2-1.82c0.23-1,1-1.93.73-2.24a6.18,6.18,0,0,0-.59-0.82A3.86,3.86,0,0,0,32.85,49.75Z"/><path class="cls-63" d="M39.47,40.36c0.1,1.32,0,2.6.12,3.21a2.59,2.59,0,0,0,.8,1.56,1.48,1.48,0,0,0,1.88-2.05c-0.4-1.12-.6-1.85-0.78-2.39a1.8,1.8,0,0,0-.72-0.85Z"/><path class="cls-22" d="M39.38,30.71c-0.63,0-1.59.16-1.56,1a16.21,16.21,0,0,0,.37,2.73c0.15,0.55.35,2.08,0.44,2.54a18.65,18.65,0,0,1,.66,2.14c0.17,0.84.18,1.51,0.29,2,0.19,0.82.14,1.56,0.92,1.45s0.9-.58.84-1.68,0-.75-0.14-2,0-1.67-.2-3-0.48-1.55-.61-2.75C40.29,32.24,40.56,30.62,39.38,30.71Z"/><path class="cls-22" d="M33.05,36.65a6.47,6.47,0,0,1,0,2.12c-0.14,1-.72,2.83-0.81,3.58a51.1,51.1,0,0,0,.29,5.4,19.57,19.57,0,0,1,.15,2.66c0,0.43-.5,1.45.17,1.5A1.21,1.21,0,0,0,34,50.65a19.93,19.93,0,0,0,.28-2C34.35,47.56,35,46.17,35,45s0.36-2.27.4-3.5,0.22-3.06.22-3.52,0.39-1.48-.12-1.48S33.05,36.65,33.05,36.65Z"/><line class="cls-52" x1="27.56" y1="24.05" x2="27.88" y2="24.89"/><line class="cls-52" x1="27.99" y1="24.1" x2="28.31" y2="24.94"/><line class="cls-52" x1="28.39" y1="23.86" x2="28.71" y2="24.69"/><line class="cls-52" x1="28.83" y1="23.69" x2="29.15" y2="24.52"/><path class="cls-64" d="M35.16,13.57a5.71,5.71,0,0,1-.26.94h1.46V13.57h-1.2Z"/><path class="cls-64" d="M39.7,14.52a1.34,1.34,0,0,0,.7.44,5.73,5.73,0,0,0,1,0,1.11,1.11,0,0,0-.06-0.62c-0.09-.36-0.12-0.48-0.16-0.77s-0.29-1.15-.29-1.15"/><path class="cls-65" d="M36.31,10.11a3.15,3.15,0,0,0-1.1,1.7,16.08,16.08,0,0,1-.78,1.91s1.73,0.09,1.88.14-0.09-.41,0-1.62A14.23,14.23,0,0,0,36.31,10.11Z"/><path class="cls-65" d="M40.14,10.52a2.8,2.8,0,0,1,.79,2.13,6.34,6.34,0,0,0,.23,1.79,5,5,0,0,1-1.6,0,3.38,3.38,0,0,0,.3-1.47,12.36,12.36,0,0,0-.3-2.34l-0.18-.29Z"/><path class="cls-64" d="M32.34,18.75c-0.06.74-.25,1.14-0.32,1.72a3,3,0,0,0,.28-1.09C32.3,19.18,32.32,19,32.34,18.75Z"/><path class="cls-64" d="M32.78,23.64a11.09,11.09,0,0,1-1.12-.19c0,0.09,0,.14.12,0.19s1.39,0.23,1.39.23a0.39,0.39,0,0,0,.14-0.27C33.16,23.65,32.79,23.6,32.78,23.64Z"/><path class="cls-64" d="M33.3,23.6a2.22,2.22,0,0,0-.14-1,7.51,7.51,0,0,1-.29-2.78,10.67,10.67,0,0,1,.44-2,3.49,3.49,0,0,0,0-1.85l-0.38-.52-0.07,0c-0.33.19-.54,0.16-0.59,0.54a3.81,3.81,0,0,1-.27.9,10.69,10.69,0,0,0-.74,1.21c-0.17.52-.52,1.39-0.67,1.85a1.87,1.87,0,0,0-.35,1.21,2.8,2.8,0,0,1-.19,1.18c0,0.17-.55,1.27.25-0.35a7.29,7.29,0,0,1,.15-0.78c0.17-.56.65-1.56,1.13-2.73s0.69-1,1.08-2-0.17.73-.33,2.23h0c0,0.21,0,.43,0,0.63A3,3,0,0,1,32,20.47a3.5,3.5,0,0,0,0,.59,7.6,7.6,0,0,1-.24,2.08c0,0.15-.07.25-0.09,0.32a11.09,11.09,0,0,0,1.12.19S33.16,23.65,33.3,23.6Z"/><path class="cls-64" d="M42.73,12.08s0,0.09,0,.13c0,0.48-.11,1.06-0.09,1.5s0.15,1.41.19,1.69S43,17.06,43,17.17s0,1.49.06,1.56a7.57,7.57,0,0,0-.21-0.89,15.85,15.85,0,0,1-.21-2.1,15.5,15.5,0,0,1-.17-2.17,12.26,12.26,0,0,0,.29-1.86A1.16,1.16,0,0,0,42.73,12.08Z"/><path class="cls-66" d="M35.94,23.58c2.46,0,7.78.35,7,2.18S42.33,30.6,41.44,31a13.57,13.57,0,0,1-5.24.71A15.44,15.44,0,0,1,30.87,31c-0.89-.43-0.72-3.44-1.5-5.27-0.5-1.18,1.51-1.74,3.66-2a30,30,0,0,1,3.33-.19"/><path class="cls-67" d="M43,24.84a9.17,9.17,0,0,0-6.65-2.6H35.94a9.17,9.17,0,0,0-6.64,2.6"/><path class="cls-68" d="M39.12,22.59c0.08-.57.63-0.93,0.82-0.75a0.84,0.84,0,0,1-.21,1A3.94,3.94,0,0,0,39,23.92C39.09,23.37,39,23.15,39.12,22.59Z"/><path class="cls-69" d="M40.39,22.2c-0.93.65-1.24,1.91-1.81,2.86"/><path class="cls-70" d="M39.13,23.21a1.86,1.86,0,0,1,.66-0.92c0.28-.18.52-0.2,0.59-0.09a0.58,0.58,0,0,1-.13.54,5.65,5.65,0,0,1-.54.8c-0.48.6-.67,0.86-1.15,1.52A15.2,15.2,0,0,0,39.13,23.21Z"/><path class="cls-68" d="M40,23.07c0.36-.54,1-0.67,1.15-0.44a1,1,0,0,1-.7.93,3.68,3.68,0,0,0-1.14.84A11.62,11.62,0,0,1,40,23.07Z"/><path class="cls-69" d="M40.94,23.34A5.29,5.29,0,0,0,39.1,25.1"/><path class="cls-70" d="M39.8,23.79c0.37-.52,1-0.67,1.13-0.46a1.07,1.07,0,0,1-.72.91,3.84,3.84,0,0,0-1.12.86A11.09,11.09,0,0,1,39.8,23.79Z"/><path class="cls-69" d="M38,22A6.11,6.11,0,0,0,38.2,25"/><path class="cls-70" d="M37.59,23.36A1.23,1.23,0,0,1,38,22c0.28,0,.4.75,0.23,1.4A2.72,2.72,0,0,0,38.2,25,4.52,4.52,0,0,1,37.59,23.36Z"/><path class="cls-68" d="M38.26,23.33a0.72,0.72,0,0,1,.21-1c0.27-.06.53,0.45,0.45,0.9a1.34,1.34,0,0,0,.13,1.12A2.38,2.38,0,0,1,38.26,23.33Z"/><path class="cls-68" d="M39,23.1a0.52,0.52,0,0,1,.52-0.63c0.27,0,.36.51,0.13,0.81a1.4,1.4,0,0,0-.42.81A3.69,3.69,0,0,1,39,23.1Z"/><path class="cls-69" d="M39,22c-0.06,1-.17,2-0.29,3"/><path class="cls-70" d="M38.56,23.33A1.2,1.2,0,0,1,39,22c0.27,0,.41.71,0.21,1.37A15.73,15.73,0,0,0,38.74,25,15.07,15.07,0,0,0,38.56,23.33Z"/><path class="cls-68" d="M37.05,23.45a0.46,0.46,0,0,1,0-.75,0.44,0.44,0,0,1,.61.4,4.3,4.3,0,0,0,.11.89A4.33,4.33,0,0,0,37.05,23.45Z"/><path class="cls-71" d="M37.46,23.69a0.43,0.43,0,1,1,.64-0.19,1.09,1.09,0,0,0,.1.85A2.54,2.54,0,0,1,37.46,23.69Z"/><path class="cls-71" d="M38.56,23.49A0.45,0.45,0,0,1,39,22.88a0.48,0.48,0,0,1,.23.73,4.15,4.15,0,0,0-.46.77A5,5,0,0,0,38.56,23.49Z"/><path class="cls-68" d="M37.41,23.37c0.08-.52.57-0.84,0.74-0.68a0.76,0.76,0,0,1-.19.92,3.53,3.53,0,0,0-.64,1C37.38,24.08,37.33,23.88,37.41,23.37Z"/><path class="cls-69" d="M38.55,23c-0.84.59-1.12,1.73-1.64,2.59"/><path class="cls-70" d="M37.42,23.94A1.69,1.69,0,0,1,38,23.1c0.26-.16.47-0.18,0.54-0.09a1.86,1.86,0,0,1-.6,1.21c-0.44.54-.61,0.78-1,1.38A13.72,13.72,0,0,0,37.42,23.94Z"/><path class="cls-69" d="M36.41,22.82a5.55,5.55,0,0,0,.16,2.77"/><path class="cls-70" d="M36,24.07a1.11,1.11,0,0,1,.39-1.25,1.12,1.12,0,0,1,.21,1.27,2.46,2.46,0,0,0-.05,1.51A4.08,4.08,0,0,1,36,24.07Z"/><path class="cls-68" d="M36.63,24a0.65,0.65,0,0,1,.19-0.91c0.25-.05.48,0.41,0.41,0.82a1.21,1.21,0,0,0,.12,1A2.15,2.15,0,0,1,36.63,24Z"/><path class="cls-68" d="M37.26,23.83a0.47,0.47,0,0,1,.47-0.57c0.24,0,.33.47,0.11,0.73a1.25,1.25,0,0,0-.38.74A3.29,3.29,0,0,1,37.26,23.83Z"/><path class="cls-69" d="M37.32,22.85c-0.05.89-.16,1.83-0.26,2.72"/><path class="cls-70" d="M36.9,24a1.08,1.08,0,0,1,.42-1.19,1,1,0,0,1,.19,1.24,14.31,14.31,0,0,0-.45,1.48A13.63,13.63,0,0,0,36.9,24Z"/><path class="cls-68" d="M40.54,23.65c0.36-.54,1-0.67,1.15-0.44a1,1,0,0,1-.7.93,3.69,3.69,0,0,0-1.14.84A11.76,11.76,0,0,1,40.54,23.65Z"/><path class="cls-69" d="M38.56,22.57a6.11,6.11,0,0,0,.17,3.06"/><path class="cls-70" d="M38.12,23.95a1.22,1.22,0,0,1,.44-1.38c0.28,0,.4.75,0.23,1.4a2.72,2.72,0,0,0-.06,1.66A4.52,4.52,0,0,1,38.12,23.95Z"/><path class="cls-68" d="M39.5,23.69A0.52,0.52,0,0,1,40,23.06c0.27,0,.36.51,0.13,0.81a1.39,1.39,0,0,0-.42.81A3.68,3.68,0,0,1,39.5,23.69Z"/><path class="cls-69" d="M39.56,22.6c-0.06,1-.17,2-0.29,3"/><path class="cls-70" d="M39.09,23.92a1.2,1.2,0,0,1,.46-1.32c0.27,0,.41.71,0.21,1.38a15.64,15.64,0,0,0-.49,1.63A15.07,15.07,0,0,0,39.09,23.92Z"/><path class="cls-68" d="M37.94,24c0.08-.52.57-0.84,0.74-0.68a0.76,0.76,0,0,1-.19.92,3.56,3.56,0,0,0-.64,1C37.91,24.66,37.86,24.47,37.94,24Z"/><path class="cls-69" d="M39.09,23.6c-0.84.59-1.12,1.73-1.64,2.59"/><path class="cls-70" d="M38,24.52a1.68,1.68,0,0,1,.6-0.83c0.26-.16.47-0.18,0.54-0.09a0.53,0.53,0,0,1-.12.49,5,5,0,0,1-.49.72c-0.44.54-.61,0.78-1,1.38A13.38,13.38,0,0,0,38,24.52Z"/><path class="cls-69" d="M37.86,23.43c-0.05.89-.16,1.83-0.26,2.72"/><path class="cls-70" d="M37.44,24.63a1.09,1.09,0,0,1,.42-1.19A1.05,1.05,0,0,1,38,24.68a14.37,14.37,0,0,0-.45,1.48A13.66,13.66,0,0,0,37.44,24.63Z"/><path class="cls-71" d="M36.9,24.19a0.41,0.41,0,0,1,.39-0.56,0.44,0.44,0,0,1,.21.66,3.79,3.79,0,0,0-.42.7A4.52,4.52,0,0,0,36.9,24.19Z"/><path class="cls-68" d="M37.82,23.62a0.42,0.42,0,0,1,.54-0.45,0.44,0.44,0,0,1,.07.72c-0.28.25-.46,0.3-0.68,0.54A2.5,2.5,0,0,0,37.82,23.62Z"/><path class="cls-68" d="M38.77,24.35a0.72,0.72,0,0,1,.21-1c0.27-.06.53,0.45,0.45,0.9a1.34,1.34,0,0,0,.13,1.12A2.4,2.4,0,0,1,38.77,24.35Z"/><path class="cls-72" d="M29.37,25.38c0.62,1.9.61,5.88,1.5,6.31a15.45,15.45,0,0,0,5.33.71,13.56,13.56,0,0,0,5.24-.71c0.89-.43.72-4.47,1.5-6.31s-1.79-.74-7-0.62C32,24.84,28.78,23.54,29.37,25.38Z"/><path class="cls-22" d="M43.62,23.4c0.05-.46.64-0.57,1.41-0.48a1.23,1.23,0,0,1,1.29,1A2.71,2.71,0,0,1,45.67,25a0.24,0.24,0,0,1-.14,0h0a0.21,0.21,0,0,1-.23.2A0.22,0.22,0,0,1,45.09,25a0.24,0.24,0,0,1-.16.06,0.28,0.28,0,0,1-.23-0.3,0.53,0.53,0,0,1-.23.08c-0.37-.2-0.15-0.42.06-1C44.11,23.6,43.59,23.69,43.62,23.4Z"/><path class="cls-15" d="M43.62,23.4A0.53,0.53,0,0,1,44,23a1.83,1.83,0,0,1,.61-0.08,2.51,2.51,0,0,1,1.19.26,1.16,1.16,0,0,1,.45.41,0.62,0.62,0,0,1,0,.6,4.28,4.28,0,0,1-.28.55,2.27,2.27,0,0,1-.17.26,0.28,0.28,0,0,1-.12.11,0.27,0.27,0,0,1-.15,0h0a0.22,0.22,0,0,1-.21.22,0.24,0.24,0,0,1-.26-0.17h0a0.23,0.23,0,0,1-.29,0,0.36,0.36,0,0,1-.12-0.27h0l-0.16.07a0.15,0.15,0,0,1-.16,0,0.28,0.28,0,0,1-.12-0.31c0.06-.22.18-0.41,0.25-0.63h0a1.57,1.57,0,0,0-.5-0.23l-0.26-.09A0.2,0.2,0,0,1,43.62,23.4Zm0,0a0.19,0.19,0,0,0,.15.2L44,23.68a1.58,1.58,0,0,1,.51.23h0c-0.08.21-.19,0.41-0.25,0.62a0.25,0.25,0,0,0,.11.28,0.12,0.12,0,0,0,.14,0l0.15-.07h0v0a0.33,0.33,0,0,0,.11.24,0.2,0.2,0,0,0,.25,0l0,0v0a0.21,0.21,0,0,0,.23.15A0.19,0.19,0,0,0,45.52,25v0l0,0a0.25,0.25,0,0,0,.13,0,0.29,0.29,0,0,0,.1-0.09A2.38,2.38,0,0,0,46,24.68a4.28,4.28,0,0,0,.28-0.54,0.59,0.59,0,0,0,0-.58,1.13,1.13,0,0,0-.44-0.41,2.52,2.52,0,0,0-1.18-.26A1.83,1.83,0,0,0,44,23,0.52,0.52,0,0,0,43.62,23.4Z"/><path class="cls-27" d="M44.58,23.74l-2.32-.37-0.15.77,2.18,0.37A7.1,7.1,0,0,1,44.58,23.74Z"/><line class="cls-52" x1="45.85" y1="24.16" x2="45.54" y2="25"/><line class="cls-52" x1="45.42" y1="24.22" x2="45.1" y2="25.06"/><line class="cls-52" x1="45.02" y1="23.97" x2="44.71" y2="24.81"/><line class="cls-52" x1="44.58" y1="23.8" x2="44.27" y2="24.64"/><path class="cls-23" d="M36.88,9.37a5.21,5.21,0,0,1,.87-0.13,8.67,8.67,0,0,1,1.08-.16,1.13,1.13,0,0,1-1,.8A1.73,1.73,0,0,1,36.88,9.37Z"/><path class="cls-16" d="M36.88,9.36s0.27-.06.68-0.13c0.21,0,.45-0.06.7-0.11l0.4-.06c0.06,0,.16-0.06.2,0a0.44,0.44,0,0,1-.09.2,1.45,1.45,0,0,1-.62.54,0.56,0.56,0,0,1-.39,0,1.57,1.57,0,0,1-.32-0.1A2.16,2.16,0,0,1,37,9.5a1,1,0,0,1-.14-0.13h0Zm0,0a1.93,1.93,0,0,0,.57.36c0.09,0,.21,0,0.32.08a0.48,0.48,0,0,0,.34,0,1.66,1.66,0,0,0,.62-0.49,0.47,0.47,0,0,0,.09-0.17c0-.05-0.11,0-0.16,0s-0.26.05-.39,0.08a4.8,4.8,0,0,1-.7.13Z"/><path class="cls-21" d="M38.21,7.37a1.61,1.61,0,0,1,.52-0.25l0.11,0a0.35,0.35,0,0,1,.1,0l0.14,0.13a0.42,0.42,0,0,0,.13.11h0a0.43,0.43,0,0,1-.16-0.1l-0.14-.11-0.09,0-0.1,0c-0.13,0-.25.12-0.36,0.14l-0.17.05h0Z"/><circle class="cls-21" cx="38.72" cy="7.24" r="0.14"/><circle class="cls-21" cx="36.67" cy="7.37" r="0.14"/><path class="cls-21" d="M37.14,7.38L37,7.33a2.28,2.28,0,0,0-.35-0.09c-0.12,0-.24.1-0.34,0.11l-0.16,0h0a1.4,1.4,0,0,1,.51-0.2,1.72,1.72,0,0,1,.36.13l0.16,0.06h0Z"/><path class="cls-55" d="M37.93,2.36a3.2,3.2,0,0,0-3.23,3.18,3,3,0,0,0,.06.63,20.84,20.84,0,0,0,3.28.24c0.71,0,2-.11,3-0.18A3.17,3.17,0,0,0,37.93,2.36Z"/><path class="cls-36" d="M37.93,2.36c-0.23,0-.47,0-0.7.08a4.33,4.33,0,0,0-.66.23A2.88,2.88,0,0,0,36,3a2.39,2.39,0,0,0-.5.49,2.33,2.33,0,0,0-.39.58,2.76,2.76,0,0,0-.25.65,3.82,3.82,0,0,0-.1.69,1.69,1.69,0,0,0,0,.35l0,0.35,0,0,1.57,0.17c0.53,0,1.05,0,1.58.06,0.26,0,.53,0,0.79,0l0.79,0,1.58-.1,0,0c0-.23.06-0.47,0.07-0.7l0-.35A1.53,1.53,0,0,0,41,4.81a3.08,3.08,0,0,0-.24-0.66l-0.17-.31a1.85,1.85,0,0,0-.21-0.28,2.32,2.32,0,0,0-.5-0.5,2.8,2.8,0,0,0-.6-0.38,4.1,4.1,0,0,0-.67-0.24C38.41,2.4,38.17,2.4,37.93,2.36Zm0,0c0.24,0,.48,0,0.71.08a4,4,0,0,1,.68.23,2.83,2.83,0,0,1,.61.37,2.36,2.36,0,0,1,.52.49,1.87,1.87,0,0,1,.22.28l0.18,0.31a3.09,3.09,0,0,1,.26.67,1.39,1.39,0,0,1,.06.35l0,0.36c0,0.25-.05.48-0.08,0.72v0h0l-1.58.09-0.79,0c-0.26,0-.53,0-0.79,0-0.53,0-1.06,0-1.58-.06l-1.57-.18h0v0l0-.35a1.78,1.78,0,0,1,0-.35,3.76,3.76,0,0,1,.1-0.7,2.81,2.81,0,0,1,.25-0.66,2.42,2.42,0,0,1,.39-0.59A2.4,2.4,0,0,1,36,3a2.9,2.9,0,0,1,.6-0.37,4.29,4.29,0,0,1,.67-0.23C37.46,2.39,37.7,2.38,37.93,2.36Z"/><path class="cls-22" d="M37.64,7.64a1.65,1.65,0,0,0-.21,1.12,0.59,0.59,0,0,0,.64.09"/><path class="cls-15" d="M37.64,7.64l-0.08.28a4,4,0,0,0-.17.61,0.34,0.34,0,0,0,0,.16,0.25,0.25,0,0,0,.12.09,0.88,0.88,0,0,0,.27.1,0.47,0.47,0,0,0,.27,0h0a0.49,0.49,0,0,1-.28.07,0.61,0.61,0,0,1-.29-0.09,0.29,0.29,0,0,1-.14-0.12,0.36,0.36,0,0,1,0-.18,3.69,3.69,0,0,1,.19-0.61l0.09-.27h0Z"/><line class="cls-73" x1="36.75" y1="39.99" x2="35.48" y2="50.9"/><line class="cls-73" x1="37.27" y1="39.99" x2="38.54" y2="50.9"/><line class="cls-74" x1="37.05" y1="39.36" x2="37.05" y2="59.04"/><line class="cls-75" x1="37.27" y1="38.88" x2="37.27" y2="59.37"/></svg>