<?xml version="1.0" encoding="utf-8"?>
<!-- Generator: Adobe Illustrator 19.2.0, SVG Export Plug-In . SVG Version: 6.00 Build 0)  -->
<svg version="1.1" id="Layer_1" xmlns="http://www.w3.org/2000/svg" xmlns:xlink="http://www.w3.org/1999/xlink" x="0px" y="0px"
	 viewBox="0 0 374.8 244.3" style="enable-background:new 0 0 374.8 244.3;" xml:space="preserve">
<style type="text/css">
	.st0{fill:none;}
	.st1{fill:#231F20;}
	.st2{fill:#E6BD82;stroke:#CF9358;stroke-width:4.204600e-02;stroke-miterlimit:10;}
	.st3{fill:#ACADB0;stroke:#8EA3AE;stroke-width:4.204600e-02;stroke-miterlimit:10;}
	.st4{fill:#63362A;}
	.st5{fill:#891F1D;}
	.st6{fill:#384756;stroke:#526E82;stroke-width:4.204600e-02;stroke-miterlimit:10;}
	.st7{fill:#671717;}
	.st8{fill:#E2E3E4;}
	.st9{fill:#4A5E71;stroke:#526E82;stroke-width:4.204600e-02;stroke-miterlimit:10;}
	.st10{fill:#C7C8C9;}
	.st11{fill:#301E19;stroke:#694B2D;stroke-width:4.204600e-02;stroke-miterlimit:10;}
	.st12{fill:#0F0C0B;}
	.st13{fill:#5A4C47;}
	.st14{fill:#1A1311;}
	.st15{fill:#E6BD82;stroke:#CF9358;stroke-width:3.104800e-02;stroke-miterlimit:10;}
	.st16{fill:#CF9358;}
	.st17{fill:#9D202F;}
	.st18{fill:#E6BD82;stroke:#CF9358;stroke-width:5.881000e-02;stroke-miterlimit:10;}
	.st19{fill:#451211;stroke:#451211;stroke-width:4.002100e-02;stroke-miterlimit:10;}
	.st20{fill:#6E3636;}
	.st21{fill:#E6BD82;stroke:#CF9358;stroke-width:4.002100e-02;stroke-miterlimit:10;}
	.st22{fill:#3F2E3D;}
	.st23{fill:#E6BD82;}
	.st24{fill:#FFF1E2;}
	.st25{fill:#AA8B87;}
	.st26{fill:#E3BAB4;}
	.st27{fill:#371812;}
	.st28{fill:#E6BD82;stroke:#CF9358;stroke-width:3.467800e-02;stroke-miterlimit:10;}
	.st29{fill:#E6BD82;stroke:#CF9358;stroke-width:3.387700e-02;stroke-miterlimit:10;}
	.st30{fill:#C1C0C0;}
	.st31{fill:#ECE6E3;}
	.st32{fill:#E8DBCC;}
	.st33{fill:#AEA499;}
	.st34{fill:#02394E;}
	.st35{fill:none;stroke:#36384B;stroke-width:0.5202;stroke-linejoin:round;stroke-miterlimit:10;}
	.st36{fill:none;stroke:#202020;stroke-width:0.8669;stroke-linejoin:round;stroke-miterlimit:10;}
	.st37{fill:#969696;}
	.st38{fill:#DDD4C8;}
	.st39{fill:#F6F6F6;}
	.st40{fill:#451211;}
	.st41{fill:#FFFFFF;stroke:#C1C0C0;stroke-width:5.201700e-02;stroke-miterlimit:10;}
	.st42{fill:#232323;}
	.st43{fill:#623A44;}
	.st44{fill:#012B3B;}
	.st45{fill:#0F495F;}
	.st46{fill:#834838;}
	.st47{fill:none;stroke:#B75332;stroke-width:0.5202;stroke-linecap:round;stroke-miterlimit:10;}
	.st48{fill-rule:evenodd;clip-rule:evenodd;fill:#F3BB39;}
	.st49{fill:#F3BB39;}
	.st50{fill-rule:evenodd;clip-rule:evenodd;fill:#F6C962;}
	.st51{fill-rule:evenodd;clip-rule:evenodd;fill:#B99749;}
	.st52{fill:#B75332;}
	.st53{fill:#FFFFFF;stroke:#EC7C31;stroke-width:0.5202;stroke-linecap:round;stroke-miterlimit:10;}
	.st54{fill:#FFFFFF;stroke:#202020;stroke-width:1.5605;stroke-linecap:round;stroke-linejoin:round;stroke-miterlimit:10;}
	.st55{fill:#FFFFFF;stroke:#5D6062;stroke-width:0.6936;stroke-linecap:round;stroke-linejoin:round;stroke-miterlimit:10;}
	.st56{fill:#CDDAE8;}
	.st57{fill:#D6E1ED;}
	.st58{fill:#C1C0C0;stroke:#5D6062;stroke-width:0.6314;stroke-miterlimit:10;}
	.st59{fill:#A7A6A6;}
	.st60{fill:#5D6062;}
	.st61{fill:url(#SVGID_1_);}
	.st62{fill:#D4B281;}
	.st63{fill:#919090;}
	.st64{fill:none;stroke:#5D6062;stroke-width:0.9472;stroke-linejoin:round;stroke-miterlimit:10;}
	.st65{fill:none;stroke:#AECED7;stroke-width:0.6314;stroke-miterlimit:10;}
	.st66{fill:#CECECD;}
	.st67{fill:#202020;}
	.st68{fill:#4F211B;}
	.st69{fill:#EAE5DE;}
	.st70{fill:#B1AEA8;}
	.st71{fill:#49484A;stroke:#929292;stroke-width:0.3157;stroke-miterlimit:10;}
	.st72{fill:#525F6A;}
	.st73{fill:url(#SVGID_2_);}
	.st74{fill:#3B2C3F;stroke:#929292;stroke-width:0.3157;stroke-miterlimit:10;}
	.st75{fill:#CDDAE8;stroke:#3B2C3F;stroke-width:0.6314;stroke-miterlimit:10;}
	.st76{fill:#CDDAE8;stroke:#3B2C3F;stroke-width:1.2629;stroke-miterlimit:10;}
	.st77{fill:url(#SVGID_3_);}
	.st78{fill:#3B1814;}
	.st79{fill:#3B2C3F;stroke:#929292;stroke-width:0.3207;stroke-miterlimit:10;}
	.st80{fill:#B1AEA8;stroke:#46484A;stroke-width:0.9472;stroke-miterlimit:10;}
	.st81{fill:#6B565E;}
	.st82{fill:#88787D;}
	.st83{fill:url(#SVGID_4_);}
	.st84{fill:#49484A;}
	.st85{fill:#969696;stroke:#49484A;stroke-width:0.2357;stroke-miterlimit:10;}
	.st86{fill:#C1C0C0;stroke:#49484A;stroke-width:0.2357;stroke-miterlimit:10;}
	.st87{fill:#DDD4C8;stroke:#49484A;stroke-width:0.2357;stroke-miterlimit:10;}
	.st88{fill:#B1C0C9;}
	.st89{fill:#82949E;}
	.st90{fill:#526E82;stroke:#49484A;stroke-width:7.072000e-02;stroke-miterlimit:10;}
	.st91{fill:#ECE6E3;stroke:#49484A;stroke-width:7.072000e-02;stroke-miterlimit:10;}
	.st92{fill-rule:evenodd;clip-rule:evenodd;fill:#49484A;}
	.st93{fill-rule:evenodd;clip-rule:evenodd;fill:#C1C0C0;stroke:#49484A;stroke-width:2.357300e-02;stroke-miterlimit:10;}
	.st94{fill:#96A1A0;}
</style>
<pattern  x="-408.9" y="-299.4" width="72" height="72" patternUnits="userSpaceOnUse" id="_x31_0_lpi_10_x25_" viewBox="72.2 -72 72 72" style="overflow:visible;">
	<g>
		<rect x="72.2" y="-72" class="st0" width="72" height="72"/>
		<g>
			<path class="st1" d="M144-3.6c0,0,4.5,0,11.3-0.1c6.8,0,15.9,0,24.9-0.1c9.1,0,18.1,0,24.9,0.1c6.8,0,11.3,0.1,11.3,0.1
				s-4.5,0-11.3,0.1c-6.8,0-15.9,0-24.9,0.1c-9.1,0-18.1,0-24.9-0.1C148.5-3.6,144-3.6,144-3.6z"/>
			<path class="st1" d="M144-18c0,0,4.5,0,11.3-0.1c6.8,0,15.9,0,24.9-0.1c9.1,0,18.1,0,24.9,0.1c6.8,0,11.3,0.1,11.3,0.1
				s-4.5,0-11.3,0.1c-6.8,0-15.9,0-24.9,0.1c-9.1,0-18.1,0-24.9-0.1C148.5-18,144-18,144-18z"/>
			<path class="st1" d="M144-32.4c0,0,4.5,0,11.3-0.1c6.8,0,15.9,0,24.9-0.1c9.1,0,18.1,0,24.9,0.1c6.8,0,11.3,0.1,11.3,0.1
				s-4.5,0-11.3,0.1c-6.8,0-15.9,0-24.9,0.1c-9.1,0-18.1,0-24.9-0.1C148.5-32.4,144-32.4,144-32.4z"/>
			<path class="st1" d="M144-46.8c0,0,4.5,0,11.3-0.1c6.8,0,15.9,0,24.9-0.1c9.1,0,18.1,0,24.9,0.1c6.8,0,11.3,0.1,11.3,0.1
				s-4.5,0-11.3,0.1c-6.8,0-15.9,0-24.9,0.1c-9.1,0-18.1,0-24.9-0.1C148.5-46.8,144-46.8,144-46.8z"/>
			<path class="st1" d="M144-61.2c0,0,4.5,0,11.3-0.1c6.8,0,15.9,0,24.9-0.1c9.1,0,18.1,0,24.9,0.1c6.8,0,11.3,0.1,11.3,0.1
				s-4.5,0-11.3,0.1c-6.8,0-15.9,0-24.9,0.1c-9.1,0-18.1,0-24.9-0.1C148.5-61.2,144-61.2,144-61.2z"/>
			<path class="st1" d="M144-10.8c0,0,4.5,0,11.3-0.1c6.8,0,15.9,0,24.9-0.1c9.1,0,18.1,0,24.9,0.1c6.8,0,11.3,0.1,11.3,0.1
				s-4.5,0-11.3,0.1c-6.8,0-15.9,0-24.9,0.1c-9.1,0-18.1,0-24.9-0.1C148.5-10.8,144-10.8,144-10.8z"/>
			<path class="st1" d="M144-25.2c0,0,4.5,0,11.3-0.1c6.8,0,15.9,0,24.9-0.1c9.1,0,18.1,0,24.9,0.1c6.8,0,11.3,0.1,11.3,0.1
				s-4.5,0-11.3,0.1c-6.8,0-15.9,0-24.9,0.1c-9.1,0-18.1,0-24.9-0.1C148.5-25.2,144-25.2,144-25.2z"/>
			<path class="st1" d="M144-39.6c0,0,4.5,0,11.3-0.1c6.8,0,15.9,0,24.9-0.1c9.1,0,18.1,0,24.9,0.1c6.8,0,11.3,0.1,11.3,0.1
				s-4.5,0-11.3,0.1c-6.8,0-15.9,0-24.9,0.1c-9.1,0-18.1,0-24.9-0.1C148.5-39.6,144-39.6,144-39.6z"/>
			<path class="st1" d="M144-54c0,0,4.5,0,11.3-0.1c6.8,0,15.9,0,24.9-0.1c9.1,0,18.1,0,24.9,0.1c6.8,0,11.3,0.1,11.3,0.1
				s-4.5,0-11.3,0.1c-6.8,0-15.9,0-24.9,0.1c-9.1,0-18.1,0-24.9-0.1C148.5-54,144-54,144-54z"/>
			<path class="st1" d="M144-68.4c0,0,4.5,0,11.3-0.1c6.8,0,15.9,0,24.9-0.1c9.1,0,18.1,0,24.9,0.1c6.8,0,11.3,0.1,11.3,0.1
				s-4.5,0-11.3,0.1c-6.8,0-15.9,0-24.9,0.1c-9.1,0-18.1,0-24.9-0.1C148.5-68.4,144-68.4,144-68.4z"/>
		</g>
		<g>
			<path class="st1" d="M72-3.6c0,0,4.5,0,11.3-0.1c6.8,0,15.9,0,24.9-0.1c9.1,0,18.1,0,24.9,0.1c6.8,0,11.3,0.1,11.3,0.1
				s-4.5,0-11.3,0.1c-6.8,0-15.9,0-24.9,0.1c-9.1,0-18.1,0-24.9-0.1C76.5-3.6,72-3.6,72-3.6z"/>
			<path class="st1" d="M72-18c0,0,4.5,0,11.3-0.1c6.8,0,15.9,0,24.9-0.1c9.1,0,18.1,0,24.9,0.1c6.8,0,11.3,0.1,11.3,0.1
				s-4.5,0-11.3,0.1c-6.8,0-15.9,0-24.9,0.1c-9.1,0-18.1,0-24.9-0.1C76.5-18,72-18,72-18z"/>
			<path class="st1" d="M72-32.4c0,0,4.5,0,11.3-0.1c6.8,0,15.9,0,24.9-0.1c9.1,0,18.1,0,24.9,0.1c6.8,0,11.3,0.1,11.3,0.1
				s-4.5,0-11.3,0.1c-6.8,0-15.9,0-24.9,0.1c-9.1,0-18.1,0-24.9-0.1C76.5-32.4,72-32.4,72-32.4z"/>
			<path class="st1" d="M72-46.8c0,0,4.5,0,11.3-0.1c6.8,0,15.9,0,24.9-0.1c9.1,0,18.1,0,24.9,0.1c6.8,0,11.3,0.1,11.3,0.1
				s-4.5,0-11.3,0.1c-6.8,0-15.9,0-24.9,0.1c-9.1,0-18.1,0-24.9-0.1C76.5-46.8,72-46.8,72-46.8z"/>
			<path class="st1" d="M72-61.2c0,0,4.5,0,11.3-0.1c6.8,0,15.9,0,24.9-0.1c9.1,0,18.1,0,24.9,0.1c6.8,0,11.3,0.1,11.3,0.1
				s-4.5,0-11.3,0.1c-6.8,0-15.9,0-24.9,0.1c-9.1,0-18.1,0-24.9-0.1C76.5-61.2,72-61.2,72-61.2z"/>
			<path class="st1" d="M72-10.8c0,0,4.5,0,11.3-0.1c6.8,0,15.9,0,24.9-0.1c9.1,0,18.1,0,24.9,0.1c6.8,0,11.3,0.1,11.3,0.1
				s-4.5,0-11.3,0.1c-6.8,0-15.9,0-24.9,0.1c-9.1,0-18.1,0-24.9-0.1C76.5-10.8,72-10.8,72-10.8z"/>
			<path class="st1" d="M72-25.2c0,0,4.5,0,11.3-0.1c6.8,0,15.9,0,24.9-0.1c9.1,0,18.1,0,24.9,0.1c6.8,0,11.3,0.1,11.3,0.1
				s-4.5,0-11.3,0.1c-6.8,0-15.9,0-24.9,0.1c-9.1,0-18.1,0-24.9-0.1C76.5-25.2,72-25.2,72-25.2z"/>
			<path class="st1" d="M72-39.6c0,0,4.5,0,11.3-0.1c6.8,0,15.9,0,24.9-0.1c9.1,0,18.1,0,24.9,0.1c6.8,0,11.3,0.1,11.3,0.1
				s-4.5,0-11.3,0.1c-6.8,0-15.9,0-24.9,0.1c-9.1,0-18.1,0-24.9-0.1C76.5-39.6,72-39.6,72-39.6z"/>
			<path class="st1" d="M72-54c0,0,4.5,0,11.3-0.1c6.8,0,15.9,0,24.9-0.1c9.1,0,18.1,0,24.9,0.1c6.8,0,11.3,0.1,11.3,0.1
				s-4.5,0-11.3,0.1c-6.8,0-15.9,0-24.9,0.1c-9.1,0-18.1,0-24.9-0.1C76.5-54,72-54,72-54z"/>
			<path class="st1" d="M72-68.4c0,0,4.5,0,11.3-0.1c6.8,0,15.9,0,24.9-0.1c9.1,0,18.1,0,24.9,0.1c6.8,0,11.3,0.1,11.3,0.1
				s-4.5,0-11.3,0.1c-6.8,0-15.9,0-24.9,0.1c-9.1,0-18.1,0-24.9-0.1C76.5-68.4,72-68.4,72-68.4z"/>
		</g>
		<g>
			<path class="st1" d="M0-3.6c0,0,4.5,0,11.3-0.1c6.8,0,15.9,0,24.9-0.1c9.1,0,18.1,0,24.9,0.1c6.8,0,11.3,0.1,11.3,0.1
				s-4.5,0-11.3,0.1c-6.8,0-15.9,0-24.9,0.1c-9.1,0-18.1,0-24.9-0.1C4.5-3.6,0-3.6,0-3.6z"/>
			<path class="st1" d="M0-18c0,0,4.5,0,11.3-0.1c6.8,0,15.9,0,24.9-0.1c9.1,0,18.1,0,24.9,0.1C68-18,72.5-18,72.5-18
				s-4.5,0-11.3,0.1c-6.8,0-15.9,0-24.9,0.1c-9.1,0-18.1,0-24.9-0.1C4.5-18,0-18,0-18z"/>
			<path class="st1" d="M0-32.4c0,0,4.5,0,11.3-0.1c6.8,0,15.9,0,24.9-0.1c9.1,0,18.1,0,24.9,0.1c6.8,0,11.3,0.1,11.3,0.1
				s-4.5,0-11.3,0.1c-6.8,0-15.9,0-24.9,0.1c-9.1,0-18.1,0-24.9-0.1C4.5-32.4,0-32.4,0-32.4z"/>
			<path class="st1" d="M0-46.8c0,0,4.5,0,11.3-0.1c6.8,0,15.9,0,24.9-0.1c9.1,0,18.1,0,24.9,0.1c6.8,0,11.3,0.1,11.3,0.1
				s-4.5,0-11.3,0.1c-6.8,0-15.9,0-24.9,0.1c-9.1,0-18.1,0-24.9-0.1C4.5-46.8,0-46.8,0-46.8z"/>
			<path class="st1" d="M0-61.2c0,0,4.5,0,11.3-0.1c6.8,0,15.9,0,24.9-0.1c9.1,0,18.1,0,24.9,0.1c6.8,0,11.3,0.1,11.3,0.1
				s-4.5,0-11.3,0.1c-6.8,0-15.9,0-24.9,0.1c-9.1,0-18.1,0-24.9-0.1C4.5-61.2,0-61.2,0-61.2z"/>
			<path class="st1" d="M0-10.8c0,0,4.5,0,11.3-0.1c6.8,0,15.9,0,24.9-0.1c9.1,0,18.1,0,24.9,0.1c6.8,0,11.3,0.1,11.3,0.1
				s-4.5,0-11.3,0.1c-6.8,0-15.9,0-24.9,0.1c-9.1,0-18.1,0-24.9-0.1C4.5-10.8,0-10.8,0-10.8z"/>
			<path class="st1" d="M0-25.2c0,0,4.5,0,11.3-0.1c6.8,0,15.9,0,24.9-0.1c9.1,0,18.1,0,24.9,0.1c6.8,0,11.3,0.1,11.3,0.1
				s-4.5,0-11.3,0.1c-6.8,0-15.9,0-24.9,0.1c-9.1,0-18.1,0-24.9-0.1C4.5-25.2,0-25.2,0-25.2z"/>
			<path class="st1" d="M0-39.6c0,0,4.5,0,11.3-0.1c6.8,0,15.9,0,24.9-0.1c9.1,0,18.1,0,24.9,0.1c6.8,0,11.3,0.1,11.3,0.1
				s-4.5,0-11.3,0.1c-6.8,0-15.9,0-24.9,0.1c-9.1,0-18.1,0-24.9-0.1C4.5-39.6,0-39.6,0-39.6z"/>
			<path class="st1" d="M0-54c0,0,4.5,0,11.3-0.1c6.8,0,15.9,0,24.9-0.1c9.1,0,18.1,0,24.9,0.1C68-54,72.5-54,72.5-54
				s-4.5,0-11.3,0.1c-6.8,0-15.9,0-24.9,0.1c-9.1,0-18.1,0-24.9-0.1C4.5-54,0-54,0-54z"/>
			<path class="st1" d="M0-68.4c0,0,4.5,0,11.3-0.1c6.8,0,15.9,0,24.9-0.1c9.1,0,18.1,0,24.9,0.1c6.8,0,11.3,0.1,11.3,0.1
				s-4.5,0-11.3,0.1c-6.8,0-15.9,0-24.9,0.1c-9.1,0-18.1,0-24.9-0.1C4.5-68.4,0-68.4,0-68.4z"/>
		</g>
	</g>
</pattern>
<g>
	<path class="st2" d="M229,182.9c0.1,0.5-0.1,0.9-0.1,1.2c0,0.3-0.2,0.9-0.3,1.2c-0.1,0.4,0.4,1.1,0.4,1.1l2,2.2c0,0,3-3.4,2.5-3.6
		c-0.4-0.2-1.1-0.7-1.2-1.1c-0.1-0.4-0.2-1.2-0.2-1.2L229,182.9z"/>
	<path class="st3" d="M233.2,230.1c-0.3,0-0.3,0.2-0.3,0.4c0,0-0.1,0.1,0.3,0.2c0.2,0.1,0.7,0.1,1.1,0.1c0.6,0,1.1-0.1,1.2-0.1
		c0.1,0,0.2,0,0.2-0.2c0-0.4-0.1-0.3-0.3-0.3S233.2,230.1,233.2,230.1z"/>
	<path class="st4" d="M233.8,224.9c-0.3,0-0.9,0.6-0.9,1c0,0.4,0.2,1.2,0.2,1.5c0,0.3-0.1,1.6-0.1,1.7c0,0.2-0.2,0.6-0.1,0.8
		c0.1,0.2,0.1,0.3,0.5,0.3c0.4,0,1.4,0,1.8,0c0.4,0,0.7-0.3,0.5-0.6c-0.1-0.4-0.3-0.8-0.4-1c-0.1-0.2-0.2-0.7-0.2-0.9
		c0-0.2,0.3-0.9,0.3-1.1c0-0.2,0.6-0.8,0.3-1.2c-0.3-0.4-0.5-0.8-0.8-0.9C234.6,224.6,234.3,224.9,233.8,224.9z"/>
	<path class="st3" d="M227.6,235c0,0,0,0.3,0.3,0.3c0.4,0,0.9,0.1,1.5,0.1c0.6,0,0.7-0.1,1.1-0.2c0.5-0.2,0.6-0.5,0.9-0.7
		c0.4-0.2,0.6-0.1,0.6-0.4c0-0.3,0.1-0.6,0-0.7c-0.8-0.7-4.5,0-4.4,1.2L227.6,235z"/>
	<path class="st4" d="M229,230.6c0.1,0.5,0.4,1.2,0.4,1.6c0,0.4-0.1,0.4-0.5,0.7c-0.4,0.3-1.7,1.3-1.3,1.7c0.1,0.2,0.3,0.3,0.6,0.3
		c0.3,0,0.8,0,1.1,0c0.3,0,0.8,0,1.4-0.3c0.2-0.1,0.3-0.3,0.5-0.4c0.1-0.1,0.4-0.1,0.5-0.2c0.2-0.2,0.4-0.2,0.4-0.8
		c0-0.5-0.2-0.9-0.3-1c-0.1-0.3,0-1.2,0-1.2L229,230.6L229,230.6z"/>
	<path class="st5" d="M225.9,204.8c0.1,0.6,0,3,0,4.1c0,1.1,0.5,3.7,0.7,5.4c0.2,1.7,0.2,3.1,0.2,3.9c0,0.8,0.2,6.7,0.4,7.7
		c0.2,0.9-0.4,2.3,0,3c0.4,0.7,0.3,0.6,0.6,0.9c0.3,0.4,1,1.6,1,1.6s0.8,0.2,1.4,0.2c0.6,0,1.7-0.4,1.7-0.4s0.2-1.9-0.2-2.8
		c-0.4-0.9-0.1-2.2-0.1-2.8s-0.2-2.1-0.4-3.1c-0.1-0.9-0.3-0.4-0.2-3.1c0.1-2.7,0.5-5.7,1-8.1c0.4-2.4,0.4-1.7,0.8,0.1
		c0.4,1.8,0.7,3.7,1,4.6c0.3,0.9,0.5,1.2,0.6,1.6c0,0.4,0.1,0.7,0,1.4c-0.1,0.8-0.7,2.3-0.8,3.1c0,0.9,0.1,1.7,0,2
		c-0.1,0.3-0.2,0.5-0.3,0.7c0,0.2-0.5,1.3-0.3,1.6c0.2,0.2,1.7,1.1,2.6,0.8c0.9-0.4,0.6-2,0.7-2.4c0.1-0.4,0.2-0.7,0.8-1.5
		c0.5-0.8,0.9-2.5,0.9-4.3c0-1.9-0.2-3.4-0.2-4.7c0-1.4,0.3-3.5,0.6-5.1c0.3-1.5,0.4-2.9,0.5-3.7c0-0.7-6.3-1.9-6.3-1.9L225.9,204.8
		z"/>
	<path class="st6" d="M230.2,187.8c0.4,0.1,0.9,0.3,1.2,0.1c0.3-0.1,1.8,0.6,1.8,0.6l-3.6,1.4l-1.5-2l0.3-1.8L230.2,187.8z"/>
	<path class="st7" d="M232.3,206.2c1,0.4,1.2,0.7,2.5,0.7c1.3,0,2.6,0.1,3.1,0c0.6-0.1,0.7-0.8,0.7-0.8s-0.4-0.8-2-1.2
		c-1.6-0.4-1.4-0.1-2.2,0c-0.8,0.1-2.1,1-2.1,1V206.2z"/>
	<path class="st8" d="M228.8,188c0,0,1.4,1.3,2,1.4c0.6,0.1,1.8-1.2,2.2-1.8c0.4-0.6,1.7,0.4,1.7,0.4l1.9,16.7c0,0,0.4,1.2-1,1.2
		c-1.4,0-1.2,0.3-2.2,0.3c-1,0-2.3,0.1-3.5-0.2c-1.2-0.2-1.2-2.7-1.2-2.7V188z"/>
	<path class="st9" d="M228.7,185.4c0.1,0.5,0.9,1.5,0.9,1.5l1,1.1l-1.2,0.4c0,0-0.7-1.5-0.7-1.9c0-0.3-0.1-1-0.1-1L228.7,185.4z"/>
	<path class="st9" d="M233.2,184.8c0,0.4-0.6,1.2-0.9,1.5c-0.3,0.3-1.2,1.7-1.2,1.7l1,0.4l1.2-2.6L233.2,184.8z"/>
	<path class="st10" d="M229.7,188.7c0.2,0.5,0.5,0.9,0.7,1.5c0.1,0.1,0.1,1.7,0,2.5c-0.1,0.8,0.3,5.2,0.3,5.7c0,0.5-0.4,4.8-0.7,5.2
		c-0.3,0.4-0.7-0.7-0.7-0.7l-0.6-13.8c0,0,0.2-0.8,0.4-0.8C229.2,188.2,229.7,188.7,229.7,188.7z"/>
	<path class="st11" d="M228.4,185.7c-0.8,0.6-2.5,1.7-3.5,2.4c-1,0.7-2,1.1-2.2,2.8c-0.2,1.7-0.2,5.1-0.3,6.4c0,1.3-0.1,3.1-0.1,4.6
		c0,1.5,0.1,2.7,0.3,3.3c0.2,0.6,0.2,2.2,0.2,2.2h2.2l-0.1-1.2c0-1.8,0.2-1.1,0.4-4.2c0.1-1.7,0.1-2.6,0.2-1.2
		c0.1,1.6,0.1,2.7,0,3.2c-0.1,0.7,0,1.2,0,1.2s0.8,0.3,1.8,0.6c0.9,0.3,1.9,0.5,2.4,0.6c0.5,0.1,0.4-7.3,0.4-8.9
		c0-1.6-0.2-6.1-0.3-6.8c-0.1-0.7-0.6-2-0.8-2.6C229,187.5,228.4,185.7,228.4,185.7z"/>
	<path class="st11" d="M234,185.2c0.7,0.2,2.7,1.1,3.3,1.3c0.5,0.2,1.8,1.1,2.2,2.3c0.5,1.2,1.4,5.4,1.6,5.9
		c0.2,0.6,0.5,1.3,0.5,1.9c0,0.6,0,1.6-0.2,2.2c-0.2,0.6-0.7,2.2-0.9,2.6c-0.2,0.4-0.6,1.2-1,1.6c-0.4,0.4-0.7,1.1-0.9,1.3
		c-0.1,0.2-0.1,1.7-0.1,1.7c-1,1-5.4,0-5.4,0s-1-17.6-1-18c0-0.4,1.4-3.1,1.4-3.1L234,185.2z"/>
	<path class="st12" d="M232.3,189.7c0.1,0.1,0,0.4,0.1,0.5c0.1,0,0.5-0.2,0.8-0.7c0.3-0.4,0.7-1.2,0.8-1.6c0.1-0.3,0.3-0.8,0.2-1.3
		c-0.1-0.5,0-0.9-0.2-0.6c-0.1,0.2-1.2,2.4-1.2,2.4l-0.7,1.2"/>
	<path class="st13" d="M233.3,184.7c0.5,0.4,1,0.6,1,0.9c0,0.3,0.2,0.5,0,1.2c-0.2,0.7-0.6,1.2-0.9,2c-0.3,0.8-1.2,1.2-1.2,1.2
		s-0.2-1.3,0-2c0.1-0.5,0.7-1.3,0.9-1.9c0.1-0.3,0.2-0.5,0.1-0.9c0-0.4-0.4-0.4-0.4-0.5C232.7,184.3,233.3,184.7,233.3,184.7z"/>
	<path class="st13" d="M228.8,184.9c-0.1,0.6-0.1,1.2,0,1.8c0.1,0.6,0.4,1.6,0.6,2c0.2,0.4,0.6,1,0.6,1.7c0,0.6,0,0.8,0,0.8
		s-1.9-3.4-2.1-4c-0.2-0.6,0-1.2,0.1-1.5c0.1-0.3,0.6-0.8,0.6-0.8l0.4-0.5"/>
	<path class="st14" d="M225.1,194.5c-0.1,1.2,0.3,2.4,0.2,2.9c-0.1,0.5-0.4,1-0.5,1.6c-0.1,0.6-0.1,1.8-0.1,2.2
		c0,0.4,0.1,2.1,0.3,2.4c0.2,0.3,0.1,0.9,0.1,0.9s0.3-1.4,0.4-4.2c0-0.4,0.2,2.6,0.2,2.9c0,0.4-0.1,1.1-0.1,1.3
		c0,0.2,0.5-2.7,0.4-3.3c-0.1-0.6,0.3-1.4,0.3-1.7c0-0.3,0.3-0.8,0.4-1.3c0.1-0.4,0-1-0.2-1.4c-0.2-0.4-0.7-1.3-0.8-1.7
		c-0.1-0.4-0.3-1.2,0-2C226,192.3,225.2,193.5,225.1,194.5z"/>
	<path class="st14" d="M237.7,201c0.3-0.9,0.8-1.7,1-2.1c0.2-0.4,0.4-1.1,0.4-1.4c0-0.3-0.7-1.3-0.7-1.8c0-0.5-0.4-1.5-0.3-2.2
		c0.1-0.7,0.3-1,0.3-1.2c0,0-0.4,0.4-0.6,1.6c-0.1,1.2-0.2,1.9-0.3,2.3c0,0.4-0.2,2-0.1,2.3c0.1,0.3,0.2,0.4,0.2,1
		c0,0.6-0.1,0.9-0.3,1.5C236.8,203.6,237.1,202.5,237.7,201z"/>
	<path class="st7" d="M232.7,210.7c0.5,0.9,1.1,2.9,1.3,3.7c0.2,0.8,0.2,3.3,0.2,3.3c0,0.3,0.9,2.4,0.4,3.1
		c-0.5,0.7-1.2,2.4-1.2,2.4c0-1.4,0.1-4.9,0.2-5.3c0.1-0.4-0.4-2.8-0.4-3.1C233.4,214.4,232.7,210.7,232.7,210.7z"/>
	<path class="st15" d="M223,207.4c0,0.3-0.1,1.3-0.1,1.6c-0.1,0.3-0.3,0.8,0.1,1.1c0.4,0.4,1.2,1,1.5,1.2c0.2,0.2,1.3,0.6,0.5-0.3
		c-0.8-0.9-1.1-0.9-0.9-1.5c0.2-0.4,0.3-0.5,0.4-0.1c0.1,0.4,0.1,0.3,0.3,0.7c0.2,0.4,0.4,0.4,0.3-0.3c-0.1-0.7,0-1-0.3-1.5
		c-0.3-0.4-0.3-0.7-0.3-0.9C224.4,207.1,223,207.4,223,207.4z"/>
	<path class="st15" d="M236.6,203.4c-0.3,0.2-0.9,0.4-1.2,0.8c-0.2,0.4-0.2,0.8-0.6,1.3c-0.3,0.5-0.5,0.7-0.4,0.8
		c0.2,0.2,0.3,0,0.6-0.4c0.9-1.1,1-0.8,0.8-0.1c-0.2,0.8-0.5,0.9-1,1.2c-0.4,0.2-0.4,0.5-0.2,0.7c0.1,0.1,0.3,0.2,0.4,0.3
		c0.1,0,0.1,0,0.2,0.1c0.2,0.1,0.4,0,0.6,0.1c1,0.2,1.3-0.7,1.7-1.2c0.2-0.3,0.6-1.2,0.6-1.7c0-0.4-0.2-0.6,0-1
		c0.2-0.4,0.4-0.8,0.3-1c-0.2-0.3-1.3-0.7-1.4-0.4C237,203,236.6,203.4,236.6,203.4z"/>
	<g>
		<path class="st16" d="M234.7,207.7c0,0,0.2,0,0.4-0.2c0.2-0.1,0.5-0.3,0.8-0.5c0.3-0.2,0.4-0.5,0.5-0.7c0.1-0.2,0.2-0.4,0.2-0.4
			l0,0c0,0,0,0.2-0.1,0.4c0,0.1-0.1,0.3-0.2,0.4c-0.1,0.2-0.2,0.3-0.4,0.4c-0.3,0.2-0.6,0.4-0.8,0.5
			C234.9,207.6,234.7,207.7,234.7,207.7L234.7,207.7z"/>
	</g>
	<g>
		<path class="st16" d="M235.1,207.9c0,0,0.1-0.1,0.4-0.2c0.2-0.1,0.5-0.3,0.7-0.4c0.1-0.1,0.2-0.2,0.3-0.4c0.1-0.1,0.1-0.3,0.2-0.4
			c0.1-0.2,0.2-0.3,0.2-0.3l0,0c0,0,0,0.2-0.1,0.4c-0.1,0.2-0.2,0.5-0.5,0.7c-0.3,0.2-0.6,0.3-0.8,0.4
			C235.3,207.9,235.1,208,235.1,207.9L235.1,207.9z"/>
	</g>
	<g>
		<path class="st16" d="M235.9,208.1c0,0,0.5-0.2,0.8-0.6c0,0,0.1-0.1,0.1-0.2l0.1-0.2c0.1-0.1,0.1-0.2,0.2-0.3
			c0.1-0.2,0.1-0.3,0.1-0.3l0,0c0,0,0,0.1-0.1,0.3c0,0.1-0.1,0.2-0.1,0.3l-0.1,0.2c0,0-0.1,0.1-0.1,0.2c-0.2,0.2-0.4,0.3-0.6,0.4
			C236,208.1,235.9,208.1,235.9,208.1L235.9,208.1z"/>
	</g>
	<g>
		<path class="st17" d="M229.6,182.6c0,0,0.1,0,0.3,0.1c0.1,0,0.2,0.1,0.3,0.1c0.1,0,0.2,0,0.3,0c0.1,0,0.2,0,0.3,0
			c0.1,0,0.2,0,0.3,0c0.2,0,0.3,0,0.3,0l0,0c0,0-0.1,0-0.3,0.1c-0.1,0-0.2,0-0.3,0.1c-0.1,0-0.2,0-0.4,0c-0.1,0-0.2,0-0.4-0.1
			c-0.1,0-0.2-0.1-0.3-0.1C229.7,182.7,229.6,182.6,229.6,182.6L229.6,182.6z"/>
	</g>
	
		<ellipse transform="matrix(0.9791 -0.2032 0.2032 0.9791 -31.9641 50.1054)" class="st18" cx="228.1" cy="180.7" rx="0.4" ry="1.1"/>
	<ellipse transform="matrix(0.2032 -0.9791 0.9791 0.2032 8.7007 372.1637)" class="st18" cx="233" cy="180.7" rx="1.1" ry="0.4"/>
	<path class="st19" d="M232.9,179.8c0.2-0.5,0.3-1,0.3-1.7c-0.1-0.7,0-0.7-0.3-1.3c-0.3-0.6-0.7-1.2-1.1-1.4c-0.4-0.2-0.8-0.2-1-0.3
		c-0.3-0.1-1.4-0.1-1.4-0.1s0.1,0.3-0.3,0.3c-0.8,0.1-1.3,0.8-1.3,2c0,0.3-0.1,1.1,0,1.4c0.1,0.3,0.2,1,0.3,1
		c0.1,0.1,0.2,0.3,0.2,0.3"/>
	<path class="st20" d="M228.2,178.5c0.1-0.4,0.1-0.9,0.4-1.1c0.3-0.2,0.1-0.6,0.1-0.6s0.8,0.8,1,0.4c0.2-0.3-0.3-0.7-0.3-0.7
		s1.1,0.9,1.3,0.6c0.2-0.2-0.2-0.6-0.2-0.6s1,0.9,1.3,0.5c0.2-0.2-0.6-0.7-0.6-0.7s1.2,0.9,1.3,1.1c0.1,0.2,0.1,0.2,0.1,0.5
		C232.7,178.4,228.2,178.5,228.2,178.5z"/>
	<path class="st21" d="M232.5,177.7c-0.6-0.1-1.4,0.1-1.9,0.1c-0.5,0-1.3-0.2-1.9-0.1c-0.6,0.1-0.4,2-0.4,2c0,0.4,0,2.5,0.3,2.9
		c0.2,0.4,1.1,1.9,2.1,1.9c1,0,1.9-1.5,2.1-1.9c0.2-0.4,0.3-2.5,0.3-2.9C232.9,179.7,233.1,177.8,232.5,177.7z"/>
	<g>
		<path class="st22" d="M230.2,180c0,0-0.1,0-0.3,0c-0.2,0-0.4-0.1-0.6-0.1c-0.2-0.1-0.4-0.1-0.6,0c-0.2,0-0.3,0.1-0.3,0.1l0,0
			c0,0,0.1-0.1,0.2-0.2c0.1,0,0.2-0.1,0.3-0.1c0.1,0,0.3,0,0.4,0c0.2,0,0.5,0.1,0.6,0.1C230.1,179.9,230.2,179.9,230.2,180
			L230.2,180z"/>
	</g>
	<g>
		<path class="st22" d="M230.9,179.9c0,0,0.1-0.1,0.3-0.1c0.2-0.1,0.4-0.1,0.6-0.1c0.1,0,0.2,0,0.4,0c0.1,0,0.1,0,0.2,0
			c0.1,0,0.1,0,0.2,0.1c0.1,0.1,0.2,0.2,0.2,0.2l0,0c0,0-0.1-0.1-0.2-0.2c0,0-0.1,0-0.1,0c0,0-0.1,0-0.1,0c-0.1,0-0.2,0.1-0.3,0.1
			c-0.2,0.1-0.5,0.1-0.6,0.1C231.1,180,231,180,230.9,179.9L230.9,179.9z"/>
	</g>
	<circle class="st22" cx="229.5" cy="180.3" r="0.2"/>
	<circle class="st22" cx="231.6" cy="180.3" r="0.2"/>
	<g>
		<path class="st23" d="M230.3,180.3c0,0.7-0.5,1.5-0.2,1.7c0.3,0.2,0.9,0.2,1.1,0"/>
		<path class="st16" d="M230.3,180.3c0,0,0,0.2,0,0.5c0,0.3-0.2,0.6-0.2,1c0,0.1,0,0.2,0,0.2c0.1,0,0.2,0.1,0.2,0.1
			c0.2,0,0.3,0.1,0.4,0c0.3,0,0.4-0.1,0.4-0.1l0,0c0,0-0.1,0.1-0.4,0.2c-0.1,0-0.3,0-0.5,0c-0.1,0-0.2-0.1-0.2-0.1
			c-0.1-0.1-0.1-0.2-0.1-0.3c0.1-0.4,0.2-0.7,0.3-1C230.3,180.5,230.3,180.3,230.3,180.3L230.3,180.3z"/>
	</g>
	<path class="st20" d="M228.7,175.7c0.1-0.2,0.8,0.1,0.8,0.1s-0.3-0.3-0.1-0.4c0.2-0.2,1,0.2,1,0.2s-0.6-0.4-0.5-0.5
		c-0.3,0-0.6,0-0.6,0s0.1,0.3-0.3,0.3c-0.6,0.1-0.9,0.2-1.1,0.8c0.2-0.1,0.8,0.2,0.8,0.2S228.7,175.9,228.7,175.7z"/>
	<g>
		<path class="st24" d="M229.7,182.8c0.3,0,0.6,0.1,0.8,0.1c0.3,0,0.8,0,0.8,0"/>
		<path class="st17" d="M229.7,182.8c0,0,0.1,0,0.3,0c0.2,0,0.4,0,0.6,0c0.2,0,0.4,0,0.6,0c0.2,0,0.3,0.1,0.3,0.1s-0.1,0.1-0.2,0.1
			c-0.2,0-0.4,0.1-0.6,0.1c-0.2,0-0.4-0.1-0.6-0.1C229.8,182.9,229.7,182.8,229.7,182.8z"/>
	</g>
</g>
<g>
	<path class="st25" d="M129.6,211.8c0.1,0.6,0.3,0.6,0.2,0.9c-0.1,0.3-0.4,0.5-1.5,0.7c-1.1,0.1-0.6,0.1-1.9,0.1
		c-1.3,0.1-2,0.4-3.1,0.2c-1.1-0.2-1-0.4-1.8-0.4c-0.8,0-1.8,0.1-2-0.3c-0.3-0.4-0.3-3.5,0.3-4.4c0.6-0.8,0.4-1.7,3.2-1.6
		c2.7,0.1,3.6,1.6,3.8,1.8C126.9,209.1,129.6,211.8,129.6,211.8z"/>
	<path class="st26" d="M115.5,204.5c0.3,2.1,0.3,3.6,0.8,5.6c0.5,2,0.9,3.1,0.9,3.7c0.1,0.6,0.1-0.1,1.2-0.4
		c1.1-0.3,1.1-0.4,2.5-0.5c1.4-0.1,0.3-3.6,0.7-3.9c0.4-0.3,2-0.2,2.7,0c0.7,0.3,1.3,0.2,1.9,1.1c0.6,0.9,1.2,1.4,1.9,1.7
		c0.7,0.3,1.6,1.1,1.7,1.1c0.1-0.1,0.3,0-0.1-1.6c-0.4-1.6-0.2-2.2-0.7-2.9c-0.5-0.7-0.5-0.6-0.8-1.4c-0.3-0.8,0.3-0.2,0.1-1.6
		c-0.2-1.4-0.1-1.8-0.8-2.3c-0.7-0.5-4.9-0.3-6.5,0C119.4,203.2,115.5,204.5,115.5,204.5z"/>
	<path class="st27" d="M125.2,182.7c0.3,0.5,0,1,0.3,1.3c0.3,0.2,0.6-0.3,0.7,0.4c0.1,0.7,0.3,0.6,0.4,1.1c0.1,0.5,0,0.4,0.2,0.8
		c0.2,0.4,0.7,0.1,0.6,0.7c-0.1,0.6,0.3,0.7,0,0.9c-0.3,0.3-1.6,0.8-1.6,0.8l-8.7,0.6c0,0-0.7-0.8,0-1.4c0.7-0.6,0.4-0.4,1-1.3
		c0.5-0.9,0.9-1.2,0.8-1.7c-0.2-0.6-0.5-0.2-0.2-0.9c0.3-0.7,0.2-1.3,0.2-1.3l0.3-0.3l2.5-0.7L125.2,182.7z"/>
	<path class="st28" d="M120.8,186.3c-0.2,0.8-0.4,1.6-0.4,1.6l-0.1,1.8l1.6,1.3l2.4-0.7l0.2-1.4l-0.7-1.8l-0.5-1.3L120.8,186.3z"/>
	<ellipse class="st29" cx="122.1" cy="184.4" rx="2.3" ry="3.1"/>
	<path class="st16" d="M122.1,181.3c-1.2,0-2.1,1.2-2.2,2.7c0.7-0.3,1.4-0.5,1.9-0.3c0.5,0.2,0.2,0.3,0.8,0.5
		c0.6,0.2,0.7,0.4,1.2,0.6c0.2,0.1,0.4,0.1,0.6,0.2c0-0.2,0.1-0.4,0.1-0.7C124.4,182.7,123.4,181.3,122.1,181.3z"/>
	<path class="st30" d="M125.2,182.8c0,0.4,0,0.4-0.2,0.9c-0.1,0.2-0.4,0.6-0.4,0.6l-0.2-0.3c0,0,0.1-0.1,0.3-0.3
		c0.1-0.3,0.3-0.9,0.3-0.9L125.2,182.8z"/>
	<path class="st31" d="M119,182.7c0.2,0.9,0.2,1.1,0.6,2c0.4,0.9,0.2,0.6,0-0.3c-0.2-0.9-0.5-1.7-0.5-1.7H119z"/>
	<path class="st32" d="M120.1,189.7c1.3,0.6,0.9,0.7,1.9,0.7c1,0.1,2.5-1,2.6-1c0.2,0,1,1.7,1,1.7s1.3,10,1.3,10.3
		c0,0.3-9.5-0.2-9.5-0.2l0.8-4.2L120.1,189.7z"/>
	<path class="st33" d="M120.6,192.9c0,1.1,0.1,2.1,0.1,3.2c0,1.1-1.1,4.4-0.8,4.8c0.3,0.4-0.1,1-1,0.5c0,0-1,0.2-1.5-0.5
		c-0.4-0.8,0.9-2.6,1.2-3.9c0.4-1.3,1-4.4,1-4.4L120.6,192.9z"/>
	<g>
		<path class="st34" d="M117.6,200.1c0.1-0.1,0.2-0.2,0.3-0.4c0.2-0.2,0.9-1.6,1-1.9c0.1-0.3,0.5-1.1,0.8-1.5
			c0.3-0.5,0.8-1.4,0.9-2.1c0.1-0.7,0.4-1.6,0.3-1.9c-0.1-0.3-0.2-1-0.4-1.3c-0.2-0.3,0.1-0.1,0.2-0.5c0,0-0.5-1.1-0.6-1.6
			c-0.1-0.5,0.2-1.5,0.3-1.9c0,0-0.1,0-0.1,0c-0.7,0.1-1.9,0.4-2.7,0.5c-0.8,0.1-0.7,0.3-0.8,0.6c-0.1,0.3-0.5,1.2-0.8,1.6
			c-0.3,0.5-1.4,2.3-1.8,3.3c-0.5,1-1.1,2.3-1.4,3.7c-0.3,1.5-0.6,2.1-1,3.1c-0.2,0.7,2,0,2.4,0.1c0.4,0.1,0.5-1.5,0.7-2.1
			c0.2-0.6,0.6-1.6,1.1-2.7c0.5-1.2,0.7-1,1.1-2c0.4-1-0.3,1.2-0.4,2.9c0,1.4-1.8,3.3-1.2,3.9c0.2,0.2,0.8,0.3,1.6,0.4
			C117,200.1,117.5,200.2,117.6,200.1z"/>
		<path class="st34" d="M131,198.5c0-0.5,0.1-0.5-0.4-1.6c-0.5-1-0.9-2.1-1.1-2.8c-0.2-0.7-0.8-2.4-1-3.5c-0.1-1.1-0.3-1.9-0.6-2.3
			c-0.4-0.4-0.3-0.8-1.1-0.9c-0.8-0.1-1.7-0.3-2.4-0.5c-0.1,0-0.1,0.2-0.2,0.1c0.8,1.2,0.3,1.4,0.2,2.7c-0.1,1.3-0.5,1.1-0.5,1.1
			l0.1,0.1l-0.3,0.4c0,0,1.6,2.3,1.8,2.9c0.1,0.6,0.4,1.5,0.5,2.3c0.2,0.7,0.1,1.8,0.4,2.7c0.3,0.8,0.1,0.5,1.1,1.3
			c0.8-0.1,1.3-0.4,1-0.9c-0.9-2-0.9-1.7-1.2-3.6c-0.2-1.4-0.5-2.4-0.1-1.1c0.3,1,0.3,1.2,0.6,2.2c0.2,0.7,0.4,1.8,0.8,2.1
			c0.4,0.3,1.9,0.4,1.9,0.4C130.8,199.5,131,199,131,198.5z"/>
	</g>
	<polyline class="st35" points="121.3,227.7 119.5,227.7 119.5,230.6 119,230.6 	"/>
	<polyline class="st35" points="123.9,222 123.2,222 123.2,227.7 121.6,227.7 	"/>
	<line class="st36" x1="127.7" y1="222" x2="123.9" y2="222"/>
	<rect x="120.8" y="204.6" class="st37" width="1.1" height="10.8"/>
	<rect x="121.2" y="205.4" class="st38" width="0.5" height="10"/>
	<line class="st36" x1="119" y1="230.6" x2="115.3" y2="230.6"/>
	<g>
		<circle class="st39" cx="121.3" cy="210.4" r="1.2"/>
		<path class="st40" d="M122.4,210.4c0,0,0-0.1,0-0.3c0-0.2-0.2-0.5-0.5-0.6c-0.1-0.1-0.3-0.2-0.5-0.2c-0.2,0-0.4,0-0.6,0.1
			c-0.4,0.2-0.6,0.6-0.6,1c0,0.4,0.3,0.8,0.7,1c0.2,0.1,0.4,0.1,0.6,0.1c0.2,0,0.3-0.1,0.5-0.1c0.3-0.2,0.4-0.4,0.5-0.6
			C122.4,210.5,122.4,210.4,122.4,210.4z M122.5,210.4c0,0,0,0.1,0,0.3c0,0.2-0.2,0.5-0.5,0.7c-0.1,0.1-0.3,0.2-0.5,0.2
			c-0.2,0-0.4,0-0.6-0.1c-0.4-0.2-0.7-0.7-0.7-1.1c0-0.5,0.3-0.9,0.7-1.1c0.2-0.1,0.4-0.1,0.6-0.1c0.2,0,0.4,0.1,0.5,0.2
			c0.3,0.2,0.4,0.5,0.5,0.7C122.5,210.3,122.5,210.4,122.5,210.4z"/>
	</g>
	<circle class="st41" cx="121.3" cy="210.4" r="0.8"/>
	<g>
		<path class="st23" d="M114,199.8c-0.1-0.5-0.6-0.6-1.4-0.5c-0.8,0.1-1.3,0.5-1.3,1c0,0.3,0.5,1.1,0.6,1.1c0.1,0,0.1,0,0.1,0
			c0,0,0,0,0,0c0,0.1,0.1,0.2,0.2,0.2c0.1,0,0.2-0.1,0.2-0.2c0,0,0.1,0.1,0.2,0.1c0.1,0,0.2-0.1,0.2-0.3c0,0,0.2,0.1,0.2,0.1
			c0.4-0.2,0.1-0.4-0.1-1C113.6,200,114.1,200.1,114,199.8z"/>
		<path class="st16" d="M114,199.8c0-0.2-0.2-0.4-0.4-0.4c-0.2-0.1-0.4-0.1-0.6-0.1c-0.4,0-0.8,0.1-1.2,0.3
			c-0.2,0.1-0.3,0.2-0.4,0.4c-0.1,0.2-0.1,0.4,0,0.6c0.1,0.2,0.2,0.4,0.3,0.5c0.1,0.1,0.1,0.2,0.2,0.3c0,0,0.1,0.1,0.1,0.1
			c0,0,0.1,0,0.1,0l0,0l0,0c0,0.1,0.1,0.2,0.2,0.2c0.1,0,0.2,0,0.2-0.1l0,0l0,0c0.1,0.1,0.2,0.1,0.2,0c0.1-0.1,0.1-0.2,0.1-0.2l0,0
			l0,0c0,0,0.1,0.1,0.2,0.1c0.1,0,0.1,0,0.1,0c0.1-0.1,0.1-0.2,0.1-0.3c-0.1-0.2-0.2-0.4-0.2-0.6l0,0l0,0c0.2-0.1,0.3-0.2,0.5-0.2
			c0.1,0,0.2,0,0.3-0.1C114,200,114.1,199.9,114,199.8z M114,199.8c0,0.1-0.1,0.2-0.2,0.2c-0.1,0-0.2,0.1-0.3,0.1
			c-0.2,0.1-0.3,0.1-0.5,0.2l0,0c0.1,0.2,0.2,0.4,0.2,0.6c0,0.1,0,0.2-0.1,0.3c0,0-0.1,0.1-0.2,0c-0.1,0-0.1,0-0.2-0.1l0,0
			c0,0.1,0,0.2-0.1,0.3c-0.1,0.1-0.2,0-0.3,0l0,0c0,0.1-0.2,0.2-0.3,0.2c-0.1,0-0.2-0.1-0.2-0.2l0,0c-0.1,0-0.1,0-0.2,0
			c-0.1,0-0.1-0.1-0.1-0.1c-0.1-0.1-0.1-0.2-0.2-0.3c-0.1-0.2-0.2-0.4-0.3-0.5c-0.1-0.2-0.1-0.4,0-0.6c0.1-0.2,0.3-0.3,0.5-0.4
			c0.4-0.2,0.8-0.3,1.2-0.3c0.2,0,0.4,0,0.6,0.1C113.9,199.4,114,199.6,114,199.8z"/>
	</g>
	<path class="st42" d="M113.1,200.1l2.3-0.4l0.2,0.8l-2.2,0.4C113.3,200.7,113.3,200.5,113.1,200.1z"/>
	<path class="st43" d="M117.1,226.3c-0.2,0.9-0.8,1.3-1.1,2.2c-0.3,0.8-0.7,1.8,0.3,1.8c1,0.1,1.8-0.8,2-1.8c0.2-1,1-1.9,0.7-2.2
		c-0.2-0.3-0.4-0.7-0.6-0.8C118.2,225.2,117.1,226.3,117.1,226.3z"/>
	<path class="st43" d="M123.7,216.9c0.1,1.3,0,2.6,0.1,3.2c0.1,0.6,0.4,1.3,0.8,1.6c0.4,0.3,2.6,0,1.9-2.1c-0.4-1.1-0.6-1.9-0.8-2.4
		c-0.2-0.5-0.7-0.8-0.7-0.8L123.7,216.9z"/>
	<path class="st23" d="M123.6,207.2c-0.6,0-1.6,0.2-1.6,1c0,0.9,0.2,2.2,0.4,2.7c0.1,0.6,0.3,2.1,0.4,2.5c0,0,0.5,1.3,0.7,2.1
		c0.2,0.8,0.2,1.5,0.3,2c0.2,0.8,0.1,1.6,0.9,1.4c0.8-0.1,0.9-0.6,0.8-1.7c-0.1-1.1,0-0.8-0.1-2c-0.1-1.2,0-1.7-0.2-3
		c-0.2-1.3-0.5-1.5-0.6-2.7C124.5,208.8,124.8,207.1,123.6,207.2z"/>
	<path class="st23" d="M117.3,213.2c0.1,0.7,0.1,1.1,0,2.1c-0.1,1-0.7,2.8-0.8,3.6c-0.1,0.8,0.2,4.4,0.3,5.4c0.1,1,0.2,2.2,0.2,2.7
		c0,0.4-0.5,1.4,0.2,1.5c0.7,0.1,1.1-0.6,1.2-1.3c0-0.6,0.2-0.9,0.3-2c0.1-1.1,0.7-2.5,0.7-3.7c0-1.2,0.4-2.3,0.4-3.5
		c0-1.2,0.2-3.1,0.2-3.5c0-0.5,0.4-1.5-0.1-1.5C119.3,213,117.3,213.2,117.3,213.2z"/>
	<line class="st28" x1="111.8" y1="200.6" x2="112.1" y2="201.4"/>
	<line class="st28" x1="112.2" y1="200.6" x2="112.6" y2="201.5"/>
	<line class="st28" x1="112.6" y1="200.4" x2="113" y2="201.2"/>
	<line class="st28" x1="113.1" y1="200.2" x2="113.4" y2="201"/>
	<path class="st44" d="M119.4,190.1c-0.1,0.4-0.3,0.9-0.3,0.9h1.5v-0.9H119.4z"/>
	<path class="st44" d="M124,191c0.2,0.1,0.4,0.4,0.7,0.4c0.3,0,1,0,1,0c0,0,0-0.3-0.1-0.6c-0.1-0.4-0.1-0.5-0.2-0.8
		c0-0.3-0.3-1.1-0.3-1.1"/>
	<path class="st45" d="M120.6,186.6c-0.4,0.3-0.9,0.9-1.1,1.7c-0.2,0.8-0.8,1.9-0.8,1.9s1.7,0.1,1.9,0.1c0.1,0.1-0.1-0.4,0-1.6
		C120.7,187.5,120.6,186.6,120.6,186.6z"/>
	<path class="st45" d="M124.4,187c0.8,1.1,0.8,1.2,0.8,2.1c0,0.9,0.1,1.6,0.2,1.8c0.1,0.2-1.6,0-1.6,0s0.4-0.8,0.3-1.5
		c-0.1-0.7-0.1-2.1-0.3-2.3c-0.2-0.3-0.2-0.3-0.2-0.3L124.4,187z"/>
	<g>
		<path class="st44" d="M116.6,195.3c-0.1,0.7-0.3,1.1-0.3,1.7c0.2-0.4,0.3-0.7,0.3-1.1C116.6,195.7,116.6,195.5,116.6,195.3z"/>
		<path class="st44" d="M117,200.2c-0.4-0.1-0.8-0.1-1.1-0.2c0,0.1,0,0.1,0.1,0.2c0.2,0.1,1.4,0.2,1.4,0.2s0.1-0.1,0.1-0.3
			C117.4,200.2,117,200.1,117,200.2z"/>
		<path class="st44" d="M117.6,200.1c0-0.2,0-0.5-0.1-1c-0.3-1.1-0.3-1.9-0.3-2.8c0-0.9,0.3-1.3,0.4-2c0.1-0.8,0.2-1.6,0-1.9
			l-0.4-0.5c0,0,0,0-0.1,0c-0.3,0.2-0.5,0.2-0.6,0.5c-0.1,0.4-0.2,0.6-0.3,0.9c-0.1,0.3-0.6,0.7-0.7,1.2c-0.2,0.5-0.5,1.4-0.7,1.8
			c-0.1,0.5-0.4,0.5-0.3,1.2c0.1,0.7-0.2,1-0.2,1.2c0,0.2-0.6,1.3,0.2-0.3c0.1-0.3,0.1-0.6,0.2-0.8c0.2-0.6,0.6-1.6,1.1-2.7
			c0.5-1.2,0.7-1,1.1-2c0.3-0.8-0.2,0.7-0.3,2.2c0,0,0,0,0,0c0,0.2,0,0.4,0,0.6c0,0.3-0.1,0.7-0.3,1.1c0,0.2,0,0.4,0,0.6
			c0,1-0.2,1.7-0.2,2.1c0,0.1-0.1,0.2-0.1,0.3c0.3,0.1,0.7,0.1,1.1,0.2C117,200.1,117.4,200.2,117.6,200.1z"/>
	</g>
	<path class="st44" d="M127,188.6c0,0,0,0.1,0,0.1c0,0.5-0.1,1.1-0.1,1.5c0,0.5,0.2,1.4,0.2,1.7c0,0.3,0.2,1.7,0.2,1.8
		c0,0.1,0,1.5,0.1,1.6c0,0.1-0.1-0.5-0.2-0.9c-0.1-0.4-0.2-1.8-0.2-2.1c0-0.3-0.3-1.9-0.2-2.2c0.1-0.3,0.3-1.8,0.3-1.9
		C127,188.1,127,188.6,127,188.6z"/>
	<g>
		<path class="st46" d="M120.2,200.1c2.5,0,7.8,0.3,7,2.2c-0.8,1.8-0.6,4.8-1.5,5.3c-0.9,0.4-2.6,0.7-5.2,0.7
			c-2.2,0-4.4-0.3-5.3-0.7c-0.9-0.4-0.7-3.4-1.5-5.3c-0.5-1.2,1.5-1.7,3.7-2c1.2-0.1,2.5-0.2,3.3-0.2"/>
		<path class="st47" d="M127.3,201.4c-1.6-1.4-3.3-2.6-6.6-2.6h-0.4c-3.3,0-5,1.2-6.6,2.6"/>
		<g>
			<g>
				<g>
					<path class="st48" d="M123.4,199.1c0.1-0.6,0.6-0.9,0.8-0.7c0.2,0.2,0.1,0.6-0.2,1c-0.3,0.4-0.5,0.6-0.7,1.1
						C123.3,199.9,123.3,199.7,123.4,199.1z"/>
				</g>
			</g>
		</g>
		<g>
			<path class="st49" d="M124.6,198.7c-0.9,0.7-1.2,1.9-1.8,2.9"/>
			<g>
				<g>
					<path class="st50" d="M123.4,199.7c0.1-0.4,0.4-0.7,0.7-0.9c0.3-0.2,0.5-0.2,0.6-0.1c0.1,0.2-0.2,0.7-0.7,1.3
						c-0.5,0.6-0.7,0.9-1.1,1.5C123.2,200.8,123.1,200.5,123.4,199.7z"/>
				</g>
			</g>
		</g>
		<g>
			<g>
				<g>
					<path class="st48" d="M124.3,199.6c0.4-0.5,1-0.7,1.2-0.4c0.1,0.2-0.2,0.7-0.7,0.9c-0.5,0.3-0.7,0.4-1.1,0.8
						C123.9,200.4,123.9,200.1,124.3,199.6z"/>
				</g>
			</g>
		</g>
		<g>
			<path class="st49" d="M125.2,199.8c-0.8,0.4-1.4,1-1.8,1.8"/>
			<g>
				<g>
					<path class="st50" d="M124.1,200.3c0.4-0.5,1-0.7,1.1-0.5c0.1,0.2-0.3,0.6-0.7,0.9c-0.5,0.3-0.7,0.4-1.1,0.9
						C123.6,201.1,123.7,200.8,124.1,200.3z"/>
				</g>
			</g>
		</g>
		<g>
			<path class="st49" d="M122.3,198.5c-0.1,1-0.3,2.1,0.2,3.1"/>
			<g>
				<g>
					<path class="st50" d="M121.8,199.9c-0.1-0.7,0.2-1.4,0.4-1.4c0.3,0,0.4,0.8,0.2,1.4c-0.1,0.7-0.3,0.9-0.1,1.7
						C122.1,200.9,122,200.6,121.8,199.9z"/>
				</g>
			</g>
		</g>
		<g>
			<g>
				<g>
					<path class="st48" d="M122.5,199.8c-0.2-0.5,0-1,0.2-1c0.3-0.1,0.5,0.5,0.4,0.9c0,0.5-0.2,0.7,0.1,1.1
						C122.9,200.5,122.7,200.3,122.5,199.8z"/>
				</g>
			</g>
		</g>
		<g>
			<g>
				<g>
					<path class="st48" d="M123.2,199.6c0-0.4,0.3-0.7,0.5-0.6c0.3,0,0.4,0.5,0.1,0.8c-0.2,0.3-0.4,0.4-0.4,0.8
						C123.3,200.2,123.2,200,123.2,199.6z"/>
				</g>
			</g>
		</g>
		<g>
			<path class="st49" d="M123.3,198.5c-0.1,1-0.2,2-0.3,3"/>
			<g>
				<g>
					<path class="st50" d="M122.8,199.8c-0.1-0.7,0.2-1.3,0.5-1.3s0.4,0.7,0.2,1.4c-0.2,0.7-0.3,0.9-0.5,1.6
						C123,200.8,122.9,200.5,122.8,199.8z"/>
				</g>
			</g>
		</g>
		<g>
			<g>
				<g>
					<path class="st48" d="M121.3,200c-0.3-0.2-0.3-0.6,0-0.8c0.2-0.1,0.6,0.1,0.6,0.4c0,0.4,0,0.5,0.1,0.9
						C121.8,200.2,121.6,200.2,121.3,200z"/>
				</g>
			</g>
		</g>
		<g>
			<g>
				<g>
					<path class="st51" d="M121.7,200.2c-0.2-0.4-0.1-0.7,0.2-0.8c0.3-0.1,0.5,0.3,0.5,0.6c0,0.3-0.1,0.5,0.1,0.8
						C122.1,200.7,122,200.5,121.7,200.2z"/>
				</g>
			</g>
		</g>
		<g>
			<g>
				<g>
					<path class="st51" d="M122.8,200c-0.1-0.4,0.2-0.7,0.4-0.6s0.4,0.4,0.2,0.7c-0.2,0.3-0.3,0.4-0.5,0.8
						C123,200.5,122.9,200.4,122.8,200z"/>
				</g>
			</g>
		</g>
		<g>
			<g>
				<g>
					<path class="st48" d="M121.7,199.9c0.1-0.5,0.6-0.8,0.7-0.7c0.2,0.2,0.1,0.6-0.2,0.9c-0.3,0.4-0.4,0.5-0.6,1
						C121.6,200.6,121.6,200.4,121.7,199.9z"/>
				</g>
			</g>
		</g>
		<g>
			<path class="st49" d="M122.8,199.5c-0.8,0.6-1.1,1.7-1.6,2.6"/>
			<g>
				<g>
					<path class="st50" d="M121.7,200.4c0.1-0.3,0.4-0.7,0.6-0.8c0.2-0.2,0.5-0.2,0.5-0.1c0.1,0.2-0.2,0.7-0.6,1.2
						c-0.4,0.5-0.6,0.8-1,1.4C121.5,201.4,121.4,201.2,121.7,200.4z"/>
				</g>
			</g>
		</g>
		<g>
			<path class="st49" d="M120.7,199.3c-0.1,0.9-0.3,1.9,0.2,2.8"/>
			<g>
				<g>
					<path class="st50" d="M120.3,200.6c-0.1-0.7,0.2-1.3,0.4-1.2c0.3,0,0.4,0.7,0.2,1.3c-0.1,0.6-0.2,0.9-0.1,1.5
						C120.5,201.5,120.4,201.3,120.3,200.6z"/>
				</g>
			</g>
		</g>
		<g>
			<g>
				<g>
					<path class="st48" d="M120.9,200.6c-0.2-0.5,0-0.9,0.2-0.9c0.2-0.1,0.5,0.4,0.4,0.8c0,0.4-0.1,0.6,0.1,1
						C121.2,201.2,121.1,201,120.9,200.6z"/>
				</g>
			</g>
		</g>
		<g>
			<g>
				<g>
					<path class="st48" d="M121.5,200.3c0-0.4,0.2-0.6,0.5-0.6c0.2,0,0.3,0.5,0.1,0.7c-0.2,0.3-0.4,0.4-0.4,0.7
						C121.6,200.9,121.5,200.7,121.5,200.3z"/>
				</g>
			</g>
		</g>
		<g>
			<path class="st49" d="M121.6,199.4c-0.1,0.9-0.2,1.8-0.3,2.7"/>
			<g>
				<g>
					<path class="st50" d="M121.2,200.6c-0.1-0.6,0.2-1.2,0.4-1.2c0.2,0,0.4,0.6,0.2,1.2c-0.2,0.6-0.3,0.8-0.4,1.5
						C121.3,201.4,121.2,201.2,121.2,200.6z"/>
				</g>
			</g>
		</g>
		<g>
			<g>
				<g>
					<path class="st48" d="M124.8,200.2c0.4-0.5,1-0.7,1.2-0.4c0.1,0.2-0.2,0.7-0.7,0.9c-0.5,0.3-0.7,0.4-1.1,0.8
						C124.4,200.9,124.4,200.7,124.8,200.2z"/>
				</g>
			</g>
		</g>
		<g>
			<path class="st49" d="M122.8,199.1c-0.1,1-0.3,2.1,0.2,3.1"/>
			<g>
				<g>
					<path class="st50" d="M122.4,200.5c-0.1-0.7,0.2-1.4,0.4-1.4c0.3,0,0.4,0.8,0.2,1.4c-0.1,0.7-0.3,0.9-0.1,1.7
						C122.6,201.5,122.5,201.2,122.4,200.5z"/>
				</g>
			</g>
		</g>
		<g>
			<g>
				<g>
					<path class="st48" d="M123.7,200.2c0-0.4,0.3-0.7,0.5-0.6c0.3,0,0.4,0.5,0.1,0.8c-0.2,0.3-0.4,0.4-0.4,0.8
						C123.8,200.8,123.8,200.6,123.7,200.2z"/>
				</g>
			</g>
		</g>
		<g>
			<path class="st49" d="M123.8,199.1c-0.1,1-0.2,2-0.3,3"/>
			<g>
				<g>
					<path class="st50" d="M123.3,200.4c-0.1-0.7,0.2-1.3,0.5-1.3s0.4,0.7,0.2,1.4c-0.2,0.7-0.3,0.9-0.5,1.6
						C123.5,201.4,123.4,201.1,123.3,200.4z"/>
				</g>
			</g>
		</g>
		<g>
			<g>
				<g>
					<path class="st48" d="M122.2,200.5c0.1-0.5,0.6-0.8,0.7-0.7c0.2,0.2,0.1,0.6-0.2,0.9c-0.3,0.4-0.4,0.5-0.6,1
						C122.2,201.2,122.1,201,122.2,200.5z"/>
				</g>
			</g>
		</g>
		<g>
			<path class="st49" d="M123.3,200.1c-0.8,0.6-1.1,1.7-1.6,2.6"/>
			<g>
				<g>
					<path class="st50" d="M122.2,201c0.1-0.3,0.4-0.7,0.6-0.8c0.2-0.2,0.5-0.2,0.5-0.1c0.1,0.2-0.2,0.7-0.6,1.2
						c-0.4,0.5-0.6,0.8-1,1.4C122,202,122,201.7,122.2,201z"/>
				</g>
			</g>
		</g>
		<g>
			<path class="st49" d="M122.1,199.9c-0.1,0.9-0.2,1.8-0.3,2.7"/>
			<g>
				<g>
					<path class="st50" d="M121.7,201.1c-0.1-0.6,0.2-1.2,0.4-1.2c0.2,0,0.4,0.6,0.2,1.2c-0.2,0.6-0.3,0.8-0.4,1.5
						C121.8,202,121.8,201.8,121.7,201.1z"/>
				</g>
			</g>
		</g>
		<g>
			<g>
				<g>
					<path class="st51" d="M121.2,200.7c-0.1-0.3,0.2-0.6,0.4-0.6c0.2,0.1,0.4,0.4,0.2,0.7c-0.2,0.3-0.3,0.4-0.4,0.7
						C121.3,201.2,121.2,201,121.2,200.7z"/>
				</g>
			</g>
		</g>
		<g>
			<g>
				<g>
					<path class="st48" d="M122.1,200.1c0-0.3,0.3-0.5,0.5-0.5c0.3,0.1,0.3,0.5,0.1,0.7c-0.3,0.3-0.4,0.3-0.7,0.5
						C122.1,200.6,122.1,200.5,122.1,200.1z"/>
				</g>
			</g>
		</g>
		<g>
			<g>
				<g>
					<path class="st48" d="M123,200.9c-0.2-0.5,0-0.9,0.2-1c0.3-0.1,0.5,0.5,0.5,0.9c0,0.5-0.2,0.7,0.1,1.1
						C123.4,201.6,123.3,201.3,123,200.9z"/>
				</g>
			</g>
		</g>
		<path class="st52" d="M113.6,201.9c0.6,1.9,0.6,5.9,1.5,6.3c0.9,0.4,3.2,0.7,5.3,0.7c2.7,0,4.3-0.3,5.2-0.7
			c0.9-0.4,0.7-4.5,1.5-6.3c0.8-1.8-1.8-0.7-7-0.6C116.3,201.4,113,200.1,113.6,201.9z"/>
	</g>
	<g>
		<g>
			<path class="st23" d="M127.9,199.9c0.1-0.5,0.6-0.6,1.4-0.5c0.8,0.1,1.3,0.5,1.3,1c0,0.3-0.5,1.1-0.6,1.1c-0.1,0-0.1,0-0.1,0
				c0,0,0,0,0,0c0,0.1-0.1,0.2-0.2,0.2c-0.1,0-0.2-0.1-0.2-0.2c0,0-0.1,0.1-0.2,0.1c-0.1,0-0.2-0.2-0.2-0.3c0,0-0.2,0.1-0.2,0.1
				c-0.4-0.2-0.1-0.4,0.1-1C128.4,200.1,127.8,200.2,127.9,199.9z"/>
			<path class="st16" d="M127.9,199.9c0-0.2,0.2-0.4,0.4-0.4c0.2-0.1,0.4-0.1,0.6-0.1c0.4,0,0.8,0.1,1.2,0.3
				c0.2,0.1,0.3,0.2,0.5,0.4c0.1,0.2,0.1,0.4,0,0.6c-0.1,0.2-0.2,0.4-0.3,0.5c-0.1,0.1-0.1,0.2-0.2,0.3c0,0-0.1,0.1-0.1,0.1
				c-0.1,0-0.1,0-0.2,0l0,0c0,0.1-0.1,0.2-0.2,0.2c-0.1,0-0.2-0.1-0.3-0.2l0,0c-0.1,0.1-0.2,0.1-0.3,0c-0.1-0.1-0.1-0.2-0.1-0.3l0,0
				c-0.1,0-0.1,0-0.2,0.1c-0.1,0-0.1,0-0.2,0c-0.1-0.1-0.1-0.2-0.1-0.3c0.1-0.2,0.2-0.4,0.3-0.6l0,0c-0.1-0.1-0.3-0.2-0.5-0.2
				c-0.1,0-0.2-0.1-0.3-0.1C127.9,200.1,127.9,200,127.9,199.9z M127.9,199.9c0,0.1,0.1,0.2,0.2,0.2c0.1,0,0.2,0.1,0.3,0.1
				c0.2,0,0.4,0.1,0.5,0.2l0,0l0,0c-0.1,0.2-0.2,0.4-0.2,0.6c0,0.1,0,0.2,0.1,0.3c0,0,0.1,0.1,0.1,0c0.1,0,0.1,0,0.2-0.1l0,0l0,0
				c0,0.1,0,0.2,0.1,0.2c0.1,0.1,0.2,0,0.2,0l0,0l0,0c0,0.1,0.1,0.2,0.2,0.1c0.1,0,0.2-0.1,0.2-0.2l0,0l0,0c0,0,0.1,0,0.1,0
				c0,0,0.1-0.1,0.1-0.1c0.1-0.1,0.1-0.2,0.2-0.3c0.1-0.2,0.2-0.4,0.3-0.5c0.1-0.2,0.1-0.4,0-0.6c-0.1-0.2-0.3-0.3-0.4-0.4
				c-0.4-0.2-0.8-0.3-1.2-0.3c-0.2,0-0.4,0-0.6,0.1C128.1,199.5,127.9,199.7,127.9,199.9z"/>
		</g>
		<path class="st42" d="M128.8,200.3l-2.3-0.4l-0.1,0.8l2.2,0.4C128.7,200.8,128.7,200.6,128.8,200.3z"/>
		<line class="st28" x1="130.1" y1="200.7" x2="129.8" y2="201.5"/>
		<line class="st28" x1="129.7" y1="200.7" x2="129.4" y2="201.6"/>
		<line class="st28" x1="129.3" y1="200.5" x2="129" y2="201.3"/>
		<line class="st28" x1="128.8" y1="200.3" x2="128.5" y2="201.1"/>
	</g>
	<g>
		<path class="st24" d="M121.1,185.9c0.3-0.1,0.7-0.1,0.9-0.1c0.2,0,1-0.2,1.1-0.2c0.1,0.1-0.5,0.8-1,0.8
			C121.6,186.4,121.1,185.9,121.1,185.9z"/>
		<path class="st17" d="M121.1,185.9c0,0,0.3-0.1,0.7-0.1c0.2,0,0.5-0.1,0.7-0.1c0.1,0,0.3,0,0.4-0.1c0.1,0,0.2-0.1,0.2,0
			c0,0.1,0,0.1-0.1,0.2c-0.2,0.2-0.4,0.4-0.6,0.5c-0.1,0-0.3,0.1-0.4,0c-0.1,0-0.2,0-0.3-0.1c-0.2-0.1-0.3-0.2-0.4-0.3
			C121.2,185.9,121.1,185.9,121.1,185.9L121.1,185.9L121.1,185.9z M121.1,185.9c0,0,0.2,0.2,0.6,0.4c0.1,0,0.2,0,0.3,0.1
			c0.1,0,0.2,0,0.3,0c0.2-0.1,0.4-0.3,0.6-0.5c0-0.1,0.1-0.1,0.1-0.2c0-0.1-0.1,0-0.2,0c-0.1,0-0.3,0.1-0.4,0.1
			c-0.3,0.1-0.5,0.1-0.7,0.1C121.4,185.9,121.2,185.9,121.1,185.9z"/>
	</g>
	<g>
		<path class="st22" d="M122.5,183.9c0,0,0.2-0.2,0.5-0.3l0.1,0c0.1,0,0.1,0,0.1,0c0.1,0,0.1,0.1,0.1,0.1c0.1,0.1,0.1,0.1,0.1,0.1v0
			c0,0-0.1,0-0.2-0.1c0,0-0.1-0.1-0.1-0.1c0,0-0.1,0-0.1,0l-0.1,0c-0.1,0-0.2,0.1-0.4,0.1C122.5,183.9,122.5,183.9,122.5,183.9
			L122.5,183.9z"/>
	</g>
	<circle class="st22" cx="123" cy="183.8" r="0.1"/>
	<circle class="st22" cx="120.9" cy="183.9" r="0.1"/>
	<g>
		<path class="st22" d="M121.4,183.9c0,0-0.1,0-0.2,0c-0.1,0-0.2-0.1-0.3-0.1c-0.1,0-0.2,0.1-0.3,0.1c-0.1,0-0.2,0-0.2,0l0,0
			c0,0,0.2-0.2,0.5-0.2c0.2,0,0.3,0.1,0.4,0.1C121.3,183.9,121.4,183.9,121.4,183.9L121.4,183.9z"/>
	</g>
	<g>
		<path class="st31" d="M122.2,178.9c-1.8,0-3.2,1.4-3.2,3.2c0,0.2,0,0.4,0.1,0.6c1.2,0.1,2.3,0.3,3.3,0.2c0.7,0,2-0.1,3-0.2
			c0-0.2,0.1-0.5,0.1-0.7C125.4,180.3,124,178.9,122.2,178.9z"/>
		<path class="st37" d="M122.2,178.9c-0.2,0-0.5,0-0.7,0.1c-0.2,0.1-0.5,0.1-0.7,0.2c-0.2,0.1-0.4,0.2-0.6,0.4
			c-0.2,0.1-0.4,0.3-0.5,0.5c-0.2,0.2-0.3,0.4-0.4,0.6c-0.1,0.2-0.2,0.4-0.2,0.7c-0.1,0.2-0.1,0.5-0.1,0.7c0,0.1,0,0.2,0,0.3l0,0.4
			l0,0l1.6,0.2c0.5,0,1.1,0,1.6,0.1c0.3,0,0.5,0,0.8,0l0.8,0l1.6-0.1l0,0c0-0.2,0.1-0.5,0.1-0.7l0-0.4c0-0.1,0-0.2-0.1-0.4
			c-0.1-0.2-0.1-0.5-0.2-0.7l-0.2-0.3c-0.1-0.1-0.1-0.2-0.2-0.3c-0.1-0.2-0.3-0.4-0.5-0.5c-0.2-0.2-0.4-0.3-0.6-0.4
			c-0.2-0.1-0.4-0.2-0.7-0.2C122.7,178.9,122.4,178.9,122.2,178.9z M122.2,178.9c0.2,0,0.5,0,0.7,0.1c0.2,0.1,0.5,0.1,0.7,0.2
			c0.2,0.1,0.4,0.2,0.6,0.4c0.2,0.1,0.4,0.3,0.5,0.5c0.1,0.1,0.2,0.2,0.2,0.3l0.2,0.3c0.1,0.2,0.2,0.5,0.3,0.7c0,0.1,0,0.2,0.1,0.4
			l0,0.4c0,0.2-0.1,0.5-0.1,0.7l0,0l0,0l-1.6,0.1l-0.8,0c-0.3,0-0.5,0-0.8,0c-0.5,0-1.1,0-1.6-0.1l-1.6-0.2l0,0l0,0l0-0.4
			c0-0.1,0-0.2,0-0.4c0-0.2,0-0.5,0.1-0.7c0.1-0.2,0.1-0.5,0.3-0.7c0.1-0.2,0.2-0.4,0.4-0.6c0.1-0.2,0.3-0.3,0.5-0.5
			c0.2-0.2,0.4-0.2,0.6-0.4c0.2-0.1,0.4-0.1,0.7-0.2C121.7,178.9,122,178.9,122.2,178.9z"/>
	</g>
	<g>
		<path class="st23" d="M121.9,184.1c-0.1,0.5-0.4,1-0.2,1.1c0.2,0.1,0.5,0.2,0.6,0.1"/>
		<path class="st16" d="M121.9,184.2c0,0,0,0.1-0.1,0.3c0,0.2-0.1,0.4-0.2,0.6c0,0.1,0,0.1,0,0.2c0,0,0.1,0.1,0.1,0.1
			c0.1,0.1,0.2,0.1,0.3,0.1c0.2,0,0.3-0.1,0.3,0l0,0c0,0-0.1,0.1-0.3,0.1c-0.1,0-0.2,0-0.3-0.1c0,0-0.1-0.1-0.1-0.1
			c0-0.1,0-0.1,0-0.2c0-0.2,0.1-0.4,0.2-0.6C121.9,184.3,121.9,184.1,121.9,184.2L121.9,184.2z"/>
	</g>
	<line class="st53" x1="121" y1="216.5" x2="119.7" y2="227.4"/>
	<line class="st53" x1="121.5" y1="216.5" x2="122.8" y2="227.4"/>
	<line class="st54" x1="121.3" y1="215.9" x2="121.3" y2="235.6"/>
	<line class="st55" x1="121.5" y1="215.4" x2="121.5" y2="235.9"/>
</g>
<g>
	<line class="st38" x1="156.7" y1="235.5" x2="156.7" y2="156.6"/>
	<rect x="152.6" y="166.7" class="st56" width="37.6" height="65.9"/>
	<polygon class="st57" points="190.2,218.8 152.6,196.3 152.6,177.8 190.2,200.3 	"/>
	<line class="st58" x1="150.8" y1="158.1" x2="205" y2="158.1"/>
	<rect x="150.8" y="156.3" class="st30" width="54.2" height="1.5"/>
	<rect x="206.2" y="156.3" class="st30" width="1.5" height="1.5"/>
	<rect x="205" y="156.6" class="st37" width="1.1" height="0.9"/>
	<rect x="191" y="158.1" class="st30" width="4.8" height="6.5"/>
	<polygon class="st30" points="204.1,158.1 195.7,158.1 195.7,163.5 204.1,161 	"/>
	<polygon class="st30" points="191,164.1 155.3,159.8 153.6,158.1 191,158.1 	"/>
	<rect x="192" y="164.6" class="st59" width="2.8" height="1.2"/>
	<rect x="191.4" y="165.8" class="st60" width="4" height="69.7"/>
	
		<linearGradient id="SVGID_1_" gradientUnits="userSpaceOnUse" x1="3455.5049" y1="200.6609" x2="3453.5154" y2="200.6609" gradientTransform="matrix(-1 0 0 1 3648.8569 0)">
		<stop  offset="0" style="stop-color:#5D6062"/>
		<stop  offset="1" style="stop-color:#46484A"/>
	</linearGradient>
	<rect x="193.4" y="165.8" class="st61" width="2" height="69.7"/>
	<polygon class="st62" points="191.4,218.8 188.9,221.1 188.9,222.4 191.4,222.4 	"/>
	<rect x="177.5" y="221.8" class="st63" width="11.4" height="1.5"/>
	<g>
		<rect x="178.2" y="221.3" class="st62" width="1.1" height="2.5"/>
		<rect x="179.9" y="221.3" class="st62" width="1.1" height="2.5"/>
		<rect x="181.6" y="221.3" class="st62" width="1.1" height="2.5"/>
		<rect x="183.4" y="221.3" class="st62" width="1.1" height="2.5"/>
		<rect x="185.3" y="221.3" class="st62" width="1.1" height="2.5"/>
		<rect x="187.1" y="221.3" class="st62" width="1.1" height="2.5"/>
	</g>
	<polyline class="st64" points="189.4,222.4 189.4,223.8 191.8,226.4 	"/>
	<line class="st65" x1="205" y1="156" x2="148.3" y2="156"/>
	<polygon class="st63" points="203.6,158.5 197.1,160.8 197.1,163.1 195.7,163.5 195.7,158.1 203.9,158.1 	"/>
	<polygon class="st63" points="191,164.1 189.5,163.9 189.5,161.8 153.6,158.1 191,158.1 	"/>
	<polygon class="st66" points="191,158.1 191.9,158.1 195.7,161.9 195.7,164.6 195.7,164.6 191,159.9 	"/>
	<polygon class="st66" points="191.6,157.8 164.4,157.8 162.9,156.3 190.1,156.3 	"/>
	<rect x="152.4" y="159.4" class="st67" width="23.7" height="3.9"/>
</g>
<line class="st38" x1="252.7" y1="167.7" x2="308.9" y2="167.7"/>
<rect x="254.2" y="60.8" class="st68" width="120.6" height="80.2"/>
<rect x="254.2" y="145.2" class="st69" width="120.6" height="90"/>
<polygon class="st70" points="374.8,145.2 254.2,145.2 374.8,148.3 "/>
<line class="st71" x1="254.2" y1="159.2" x2="374.8" y2="159.2"/>
<line class="st71" x1="254.2" y1="173.3" x2="374.8" y2="173.3"/>
<line class="st71" x1="254.2" y1="187.3" x2="374.8" y2="187.3"/>
<line class="st71" x1="254.2" y1="201.4" x2="374.8" y2="201.4"/>
<line class="st71" x1="254.2" y1="215.4" x2="374.8" y2="215.4"/>
<rect x="252.7" y="58.4" class="st69" width="122.1" height="2.4"/>
<rect x="250.3" y="54" class="st69" width="124.5" height="4.3"/>
<path class="st72" d="M250.3,54c6.9-5.3,43.8-45.4,48-54h76.5v54H250.3z"/>
<pattern  id="SVGID_2_" xlink:href="#_x31_0_lpi_10_x25_" patternTransform="matrix(0.4465 -0.4465 0.4465 0.4465 -619.5707 -7196.188)">
</pattern>
<path class="st73" d="M250.3,54c6.9-5.3,43.8-45.4,48-54h76.5v54H250.3z"/>
<g>
	<rect x="297.4" y="73.4" class="st74" width="31.6" height="45"/>
	<rect x="299" y="75" class="st56" width="28.4" height="41.8"/>
	<polygon class="st57" points="299,113.7 327.4,96.7 327.4,78.2 299,95.2 	"/>
	<line class="st75" x1="313.2" y1="75" x2="313.2" y2="116.8"/>
	<line class="st76" x1="327.4" y1="89" x2="299" y2="89"/>
</g>
<polygon class="st70" points="254.2,60.8 374.8,63.1 374.8,60.8 "/>
<polygon class="st70" points="252.4,58.4 374.8,59.5 374.8,58.4 "/>
<pattern  id="SVGID_3_" xlink:href="#_x31_0_lpi_10_x25_" patternTransform="matrix(-0.4911 -0.4911 0.4911 -0.4911 -7016.8604 -14508.3711)">
</pattern>
<path class="st77" d="M250.3,54c6.9-5.3,43.8-45.4,48-54h76.5v54H250.3z"/>
<polygon class="st70" points="250.3,54 374.8,57.6 374.8,54 "/>
<rect x="253.2" y="141" class="st69" width="121.6" height="4.2"/>
<polygon class="st78" points="254.2,60.8 374.8,60.8 374.8,61.7 "/>
<rect x="250.3" y="121.6" class="st69" width="124.5" height="2.2"/>
<rect x="253.3" y="127.2" class="st69" width="121.6" height="2.2"/>
<rect x="254.2" y="129.3" class="st69" width="120.6" height="2.2"/>
<rect x="252.5" y="123.8" class="st69" width="122.3" height="3.4"/>
<rect x="294.8" y="70.8" class="st69" width="36.6" height="50.8"/>
<g>
	<rect x="297.4" y="73.7" class="st74" width="31.6" height="45"/>
	<rect x="299" y="75.3" class="st56" width="28.4" height="41.8"/>
	<polygon class="st57" points="299,114 327.4,97 327.4,78.5 299,95.5 	"/>
	<line class="st75" x1="313.2" y1="75.3" x2="313.2" y2="117.1"/>
	<line class="st76" x1="327.4" y1="89.2" x2="299" y2="89.2"/>
</g>
<g>
	<rect x="289.9" y="153.6" class="st79" width="46.5" height="67.2"/>
	<rect x="293.1" y="156.8" class="st56" width="40.2" height="61.5"/>
	<polygon class="st57" points="293.1,218.2 333.3,197.1 333.3,170 293.1,191.1 	"/>
</g>
<polygon class="st69" points="313.2,68.3 292.5,68.3 292.5,70.8 313.2,70.8 333.8,70.8 333.8,68.3 "/>
<polygon class="st70" points="294.8,70.8 331.5,70.8 331.5,72.2 "/>
<polygon class="st70" points="252.5,123.8 374.8,123.8 374.8,126.1 "/>
<polygon class="st70" points="253.3,127.2 374.8,127.2 374.8,128 "/>
<polygon class="st70" points="254.2,129.3 374.8,129.3 374.8,130.2 "/>
<polygon class="st78" points="254.2,131.5 374.8,131.5 374.8,132.4 "/>
<line class="st80" x1="250.3" y1="54" x2="374.8" y2="54"/>
<polygon class="st81" points="344.4,178 282.8,178 284.4,148.3 342.8,148.3 "/>
<rect x="282.8" y="177.7" class="st82" width="61.6" height="3.1"/>
<rect x="282.8" y="180.5" class="st81" width="61.6" height="6.1"/>
<linearGradient id="SVGID_4_" gradientUnits="userSpaceOnUse" x1="313.6187" y1="180.5171" x2="313.6187" y2="183.5669">
	<stop  offset="0" style="stop-color:#88787D"/>
	<stop  offset="1" style="stop-color:#6B565E"/>
</linearGradient>
<rect x="282.8" y="180.5" class="st83" width="61.6" height="3"/>
<g>
	<g>
		<path class="st38" d="M89.6,223.9c-0.7,2.3-2.3,5.5-2.3,5.5h0c0.2-1.5,0.6-2.9,1.2-6c0.8-4.5,0.9-5,1.1-7.1c0-0.3,0.1-0.6,0.1-1
			c0.4,2.5,0.4,5,0.2,7.2C89.9,222.9,89.8,223.4,89.6,223.9z"/>
		<path class="st84" d="M89.4,224.7l-0.8,2c-0.2,0.5-0.4,0.9-0.6,1.4l-0.6,1.4l0,0.1h-0.1h0l-0.1,0l0-0.1c0.2-1.2,0.4-2.4,0.7-3.5
			c0.2-1.2,0.5-2.3,0.7-3.5l0.6-3.5c0.2-1.2,0.4-2.3,0.5-3.5l0-0.3l0,0.3c0.1,0.7,0.2,1.4,0.2,2.1c0,0.7,0.1,1.4,0.1,2.2l0,1.1
			c0,0.4-0.1,0.7-0.1,1.1c0,0.4,0,0.7-0.1,1.1l-0.2,1.1L89.4,224.7z M89.8,223.1l0.1-0.2c0.1-0.3,0.1-0.7,0.1-1.1
			c0-0.4,0.1-0.7,0.1-1.1l0-1.1c0-0.7-0.1-1.4-0.1-2.2c-0.1-0.7-0.2-1.4-0.2-2.1l0.1,0c-0.1,1.2-0.3,2.4-0.5,3.5l-0.5,3.5
			c-0.2,1.2-0.4,2.3-0.6,3.5c-0.2,1.2-0.4,2.3-0.7,3.5l-0.1-0.1h0l-0.1,0.1l0.6-1.3c0.2-0.4,0.4-0.9,0.6-1.4l1.1-2.8L89.8,223.1z"/>
	</g>
	<path class="st84" d="M89.6,232.9c0,0.8,0.2,2.1-0.9,2.1c-1.1,0-2.2,0-2.9,0S85,234,85,233c0-0.5,0-0.7,0-0.8v0c0.2,0,0.3,0,0.6,0
		c0.9,0,1.6-0.3,1.7-2.1c0-0.2,0-0.5,0-0.7h0c0,0,1.6-3.2,2.3-5.5C89.6,224.4,89.6,232.2,89.6,232.9z"/>
	<g>
		<path class="st38" d="M46.2,223.9c0.7,2.3,2.3,5.5,2.3,5.5h0c-0.2-1.5-0.6-2.9-1.2-6c-0.8-4.5-0.9-5-1.1-7.1c0-0.3-0.1-0.6-0.1-1
			c-0.4,2.5-0.4,5-0.2,7.2C45.9,222.9,46,223.4,46.2,223.9z"/>
		<path class="st84" d="M46.5,224.7l0.8,2c0.2,0.5,0.4,0.9,0.6,1.4l0.6,1.3l0,0h0l0,0c-0.2-1.2-0.4-2.3-0.7-3.5
			c-0.2-1.2-0.5-2.3-0.7-3.5l-0.6-3.5c-0.2-1.2-0.4-2.3-0.5-3.5l0.2,0c-0.1,0.7-0.2,1.4-0.2,2.1c0,0.7-0.1,1.4-0.1,2.1l0,1.1
			c0,0.4,0.1,0.7,0.1,1.1l0,0.5c0,0.2,0.1,0.3,0.1,0.5l0.2,1.1L46.5,224.7z M45.9,223.2l-0.1-0.3c0-0.2-0.1-0.4-0.1-0.5l0-0.5
			c0-0.4-0.1-0.7-0.1-1.1l0-1.1c0-0.7,0.1-1.4,0.1-2.2c0.1-0.7,0.2-1.4,0.2-2.2l0.1-0.7l0.1,0.7c0.1,1.2,0.3,2.4,0.5,3.5l0.5,3.5
			c0.2,1.2,0.4,2.3,0.6,3.5c0.2,1.2,0.4,2.3,0.7,3.5l0,0h0h0h0l0,0l-0.6-1.4c-0.2-0.4-0.4-0.9-0.6-1.4l-1.1-2.8L45.9,223.2z"/>
	</g>
	<path class="st84" d="M46.2,233c0,0.8-0.2,2.1,0.9,2.1c1.1,0,2.2,0,2.9,0c0.7,0,0.8-0.9,0.8-2c0-0.5,0-0.7,0-0.8v0
		c-0.2,0-0.3,0-0.6,0c-0.9,0-1.6-0.3-1.7-2.1c0-0.2,0-0.5,0-0.7h0c0,0-1.6-3.2-2.3-5.5C46.2,224.4,46.2,232.2,46.2,233z"/>
	<path class="st85" d="M82.1,230.6L82.1,230.6l-14.3,0H53.6l0,0c0.1-0.2,0.2-0.5,0.3-0.8c0.8-2.2,0.9-2.5,2.6-2.5
		c1.8,0,11.4-0.1,11.4-0.1s9.5,0.1,11.4,0.1c1.7,0,1.8,0.3,2.6,2.5C81.9,230.1,82,230.4,82.1,230.6z"/>
	<g>
		<path class="st38" d="M50.7,232.2c-0.2,0-0.3,0-0.6,0c-0.9,0-1.6-0.3-1.7-2.1c0-0.2,0-0.5,0-0.7c-0.2-1.5-0.6-2.9-1.2-6
			c-0.8-4.5-0.9-5-1.1-7.1h0c0.9,2.2,1,3.2,3,3.8c1.4,0.4,2.4,0.7,4.6,0.8l0,0.1c0.4,1.2,1.1,3.1,4,3.2c3.1,0.1,5.9,0.4,10.1,0.4
			c4.2,0,6.9-0.3,10.1-0.4c2.9-0.1,3.6-2,4-3.2l0-0.1c2.3-0.1,3.2-0.4,4.6-0.8c2.1-0.6,2.1-1.6,3-3.8h0c-0.3,2-0.4,2.6-1.1,7.1
			c-0.5,3.1-1,4.5-1.2,6c0,0.2,0,0.5,0,0.7c-0.1,1.8-0.8,2-1.7,2.1c-0.2,0-0.4,0-0.6,0c-0.3,0-0.7,0-1.5,0c-0.4,0-0.7-0.1-1.4-1.5
			c-0.1-0.2-0.2-0.5-0.3-0.8c-0.8-2.2-0.9-2.5-2.6-2.5c-1.8,0-11.4-0.1-11.4-0.1s-9.5,0.1-11.4,0.1c-1.7,0-1.8,0.3-2.6,2.5
			c-0.1,0.3-0.2,0.6-0.3,0.8c-0.6,1.5-0.9,1.5-1.4,1.5C51.4,232.2,51.1,232.2,50.7,232.2z M85.6,226.1c0-0.5-0.4-0.9-0.9-0.9
			c-0.5,0-0.9,0.4-0.9,0.9c0,0.5,0.4,0.9,0.9,0.9C85.2,227.1,85.6,226.7,85.6,226.1z M52,226.1c0-0.5-0.4-0.9-0.9-0.9
			c-0.5,0-0.9,0.4-0.9,0.9c0,0.5,0.4,0.9,0.9,0.9C51.6,227.1,52,226.7,52,226.1z"/>
		<g>
			<path class="st84" d="M50.7,232.2c-0.4,0-0.7,0-1.1-0.1c-0.4-0.1-0.7-0.3-0.9-0.6c-0.4-0.7-0.3-1.4-0.4-2.2
				c-0.2-1.4-0.6-2.9-0.9-4.3c-0.3-1.4-0.5-2.9-0.7-4.3l-0.7-4.3l0-0.1h0.1h0h0l0,0c0.3,0.8,0.6,1.5,0.9,2.3
				c0.2,0.4,0.4,0.7,0.8,0.9c0.3,0.2,0.7,0.4,1.1,0.5c0.8,0.3,1.6,0.5,2.4,0.6c0.8,0.1,1.6,0.2,2.4,0.2l0.1,0l0,0.1l0,0.1l0,0
				c0.2,0.6,0.4,1.2,0.8,1.7c0.4,0.5,0.9,0.9,1.5,1.1c0.6,0.2,1.2,0.3,1.9,0.3l2,0.1c2.6,0.2,5.2,0.3,7.8,0.3c2.6,0,5.2-0.1,7.8-0.3
				l2-0.1c0.6,0,1.3-0.1,1.9-0.3c0.6-0.2,1.1-0.6,1.5-1.1c0.4-0.5,0.6-1.1,0.8-1.7l0,0l0-0.1l0-0.1l0.1,0c0.8,0,1.6-0.1,2.4-0.2
				c0.8-0.1,1.6-0.4,2.4-0.6c0.4-0.1,0.7-0.3,1.1-0.5c0.3-0.2,0.6-0.6,0.7-0.9c0.4-0.7,0.6-1.5,0.9-2.3l0-0.1h0.1h0h0.1l0,0.1
				l-1.1,7.1c-0.2,1.2-0.4,2.4-0.7,3.5c-0.3,1.2-0.5,2.3-0.5,3.5c-0.1,0.6-0.2,1.3-0.9,1.6c-0.6,0.2-1.2,0.2-1.8,0.2l-0.9,0
				c-0.3,0-0.7,0-0.9-0.2c-0.4-0.5-0.6-1-0.9-1.6l-0.6-1.7c-0.2-0.5-0.5-1.1-1.1-1.2c-0.6-0.1-1.2-0.1-1.8-0.1l-1.8,0l-7.2-0.1
				c-2.4,0-4.8,0-7.2,0l-3.6,0l-1.8,0c-0.6,0-1.2-0.1-1.8,0.2c-0.5,0.3-0.7,0.9-0.9,1.5c-0.2,0.6-0.4,1.1-0.7,1.7
				c-0.1,0.3-0.2,0.5-0.4,0.8c-0.2,0.2-0.3,0.5-0.6,0.6C51.9,232.2,51.3,232.2,50.7,232.2z M50.7,232.2c0.6,0,1.2,0,1.8,0
				c0.3-0.1,0.5-0.3,0.6-0.6c0.2-0.3,0.3-0.5,0.4-0.8c0.2-0.6,0.4-1.1,0.7-1.7c0.2-0.5,0.4-1.2,0.9-1.5c0.6-0.3,1.2-0.2,1.8-0.2
				l1.8,0l3.6,0c2.4,0,4.8-0.1,7.2,0l7.2,0l1.8,0c0.6,0,1.2,0,1.8,0.1c0.3,0.1,0.6,0.3,0.8,0.5c0.2,0.3,0.3,0.5,0.4,0.8l0.7,1.7
				c0.2,0.5,0.4,1.1,0.8,1.5c0.2,0.2,0.5,0.2,0.8,0.2l0.9,0c0.6,0,1.2,0,1.7-0.2c0.5-0.2,0.7-0.9,0.8-1.4c0-1.2,0.3-2.4,0.5-3.6
				c0.3-1.2,0.5-2.3,0.7-3.5l1.1-7.1l0.1,0.1h0l0.1-0.1c-0.3,0.8-0.6,1.5-0.9,2.3c-0.2,0.4-0.5,0.7-0.8,1c-0.3,0.3-0.7,0.4-1.1,0.6
				c-0.8,0.3-1.6,0.5-2.4,0.6c-0.8,0.1-1.6,0.2-2.5,0.2l0.1-0.1l0,0.1l0,0l0,0c-0.2,0.6-0.5,1.2-0.9,1.8c-0.4,0.5-1,1-1.6,1.2
				c-0.6,0.2-1.3,0.3-2,0.3l-2,0.1c-2.6,0.2-5.2,0.3-7.8,0.3c-2.6,0-5.2-0.1-7.8-0.3l-2-0.1c-0.6,0-1.3-0.1-2-0.3
				c-0.6-0.2-1.2-0.7-1.6-1.2c-0.4-0.5-0.7-1.2-0.9-1.8l0,0l0,0l0-0.1l0.1,0.1c-0.8,0-1.6-0.1-2.5-0.3c-0.8-0.1-1.6-0.4-2.4-0.6
				c-0.4-0.1-0.8-0.3-1.1-0.6c-0.3-0.3-0.6-0.6-0.8-1c-0.4-0.7-0.6-1.5-0.9-2.3l0.1,0h0l0.1-0.1l0.7,4.3c0.2,1.4,0.4,2.9,0.7,4.3
				c0.3,1.4,0.7,2.9,0.8,4.3c0.1,0.7,0,1.5,0.3,2.1c0.2,0.3,0.5,0.6,0.8,0.6C50,232.1,50.4,232.1,50.7,232.2z"/>
			<path class="st84" d="M85.6,226.1c0,0,0-0.1,0-0.2c0-0.2-0.2-0.4-0.4-0.5c-0.1-0.1-0.2-0.1-0.4-0.1c-0.1,0-0.3,0-0.4,0.1
				c-0.3,0.1-0.5,0.4-0.5,0.8c0,0.3,0.2,0.7,0.5,0.8c0.3,0.1,0.6,0.1,0.9,0c0.2-0.1,0.3-0.4,0.4-0.5
				C85.6,226.2,85.6,226.1,85.6,226.1z M85.7,226.1c0,0,0.1,0.4-0.4,0.8c-0.2,0.2-0.6,0.3-1,0.1c-0.3-0.1-0.6-0.5-0.6-0.9
				c0-0.4,0.2-0.8,0.6-1c0.2-0.1,0.4-0.1,0.5-0.1c0.2,0,0.3,0.1,0.4,0.2c0.2,0.2,0.3,0.4,0.4,0.6C85.7,226,85.7,226.1,85.7,226.1z"
				/>
			<path class="st84" d="M52,226.1c0,0,0-0.1,0-0.2c0-0.2-0.2-0.4-0.4-0.5c-0.1-0.1-0.2-0.1-0.4-0.1c-0.1,0-0.3,0-0.4,0.1
				c-0.3,0.1-0.5,0.4-0.5,0.8c0,0.3,0.2,0.7,0.5,0.8c0.3,0.1,0.6,0.1,0.9,0c0.2-0.1,0.3-0.4,0.4-0.5C52,226.2,52,226.1,52,226.1z
				 M52,226.1c0,0,0.1,0.4-0.4,0.8c-0.2,0.2-0.6,0.3-1,0.1c-0.3-0.1-0.6-0.5-0.6-0.9c0-0.4,0.2-0.8,0.6-1c0.2-0.1,0.4-0.1,0.5-0.1
				c0.2,0,0.3,0.1,0.4,0.2c0.2,0.2,0.3,0.4,0.4,0.6C52,226,52,226.1,52,226.1z"/>
		</g>
	</g>
	<path class="st30" d="M89.6,216.3c-0.9,2.2-0.9,3.2-3,3.8c-1.4,0.4-2.4,0.7-4.6,0.8l0,0.1c-0.4,1.2-1.1,3.1-4,3.2
		c-3.1,0.1-5.9,0.4-10.1,0.4c-4.1,0-6.8-0.3-9.9-0.4c-0.5,1-0.7,2-0.9,3.1c2.7,0,10.8-0.1,10.8-0.1s9.5,0.1,11.4,0.1
		c1.7,0,1.8,0.3,2.6,2.5c0.1,0.3,0.2,0.6,0.3,0.8c0.6,1.5,0.9,1.5,1.4,1.5c0.8,0,1.2,0,1.5,0c0.2,0,0.3,0,0.6,0
		c0.9,0,1.6-0.3,1.7-2.1c0-0.2,0-0.5,0-0.7c0.2-1.5,0.6-2.9,1.2-6C89.2,218.9,89.3,218.4,89.6,216.3L89.6,216.3z M84.7,227.1
		c-0.5,0-0.9-0.4-0.9-0.9c0-0.5,0.4-0.9,0.9-0.9c0.5,0,0.9,0.4,0.9,0.9C85.6,226.7,85.2,227.1,84.7,227.1z"/>
	<path class="st84" d="M97.3,204.9c0.1,0.6,0,1.9-1.4,1.9c-1.4,0.1-2,0-2.5,0c-0.5,0-0.5-0.1-0.8-0.3c-0.3-0.2-0.6-0.5-1-0.4
		c-0.3,0.1-0.5,0-0.6,0c0.2-0.2,0.3-0.5,0.2-1c0-0.1,0-0.1,0-0.2c0.3,0,1.3,0,1.3-0.6c0-0.5,0.4-0.7,1.3-0.6c0.9,0,1.6,0,2,0
		C96.5,203.7,97.2,204.4,97.3,204.9z"/>
	<path class="st86" d="M91.1,206.1c-0.2,0.1-0.4,0.2-0.6,0.2c-0.6,0.1-0.9,0.6-0.9,1l0,0c-0.1-0.6-0.1-1.1-0.2-1.6
		c0-0.4-0.2-1.1-0.4-1.9c0.1,0.3,0.5,0.2,1.1,0.2c1.2,0,1.1,0.3,1.2,0.9c0,0.1,0,0.1,0,0.2C91.4,205.6,91.3,205.9,91.1,206.1z"/>
	<g>
		<path class="st37" d="M53.8,221L53.8,221c-2.3-0.2-3.2-0.4-4.6-0.9c-0.6-0.2-1-0.4-1.3-0.7c0.4,0.4,0.9,0.8,1.7,1
			c1.3,0.4,2.3,0.6,4.3,0.8C53.9,221.2,53.8,221.1,53.8,221z"/>
		<path class="st37" d="M89.6,216.3c0,0-1,3.2-3,3.8c-1.4,0.4-2.4,0.7-4.6,0.8l0,0.1c-0.4,1.2-1.1,3.1-4,3.2
			c-3.1,0.1-5.9,0.4-10.1,0.4c-4.2,0-7-0.3-10.1-0.4c-1.2-0.1-2.1-0.4-2.6-0.9c0.6,0.7,1.5,1.2,3,1.3c3.1,0.1,5.9,0.4,10.1,0.4
			c4.2,0,6.9-0.3,10.1-0.4c2.9-0.1,3.6-2,4-3.2l0-0.1c2.3-0.1,3.2-0.4,4.6-0.8c1.5-0.5,1.8-1,2.3-2.3L89.6,216.3z"/>
		<path class="st37" d="M89.2,218.6c0.1-0.7,0.4-2,0.3-1.7"/>
	</g>
	<path class="st87" d="M89,203.8c0.2,0.8,0.4,1.5,0.4,1.9c0,0.5,0.1,1,0.2,1.6c0.2,2.3,0.6,5.5,0.2,8c-0.5,2.6-1.1,4.2-3.1,4.9
		c-1.4,0.4-2.4,0.7-4.6,0.8l0,0.1c-0.4,1.2-1.1,3.1-4,3.2c-3.1,0.1-5.9,0.4-10.1,0.4c-4.2,0-7-0.3-10.1-0.4c-2.9-0.1-3.6-2-4-3.2
		l0-0.1c-2.3-0.1-3.2-0.4-4.6-0.8c-2.1-0.6-2.1-1.6-3-3.8h0c0-0.3-0.1-0.6-0.1-1c-0.3-2.5-0.1-5.7,0.2-8.1c0.1-0.5,0.1-1,0.2-1.5
		c0-0.5,0.2-1.2,0.4-2.1c0.9-3.4,2.9-9.1,3.8-12c1.1-3.6,3-3.3,4.2-3.4c1.7,0,11-0.2,13.1-0.2c2.1,0,11.3,0.2,13.1,0.2
		c1.2,0,3.1-0.3,4.2,3.4C86.1,194.6,88.1,200.5,89,203.8z"/>
	<path class="st30" d="M89.6,207.3c-0.1-0.6-0.1-1.1-0.2-1.6c0-0.4-0.2-1.1-0.4-1.9c-0.9-3.4-2.9-9.2-3.8-12.1
		c-1.1-3.6-3-3.3-4.2-3.4c-1,0-7.4,0-7.4,0c-4,11.8,1.9,29.5-14.1,34c-0.6,0.1-1.5,0.9-2,1.9c0.1,0,0.2,0,0.3,0
		c3.1,0.1,5.9,0.4,10.1,0.4c4.2,0,6.9-0.3,10.1-0.4c2.9-0.1,3.6-2,4-3.2l0-0.1c2.3-0.1,3.2-0.4,4.6-0.8c2.1-0.6,2.7-2.3,3.1-4.9
		C90.2,212.8,89.8,209.6,89.6,207.3z"/>
	<circle class="st60" cx="84.7" cy="226.1" r="0.9"/>
	<circle class="st60" cx="51.1" cy="226.1" r="0.9"/>
	<path class="st86" d="M44.6,206c-0.2-0.2-0.3-0.5-0.2-1c0-0.1,0-0.1,0-0.2c0.1-0.7,0-0.9,1.2-0.9c0.5,0,1,0.2,1.1-0.3l0.1,0
		c-0.2,0.9-0.4,1.6-0.4,2.1c0,0.4-0.1,0.9-0.2,1.5l-0.1,0c0-0.3-0.3-0.8-0.9-1C45,206.2,44.7,206.1,44.6,206z"/>
	<path class="st84" d="M44.6,206c0,0-0.3,0-0.6-0.1c-0.3-0.1-0.7,0.2-1,0.4c-0.3,0.2-0.2,0.3-0.8,0.3c-0.5,0-1.1,0.1-2.5,0
		c-1.4-0.1-1.5-1.4-1.4-1.9c0.1-0.6,0.8-1.2,1.5-1.2c0.4,0,1.1,0,2,0c0.9,0,1.3,0.2,1.3,0.6c0,0.6,0.9,0.6,1.3,0.6
		c0,0.1,0,0.1,0,0.2C44.3,205.5,44.4,205.8,44.6,206z"/>
	<g>
		<path class="st88" d="M87.4,201.5c0.5,1.6,0.2,3.3-2.6,3.5c-2.8,0.2-12.9,0.7-16.9,0.7c-4.1,0-14.2-0.4-16.9-0.7
			c-2.8-0.2-3-1.9-2.6-3.5c0.5-1.9,2.8-8.2,3.6-10.2c0.8-2,1.9-2.1,3.2-2.2c1.3-0.1,10.6-0.4,12.8-0.4c2.2,0,11.5,0.3,12.8,0.4
			c1.3,0.1,2.4,0.2,3.2,2.2C84.6,193.4,86.9,199.7,87.4,201.5z"/>
		<path class="st84" d="M87.4,201.5c0,0,0.1,0.4,0.2,1.1c0,0.2,0,0.4-0.1,0.6c-0.1,0.2-0.1,0.5-0.3,0.7c-0.3,0.5-0.9,0.8-1.5,1
			c-0.3,0.1-0.7,0.1-1.1,0.2c-0.4,0-0.8,0-1.2,0.1c-0.8,0-1.7,0.1-2.7,0.1c-1.9,0.1-4,0.2-6.4,0.3c-2.3,0-4.9,0.2-7.6,0.2
			c-2.7-0.1-5.5-0.2-8.4-0.2c-1.5-0.1-2.9-0.2-4.5-0.2c-0.8,0-1.5-0.1-2.3-0.1c-0.4,0-0.8,0-1.1-0.1L50,205l-0.6-0.2
			c-0.7-0.3-1.3-1-1.3-1.8c-0.1-0.8,0.2-1.6,0.4-2.3c0.5-1.5,1-3,1.5-4.4c0.5-1.5,1.1-2.9,1.6-4.4c0.3-0.7,0.6-1.5,1.1-2.1
			c0.6-0.6,1.5-0.7,2.2-0.8c3.1-0.1,6.1-0.2,9-0.3c1.5,0,2.9-0.1,4.3-0.1c1.4,0,2.8,0.1,4.1,0.1c2.7,0.1,5.2,0.2,7.6,0.3
			c0.6,0,1.2,0.1,1.7,0.2c0.6,0.1,1.1,0.4,1.4,0.9c0.7,0.9,0.9,1.9,1.2,2.8c0.6,1.8,1.2,3.3,1.6,4.6
			C86.9,200.1,87.4,201.5,87.4,201.5z M87.4,201.5c0,0-0.5-1.5-1.4-4.1c-0.4-1.3-1-2.8-1.7-4.6c-0.4-0.9-0.6-1.9-1.2-2.7
			c-0.7-0.9-1.9-0.9-3-1c-2.3-0.1-4.9-0.1-7.6-0.2c-1.3,0-2.7-0.1-4.1-0.1c-1.4,0-2.8,0.1-4.3,0.1c-2.9,0.1-5.9,0.2-9,0.3
			c-0.8,0.1-1.5,0.2-2.1,0.7c-0.5,0.5-0.8,1.3-1.1,2c-0.5,1.5-1.1,2.9-1.6,4.4c-0.5,1.5-1,3-1.5,4.4c-0.3,0.7-0.5,1.5-0.4,2.2
			c0,0.8,0.5,1.4,1.2,1.7l0.5,0.2l0.6,0.1c0.4,0.1,0.7,0.1,1.1,0.1c0.8,0,1.5,0.1,2.3,0.1c1.5,0.1,3,0.2,4.4,0.2
			c2.9,0.1,5.8,0.2,8.4,0.3c2.7,0,5.2-0.1,7.6-0.1c2.3,0,4.5-0.2,6.4-0.3c1,0,1.8-0.1,2.7-0.1c0.4,0,0.8,0,1.2-0.1
			c0.4,0,0.7-0.1,1.1-0.2c0.6-0.2,1.2-0.5,1.5-1c0.2-0.2,0.2-0.5,0.3-0.7c0-0.2,0.1-0.4,0.1-0.6C87.5,201.9,87.4,201.5,87.4,201.5z"
			/>
	</g>
	<g>
		<path class="st89" d="M84.8,205.1c2.8-0.2,3-1.9,2.6-3.5c-0.5-1.9-2.8-8.2-3.6-10.2c-0.8-2-1.9-2.1-3.2-2.2l-1.6,0
			c1.3,0.1,2.5,0.2,3.3,2.3c0.8,2,3,8.3,3.6,10.2c0.5,1.6,0.1,3.3-2.7,3.6L84.8,205.1z"/>
	</g>
	<g>
		<path class="st37" d="M81.1,208.1c0.4,0,0.7,0.3,0.6,0.7l-1.1,10c0,0.4-0.4,0.7-0.8,0.7H68.9c-0.4,0-1,0-1.4,0H56.6
			c-0.4,0-0.7-0.3-0.8-0.7l-1.1-10c0-0.4,0.2-0.7,0.6-0.7h12.2c0.4,0,1,0,1.4,0H81.1z"/>
	</g>
	<g>
		<path class="st38" d="M80.8,207.8c0.4,0,0.7,0.3,0.6,0.7l-1.1,10c0,0.4-0.4,0.7-0.8,0.7H68.6c-0.4,0-1,0-1.4,0H56.2
			c-0.4,0-0.7-0.3-0.8-0.7l-1.1-10c0-0.4,0.2-0.7,0.6-0.7h12.2c0.4,0,1,0,1.4,0H80.8z"/>
		<g>
			<path class="st84" d="M80.8,207.8c0,0,0.1,0,0.2,0c0.1,0,0.3,0.2,0.4,0.4c0,0.5-0.1,1.3-0.2,2.3c-0.1,1-0.2,2.2-0.4,3.6
				c-0.1,0.7-0.2,1.4-0.2,2.2c0,0.4-0.1,0.8-0.1,1.2c0,0.2,0,0.4-0.1,0.6c0,0.2,0,0.4-0.2,0.6c-0.1,0.1-0.1,0.2-0.2,0.2
				c-0.1,0.1-0.2,0.1-0.3,0.1c-0.2,0-0.4,0-0.7,0c-0.4,0-0.9,0-1.4,0c-0.9,0-1.9,0-2.9,0c-2,0-4.1,0-6.2,0c-2.2,0-4.4,0-6.6,0
				c-1.1,0-2.3,0-3.4,0l-1.7,0c-0.3,0-0.6,0-0.9-0.1c-0.3-0.1-0.5-0.5-0.5-0.8c-0.2-2.3-0.5-4.6-0.7-6.8c-0.1-1.1-0.3-2.2-0.3-3.4
				c0.1-0.4,0.4-0.5,0.7-0.5l0.8,0c0.5,0,1.1,0,1.6,0c4.3,0,8.3,0,11.8,0C76.2,207.8,80.8,207.8,80.8,207.8z M80.8,207.9
				c0,0-4.6,0-11.5,0.1c-3.4,0-7.5,0.1-11.8,0c-0.5,0-1.1,0-1.6,0l-0.8,0c-0.2,0-0.5,0.1-0.5,0.3c0,1.1,0.2,2.2,0.3,3.3
				c0.2,2.2,0.5,4.5,0.7,6.8c0,0.3,0.2,0.5,0.4,0.6c0.2,0.1,0.5,0.1,0.8,0.1l1.7,0c1.1,0,2.3,0,3.4,0c2.3,0,4.5,0,6.6,0
				c2.2,0,4.2,0,6.2,0c1,0,1.9,0,2.9,0c0.5,0,0.9,0,1.4,0c0.4,0,0.9,0,1.2-0.3c0.2-0.4,0.2-0.8,0.2-1.2c0-0.4,0.1-0.8,0.1-1.2
				c0.1-0.8,0.2-1.5,0.2-2.2c0.2-1.4,0.3-2.6,0.4-3.6c0.1-1,0.2-1.8,0.2-2.3C81.2,207.8,80.7,207.9,80.8,207.9z"/>
		</g>
	</g>
	<g>
		<path class="st90" d="M50.1,217.6c-2.1,0-2.7-2.7-2.7-6c0-1.2,0.3-2.6,0.3-2.6s0.9,0.3,1.9,0.7c0.8,0.4,1,0.9,1.4,2.6
			c0.3,1.5,0.5,3.1,0.8,5.3C51.8,217.5,51.1,217.6,50.1,217.6z"/>
		<path class="st60" d="M47.7,211.5c0-1,0.2-2.2,0.3-2.5c-0.2-0.1-0.3-0.1-0.3-0.1s-0.3,1.5-0.3,2.6c0,3.4,0.6,6,2.7,6
			c0.1,0,0.2,0,0.3,0C48.3,217.5,47.7,214.9,47.7,211.5z"/>
		<circle class="st91" cx="50.1" cy="215.4" r="1.2"/>
		<circle class="st91" cx="49.3" cy="212.2" r="1.3"/>
		<path class="st89" d="M49,215.4c0-0.6,0.5-1.1,1.1-1.2c0,0-0.1,0-0.1,0c-0.7,0-1.2,0.5-1.2,1.2c0,0.7,0.5,1.2,1.2,1.2
			c0,0,0.1,0,0.1,0C49.5,216.5,49,216,49,215.4z"/>
		<path class="st89" d="M48.2,212.2c0-0.7,0.5-1.2,1.2-1.3c-0.1,0-0.1,0-0.2,0c-0.7,0-1.3,0.6-1.3,1.3c0,0.7,0.6,1.3,1.3,1.3
			c0.1,0,0.1,0,0.2,0C48.7,213.4,48.2,212.8,48.2,212.2z"/>
	</g>
	<g>
		<path class="st90" d="M83.9,217.5c0.3-2.2,0.5-3.7,0.8-5.3c0.3-1.7,0.6-2.3,1.4-2.6c1-0.5,1.9-0.7,1.9-0.7s0.3,1.5,0.3,2.6
			c0,3.4-0.6,6-2.7,6C84.7,217.6,83.9,217.5,83.9,217.5z"/>
		<path class="st60" d="M88.1,211.5c0-1-0.2-2.2-0.3-2.5c0.2-0.1,0.3-0.1,0.3-0.1s0.3,1.5,0.3,2.6c0,3.4-0.6,6-2.7,6
			c-0.1,0-0.2,0-0.3,0C87.5,217.5,88,214.9,88.1,211.5z"/>
		<circle class="st91" cx="85.7" cy="215.4" r="1.2"/>
		<circle class="st91" cx="86.4" cy="212.2" r="1.3"/>
		<path class="st89" d="M86.7,215.4c0-0.6-0.5-1.1-1.1-1.2c0,0,0.1,0,0.1,0c0.7,0,1.2,0.5,1.2,1.2c0,0.7-0.5,1.2-1.2,1.2
			c0,0-0.1,0-0.1,0C86.3,216.5,86.7,216,86.7,215.4z"/>
		<path class="st89" d="M87.6,212.2c0-0.7-0.5-1.2-1.2-1.3c0.1,0,0.1,0,0.2,0c0.7,0,1.3,0.6,1.3,1.3c0,0.7-0.6,1.3-1.3,1.3
			c-0.1,0-0.1,0-0.2,0C87,213.4,87.6,212.8,87.6,212.2z"/>
	</g>
	<g>
		<path class="st92" d="M69.5,222.2c-0.1,0-0.3,0-0.4,0c-0.3,0-0.4-0.2-0.4-0.5c0-0.3,0.3-0.6,0.6-0.6c0.2,0,0.3,0,0.5,0
			c0,0,0.1,0,0.1-0.1c0-0.1,0.1-0.3,0.1-0.4c0-0.1,0-0.1,0.1-0.1c0.1,0,0.1,0,0.2,0c0.1,0,0.1,0,0.1,0.1c0,0.2-0.1,0.5-0.1,0.7
			c0,0.1-0.1,0.1-0.1,0.1c-0.2,0-0.5,0-0.7,0c-0.1,0-0.2,0.1-0.3,0.2c0,0.1,0,0.2,0.2,0.2c0.2,0,0.4,0,0.7,0c0,0,0,0,0.1,0
			c0.1,0,0.1,0,0.1,0.1c-0.1,0.2,0,0.2-0.3,0.2C69.7,222.2,69.6,222.2,69.5,222.2L69.5,222.2z"/>
		<path class="st92" d="M68,222.2c-0.1,0-0.3,0-0.4,0c-0.3,0-0.4-0.2-0.4-0.5c0-0.3,0.3-0.6,0.6-0.6c0.2,0,0.3,0,0.5,0
			c0,0,0.1,0,0.1-0.1c0-0.1,0.1-0.3,0.1-0.4c0-0.1,0-0.1,0.1-0.1c0.1,0,0.1,0,0.2,0c0.1,0,0.1,0,0.1,0.1c0,0.2-0.1,0.5-0.1,0.7
			c0,0.1-0.1,0.1-0.1,0.1c-0.2,0-0.5,0-0.7,0c-0.1,0-0.2,0.1-0.3,0.2c0,0.1,0,0.2,0.2,0.2c0.2,0,0.4,0,0.7,0c0,0,0,0,0.1,0
			c0.1,0,0.1,0,0.1,0.1c-0.1,0.2,0,0.2-0.3,0.2C68.1,222.2,68,222.2,68,222.2L68,222.2z"/>
		<path class="st92" d="M64.4,221.1c0.2,0,0.3,0,0.5,0c0,0,0.1,0,0.1,0c0.3,0,0.5,0.3,0.3,0.6c-0.1,0.3-0.3,0.4-0.6,0.4
			c-0.3,0-0.5,0-0.8,0c-0.1,0-0.1,0-0.1-0.1c0,0,0,0,0-0.1c0-0.2,0-0.2,0.2-0.2c0.2,0,0.4,0,0.6,0c0.2,0,0.2-0.1,0.3-0.2
			c0-0.1,0-0.2-0.2-0.2c-0.3,0-0.5,0-0.8,0c-0.1,0-0.1,0-0.1-0.1c0-0.2,0.1-0.4,0.1-0.6c0-0.1,0.1-0.1,0.1-0.1c0.2,0,0.2,0,0.2,0.2
			C64.5,220.9,64.5,221,64.4,221.1z"/>
		<path class="st92" d="M71.3,222.2c-0.2,0-0.3,0-0.5,0c-0.3,0-0.5-0.2-0.4-0.5c0-0.1,0.1-0.3,0.1-0.4c0-0.1,0-0.1,0.1-0.1
			c0,0,0.1,0,0.1,0c0.1,0,0.1,0,0.1,0.1c0,0.1-0.1,0.3-0.1,0.4c0,0.1,0,0.2,0.2,0.2c0.1,0,0.3,0,0.4,0c0.1,0,0.1,0,0.1-0.1
			c0-0.2,0.1-0.4,0.1-0.6c0-0.1,0.1-0.1,0.1-0.1c0,0,0.1,0,0.1,0c0.1,0,0.1,0,0.1,0.1c-0.1,0.5-0.2,0.9-0.3,1.4c0,0.1,0,0.1-0.1,0.1
			c-0.1,0-0.1,0-0.2,0c-0.1,0-0.1,0-0.1-0.1C71.3,222.5,71.3,222.4,71.3,222.2C71.3,222.2,71.3,222.2,71.3,222.2z"/>
		<path class="st92" d="M66.2,222.2c0,0-0.1,0-0.1,0c-0.3,0-0.5-0.2-0.4-0.5c0-0.2,0.1-0.3,0.1-0.5c0-0.1,0-0.1,0.1-0.1
			c0.1,0,0.1,0,0.2,0c0.1,0,0.1,0,0.1,0.1c0,0.1-0.1,0.3-0.1,0.4c0,0.2,0,0.2,0.2,0.2c0.1,0,0.2,0,0.3,0c0.1,0,0.2-0.1,0.3-0.2
			c0-0.1,0.1-0.3,0.1-0.4c0-0.1,0-0.1,0.1-0.1c0.3,0,0.2,0,0.2,0.2c0,0.1,0,0.2-0.1,0.3c-0.1,0.3-0.3,0.5-0.6,0.5
			C66.3,222.2,66.2,222.2,66.2,222.2z"/>
	</g>
	<g>
		<path class="st93" d="M69.5,222.2c-0.1,0-0.3,0-0.4,0c-0.3,0-0.4-0.2-0.4-0.5c0-0.3,0.3-0.6,0.7-0.6c0.2,0,0.3,0,0.5,0
			c0,0,0.1,0,0.1-0.1c0-0.1,0.1-0.3,0.1-0.4c0-0.1,0-0.1,0.1-0.1c0.1,0,0.1,0,0.2,0c0.1,0,0.1,0,0.1,0.1c0,0.2-0.1,0.5-0.1,0.7
			c0,0.1-0.1,0.1-0.1,0.1c-0.2,0-0.5,0-0.7,0c-0.1,0-0.2,0.1-0.3,0.2c0,0.1,0,0.2,0.2,0.2c0.2,0,0.4,0,0.7,0c0,0,0,0,0.1,0
			c0.1,0,0.1,0,0.1,0.1c-0.1,0.2,0,0.2-0.3,0.2C69.6,222.2,69.6,222.2,69.5,222.2L69.5,222.2z"/>
		<path class="st93" d="M67.9,222.2c-0.1,0-0.3,0-0.4,0c-0.3,0-0.4-0.2-0.4-0.5c0-0.3,0.3-0.6,0.6-0.6c0.2,0,0.3,0,0.5,0
			c0,0,0.1,0,0.1-0.1c0-0.1,0.1-0.3,0.1-0.4c0-0.1,0-0.1,0.1-0.1c0.1,0,0.1,0,0.2,0c0.1,0,0.1,0,0.1,0.1c0,0.2-0.1,0.5-0.1,0.7
			c0,0.1-0.1,0.1-0.1,0.1c-0.2,0-0.5,0-0.7,0c-0.1,0-0.2,0.1-0.3,0.2c0,0.1,0,0.2,0.2,0.2c0.2,0,0.4,0,0.7,0c0,0,0,0,0.1,0
			c0.1,0,0.1,0,0.1,0.1c-0.1,0.2,0,0.2-0.3,0.2C68.1,222.2,68,222.2,67.9,222.2L67.9,222.2z"/>
		<path class="st93" d="M64.4,221.1c0.2,0,0.3,0,0.5,0c0,0,0.1,0,0.1,0c0.3,0,0.5,0.3,0.3,0.6c-0.1,0.3-0.3,0.4-0.6,0.4
			c-0.3,0-0.5,0-0.8,0c-0.1,0-0.1,0-0.1-0.1c0,0,0,0,0-0.1c0-0.2,0-0.2,0.2-0.2c0.2,0,0.4,0,0.6,0c0.2,0,0.2-0.1,0.3-0.2
			c0-0.1,0-0.2-0.2-0.2c-0.2,0-0.5,0-0.8,0c-0.1,0-0.1,0-0.1-0.1c0-0.2,0.1-0.4,0.1-0.6c0-0.1,0.1-0.1,0.1-0.1c0.2,0,0.2,0,0.2,0.2
			C64.4,220.9,64.4,221,64.4,221.1z"/>
		<path class="st93" d="M71.2,222.2c-0.2,0-0.3,0-0.5,0c-0.3,0-0.5-0.2-0.4-0.5c0-0.1,0.1-0.3,0.1-0.4c0-0.1,0-0.1,0.1-0.1
			c0,0,0.1,0,0.1,0c0.1,0,0.1,0,0.1,0.1c0,0.1-0.1,0.3-0.1,0.4c0,0.1,0,0.2,0.2,0.2c0.1,0,0.3,0,0.4,0c0.1,0,0.1,0,0.1-0.1
			c0-0.2,0.1-0.4,0.1-0.6c0-0.1,0.1-0.1,0.1-0.1c0,0,0.1,0,0.1,0c0.1,0,0.1,0,0.1,0.1c-0.1,0.5-0.2,0.9-0.3,1.4c0,0.1,0,0.1-0.1,0.1
			c-0.1,0-0.1,0-0.2,0c-0.1,0-0.1,0-0.1-0.1C71.2,222.5,71.2,222.4,71.2,222.2C71.2,222.2,71.2,222.2,71.2,222.2z"/>
		<path class="st93" d="M66.1,222.2c0,0-0.1,0-0.1,0c-0.3,0-0.5-0.2-0.4-0.5c0-0.2,0.1-0.3,0.1-0.5c0-0.1,0-0.1,0.1-0.1
			c0.1,0,0.1,0,0.2,0c0.1,0,0.1,0,0.1,0.1c0,0.1-0.1,0.3-0.1,0.4c0,0.2,0,0.2,0.2,0.2c0.1,0,0.2,0,0.3,0c0.1,0,0.2-0.1,0.3-0.2
			c0-0.1,0.1-0.3,0.1-0.4c0-0.1,0-0.1,0.1-0.1c0.3,0,0.2,0,0.2,0.2c0,0.1,0,0.2-0.1,0.3c-0.1,0.3-0.3,0.5-0.6,0.5
			C66.2,222.2,66.1,222.2,66.1,222.2z"/>
	</g>
	<path class="st30" d="M80.7,207.8l-9.8,0.1c0.1,1.2-0.5,2.3-1,3.1c-1.9,2.9-3.3,5.2-4.9,8.1l14.5,0.1c0.4,0,0.7-0.3,0.8-0.7l1.1-10
		C81.4,208.2,81.1,207.8,80.7,207.8z"/>
</g>
<rect x="138.4" y="235.1" class="st94" width="115.8" height="9.1"/>
<rect x="254.2" y="235.1" class="st69" width="120.6" height="9.1"/>
<rect y="235.1" class="st60" width="101.9" height="9.1"/>
<rect x="101.9" y="235.1" class="st40" width="36.5" height="9.1"/>
</svg>
