<svg id="Cyclists" xmlns="http://www.w3.org/2000/svg" xmlns:xlink="http://www.w3.org/1999/xlink" viewBox="0 0 276.95 313.4"><defs><style>.cls-1{fill:none;}.cls-2{fill:#231f20;}.cls-3{fill:#4f201a;}.cls-4{fill:#ebe6de;}.cls-17,.cls-5{fill:#b0ada7;}.cls-6{fill:#484749;}.cls-16,.cls-6,.cls-9{stroke:#919192;}.cls-12,.cls-13,.cls-16,.cls-17,.cls-6,.cls-9{stroke-miterlimit:10;}.cls-6,.cls-9{stroke-width:0.32px;}.cls-7{fill:#515e69;}.cls-8{fill:url(#_10_lpi_10_);}.cls-16,.cls-9{fill:#3b2c3f;}.cls-10,.cls-12,.cls-13{fill:#ccd9e8;}.cls-11{fill:#d6e1ed;}.cls-12,.cls-13{stroke:#3b2c3f;}.cls-12{stroke-width:0.63px;}.cls-13{stroke-width:1.26px;}.cls-14{fill:url(#_10_lpi_10_3);}.cls-15{fill:#3b1814;}.cls-16{stroke-width:0.32px;}.cls-17{stroke:#454749;stroke-width:0.95px;}.cls-18{fill:#6a555d;}.cls-19{fill:#88777d;}.cls-20{fill:url(#linear-gradient);}.cls-21{fill:url(#_10_lpi_10_5);}.cls-22{fill:url(#_10_lpi_10_7);}.cls-23{fill:url(#linear-gradient-2);}</style><pattern id="_10_lpi_10_" data-name="10 lpi 10%" width="72" height="72" patternTransform="translate(78.61 -22.11) rotate(-45) scale(0.63)" patternUnits="userSpaceOnUse" viewBox="0 0 72 72"><rect class="cls-1" width="72" height="72"/><path class="cls-2" d="M71.75,68.4l11.33-.08L108,68.25l24.92,0.07,11.33,0.08-11.33.08L108,68.55l-24.92-.07Z"/><path class="cls-2" d="M71.75,54l11.33-.08L108,53.85l24.92,0.07L144.25,54l-11.33.08L108,54.15l-24.92-.07Z"/><path class="cls-2" d="M71.75,39.6l11.33-.08L108,39.45l24.92,0.07,11.33,0.08-11.33.08L108,39.75l-24.92-.07Z"/><path class="cls-2" d="M71.75,25.2l11.33-.08L108,25.05l24.92,0.07,11.33,0.08-11.33.08L108,25.35l-24.92-.07Z"/><path class="cls-2" d="M71.75,10.8l11.33-.08L108,10.65l24.92,0.07,11.33,0.08-11.33.08L108,10.95l-24.92-.07Z"/><path class="cls-2" d="M71.75,61.2l11.33-.08L108,61.05l24.92,0.07,11.33,0.08-11.33.08L108,61.35l-24.92-.07Z"/><path class="cls-2" d="M71.75,46.8l11.33-.08L108,46.65l24.92,0.07,11.33,0.08-11.33.08L108,46.95l-24.92-.07Z"/><path class="cls-2" d="M71.75,32.4l11.33-.08L108,32.25l24.92,0.07,11.33,0.08-11.33.08L108,32.55l-24.92-.07Z"/><path class="cls-2" d="M71.75,18l11.33-.08L108,17.85l24.92,0.07L144.25,18l-11.33.08L108,18.15l-24.92-.07Z"/><path class="cls-2" d="M71.75,3.6l11.33-.08L108,3.45l24.92,0.07L144.25,3.6l-11.33.08L108,3.75,83.08,3.68Z"/><path class="cls-2" d="M-0.25,68.4l11.33-.08L36,68.25l24.92,0.07L72.25,68.4l-11.33.08L36,68.55l-24.92-.07Z"/><path class="cls-2" d="M-0.25,54l11.33-.08L36,53.85l24.92,0.07L72.25,54l-11.33.08L36,54.15l-24.92-.07Z"/><path class="cls-2" d="M-0.25,39.6l11.33-.08L36,39.45l24.92,0.07L72.25,39.6l-11.33.08L36,39.75l-24.92-.07Z"/><path class="cls-2" d="M-0.25,25.2l11.33-.08L36,25.05l24.92,0.07L72.25,25.2l-11.33.08L36,25.35l-24.92-.07Z"/><path class="cls-2" d="M-0.25,10.8l11.33-.08L36,10.65l24.92,0.07L72.25,10.8l-11.33.08L36,10.95l-24.92-.07Z"/><path class="cls-2" d="M-0.25,61.2l11.33-.08L36,61.05l24.92,0.07L72.25,61.2l-11.33.08L36,61.35l-24.92-.07Z"/><path class="cls-2" d="M-0.25,46.8l11.33-.08L36,46.65l24.92,0.07L72.25,46.8l-11.33.08L36,46.95l-24.92-.07Z"/><path class="cls-2" d="M-0.25,32.4l11.33-.08L36,32.25l24.92,0.07L72.25,32.4l-11.33.08L36,32.55l-24.92-.07Z"/><path class="cls-2" d="M-0.25,18l11.33-.08L36,17.85l24.92,0.07L72.25,18l-11.33.08L36,18.15l-24.92-.07Z"/><path class="cls-2" d="M-0.25,3.6l11.33-.08L36,3.45,60.92,3.52,72.25,3.6l-11.33.08L36,3.75,11.08,3.68Z"/><path class="cls-2" d="M-72.25,68.4l11.33-.08L-36,68.25l24.92,0.07L0.25,68.4l-11.33.08L-36,68.55l-24.92-.07Z"/><path class="cls-2" d="M-72.25,54l11.33-.08L-36,53.85l24.92,0.07L0.25,54l-11.33.08L-36,54.15l-24.92-.07Z"/><path class="cls-2" d="M-72.25,39.6l11.33-.08L-36,39.45l24.92,0.07L0.25,39.6l-11.33.08L-36,39.75l-24.92-.07Z"/><path class="cls-2" d="M-72.25,25.2l11.33-.08L-36,25.05l24.92,0.07L0.25,25.2l-11.33.08L-36,25.35l-24.92-.07Z"/><path class="cls-2" d="M-72.25,10.8l11.33-.08L-36,10.65l24.92,0.07L0.25,10.8l-11.33.08L-36,10.95l-24.92-.07Z"/><path class="cls-2" d="M-72.25,61.2l11.33-.08L-36,61.05l24.92,0.07L0.25,61.2l-11.33.08L-36,61.35l-24.92-.07Z"/><path class="cls-2" d="M-72.25,46.8l11.33-.08L-36,46.65l24.92,0.07L0.25,46.8l-11.33.08L-36,46.95l-24.92-.07Z"/><path class="cls-2" d="M-72.25,32.4l11.33-.08L-36,32.25l24.92,0.07L0.25,32.4l-11.33.08L-36,32.55l-24.92-.07Z"/><path class="cls-2" d="M-72.25,18l11.33-.08L-36,17.85l24.92,0.07L0.25,18l-11.33.08L-36,18.15l-24.92-.07Z"/><path class="cls-2" d="M-72.25,3.6l11.33-.08L-36,3.45l24.92,0.07L0.25,3.6l-11.33.08L-36,3.75l-24.92-.07Z"/></pattern><pattern id="_10_lpi_10_3" data-name="10 lpi 10%" width="72" height="72" patternTransform="translate(27.38 -129.58) rotate(-135) scale(0.69)" patternUnits="userSpaceOnUse" viewBox="0 0 72 72"><rect class="cls-1" width="72" height="72"/><path class="cls-2" d="M71.75,68.4l11.33-.08L108,68.25l24.92,0.07,11.33,0.08-11.33.08L108,68.55l-24.92-.07Z"/><path class="cls-2" d="M71.75,54l11.33-.08L108,53.85l24.92,0.07L144.25,54l-11.33.08L108,54.15l-24.92-.07Z"/><path class="cls-2" d="M71.75,39.6l11.33-.08L108,39.45l24.92,0.07,11.33,0.08-11.33.08L108,39.75l-24.92-.07Z"/><path class="cls-2" d="M71.75,25.2l11.33-.08L108,25.05l24.92,0.07,11.33,0.08-11.33.08L108,25.35l-24.92-.07Z"/><path class="cls-2" d="M71.75,10.8l11.33-.08L108,10.65l24.92,0.07,11.33,0.08-11.33.08L108,10.95l-24.92-.07Z"/><path class="cls-2" d="M71.75,61.2l11.33-.08L108,61.05l24.92,0.07,11.33,0.08-11.33.08L108,61.35l-24.92-.07Z"/><path class="cls-2" d="M71.75,46.8l11.33-.08L108,46.65l24.92,0.07,11.33,0.08-11.33.08L108,46.95l-24.92-.07Z"/><path class="cls-2" d="M71.75,32.4l11.33-.08L108,32.25l24.92,0.07,11.33,0.08-11.33.08L108,32.55l-24.92-.07Z"/><path class="cls-2" d="M71.75,18l11.33-.08L108,17.85l24.92,0.07L144.25,18l-11.33.08L108,18.15l-24.92-.07Z"/><path class="cls-2" d="M71.75,3.6l11.33-.08L108,3.45l24.92,0.07L144.25,3.6l-11.33.08L108,3.75,83.08,3.68Z"/><path class="cls-2" d="M-0.25,68.4l11.33-.08L36,68.25l24.92,0.07L72.25,68.4l-11.33.08L36,68.55l-24.92-.07Z"/><path class="cls-2" d="M-0.25,54l11.33-.08L36,53.85l24.92,0.07L72.25,54l-11.33.08L36,54.15l-24.92-.07Z"/><path class="cls-2" d="M-0.25,39.6l11.33-.08L36,39.45l24.92,0.07L72.25,39.6l-11.33.08L36,39.75l-24.92-.07Z"/><path class="cls-2" d="M-0.25,25.2l11.33-.08L36,25.05l24.92,0.07L72.25,25.2l-11.33.08L36,25.35l-24.92-.07Z"/><path class="cls-2" d="M-0.25,10.8l11.33-.08L36,10.65l24.92,0.07L72.25,10.8l-11.33.08L36,10.95l-24.92-.07Z"/><path class="cls-2" d="M-0.25,61.2l11.33-.08L36,61.05l24.92,0.07L72.25,61.2l-11.33.08L36,61.35l-24.92-.07Z"/><path class="cls-2" d="M-0.25,46.8l11.33-.08L36,46.65l24.92,0.07L72.25,46.8l-11.33.08L36,46.95l-24.92-.07Z"/><path class="cls-2" d="M-0.25,32.4l11.33-.08L36,32.25l24.92,0.07L72.25,32.4l-11.33.08L36,32.55l-24.92-.07Z"/><path class="cls-2" d="M-0.25,18l11.33-.08L36,17.85l24.92,0.07L72.25,18l-11.33.08L36,18.15l-24.92-.07Z"/><path class="cls-2" d="M-0.25,3.6l11.33-.08L36,3.45,60.92,3.52,72.25,3.6l-11.33.08L36,3.75,11.08,3.68Z"/><path class="cls-2" d="M-72.25,68.4l11.33-.08L-36,68.25l24.92,0.07L0.25,68.4l-11.33.08L-36,68.55l-24.92-.07Z"/><path class="cls-2" d="M-72.25,54l11.33-.08L-36,53.85l24.92,0.07L0.25,54l-11.33.08L-36,54.15l-24.92-.07Z"/><path class="cls-2" d="M-72.25,39.6l11.33-.08L-36,39.45l24.92,0.07L0.25,39.6l-11.33.08L-36,39.75l-24.92-.07Z"/><path class="cls-2" d="M-72.25,25.2l11.33-.08L-36,25.05l24.92,0.07L0.25,25.2l-11.33.08L-36,25.35l-24.92-.07Z"/><path class="cls-2" d="M-72.25,10.8l11.33-.08L-36,10.65l24.92,0.07L0.25,10.8l-11.33.08L-36,10.95l-24.92-.07Z"/><path class="cls-2" d="M-72.25,61.2l11.33-.08L-36,61.05l24.92,0.07L0.25,61.2l-11.33.08L-36,61.35l-24.92-.07Z"/><path class="cls-2" d="M-72.25,46.8l11.33-.08L-36,46.65l24.92,0.07L0.25,46.8l-11.33.08L-36,46.95l-24.92-.07Z"/><path class="cls-2" d="M-72.25,32.4l11.33-.08L-36,32.25l24.92,0.07L0.25,32.4l-11.33.08L-36,32.55l-24.92-.07Z"/><path class="cls-2" d="M-72.25,18l11.33-.08L-36,17.85l24.92,0.07L0.25,18l-11.33.08L-36,18.15l-24.92-.07Z"/><path class="cls-2" d="M-72.25,3.6l11.33-.08L-36,3.45l24.92,0.07L0.25,3.6l-11.33.08L-36,3.75l-24.92-.07Z"/></pattern><linearGradient id="linear-gradient" x1="71.23" y1="258.78" x2="71.23" y2="261.83" gradientUnits="userSpaceOnUse"><stop offset="0" stop-color="#88777d"/><stop offset="1" stop-color="#6a555d"/></linearGradient><pattern id="_10_lpi_10_5" data-name="10 lpi 10%" width="72" height="72" patternTransform="matrix(-0.45, -0.45, -0.45, 0.45, 35.99, -22.11)" patternUnits="userSpaceOnUse" viewBox="0 0 72 72"><rect class="cls-1" width="72" height="72"/><path class="cls-2" d="M71.75,68.4l11.33-.08L108,68.25l24.92,0.07,11.33,0.08-11.33.08L108,68.55l-24.92-.07Z"/><path class="cls-2" d="M71.75,54l11.33-.08L108,53.85l24.92,0.07L144.25,54l-11.33.08L108,54.15l-24.92-.07Z"/><path class="cls-2" d="M71.75,39.6l11.33-.08L108,39.45l24.92,0.07,11.33,0.08-11.33.08L108,39.75l-24.92-.07Z"/><path class="cls-2" d="M71.75,25.2l11.33-.08L108,25.05l24.92,0.07,11.33,0.08-11.33.08L108,25.35l-24.92-.07Z"/><path class="cls-2" d="M71.75,10.8l11.33-.08L108,10.65l24.92,0.07,11.33,0.08-11.33.08L108,10.95l-24.92-.07Z"/><path class="cls-2" d="M71.75,61.2l11.33-.08L108,61.05l24.92,0.07,11.33,0.08-11.33.08L108,61.35l-24.92-.07Z"/><path class="cls-2" d="M71.75,46.8l11.33-.08L108,46.65l24.92,0.07,11.33,0.08-11.33.08L108,46.95l-24.92-.07Z"/><path class="cls-2" d="M71.75,32.4l11.33-.08L108,32.25l24.92,0.07,11.33,0.08-11.33.08L108,32.55l-24.92-.07Z"/><path class="cls-2" d="M71.75,18l11.33-.08L108,17.85l24.92,0.07L144.25,18l-11.33.08L108,18.15l-24.92-.07Z"/><path class="cls-2" d="M71.75,3.6l11.33-.08L108,3.45l24.92,0.07L144.25,3.6l-11.33.08L108,3.75,83.08,3.68Z"/><path class="cls-2" d="M-0.25,68.4l11.33-.08L36,68.25l24.92,0.07L72.25,68.4l-11.33.08L36,68.55l-24.92-.07Z"/><path class="cls-2" d="M-0.25,54l11.33-.08L36,53.85l24.92,0.07L72.25,54l-11.33.08L36,54.15l-24.92-.07Z"/><path class="cls-2" d="M-0.25,39.6l11.33-.08L36,39.45l24.92,0.07L72.25,39.6l-11.33.08L36,39.75l-24.92-.07Z"/><path class="cls-2" d="M-0.25,25.2l11.33-.08L36,25.05l24.92,0.07L72.25,25.2l-11.33.08L36,25.35l-24.92-.07Z"/><path class="cls-2" d="M-0.25,10.8l11.33-.08L36,10.65l24.92,0.07L72.25,10.8l-11.33.08L36,10.95l-24.92-.07Z"/><path class="cls-2" d="M-0.25,61.2l11.33-.08L36,61.05l24.92,0.07L72.25,61.2l-11.33.08L36,61.35l-24.92-.07Z"/><path class="cls-2" d="M-0.25,46.8l11.33-.08L36,46.65l24.92,0.07L72.25,46.8l-11.33.08L36,46.95l-24.92-.07Z"/><path class="cls-2" d="M-0.25,32.4l11.33-.08L36,32.25l24.92,0.07L72.25,32.4l-11.33.08L36,32.55l-24.92-.07Z"/><path class="cls-2" d="M-0.25,18l11.33-.08L36,17.85l24.92,0.07L72.25,18l-11.33.08L36,18.15l-24.92-.07Z"/><path class="cls-2" d="M-0.25,3.6l11.33-.08L36,3.45,60.92,3.52,72.25,3.6l-11.33.08L36,3.75,11.08,3.68Z"/><path class="cls-2" d="M-72.25,68.4l11.33-.08L-36,68.25l24.92,0.07L0.25,68.4l-11.33.08L-36,68.55l-24.92-.07Z"/><path class="cls-2" d="M-72.25,54l11.33-.08L-36,53.85l24.92,0.07L0.25,54l-11.33.08L-36,54.15l-24.92-.07Z"/><path class="cls-2" d="M-72.25,39.6l11.33-.08L-36,39.45l24.92,0.07L0.25,39.6l-11.33.08L-36,39.75l-24.92-.07Z"/><path class="cls-2" d="M-72.25,25.2l11.33-.08L-36,25.05l24.92,0.07L0.25,25.2l-11.33.08L-36,25.35l-24.92-.07Z"/><path class="cls-2" d="M-72.25,10.8l11.33-.08L-36,10.65l24.92,0.07L0.25,10.8l-11.33.08L-36,10.95l-24.92-.07Z"/><path class="cls-2" d="M-72.25,61.2l11.33-.08L-36,61.05l24.92,0.07L0.25,61.2l-11.33.08L-36,61.35l-24.92-.07Z"/><path class="cls-2" d="M-72.25,46.8l11.33-.08L-36,46.65l24.92,0.07L0.25,46.8l-11.33.08L-36,46.95l-24.92-.07Z"/><path class="cls-2" d="M-72.25,32.4l11.33-.08L-36,32.25l24.92,0.07L0.25,32.4l-11.33.08L-36,32.55l-24.92-.07Z"/><path class="cls-2" d="M-72.25,18l11.33-.08L-36,17.85l24.92,0.07L0.25,18l-11.33.08L-36,18.15l-24.92-.07Z"/><path class="cls-2" d="M-72.25,3.6l11.33-.08L-36,3.45l24.92,0.07L0.25,3.6l-11.33.08L-36,3.75l-24.92-.07Z"/></pattern><pattern id="_10_lpi_10_7" data-name="10 lpi 10%" width="72" height="72" patternTransform="matrix(0.49, -0.49, -0.49, -0.49, 42.23, -129.58)" patternUnits="userSpaceOnUse" viewBox="0 0 72 72"><rect class="cls-1" width="72" height="72"/><path class="cls-2" d="M71.75,68.4l11.33-.08L108,68.25l24.92,0.07,11.33,0.08-11.33.08L108,68.55l-24.92-.07Z"/><path class="cls-2" d="M71.75,54l11.33-.08L108,53.85l24.92,0.07L144.25,54l-11.33.08L108,54.15l-24.92-.07Z"/><path class="cls-2" d="M71.75,39.6l11.33-.08L108,39.45l24.92,0.07,11.33,0.08-11.33.08L108,39.75l-24.92-.07Z"/><path class="cls-2" d="M71.75,25.2l11.33-.08L108,25.05l24.92,0.07,11.33,0.08-11.33.08L108,25.35l-24.92-.07Z"/><path class="cls-2" d="M71.75,10.8l11.33-.08L108,10.65l24.92,0.07,11.33,0.08-11.33.08L108,10.95l-24.92-.07Z"/><path class="cls-2" d="M71.75,61.2l11.33-.08L108,61.05l24.92,0.07,11.33,0.08-11.33.08L108,61.35l-24.92-.07Z"/><path class="cls-2" d="M71.75,46.8l11.33-.08L108,46.65l24.92,0.07,11.33,0.08-11.33.08L108,46.95l-24.92-.07Z"/><path class="cls-2" d="M71.75,32.4l11.33-.08L108,32.25l24.92,0.07,11.33,0.08-11.33.08L108,32.55l-24.92-.07Z"/><path class="cls-2" d="M71.75,18l11.33-.08L108,17.85l24.92,0.07L144.25,18l-11.33.08L108,18.15l-24.92-.07Z"/><path class="cls-2" d="M71.75,3.6l11.33-.08L108,3.45l24.92,0.07L144.25,3.6l-11.33.08L108,3.75,83.08,3.68Z"/><path class="cls-2" d="M-0.25,68.4l11.33-.08L36,68.25l24.92,0.07L72.25,68.4l-11.33.08L36,68.55l-24.92-.07Z"/><path class="cls-2" d="M-0.25,54l11.33-.08L36,53.85l24.92,0.07L72.25,54l-11.33.08L36,54.15l-24.92-.07Z"/><path class="cls-2" d="M-0.25,39.6l11.33-.08L36,39.45l24.92,0.07L72.25,39.6l-11.33.08L36,39.75l-24.92-.07Z"/><path class="cls-2" d="M-0.25,25.2l11.33-.08L36,25.05l24.92,0.07L72.25,25.2l-11.33.08L36,25.35l-24.92-.07Z"/><path class="cls-2" d="M-0.25,10.8l11.33-.08L36,10.65l24.92,0.07L72.25,10.8l-11.33.08L36,10.95l-24.92-.07Z"/><path class="cls-2" d="M-0.25,61.2l11.33-.08L36,61.05l24.92,0.07L72.25,61.2l-11.33.08L36,61.35l-24.92-.07Z"/><path class="cls-2" d="M-0.25,46.8l11.33-.08L36,46.65l24.92,0.07L72.25,46.8l-11.33.08L36,46.95l-24.92-.07Z"/><path class="cls-2" d="M-0.25,32.4l11.33-.08L36,32.25l24.92,0.07L72.25,32.4l-11.33.08L36,32.55l-24.92-.07Z"/><path class="cls-2" d="M-0.25,18l11.33-.08L36,17.85l24.92,0.07L72.25,18l-11.33.08L36,18.15l-24.92-.07Z"/><path class="cls-2" d="M-0.25,3.6l11.33-.08L36,3.45,60.92,3.52,72.25,3.6l-11.33.08L36,3.75,11.08,3.68Z"/><path class="cls-2" d="M-72.25,68.4l11.33-.08L-36,68.25l24.92,0.07L0.25,68.4l-11.33.08L-36,68.55l-24.92-.07Z"/><path class="cls-2" d="M-72.25,54l11.33-.08L-36,53.85l24.92,0.07L0.25,54l-11.33.08L-36,54.15l-24.92-.07Z"/><path class="cls-2" d="M-72.25,39.6l11.33-.08L-36,39.45l24.92,0.07L0.25,39.6l-11.33.08L-36,39.75l-24.92-.07Z"/><path class="cls-2" d="M-72.25,25.2l11.33-.08L-36,25.05l24.92,0.07L0.25,25.2l-11.33.08L-36,25.35l-24.92-.07Z"/><path class="cls-2" d="M-72.25,10.8l11.33-.08L-36,10.65l24.92,0.07L0.25,10.8l-11.33.08L-36,10.95l-24.92-.07Z"/><path class="cls-2" d="M-72.25,61.2l11.33-.08L-36,61.05l24.92,0.07L0.25,61.2l-11.33.08L-36,61.35l-24.92-.07Z"/><path class="cls-2" d="M-72.25,46.8l11.33-.08L-36,46.65l24.92,0.07L0.25,46.8l-11.33.08L-36,46.95l-24.92-.07Z"/><path class="cls-2" d="M-72.25,32.4l11.33-.08L-36,32.25l24.92,0.07L0.25,32.4l-11.33.08L-36,32.55l-24.92-.07Z"/><path class="cls-2" d="M-72.25,18l11.33-.08L-36,17.85l24.92,0.07L0.25,18l-11.33.08L-36,18.15l-24.92-.07Z"/><path class="cls-2" d="M-72.25,3.6l11.33-.08L-36,3.45l24.92,0.07L0.25,3.6l-11.33.08L-36,3.75l-24.92-.07Z"/></pattern><linearGradient id="linear-gradient-2" x1="-469.43" y1="258.78" x2="-469.43" y2="261.83" gradientTransform="matrix(-1, 0, 0, 1, -266.41, 0)" xlink:href="#linear-gradient"/></defs><title>Green street</title><rect class="cls-3" x="11.78" y="60.79" width="120.63" height="158.47"/><rect class="cls-4" x="11.78" y="223.42" width="120.63" height="89.98"/><polygon class="cls-5" points="132.41 223.42 11.78 223.42 132.41 226.57 132.41 223.42"/><line class="cls-6" x1="11.78" y1="237.47" x2="132.41" y2="237.47"/><line class="cls-6" x1="11.78" y1="251.52" x2="132.41" y2="251.52"/><line class="cls-6" x1="11.78" y1="265.57" x2="132.41" y2="265.57"/><line class="cls-6" x1="11.78" y1="279.62" x2="132.41" y2="279.62"/><line class="cls-6" x1="11.78" y1="293.67" x2="132.41" y2="293.67"/><rect class="cls-4" x="10.27" y="58.4" width="122.14" height="2.39"/><rect class="cls-4" x="7.94" y="54.03" width="124.47" height="4.32"/><rect class="cls-4" x="7.94" y="129.17" width="124.47" height="2.16"/><rect class="cls-4" x="10.86" y="134.74" width="121.55" height="2.16"/><rect class="cls-4" x="11.78" y="136.9" width="120.63" height="2.16"/><rect class="cls-4" x="10.12" y="131.33" width="122.29" height="3.41"/><path class="cls-7" d="M7.94,54c6.95-5.31,43.85-45.36,48-54h76.5V54H7.94Z"/><path class="cls-8" d="M7.94,54c6.95-5.31,43.85-45.36,48-54h76.5V54H7.94Z"/><rect class="cls-9" x="54.98" y="151.7" width="31.57" height="44.99"/><rect class="cls-10" x="56.56" y="153.27" width="28.42" height="41.83"/><polygon class="cls-11" points="56.56 191.93 84.97 174.93 84.97 156.45 56.56 173.45 56.56 191.93"/><line class="cls-12" x1="70.77" y1="153.27" x2="70.77" y2="195.11"/><line class="cls-13" x1="84.98" y1="167.22" x2="56.56" y2="167.22"/><polygon class="cls-5" points="11.78 60.79 132.41 63.13 132.41 60.79 11.78 60.79"/><polygon class="cls-5" points="10.04 58.4 132.41 59.45 132.41 58.4 10.04 58.4"/><path class="cls-14" d="M7.94,54c6.95-5.31,43.85-45.36,48-54h76.5V54H7.94Z"/><polygon class="cls-5" points="7.94 54.03 132.41 57.61 132.41 54.03 7.94 54.03"/><rect class="cls-4" x="10.83" y="219.26" width="121.59" height="4.16"/><rect class="cls-4" x="52.45" y="78.4" width="36.63" height="50.78"/><rect class="cls-9" x="54.98" y="81.29" width="31.57" height="44.99"/><rect class="cls-10" x="56.56" y="82.87" width="28.42" height="41.83"/><polygon class="cls-11" points="56.56 121.53 84.97 104.53 84.97 86.04 56.56 103.05 56.56 121.53"/><line class="cls-12" x1="70.77" y1="82.87" x2="70.77" y2="124.7"/><line class="cls-13" x1="84.98" y1="96.81" x2="56.56" y2="96.81"/><polygon class="cls-4" points="70.77 75.87 50.11 75.87 50.11 78.39 70.77 78.39 91.42 78.39 91.42 75.87 70.77 75.87"/><polygon class="cls-5" points="52.45 78.39 89.08 78.39 89.08 79.76 52.45 78.39"/><polygon class="cls-5" points="10.12 131.33 132.41 131.33 132.41 133.65 10.12 131.33"/><polygon class="cls-5" points="10.86 134.74 132.41 134.74 132.41 135.58 10.86 134.74"/><polygon class="cls-5" points="11.78 136.9 132.41 136.9 132.41 137.74 11.78 136.9"/><polygon class="cls-15" points="11.78 139.06 132.41 139.06 132.41 139.96 11.78 139.06"/><rect class="cls-4" x="7.94" y="199.87" width="124.47" height="2.16"/><rect class="cls-4" x="10.86" y="205.44" width="121.55" height="2.16"/><rect class="cls-4" x="11.78" y="207.59" width="120.63" height="2.16"/><rect class="cls-4" x="10.12" y="202.03" width="122.29" height="3.41"/><rect class="cls-4" x="52.45" y="149.09" width="36.63" height="50.78"/><rect class="cls-9" x="54.98" y="151.98" width="31.57" height="44.99"/><rect class="cls-10" x="56.56" y="153.56" width="28.42" height="41.83"/><polygon class="cls-11" points="56.56 192.22 84.97 175.22 84.97 156.74 56.56 173.74 56.56 192.22"/><line class="cls-12" x1="70.77" y1="153.56" x2="70.77" y2="195.4"/><line class="cls-13" x1="84.98" y1="167.51" x2="56.56" y2="167.51"/><rect class="cls-16" x="47.5" y="231.89" width="46.53" height="67.24"/><rect class="cls-10" x="50.66" y="235.05" width="40.21" height="61.45"/><polygon class="cls-11" points="50.66 296.5 90.88 275.36 90.88 248.26 50.66 269.4 50.66 296.5"/><polygon class="cls-4" points="70.77 146.56 50.11 146.56 50.11 149.09 70.77 149.09 91.42 149.09 91.42 146.56 70.77 146.56"/><polygon class="cls-5" points="52.45 149.09 89.08 149.09 89.08 150.46 52.45 149.09"/><polygon class="cls-5" points="10.12 202.03 132.41 202.03 132.41 204.34 10.12 202.03"/><polygon class="cls-5" points="10.86 205.44 132.41 205.44 132.41 206.28 10.86 205.44"/><polygon class="cls-5" points="11.78 207.59 132.41 207.59 132.41 208.44 11.78 207.59"/><polygon class="cls-15" points="11.78 209.75 132.41 209.75 132.41 210.66 11.78 209.75"/><line class="cls-17" x1="7.94" y1="54.03" x2="132.41" y2="54.03"/><polygon class="cls-18" points="102.01 256.31 40.45 256.31 42.02 226.57 100.43 226.57 102.01 256.31"/><rect class="cls-19" x="40.44" y="255.99" width="61.56" height="3.11"/><rect class="cls-18" x="40.44" y="258.78" width="61.56" height="6.1"/><rect class="cls-20" x="40.44" y="258.78" width="61.56" height="3.05"/><rect class="cls-3" x="141.83" y="60.79" width="120.64" height="158.47"/><rect class="cls-4" x="141.83" y="223.42" width="120.64" height="89.98"/><polygon class="cls-5" points="141.83 223.42 262.47 223.42 141.83 226.57 141.83 223.42"/><line class="cls-6" x1="262.47" y1="237.47" x2="141.83" y2="237.47"/><line class="cls-6" x1="262.47" y1="251.52" x2="141.83" y2="251.52"/><line class="cls-6" x1="262.47" y1="265.57" x2="141.83" y2="265.57"/><line class="cls-6" x1="262.47" y1="279.62" x2="141.83" y2="279.62"/><line class="cls-6" x1="262.47" y1="293.67" x2="141.83" y2="293.67"/><rect class="cls-4" x="141.83" y="58.4" width="122.15" height="2.39"/><rect class="cls-4" x="141.83" y="54.03" width="124.47" height="4.32"/><rect class="cls-4" x="141.83" y="129.17" width="124.47" height="2.16"/><rect class="cls-4" x="141.83" y="134.74" width="121.56" height="2.16"/><rect class="cls-4" x="141.83" y="136.9" width="120.64" height="2.16"/><rect class="cls-4" x="141.83" y="131.33" width="122.29" height="3.41"/><path class="cls-7" d="M266.31,54c-6.95-5.31-43.85-45.36-48-54h-76.5V54H266.31Z"/><path class="cls-21" d="M266.31,54c-6.95-5.31-43.85-45.36-48-54h-76.5V54H266.31Z"/><rect class="cls-9" x="187.69" y="151.7" width="31.57" height="44.99"/><rect class="cls-10" x="189.27" y="153.27" width="28.41" height="41.83"/><polygon class="cls-11" points="217.69 191.93 189.27 174.93 189.27 156.45 217.69 173.45 217.69 191.93"/><line class="cls-12" x1="203.48" y1="153.27" x2="203.48" y2="195.11"/><line class="cls-13" x1="189.27" y1="167.22" x2="217.69" y2="167.22"/><polygon class="cls-5" points="262.47 60.79 141.83 63.13 141.83 60.79 262.47 60.79"/><polygon class="cls-5" points="264.21 58.4 141.83 59.45 141.83 58.4 264.21 58.4"/><path class="cls-22" d="M266.31,54c-6.95-5.31-43.85-45.36-48-54h-76.5V54H266.31Z"/><polygon class="cls-5" points="266.31 54.03 141.83 57.61 141.83 54.03 266.31 54.03"/><rect class="cls-4" x="141.83" y="219.26" width="121.59" height="4.16"/><rect class="cls-4" x="185.17" y="78.4" width="36.63" height="50.78"/><rect class="cls-9" x="187.69" y="81.29" width="31.57" height="44.99"/><rect class="cls-10" x="189.27" y="82.87" width="28.41" height="41.83"/><polygon class="cls-11" points="217.69 121.53 189.27 104.53 189.27 86.04 217.69 103.05 217.69 121.53"/><line class="cls-12" x1="203.48" y1="82.87" x2="203.48" y2="124.7"/><line class="cls-13" x1="189.27" y1="96.81" x2="217.69" y2="96.81"/><polygon class="cls-4" points="203.48 75.87 224.13 75.87 224.13 78.39 203.48 78.39 182.82 78.39 182.82 75.87 203.48 75.87"/><polygon class="cls-5" points="221.79 78.39 185.16 78.39 185.16 79.76 221.79 78.39"/><polygon class="cls-5" points="264.12 131.33 141.83 131.33 141.83 133.65 264.12 131.33"/><polygon class="cls-5" points="263.39 134.74 141.83 134.74 141.83 135.58 263.39 134.74"/><polygon class="cls-5" points="262.47 136.9 141.83 136.9 141.83 137.74 262.47 136.9"/><polygon class="cls-15" points="262.47 139.06 141.83 139.06 141.83 139.96 262.47 139.06"/><rect class="cls-4" x="141.83" y="199.87" width="124.47" height="2.16"/><rect class="cls-4" x="141.83" y="205.44" width="121.56" height="2.16"/><rect class="cls-4" x="141.83" y="207.59" width="120.64" height="2.16"/><rect class="cls-4" x="141.83" y="202.03" width="122.29" height="3.41"/><rect class="cls-4" x="185.17" y="149.09" width="36.63" height="50.78"/><rect class="cls-9" x="187.69" y="151.98" width="31.57" height="44.99"/><rect class="cls-10" x="189.27" y="153.56" width="28.41" height="41.83"/><polygon class="cls-11" points="217.69 192.22 189.27 175.22 189.27 156.74 217.69 173.74 217.69 192.22"/><line class="cls-12" x1="203.48" y1="153.56" x2="203.48" y2="195.4"/><line class="cls-13" x1="189.27" y1="167.51" x2="217.69" y2="167.51"/><rect class="cls-16" x="180.21" y="231.89" width="46.53" height="67.24"/><rect class="cls-10" x="183.37" y="235.05" width="40.21" height="61.45"/><polygon class="cls-11" points="223.59 296.5 183.37 275.36 183.37 248.26 223.59 269.4 223.59 296.5"/><polygon class="cls-4" points="203.48 146.56 224.13 146.56 224.13 149.09 203.48 149.09 182.82 149.09 182.82 146.56 203.48 146.56"/><polygon class="cls-5" points="221.79 149.09 185.16 149.09 185.16 150.46 221.79 149.09"/><polygon class="cls-5" points="264.12 202.03 141.83 202.03 141.83 204.34 264.12 202.03"/><polygon class="cls-5" points="263.39 205.44 141.83 205.44 141.83 206.28 263.39 205.44"/><polygon class="cls-5" points="262.47 207.59 141.83 207.59 141.83 208.44 262.47 207.59"/><polygon class="cls-15" points="262.47 209.75 141.83 209.75 141.83 210.66 262.47 209.75"/><line class="cls-17" x1="266.31" y1="54.03" x2="141.83" y2="54.03"/><polygon class="cls-18" points="172.24 256.31 233.8 256.31 232.22 226.57 173.82 226.57 172.24 256.31"/><rect class="cls-19" x="172.24" y="255.99" width="61.56" height="3.11"/><rect class="cls-18" x="172.24" y="258.78" width="61.56" height="6.1"/><rect class="cls-23" x="172.24" y="258.78" width="61.56" height="3.05"/></svg>