<svg id="Cyclists" xmlns="http://www.w3.org/2000/svg" xmlns:xlink="http://www.w3.org/1999/xlink" viewBox="0 0 129.02 93.5"><defs><style>.cls-1{fill:#ccd9e8;}.cls-2{fill:#d6e1ed;}.cls-3,.cls-4{fill:silver;}.cls-11,.cls-3{stroke:#5c5f61;}.cls-12,.cls-3{stroke-miterlimit:10;stroke-width:0.63px;}.cls-5{fill:#969696;}.cls-6{fill:#a6a6a6;}.cls-7{fill:#5c5f61;}.cls-8{fill:url(#linear-gradient);}.cls-9{fill:#d3b181;}.cls-10{fill:#909090;}.cls-11,.cls-12{fill:none;}.cls-11{stroke-linejoin:round;stroke-width:0.95px;}.cls-12{stroke:#afced7;}.cls-13{fill:#cdcdcd;}.cls-14{fill:#202020;}.cls-15{fill:url(#linear-gradient-2);}</style><linearGradient id="linear-gradient" x1="79.84" y1="48.66" x2="77.85" y2="48.66" gradientUnits="userSpaceOnUse"><stop offset="0" stop-color="#5c5f61"/><stop offset="1" stop-color="#454749"/></linearGradient><linearGradient id="linear-gradient-2" x1="-907.91" y1="48.66" x2="-909.9" y2="48.66" gradientTransform="matrix(-1, 0, 0, 1, -859.62, 0)" xlink:href="#linear-gradient"/></defs><title>Green street</title><rect class="cls-1" x="83.03" y="14.68" width="37.58" height="65.88"/><polygon class="cls-2" points="83.03 66.75 120.61 44.27 120.61 25.79 83.03 48.27 83.03 66.75"/><line class="cls-3" x1="122.36" y1="6.11" x2="68.15" y2="6.11"/><rect class="cls-4" x="68.15" y="4.27" width="54.21" height="1.49"/><rect class="cls-4" x="65.53" y="4.27" width="1.49" height="1.49"/><rect class="cls-5" x="67.01" y="4.56" width="1.14" height="0.9"/><rect class="cls-4" x="77.46" y="6.07" width="4.76" height="6.51"/><polygon class="cls-4" points="69.11 6.11 77.46 6.11 77.46 11.49 69.11 8.99 69.11 6.11"/><polygon class="cls-4" points="82.22 12.1 117.94 7.82 119.56 6.07 82.22 6.07 82.22 12.1"/><rect class="cls-6" x="78.46" y="12.58" width="2.75" height="1.22"/><rect class="cls-7" x="77.85" y="13.81" width="3.98" height="69.71"/><rect class="cls-8" x="77.85" y="13.81" width="1.99" height="69.71"/><polygon class="cls-9" points="81.78 66.75 84.27 69.11 84.27 70.45 81.78 70.45 81.78 66.75"/><rect class="cls-10" x="84.27" y="69.78" width="11.42" height="1.48"/><rect class="cls-9" x="93.9" y="69.31" width="1.11" height="2.49"/><rect class="cls-9" x="92.15" y="69.31" width="1.11" height="2.49"/><rect class="cls-9" x="90.5" y="69.31" width="1.11" height="2.49"/><rect class="cls-9" x="88.69" y="69.31" width="1.11" height="2.49"/><rect class="cls-9" x="86.81" y="69.31" width="1.11" height="2.49"/><rect class="cls-9" x="84.96" y="69.31" width="1.11" height="2.49"/><polyline class="cls-11" points="83.83 70.45 83.83 71.79 81.42 74.38"/><line class="cls-12" x1="68.15" y1="3.95" x2="124.85" y2="3.95"/><polygon class="cls-10" points="69.56 6.52 76.14 8.78 76.14 11.05 77.46 11.49 77.46 6.07 69.26 6.07 69.56 6.52"/><polygon class="cls-10" points="82.22 12.1 83.69 11.89 83.69 9.81 119.56 6.07 82.22 6.07 82.22 12.1"/><polygon class="cls-13" points="82.22 6.07 81.33 6.07 77.46 9.94 77.46 12.58 77.52 12.58 82.22 7.88 82.22 6.07"/><polygon class="cls-13" points="81.62 5.75 108.77 5.75 110.26 4.27 83.1 4.27 81.62 5.75"/><rect class="cls-14" x="97.11" y="7.36" width="23.67" height="3.93"/><rect class="cls-1" x="7.53" y="14.68" width="37.58" height="65.88"/><polygon class="cls-2" points="45.11 66.75 7.53 44.27 7.53 25.79 45.11 48.27 45.11 66.75"/><line class="cls-3" x1="5.78" y1="6.11" x2="59.99" y2="6.11"/><rect class="cls-4" x="5.78" y="4.27" width="54.21" height="1.49"/><rect class="cls-4" x="61.13" y="4.27" width="1.49" height="1.49"/><rect class="cls-5" x="59.99" y="4.56" width="1.14" height="0.9"/><rect class="cls-4" x="45.91" y="6.07" width="4.77" height="6.51"/><polygon class="cls-4" points="59.03 6.11 50.68 6.11 50.68 11.49 59.03 8.99 59.03 6.11"/><polygon class="cls-4" points="45.91 12.1 10.2 7.82 8.58 6.07 45.91 6.07 45.91 12.1"/><rect class="cls-6" x="46.92" y="12.58" width="2.75" height="1.22"/><rect class="cls-7" x="46.31" y="13.81" width="3.98" height="69.71"/><rect class="cls-15" x="48.3" y="13.81" width="1.99" height="69.71"/><polygon class="cls-9" points="46.35 66.75 43.87 69.11 43.87 70.45 46.35 70.45 46.35 66.75"/><rect class="cls-10" x="32.44" y="69.78" width="11.43" height="1.48"/><rect class="cls-9" x="33.13" y="69.31" width="1.11" height="2.49"/><rect class="cls-9" x="34.88" y="69.31" width="1.11" height="2.49"/><rect class="cls-9" x="36.53" y="69.31" width="1.11" height="2.49"/><rect class="cls-9" x="38.34" y="69.31" width="1.11" height="2.49"/><rect class="cls-9" x="40.22" y="69.31" width="1.11" height="2.49"/><rect class="cls-9" x="42.07" y="69.31" width="1.11" height="2.49"/><polyline class="cls-11" points="44.31 70.45 44.31 71.79 46.72 74.38"/><line class="cls-12" x1="59.99" y1="3.95" x2="3.29" y2="3.95"/><polygon class="cls-10" points="58.58 6.52 52 8.78 52 11.05 50.68 11.49 50.68 6.07 58.88 6.07 58.58 6.52"/><polygon class="cls-10" points="45.91 12.1 44.45 11.89 44.45 9.81 8.58 6.07 45.91 6.07 45.91 12.1"/><polygon class="cls-13" points="45.91 6.07 46.81 6.07 50.68 9.94 50.68 12.58 50.62 12.58 45.91 7.88 45.91 6.07"/><polygon class="cls-13" points="46.52 5.75 19.37 5.75 17.88 4.27 45.03 4.27 46.52 5.75"/><rect class="cls-14" x="7.36" y="7.36" width="23.67" height="3.93"/></svg>