<?xml version="1.0" encoding="utf-8"?>
<!-- Generator: Adobe Illustrator 19.2.0, SVG Export Plug-In . SVG Version: 6.00 Build 0)  -->
<svg version="1.1" id="Play_button" xmlns="http://www.w3.org/2000/svg" xmlns:xlink="http://www.w3.org/1999/xlink" x="0px"
	 y="0px" viewBox="0 0 64 251.1" style="enable-background:new 0 0 64 251.1;" xml:space="preserve">
<style type="text/css">
	.st0{fill:#42454C;}
</style>
<title>Icons_Skillshare</title>
<path class="st0" d="M51.3,193.6c-0.9-0.7-2.1-0.5-2.8,0.4s-0.5,2.1,0.4,2.8c7,5.3,11.1,13.6,11.1,22.3
	c-0.1,13.1-9.2,24.4-21.9,27.3c-1.1,0.2-1.8,1.3-1.5,2.4c0.2,1.1,1.3,1.8,2.4,1.5c14.6-3.3,25-16.3,25.1-31.2
	C64.1,209.1,59.3,199.7,51.3,193.6z"/>
<path class="st0" d="M31.3,247.1c-15.5-0.2-27.8-12.9-27.6-28.4c0.2-15.5,12.9-27.8,28.4-27.6c2,0,3.9,0.2,5.9,0.6
	c1.1,0.3,2.2-0.4,2.4-1.5c0.3-1.1-0.4-2.2-1.5-2.4c0,0-0.1,0-0.1,0c-17.3-3.7-34.3,7.3-38,24.6c-0.5,2.2-0.7,4.5-0.7,6.7
	c-0.1,17.4,13.8,31.6,31.2,32h0c1.1,0,2-0.9,2-2C33.3,248.1,32.4,247.2,31.3,247.1L31.3,247.1z"/>
<path class="st0" d="M28.2,196.5c0.6-0.1,0.9-0.6,0.8-1.2c-0.1-0.6-0.6-0.9-1.2-0.8c-13.7,2.4-22.8,15.3-20.5,29
	c0.4,2.5,1.2,4.9,2.4,7.1c0.3,0.5,0.9,0.7,1.4,0.4c0.5-0.3,0.6-0.8,0.4-1.3c-5.8-11.4-1.2-25.3,10.2-31
	C23.7,197.6,25.9,196.9,28.2,196.5z"/>
<path class="st0" d="M23.1,240.7c1.3,0.7,2.9,0.6,4.1-0.2l25-16.3c1.8-1.2,2.4-3.7,1.1-5.5c-0.3-0.5-0.7-0.8-1.1-1.1l-25-16.7
	c-1.8-1.2-4.3-0.7-5.5,1.1c-0.4,0.7-0.7,1.4-0.7,2.2v33C21,238.6,21.8,240,23.1,240.7z"/>
<circle class="st0" cx="39" cy="94.6" r="2"/>
<circle class="st0" cx="32" cy="95.6" r="2"/>
<circle class="st0" cx="25" cy="93.6" r="2"/>
<circle class="st0" cx="18" cy="96.9" r="2"/>
<circle class="st0" cx="11" cy="94.9" r="2"/>
<path class="st0" d="M38,100.6v6.4c0,0.6,0.4,1,1,1s1-0.4,1-1v-6.4c0-0.6-0.4-1-1-1S38,100,38,100.6z"/>
<path class="st0" d="M31,100.6v3.1c0,0.6,0.4,1,1,1s1-0.4,1-1v-3.1c0-0.6-0.4-1-1-1S31,100,31,100.6z"/>
<path class="st0" d="M25,98.9L25,98.9c-0.6,0-1,0.4-1,1v7c0,0.6,0.4,1,1,1l0,0c0.6,0,1-0.4,1-1v-7C26,99.4,25.5,98.9,25,98.9z"/>
<circle class="st0" cx="53" cy="93.6" r="2"/>
<circle class="st0" cx="46" cy="96.9" r="2"/>
<path class="st0" d="M53,127.6c0.6,0,1-0.4,1-1v-27c0-0.6-0.4-1-1-1s-1,0.4-1,1v27C52,127.1,52.4,127.6,53,127.6z"/>
<path class="st0" d="M45,102.6v24c0,0.6,0.4,1,1,1s1-0.4,1-1v-24c0-0.6-0.4-1-1-1S45,102,45,102.6z"/>
<path class="st0" d="M18,102.6L18,102.6c-0.6,0-1,0.4-1,1l0.1,23c0,0.6,0.4,1,1,1l0,0c0.6,0,1-0.4,1-1l-0.1-23
	C19,103,18.5,102.6,18,102.6z"/>
<path class="st0" d="M52.1,130.2h-11l0.2-13.4c0-5-4-8.8-9.3-8.8s-9.3,3.8-9.3,8.9l0.4,13.4h-11c-1.1,0-2,0.9-2,2
	c0,0.5,0.2,1,0.5,1.4l20,21.4c0.8,0.8,2,0.8,2.8,0.1c0,0,0.1-0.1,0.1-0.1l20-21.4c0.8-0.8,0.7-2.1-0.1-2.8
	C53.1,130.4,52.6,130.2,52.1,130.2z"/>
<path class="st0" d="M11,127.6c0.6,0,1-0.4,1-1v-26c0-0.6-0.4-1-1-1s-1,0.4-1,1v26C10,127.1,10.4,127.6,11,127.6z"/>
<path class="st0" d="M21,35h5c0.6,0,1,0.4,1,1v3c0,0.6-0.4,1-1,1h-5c-0.6,0-1-0.4-1-1v-3C20,35.4,20.5,35,21,35z"/>
<path class="st0" d="M38,35c-0.6,0-1,0.4-1,1v3c0,0.6,0.4,1,1,1h5c0.6,0,1-0.4,1-1v-3c0-0.6-0.4-1-1-1s-1,0.4-1,1v2h-3v-2
	C39,35.4,38.6,35,38,35z"/>
<path class="st0" d="M57,18C57,18,57,4,57,0H7c0,4.1,0,18,0,18c0,2.7,0.8,4.6,6,4.9c0,0,0,0,0,0.1v31c0,1.1,0.9,2,2,2h4
	c1.1,0,2-0.9,2-2s-0.9-2-2-2h-2V23h30v29H27c-1.1,0-2,0.9-2,2s0.9,2,2,2h22c1.1,0,2-0.9,2-2V23c0,0,0,0,0-0.1
	C56.2,22.5,57,20.5,57,18z"/>
</svg>
