<?xml version="1.0" encoding="utf-8"?>
<!-- Generator: Adobe Illustrator 19.2.0, SVG Export Plug-In . SVG Version: 6.00 Build 0)  -->
<svg version="1.1" id="Play_button" xmlns="http://www.w3.org/2000/svg" xmlns:xlink="http://www.w3.org/1999/xlink" x="0px"
	 y="0px" viewBox="0 0 248 64" style="enable-background:new 0 0 248 64;" xml:space="preserve">
<style type="text/css">
	.st0{fill:#42454C;}
</style>
<title>Icons_Skillshare_horizontal</title>
<path class="st0" d="M235.3,6.5c-0.9-0.7-2.1-0.5-2.8,0.4S232,9,232.9,9.7C239.9,15,244,23.2,244,32c-0.1,13.1-9.2,24.5-21.9,27.4
	c-1.1,0.2-1.8,1.3-1.5,2.4s1.3,1.8,2.4,1.5C237.5,60,247.9,47,248,32C248,22,243.3,12.5,235.3,6.5z"/>
<path class="st0" d="M215.3,60c-15.5-0.2-27.8-12.9-27.6-28.4S200.5,3.8,216,4c2,0,3.9,0.2,5.9,0.6c1.1,0.3,2.2-0.4,2.4-1.5
	c0.3-1.1-0.4-2.2-1.5-2.4c0,0-0.1,0-0.1,0c-17.3-3.7-34.3,7.3-38,24.6c-0.5,2.2-0.7,4.5-0.7,6.7c-0.1,17.4,13.8,31.6,31.2,32h0
	c1.1,0,2-0.9,2-2S216.4,60,215.3,60z"/>
<path class="st0" d="M212.2,9.3c0.6-0.1,0.9-0.6,0.8-1.2c-0.1-0.6-0.6-0.9-1.2-0.8c-13.7,2.4-22.8,15.3-20.5,29
	c0.4,2.5,1.2,4.9,2.4,7.1c0.3,0.5,0.9,0.7,1.4,0.4c0.5-0.3,0.6-0.8,0.4-1.3c-5.8-11.4-1.2-25.3,10.2-31
	C207.7,10.4,209.9,9.7,212.2,9.3z"/>
<path class="st0" d="M207.1,53.5c1.3,0.7,2.9,0.6,4.1-0.2l25-16.3c1.8-1.2,2.4-3.7,1.1-5.5c-0.3-0.5-0.7-0.8-1.1-1.1l-25-16.7
	c-1.8-1.2-4.3-0.7-5.5,1.1c-0.4,0.7-0.7,1.4-0.7,2.2v33C205,51.5,205.8,52.8,207.1,53.5z"/>
<circle class="st0" cx="127.5" cy="3" r="2"/>
<circle class="st0" cx="120.5" cy="4" r="2"/>
<circle class="st0" cx="113.5" cy="2" r="2"/>
<circle class="st0" cx="106.5" cy="5.4" r="2"/>
<circle class="st0" cx="99.5" cy="3.4" r="2"/>
<path class="st0" d="M126.5,9v6.4c0,0.6,0.4,1,1,1s1-0.4,1-1V9c0-0.6-0.4-1-1-1S126.5,8.4,126.5,9z"/>
<path class="st0" d="M119.5,9v3.1c0,0.6,0.4,1,1,1s1-0.4,1-1V9c0-0.6-0.4-1-1-1S119.5,8.4,119.5,9z"/>
<path class="st0" d="M113.5,7.4L113.5,7.4c-0.6,0-1,0.4-1,1v7c0,0.6,0.4,1,1,1l0,0c0.6,0,1-0.4,1-1v-7
	C114.5,7.8,114.1,7.4,113.5,7.4z"/>
<circle class="st0" cx="141.5" cy="2" r="2"/>
<circle class="st0" cx="134.5" cy="5.4" r="2"/>
<path class="st0" d="M141.5,36c0.6,0,1-0.4,1-1V8c0-0.6-0.4-1-1-1s-1,0.4-1,1v27C140.5,35.6,140.9,36,141.5,36z"/>
<path class="st0" d="M133.5,11v24c0,0.6,0.4,1,1,1s1-0.4,1-1V11c0-0.6-0.4-1-1-1S133.5,10.4,133.5,11z"/>
<path class="st0" d="M106.5,11L106.5,11c-0.6,0-1,0.4-1,1l0.1,23c0,0.6,0.4,1,1,1l0,0c0.6,0,1-0.4,1-1l-0.1-23
	C107.5,11.4,107.1,11,106.5,11z"/>
<path class="st0" d="M140.6,38.6h-11l0.2-13.4c0-5-4-8.8-9.3-8.8s-9.3,3.8-9.3,8.9l0.4,13.4h-11c-1.1,0-2,0.9-2,2
	c0,0.5,0.2,1,0.5,1.4l20,21.4c0.8,0.8,2,0.8,2.8,0.1c0,0,0.1-0.1,0.1-0.1L142,42c0.8-0.8,0.7-2.1-0.1-2.8
	C141.6,38.8,141.1,38.6,140.6,38.6z"/>
<path class="st0" d="M99.5,36c0.6,0,1-0.4,1-1V9c0-0.6-0.4-1-1-1s-1,0.4-1,1v26C98.5,35.6,98.9,36,99.5,36z"/>
<path class="st0" d="M13.9,39h5c0.6,0,1,0.4,1,1v3c0,0.6-0.4,1-1,1h-5c-0.6,0-1-0.4-1-1v-3C12.9,39.4,13.4,39,13.9,39z"/>
<path class="st0" d="M30.9,39c-0.6,0-1,0.4-1,1v3c0,0.6,0.4,1,1,1h5c0.6,0,1-0.4,1-1v-3c0-0.6-0.4-1-1-1s-1,0.4-1,1v2h-3v-2
	C31.9,39.4,31.5,39,30.9,39z"/>
<path class="st0" d="M49.9,22c0,0-0.1-14-0.1-18h-50c0,4.1,0,18,0,18c0,2.7,0.8,4.6,6,4.9c0,0,0,0,0,0.1v31c0,1.1,0.9,2,2,2h4
	c1.1,0,2-0.9,2-2s-0.9-2-2-2h-2V27h30v29h-20c-1.1,0-2,0.9-2,2s0.9,2,2,2h22c1.1,0,2-0.9,2-2V27c0,0,0,0,0-0.1
	C49.1,26.5,49.9,24.5,49.9,22z"/>
</svg>
