<?xml version="1.0" encoding="utf-8"?>
<!-- Generator: Adobe Illustrator 19.2.0, SVG Export Plug-In . SVG Version: 6.00 Build 0)  -->
<svg version="1.1" id="Logo" xmlns="http://www.w3.org/2000/svg" xmlns:xlink="http://www.w3.org/1999/xlink" x="0px" y="0px"
	 viewBox="0 0 174.8 399" style="enable-background:new 0 0 174.8 399;" xml:space="preserve">
<style type="text/css">
	.st0{fill:#FFCE5F;}
	.st1{fill:#F69420;}
</style>
<path id="Slovo_x5F_P" class="st0" d="M87.4,139.2C39.2,139.2,0,178.4,0,226.6l1.7,156.6c0,8.7,7.1,15.8,15.8,15.8
	s15.8-7.1,15.8-15.8l14.2-156.6c0-22,17.9-39.9,39.9-39.9s39.9,17.9,39.9,39.9c0,13.1,10.6,23.8,23.8,23.8s23.8-10.6,23.8-23.8
	C174.8,178.4,135.6,139.2,87.4,139.2z"/>
<g id="Slovo_x5F_J">
	<path id="J" class="st1" d="M111,310.8c46.4-13,73.6-61.4,60.5-107.8L127.6,52.7c-2.4-8.4-11.1-13.3-19.5-10.9S94.8,52.9,97.2,61.3
		l28.6,154.6c5.9,21.2-6.5,43.3-27.6,49.2C77,271,54.9,258.6,49,237.4c-3.5-12.6-16.7-20-29.3-16.5c-12.6,3.5-20,16.7-16.5,29.3
		C16.3,296.6,64.6,323.8,111,310.8z"/>
	<circle id="Tacka-na-o" class="st1" cx="102.6" cy="12.6" r="12.6"/>
</g>
</svg>
