<svg id="Discussion" xmlns="http://www.w3.org/2000/svg" viewBox="0 0 64 63.11"><defs><style>.cls-1{fill:#fff;}</style></defs><title>navbar-contact1</title><path class="cls-1" d="M17.86,392.2a2,2,0,0,0-2.63,1,24.32,24.32,0,0,1-4.53,6.85l-0.72.77,2.11,9.51L4.85,406a2,2,0,1,0-2.06,3.43L18,418.59,14.34,402a28.12,28.12,0,0,0,4.55-7.19A2,2,0,0,0,17.86,392.2Z" transform="translate(44.94 -355.48)"/><path class="cls-1" d="M-4,408.53a33.3,33.3,0,0,1-7.9.94c-16,0-29-11.21-29-25s13-25,29-25a31.28,31.28,0,0,1,21.62,8.34,2,2,0,0,0,2.78-2.88,35.31,35.31,0,0,0-24.39-9.46c-18.2,0-33,13-33,29s14.8,29,33,29a37.27,37.27,0,0,0,8.85-1.06A2,2,0,0,0-1.62,410,2,2,0,0,0-4,408.53Z" transform="translate(44.94 -355.48)"/><circle class="cls-1" cx="32" cy="29" r="6"/><circle class="cls-1" cx="16" cy="29" r="6"/><circle class="cls-1" cx="48" cy="29" r="6"/></svg>