<svg id="Layer_1" data-name="Layer 1" xmlns="http://www.w3.org/2000/svg" viewBox="0 0 64 45"><defs><style>.cls-1{fill:#fff;}</style></defs><title>navbar-projects1</title><path class="cls-1" d="M460.15,490.08L434.39,473a4.14,4.14,0,0,0-4.22-.19,4.09,4.09,0,0,0-2.17,3.61v33.8a4.09,4.09,0,0,0,2.17,3.61,4.14,4.14,0,0,0,4.22-.19l25.76-16.74A4.08,4.08,0,0,0,460.15,490.08Z" transform="translate(-398 -471)"/><circle class="cls-1" cx="6" cy="13" r="2"/><circle class="cls-1" cx="4" cy="18" r="2"/><circle class="cls-1" cx="6" cy="23" r="2"/><circle class="cls-1" cx="5" cy="28" r="2"/><circle class="cls-1" cx="2" cy="32.97" r="2"/><circle class="cls-1" cx="6" cy="38" r="2"/><circle class="cls-1" cx="3.98" cy="43" r="2"/><path class="cls-1" d="M425,483H409a1,1,0,0,0,0,2h16A1,1,0,0,0,425,483Z" transform="translate(-398 -471)"/><path class="cls-1" d="M425,488H407a1,1,0,0,0,0,2h18A1,1,0,0,0,425,488Z" transform="translate(-398 -471)"/><path class="cls-1" d="M425,478H405a1,1,0,0,0,0,2h20A1,1,0,0,0,425,478Z" transform="translate(-398 -471)"/><path class="cls-1" d="M425,493H409a1,1,0,0,0,0,2h16A1,1,0,0,0,425,493Z" transform="translate(-398 -471)"/><path class="cls-1" d="M425,498H408a1,1,0,0,0,0,2h17A1,1,0,0,0,425,498Z" transform="translate(-398 -471)"/><circle class="cls-1" cx="3" cy="2" r="2"/><circle class="cls-1" cx="2" cy="8" r="2"/><path class="cls-1" d="M425,472H406a1,1,0,0,0,0,2h19A1,1,0,0,0,425,472Z" transform="translate(-398 -471)"/><path class="cls-1" d="M425,502.94h0L405,503a1,1,0,0,0,0,2h0l20-.06A1,1,0,0,0,425,502.94Z" transform="translate(-398 -471)"/><path class="cls-1" d="M425,508H409a1,1,0,0,0,0,2h16A1,1,0,0,0,425,508Z" transform="translate(-398 -471)"/><path class="cls-1" d="M425,513H407a1,1,0,0,0,0,2h18A1,1,0,0,0,425,513Z" transform="translate(-398 -471)"/></svg>