<svg id="Layer_1" data-name="Layer 1" xmlns="http://www.w3.org/2000/svg" viewBox="0 0 500 400"><defs><style>.cls-1{fill:#ffce5f;}.cls-2,.cls-5{fill:#fff;}.cls-3{fill:#dc7b6e;}.cls-4{fill:#662020;}.cls-5{stroke:#662020;stroke-miterlimit:10;stroke-width:5px;}</style></defs><title>navbar icons</title><path class="cls-1" d="M33.67,10.55l1.9,1.28c1.26,0.83,3.14,2,5.62,3.55,4.94,3.08,12.39,7.23,21.94,12.36s21.28,11.15,34.76,18S126.6,60.37,143.16,69s34.42,18.22,53,29.29c4.66,2.76,9.33,5.68,14,8.72s9.46,6.24,14.21,9.75a115.41,115.41,0,0,1,14.2,12c0.59,0.58,1.18,1.24,1.77,1.88s1.18,1.35,1.76,2.06,1.17,1.52,1.75,2.3c0.29,0.38.58,0.86,0.86,1.3L245.2,137l0.21,0.34c-0.1-.21.38,0.68,0.37,0.67l0.51,1,0.13,0.24c0,0.06.09,0.18,0.17,0.35l0.41,0.91c0.25,0.59.56,1.27,0.74,1.8l0.56,1.66a28.62,28.62,0,0,1,1.17,7.08,30,30,0,0,1-.62,7,34.21,34.21,0,0,1-2,6.26,46.22,46.22,0,0,1-6,10,94.66,94.66,0,0,1-14.31,14.5c-10,8.34-20.42,15.19-31,21.83-21,13.25-42.7,25.21-62.89,38.53-2.5,1.64-5.09,3.35-7.41,5s-4.77,3.4-7.12,5.19c-4.7,3.57-9.3,7.32-13.77,11.21a279.32,279.32,0,0,0-25.12,24.68c-3.83,4.33-7.44,8.76-10.7,13.27a101.64,101.64,0,0,0-8.51,13.64c-2.28,4.51-3.87,9.1-4.17,12.67a11.62,11.62,0,0,0,.31,4.31,7.23,7.23,0,0,0,1.72,3c1.77,2,5.63,3.91,10.08,5.09a75.06,75.06,0,0,0,14.64,2.19,194.42,194.42,0,0,0,31.13-.93c2.57-.27,5.14-0.53,7.69-0.83l3.81-.47,3.72-.5,3.84-.55,3.61-.59c2.38-.37,4.85-0.86,7.24-1.28,9.62-1.85,18.94-4,27.88-6.21s17.55-4.5,25.75-6.7,16-4.22,23.42-6.07,14.37-3.44,20.87-4.74,12.51-2.33,18-3a140.5,140.5,0,0,1,25.5-1.23c2.94,0.18,5.17.4,6.67,0.63l2.27,0.31-2.29.09c-1.5,0-3.73.23-6.61,0.48a156.48,156.48,0,0,0-24.51,4.89c-10.39,2.8-22.78,7-36.91,12.24-7.08,2.59-14.59,5.44-22.56,8.43s-16.4,6.07-25.31,9.12-18.33,6-28.28,8.69c-2.52.63-5,1.3-7.61,1.9L136,364l-3.79.81-1,.2-1.06.22-2,.38-4,.74c-2.66.48-5.34,0.94-8.06,1.35a213.89,213.89,0,0,1-34.38,2.74,94.36,94.36,0,0,1-19-2.11,54.14,54.14,0,0,1-10.22-3.35,36.53,36.53,0,0,1-10.33-6.8,29.66,29.66,0,0,1-7.6-11.69A34.07,34.07,0,0,1,33,333.31a49,49,0,0,1,2.11-11.43A74,74,0,0,1,39,312a118.34,118.34,0,0,1,10.11-17.3c3.74-5.37,7.75-10.45,11.94-15.36a272.07,272.07,0,0,1,27.13-27.4q7.26-6.38,15-12.34,3.87-3,7.89-5.82c2.76-1.95,5.35-3.68,8-5.45,21.38-13.9,43.27-25.92,63.89-38.27,5.14-3.1,10.17-6.23,15-9.45s9.56-6.45,13.86-9.85a72.92,72.92,0,0,0,11.1-10.49,26.62,26.62,0,0,0,3.29-5,12.25,12.25,0,0,0,.79-2.06,8,8,0,0,0,.27-1.65,6.38,6.38,0,0,0-.14-1.51c0-.13-0.08-0.27-0.11-0.41s-0.05-.13-0.06-0.21a0.5,0.5,0,0,1,0-.09,0.22,0.22,0,0,0-.05-0.14l-0.12-.24-0.47-1a0.92,0.92,0,0,1,.1.2l-0.07-.12-0.14-.24a4.37,4.37,0,0,0-.3-0.52c-0.27-.38-0.46-0.75-0.81-1.17s-0.6-.82-1-1.26-0.7-.86-1.12-1.3a71.25,71.25,0,0,0-5.29-5.26c-1.92-1.74-3.9-3.47-6-5.15-8.22-6.76-17.08-12.95-25.73-18.91s-17.32-11.58-25.71-17-16.57-10.61-24.42-15.6L113.32,67.26c-7.15-4.6-14-8.94-20.3-13.1C80.32,45.84,69.33,38.42,60.46,32S44.82,20.32,40.34,16.55c-2.25-1.87-3.9-3.4-5-4.43Z"/><polygon class="cls-2" points="297.06 224.84 294.07 317.22 370.19 264.79 297.06 224.84"/><path class="cls-1" d="M395.33,44.93l73.13,39.95S501.12,40,458.27,16.64,395.33,44.93,395.33,44.93Z"/><rect class="cls-3" x="282.76" y="115.69" width="200" height="78.33" transform="translate(63.37 416.54) rotate(-61.35)"/><path class="cls-4" d="M397.32,51.72l64.36,35.16L368.2,258l-64.36-35.16L397.32,51.72m-2-6.78L297.06,224.84l73.13,39.95L468.47,84.88,395.33,44.93h0Z"/><polygon class="cls-1" points="295.41 275.93 294.07 317.22 328.1 293.78 295.41 275.93"/><path class="cls-4" d="M301.79,233.12l58.87,32.16-61.27,42.2,2.4-74.36m-4.74-8.28-3,92.38,76.12-52.43-73.13-39.95h0Z"/><line class="cls-5" x1="445.06" y1="72.1" x2="346.79" y2="252"/><line class="cls-5" x1="409.96" y1="52.92" x2="311.68" y2="232.83"/></svg>